<?xml version="1.0" encoding="UTF-8" standalone="no"?>
<svg
   xmlns:dc="http://purl.org/dc/elements/1.1/"
   xmlns:cc="http://creativecommons.org/ns#"
   xmlns:rdf="http://www.w3.org/1999/02/22-rdf-syntax-ns#"
   xmlns:svg="http://www.w3.org/2000/svg"
   xmlns="http://www.w3.org/2000/svg"
   xmlns:sodipodi="http://sodipodi.sourceforge.net/DTD/sodipodi-0.dtd"
   xmlns:inkscape="http://www.inkscape.org/namespaces/inkscape"
   version="1.1"
   id="svg833"
   xml:space="preserve"
   width="200mm"
   height="200mm"
   viewBox="0 0 755.90547 755.90547"
   sodipodi:docname="corne_tilting_200x200.svg"
   inkscape:version="1.0 (4035a4fb49, 2020-05-01)"><metadata
     id="metadata839"><rdf:RDF><cc:Work
         rdf:about=""><dc:format>image/svg+xml</dc:format><dc:type
           rdf:resource="http://purl.org/dc/dcmitype/StillImage" /><dc:title /></cc:Work></rdf:RDF></metadata><defs
     id="defs837"><clipPath
       clipPathUnits="userSpaceOnUse"
       id="clipPath849"><path
         d="M 0,595.276 H 841.89 V 0 H 0 Z"
         id="path847" /></clipPath><clipPath
       clipPathUnits="userSpaceOnUse"
       id="clipPath1009"><path
         d="M 0,595.276 H 841.89 V 0 H 0 Z"
         id="path1007" /></clipPath></defs><sodipodi:namedview
     units="mm"
     inkscape:document-rotation="0"
     pagecolor="#ffffff"
     bordercolor="#666666"
     borderopacity="1"
     objecttolerance="10"
     gridtolerance="10"
     guidetolerance="10"
     inkscape:pageopacity="0"
     inkscape:pageshadow="2"
     inkscape:window-width="1933"
     inkscape:window-height="1401"
     id="namedview835"
     showgrid="false"
     inkscape:zoom="1"
     inkscape:cx="452.97363"
     inkscape:cy="367.95075"
     inkscape:window-x="1777"
     inkscape:window-y="203"
     inkscape:window-maximized="0"
     inkscape:current-layer="g2217"
     inkscape:snap-path-clip="true"><inkscape:grid
       id="grid2818"
       type="xygrid" /></sodipodi:namedview><g
     id="g2217"
     transform="rotate(180,21.207326,379.83267)"
     inkscape:label="Corne Tilt Alps Bottom"><path
       id="path1123"
       style="fill:none;stroke:#0000ff;stroke-width:1.13386;stroke-linecap:round;stroke-linejoin:round;stroke-miterlimit:10;stroke-dasharray:none;stroke-opacity:1"
       d="m -167.23449,145.50688 c 0,-5.42667 4.4,-9.82667 9.82667,-9.82667 5.42666,0 9.82666,4.4 9.82666,9.82667 0,5.42666 -4.4,9.82666 -9.82666,9.82666 -5.42667,0 -9.82667,-4.4 -9.82667,-9.82666 z" /><path
       id="path1127"
       style="fill:none;stroke:#0000ff;stroke-width:1.13386;stroke-linecap:round;stroke-linejoin:round;stroke-miterlimit:10;stroke-dasharray:none;stroke-opacity:1"
       d="m -568.94941,215.99768 c -5.42667,0 -9.82667,-4.39867 -9.82667,-9.82667 0,-5.42667 4.4,-9.82667 9.82667,-9.82667 5.42666,0 9.82666,4.4 9.82666,9.82667 0,5.428 -4.4,9.82667 -9.82666,9.82667 z" /><path
       id="path1131"
       style="fill:none;stroke:#0000ff;stroke-width:1.13386;stroke-linecap:round;stroke-linejoin:round;stroke-miterlimit:10;stroke-dasharray:none;stroke-opacity:1"
       d="m -52.1369,450.8806 c 4.7,2.71334 6.3093,8.724 3.596,13.424 -2.7133,4.7 -8.7227,6.31067 -13.4227,3.59734 -4.7013,-2.71467 -6.3106,-8.724 -3.596,-13.424 2.7134,-4.7 8.7227,-6.31067 13.4227,-3.59734 z" /><path
       id="path1135"
       style="fill:none;stroke:#0000ff;stroke-width:1.13386;stroke-linecap:round;stroke-linejoin:round;stroke-miterlimit:10;stroke-dasharray:none;stroke-opacity:1"
       d="m -321.28142,379.39234 c 0,-2.296 1.86133,-4.15733 4.15733,-4.15733 2.296,0 4.15734,1.86133 4.15734,4.15733 0,2.29733 -1.86134,4.15733 -4.15734,4.15733 -2.296,0 -4.15733,-1.86 -4.15733,-4.15733 z" /><path
       id="path1139"
       style="fill:none;stroke:#0000ff;stroke-width:1.13386;stroke-linecap:round;stroke-linejoin:round;stroke-miterlimit:10;stroke-dasharray:none;stroke-opacity:1"
       d="m -197.39596,229.16701 c 0,-2.29733 1.86134,-4.15733 4.15867,-4.15733 2.296,0 4.15733,1.86 4.15733,4.15733 0,2.296 -1.86133,4.15733 -4.15733,4.15733 -2.29733,0 -4.15867,-1.86133 -4.15867,-4.15733 z" /><path
       id="path1143"
       style="fill:none;stroke:#0000ff;stroke-width:1.13386;stroke-linecap:round;stroke-linejoin:round;stroke-miterlimit:10;stroke-dasharray:none;stroke-opacity:1"
       d="m -484.72222,242.85714 c 0,-2.296 1.86134,-4.15733 4.15867,-4.15733 2.296,0 4.15733,1.86133 4.15733,4.15733 0,2.29734 -1.86133,4.15867 -4.15733,4.15867 -2.29733,0 -4.15867,-1.86133 -4.15867,-4.15867 z" /><path
       id="path1147"
       style="fill:none;stroke:#0000ff;stroke-width:1.13386;stroke-linecap:round;stroke-linejoin:round;stroke-miterlimit:10;stroke-dasharray:none;stroke-opacity:1"
       d="m -484.75542,314.72567 c 0,-2.296 1.86134,-4.15733 4.15867,-4.15733 2.296,0 4.15733,1.86133 4.15733,4.15733 0,2.29734 -1.86133,4.15734 -4.15733,4.15734 -2.29733,0 -4.15867,-1.86 -4.15867,-4.15734 z" /><path
       id="path1151"
       style="fill:none;stroke:#0000ff;stroke-width:1.13386;stroke-linecap:round;stroke-linejoin:round;stroke-miterlimit:10;stroke-dasharray:none;stroke-opacity:1"
       d="m -145.45849,408.70087 c 0,-2.296 1.86133,-4.15733 4.15733,-4.15733 2.29736,0 4.15866,1.86133 4.15866,4.15733 0,2.29733 -1.8613,4.15733 -4.15866,4.15733 -2.296,0 -4.15733,-1.86 -4.15733,-4.15733 z" /><path
       id="path1159"
       style="fill:none;stroke:#0000ff;stroke-width:1.13386;stroke-linecap:round;stroke-linejoin:round;stroke-miterlimit:10;stroke-dasharray:none;stroke-opacity:1"
       d="m -568.98515,359.71261 c -5.428,0 -9.82666,-4.4 -9.82666,-9.82667 0,-5.42667 4.39866,-9.82667 9.82666,-9.82667 5.42667,0 9.82667,4.4 9.82667,9.82667 0,5.42667 -4.4,9.82667 -9.82667,9.82667 z" /><path
       sodipodi:nodetypes="cccccccccccccccsccsccsscsscssscssscsccsssssssssssssssccsscsscccccsscc"
       id="path1163"
       style="fill:none;stroke:#0000ff;stroke-width:1.13386;stroke-linecap:round;stroke-linejoin:round;stroke-miterlimit:10;stroke-dasharray:none;stroke-opacity:1"
       d="m -47.6369,405.92087 -10.3147,18.03067 c -3.0866,5.39466 -1.256,12.268 4.1054,15.412 l 6.244,3.66133 c 9.04,5.21867 12.136,16.776 6.9173,25.81467 -5.2173,9.03866 -16.776,12.136 -25.8133,6.91733 l -6.0787,-3.54667 c -5.436,-3.172 -12.416,-1.31066 -15.548,4.148 l -9.5973,16.72267 c -1.052,1.48533 -3.1094,1.84 -4.5947,0.78933 l -55.74666,-32.088 c -0.34533,-0.11866 -0.7,-0.21066 -1.05866,-0.272 l -139.064,-20.672 c -0.488,-0.0493 -0.94933,-0.24666 -1.32267,-0.56533 0,0 -39.87733,-54.65067 -39.864,-54.632 -0.35333,-0.35467 -0.83466,-0.55333 -1.336,-0.55333 h -136.07199 -7.56 -67.9367 c -1.044,0 -1.89067,-0.84667 -1.89067,-1.89067 l -0.0453,-3.07733 c 0,-6.26133 -1.3953,-11.33733 -7.65797,-11.33733 h -7.11333 c -10.74,0 -19.388,-8.95867 -18.876,-19.81067 0.47733,-10.164 9.23333,-17.984 19.40933,-17.984 h 5.58908 c 6.26267,0 8.63588,-5.07733 8.63588,-11.33867 l 0.0267,-83.24266 c 0.002,-6.26133 -2.37321,-11.33733 -8.63455,-11.33733 h -6.11441 c -10.74,0 -19.388,-8.95867 -18.87733,-19.81067 0.47866,-10.164 9.23466,-17.984 19.41066,-17.984 h 6.58934 c 6.26266,0 7.51641,-5.07733 7.51641,-11.33867 v -1.572 c 0.001,-1.044 0.84934,-1.88933 1.89334,-1.88933 h 68.07558 7.56 61.55439 c 1.044,0 0.88974,-0.84667 0.88974,-1.89067 v -14.17466 c 0,-1.04267 0.84667,-1.88934 1.89067,-1.88934 h 67.19057 c 1.04266,0 2.88892,-0.84666 2.88892,-1.89066 v -4.724 c 0,-1.044 0.84666,-1.89067 1.89066,-1.89067 h 79.05231 c 1.04267,0 1.88934,0.84667 1.88934,1.89067 v 4.724 c 0,1.044 0.84533,1.89066 1.88933,1.89066 h 68.036 c 1.044,0 1.89067,0.84667 1.89067,1.88934 v 5.66933 c 0,1.044 0.84666,1.892 1.892,1.89067 v 0 c 6.25867,-0.004 9.52139,-5.08137 9.52139,-11.3427 v -6.58534 c 0,-10.176 7.81867,-18.93066 17.98267,-19.40933 10.85333,-0.512 19.81206,8.136 19.81206,18.87467 v 7.12266 c 0,6.26 5.0706,11.33334 11.3306,11.33867 l 4.639,0.001 c 1.0427,0.001 1.8893,0.84667 1.8893,1.89067 l -0.015,4.656 c 0.108,1.01466 0.8866,1.82666 1.8933,1.98 h 71.933 c 1.0427,0 1.8894,0.84533 1.8894,1.88933 v 222.84406 c -0.1627,3.07333 -1.092,6.05733 -2.7014,8.68267" /></g><g
     id="g2204"
     transform="translate(-49.527911,-23.70393)"
     inkscape:label="Corne Tilt Alps Oled Cover"><path
       id="path1025"
       style="fill:none;stroke:#0000ff;stroke-width:1.13386;stroke-linecap:round;stroke-linejoin:round;stroke-miterlimit:10;stroke-dasharray:none;stroke-opacity:1"
       d="m 605.92978,26.16286 v 178.98533 c 0.22667,1.976 1.112,2.952 2.416,4.08933 l 71.204,41.032 c 1.52933,0.64267 3.292,-0.0773 3.93467,-1.60533 0.0933,-0.22534 0.16133,-0.46267 0.19733,-0.70267 l -0.003,-221.75999 c 0,-1.044 -0.84666,-1.89067 -1.88933,-1.89067 l -73.96933,-0.04 c -1.044,0.001 -1.88934,0.848 -1.89067,1.892" /><path
       id="path1029"
       style="fill:none;stroke:#0000ff;stroke-width:1.13386;stroke-linecap:round;stroke-linejoin:round;stroke-miterlimit:10;stroke-dasharray:none;stroke-opacity:1"
       d="m 615.29311,203.70072 c 0,-2.29733 1.86134,-4.15866 4.15734,-4.15866 2.296,0 4.15733,1.86133 4.15733,4.15866 0,2.296 -1.86133,4.15734 -4.15733,4.15734 -2.296,0 -4.15734,-1.86134 -4.15734,-4.15734 z" /><path
       id="path1033"
       style="fill:none;stroke:#0000ff;stroke-width:1.13386;stroke-linecap:round;stroke-linejoin:round;stroke-miterlimit:10;stroke-dasharray:none;stroke-opacity:1"
       d="m 670.09911,235.82832 c 0,-2.296 1.86134,-4.15733 4.15867,-4.15733 2.296,0 4.15733,1.86133 4.15733,4.15733 0,2.29733 -1.86133,4.15733 -4.15733,4.15733 -2.29733,0 -4.15867,-1.86 -4.15867,-4.15733 z" /></g><g
     id="g2251"
     inkscape:label="Corne Tilt Alps Top"
     transform="translate(79.999999)"><path
       id="path1049-1"
       style="fill:none;stroke:#0000ff;stroke-width:1.13386;stroke-linecap:round;stroke-linejoin:round;stroke-miterlimit:10;stroke-dasharray:none;stroke-opacity:1"
       d="m 443.00463,282.66181 c 0,-2.296 1.86133,-4.15734 4.15867,-4.15734 2.296,0 4.15733,1.86134 4.15733,4.15734 0,2.29733 -1.86133,4.15733 -4.15733,4.15733 -2.29734,0 -4.15867,-1.86 -4.15867,-4.15733 z" /><path
       id="path1103-1"
       style="fill:none;stroke:#0000ff;stroke-width:1.13386;stroke-linecap:round;stroke-linejoin:round;stroke-miterlimit:10;stroke-dasharray:none;stroke-opacity:1"
       d="m 421.2149,19.463813 c 0,-5.426667 4.39866,-9.826667 9.82666,-9.826667 5.42667,0 9.82667,4.4 9.82667,9.826667 0,5.428 -4.4,9.826666 -9.82667,9.826666 -5.428,0 -9.82666,-4.398666 -9.82666,-9.826666 z" /><path
       id="path1107-1"
       style="fill:none;stroke:#0000ff;stroke-width:1.13386;stroke-linecap:round;stroke-linejoin:round;stroke-miterlimit:10;stroke-dasharray:none;stroke-opacity:1"
       d="m 19.500113,89.955944 c -5.428,0 -9.8266672,-4.4 -9.8266672,-9.826666 0,-5.428 4.3986672,-9.826667 9.8266672,-9.826667 5.426666,0 9.826666,4.398667 9.826666,9.826667 0,5.426666 -4.4,9.826666 -9.826666,9.826666 z" /><path
       id="path1111-2"
       style="fill:none;stroke:#0000ff;stroke-width:1.13386;stroke-linecap:round;stroke-linejoin:round;stroke-miterlimit:10;stroke-dasharray:none;stroke-opacity:1"
       d="m 536.31263,324.83754 c 4.7,2.71333 6.30933,8.724 3.596,13.424 -2.71334,4.7 -8.72267,6.31067 -13.42267,3.59733 -4.70133,-2.71466 -6.31067,-8.724 -3.59733,-13.424 2.71333,-4.7 8.724,-6.31066 13.424,-3.59733 z" /><path
       id="path1115-2"
       style="fill:none;stroke:#0000ff;stroke-width:1.13386;stroke-linecap:round;stroke-linejoin:round;stroke-miterlimit:10;stroke-dasharray:none;stroke-opacity:1"
       d="m 19.463579,233.66954 c -5.426666,0 -9.8266665,-4.4 -9.8266665,-9.82666 0,-5.42667 4.4000005,-9.82667 9.8266665,-9.82667 5.426667,0 9.826667,4.4 9.826667,9.82667 0,5.42666 -4.4,9.82666 -9.826667,9.82666 z" /><path
       sodipodi:nodetypes="csscssccsccscccccccsccccccccccccsccsscssccsssssssssssssssccscssscsscc"
       id="path1119-1"
       style="fill:none;stroke:#0000ff;stroke-width:1.13386;stroke-linecap:round;stroke-linejoin:round;stroke-miterlimit:10;stroke-dasharray:none;stroke-opacity:1"
       d="m 34.25552,193.60581 c 0,6.26267 -2.407406,11.33867 -8.66874,11.33867 h -5.588934 c -10.1760002,0 -18.932,7.82 -19.40933335,17.984 -0.51199999,10.85333 8.13599985,19.812 18.87466635,19.812 h 7.114667 c 6.262666,0 7.653561,5.07466 7.653561,11.33733 l 0.04533,3.076 c 0,1.044 0.846667,1.89067 1.889334,1.89067 h 67.942439 7.56 136.07199 c 0.50133,0 0.98267,0.2 1.336,0.55333 -0.0133,-0.0187 39.864,54.632 39.864,54.632 0.37333,0.31866 0.83467,0.516 1.32267,0.56666 l 139.06399,20.67067 c 0.35867,0.0613 0.71334,0.15333 1.05867,0.27467 l 55.74666,32.08533 c 1.48667,1.05067 3.54267,0.69733 4.59467,-0.78933 l 9.596,-16.72134 c 3.13333,-5.46 10.11333,-7.32133 15.54933,-4.14933 l 6.07734,3.54667 c 9.03866,5.21866 20.596,2.12266 25.81466,-6.916 5.21867,-9.04 2.12134,-20.59734 -6.91733,-25.816 l -6.244,-3.66134 c -5.36133,-3.14266 -7.192,-10.01733 -4.10667,-15.41066 l 10.316,-18.032 c 1.15867,-2.20667 0.54667,-4.92934 -1.44666,-6.428 l -69.40397,-41.716 c -1.10934,-0.98133 -1.876,-2.29333 -2.18667,-3.74133 v -122.052 l 0.003,-61.458668 v -4.665333 c 0,-1.042667 -0.84533,-1.889333 -1.88933,-1.890667 l -4.62003,-0.0013 c -6.25867,-0.0053 -11.32934,-5.078667 -11.32934,-11.338666 v -7.121334 c 0,-10.7399996 -8.95866,-19.38799946 -19.812,-18.87599947 C 419.96316,1.0671462 412.1445,9.823146 412.1445,19.997813 v 6.586666 c 0,6.26 -2.95388,11.334667 -9.21254,11.338667 l -0.22178,0.0027 c -1.044,0.0013 -1.892,-0.845333 -1.892,-1.890666 v -5.669334 c 0,-1.042666 -0.84533,-1.889333 -1.88933,-1.889333 h -68.036 c -1.044,0 -1.88933,-0.845333 -1.88933,-1.889333 v -4.725333 c 0,-1.044 -0.84667,-1.889334 -1.89067,-1.889334 h -79.1844 c -1.044,0 -1.89067,0.845334 -1.89067,1.889334 v 4.725333 c 0,1.044 -0.84533,1.889333 -1.88933,1.889333 h -68.2077 c -1.04267,0 -1.88934,0.846667 -1.88934,1.889333 v 14.174667 c 0,1.044 -0.84533,1.890666 -1.89066,1.890666 h -60.49224 -7.56 -68.129665 c -1.044,0 -1.890666,0.845334 -1.892,1.889334 v 1.572 c 0,6.261333 -1.200999,11.338666 -7.463666,11.338666 h -6.589333 c -10.1760002,0 -18.932,7.82 -19.41066669,17.984 C 0.11251266,90.067144 8.7591791,99.025811 19.500513,99.025811 h 6.112934 c 6.262667,0 8.668739,5.075999 8.668739,11.337339 z" /><path
       id="path102-1-7"
       style="font-variation-settings:normal;vector-effect:none;fill:none;fill-opacity:1;stroke:#0000ff;stroke-width:1.13386;stroke-linecap:round;stroke-linejoin:round;stroke-miterlimit:10;stroke-dasharray:none;stroke-dashoffset:0;stroke-opacity:1;stop-color:#000000"
       d="m 391.07131,103.14447 c 0.003,2.29598 1.86135,4.15733 4.15733,4.15733 2.29599,0 4.16002,-1.86135 4.16002,-4.15733 0,-2.29603 -1.86403,-4.157366 -4.16002,-4.157366 -2.29598,0 -4.15469,1.861336 -4.15469,4.157366" /><path
       id="path108-7-1"
       style="font-variation-settings:normal;vector-effect:none;fill:none;fill-opacity:1;stroke:#0000ff;stroke-width:1.13386;stroke-linecap:round;stroke-linejoin:round;stroke-miterlimit:10;stroke-dasharray:none;stroke-dashoffset:0;stroke-opacity:1;stop-color:#000000"
       d="m 103.77675,116.83513 c 0,2.29599 1.86146,4.15732 4.15733,4.15732 2.29573,0 4.15718,-1.86133 4.15718,-4.15732 0,-2.29602 -1.86145,-4.15733 -4.15718,-4.15733 -2.29587,0 -4.15733,1.86131 -4.15733,4.15733" /><path
       id="path110-3-5"
       style="font-variation-settings:normal;vector-effect:none;fill:none;fill-opacity:1;stroke:#0000ff;stroke-width:1.13386;stroke-linecap:round;stroke-linejoin:round;stroke-miterlimit:10;stroke-dasharray:none;stroke-dashoffset:0;stroke-opacity:1;stop-color:#000000"
       d="m 103.74342,188.69778 c 0,2.29335 1.86145,4.15468 4.15733,4.15468 2.29572,0 4.15721,-1.86133 4.15721,-4.15468 0,-2.29866 -1.86149,-4.15997 -4.15721,-4.15997 -2.29588,0 -4.15733,1.86131 -4.15733,4.15997" /><path
       id="path112-3-5"
       style="font-variation-settings:normal;vector-effect:none;fill:none;fill-opacity:1;stroke:#0000ff;stroke-width:1.13386;stroke-linecap:round;stroke-linejoin:round;stroke-miterlimit:10;stroke-dasharray:none;stroke-dashoffset:0;stroke-opacity:1;stop-color:#000000"
       d="m 443.00463,282.66179 c 0,2.29603 1.86135,4.15602 4.15733,4.15602 2.29603,0 4.15736,-1.85999 4.15736,-4.15734 0,-2.29598 -1.86133,-4.156 -4.15736,-4.156 -2.29598,0 -4.15733,1.86002 -4.15733,4.156" /><path
       id="path114-5-9"
       style="font-variation-settings:normal;vector-effect:none;fill:none;fill-opacity:1;stroke:#0000ff;stroke-width:1.13386;stroke-linecap:round;stroke-linejoin:round;stroke-miterlimit:10;stroke-dasharray:none;stroke-dashoffset:0;stroke-opacity:1;stop-color:#000000"
       d="m 267.19797,253.3538 c 0,2.29866 1.8613,4.15736 4.15733,4.15736 2.29599,0 4.15733,-1.8587 4.15733,-4.15468 0,-2.29599 -1.86134,-4.15734 -4.15733,-4.15734 -2.29603,0 -4.15733,1.86135 -4.15733,4.15734" /><path
       id="path116-7-3"
       style="font-variation-settings:normal;vector-effect:none;fill:none;fill-opacity:1;stroke:#0000ff;stroke-width:1.13386;stroke-linecap:round;stroke-linejoin:round;stroke-miterlimit:10;stroke-dasharray:none;stroke-dashoffset:0;stroke-opacity:1;stop-color:#000000"
       d="M 101.28714,56.717785 H 42.703292 v 48.378655 h 58.583848 z" /><path
       id="path118-4-7"
       style="font-variation-settings:normal;vector-effect:none;fill:none;fill-opacity:1;stroke:#0000ff;stroke-width:1.13386;stroke-linecap:round;stroke-linejoin:round;stroke-miterlimit:10;stroke-dasharray:none;stroke-dashoffset:0;stroke-opacity:1;stop-color:#000000"
       d="m 244.90862,38.765772 h -58.58268 v 48.377346 h 58.58268 z" /><path
       id="path120-9-5"
       style="font-variation-settings:normal;vector-effect:none;fill:none;fill-opacity:1;stroke:#0000ff;stroke-width:1.13386;stroke-linecap:round;stroke-linejoin:round;stroke-miterlimit:10;stroke-dasharray:none;stroke-dashoffset:0;stroke-opacity:1;stop-color:#000000"
       d="m 244.90862,110.57245 h -58.58268 v 48.37867 h 58.58268 z" /><path
       id="path122-7-1"
       style="font-variation-settings:normal;vector-effect:none;fill:none;fill-opacity:1;stroke:#0000ff;stroke-width:1.13386;stroke-linecap:round;stroke-linejoin:round;stroke-miterlimit:10;stroke-dasharray:none;stroke-dashoffset:0;stroke-opacity:1;stop-color:#000000"
       d="m 244.90862,182.38313 h -58.58268 v 48.37869 h 58.58268 z" /><path
       id="path124-6-2"
       style="font-variation-settings:normal;vector-effect:none;fill:none;fill-opacity:1;stroke:#0000ff;stroke-width:1.13386;stroke-linecap:round;stroke-linejoin:round;stroke-miterlimit:10;stroke-dasharray:none;stroke-dashoffset:0;stroke-opacity:1;stop-color:#000000"
       d="M 316.7153,29.788439 H 258.13262 V 78.167118 H 316.7153 Z" /><path
       id="path126-9-8"
       style="font-variation-settings:normal;vector-effect:none;fill:none;fill-opacity:1;stroke:#0000ff;stroke-width:1.13386;stroke-linecap:round;stroke-linejoin:round;stroke-miterlimit:10;stroke-dasharray:none;stroke-dashoffset:0;stroke-opacity:1;stop-color:#000000"
       d="m 316.7153,101.60045 h -58.58268 v 48.37736 h 58.58268 z" /><path
       id="path128-1-7"
       style="font-variation-settings:normal;vector-effect:none;fill:none;fill-opacity:1;stroke:#0000ff;stroke-width:1.13386;stroke-linecap:round;stroke-linejoin:round;stroke-miterlimit:10;stroke-dasharray:none;stroke-dashoffset:0;stroke-opacity:1;stop-color:#000000"
       d="m 316.7153,173.40713 h -58.58268 v 48.37868 h 58.58268 z" /><path
       id="path130-4-9"
       style="font-variation-settings:normal;vector-effect:none;fill:none;fill-opacity:1;stroke:#0000ff;stroke-width:1.13386;stroke-linecap:round;stroke-linejoin:round;stroke-miterlimit:10;stroke-dasharray:none;stroke-dashoffset:0;stroke-opacity:1;stop-color:#000000"
       d="m 388.52731,182.38313 h -58.58268 v 48.37869 h 58.58268 z" /><path
       id="path132-6-2"
       style="font-variation-settings:normal;vector-effect:none;fill:none;fill-opacity:1;stroke:#0000ff;stroke-width:1.13386;stroke-linecap:round;stroke-linejoin:round;stroke-miterlimit:10;stroke-dasharray:none;stroke-dashoffset:0;stroke-opacity:1;stop-color:#000000"
       d="m 352.62195,256.55381 h -58.58264 v 48.37734 h 58.58264 z" /><path
       id="path134-1-7"
       style="font-variation-settings:normal;vector-effect:none;fill:none;fill-opacity:1;stroke:#0000ff;stroke-width:1.13386;stroke-linecap:round;stroke-linejoin:round;stroke-miterlimit:10;stroke-dasharray:none;stroke-dashoffset:0;stroke-opacity:1;stop-color:#000000"
       d="m 460.33399,47.737785 h -58.58268 v 48.378652 h 58.58268 z" /><path
       id="path136-2-9"
       style="font-variation-settings:normal;vector-effect:none;fill:none;fill-opacity:1;stroke:#0000ff;stroke-width:1.13386;stroke-linecap:round;stroke-linejoin:round;stroke-miterlimit:10;stroke-dasharray:none;stroke-dashoffset:0;stroke-opacity:1;stop-color:#000000"
       d="m 460.33399,119.54845 h -58.58268 v 48.37867 h 58.58268 z" /><path
       id="path138-1-0"
       style="font-variation-settings:normal;vector-effect:none;fill:none;fill-opacity:1;stroke:#0000ff;stroke-width:1.13386;stroke-linecap:round;stroke-linejoin:round;stroke-miterlimit:10;stroke-dasharray:none;stroke-dashoffset:0;stroke-opacity:1;stop-color:#000000"
       d="m 460.33399,191.36046 h -58.58268 v 48.37736 h 58.58268 z" /><path
       id="path140-0-1"
       style="font-variation-settings:normal;vector-effect:none;fill:none;fill-opacity:1;stroke:#0000ff;stroke-width:1.13386;stroke-linecap:round;stroke-linejoin:round;stroke-miterlimit:10;stroke-dasharray:none;stroke-dashoffset:0;stroke-opacity:1;stop-color:#000000"
       d="m 388.52731,110.57245 h -58.58268 v 48.37867 h 58.58268 z" /><path
       id="path142-9-5"
       style="font-variation-settings:normal;vector-effect:none;fill:none;fill-opacity:1;stroke:#0000ff;stroke-width:1.13386;stroke-linecap:round;stroke-linejoin:round;stroke-miterlimit:10;stroke-dasharray:none;stroke-dashoffset:0;stroke-opacity:1;stop-color:#000000"
       d="m 388.52731,38.765772 h -58.58268 v 48.377346 h 58.58268 z" /><path
       id="path144-7-5"
       style="font-variation-settings:normal;vector-effect:none;fill:none;fill-opacity:1;stroke:#0000ff;stroke-width:1.13386;stroke-linecap:round;stroke-linejoin:round;stroke-miterlimit:10;stroke-dasharray:none;stroke-dashoffset:0;stroke-opacity:1;stop-color:#000000"
       d="m 173.09794,128.52979 h -58.58268 v 48.37734 h 58.58268 z" /><path
       id="path146-8-6"
       style="font-variation-settings:normal;vector-effect:none;fill:none;fill-opacity:1;stroke:#0000ff;stroke-width:1.13386;stroke-linecap:round;stroke-linejoin:round;stroke-miterlimit:10;stroke-dasharray:none;stroke-dashoffset:0;stroke-opacity:1;stop-color:#000000"
       d="M 101.28714,128.52979 H 42.703292 v 48.37734 h 58.583848 z" /><path
       id="path148-7-8"
       style="font-variation-settings:normal;vector-effect:none;fill:none;fill-opacity:1;stroke:#0000ff;stroke-width:1.13386;stroke-linecap:round;stroke-linejoin:round;stroke-miterlimit:10;stroke-dasharray:none;stroke-dashoffset:0;stroke-opacity:1;stop-color:#000000"
       d="M 101.28714,200.33245 H 42.703292 v 48.37868 h 58.583848 z" /><path
       id="path150-8-7"
       style="font-variation-settings:normal;vector-effect:none;fill:none;fill-opacity:1;stroke:#0000ff;stroke-width:1.13386;stroke-linecap:round;stroke-linejoin:round;stroke-miterlimit:10;stroke-dasharray:none;stroke-dashoffset:0;stroke-opacity:1;stop-color:#000000"
       d="m 173.09794,200.33245 h -58.58268 v 48.37868 h 58.58268 z" /><path
       id="path152-3-2"
       style="font-variation-settings:normal;vector-effect:none;fill:none;fill-opacity:1;stroke:#0000ff;stroke-width:1.13386;stroke-linecap:round;stroke-linejoin:round;stroke-miterlimit:10;stroke-dasharray:none;stroke-dashoffset:0;stroke-opacity:1;stop-color:#000000"
       d="m 173.09794,56.717785 h -58.58268 v 48.378655 h 58.58268 z" /><path
       id="path154-5-5"
       style="font-variation-settings:normal;vector-effect:none;fill:none;fill-opacity:1;stroke:#0000ff;stroke-width:1.13386;stroke-linecap:round;stroke-linejoin:round;stroke-miterlimit:10;stroke-dasharray:none;stroke-dashoffset:0;stroke-opacity:1;stop-color:#000000"
       d="m 451.24196,318.63915 29.256,-50.75466 41.91337,24.15998 -29.25604,50.75335 z" /><path
       id="path156-0-9"
       style="font-variation-settings:normal;vector-effect:none;fill:none;fill-opacity:1;stroke:#0000ff;stroke-width:1.13386;stroke-linecap:round;stroke-linejoin:round;stroke-miterlimit:10;stroke-dasharray:none;stroke-dashoffset:0;stroke-opacity:1;stop-color:#000000"
       d="m 368.1393,306.94046 12.52134,-46.72932 56.58667,15.16267 -12.52135,46.72933 z" /></g><g
     id="g2273"
     inkscape:label="Corne Tilt Spacers"
     transform="translate(79.999999)"><path
       id="path1297"
       style="fill:none;stroke:#0000ff;stroke-width:1.13386;stroke-linecap:round;stroke-linejoin:round;stroke-miterlimit:10;stroke-dasharray:none;stroke-opacity:1"
       d="m 359.40689,640.69713 c 0,-5.47333 4.476,-9.90266 9.96667,-9.82533 5.21862,0.072 9.61332,4.46533 9.68662,9.68533 0.076,5.492 -4.352,9.96667 -9.82662,9.96667 -5.42667,0 -9.82667,-4.4 -9.82667,-9.82667 z" /><path
       id="path1301"
       style="fill:none;stroke:#0000ff;stroke-width:1.13386;stroke-linecap:round;stroke-linejoin:round;stroke-miterlimit:10;stroke-dasharray:none;stroke-opacity:1"
       d="m 388.54038,657.07087 c 1.5066,0 2.444,-1.7 1.5746,-2.93067 -0.5906,-0.83867 -1.112,-1.81733 -1.4733,-2.94667 -0.4013,-1.25866 -0.5147,-2.42 -0.5107,-3.372 v -6.628 c 0,-9.70133 -7.1053,-18.21066 -16.74795,-19.27466 -11.39867,-1.25867 -21.04667,7.632 -21.04667,18.77866 v 7.11467 c 0,0.968 -0.12667,3.93333 -2.252,6.784 -0.76133,1.01333 -0.0373,2.46133 1.232,2.46133 z" /><path
       id="path1305"
       style="fill:none;stroke:#0000ff;stroke-width:1.13386;stroke-linecap:round;stroke-linejoin:round;stroke-miterlimit:10;stroke-dasharray:none;stroke-opacity:1"
       d="m 413.00861,640.69714 c 0,-5.47334 4.476,-9.90267 9.9667,-9.82534 5.2186,0.072 9.6133,4.46534 9.6866,9.68534 0.076,5.492 -4.352,9.96666 -9.8266,9.96666 -5.4267,0 -9.8267,-4.4 -9.8267,-9.82666 z" /><path
       id="path1309"
       style="fill:none;stroke:#0000ff;stroke-width:1.13386;stroke-linecap:round;stroke-linejoin:round;stroke-miterlimit:10;stroke-dasharray:none;stroke-opacity:1"
       d="m 442.14211,657.07087 c 1.5066,0 2.444,-1.7 1.5746,-2.93067 -0.5906,-0.83866 -1.112,-1.81733 -1.4733,-2.94666 -0.4013,-1.25867 -0.5147,-2.42 -0.5107,-3.372 v -6.628 c 0,-9.70134 -7.1053,-18.21067 -16.748,-19.27467 -11.3986,-1.25867 -21.0466,7.63333 -21.0466,18.77867 v 7.11466 c 0,0.968 -0.1267,3.93334 -2.252,6.784 -0.7614,1.01334 -0.037,2.46134 1.232,2.46134 z" /><path
       id="path1313"
       style="fill:none;stroke:#0000ff;stroke-width:1.13386;stroke-linecap:round;stroke-linejoin:round;stroke-miterlimit:10;stroke-dasharray:none;stroke-opacity:1"
       d="m 466.61026,640.69593 c 0,-5.47333 4.4747,-9.90266 9.9667,-9.82533 5.2187,0.0733 9.6133,4.46667 9.6853,9.68667 0.077,5.49066 -4.3506,9.96533 -9.8253,9.96533 -5.4267,0 -9.8267,-4.4 -9.8267,-9.82667 z" /><path
       id="path1317"
       style="fill:none;stroke:#0000ff;stroke-width:1.13386;stroke-linecap:round;stroke-linejoin:round;stroke-miterlimit:10;stroke-dasharray:none;stroke-opacity:1"
       d="m 495.74376,657.07087 c 1.5067,0 2.444,-1.7 1.5747,-2.932 -0.5907,-0.83734 -1.112,-1.816 -1.4734,-2.94667 -0.4013,-1.25733 -0.5146,-2.42 -0.5106,-3.372 v -6.62667 c 0,-9.70133 -7.1067,-18.212 -16.748,-19.276 -11.3987,-1.25866 -21.0467,7.63334 -21.0467,18.77867 v 7.11467 c -10e-4,0.968 -0.1267,3.93466 -2.252,6.784 -0.7613,1.01466 -0.037,2.46133 1.232,2.46266 z" /><path
       id="path1321"
       style="fill:none;stroke:#0000ff;stroke-width:1.13386;stroke-linecap:round;stroke-linejoin:round;stroke-miterlimit:10;stroke-dasharray:none;stroke-opacity:1"
       d="m 520.21201,640.6958 c 0,-5.47333 4.4747,-9.90266 9.9667,-9.82533 5.2187,0.0733 9.6133,4.46667 9.6853,9.68667 0.077,5.49066 -4.3506,9.96533 -9.8253,9.96533 -5.4267,0 -9.8267,-4.4 -9.8267,-9.82667 z" /><path
       id="path1325"
       style="fill:none;stroke:#0000ff;stroke-width:1.13386;stroke-linecap:round;stroke-linejoin:round;stroke-miterlimit:10;stroke-dasharray:none;stroke-opacity:1"
       d="m 549.34551,657.07087 c 1.5067,0 2.444,-1.7 1.5747,-2.932 -0.5907,-0.83733 -1.112,-1.816 -1.4734,-2.94667 -0.4013,-1.25733 -0.5146,-2.42 -0.5106,-3.372 v -6.62666 c 0,-9.70134 -7.1067,-18.212 -16.748,-19.276 -11.3987,-1.25867 -21.0467,7.63333 -21.0467,18.77866 v 7.11467 c -10e-4,0.968 -0.1267,3.93467 -2.252,6.784 -0.7613,1.01467 -0.037,2.46133 1.232,2.46267 z" /><path
       d="m 145,640.69713 c 0,-5.47333 4.476,-9.90266 9.96667,-9.82533 5.21862,0.072 9.61332,4.46533 9.68662,9.68533 0.076,5.492 -4.352,9.96667 -9.82662,9.96667 -5.42667,0 -9.82667,-4.4 -9.82667,-9.82667 z"
       style="fill:none;stroke:#0000ff;stroke-width:1.13386;stroke-linecap:round;stroke-linejoin:round;stroke-miterlimit:10;stroke-dasharray:none;stroke-opacity:1"
       id="path1297-2" /><path
       d="m 174.13349,657.07087 c 1.5066,0 2.444,-1.7 1.5746,-2.93067 -0.5906,-0.83867 -1.112,-1.81733 -1.4733,-2.94667 -0.4013,-1.25866 -0.5147,-2.42 -0.5107,-3.372 v -6.628 c 0,-9.70133 -7.1053,-18.21066 -16.74795,-19.27466 -11.39867,-1.25867 -21.04667,7.632 -21.04667,18.77866 v 7.11467 c 0,0.968 -0.12667,3.93333 -2.252,6.784 -0.76133,1.01333 -0.0373,2.46133 1.232,2.46133 z"
       style="fill:none;stroke:#0000ff;stroke-width:1.13386;stroke-linecap:round;stroke-linejoin:round;stroke-miterlimit:10;stroke-dasharray:none;stroke-opacity:1"
       id="path1301-6" /><path
       d="m 198.60173,640.69713 c 0,-5.47333 4.476,-9.90266 9.96667,-9.82533 5.21862,0.072 9.61332,4.46533 9.68662,9.68533 0.076,5.492 -4.352,9.96667 -9.82662,9.96667 -5.42667,0 -9.82667,-4.4 -9.82667,-9.82667 z"
       style="fill:none;stroke:#0000ff;stroke-width:1.13386;stroke-linecap:round;stroke-linejoin:round;stroke-miterlimit:10;stroke-dasharray:none;stroke-opacity:1"
       id="path1297-9" /><path
       d="m 227.73522,657.07087 c 1.5066,0 2.444,-1.7 1.5746,-2.93067 -0.5906,-0.83867 -1.112,-1.81733 -1.4733,-2.94667 -0.4013,-1.25866 -0.5147,-2.42 -0.5107,-3.372 v -6.628 c 0,-9.70133 -7.1053,-18.21066 -16.74795,-19.27466 -11.39867,-1.25867 -21.04667,7.632 -21.04667,18.77866 v 7.11467 c 0,0.968 -0.12667,3.93333 -2.252,6.784 -0.76133,1.01333 -0.0373,2.46133 1.232,2.46133 z"
       style="fill:none;stroke:#0000ff;stroke-width:1.13386;stroke-linecap:round;stroke-linejoin:round;stroke-miterlimit:10;stroke-dasharray:none;stroke-opacity:1"
       id="path1301-5" /><path
       d="m 252.20343,640.69713 c 0,-5.47333 4.476,-9.90266 9.96667,-9.82533 5.21862,0.072 9.61332,4.46533 9.68662,9.68533 0.076,5.492 -4.352,9.96667 -9.82662,9.96667 -5.42667,0 -9.82667,-4.4 -9.82667,-9.82667 z"
       style="fill:none;stroke:#0000ff;stroke-width:1.13386;stroke-linecap:round;stroke-linejoin:round;stroke-miterlimit:10;stroke-dasharray:none;stroke-opacity:1"
       id="path1297-3" /><path
       d="m 281.33692,657.07087 c 1.5066,0 2.444,-1.7 1.5746,-2.93067 -0.5906,-0.83867 -1.112,-1.81733 -1.4733,-2.94667 -0.4013,-1.25866 -0.5147,-2.42 -0.5107,-3.372 v -6.628 c 0,-9.70133 -7.1053,-18.21066 -16.74795,-19.27466 -11.39867,-1.25867 -21.04667,7.632 -21.04667,18.77866 v 7.11467 c 0,0.968 -0.12667,3.93333 -2.252,6.784 -0.76133,1.01333 -0.0373,2.46133 1.232,2.46133 z"
       style="fill:none;stroke:#0000ff;stroke-width:1.13386;stroke-linecap:round;stroke-linejoin:round;stroke-miterlimit:10;stroke-dasharray:none;stroke-opacity:1"
       id="path1301-1" /><path
       d="m 305.80518,640.69713 c 0,-5.47333 4.476,-9.90266 9.96667,-9.82533 5.21862,0.072 9.61332,4.46533 9.68662,9.68533 0.076,5.492 -4.352,9.96667 -9.82662,9.96667 -5.42667,0 -9.82667,-4.4 -9.82667,-9.82667 z"
       style="fill:none;stroke:#0000ff;stroke-width:1.13386;stroke-linecap:round;stroke-linejoin:round;stroke-miterlimit:10;stroke-dasharray:none;stroke-opacity:1"
       id="path1297-4" /><path
       d="m 334.93867,657.07087 c 1.5066,0 2.444,-1.7 1.5746,-2.93067 -0.5906,-0.83867 -1.112,-1.81733 -1.4733,-2.94667 -0.4013,-1.25866 -0.5147,-2.42 -0.5107,-3.372 v -6.628 c 0,-9.70133 -7.1053,-18.21066 -16.74795,-19.27466 -11.39867,-1.25867 -21.04667,7.632 -21.04667,18.77866 v 7.11467 c 0,0.968 -0.12667,3.93333 -2.252,6.784 -0.76133,1.01333 -0.0373,2.46133 1.232,2.46133 z"
       style="fill:none;stroke:#0000ff;stroke-width:1.13386;stroke-linecap:round;stroke-linejoin:round;stroke-miterlimit:10;stroke-dasharray:none;stroke-opacity:1"
       id="path1301-4" /><path
       id="path1297-2-5"
       style="fill:none;stroke:#0000ff;stroke-width:1.13386;stroke-linecap:round;stroke-linejoin:round;stroke-miterlimit:10;stroke-dasharray:none;stroke-opacity:1"
       d="m 12.18593,640.69713 c 0,-5.47333 4.476,-9.90266 9.96667,-9.82533 5.21862,0.072 9.61332,4.46533 9.68662,9.68533 0.076,5.492 -4.352,9.96667 -9.82662,9.96667 -5.42667,0 -9.82667,-4.4 -9.82667,-9.82667 z" /><path
       id="path1301-6-5"
       style="fill:none;stroke:#0000ff;stroke-width:1.13386;stroke-linecap:round;stroke-linejoin:round;stroke-miterlimit:10;stroke-dasharray:none;stroke-opacity:1"
       d="m 41.31942,657.07087 c 1.5066,0 2.444,-1.7 1.5746,-2.93067 -0.5906,-0.83867 -1.112,-1.81733 -1.4733,-2.94667 -0.4013,-1.25866 -0.5147,-2.42 -0.5107,-3.372 v -6.628 c 0,-9.70133 -7.1053,-18.21066 -16.74795,-19.27466 C 12.7634,620.6602 3.1154,629.55087 3.1154,640.69753 v 7.11467 c 0,0.968 -0.12667,3.93333 -2.252,6.784 -0.76133,1.01333 -0.0373,2.46133 1.232,2.46133 z" /><path
       id="path1297-2-4"
       style="fill:none;stroke:#0000ff;stroke-width:1.13386;stroke-linecap:round;stroke-linejoin:round;stroke-miterlimit:10;stroke-dasharray:none;stroke-opacity:1"
       d="m 70,640.69713 c 0,-5.47333 4.476,-9.90266 9.96667,-9.82533 5.21862,0.072 9.61332,4.46533 9.68662,9.68533 0.076,5.492 -4.352,9.96667 -9.82662,9.96667 C 74.4,650.5238 70,646.1238 70,640.69713 Z" /><path
       id="path1301-6-3"
       style="fill:none;stroke:#0000ff;stroke-width:1.13386;stroke-linecap:round;stroke-linejoin:round;stroke-miterlimit:10;stroke-dasharray:none;stroke-opacity:1"
       d="m 99.13349,657.07087 c 1.5066,0 2.444,-1.7 1.5746,-2.93067 -0.5906,-0.83867 -1.112,-1.81733 -1.4733,-2.94667 -0.4013,-1.25866 -0.5147,-2.42 -0.5107,-3.372 v -6.628 c 0,-9.70133 -7.1053,-18.21066 -16.74795,-19.27466 -11.39867,-1.25867 -21.04667,7.632 -21.04667,18.77866 v 7.11467 c 0,0.968 -0.12667,3.93333 -2.252,6.784 -0.76133,1.01333 -0.0373,2.46133 1.232,2.46133 z" /></g><g
     id="g4252"
     inkscape:label="Corne Foot"
     transform="matrix(0,-3.7795276,3.7795276,0,648.31299,2154.3307)"><path
       id="path20-8-0-2"
       style="font-variation-settings:normal;vector-effect:none;fill:none;fill-opacity:1;stroke:#0000ff;stroke-width:0.3;stroke-linecap:round;stroke-linejoin:round;stroke-miterlimit:5.09091;stroke-dasharray:none;stroke-dashoffset:0;stroke-opacity:1;stop-color:#000000"
       d="m 435.62686,7.650056 c 0,-0.276578 0.22338,-0.499886 0.49925,-0.499886" /><path
       id="path24-7-0-1"
       style="font-variation-settings:normal;vector-effect:none;fill:none;fill-opacity:1;stroke:#0000ff;stroke-width:0.3;stroke-linecap:round;stroke-linejoin:round;stroke-miterlimit:5.09091;stroke-dasharray:none;stroke-dashoffset:0;stroke-opacity:1;stop-color:#000000"
       d="m 472.12568,7.149817 c 0.27587,0 0.49988,-0.223661 0.49988,-0.499533" /><path
       id="path26-7-1-5"
       style="font-variation-settings:normal;vector-effect:none;fill:none;fill-opacity:1;stroke:#0000ff;stroke-width:0.3;stroke-linecap:round;stroke-linejoin:round;stroke-miterlimit:5.09091;stroke-dasharray:none;stroke-dashoffset:0;stroke-opacity:1;stop-color:#000000"
       d="m 436.12611,7.150523 h 35.9978" /><path
       id="path28-8-7-9"
       style="font-variation-settings:normal;vector-effect:none;fill:none;fill-opacity:1;stroke:#0000ff;stroke-width:0.3;stroke-linecap:round;stroke-linejoin:round;stroke-miterlimit:5.09091;stroke-dasharray:none;stroke-dashoffset:0;stroke-opacity:1;stop-color:#000000"
       d="m 472.62486,2.900256 c 0,-0.276225 0.22437,-0.500239 0.50024,-0.500239" /><path
       id="path30-1-0-0"
       style="font-variation-settings:normal;vector-effect:none;fill:none;fill-opacity:1;stroke:#0000ff;stroke-width:0.3;stroke-linecap:round;stroke-linejoin:round;stroke-miterlimit:5.09091;stroke-dasharray:none;stroke-dashoffset:0;stroke-opacity:1;stop-color:#000000"
       d="M 472.62521,6.650284 V 2.900256" /><path
       id="path32-7-7-0"
       style="font-variation-settings:normal;vector-effect:none;fill:none;fill-opacity:1;stroke:#0000ff;stroke-width:0.3;stroke-linecap:round;stroke-linejoin:round;stroke-miterlimit:5.09091;stroke-dasharray:none;stroke-dashoffset:0;stroke-opacity:1;stop-color:#000000"
       d="m 491.12523,2.400017 c 0.27587,0 0.49883,-0.224014 0.49883,-0.499886" /><path
       id="path34-2-0-0"
       style="font-variation-settings:normal;vector-effect:none;fill:none;fill-opacity:1;stroke:#0000ff;stroke-width:0.3;stroke-linecap:round;stroke-linejoin:round;stroke-miterlimit:5.09091;stroke-dasharray:none;stroke-dashoffset:0;stroke-opacity:1;stop-color:#000000"
       d="m 473.1251,2.400722 h 17.99907" /><path
       id="path36-5-1-6"
       style="font-variation-settings:normal;vector-effect:none;fill:none;fill-opacity:1;stroke:#0000ff;stroke-width:0.3;stroke-linecap:round;stroke-linejoin:round;stroke-miterlimit:5.09091;stroke-dasharray:none;stroke-dashoffset:0;stroke-opacity:1;stop-color:#000000"
       d="m 491.62406,0.650239 c 0,-0.275872 0.22507,-0.499886 0.50094,-0.499886" /><path
       id="path38-4-8-5"
       style="font-variation-settings:normal;vector-effect:none;fill:none;fill-opacity:1;stroke:#0000ff;stroke-width:0.3;stroke-linecap:round;stroke-linejoin:round;stroke-miterlimit:5.09091;stroke-dasharray:none;stroke-dashoffset:0;stroke-opacity:1;stop-color:#000000"
       d="M 491.62406,1.900483 V 0.650944" /><path
       id="path40-4-3-5"
       style="font-variation-settings:normal;vector-effect:none;fill:none;fill-opacity:1;stroke:#0000ff;stroke-width:0.3;stroke-linecap:round;stroke-linejoin:round;stroke-miterlimit:5.09091;stroke-dasharray:none;stroke-dashoffset:0;stroke-opacity:1;stop-color:#000000"
       d="m 513.1241,0.15 c 0.27588,0 0.49989,0.224367 0.49989,0.500239" /><path
       id="path42-1-3-5"
       style="font-variation-settings:normal;vector-effect:none;fill:none;fill-opacity:1;stroke:#0000ff;stroke-width:0.3;stroke-linecap:round;stroke-linejoin:round;stroke-miterlimit:5.09091;stroke-dasharray:none;stroke-dashoffset:0;stroke-opacity:1;stop-color:#000000"
       d="M 492.12395,0.150705 H 513.1241" /><path
       id="path44-1-0-8"
       style="font-variation-settings:normal;vector-effect:none;fill:none;fill-opacity:1;stroke:#0000ff;stroke-width:0.3;stroke-linecap:round;stroke-linejoin:round;stroke-miterlimit:5.09091;stroke-dasharray:none;stroke-dashoffset:0;stroke-opacity:1;stop-color:#000000"
       d="m 513.62399,1.900483 c 0,0.275873 0.22366,0.499534 0.50024,0.499534" /><path
       id="path46-3-5-7"
       style="font-variation-settings:normal;vector-effect:none;fill:none;fill-opacity:1;stroke:#0000ff;stroke-width:0.3;stroke-linecap:round;stroke-linejoin:round;stroke-miterlimit:5.09091;stroke-dasharray:none;stroke-dashoffset:0;stroke-opacity:1;stop-color:#000000"
       d="M 513.62399,0.650944 V 1.900483" /><path
       id="path48-0-1-2"
       style="font-variation-settings:normal;vector-effect:none;fill:none;fill-opacity:1;stroke:#0000ff;stroke-width:0.3;stroke-linecap:round;stroke-linejoin:round;stroke-miterlimit:5.09091;stroke-dasharray:none;stroke-dashoffset:0;stroke-opacity:1;stop-color:#000000"
       d="m 532.12295,2.400017 c 0.27658,0 0.50024,0.224366 0.50024,0.500239" /><path
       id="path50-5-9-7"
       style="font-variation-settings:normal;vector-effect:none;fill:none;fill-opacity:1;stroke:#0000ff;stroke-width:0.3;stroke-linecap:round;stroke-linejoin:round;stroke-miterlimit:5.09091;stroke-dasharray:none;stroke-dashoffset:0;stroke-opacity:1;stop-color:#000000"
       d="m 514.12423,2.400722 h 17.99872" /><path
       id="path52-5-9-0"
       style="font-variation-settings:normal;vector-effect:none;fill:none;fill-opacity:1;stroke:#0000ff;stroke-width:0.3;stroke-linecap:round;stroke-linejoin:round;stroke-miterlimit:5.09091;stroke-dasharray:none;stroke-dashoffset:0;stroke-opacity:1;stop-color:#000000"
       d="m 532.62319,4.400267 c 0,0.275872 0.22331,0.499886 0.49989,0.499886" /><path
       id="path54-9-4-3"
       style="font-variation-settings:normal;vector-effect:none;fill:none;fill-opacity:1;stroke:#0000ff;stroke-width:0.3;stroke-linecap:round;stroke-linejoin:round;stroke-miterlimit:5.09091;stroke-dasharray:none;stroke-dashoffset:0;stroke-opacity:1;stop-color:#000000"
       d="M 532.62319,2.900256 V 4.400267" /><path
       sodipodi:nodetypes="cccc"
       id="path58-4-5-9"
       d="m 533.12308,4.900506 h 7.48029 19.52689 9.2188"
       style="font-variation-settings:normal;vector-effect:none;fill:none;fill-opacity:1;stroke:#0000ff;stroke-width:0.3;stroke-linecap:round;stroke-linejoin:round;stroke-miterlimit:5.09091;stroke-dasharray:none;stroke-dashoffset:0;stroke-opacity:1;stop-color:#000000" /><g
       transform="translate(19.52689)"
       id="g4227"><path
         d="m 549.82217,4.8998 c 0.27657,0 0.50094,0.22472 0.50094,0.500592"
         style="font-variation-settings:normal;vector-effect:none;fill:none;fill-opacity:1;stroke:#0000ff;stroke-width:0.3;stroke-linecap:round;stroke-linejoin:round;stroke-miterlimit:5.09091;stroke-dasharray:none;stroke-dashoffset:0;stroke-opacity:1;stop-color:#000000"
         id="path56-7-4-8" /><path
         sodipodi:nodetypes="cccccc"
         style="font-variation-settings:normal;vector-effect:none;fill:none;fill-opacity:1;stroke:#0000ff;stroke-width:0.3;stroke-linecap:round;stroke-linejoin:round;stroke-miterlimit:5.09091;stroke-dasharray:none;stroke-dashoffset:0;stroke-opacity:1;stop-color:#000000"
         d="M 550.32311,5.401097 V 28.317188 H 540.05551 520.52862 416.0993 V 7.649703"
         id="path62-5-1-2" /></g><path
       id="path102-1-9-7"
       style="font-variation-settings:normal;vector-effect:none;fill:none;fill-opacity:1;stroke:#0000ff;stroke-width:0.3;stroke-linecap:round;stroke-linejoin:round;stroke-miterlimit:5.09091;stroke-dasharray:none;stroke-dashoffset:0;stroke-opacity:1;stop-color:#000000"
       d="m 530.04227,22.149228 c 7e-4,0.60748 0.49248,1.09996 1.09996,1.09996 0.60748,0 1.10067,-0.49248 1.10067,-1.09996 0,-0.60749 -0.49319,-1.09997 -1.10067,-1.09997 -0.60748,0 -1.09926,0.49248 -1.09926,1.09997" /><path
       id="path108-7-0-5"
       style="font-variation-settings:normal;vector-effect:none;fill:none;fill-opacity:1;stroke:#0000ff;stroke-width:0.3;stroke-linecap:round;stroke-linejoin:round;stroke-miterlimit:5.09091;stroke-dasharray:none;stroke-dashoffset:0;stroke-opacity:1;stop-color:#000000"
       d="m 454.02892,25.771548 c 0,0.60748 0.49251,1.09996 1.09996,1.09996 0.60741,0 1.09992,-0.49248 1.09992,-1.09996 0,-0.60749 -0.49251,-1.09996 -1.09992,-1.09996 -0.60745,0 -1.09996,0.49247 -1.09996,1.09996" /></g></svg>
