<?xml version="1.0" encoding="UTF-8" standalone="no"?>
<svg
   xmlns:dc="http://purl.org/dc/elements/1.1/"
   xmlns:cc="http://creativecommons.org/ns#"
   xmlns:rdf="http://www.w3.org/1999/02/22-rdf-syntax-ns#"
   xmlns:svg="http://www.w3.org/2000/svg"
   xmlns="http://www.w3.org/2000/svg"
   xmlns:sodipodi="http://sodipodi.sourceforge.net/DTD/sodipodi-0.dtd"
   xmlns:inkscape="http://www.inkscape.org/namespaces/inkscape"
   inkscape:version="1.0 (4035a4fb49, 2020-05-01)"
   sodipodi:docname="corne_tilting_top_cherry.svg"
   viewBox="0 0 755.90547 755.90547"
   height="200mm"
   width="200mm"
   xml:space="preserve"
   id="svg833"
   version="1.1"><path
     id="path1049-1"
     d="m 538.00463,330.66181 c 0,-2.296 1.86133,-4.15734 4.15867,-4.15734 2.296,0 4.15733,1.86134 4.15733,4.15734 0,2.29733 -1.86133,4.15733 -4.15733,4.15733 -2.29734,0 -4.15867,-1.86 -4.15867,-4.15733 z"
     style="fill:none;stroke:#0000ff;stroke-width:1.13386;stroke-linecap:round;stroke-linejoin:round;stroke-miterlimit:10;stroke-dasharray:none;stroke-opacity:1" /><path
     id="path1103-1"
     d="m 516.2149,67.463813 c 0,-5.426667 4.39866,-9.826667 9.82666,-9.826667 5.42667,0 9.82667,4.4 9.82667,9.826667 0,5.428 -4.4,9.826666 -9.82667,9.826666 -5.428,0 -9.82666,-4.398666 -9.82666,-9.826666 z"
     style="fill:none;stroke:#0000ff;stroke-width:1.13386;stroke-linecap:round;stroke-linejoin:round;stroke-miterlimit:10;stroke-dasharray:none;stroke-opacity:1" /><path
     id="path1107-1"
     d="m 114.50011,137.95594 c -5.428,0 -9.82666,-4.4 -9.82666,-9.82666 0,-5.428 4.39866,-9.82667 9.82666,-9.82667 5.42667,0 9.82667,4.39867 9.82667,9.82667 0,5.42666 -4.4,9.82666 -9.82667,9.82666 z"
     style="fill:none;stroke:#0000ff;stroke-width:1.13386;stroke-linecap:round;stroke-linejoin:round;stroke-miterlimit:10;stroke-dasharray:none;stroke-opacity:1" /><path
     id="path1111-2"
     d="m 631.31263,372.83754 c 4.7,2.71333 6.30933,8.724 3.596,13.424 -2.71334,4.7 -8.72267,6.31067 -13.42267,3.59733 -4.70133,-2.71466 -6.31067,-8.724 -3.59733,-13.424 2.71333,-4.7 8.724,-6.31066 13.424,-3.59733 z"
     style="fill:none;stroke:#0000ff;stroke-width:1.13386;stroke-linecap:round;stroke-linejoin:round;stroke-miterlimit:10;stroke-dasharray:none;stroke-opacity:1" /><path
     id="path1115-2"
     d="m 114.46358,281.66954 c -5.42667,0 -9.82667,-4.4 -9.82667,-9.82666 0,-5.42667 4.4,-9.82667 9.82667,-9.82667 5.42666,0 9.82667,4.4 9.82667,9.82667 0,5.42666 -4.40001,9.82666 -9.82667,9.82666 z"
     style="fill:none;stroke:#0000ff;stroke-width:1.13386;stroke-linecap:round;stroke-linejoin:round;stroke-miterlimit:10;stroke-dasharray:none;stroke-opacity:1" /><path
     id="path1119-1"
     d="m 129.25552,241.60581 c 0,6.26267 -2.40741,11.33867 -8.66874,11.33867 h -5.58894 c -10.176,0 -18.931995,7.82 -19.409328,17.984 -0.512,10.85333 8.135998,19.812 18.874668,19.812 h 7.11466 c 6.26267,0 7.65357,5.07466 7.65357,11.33733 l 0.0453,3.076 c 0,1.044 0.84666,1.89067 1.88933,1.89067 h 67.94244 7.56 136.07199 c 0.50133,0 0.98267,0.2 1.336,0.55333 -0.0133,-0.0187 39.864,54.632 39.864,54.632 0.37333,0.31866 0.83467,0.516 1.32267,0.56666 l 139.06399,20.67067 c 0.35867,0.0613 0.71334,0.15333 1.05867,0.27467 l 55.74666,32.08533 c 1.48667,1.05067 3.54267,0.69733 4.59467,-0.78933 l 9.596,-16.72134 c 3.13333,-5.46 10.11333,-7.32133 15.54933,-4.14933 l 6.07734,3.54667 c 9.03866,5.21866 20.596,2.12266 25.81466,-6.916 5.21867,-9.04 2.12134,-20.59734 -6.91733,-25.816 l -6.244,-3.66134 c -5.36133,-3.14266 -7.192,-10.01733 -4.10667,-15.41066 l 10.316,-18.032 c 1.15867,-2.20667 0.54667,-4.92934 -1.44666,-6.428 l -69.40397,-41.716 c -1.10934,-0.98133 -1.876,-2.29333 -2.18667,-3.74133 v -122.052 l 0.003,-61.458668 v -4.665333 c 0,-1.042667 -0.84533,-1.889333 -1.88933,-1.890667 l -4.62003,-0.0013 c -6.25867,-0.0053 -11.32934,-5.078667 -11.32934,-11.338666 v -7.121334 c 0,-10.74 -8.95866,-19.387999 -19.812,-18.875999 -10.16433,0.478633 -17.98299,9.234633 -17.98299,19.4093 v 6.586666 c 0,6.26 -2.95388,11.334667 -9.21254,11.338667 l -0.22178,0.0027 c -1.044,0.0013 -1.892,-0.845333 -1.892,-1.890666 v -5.669334 c 0,-1.042666 -0.84533,-1.889333 -1.88933,-1.889333 h -68.036 c -1.044,0 -1.88933,-0.845333 -1.88933,-1.889333 v -4.725333 c 0,-1.044 -0.84667,-1.889334 -1.89067,-1.889334 h -79.1844 c -1.044,0 -1.89067,0.845334 -1.89067,1.889334 v 4.725333 c 0,1.044 -0.84533,1.889333 -1.88933,1.889333 h -68.2077 c -1.04267,0 -1.88934,0.846667 -1.88934,1.889333 v 14.174667 c 0,1.044 -0.84533,1.890666 -1.89066,1.890666 h -60.49224 -7.56 -68.12967 c -1.044,0 -1.89066,0.845334 -1.892,1.889334 v 1.572 c 0,6.261337 -1.20099,11.338667 -7.46366,11.338667 h -6.58933 c -10.176,0 -18.932005,7.82 -19.410672,17.984 -0.510666,10.85196 8.136002,19.81063 18.877332,19.81063 h 6.11294 c 6.26266,0 8.66873,5.076 8.66873,11.33734 z"
     style="fill:none;stroke:#0000ff;stroke-width:1.13386;stroke-linecap:round;stroke-linejoin:round;stroke-miterlimit:10;stroke-dasharray:none;stroke-opacity:1" /><path
     id="path102-1-7"
     d="m 486.07131,151.14447 c 0.003,2.29598 1.86135,4.15733 4.15733,4.15733 2.29599,0 4.16002,-1.86135 4.16002,-4.15733 0,-2.29603 -1.86403,-4.15737 -4.16002,-4.15737 -2.29598,0 -4.15469,1.86134 -4.15469,4.15737"
     style="font-variation-settings:normal;vector-effect:none;fill:none;fill-opacity:1;stroke:#0000ff;stroke-width:1.13386;stroke-linecap:round;stroke-linejoin:round;stroke-miterlimit:10;stroke-dasharray:none;stroke-dashoffset:0;stroke-opacity:1;stop-color:#000000" /><path
     id="path108-7-1"
     d="m 198.77675,164.83513 c 0,2.29599 1.86146,4.15732 4.15733,4.15732 2.29573,0 4.15718,-1.86133 4.15718,-4.15732 0,-2.29602 -1.86145,-4.15733 -4.15718,-4.15733 -2.29587,0 -4.15733,1.86131 -4.15733,4.15733"
     style="font-variation-settings:normal;vector-effect:none;fill:none;fill-opacity:1;stroke:#0000ff;stroke-width:1.13386;stroke-linecap:round;stroke-linejoin:round;stroke-miterlimit:10;stroke-dasharray:none;stroke-dashoffset:0;stroke-opacity:1;stop-color:#000000" /><path
     id="path110-3-5"
     d="m 198.74342,236.69778 c 0,2.29335 1.86145,4.15468 4.15733,4.15468 2.29572,0 4.15721,-1.86133 4.15721,-4.15468 0,-2.29866 -1.86149,-4.15997 -4.15721,-4.15997 -2.29588,0 -4.15733,1.86131 -4.15733,4.15997"
     style="font-variation-settings:normal;vector-effect:none;fill:none;fill-opacity:1;stroke:#0000ff;stroke-width:1.13386;stroke-linecap:round;stroke-linejoin:round;stroke-miterlimit:10;stroke-dasharray:none;stroke-dashoffset:0;stroke-opacity:1;stop-color:#000000" /><path
     id="path112-3-5"
     d="m 538.00463,330.66179 c 0,2.29603 1.86135,4.15602 4.15733,4.15602 2.29603,0 4.15736,-1.85999 4.15736,-4.15734 0,-2.29598 -1.86133,-4.156 -4.15736,-4.156 -2.29598,0 -4.15733,1.86002 -4.15733,4.156"
     style="font-variation-settings:normal;vector-effect:none;fill:none;fill-opacity:1;stroke:#0000ff;stroke-width:1.13386;stroke-linecap:round;stroke-linejoin:round;stroke-miterlimit:10;stroke-dasharray:none;stroke-dashoffset:0;stroke-opacity:1;stop-color:#000000" /><path
     id="path114-5-9"
     d="m 362.19797,301.3538 c 0,2.29866 1.8613,4.15736 4.15733,4.15736 2.29599,0 4.15733,-1.8587 4.15733,-4.15468 0,-2.29599 -1.86134,-4.15734 -4.15733,-4.15734 -2.29603,0 -4.15733,1.86135 -4.15733,4.15734"
     style="font-variation-settings:normal;vector-effect:none;fill:none;fill-opacity:1;stroke:#0000ff;stroke-width:1.13386;stroke-linecap:round;stroke-linejoin:round;stroke-miterlimit:10;stroke-dasharray:none;stroke-dashoffset:0;stroke-opacity:1;stop-color:#000000" /><path
     id="path4749"
     d="m 479.15264,307.11781 -13.49867,50.58133 50.58133,13.49733 13.49733,-50.58 z"
     style="font-variation-settings:normal;vector-effect:none;fill:none;fill-opacity:1;stroke:#0000ff;stroke-width:1.13386;stroke-linecap:round;stroke-linejoin:round;stroke-miterlimit:10;stroke-dasharray:none;stroke-dashoffset:0;stroke-opacity:1;stop-color:#000000" /><path
     id="path4753"
     d="m 572.22131,317.59182 -26.144,45.35467 45.35467,26.144 26.144,-45.356 z"
     style="font-variation-settings:normal;vector-effect:none;fill:none;fill-opacity:1;stroke:#0000ff;stroke-width:1.13386;stroke-linecap:round;stroke-linejoin:round;stroke-miterlimit:10;stroke-dasharray:none;stroke-dashoffset:0;stroke-opacity:1;stop-color:#000000" /><path
     id="path4845"
     d="m 264.98127,155.08178 h -52.34934 v -52.34934 h 52.34934 z"
     style="font-variation-settings:normal;vector-effect:none;fill:none;fill-opacity:1;stroke:#0000ff;stroke-width:1.13386;stroke-linecap:round;stroke-linejoin:round;stroke-miterlimit:10;stroke-dasharray:none;stroke-dashoffset:0;stroke-opacity:1;stop-color:#000000" /><path
     id="use5920"
     d="m 193.16989,155.08178 h -52.34934 v -52.34934 h 52.34934 z"
     style="font-variation-settings:normal;vector-effect:none;fill:none;fill-opacity:1;stroke:#0000ff;stroke-width:1.13386;stroke-linecap:round;stroke-linejoin:round;stroke-miterlimit:10;stroke-dasharray:none;stroke-dashoffset:0;stroke-opacity:1;stop-color:#000000" /><path
     id="use5922"
     d="M 336.79195,137.12911 H 284.44261 V 84.779774 h 52.34934 z"
     style="font-variation-settings:normal;vector-effect:none;fill:none;fill-opacity:1;stroke:#0000ff;stroke-width:1.13386;stroke-linecap:round;stroke-linejoin:round;stroke-miterlimit:10;stroke-dasharray:none;stroke-dashoffset:0;stroke-opacity:1;stop-color:#000000" /><path
     id="use5924"
     d="M 408.59863,128.15245 H 356.24929 V 75.803108 h 52.34934 z"
     style="font-variation-settings:normal;vector-effect:none;fill:none;fill-opacity:1;stroke:#0000ff;stroke-width:1.13386;stroke-linecap:round;stroke-linejoin:round;stroke-miterlimit:10;stroke-dasharray:none;stroke-dashoffset:0;stroke-opacity:1;stop-color:#000000" /><path
     id="use5926"
     d="M 480.41064,137.12911 H 428.0613 V 84.779774 h 52.34934 z"
     style="font-variation-settings:normal;vector-effect:none;fill:none;fill-opacity:1;stroke:#0000ff;stroke-width:1.13386;stroke-linecap:round;stroke-linejoin:round;stroke-miterlimit:10;stroke-dasharray:none;stroke-dashoffset:0;stroke-opacity:1;stop-color:#000000" /><path
     id="use5928"
     d="M 552.21732,146.10178 H 499.86798 V 93.75244 h 52.34934 z"
     style="font-variation-settings:normal;vector-effect:none;fill:none;fill-opacity:1;stroke:#0000ff;stroke-width:1.13386;stroke-linecap:round;stroke-linejoin:round;stroke-miterlimit:10;stroke-dasharray:none;stroke-dashoffset:0;stroke-opacity:1;stop-color:#000000" /><path
     id="use5930"
     d="m 193.16988,226.89313 h -52.34934 v -52.34934 h 52.34934 z"
     style="font-variation-settings:normal;vector-effect:none;fill:none;fill-opacity:1;stroke:#0000ff;stroke-width:1.13386;stroke-linecap:round;stroke-linejoin:round;stroke-miterlimit:10;stroke-dasharray:none;stroke-dashoffset:0;stroke-opacity:1;stop-color:#000000" /><path
     id="use5932"
     d="m 264.98127,226.89313 h -52.34934 v -52.34934 h 52.34934 z"
     style="font-variation-settings:normal;vector-effect:none;fill:none;fill-opacity:1;stroke:#0000ff;stroke-width:1.13386;stroke-linecap:round;stroke-linejoin:round;stroke-miterlimit:10;stroke-dasharray:none;stroke-dashoffset:0;stroke-opacity:1;stop-color:#000000" /><path
     id="use5934"
     d="m 336.79195,208.93645 h -52.34934 v -52.34934 h 52.34934 z"
     style="font-variation-settings:normal;vector-effect:none;fill:none;fill-opacity:1;stroke:#0000ff;stroke-width:1.13386;stroke-linecap:round;stroke-linejoin:round;stroke-miterlimit:10;stroke-dasharray:none;stroke-dashoffset:0;stroke-opacity:1;stop-color:#000000" /><path
     id="use5936"
     d="m 408.59863,199.9638 h -52.34934 v -52.34934 h 52.34934 z"
     style="font-variation-settings:normal;vector-effect:none;fill:none;fill-opacity:1;stroke:#0000ff;stroke-width:1.13386;stroke-linecap:round;stroke-linejoin:round;stroke-miterlimit:10;stroke-dasharray:none;stroke-dashoffset:0;stroke-opacity:1;stop-color:#000000" /><path
     id="use5938"
     d="M 480.41064,208.93645 H 428.0613 v -52.34934 h 52.34934 z"
     style="font-variation-settings:normal;vector-effect:none;fill:none;fill-opacity:1;stroke:#0000ff;stroke-width:1.13386;stroke-linecap:round;stroke-linejoin:round;stroke-miterlimit:10;stroke-dasharray:none;stroke-dashoffset:0;stroke-opacity:1;stop-color:#000000" /><path
     id="use5940"
     d="m 552.21732,217.91245 h -52.34934 v -52.34934 h 52.34934 z"
     style="font-variation-settings:normal;vector-effect:none;fill:none;fill-opacity:1;stroke:#0000ff;stroke-width:1.13386;stroke-linecap:round;stroke-linejoin:round;stroke-miterlimit:10;stroke-dasharray:none;stroke-dashoffset:0;stroke-opacity:1;stop-color:#000000" /><path
     id="use5942"
     d="m 193.16988,298.69646 h -52.34934 v -52.34934 h 52.34934 z"
     style="font-variation-settings:normal;vector-effect:none;fill:none;fill-opacity:1;stroke:#0000ff;stroke-width:1.13386;stroke-linecap:round;stroke-linejoin:round;stroke-miterlimit:10;stroke-dasharray:none;stroke-dashoffset:0;stroke-opacity:1;stop-color:#000000" /><path
     id="use5944"
     d="m 264.98127,298.69646 h -52.34934 v -52.34934 h 52.34934 z"
     style="font-variation-settings:normal;vector-effect:none;fill:none;fill-opacity:1;stroke:#0000ff;stroke-width:1.13386;stroke-linecap:round;stroke-linejoin:round;stroke-miterlimit:10;stroke-dasharray:none;stroke-dashoffset:0;stroke-opacity:1;stop-color:#000000" /><path
     id="use5946"
     d="M 336.79195,280.74714 H 284.44261 V 228.3978 h 52.34934 z"
     style="font-variation-settings:normal;vector-effect:none;fill:none;fill-opacity:1;stroke:#0000ff;stroke-width:1.13386;stroke-linecap:round;stroke-linejoin:round;stroke-miterlimit:10;stroke-dasharray:none;stroke-dashoffset:0;stroke-opacity:1;stop-color:#000000" /><path
     id="use5948"
     d="M 408.59863,271.77114 H 356.24929 V 219.4218 h 52.34934 z"
     style="font-variation-settings:normal;vector-effect:none;fill:none;fill-opacity:1;stroke:#0000ff;stroke-width:1.13386;stroke-linecap:round;stroke-linejoin:round;stroke-miterlimit:10;stroke-dasharray:none;stroke-dashoffset:0;stroke-opacity:1;stop-color:#000000" /><path
     id="use5950"
     d="M 480.41064,280.74714 H 428.0613 V 228.3978 h 52.34934 z"
     style="font-variation-settings:normal;vector-effect:none;fill:none;fill-opacity:1;stroke:#0000ff;stroke-width:1.13386;stroke-linecap:round;stroke-linejoin:round;stroke-miterlimit:10;stroke-dasharray:none;stroke-dashoffset:0;stroke-opacity:1;stop-color:#000000" /><path
     id="use5952"
     d="m 552.21732,289.72381 h -52.34934 v -52.34934 h 52.34934 z"
     style="font-variation-settings:normal;vector-effect:none;fill:none;fill-opacity:1;stroke:#0000ff;stroke-width:1.13386;stroke-linecap:round;stroke-linejoin:round;stroke-miterlimit:10;stroke-dasharray:none;stroke-dashoffset:0;stroke-opacity:1;stop-color:#000000" /><path
     id="use5954"
     d="M 444.5053,354.91715 H 392.15596 V 302.56781 H 444.5053 Z"
     style="font-variation-settings:normal;vector-effect:none;fill:none;fill-opacity:1;stroke:#0000ff;stroke-width:1.13386;stroke-linecap:round;stroke-linejoin:round;stroke-miterlimit:10;stroke-dasharray:none;stroke-dashoffset:0;stroke-opacity:1;stop-color:#000000" /><metadata
     id="metadata839"><rdf:RDF><cc:Work
         rdf:about=""><dc:format>image/svg+xml</dc:format><dc:type
           rdf:resource="http://purl.org/dc/dcmitype/StillImage" /><dc:title></dc:title></cc:Work></rdf:RDF></metadata><defs
     id="defs837"><clipPath
       id="clipPath849"
       clipPathUnits="userSpaceOnUse"><path
         id="path847"
         d="M 0,595.276 H 841.89 V 0 H 0 Z" /></clipPath><clipPath
       id="clipPath1009"
       clipPathUnits="userSpaceOnUse"><path
         id="path1007"
         d="M 0,595.276 H 841.89 V 0 H 0 Z" /></clipPath></defs><sodipodi:namedview
     inkscape:snap-path-clip="true"
     inkscape:current-layer="svg833"
     inkscape:window-maximized="0"
     inkscape:window-y="9"
     inkscape:window-x="979"
     inkscape:cy="367.95075"
     inkscape:cx="391.1024"
     inkscape:zoom="1"
     showgrid="false"
     id="namedview835"
     inkscape:window-height="1198"
     inkscape:window-width="1888"
     inkscape:pageshadow="2"
     inkscape:pageopacity="0"
     guidetolerance="10"
     gridtolerance="10"
     objecttolerance="10"
     borderopacity="1"
     bordercolor="#666666"
     pagecolor="#ffffff"
     inkscape:document-rotation="0"
     units="mm"><inkscape:grid
       type="xygrid"
       id="grid2818" /></sodipodi:namedview><path
     id="path1049-1-5"
     d="m 184.42723,434.83595 c 0,2.296 -1.86133,4.15734 -4.15867,4.15734 -2.296,0 -4.15733,-1.86134 -4.15733,-4.15734 0,-2.29733 1.86133,-4.15733 4.15733,-4.15733 2.29734,0 4.15867,1.86 4.15867,4.15733 z"
     style="fill:none;stroke:#0000ff;stroke-width:1.13386;stroke-linecap:round;stroke-linejoin:round;stroke-miterlimit:10;stroke-dasharray:none;stroke-opacity:1" /><path
     id="path1103-1-1"
     d="m 206.21696,698.03395 c 0,5.42666 -4.39866,9.82666 -9.82666,9.82666 -5.42667,0 -9.82667,-4.4 -9.82667,-9.82666 0,-5.428 4.4,-9.82667 9.82667,-9.82667 5.428,0 9.82666,4.39867 9.82666,9.82667 z"
     style="fill:none;stroke:#0000ff;stroke-width:1.13386;stroke-linecap:round;stroke-linejoin:round;stroke-miterlimit:10;stroke-dasharray:none;stroke-opacity:1" /><path
     id="path1107-1-1"
     d="m 607.93175,627.54182 c 5.428,0 9.82667,4.4 9.82667,9.82666 0,5.428 -4.39867,9.82667 -9.82667,9.82667 -5.42667,0 -9.82667,-4.39867 -9.82667,-9.82667 0,-5.42666 4.4,-9.82666 9.82667,-9.82666 z"
     style="fill:none;stroke:#0000ff;stroke-width:1.13386;stroke-linecap:round;stroke-linejoin:round;stroke-miterlimit:10;stroke-dasharray:none;stroke-opacity:1" /><path
     id="path1111-2-6"
     d="m 91.11923,392.66022 c -4.7,-2.71333 -6.30933,-8.724 -3.596,-13.424 2.71334,-4.7 8.72267,-6.31067 13.42267,-3.59733 4.70133,2.71466 6.31067,8.724 3.59733,13.424 -2.71333,4.7 -8.724,6.31066 -13.424,3.59733 z"
     style="fill:none;stroke:#0000ff;stroke-width:1.13386;stroke-linecap:round;stroke-linejoin:round;stroke-miterlimit:10;stroke-dasharray:none;stroke-opacity:1" /><path
     id="path1115-2-5"
     d="m 607.96828,483.82822 c 5.42667,0 9.82667,4.4 9.82667,9.82666 0,5.42667 -4.4,9.82667 -9.82667,9.82667 -5.42666,0 -9.82667,-4.4 -9.82667,-9.82667 0,-5.42666 4.40001,-9.82666 9.82667,-9.82666 z"
     style="fill:none;stroke:#0000ff;stroke-width:1.13386;stroke-linecap:round;stroke-linejoin:round;stroke-miterlimit:10;stroke-dasharray:none;stroke-opacity:1" /><path
     id="path1119-1-1"
     d="m 593.17634,523.89195 c 0,-6.26267 2.40741,-11.33867 8.66874,-11.33867 h 5.58894 c 10.17599,0 18.932,-7.82 19.40933,-17.984 0.512,-10.85333 -8.136,-19.812 -18.87467,-19.812 h -7.11466 c -6.26267,0 -7.65357,-5.07466 -7.65357,-11.33733 l -0.0453,-3.076 c 0,-1.044 -0.84666,-1.89067 -1.88933,-1.89067 h -67.94244 -7.56 -136.07199 c -0.50133,0 -0.98267,-0.2 -1.336,-0.55333 0.0133,0.0187 -39.864,-54.632 -39.864,-54.632 -0.37333,-0.31866 -0.83467,-0.516 -1.32267,-0.56666 L 198.10473,382.03062 c -0.35867,-0.0613 -0.71334,-0.15333 -1.05867,-0.27467 L 141.2994,349.67062 c -1.48667,-1.05067 -3.54267,-0.69733 -4.59467,0.78933 l -9.596,16.72134 c -3.13333,5.46 -10.11333,7.32133 -15.54933,4.14933 l -6.07734,-3.54667 c -9.03866,-5.21866 -20.596,-2.12266 -25.81466,6.916 -5.21867,9.04 -2.12134,20.59734 6.91733,25.816 l 6.244,3.66134 c 5.36133,3.14266 7.192,10.01733 4.10667,15.41066 l -10.316,18.032 c -1.15867,2.20667 -0.54667,4.92934 1.44666,6.428 l 69.40397,41.716 c 1.10934,0.98133 1.876,2.29333 2.18667,3.74133 v 122.052 l -0.003,61.45867 v 4.66533 c 0,1.04267 0.84533,1.88933 1.88933,1.89067 l 4.62003,10e-4 c 6.25867,0.005 11.32934,5.07866 11.32934,11.33866 v 7.12134 c 0,10.74 8.95866,19.388 19.812,18.876 10.16433,-0.47864 17.98299,-9.23464 17.98299,-19.4093 v -6.58667 c 0,-6.26 2.95388,-11.33467 9.21254,-11.33867 l 0.22178,-0.003 c 1.044,-0.001 1.892,0.84534 1.892,1.89067 v 5.66933 c 0,1.04267 0.84533,1.88934 1.88933,1.88934 h 68.036 c 1.044,0 1.88933,0.84533 1.88933,1.88933 v 4.72533 c 0,1.044 0.84667,1.88934 1.89067,1.88934 h 79.1844 c 1.044,0 1.89067,-0.84534 1.89067,-1.88934 v -4.72533 c 0,-1.044 0.84533,-1.88933 1.88933,-1.88933 h 68.2077 c 1.04267,0 1.88934,-0.84667 1.88934,-1.88934 v -14.17466 c 0,-1.044 0.84533,-1.89067 1.89066,-1.89067 h 60.49224 7.56 68.12967 c 1.044,0 1.89066,-0.84533 1.892,-1.88933 v -1.572 c 0,-6.26134 1.20099,-11.33867 7.46366,-11.33867 h 6.58933 c 10.176,0 18.932,-7.82 19.41067,-17.984 0.51067,-10.85196 -8.136,-19.81063 -18.87733,-19.81063 h -6.11294 c -6.26266,0 -8.66873,-5.076 -8.66873,-11.33734 z"
     style="fill:none;stroke:#0000ff;stroke-width:1.13386;stroke-linecap:round;stroke-linejoin:round;stroke-miterlimit:10;stroke-dasharray:none;stroke-opacity:1" /><path
     id="path102-1-7-0"
     d="m 236.36055,614.35329 c -0.003,-2.29598 -1.86135,-4.15733 -4.15733,-4.15733 -2.29599,0 -4.16002,1.86135 -4.16002,4.15733 0,2.29603 1.86403,4.15737 4.16002,4.15737 2.29598,0 4.15469,-1.86134 4.15469,-4.15737"
     style="font-variation-settings:normal;vector-effect:none;fill:none;fill-opacity:1;stroke:#0000ff;stroke-width:1.13386;stroke-linecap:round;stroke-linejoin:round;stroke-miterlimit:10;stroke-dasharray:none;stroke-dashoffset:0;stroke-opacity:1;stop-color:#000000" /><path
     id="path108-7-1-5"
     d="m 523.65511,600.66263 c 0,-2.29599 -1.86146,-4.15732 -4.15733,-4.15732 -2.29573,0 -4.15718,1.86133 -4.15718,4.15732 0,2.29602 1.86145,4.15733 4.15718,4.15733 2.29587,0 4.15733,-1.86131 4.15733,-4.15733"
     style="font-variation-settings:normal;vector-effect:none;fill:none;fill-opacity:1;stroke:#0000ff;stroke-width:1.13386;stroke-linecap:round;stroke-linejoin:round;stroke-miterlimit:10;stroke-dasharray:none;stroke-dashoffset:0;stroke-opacity:1;stop-color:#000000" /><path
     id="path110-3-5-1"
     d="m 523.68844,528.79998 c 0,-2.29335 -1.86145,-4.15468 -4.15733,-4.15468 -2.29572,0 -4.15721,1.86133 -4.15721,4.15468 0,2.29866 1.86149,4.15997 4.15721,4.15997 2.29588,0 4.15733,-1.86131 4.15733,-4.15997"
     style="font-variation-settings:normal;vector-effect:none;fill:none;fill-opacity:1;stroke:#0000ff;stroke-width:1.13386;stroke-linecap:round;stroke-linejoin:round;stroke-miterlimit:10;stroke-dasharray:none;stroke-dashoffset:0;stroke-opacity:1;stop-color:#000000" /><path
     id="path112-3-5-7"
     d="m 184.42723,434.83597 c 0,-2.29603 -1.86135,-4.15602 -4.15733,-4.15602 -2.29603,0 -4.15736,1.85999 -4.15736,4.15734 0,2.29598 1.86133,4.156 4.15736,4.156 2.29598,0 4.15733,-1.86002 4.15733,-4.156"
     style="font-variation-settings:normal;vector-effect:none;fill:none;fill-opacity:1;stroke:#0000ff;stroke-width:1.13386;stroke-linecap:round;stroke-linejoin:round;stroke-miterlimit:10;stroke-dasharray:none;stroke-dashoffset:0;stroke-opacity:1;stop-color:#000000" /><path
     id="path114-5-9-9"
     d="m 360.23389,464.14396 c 0,-2.29866 -1.8613,-4.15736 -4.15733,-4.15736 -2.29599,0 -4.15733,1.8587 -4.15733,4.15468 0,2.29599 1.86134,4.15734 4.15733,4.15734 2.29603,0 4.15733,-1.86135 4.15733,-4.15734"
     style="font-variation-settings:normal;vector-effect:none;fill:none;fill-opacity:1;stroke:#0000ff;stroke-width:1.13386;stroke-linecap:round;stroke-linejoin:round;stroke-miterlimit:10;stroke-dasharray:none;stroke-dashoffset:0;stroke-opacity:1;stop-color:#000000" /><path
     id="path4749-1"
     d="m 243.27922,458.37995 13.49867,-50.58133 -50.58133,-13.49733 -13.49733,50.58 z"
     style="font-variation-settings:normal;vector-effect:none;fill:none;fill-opacity:1;stroke:#0000ff;stroke-width:1.13386;stroke-linecap:round;stroke-linejoin:round;stroke-miterlimit:10;stroke-dasharray:none;stroke-dashoffset:0;stroke-opacity:1;stop-color:#000000" /><path
     id="path4753-1"
     d="m 150.21055,447.90594 26.144,-45.35467 -45.35467,-26.144 -26.144,45.356 z"
     style="font-variation-settings:normal;vector-effect:none;fill:none;fill-opacity:1;stroke:#0000ff;stroke-width:1.13386;stroke-linecap:round;stroke-linejoin:round;stroke-miterlimit:10;stroke-dasharray:none;stroke-dashoffset:0;stroke-opacity:1;stop-color:#000000" /><path
     id="path4845-3"
     d="m 457.45059,610.41598 h 52.34934 v 52.34934 h -52.34934 z"
     style="font-variation-settings:normal;vector-effect:none;fill:none;fill-opacity:1;stroke:#0000ff;stroke-width:1.13386;stroke-linecap:round;stroke-linejoin:round;stroke-miterlimit:10;stroke-dasharray:none;stroke-dashoffset:0;stroke-opacity:1;stop-color:#000000" /><path
     id="use5920-7"
     d="m 529.26197,610.41598 h 52.34934 v 52.34934 h -52.34934 z"
     style="font-variation-settings:normal;vector-effect:none;fill:none;fill-opacity:1;stroke:#0000ff;stroke-width:1.13386;stroke-linecap:round;stroke-linejoin:round;stroke-miterlimit:10;stroke-dasharray:none;stroke-dashoffset:0;stroke-opacity:1;stop-color:#000000" /><path
     id="use5922-7"
     d="m 385.63991,628.36864 h 52.34934 v 52.34934 h -52.34934 z"
     style="font-variation-settings:normal;vector-effect:none;fill:none;fill-opacity:1;stroke:#0000ff;stroke-width:1.13386;stroke-linecap:round;stroke-linejoin:round;stroke-miterlimit:10;stroke-dasharray:none;stroke-dashoffset:0;stroke-opacity:1;stop-color:#000000" /><path
     id="use5924-9"
     d="m 313.83323,637.34532 h 52.34934 v 52.34934 h -52.34934 z"
     style="font-variation-settings:normal;vector-effect:none;fill:none;fill-opacity:1;stroke:#0000ff;stroke-width:1.13386;stroke-linecap:round;stroke-linejoin:round;stroke-miterlimit:10;stroke-dasharray:none;stroke-dashoffset:0;stroke-opacity:1;stop-color:#000000" /><path
     id="use5926-3"
     d="m 242.02123,628.36864 h 52.34934 v 52.34934 h -52.34934 z"
     style="font-variation-settings:normal;vector-effect:none;fill:none;fill-opacity:1;stroke:#0000ff;stroke-width:1.13386;stroke-linecap:round;stroke-linejoin:round;stroke-miterlimit:10;stroke-dasharray:none;stroke-dashoffset:0;stroke-opacity:1;stop-color:#000000" /><path
     id="use5928-8"
     d="m 170.21455,619.39598 h 52.34934 v 52.34934 h -52.34934 z"
     style="font-variation-settings:normal;vector-effect:none;fill:none;fill-opacity:1;stroke:#0000ff;stroke-width:1.13386;stroke-linecap:round;stroke-linejoin:round;stroke-miterlimit:10;stroke-dasharray:none;stroke-dashoffset:0;stroke-opacity:1;stop-color:#000000" /><path
     id="use5930-6"
     d="m 529.26197,538.60464 h 52.34934 v 52.34934 h -52.34934 z"
     style="font-variation-settings:normal;vector-effect:none;fill:none;fill-opacity:1;stroke:#0000ff;stroke-width:1.13386;stroke-linecap:round;stroke-linejoin:round;stroke-miterlimit:10;stroke-dasharray:none;stroke-dashoffset:0;stroke-opacity:1;stop-color:#000000" /><path
     id="use5932-1"
     d="m 457.45059,538.60464 h 52.34934 v 52.34934 h -52.34934 z"
     style="font-variation-settings:normal;vector-effect:none;fill:none;fill-opacity:1;stroke:#0000ff;stroke-width:1.13386;stroke-linecap:round;stroke-linejoin:round;stroke-miterlimit:10;stroke-dasharray:none;stroke-dashoffset:0;stroke-opacity:1;stop-color:#000000" /><path
     id="use5934-5"
     d="m 385.63991,556.5613 h 52.34934 v 52.34934 h -52.34934 z"
     style="font-variation-settings:normal;vector-effect:none;fill:none;fill-opacity:1;stroke:#0000ff;stroke-width:1.13386;stroke-linecap:round;stroke-linejoin:round;stroke-miterlimit:10;stroke-dasharray:none;stroke-dashoffset:0;stroke-opacity:1;stop-color:#000000" /><path
     id="use5936-3"
     d="m 313.83323,565.53396 h 52.34934 v 52.34934 h -52.34934 z"
     style="font-variation-settings:normal;vector-effect:none;fill:none;fill-opacity:1;stroke:#0000ff;stroke-width:1.13386;stroke-linecap:round;stroke-linejoin:round;stroke-miterlimit:10;stroke-dasharray:none;stroke-dashoffset:0;stroke-opacity:1;stop-color:#000000" /><path
     id="use5938-0"
     d="m 242.02123,556.5613 h 52.34934 v 52.34934 h -52.34934 z"
     style="font-variation-settings:normal;vector-effect:none;fill:none;fill-opacity:1;stroke:#0000ff;stroke-width:1.13386;stroke-linecap:round;stroke-linejoin:round;stroke-miterlimit:10;stroke-dasharray:none;stroke-dashoffset:0;stroke-opacity:1;stop-color:#000000" /><path
     id="use5940-6"
     d="m 170.21455,547.5853 h 52.34934 v 52.34934 h -52.34934 z"
     style="font-variation-settings:normal;vector-effect:none;fill:none;fill-opacity:1;stroke:#0000ff;stroke-width:1.13386;stroke-linecap:round;stroke-linejoin:round;stroke-miterlimit:10;stroke-dasharray:none;stroke-dashoffset:0;stroke-opacity:1;stop-color:#000000" /><path
     id="use5942-3"
     d="m 529.26197,466.8013 h 52.34934 v 52.34934 h -52.34934 z"
     style="font-variation-settings:normal;vector-effect:none;fill:none;fill-opacity:1;stroke:#0000ff;stroke-width:1.13386;stroke-linecap:round;stroke-linejoin:round;stroke-miterlimit:10;stroke-dasharray:none;stroke-dashoffset:0;stroke-opacity:1;stop-color:#000000" /><path
     id="use5944-4"
     d="m 457.45059,466.8013 h 52.34934 v 52.34934 h -52.34934 z"
     style="font-variation-settings:normal;vector-effect:none;fill:none;fill-opacity:1;stroke:#0000ff;stroke-width:1.13386;stroke-linecap:round;stroke-linejoin:round;stroke-miterlimit:10;stroke-dasharray:none;stroke-dashoffset:0;stroke-opacity:1;stop-color:#000000" /><path
     id="use5946-2"
     d="m 385.63991,484.75062 h 52.34934 v 52.34934 h -52.34934 z"
     style="font-variation-settings:normal;vector-effect:none;fill:none;fill-opacity:1;stroke:#0000ff;stroke-width:1.13386;stroke-linecap:round;stroke-linejoin:round;stroke-miterlimit:10;stroke-dasharray:none;stroke-dashoffset:0;stroke-opacity:1;stop-color:#000000" /><path
     id="use5948-9"
     d="m 313.83323,493.72662 h 52.34934 v 52.34934 h -52.34934 z"
     style="font-variation-settings:normal;vector-effect:none;fill:none;fill-opacity:1;stroke:#0000ff;stroke-width:1.13386;stroke-linecap:round;stroke-linejoin:round;stroke-miterlimit:10;stroke-dasharray:none;stroke-dashoffset:0;stroke-opacity:1;stop-color:#000000" /><path
     id="use5950-1"
     d="m 242.02123,484.75062 h 52.34934 v 52.34934 h -52.34934 z"
     style="font-variation-settings:normal;vector-effect:none;fill:none;fill-opacity:1;stroke:#0000ff;stroke-width:1.13386;stroke-linecap:round;stroke-linejoin:round;stroke-miterlimit:10;stroke-dasharray:none;stroke-dashoffset:0;stroke-opacity:1;stop-color:#000000" /><path
     id="use5952-7"
     d="m 170.21455,475.77396 h 52.34934 v 52.34934 h -52.34934 z"
     style="font-variation-settings:normal;vector-effect:none;fill:none;fill-opacity:1;stroke:#0000ff;stroke-width:1.13386;stroke-linecap:round;stroke-linejoin:round;stroke-miterlimit:10;stroke-dasharray:none;stroke-dashoffset:0;stroke-opacity:1;stop-color:#000000" /><path
     id="use5954-3"
     d="m 277.92655,410.58062 h 52.34934 v 52.34934 h -52.34934 z"
     style="font-variation-settings:normal;vector-effect:none;fill:none;fill-opacity:1;stroke:#0000ff;stroke-width:1.13386;stroke-linecap:round;stroke-linejoin:round;stroke-miterlimit:10;stroke-dasharray:none;stroke-dashoffset:0;stroke-opacity:1;stop-color:#000000" /></svg>
