<?xml version="1.0" encoding="UTF-8" standalone="no"?>
<svg
   xmlns:dc="http://purl.org/dc/elements/1.1/"
   xmlns:cc="http://creativecommons.org/ns#"
   xmlns:rdf="http://www.w3.org/1999/02/22-rdf-syntax-ns#"
   xmlns:svg="http://www.w3.org/2000/svg"
   xmlns="http://www.w3.org/2000/svg"
   xmlns:xlink="http://www.w3.org/1999/xlink"
   xmlns:sodipodi="http://sodipodi.sourceforge.net/DTD/sodipodi-0.dtd"
   xmlns:inkscape="http://www.inkscape.org/namespaces/inkscape"
   version="1.1"
   id="svg833"
   xml:space="preserve"
   width="200mm"
   height="200mm"
   viewBox="0 0 755.90547 755.90547"
   sodipodi:docname="corne_tilting_top_200x200.svg"
   inkscape:version="1.0 (4035a4fb49, 2020-05-01)"><g
     id="g6186"
     transform="translate(19,8)"
     inkscape:label="Corne Top Cherry Tenting"><path
       id="path1049-1"
       style="fill:none;stroke:#0000ff;stroke-width:1.13386;stroke-linecap:round;stroke-linejoin:round;stroke-miterlimit:10;stroke-dasharray:none;stroke-opacity:1"
       d="m 519.00463,322.66181 c 0,-2.296 1.86133,-4.15734 4.15867,-4.15734 2.296,0 4.15733,1.86134 4.15733,4.15734 0,2.29733 -1.86133,4.15733 -4.15733,4.15733 -2.29734,0 -4.15867,-1.86 -4.15867,-4.15733 z" /><path
       id="path1103-1"
       style="fill:none;stroke:#0000ff;stroke-width:1.13386;stroke-linecap:round;stroke-linejoin:round;stroke-miterlimit:10;stroke-dasharray:none;stroke-opacity:1"
       d="m 497.2149,59.463813 c 0,-5.426667 4.39866,-9.826667 9.82666,-9.826667 5.42667,0 9.82667,4.4 9.82667,9.826667 0,5.428 -4.4,9.826666 -9.82667,9.826666 -5.428,0 -9.82666,-4.398666 -9.82666,-9.826666 z" /><path
       id="path1107-1"
       style="fill:none;stroke:#0000ff;stroke-width:1.13386;stroke-linecap:round;stroke-linejoin:round;stroke-miterlimit:10;stroke-dasharray:none;stroke-opacity:1"
       d="m 95.500112,129.95594 c -5.428,0 -9.826667,-4.4 -9.826667,-9.82666 0,-5.428 4.398667,-9.82667 9.826667,-9.82667 5.426668,0 9.826668,4.39867 9.826668,9.82667 0,5.42666 -4.4,9.82666 -9.826668,9.82666 z" /><path
       id="path1111-2"
       style="fill:none;stroke:#0000ff;stroke-width:1.13386;stroke-linecap:round;stroke-linejoin:round;stroke-miterlimit:10;stroke-dasharray:none;stroke-opacity:1"
       d="m 612.31263,364.83754 c 4.7,2.71333 6.30933,8.724 3.596,13.424 -2.71334,4.7 -8.72267,6.31067 -13.42267,3.59733 -4.70133,-2.71466 -6.31067,-8.724 -3.59733,-13.424 2.71333,-4.7 8.724,-6.31066 13.424,-3.59733 z" /><path
       id="path1115-2"
       style="fill:none;stroke:#0000ff;stroke-width:1.13386;stroke-linecap:round;stroke-linejoin:round;stroke-miterlimit:10;stroke-dasharray:none;stroke-opacity:1"
       d="m 95.463578,273.66954 c -5.426666,0 -9.826667,-4.4 -9.826667,-9.82666 0,-5.42667 4.400001,-9.82667 9.826667,-9.82667 5.426662,0 9.826672,4.4 9.826672,9.82667 0,5.42666 -4.40001,9.82666 -9.826672,9.82666 z" /><path
       sodipodi:nodetypes="csscssccsccscccccccsccccccccccccsccsscssccsssssssssssssssccscssscsscc"
       id="path1119-1"
       style="fill:none;stroke:#0000ff;stroke-width:1.13386;stroke-linecap:round;stroke-linejoin:round;stroke-miterlimit:10;stroke-dasharray:none;stroke-opacity:1"
       d="m 110.25552,233.60581 c 0,6.26267 -2.40741,11.33867 -8.66874,11.33867 h -5.588935 c -10.176,0 -18.932,7.82 -19.409333,17.984 -0.512,10.85333 8.135999,19.812 18.874666,19.812 h 7.114662 c 6.26267,0 7.65357,5.07466 7.65357,11.33733 l 0.0453,3.076 c 0,1.044 0.84666,1.89067 1.88933,1.89067 h 67.94244 7.56 136.07199 c 0.50133,0 0.98267,0.2 1.336,0.55333 -0.0133,-0.0187 39.864,54.632 39.864,54.632 0.37333,0.31866 0.83467,0.516 1.32267,0.56666 l 139.06399,20.67067 c 0.35867,0.0613 0.71334,0.15333 1.05867,0.27467 l 55.74666,32.08533 c 1.48667,1.05067 3.54267,0.69733 4.59467,-0.78933 l 9.596,-16.72134 c 3.13333,-5.46 10.11333,-7.32133 15.54933,-4.14933 l 6.07734,3.54667 c 9.03866,5.21866 20.596,2.12266 25.81466,-6.916 5.21867,-9.04 2.12134,-20.59734 -6.91733,-25.816 l -6.244,-3.66134 c -5.36133,-3.14266 -7.192,-10.01733 -4.10667,-15.41066 l 10.316,-18.032 c 1.15867,-2.20667 0.54667,-4.92934 -1.44666,-6.428 l -69.40397,-41.716 c -1.10934,-0.98133 -1.876,-2.29333 -2.18667,-3.74133 v -122.052 l 0.003,-61.458668 v -4.665333 c 0,-1.042667 -0.84533,-1.889333 -1.88933,-1.890667 l -4.62003,-0.0013 c -6.25867,-0.0053 -11.32934,-5.078667 -11.32934,-11.338666 v -7.121334 c 0,-10.74 -8.95866,-19.387999 -19.812,-18.875999 -10.16433,0.478633 -17.98299,9.234633 -17.98299,19.4093 v 6.586666 c 0,6.26 -2.95388,11.334667 -9.21254,11.338667 l -0.22178,0.0027 c -1.044,0.0013 -1.892,-0.845333 -1.892,-1.890666 v -5.669334 c 0,-1.042666 -0.84533,-1.889333 -1.88933,-1.889333 h -68.036 c -1.044,0 -1.88933,-0.845333 -1.88933,-1.889333 v -4.725333 c 0,-1.044 -0.84667,-1.889334 -1.89067,-1.889334 h -79.1844 c -1.044,0 -1.89067,0.845334 -1.89067,1.889334 v 4.725333 c 0,1.044 -0.84533,1.889333 -1.88933,1.889333 h -68.2077 c -1.04267,0 -1.88934,0.846667 -1.88934,1.889333 v 14.174667 c 0,1.044 -0.84533,1.890666 -1.89066,1.890666 h -60.49224 -7.56 -68.12967 c -1.044,0 -1.89066,0.845334 -1.892,1.889334 v 1.572 c 0,6.261333 -1.20099,11.338667 -7.46366,11.338667 h -6.589335 c -10.176,0 -18.932,7.82 -19.410667,17.984 -0.510666,10.85196 8.136,19.81063 18.877334,19.81063 h 6.112938 c 6.26266,0 8.66873,5.076 8.66873,11.33734 z" /><path
       id="path102-1-7"
       style="font-variation-settings:normal;vector-effect:none;fill:none;fill-opacity:1;stroke:#0000ff;stroke-width:1.13386;stroke-linecap:round;stroke-linejoin:round;stroke-miterlimit:10;stroke-dasharray:none;stroke-dashoffset:0;stroke-opacity:1;stop-color:#000000"
       d="m 467.07131,143.14447 c 0.003,2.29598 1.86135,4.15733 4.15733,4.15733 2.29599,0 4.16002,-1.86135 4.16002,-4.15733 0,-2.29603 -1.86403,-4.15737 -4.16002,-4.15737 -2.29598,0 -4.15469,1.86134 -4.15469,4.15737" /><path
       id="path108-7-1"
       style="font-variation-settings:normal;vector-effect:none;fill:none;fill-opacity:1;stroke:#0000ff;stroke-width:1.13386;stroke-linecap:round;stroke-linejoin:round;stroke-miterlimit:10;stroke-dasharray:none;stroke-dashoffset:0;stroke-opacity:1;stop-color:#000000"
       d="m 179.77675,156.83513 c 0,2.29599 1.86146,4.15732 4.15733,4.15732 2.29573,0 4.15718,-1.86133 4.15718,-4.15732 0,-2.29602 -1.86145,-4.15733 -4.15718,-4.15733 -2.29587,0 -4.15733,1.86131 -4.15733,4.15733" /><path
       id="path110-3-5"
       style="font-variation-settings:normal;vector-effect:none;fill:none;fill-opacity:1;stroke:#0000ff;stroke-width:1.13386;stroke-linecap:round;stroke-linejoin:round;stroke-miterlimit:10;stroke-dasharray:none;stroke-dashoffset:0;stroke-opacity:1;stop-color:#000000"
       d="m 179.74342,228.69778 c 0,2.29335 1.86145,4.15468 4.15733,4.15468 2.29572,0 4.15721,-1.86133 4.15721,-4.15468 0,-2.29866 -1.86149,-4.15997 -4.15721,-4.15997 -2.29588,0 -4.15733,1.86131 -4.15733,4.15997" /><path
       id="path112-3-5"
       style="font-variation-settings:normal;vector-effect:none;fill:none;fill-opacity:1;stroke:#0000ff;stroke-width:1.13386;stroke-linecap:round;stroke-linejoin:round;stroke-miterlimit:10;stroke-dasharray:none;stroke-dashoffset:0;stroke-opacity:1;stop-color:#000000"
       d="m 519.00463,322.66179 c 0,2.29603 1.86135,4.15602 4.15733,4.15602 2.29603,0 4.15736,-1.85999 4.15736,-4.15734 0,-2.29598 -1.86133,-4.156 -4.15736,-4.156 -2.29598,0 -4.15733,1.86002 -4.15733,4.156" /><path
       id="path114-5-9"
       style="font-variation-settings:normal;vector-effect:none;fill:none;fill-opacity:1;stroke:#0000ff;stroke-width:1.13386;stroke-linecap:round;stroke-linejoin:round;stroke-miterlimit:10;stroke-dasharray:none;stroke-dashoffset:0;stroke-opacity:1;stop-color:#000000"
       d="m 343.19797,293.3538 c 0,2.29866 1.8613,4.15736 4.15733,4.15736 2.29599,0 4.15733,-1.8587 4.15733,-4.15468 0,-2.29599 -1.86134,-4.15734 -4.15733,-4.15734 -2.29603,0 -4.15733,1.86135 -4.15733,4.15734" /><path
       d="m 460.15264,299.11781 -13.49867,50.58133 50.58133,13.49733 13.49733,-50.58 z"
       style="font-variation-settings:normal;vector-effect:none;fill:none;fill-opacity:1;stroke:#0000ff;stroke-width:1.13386;stroke-linecap:round;stroke-linejoin:round;stroke-miterlimit:10;stroke-dasharray:none;stroke-dashoffset:0;stroke-opacity:1;stop-color:#000000"
       id="path4749" /><path
       d="m 553.22131,309.59182 -26.144,45.35467 45.35467,26.144 26.144,-45.356 z"
       style="font-variation-settings:normal;vector-effect:none;fill:none;fill-opacity:1;stroke:#0000ff;stroke-width:1.13386;stroke-linecap:round;stroke-linejoin:round;stroke-miterlimit:10;stroke-dasharray:none;stroke-dashoffset:0;stroke-opacity:1;stop-color:#000000"
       id="path4753" /><path
       inkscape:tile-y0="525.25837"
       inkscape:tile-x0="85.258395"
       inkscape:tile-h="53.483197"
       inkscape:tile-w="53.483197"
       inkscape:tile-cy="551.99997"
       inkscape:tile-cx="111.99999"
       d="M 245.98127,147.08178 H 193.63193 V 94.732442 h 52.34934 z"
       style="font-variation-settings:normal;opacity:1;vector-effect:none;fill:none;fill-opacity:1;stroke:#0000ff;stroke-width:1.13386;stroke-linecap:round;stroke-linejoin:round;stroke-miterlimit:10;stroke-dasharray:none;stroke-dashoffset:0;stroke-opacity:1;stop-color:#000000;stop-opacity:1"
       id="path4845" /><use
       height="100%"
       width="100%"
       transform="translate(-71.811384)"
       id="use5920"
       xlink:href="#path4845"
       inkscape:tiled-clone-of="#path4845"
       y="0"
       x="0" /><use
       height="100%"
       width="100%"
       id="use5922"
       transform="translate(71.810679,-17.952666)"
       xlink:href="#path4845"
       inkscape:tiled-clone-of="#path4845"
       y="0"
       x="0" /><use
       height="100%"
       width="100%"
       id="use5924"
       transform="translate(143.61736,-26.929332)"
       xlink:href="#path4845"
       inkscape:tiled-clone-of="#path4845"
       y="0"
       x="0" /><use
       height="100%"
       width="100%"
       id="use5926"
       transform="translate(215.42937,-17.952666)"
       xlink:href="#path4845"
       inkscape:tiled-clone-of="#path4845"
       y="0"
       x="0" /><use
       height="100%"
       width="100%"
       id="use5928"
       transform="translate(287.23605,-8.98)"
       xlink:href="#path4845"
       inkscape:tiled-clone-of="#path4845"
       y="0"
       x="0" /><use
       height="100%"
       width="100%"
       id="use5930"
       transform="translate(-71.811385,71.811349)"
       xlink:href="#path4845"
       inkscape:tiled-clone-of="#path4845"
       y="0"
       x="0" /><use
       height="100%"
       width="100%"
       id="use5932"
       transform="translate(-1e-6,71.811349)"
       xlink:href="#path4845"
       inkscape:tiled-clone-of="#path4845"
       y="0"
       x="0" /><use
       height="100%"
       width="100%"
       id="use5934"
       transform="translate(71.810679,53.854674)"
       xlink:href="#path4845"
       inkscape:tiled-clone-of="#path4845"
       y="0"
       x="0" /><use
       height="100%"
       width="100%"
       id="use5936"
       transform="translate(143.61736,44.882019)"
       xlink:href="#path4845"
       inkscape:tiled-clone-of="#path4845"
       y="0"
       x="0" /><use
       height="100%"
       width="100%"
       id="use5938"
       transform="translate(215.42937,53.854674)"
       xlink:href="#path4845"
       inkscape:tiled-clone-of="#path4845"
       y="0"
       x="0" /><use
       height="100%"
       width="100%"
       id="use5940"
       transform="translate(287.23605,62.830674)"
       xlink:href="#path4845"
       inkscape:tiled-clone-of="#path4845"
       y="0"
       x="0" /><use
       height="100%"
       width="100%"
       id="use5942"
       transform="translate(-71.811385,143.61468)"
       xlink:href="#path4845"
       inkscape:tiled-clone-of="#path4845"
       y="0"
       x="0" /><use
       height="100%"
       width="100%"
       id="use5944"
       transform="translate(-1e-6,143.61468)"
       xlink:href="#path4845"
       inkscape:tiled-clone-of="#path4845"
       y="0"
       x="0" /><use
       height="100%"
       width="100%"
       id="use5946"
       transform="translate(71.810679,125.66536)"
       xlink:href="#path4845"
       inkscape:tiled-clone-of="#path4845"
       y="0"
       x="0" /><use
       height="100%"
       width="100%"
       id="use5948"
       transform="translate(143.61736,116.68936)"
       xlink:href="#path4845"
       inkscape:tiled-clone-of="#path4845"
       y="0"
       x="0" /><use
       height="100%"
       width="100%"
       id="use5950"
       transform="translate(215.42937,125.66536)"
       xlink:href="#path4845"
       inkscape:tiled-clone-of="#path4845"
       y="0"
       x="0" /><use
       height="100%"
       width="100%"
       id="use5952"
       transform="translate(287.23605,134.64203)"
       xlink:href="#path4845"
       inkscape:tiled-clone-of="#path4845"
       y="0"
       x="0" /><use
       height="100%"
       width="100%"
       id="use5954"
       transform="translate(179.52403,199.83537)"
       xlink:href="#path4845"
       inkscape:tiled-clone-of="#path4845"
       y="0"
       x="0" /></g><metadata
     id="metadata839"><rdf:RDF><cc:Work
         rdf:about=""><dc:format>image/svg+xml</dc:format><dc:type
           rdf:resource="http://purl.org/dc/dcmitype/StillImage" /><dc:title /></cc:Work></rdf:RDF></metadata><defs
     id="defs837"><clipPath
       clipPathUnits="userSpaceOnUse"
       id="clipPath849"><path
         d="M 0,595.276 H 841.89 V 0 H 0 Z"
         id="path847" /></clipPath><clipPath
       clipPathUnits="userSpaceOnUse"
       id="clipPath1009"><path
         d="M 0,595.276 H 841.89 V 0 H 0 Z"
         id="path1007" /></clipPath></defs><sodipodi:namedview
     units="mm"
     inkscape:document-rotation="0"
     pagecolor="#ffffff"
     bordercolor="#666666"
     borderopacity="1"
     objecttolerance="10"
     gridtolerance="10"
     guidetolerance="10"
     inkscape:pageopacity="0"
     inkscape:pageshadow="2"
     inkscape:window-width="1496"
     inkscape:window-height="1401"
     id="namedview835"
     showgrid="false"
     inkscape:zoom="1"
     inkscape:cx="391.1024"
     inkscape:cy="367.95075"
     inkscape:window-x="1900"
     inkscape:window-y="0"
     inkscape:window-maximized="0"
     inkscape:current-layer="g6220"
     inkscape:snap-path-clip="true"><inkscape:grid
       id="grid2818"
       type="xygrid" /></sodipodi:namedview><g
     id="g6220"
     transform="translate(3,-182)"
     inkscape:label="Corne Top Alps Tenting"><path
       d="m 171.85911,603.06959 c 0,2.296 -1.86133,4.15734 -4.15867,4.15734 -2.296,0 -4.15733,-1.86134 -4.15733,-4.15734 0,-2.29733 1.86133,-4.15733 4.15733,-4.15733 2.29734,0 4.15867,1.86 4.15867,4.15733 z"
       style="fill:none;stroke:#0000ff;stroke-width:1.13386;stroke-linecap:round;stroke-linejoin:round;stroke-miterlimit:10;stroke-dasharray:none;stroke-opacity:1"
       id="path1049-1-1" /><path
       d="m 193.64884,866.26759 c 0,5.42666 -4.39866,9.82666 -9.82666,9.82666 -5.42667,0 -9.82667,-4.4 -9.82667,-9.82666 0,-5.428 4.4,-9.82667 9.82667,-9.82667 5.428,0 9.82666,4.39867 9.82666,9.82667 z"
       style="fill:none;stroke:#0000ff;stroke-width:1.13386;stroke-linecap:round;stroke-linejoin:round;stroke-miterlimit:10;stroke-dasharray:none;stroke-opacity:1"
       id="path1103-1-8" /><path
       d="m 595.36363,795.77546 c 5.428,0 9.82666,4.4 9.82666,9.82666 0,5.428 -4.39866,9.82667 -9.82666,9.82667 -5.42667,0 -9.82667,-4.39867 -9.82667,-9.82667 0,-5.42666 4.4,-9.82666 9.82667,-9.82666 z"
       style="fill:none;stroke:#0000ff;stroke-width:1.13386;stroke-linecap:round;stroke-linejoin:round;stroke-miterlimit:10;stroke-dasharray:none;stroke-opacity:1"
       id="path1107-1-5" /><path
       d="m 78.55111,560.89386 c -4.7,-2.71333 -6.30933,-8.724 -3.596,-13.424 2.71334,-4.7 8.72267,-6.31067 13.42267,-3.59733 4.70133,2.71466 6.31067,8.724 3.59733,13.424 -2.71333,4.7 -8.724,6.31066 -13.424,3.59733 z"
       style="fill:none;stroke:#0000ff;stroke-width:1.13386;stroke-linecap:round;stroke-linejoin:round;stroke-miterlimit:10;stroke-dasharray:none;stroke-opacity:1"
       id="path1111-2-9" /><path
       d="m 595.40016,652.06186 c 5.42667,0 9.82667,4.4 9.82667,9.82666 0,5.42667 -4.4,9.82667 -9.82667,9.82667 -5.42667,0 -9.82667,-4.4 -9.82667,-9.82667 0,-5.42666 4.4,-9.82666 9.82667,-9.82666 z"
       style="fill:none;stroke:#0000ff;stroke-width:1.13386;stroke-linecap:round;stroke-linejoin:round;stroke-miterlimit:10;stroke-dasharray:none;stroke-opacity:1"
       id="path1115-2-9" /><path
       d="m 580.60822,692.12559 c 0,-6.26267 2.40741,-11.33867 8.66874,-11.33867 h 5.58893 c 10.176,0 18.932,-7.82 19.40934,-17.984 0.512,-10.85333 -8.136,-19.812 -18.87467,-19.812 h -7.11467 c -6.26266,0 -7.65356,-5.07466 -7.65356,-11.33733 l -0.0453,-3.076 c 0,-1.044 -0.84666,-1.89067 -1.88933,-1.89067 h -67.94244 -7.56 -136.07199 c -0.50133,0 -0.98267,-0.2 -1.336,-0.55333 0.0133,0.0187 -39.864,-54.632 -39.864,-54.632 -0.37333,-0.31866 -0.83467,-0.516 -1.32267,-0.56666 L 185.53658,550.26426 c -0.35867,-0.0613 -0.71334,-0.15333 -1.05867,-0.27467 l -55.74666,-32.08533 c -1.48667,-1.05067 -3.54267,-0.69733 -4.59467,0.78933 l -9.596,16.72134 c -3.13333,5.46 -10.11333,7.32133 -15.54933,4.14933 l -6.07734,-3.54667 c -9.03866,-5.21866 -20.596,-2.12266 -25.81466,6.916 -5.21867,9.04 -2.12134,20.59734 6.91733,25.816 l 6.244,3.66134 c 5.36133,3.14266 7.192,10.01733 4.10667,15.41066 l -10.316,18.032 c -1.15867,2.20667 -0.54667,4.92934 1.44666,6.428 l 69.40397,41.716 c 1.10934,0.98133 1.876,2.29333 2.18667,3.74133 v 122.052 l -0.003,61.45867 v 4.66533 c 0,1.04267 0.84533,1.88933 1.88933,1.89067 l 4.62003,10e-4 c 6.25867,0.005 11.32934,5.07866 11.32934,11.33866 v 7.12134 c 0,10.74 8.95866,19.388 19.812,18.876 10.16433,-0.47864 17.98299,-9.23464 17.98299,-19.4093 v -6.58667 c 0,-6.26 2.95388,-11.33467 9.21254,-11.33867 l 0.22178,-0.003 c 1.044,-10e-4 1.892,0.84534 1.892,1.89067 v 5.66933 c 0,1.04267 0.84533,1.88934 1.88933,1.88934 h 68.036 c 1.044,0 1.88933,0.84533 1.88933,1.88933 v 4.72533 c 0,1.044 0.84667,1.88934 1.89067,1.88934 h 79.1844 c 1.044,0 1.89067,-0.84534 1.89067,-1.88934 v -4.72533 c 0,-1.044 0.84533,-1.88933 1.88933,-1.88933 h 68.2077 c 1.04267,0 1.88934,-0.84667 1.88934,-1.88934 v -14.17466 c 0,-1.044 0.84533,-1.89067 1.89066,-1.89067 h 60.49224 7.56 68.12967 c 1.04399,0 1.89066,-0.84533 1.89199,-1.88933 v -1.572 c 0,-6.26134 1.201,-11.33867 7.46367,-11.33867 h 6.58933 c 10.176,0 18.932,-7.82 19.41067,-17.984 0.51067,-10.85196 -8.136,-19.81063 -18.87733,-19.81063 h -6.11294 c -6.26266,0 -8.66874,-5.076 -8.66874,-11.33734 z"
       style="fill:none;stroke:#0000ff;stroke-width:1.13386;stroke-linecap:round;stroke-linejoin:round;stroke-miterlimit:10;stroke-dasharray:none;stroke-opacity:1"
       id="path1119-1-1"
       sodipodi:nodetypes="csscssccsccscccccccsccccccccccccsccsscssccsssssssssssssssccscssscsscc" /><path
       d="m 223.79243,782.58693 c -0.003,-2.29598 -1.86135,-4.15733 -4.15733,-4.15733 -2.29599,0 -4.16002,1.86135 -4.16002,4.15733 0,2.29603 1.86403,4.15737 4.16002,4.15737 2.29598,0 4.15469,-1.86134 4.15469,-4.15737"
       style="font-variation-settings:normal;vector-effect:none;fill:none;fill-opacity:1;stroke:#0000ff;stroke-width:1.13386;stroke-linecap:round;stroke-linejoin:round;stroke-miterlimit:10;stroke-dasharray:none;stroke-dashoffset:0;stroke-opacity:1;stop-color:#000000"
       id="path102-1-7-4" /><path
       d="m 511.08699,768.89627 c 0,-2.29599 -1.86146,-4.15732 -4.15733,-4.15732 -2.29573,0 -4.15718,1.86133 -4.15718,4.15732 0,2.29602 1.86145,4.15733 4.15718,4.15733 2.29587,0 4.15733,-1.86131 4.15733,-4.15733"
       style="font-variation-settings:normal;vector-effect:none;fill:none;fill-opacity:1;stroke:#0000ff;stroke-width:1.13386;stroke-linecap:round;stroke-linejoin:round;stroke-miterlimit:10;stroke-dasharray:none;stroke-dashoffset:0;stroke-opacity:1;stop-color:#000000"
       id="path108-7-1-0" /><path
       d="m 511.12032,697.03362 c 0,-2.29335 -1.86145,-4.15468 -4.15733,-4.15468 -2.29572,0 -4.15721,1.86133 -4.15721,4.15468 0,2.29866 1.86149,4.15997 4.15721,4.15997 2.29588,0 4.15733,-1.86131 4.15733,-4.15997"
       style="font-variation-settings:normal;vector-effect:none;fill:none;fill-opacity:1;stroke:#0000ff;stroke-width:1.13386;stroke-linecap:round;stroke-linejoin:round;stroke-miterlimit:10;stroke-dasharray:none;stroke-dashoffset:0;stroke-opacity:1;stop-color:#000000"
       id="path110-3-5-3" /><path
       d="m 347.66577,632.3776 c 0,-2.29866 -1.8613,-4.15736 -4.15733,-4.15736 -2.29599,0 -4.15733,1.8587 -4.15733,4.15468 0,2.29599 1.86134,4.15734 4.15733,4.15734 2.29603,0 4.15733,-1.86135 4.15733,-4.15734"
       style="font-variation-settings:normal;vector-effect:none;fill:none;fill-opacity:1;stroke:#0000ff;stroke-width:1.13386;stroke-linecap:round;stroke-linejoin:round;stroke-miterlimit:10;stroke-dasharray:none;stroke-dashoffset:0;stroke-opacity:1;stop-color:#000000"
       id="path114-5-9-6" /><path
       d="m 513.5766,829.01361 h 58.58385 V 780.63496 H 513.5766 Z"
       style="font-variation-settings:normal;vector-effect:none;fill:none;fill-opacity:1;stroke:#0000ff;stroke-width:1.13386;stroke-linecap:round;stroke-linejoin:round;stroke-miterlimit:10;stroke-dasharray:none;stroke-dashoffset:0;stroke-opacity:1;stop-color:#000000"
       id="path116-7-3-8" /><path
       d="M 369.95512,846.96563 H 428.5378 V 798.58828 H 369.95512 Z"
       style="font-variation-settings:normal;vector-effect:none;fill:none;fill-opacity:1;stroke:#0000ff;stroke-width:1.13386;stroke-linecap:round;stroke-linejoin:round;stroke-miterlimit:10;stroke-dasharray:none;stroke-dashoffset:0;stroke-opacity:1;stop-color:#000000"
       id="path118-4-7-6" /><path
       d="M 369.95512,775.15895 H 428.5378 V 726.78028 H 369.95512 Z"
       style="font-variation-settings:normal;vector-effect:none;fill:none;fill-opacity:1;stroke:#0000ff;stroke-width:1.13386;stroke-linecap:round;stroke-linejoin:round;stroke-miterlimit:10;stroke-dasharray:none;stroke-dashoffset:0;stroke-opacity:1;stop-color:#000000"
       id="path120-9-5-4" /><path
       d="M 369.95512,703.34827 H 428.5378 V 654.96958 H 369.95512 Z"
       style="font-variation-settings:normal;vector-effect:none;fill:none;fill-opacity:1;stroke:#0000ff;stroke-width:1.13386;stroke-linecap:round;stroke-linejoin:round;stroke-miterlimit:10;stroke-dasharray:none;stroke-dashoffset:0;stroke-opacity:1;stop-color:#000000"
       id="path122-7-1-5" /><path
       d="m 298.14844,855.94296 h 58.58268 v -48.37868 h -58.58268 z"
       style="font-variation-settings:normal;vector-effect:none;fill:none;fill-opacity:1;stroke:#0000ff;stroke-width:1.13386;stroke-linecap:round;stroke-linejoin:round;stroke-miterlimit:10;stroke-dasharray:none;stroke-dashoffset:0;stroke-opacity:1;stop-color:#000000"
       id="path124-6-2-9" /><path
       d="m 298.14844,784.13095 h 58.58268 v -48.37736 h -58.58268 z"
       style="font-variation-settings:normal;vector-effect:none;fill:none;fill-opacity:1;stroke:#0000ff;stroke-width:1.13386;stroke-linecap:round;stroke-linejoin:round;stroke-miterlimit:10;stroke-dasharray:none;stroke-dashoffset:0;stroke-opacity:1;stop-color:#000000"
       id="path126-9-8-0" /><path
       d="m 298.14844,712.32427 h 58.58268 v -48.37868 h -58.58268 z"
       style="font-variation-settings:normal;vector-effect:none;fill:none;fill-opacity:1;stroke:#0000ff;stroke-width:1.13386;stroke-linecap:round;stroke-linejoin:round;stroke-miterlimit:10;stroke-dasharray:none;stroke-dashoffset:0;stroke-opacity:1;stop-color:#000000"
       id="path128-1-7-9" /><path
       d="m 226.33643,703.34827 h 58.58268 v -48.37869 h -58.58268 z"
       style="font-variation-settings:normal;vector-effect:none;fill:none;fill-opacity:1;stroke:#0000ff;stroke-width:1.13386;stroke-linecap:round;stroke-linejoin:round;stroke-miterlimit:10;stroke-dasharray:none;stroke-dashoffset:0;stroke-opacity:1;stop-color:#000000"
       id="path130-4-9-7" /><path
       d="m 262.24179,629.17759 h 58.58264 v -48.37734 h -58.58264 z"
       style="font-variation-settings:normal;vector-effect:none;fill:none;fill-opacity:1;stroke:#0000ff;stroke-width:1.13386;stroke-linecap:round;stroke-linejoin:round;stroke-miterlimit:10;stroke-dasharray:none;stroke-dashoffset:0;stroke-opacity:1;stop-color:#000000"
       id="path132-6-2-2" /><path
       d="m 154.52975,837.99361 h 58.58268 v -48.37865 h -58.58268 z"
       style="font-variation-settings:normal;vector-effect:none;fill:none;fill-opacity:1;stroke:#0000ff;stroke-width:1.13386;stroke-linecap:round;stroke-linejoin:round;stroke-miterlimit:10;stroke-dasharray:none;stroke-dashoffset:0;stroke-opacity:1;stop-color:#000000"
       id="path134-1-7-6" /><path
       d="m 154.52975,766.18295 h 58.58268 v -48.37867 h -58.58268 z"
       style="font-variation-settings:normal;vector-effect:none;fill:none;fill-opacity:1;stroke:#0000ff;stroke-width:1.13386;stroke-linecap:round;stroke-linejoin:round;stroke-miterlimit:10;stroke-dasharray:none;stroke-dashoffset:0;stroke-opacity:1;stop-color:#000000"
       id="path136-2-9-2" /><path
       d="m 154.52975,694.37094 h 58.58268 v -48.37736 h -58.58268 z"
       style="font-variation-settings:normal;vector-effect:none;fill:none;fill-opacity:1;stroke:#0000ff;stroke-width:1.13386;stroke-linecap:round;stroke-linejoin:round;stroke-miterlimit:10;stroke-dasharray:none;stroke-dashoffset:0;stroke-opacity:1;stop-color:#000000"
       id="path138-1-0-5" /><path
       d="m 226.33643,775.15895 h 58.58268 v -48.37867 h -58.58268 z"
       style="font-variation-settings:normal;vector-effect:none;fill:none;fill-opacity:1;stroke:#0000ff;stroke-width:1.13386;stroke-linecap:round;stroke-linejoin:round;stroke-miterlimit:10;stroke-dasharray:none;stroke-dashoffset:0;stroke-opacity:1;stop-color:#000000"
       id="path140-0-1-8" /><path
       d="m 226.33643,846.96563 h 58.58268 v -48.37735 h -58.58268 z"
       style="font-variation-settings:normal;vector-effect:none;fill:none;fill-opacity:1;stroke:#0000ff;stroke-width:1.13386;stroke-linecap:round;stroke-linejoin:round;stroke-miterlimit:10;stroke-dasharray:none;stroke-dashoffset:0;stroke-opacity:1;stop-color:#000000"
       id="path142-9-5-2" /><path
       d="m 441.7658,757.20161 h 58.58268 V 708.82427 H 441.7658 Z"
       style="font-variation-settings:normal;vector-effect:none;fill:none;fill-opacity:1;stroke:#0000ff;stroke-width:1.13386;stroke-linecap:round;stroke-linejoin:round;stroke-miterlimit:10;stroke-dasharray:none;stroke-dashoffset:0;stroke-opacity:1;stop-color:#000000"
       id="path144-7-5-6" /><path
       d="m 513.5766,757.20161 h 58.58385 V 708.82427 H 513.5766 Z"
       style="font-variation-settings:normal;vector-effect:none;fill:none;fill-opacity:1;stroke:#0000ff;stroke-width:1.13386;stroke-linecap:round;stroke-linejoin:round;stroke-miterlimit:10;stroke-dasharray:none;stroke-dashoffset:0;stroke-opacity:1;stop-color:#000000"
       id="path146-8-6-2" /><path
       d="m 513.5766,685.39895 h 58.58385 V 637.02027 H 513.5766 Z"
       style="font-variation-settings:normal;vector-effect:none;fill:none;fill-opacity:1;stroke:#0000ff;stroke-width:1.13386;stroke-linecap:round;stroke-linejoin:round;stroke-miterlimit:10;stroke-dasharray:none;stroke-dashoffset:0;stroke-opacity:1;stop-color:#000000"
       id="path148-7-8-0" /><path
       d="m 441.7658,685.39895 h 58.58268 V 637.02027 H 441.7658 Z"
       style="font-variation-settings:normal;vector-effect:none;fill:none;fill-opacity:1;stroke:#0000ff;stroke-width:1.13386;stroke-linecap:round;stroke-linejoin:round;stroke-miterlimit:10;stroke-dasharray:none;stroke-dashoffset:0;stroke-opacity:1;stop-color:#000000"
       id="path150-8-7-6" /><path
       d="m 441.7658,829.01361 h 58.58268 V 780.63496 H 441.7658 Z"
       style="font-variation-settings:normal;vector-effect:none;fill:none;fill-opacity:1;stroke:#0000ff;stroke-width:1.13386;stroke-linecap:round;stroke-linejoin:round;stroke-miterlimit:10;stroke-dasharray:none;stroke-dashoffset:0;stroke-opacity:1;stop-color:#000000"
       id="path152-3-2-5" /><path
       d="m 163.62178,567.09225 -29.256,50.75466 -41.91337,-24.15998 29.25604,-50.75335 z"
       style="font-variation-settings:normal;vector-effect:none;fill:none;fill-opacity:1;stroke:#0000ff;stroke-width:1.13386;stroke-linecap:round;stroke-linejoin:round;stroke-miterlimit:10;stroke-dasharray:none;stroke-dashoffset:0;stroke-opacity:1;stop-color:#000000"
       id="path154-5-5-4" /><path
       d="m 246.72444,578.79094 -12.52134,46.72932 -56.58667,-15.16267 12.52135,-46.72933 z"
       style="font-variation-settings:normal;vector-effect:none;fill:none;fill-opacity:1;stroke:#0000ff;stroke-width:1.13386;stroke-linecap:round;stroke-linejoin:round;stroke-miterlimit:10;stroke-dasharray:none;stroke-dashoffset:0;stroke-opacity:1;stop-color:#000000"
       id="path156-0-9-9" /></g></svg>
