  0
SECTION
  2
HEADER
  9
$ACADVER
  1
AC1014
  9
$HANDSEED
  5
FFFF
  9
$MEASUREMENT
 70
     1
  0
ENDSEC
  0
SECTION
  2
TABLES
  0
TABLE
  2
VPORT
  5
8
330
0
100
AcDbSymbolTable
 70
     4
  0
VPORT
  5
2E
330
8
100
AcDbSymbolTableRecord
100
AcDbViewportTableRecord
  2
*ACTIVE
 70
     0
 10
0.0
 20
0.0
 11
1.0
 21
1.0
 12
210.0
 22
148.5
 13
0.0
 23
0.0
 14
10.0
 24
10.0
 15
10.0
 25
10.0
 16
0.0
 26
0.0
 36
1.0
 17
0.0
 27
0.0
 37
0.0
 40
341.0
 41
1.24
 42
50.0
 43
0.0
 44
0.0
 50
0.0
 51
0.0
 71
     0
 72
   100
 73
     1
 74
     3
 75
     0
 76
     0
 77
     0
 78
     0
  0
ENDTAB
  0
TABLE
  2
LTYPE
  5
5
330
0
100
AcDbSymbolTable
 70
     1
  0
LTYPE
  5
14
330
5
100
AcDbSymbolTableRecord
100
AcDbLinetypeTableRecord
  2
BYBLOCK
 70
     0
  3

 72
    65
 73
     0
 40
0.0
  0
LTYPE
  5
15
330
5
100
AcDbSymbolTableRecord
100
AcDbLinetypeTableRecord
  2
BYLAYER
 70
     0
  3

 72
    65
 73
     0
 40
0.0
  0
LTYPE
  5
16
330
5
100
AcDbSymbolTableRecord
100
AcDbLinetypeTableRecord
  2
CONTINUOUS
 70
     0
  3
Solid line
 72
    65
 73
     0
 40
0.0
  0
ENDTAB
  0
TABLE
  2
LAYER
  5
2
100
AcDbSymbolTable
 70
1
  0
LAYER
  5
50
100
AcDbSymbolTableRecord
100
AcDbLayerTableRecord
  2
0
 70
0
  6
CONTINUOUS
  0
ENDTAB
  0
TABLE
  2
STYLE
  5
3
330
0
100
AcDbSymbolTable
 70
     1
  0
STYLE
  5
11
330
3
100
AcDbSymbolTableRecord
100
AcDbTextStyleTableRecord
  2
STANDARD
 70
     0
 40
0.0
 41
1.0
 50
0.0
 71
     0
 42
2.5
  3
txt
  4

  0
ENDTAB
  0
TABLE
  2
VIEW
  5
6
330
0
100
AcDbSymbolTable
 70
     0
  0
ENDTAB
  0
TABLE
  2
UCS
  5
7
330
0
100
AcDbSymbolTable
 70
     0
  0
ENDTAB
  0
TABLE
  2
APPID
  5
9
330
0
100
AcDbSymbolTable
 70
     2
  0
APPID
  5
12
330
9
100
AcDbSymbolTableRecord
100
AcDbRegAppTableRecord
  2
ACAD
 70
     0
  0
ENDTAB
  0
TABLE
  2
DIMSTYLE
  5
A
330
0
100
AcDbSymbolTable
 70
     1
  0
DIMSTYLE
105
27
330
A
100
AcDbSymbolTableRecord
100
AcDbDimStyleTableRecord
  2
ISO-25
 70
     0
  3

  4

  5

  6

  7

 40
1.0
 41
2.5
 42
0.625
 43
3.75
 44
1.25
 45
0.0
 46
0.0
 47
0.0
 48
0.0
140
2.5
141
2.5
142
0.0
143
0.03937007874016
144
1.0
145
0.0
146
1.0
147
0.625
 71
     0
 72
     0
 73
     0
 74
     0
 75
     0
 76
     0
 77
     1
 78
     8
170
     0
171
     3
172
     1
173
     0
174
     0
175
     0
176
     0
177
     0
178
     0
270
     2
271
     2
272
     2
273
     2
274
     3
340
11
275
     0
280
     0
281
     0
282
     0
283
     0
284
     8
285
     0
286
     0
287
     3
288
     0
  0
ENDTAB
  0
TABLE
  2
BLOCK_RECORD
  5
1
330
0
100
AcDbSymbolTable
 70
     1
  0
BLOCK_RECORD
  5
1F
330
1
100
AcDbSymbolTableRecord
100
AcDbBlockTableRecord
  2
*MODEL_SPACE
  0
BLOCK_RECORD
  5
1B
330
1
100
AcDbSymbolTableRecord
100
AcDbBlockTableRecord
  2
*PAPER_SPACE
  0
ENDTAB
  0
ENDSEC
  0
SECTION
  2
BLOCKS
  0
BLOCK
  5
20
330
1F
100
AcDbEntity
  8
0
100
AcDbBlockBegin
  2
*MODEL_SPACE
 70
     0
 10
0.0
 20
0.0
 30
0.0
  3
*MODEL_SPACE
  1

  0
ENDBLK
  5
21
330
1F
100
AcDbEntity
  8
0
100
AcDbBlockEnd
  0
BLOCK
  5
1C
330
1B
100
AcDbEntity
 67
     1
  8
0
100
AcDbBlockBegin
  2
*PAPER_SPACE
  1

  0
ENDBLK
  5
1D
330
1B
100
AcDbEntity
 67
     1
  8
0
100
AcDbBlockEnd
  0
ENDSEC
  0
SECTION
  2
ENTITIES
  0
SPLINE
  5
100
100
AcDbEntity
  8
0
 62
5
100
AcDbSpline
 70
8
 71
3
 72
8
 73
4
 74
0
 40
0
 40
0
 40
0
 40
0
 40
1
 40
1
 40
1
 40
1
 10
455.153730
 20
200.728537
 30
0.0
 10
455.153730
 20
201.005115
 30
0.0
 10
455.377109
 20
201.228424
 30
0.0
 10
455.652981
 20
201.228424
 30
0.0
  0
SPLINE
  5
101
100
AcDbEntity
  8
0
 62
5
100
AcDbSpline
 70
8
 71
3
 72
8
 73
4
 74
0
 40
0
 40
0
 40
0
 40
0
 40
1
 40
1
 40
1
 40
1
 10
491.652565
 20
201.228776
 30
0.0
 10
491.928438
 20
201.228776
 30
0.0
 10
492.152452
 20
201.452438
 30
0.0
 10
492.152452
 20
201.728310
 30
0.0
  0
SPLINE
  5
102
100
AcDbEntity
  8
0
 62
5
100
AcDbSpline
 70
8
 71
3
 72
8
 73
4
 74
0
 40
0
 40
0
 40
0
 40
0
 40
1
 40
1
 40
1
 40
1
 10
492.151746
 20
205.478340
 30
0.0
 10
492.151746
 20
205.754565
 30
0.0
 10
492.376113
 20
205.978579
 30
0.0
 10
492.651985
 20
205.978579
 30
0.0
  0
LWPOLYLINE
  5
103
100
AcDbEntity
  8
0
 62
5
100
AcDbPolyline
 90
2
 70
0
 10
455.652981
 20
201.228071
 30
0.0
 10
491.650801
 20
201.228071
 30
0.0
  0
SPLINE
  5
104
100
AcDbEntity
  8
0
 62
5
100
AcDbSpline
 70
8
 71
3
 72
8
 73
4
 74
0
 40
0
 40
0
 40
0
 40
0
 40
1
 40
1
 40
1
 40
1
 10
510.652130
 20
205.978579
 30
0.0
 10
510.928002
 20
205.978579
 30
0.0
 10
511.150958
 20
206.202593
 30
0.0
 10
511.150958
 20
206.478466
 30
0.0
  0
LWPOLYLINE
  5
105
100
AcDbEntity
  8
0
 62
5
100
AcDbPolyline
 90
2
 70
0
 10
492.152099
 20
201.728310
 30
0.0
 10
492.152099
 20
205.478340
 30
0.0
  0
SPLINE
  5
106
100
AcDbEntity
  8
0
 62
5
100
AcDbSpline
 70
8
 71
3
 72
8
 73
4
 74
0
 40
0
 40
0
 40
0
 40
0
 40
1
 40
1
 40
1
 40
1
 10
511.150958
 20
207.728358
 30
0.0
 10
511.150958
 20
208.004231
 30
0.0
 10
511.376030
 20
208.228245
 30
0.0
 10
511.651903
 20
208.228245
 30
0.0
  0
LWPOLYLINE
  5
107
100
AcDbEntity
  8
0
 62
5
100
AcDbPolyline
 90
2
 70
0
 10
492.651985
 20
205.977874
 30
0.0
 10
510.651072
 20
205.977874
 30
0.0
  0
SPLINE
  5
108
100
AcDbEntity
  8
0
 62
5
100
AcDbSpline
 70
8
 71
3
 72
8
 73
4
 74
0
 40
0
 40
0
 40
0
 40
0
 40
1
 40
1
 40
1
 40
1
 10
532.651013
 20
208.228597
 30
0.0
 10
532.926886
 20
208.228597
 30
0.0
 10
533.150900
 20
208.004231
 30
0.0
 10
533.150900
 20
207.728358
 30
0.0
  0
LWPOLYLINE
  5
109
100
AcDbEntity
  8
0
 62
5
100
AcDbPolyline
 90
2
 70
0
 10
511.150958
 20
206.478113
 30
0.0
 10
511.150958
 20
207.727653
 30
0.0
  0
SPLINE
  5
10a
100
AcDbEntity
  8
0
 62
5
100
AcDbSpline
 70
8
 71
3
 72
8
 73
4
 74
0
 40
0
 40
0
 40
0
 40
0
 40
1
 40
1
 40
1
 40
1
 10
533.150900
 20
206.478113
 30
0.0
 10
533.150900
 20
206.202241
 30
0.0
 10
533.374561
 20
205.978579
 30
0.0
 10
533.651139
 20
205.978579
 30
0.0
  0
LWPOLYLINE
  5
10b
100
AcDbEntity
  8
0
 62
5
100
AcDbPolyline
 90
2
 70
0
 10
511.650844
 20
208.227892
 30
0.0
 10
532.651013
 20
208.227892
 30
0.0
  0
SPLINE
  5
10c
100
AcDbEntity
  8
0
 62
5
100
AcDbSpline
 70
8
 71
3
 72
8
 73
4
 74
0
 40
0
 40
0
 40
0
 40
0
 40
1
 40
1
 40
1
 40
1
 10
551.649872
 20
205.978579
 30
0.0
 10
551.926450
 20
205.978579
 30
0.0
 10
552.150112
 20
205.754213
 30
0.0
 10
552.150112
 20
205.478340
 30
0.0
  0
LWPOLYLINE
  5
10d
100
AcDbEntity
  8
0
 62
5
100
AcDbPolyline
 90
2
 70
0
 10
533.150900
 20
207.727653
 30
0.0
 10
533.150900
 20
206.478113
 30
0.0
  0
SPLINE
  5
10e
100
AcDbEntity
  8
0
 62
5
100
AcDbSpline
 70
8
 71
3
 72
8
 73
4
 74
0
 40
0
 40
0
 40
0
 40
0
 40
1
 40
1
 40
1
 40
1
 10
552.150112
 20
203.978328
 30
0.0
 10
552.150112
 20
203.702456
 30
0.0
 10
552.373420
 20
203.478442
 30
0.0
 10
552.649998
 20
203.478442
 30
0.0
  0
LWPOLYLINE
  5
10f
100
AcDbEntity
  8
0
 62
5
100
AcDbPolyline
 90
2
 70
0
 10
533.651139
 20
205.977874
 30
0.0
 10
551.649872
 20
205.977874
 30
0.0
  0
SPLINE
  5
110
100
AcDbEntity
  8
0
 62
5
100
AcDbSpline
 70
8
 71
3
 72
8
 73
4
 74
0
 40
0
 40
0
 40
0
 40
0
 40
1
 40
1
 40
1
 40
1
 10
569.349097
 20
203.478794
 30
0.0
 10
569.625675
 20
203.478794
 30
0.0
 10
569.850042
 20
203.254075
 30
0.0
 10
569.850042
 20
202.978202
 30
0.0
  0
LWPOLYLINE
  5
111
100
AcDbEntity
  8
0
 62
5
100
AcDbPolyline
 90
2
 70
0
 10
552.150112
 20
205.478340
 30
0.0
 10
552.150112
 20
203.978328
 30
0.0
  0
LWPOLYLINE
  5
112
100
AcDbEntity
  8
0
 62
5
100
AcDbPolyline
 90
2
 70
0
 10
552.649998
 20
203.478089
 30
0.0
 10
569.349097
 20
203.478089
 30
0.0
  0
SPLINE
  5
113
100
AcDbEntity
  8
0
 62
5
100
AcDbSpline
 70
8
 71
3
 72
8
 73
4
 74
0
 40
0
 40
0
 40
0
 40
0
 40
1
 40
1
 40
1
 40
1
 10
549.569188
 20
186.229361
 30
0.0
 10
549.569893
 20
185.621878
 30
0.0
 10
550.061666
 20
185.129400
 30
0.0
 10
550.669150
 20
185.129400
 30
0.0
  0
SPLINE
  5
114
100
AcDbEntity
  8
0
 62
5
100
AcDbSpline
 70
8
 71
3
 72
8
 73
4
 74
0
 40
0
 40
0
 40
0
 40
0
 40
1
 40
1
 40
1
 40
1
 10
550.669150
 20
185.129400
 30
0.0
 10
551.276633
 20
185.129400
 30
0.0
 10
551.769817
 20
185.621878
 30
0.0
 10
551.769817
 20
186.229361
 30
0.0
  0
SPLINE
  5
115
100
AcDbEntity
  8
0
 62
5
100
AcDbSpline
 70
8
 71
3
 72
8
 73
4
 74
0
 40
0
 40
0
 40
0
 40
0
 40
1
 40
1
 40
1
 40
1
 10
551.769817
 20
186.229361
 30
0.0
 10
551.769817
 20
186.836845
 30
0.0
 10
551.276633
 20
187.329323
 30
0.0
 10
550.669150
 20
187.329323
 30
0.0
  0
SPLINE
  5
116
100
AcDbEntity
  8
0
 62
5
100
AcDbSpline
 70
8
 71
3
 72
8
 73
4
 74
0
 40
0
 40
0
 40
0
 40
0
 40
1
 40
1
 40
1
 40
1
 10
550.669150
 20
187.329323
 30
0.0
 10
550.061666
 20
187.329323
 30
0.0
 10
549.569893
 20
186.836845
 30
0.0
 10
549.569893
 20
186.229361
 30
0.0
  0
SPLINE
  5
117
100
AcDbEntity
  8
0
 62
5
100
AcDbSpline
 70
8
 71
3
 72
8
 73
4
 74
0
 40
0
 40
0
 40
0
 40
0
 40
1
 40
1
 40
1
 40
1
 10
473.555795
 20
182.607037
 30
0.0
 10
473.555795
 20
181.999553
 30
0.0
 10
474.048308
 20
181.507075
 30
0.0
 10
474.655756
 20
181.507075
 30
0.0
  0
SPLINE
  5
118
100
AcDbEntity
  8
0
 62
5
100
AcDbSpline
 70
8
 71
3
 72
8
 73
4
 74
0
 40
0
 40
0
 40
0
 40
0
 40
1
 40
1
 40
1
 40
1
 10
474.655756
 20
181.507075
 30
0.0
 10
475.263170
 20
181.507075
 30
0.0
 10
475.755683
 20
181.999553
 30
0.0
 10
475.755683
 20
182.607037
 30
0.0
  0
SPLINE
  5
119
100
AcDbEntity
  8
0
 62
5
100
AcDbSpline
 70
8
 71
3
 72
8
 73
4
 74
0
 40
0
 40
0
 40
0
 40
0
 40
1
 40
1
 40
1
 40
1
 10
475.755683
 20
182.607037
 30
0.0
 10
475.755683
 20
183.214521
 30
0.0
 10
475.263170
 20
183.706999
 30
0.0
 10
474.655756
 20
183.706999
 30
0.0
  0
SPLINE
  5
11a
100
AcDbEntity
  8
0
 62
5
100
AcDbSpline
 70
8
 71
3
 72
8
 73
4
 74
0
 40
0
 40
0
 40
0
 40
0
 40
1
 40
1
 40
1
 40
1
 10
474.655756
 20
183.706999
 30
0.0
 10
474.048308
 20
183.706999
 30
0.0
 10
473.555795
 20
183.214521
 30
0.0
 10
473.555795
 20
182.607037
 30
0.0
  0
SPLINE
  5
11b
100
AcDbEntity
  8
0
 62
5
100
AcDbSpline
 70
8
 71
3
 72
8
 73
4
 74
0
 40
0
 40
0
 40
0
 40
0
 40
1
 40
1
 40
1
 40
1
 10
550.751600
 20
124.845350
 30
0.0
 10
550.753600
 20
124.549720
 30
0.0
 10
550.802400
 20
123.913660
 30
0.0
 10
550.944920
 20
123.565470
 30
0.0
  0
SPLINE
  5
11c
100
AcDbEntity
  8
0
 62
5
100
AcDbSpline
 70
8
 71
3
 72
8
 73
4
 74
0
 40
0
 40
0
 40
0
 40
0
 40
1
 40
1
 40
1
 40
1
 10
550.944920
 20
123.565470
 30
0.0
 10
551.060280
 20
123.283950
 30
0.0
 10
551.206330
 20
123.192230
 30
0.0
 10
551.394010
 20
123.070870
 30
0.0
  0
SPLINE
  5
11d
100
AcDbEntity
  8
0
 62
5
100
AcDbSpline
 70
8
 71
3
 72
8
 73
4
 74
0
 40
0
 40
0
 40
0
 40
0
 40
1
 40
1
 40
1
 40
1
 10
551.394010
 20
123.070870
 30
0.0
 10
551.422610
 20
123.052570
 30
0.0
 10
551.452210
 20
123.033070
 30
0.0
 10
551.482510
 20
123.012670
 30
0.0
  0
LWPOLYLINE
  5
11e
100
AcDbEntity
  8
0
 62
5
100
AcDbPolyline
 90
4
 70
0
 10
569.850042
 20
202.977497
 30
0.0
 10
569.850042
 20
180.061391
 30
0.0
 10
455.153060
 20
180.061391
 30
0.0
 10
455.153060
 20
200.728890
 30
0.0
  0
SPLINE
  5
11f
100
AcDbEntity
  8
0
 62
5
100
AcDbSpline
 70
8
 71
3
 72
8
 73
4
 74
0
 40
0
 40
0
 40
0
 40
0
 40
1
 40
1
 40
1
 40
1
 10
568.757370
 20
112.923930
 30
0.0
 10
569.161660
 20
112.753890
 30
0.0
 10
569.627320
 20
112.943330
 30
0.0
 10
569.797360
 20
113.348320
 30
0.0
  0
SPLINE
  5
120
100
AcDbEntity
  8
0
 62
5
100
AcDbSpline
 70
8
 71
3
 72
8
 73
4
 74
0
 40
0
 40
0
 40
0
 40
0
 40
1
 40
1
 40
1
 40
1
 10
569.797360
 20
113.348320
 30
0.0
 10
569.822760
 20
113.407920
 30
0.0
 10
569.840360
 20
113.470380
 30
0.0
 10
569.850660
 20
113.534590
 30
0.0
  0
LWPOLYLINE
  5
121
100
AcDbEntity
  8
0
 62
5
100
AcDbPolyline
 90
2
 70
0
 10
550.751600
 20
172.499980
 30
0.0
 10
550.751600
 20
124.845350
 30
0.0
  0
SPLINE
  5
122
100
AcDbEntity
  8
0
 62
5
100
AcDbSpline
 70
8
 71
3
 72
8
 73
4
 74
0
 40
0
 40
0
 40
0
 40
0
 40
1
 40
1
 40
1
 40
1
 10
569.849930
 20
172.489040
 30
0.0
 10
569.849930
 20
172.765270
 30
0.0
 10
569.626620
 20
172.989280
 30
0.0
 10
569.350040
 20
172.989280
 30
0.0
  0
LWPOLYLINE
  5
123
100
AcDbEntity
  8
0
 62
5
100
AcDbPolyline
 90
2
 70
0
 10
551.482550
 20
123.012670
 30
0.0
 10
568.756320
 20
112.923570
 30
0.0
  0
SPLINE
  5
124
100
AcDbEntity
  8
0
 62
5
100
AcDbSpline
 70
8
 71
3
 72
8
 73
4
 74
0
 40
0
 40
0
 40
0
 40
0
 40
1
 40
1
 40
1
 40
1
 10
551.251480
 20
172.988930
 30
0.0
 10
550.975610
 20
172.988930
 30
0.0
 10
550.752660
 20
172.764560
 30
0.0
 10
550.752660
 20
172.488690
 30
0.0
  0
LWPOLYLINE
  5
125
100
AcDbEntity
  8
0
 62
5
100
AcDbPolyline
 90
2
 70
0
 10
569.849930
 20
113.533880
 30
0.0
 10
569.849930
 20
172.489040
 30
0.0
  0
SPLINE
  5
126
100
AcDbEntity
  8
0
 62
5
100
AcDbSpline
 70
8
 71
3
 72
8
 73
4
 74
0
 40
0
 40
0
 40
0
 40
0
 40
1
 40
1
 40
1
 40
1
 10
551.757720
 20
125.243630
 30
0.0
 10
551.757010
 20
124.636150
 30
0.0
 10
552.249490
 20
124.144380
 30
0.0
 10
552.856980
 20
124.144380
 30
0.0
  0
SPLINE
  5
127
100
AcDbEntity
  8
0
 62
5
100
AcDbSpline
 70
8
 71
3
 72
8
 73
4
 74
0
 40
0
 40
0
 40
0
 40
0
 40
1
 40
1
 40
1
 40
1
 10
552.856980
 20
124.144380
 30
0.0
 10
553.464460
 20
124.144380
 30
0.0
 10
553.957640
 20
124.636150
 30
0.0
 10
553.957640
 20
125.243630
 30
0.0
  0
SPLINE
  5
128
100
AcDbEntity
  8
0
 62
5
100
AcDbSpline
 70
8
 71
3
 72
8
 73
4
 74
0
 40
0
 40
0
 40
0
 40
0
 40
1
 40
1
 40
1
 40
1
 10
553.957640
 20
125.243630
 30
0.0
 10
553.957640
 20
125.851820
 30
0.0
 10
553.464460
 20
126.343590
 30
0.0
 10
552.856980
 20
126.343590
 30
0.0
  0
SPLINE
  5
129
100
AcDbEntity
  8
0
 62
5
100
AcDbSpline
 70
8
 71
3
 72
8
 73
4
 74
0
 40
0
 40
0
 40
0
 40
0
 40
1
 40
1
 40
1
 40
1
 10
552.856980
 20
126.343590
 30
0.0
 10
552.249490
 20
126.343590
 30
0.0
 10
551.757010
 20
125.851820
 30
0.0
 10
551.757010
 20
125.243630
 30
0.0
  0
SPLINE
  5
12a
100
AcDbEntity
  8
0
 62
5
100
AcDbSpline
 70
8
 71
3
 72
8
 73
4
 74
0
 40
0
 40
0
 40
0
 40
0
 40
1
 40
1
 40
1
 40
1
 10
566.256890
 20
116.743810
 30
0.0
 10
566.256890
 20
116.136670
 30
0.0
 10
566.748660
 20
115.644550
 30
0.0
 10
567.356140
 20
115.644550
 30
0.0
  0
SPLINE
  5
12b
100
AcDbEntity
  8
0
 62
5
100
AcDbSpline
 70
8
 71
3
 72
8
 73
4
 74
0
 40
0
 40
0
 40
0
 40
0
 40
1
 40
1
 40
1
 40
1
 10
567.356140
 20
115.644550
 30
0.0
 10
567.964330
 20
115.644550
 30
0.0
 10
568.456810
 20
116.136670
 30
0.0
 10
568.456810
 20
116.743810
 30
0.0
  0
SPLINE
  5
12c
100
AcDbEntity
  8
0
 62
5
100
AcDbSpline
 70
8
 71
3
 72
8
 73
4
 74
0
 40
0
 40
0
 40
0
 40
0
 40
1
 40
1
 40
1
 40
1
 10
568.456810
 20
116.743810
 30
0.0
 10
568.456810
 20
117.351290
 30
0.0
 10
567.964330
 20
117.844120
 30
0.0
 10
567.356140
 20
117.844120
 30
0.0
  0
SPLINE
  5
12d
100
AcDbEntity
  8
0
 62
5
100
AcDbSpline
 70
8
 71
3
 72
8
 73
4
 74
0
 40
0
 40
0
 40
0
 40
0
 40
1
 40
1
 40
1
 40
1
 10
567.356140
 20
117.844120
 30
0.0
 10
566.748660
 20
117.844120
 30
0.0
 10
566.256890
 20
117.351290
 30
0.0
 10
566.256890
 20
116.743810
 30
0.0
  0
SPLINE
  5
12e
100
AcDbEntity
  8
0
 62
5
100
AcDbSpline
 70
8
 71
3
 72
8
 73
4
 74
0
 40
0
 40
0
 40
0
 40
0
 40
1
 40
1
 40
1
 40
1
 10
348.609386
 20
146.006685
 30
0.0
 10
348.515195
 20
146.100524
 30
0.0
 10
348.388194
 20
146.153088
 30
0.0
 10
348.255550
 20
146.153088
 30
0.0
  0
SPLINE
  5
12f
100
AcDbEntity
  8
0
 62
5
100
AcDbSpline
 70
8
 71
3
 72
8
 73
4
 74
0
 40
0
 40
0
 40
0
 40
0
 40
1
 40
1
 40
1
 40
1
 10
292.256981
 20
146.153441
 30
0.0
 10
291.981109
 20
146.153441
 30
0.0
 10
291.757060
 20
146.377102
 30
0.0
 10
291.757060
 20
146.652975
 30
0.0
  0
LWPOLYLINE
  5
130
100
AcDbEntity
  8
0
 62
5
100
AcDbPolyline
 90
3
 70
0
 10
569.349340
 20
172.988580
 30
0.0
 10
553.259490
 20
172.988580
 30
0.0
 10
551.252540
 20
172.988580
 30
0.0
  0
SPLINE
  5
131
100
AcDbEntity
  8
0
 62
5
100
AcDbSpline
 70
8
 71
3
 72
8
 73
4
 74
0
 40
0
 40
0
 40
0
 40
0
 40
1
 40
1
 40
1
 40
1
 10
291.757730
 20
201.901537
 30
0.0
 10
291.757730
 20
202.178115
 30
0.0
 10
291.981109
 20
202.401424
 30
0.0
 10
292.256981
 20
202.401424
 30
0.0
  0
LWPOLYLINE
  5
132
100
AcDbEntity
  8
0
 62
5
100
AcDbPolyline
 90
2
 70
0
 10
348.276011
 20
146.152735
 30
0.0
 10
292.256981
 20
146.152735
 30
0.0
  0
SPLINE
  5
133
100
AcDbEntity
  8
0
 62
5
100
AcDbSpline
 70
8
 71
3
 72
8
 73
4
 74
0
 40
0
 40
0
 40
0
 40
0
 40
1
 40
1
 40
1
 40
1
 10
328.256565
 20
202.401776
 30
0.0
 10
328.532438
 20
202.401776
 30
0.0
 10
328.756452
 20
202.625438
 30
0.0
 10
328.756452
 20
202.901310
 30
0.0
  0
LWPOLYLINE
  5
134
100
AcDbEntity
  8
0
 62
5
100
AcDbPolyline
 90
2
 70
0
 10
291.757060
 20
146.653327
 30
0.0
 10
291.757060
 20
201.901890
 30
0.0
  0
SPLINE
  5
135
100
AcDbEntity
  8
0
 62
5
100
AcDbSpline
 70
8
 71
3
 72
8
 73
4
 74
0
 40
0
 40
0
 40
0
 40
0
 40
1
 40
1
 40
1
 40
1
 10
328.755746
 20
206.651340
 30
0.0
 10
328.755746
 20
206.927565
 30
0.0
 10
328.980113
 20
207.151579
 30
0.0
 10
329.255985
 20
207.151579
 30
0.0
  0
LWPOLYLINE
  5
136
100
AcDbEntity
  8
0
 62
5
100
AcDbPolyline
 90
2
 70
0
 10
292.256981
 20
202.401071
 30
0.0
 10
328.254801
 20
202.401071
 30
0.0
  0
SPLINE
  5
137
100
AcDbEntity
  8
0
 62
5
100
AcDbSpline
 70
8
 71
3
 72
8
 73
4
 74
0
 40
0
 40
0
 40
0
 40
0
 40
1
 40
1
 40
1
 40
1
 10
347.256130
 20
207.151579
 30
0.0
 10
347.532002
 20
207.151579
 30
0.0
 10
347.754958
 20
207.375593
 30
0.0
 10
347.754958
 20
207.651466
 30
0.0
  0
LWPOLYLINE
  5
138
100
AcDbEntity
  8
0
 62
5
100
AcDbPolyline
 90
2
 70
0
 10
328.756099
 20
202.901310
 30
0.0
 10
328.756099
 20
206.651340
 30
0.0
  0
SPLINE
  5
139
100
AcDbEntity
  8
0
 62
5
100
AcDbSpline
 70
8
 71
3
 72
8
 73
4
 74
0
 40
0
 40
0
 40
0
 40
0
 40
1
 40
1
 40
1
 40
1
 10
347.754958
 20
208.901358
 30
0.0
 10
347.754958
 20
209.177231
 30
0.0
 10
347.980030
 20
209.401245
 30
0.0
 10
348.255903
 20
209.401245
 30
0.0
  0
LWPOLYLINE
  5
13a
100
AcDbEntity
  8
0
 62
5
100
AcDbPolyline
 90
2
 70
0
 10
329.255985
 20
207.150874
 30
0.0
 10
347.255072
 20
207.150874
 30
0.0
  0
SPLINE
  5
13b
100
AcDbEntity
  8
0
 62
5
100
AcDbSpline
 70
8
 71
3
 72
8
 73
4
 74
0
 40
0
 40
0
 40
0
 40
0
 40
1
 40
1
 40
1
 40
1
 10
369.255013
 20
209.401597
 30
0.0
 10
369.530886
 20
209.401597
 30
0.0
 10
369.754900
 20
209.177231
 30
0.0
 10
369.754900
 20
208.901358
 30
0.0
  0
LWPOLYLINE
  5
13c
100
AcDbEntity
  8
0
 62
5
100
AcDbPolyline
 90
2
 70
0
 10
347.754958
 20
207.651113
 30
0.0
 10
347.754958
 20
208.900653
 30
0.0
  0
SPLINE
  5
13d
100
AcDbEntity
  8
0
 62
5
100
AcDbSpline
 70
8
 71
3
 72
8
 73
4
 74
0
 40
0
 40
0
 40
0
 40
0
 40
1
 40
1
 40
1
 40
1
 10
369.754900
 20
207.651113
 30
0.0
 10
369.754900
 20
207.375241
 30
0.0
 10
369.978561
 20
207.151579
 30
0.0
 10
370.255139
 20
207.151579
 30
0.0
  0
LWPOLYLINE
  5
13e
100
AcDbEntity
  8
0
 62
5
100
AcDbPolyline
 90
2
 70
0
 10
348.254844
 20
209.400892
 30
0.0
 10
369.255013
 20
209.400892
 30
0.0
  0
SPLINE
  5
13f
100
AcDbEntity
  8
0
 62
5
100
AcDbSpline
 70
8
 71
3
 72
8
 73
4
 74
0
 40
0
 40
0
 40
0
 40
0
 40
1
 40
1
 40
1
 40
1
 10
388.253872
 20
207.151579
 30
0.0
 10
388.530450
 20
207.151579
 30
0.0
 10
388.754112
 20
206.927213
 30
0.0
 10
388.754112
 20
206.651340
 30
0.0
  0
LWPOLYLINE
  5
140
100
AcDbEntity
  8
0
 62
5
100
AcDbPolyline
 90
2
 70
0
 10
369.754900
 20
208.900653
 30
0.0
 10
369.754900
 20
207.651113
 30
0.0
  0
SPLINE
  5
141
100
AcDbEntity
  8
0
 62
5
100
AcDbSpline
 70
8
 71
3
 72
8
 73
4
 74
0
 40
0
 40
0
 40
0
 40
0
 40
1
 40
1
 40
1
 40
1
 10
388.754112
 20
205.151328
 30
0.0
 10
388.754112
 20
204.875456
 30
0.0
 10
388.977420
 20
204.651442
 30
0.0
 10
389.253998
 20
204.651442
 30
0.0
  0
LWPOLYLINE
  5
142
100
AcDbEntity
  8
0
 62
5
100
AcDbPolyline
 90
2
 70
0
 10
370.255139
 20
207.150874
 30
0.0
 10
388.253872
 20
207.150874
 30
0.0
  0
SPLINE
  5
143
100
AcDbEntity
  8
0
 62
5
100
AcDbSpline
 70
8
 71
3
 72
8
 73
4
 74
0
 40
0
 40
0
 40
0
 40
0
 40
1
 40
1
 40
1
 40
1
 10
405.953097
 20
204.651794
 30
0.0
 10
406.229675
 20
204.651794
 30
0.0
 10
406.454042
 20
204.427075
 30
0.0
 10
406.454042
 20
204.151202
 30
0.0
  0
LWPOLYLINE
  5
144
100
AcDbEntity
  8
0
 62
5
100
AcDbPolyline
 90
2
 70
0
 10
388.754112
 20
206.651340
 30
0.0
 10
388.754112
 20
205.151328
 30
0.0
  0
SPLINE
  5
145
100
AcDbEntity
  8
0
 62
5
100
AcDbSpline
 70
8
 71
3
 72
8
 73
4
 74
0
 40
0
 40
0
 40
0
 40
0
 40
1
 40
1
 40
1
 40
1
 10
406.454042
 20
154.981710
 30
0.0
 10
406.455806
 20
154.714305
 30
0.0
 10
406.551056
 20
153.991815
 30
0.0
 10
406.729209
 20
153.706418
 30
0.0
  0
SPLINE
  5
146
100
AcDbEntity
  8
0
 62
5
100
AcDbSpline
 70
8
 71
3
 72
8
 73
4
 74
0
 40
0
 40
0
 40
0
 40
0
 40
1
 40
1
 40
1
 40
1
 10
406.729209
 20
153.706418
 30
0.0
 10
406.854798
 20
153.504982
 30
0.0
 10
407.337751
 20
152.944770
 30
0.0
 10
407.481684
 20
152.857634
 30
0.0
  0
LWPOLYLINE
  5
147
100
AcDbEntity
  8
0
 62
5
100
AcDbPolyline
 90
2
 70
0
 10
389.253998
 20
204.651089
 30
0.0
 10
405.953097
 20
204.651089
 30
0.0
  0
SPLINE
  5
148
100
AcDbEntity
  8
0
 62
5
100
AcDbSpline
 70
8
 71
3
 72
8
 73
4
 74
0
 40
0
 40
0
 40
0
 40
0
 40
1
 40
1
 40
1
 40
1
 10
425.406687
 20
142.342027
 30
0.0
 10
425.934443
 20
141.946563
 30
0.0
 10
426.096368
 20
141.225132
 30
0.0
 10
425.789804
 20
140.641285
 30
0.0
  0
LWPOLYLINE
  5
149
100
AcDbEntity
  8
0
 62
5
100
AcDbPolyline
 90
2
 70
0
 10
406.454042
 20
204.150497
 30
0.0
 10
406.454042
 20
154.981710
 30
0.0
  0
SPLINE
  5
14a
100
AcDbEntity
  8
0
 62
5
100
AcDbSpline
 70
8
 71
3
 72
8
 73
4
 74
0
 40
0
 40
0
 40
0
 40
0
 40
1
 40
1
 40
1
 40
1
 10
412.552868
 20
117.604529
 30
0.0
 10
412.287579
 20
117.203420
 30
0.0
 10
411.746065
 20
117.093000
 30
0.0
 10
411.344604
 20
117.360053
 30
0.0
  0
LWPOLYLINE
  5
14b
100
AcDbEntity
  8
0
 62
5
100
AcDbPolyline
 90
2
 70
0
 10
407.481684
 20
152.857634
 30
0.0
 10
425.406687
 20
142.342380
 30
0.0
  0
LWPOLYLINE
  5
14c
100
AcDbEntity
  8
0
 62
5
100
AcDbPolyline
 90
2
 70
0
 10
411.344604
 20
117.360053
 30
0.0
 10
411.323437
 20
117.373812
 30
0.0
  0
SPLINE
  5
14d
100
AcDbEntity
  8
0
 62
5
100
AcDbSpline
 70
8
 71
3
 72
8
 73
4
 74
0
 40
0
 40
0
 40
0
 40
0
 40
1
 40
1
 40
1
 40
1
 10
396.575553
 20
125.863062
 30
0.0
 10
396.484536
 20
125.895164
 30
0.0
 10
396.390344
 20
125.918800
 30
0.0
 10
396.295447
 20
125.935028
 30
0.0
  0
LWPOLYLINE
  5
14e
100
AcDbEntity
  8
0
 62
5
100
AcDbPolyline
 90
2
 70
0
 10
425.789099
 20
140.641285
 30
0.0
 10
412.552868
 20
117.604529
 30
0.0
  0
SPLINE
  5
14f
100
AcDbEntity
  8
0
 62
5
100
AcDbSpline
 70
8
 71
3
 72
8
 73
4
 74
0
 40
0
 40
0
 40
0
 40
0
 40
1
 40
1
 40
1
 40
1
 10
359.505288
 20
131.403440
 30
0.0
 10
359.375818
 20
131.416846
 30
0.0
 10
359.253757
 20
131.468704
 30
0.0
 10
359.154979
 20
131.553723
 30
0.0
  0
LWPOLYLINE
  5
150
100
AcDbEntity
  8
0
 62
5
100
AcDbPolyline
 90
2
 70
0
 10
411.323437
 20
117.373812
 30
0.0
 10
396.574847
 20
125.862003
 30
0.0
  0
LWPOLYLINE
  5
151
100
AcDbEntity
  8
0
 62
5
100
AcDbPolyline
 90
2
 70
0
 10
396.294741
 20
125.935028
 30
0.0
 10
359.504935
 20
131.403440
 30
0.0
  0
SPLINE
  5
152
100
AcDbEntity
  8
0
 62
5
100
AcDbSpline
 70
8
 71
3
 72
8
 73
4
 74
0
 40
0
 40
0
 40
0
 40
0
 40
1
 40
1
 40
1
 40
1
 10
386.173188
 20
187.402361
 30
0.0
 10
386.173893
 20
186.794878
 30
0.0
 10
386.665666
 20
186.302400
 30
0.0
 10
387.273150
 20
186.302400
 30
0.0
  0
SPLINE
  5
153
100
AcDbEntity
  8
0
 62
5
100
AcDbSpline
 70
8
 71
3
 72
8
 73
4
 74
0
 40
0
 40
0
 40
0
 40
0
 40
1
 40
1
 40
1
 40
1
 10
387.273150
 20
186.302400
 30
0.0
 10
387.880633
 20
186.302400
 30
0.0
 10
388.373817
 20
186.794878
 30
0.0
 10
388.373817
 20
187.402361
 30
0.0
  0
SPLINE
  5
154
100
AcDbEntity
  8
0
 62
5
100
AcDbSpline
 70
8
 71
3
 72
8
 73
4
 74
0
 40
0
 40
0
 40
0
 40
0
 40
1
 40
1
 40
1
 40
1
 10
388.373817
 20
187.402361
 30
0.0
 10
388.373817
 20
188.009845
 30
0.0
 10
387.880633
 20
188.502323
 30
0.0
 10
387.273150
 20
188.502323
 30
0.0
  0
SPLINE
  5
155
100
AcDbEntity
  8
0
 62
5
100
AcDbSpline
 70
8
 71
3
 72
8
 73
4
 74
0
 40
0
 40
0
 40
0
 40
0
 40
1
 40
1
 40
1
 40
1
 10
387.273150
 20
188.502323
 30
0.0
 10
386.665666
 20
188.502323
 30
0.0
 10
386.173893
 20
188.009845
 30
0.0
 10
386.173893
 20
187.402361
 30
0.0
  0
SPLINE
  5
156
100
AcDbEntity
  8
0
 62
5
100
AcDbSpline
 70
8
 71
3
 72
8
 73
4
 74
0
 40
0
 40
0
 40
0
 40
0
 40
1
 40
1
 40
1
 40
1
 10
310.159795
 20
183.780037
 30
0.0
 10
310.159795
 20
183.172553
 30
0.0
 10
310.652308
 20
182.680075
 30
0.0
 10
311.259756
 20
182.680075
 30
0.0
  0
SPLINE
  5
157
100
AcDbEntity
  8
0
 62
5
100
AcDbSpline
 70
8
 71
3
 72
8
 73
4
 74
0
 40
0
 40
0
 40
0
 40
0
 40
1
 40
1
 40
1
 40
1
 10
311.259756
 20
182.680075
 30
0.0
 10
311.867170
 20
182.680075
 30
0.0
 10
312.359683
 20
183.172553
 30
0.0
 10
312.359683
 20
183.780037
 30
0.0
  0
SPLINE
  5
158
100
AcDbEntity
  8
0
 62
5
100
AcDbSpline
 70
8
 71
3
 72
8
 73
4
 74
0
 40
0
 40
0
 40
0
 40
0
 40
1
 40
1
 40
1
 40
1
 10
312.359683
 20
183.780037
 30
0.0
 10
312.359683
 20
184.387521
 30
0.0
 10
311.867170
 20
184.879999
 30
0.0
 10
311.259756
 20
184.879999
 30
0.0
  0
SPLINE
  5
159
100
AcDbEntity
  8
0
 62
5
100
AcDbSpline
 70
8
 71
3
 72
8
 73
4
 74
0
 40
0
 40
0
 40
0
 40
0
 40
1
 40
1
 40
1
 40
1
 10
311.259756
 20
184.879999
 30
0.0
 10
310.652308
 20
184.879999
 30
0.0
 10
310.159795
 20
184.387521
 30
0.0
 10
310.159795
 20
183.780037
 30
0.0
  0
SPLINE
  5
15a
100
AcDbEntity
  8
0
 62
5
100
AcDbSpline
 70
8
 71
3
 72
8
 73
4
 74
0
 40
0
 40
0
 40
0
 40
0
 40
1
 40
1
 40
1
 40
1
 10
310.150975
 20
164.766361
 30
0.0
 10
310.150975
 20
164.159583
 30
0.0
 10
310.643488
 20
163.667105
 30
0.0
 10
311.250937
 20
163.667105
 30
0.0
  0
SPLINE
  5
15b
100
AcDbEntity
  8
0
 62
5
100
AcDbSpline
 70
8
 71
3
 72
8
 73
4
 74
0
 40
0
 40
0
 40
0
 40
0
 40
1
 40
1
 40
1
 40
1
 10
311.250937
 20
163.667105
 30
0.0
 10
311.858350
 20
163.667105
 30
0.0
 10
312.350863
 20
164.159583
 30
0.0
 10
312.350863
 20
164.766361
 30
0.0
  0
SPLINE
  5
15c
100
AcDbEntity
  8
0
 62
5
100
AcDbSpline
 70
8
 71
3
 72
8
 73
4
 74
0
 40
0
 40
0
 40
0
 40
0
 40
1
 40
1
 40
1
 40
1
 10
312.350863
 20
164.766361
 30
0.0
 10
312.350863
 20
165.374550
 30
0.0
 10
311.858350
 20
165.867028
 30
0.0
 10
311.250937
 20
165.867028
 30
0.0
  0
SPLINE
  5
15d
100
AcDbEntity
  8
0
 62
5
100
AcDbSpline
 70
8
 71
3
 72
8
 73
4
 74
0
 40
0
 40
0
 40
0
 40
0
 40
1
 40
1
 40
1
 40
1
 10
311.250937
 20
165.867028
 30
0.0
 10
310.643488
 20
165.867028
 30
0.0
 10
310.150975
 20
165.374550
 30
0.0
 10
310.150975
 20
164.766361
 30
0.0
  0
SPLINE
  5
15e
100
AcDbEntity
  8
0
 62
5
100
AcDbSpline
 70
8
 71
3
 72
8
 73
4
 74
0
 40
0
 40
0
 40
0
 40
0
 40
1
 40
1
 40
1
 40
1
 10
399.913891
 20
139.905037
 30
0.0
 10
399.913891
 20
139.297553
 30
0.0
 10
400.406369
 20
138.805428
 30
0.0
 10
401.013853
 20
138.805428
 30
0.0
  0
SPLINE
  5
15f
100
AcDbEntity
  8
0
 62
5
100
AcDbSpline
 70
8
 71
3
 72
8
 73
4
 74
0
 40
0
 40
0
 40
0
 40
0
 40
1
 40
1
 40
1
 40
1
 10
401.013853
 20
138.805428
 30
0.0
 10
401.621336
 20
138.805428
 30
0.0
 10
402.113814
 20
139.297553
 30
0.0
 10
402.113814
 20
139.905390
 30
0.0
  0
SPLINE
  5
160
100
AcDbEntity
  8
0
 62
5
100
AcDbSpline
 70
8
 71
3
 72
8
 73
4
 74
0
 40
0
 40
0
 40
0
 40
0
 40
1
 40
1
 40
1
 40
1
 10
402.113814
 20
139.905390
 30
0.0
 10
402.113814
 20
140.512874
 30
0.0
 10
401.621336
 20
141.004999
 30
0.0
 10
401.013853
 20
141.004999
 30
0.0
  0
SPLINE
  5
161
100
AcDbEntity
  8
0
 62
5
100
AcDbSpline
 70
8
 71
3
 72
8
 73
4
 74
0
 40
0
 40
0
 40
0
 40
0
 40
1
 40
1
 40
1
 40
1
 10
401.013853
 20
141.004999
 30
0.0
 10
400.406369
 20
141.004999
 30
0.0
 10
399.913891
 20
140.512874
 30
0.0
 10
399.913891
 20
139.905390
 30
0.0
  0
SPLINE
  5
162
100
AcDbEntity
  8
0
 62
5
100
AcDbSpline
 70
8
 71
3
 72
8
 73
4
 74
0
 40
0
 40
0
 40
0
 40
0
 40
1
 40
1
 40
1
 40
1
 10
353.398348
 20
147.659450
 30
0.0
 10
353.398348
 20
147.051261
 30
0.0
 10
353.890826
 20
146.559488
 30
0.0
 10
354.498309
 20
146.559488
 30
0.0
  0
SPLINE
  5
163
100
AcDbEntity
  8
0
 62
5
100
AcDbSpline
 70
8
 71
3
 72
8
 73
4
 74
0
 40
0
 40
0
 40
0
 40
0
 40
1
 40
1
 40
1
 40
1
 10
354.498309
 20
146.559488
 30
0.0
 10
355.105793
 20
146.559488
 30
0.0
 10
355.598271
 20
147.051261
 30
0.0
 10
355.598271
 20
147.658745
 30
0.0
  0
SPLINE
  5
164
100
AcDbEntity
  8
0
 62
5
100
AcDbSpline
 70
8
 71
3
 72
8
 73
4
 74
0
 40
0
 40
0
 40
0
 40
0
 40
1
 40
1
 40
1
 40
1
 10
355.598271
 20
147.658745
 30
0.0
 10
355.598271
 20
148.266228
 30
0.0
 10
355.105793
 20
148.758706
 30
0.0
 10
354.498309
 20
148.758706
 30
0.0
  0
SPLINE
  5
165
100
AcDbEntity
  8
0
 62
5
100
AcDbSpline
 70
8
 71
3
 72
8
 73
4
 74
0
 40
0
 40
0
 40
0
 40
0
 40
1
 40
1
 40
1
 40
1
 10
354.498309
 20
148.758706
 30
0.0
 10
353.890826
 20
148.758706
 30
0.0
 10
353.398348
 20
148.266228
 30
0.0
 10
353.398348
 20
147.658745
 30
0.0
  0
SPLINE
  5
166
100
AcDbEntity
  8
0
 62
5
100
AcDbSpline
 70
8
 71
3
 72
8
 73
4
 74
0
 40
0
 40
0
 40
0
 40
0
 40
1
 40
1
 40
1
 40
1
 10
57.003176
 20
147.030985
 30
0.0
 10
56.908985
 20
147.124824
 30
0.0
 10
56.781984
 20
147.177388
 30
0.0
 10
56.649340
 20
147.177388
 30
0.0
  0
SPLINE
  5
167
100
AcDbEntity
  8
0
 62
5
100
AcDbSpline
 70
8
 71
3
 72
8
 73
4
 74
0
 40
0
 40
0
 40
0
 40
0
 40
1
 40
1
 40
1
 40
1
 10
0.650771
 20
147.177741
 30
0.0
 10
0.374899
 20
147.177741
 30
0.0
 10
0.150850
 20
147.401402
 30
0.0
 10
0.150850
 20
147.677275
 30
0.0
  0
LWPOLYLINE
  5
168
100
AcDbEntity
  8
0
 62
5
100
AcDbPolyline
 90
3
 70
0
 10
359.154626
 20
131.553018
 30
0.0
 10
348.605153
 20
146.011271
 30
0.0
 10
348.608681
 20
146.007038
 30
0.0
  0
SPLINE
  5
169
100
AcDbEntity
  8
0
 62
5
100
AcDbSpline
 70
8
 71
3
 72
8
 73
4
 74
0
 40
0
 40
0
 40
0
 40
0
 40
1
 40
1
 40
1
 40
1
 10
0.151520
 20
202.925837
 30
0.0
 10
0.151520
 20
203.202415
 30
0.0
 10
0.374899
 20
203.425724
 30
0.0
 10
0.650771
 20
203.425724
 30
0.0
  0
LWPOLYLINE
  5
16a
100
AcDbEntity
  8
0
 62
5
100
AcDbPolyline
 90
2
 70
0
 10
56.669801
 20
147.177035
 30
0.0
 10
0.650771
 20
147.177035
 30
0.0
  0
SPLINE
  5
16b
100
AcDbEntity
  8
0
 62
5
100
AcDbSpline
 70
8
 71
3
 72
8
 73
4
 74
0
 40
0
 40
0
 40
0
 40
0
 40
1
 40
1
 40
1
 40
1
 10
36.650355
 20
203.426076
 30
0.0
 10
36.926228
 20
203.426076
 30
0.0
 10
37.150242
 20
203.649738
 30
0.0
 10
37.150242
 20
203.925610
 30
0.0
  0
LWPOLYLINE
  5
16c
100
AcDbEntity
  8
0
 62
5
100
AcDbPolyline
 90
2
 70
0
 10
0.150850
 20
147.677627
 30
0.0
 10
0.150850
 20
202.926190
 30
0.0
  0
SPLINE
  5
16d
100
AcDbEntity
  8
0
 62
5
100
AcDbSpline
 70
8
 71
3
 72
8
 73
4
 74
0
 40
0
 40
0
 40
0
 40
0
 40
1
 40
1
 40
1
 40
1
 10
37.149536
 20
207.675640
 30
0.0
 10
37.149536
 20
207.951865
 30
0.0
 10
37.373903
 20
208.175879
 30
0.0
 10
37.649775
 20
208.175879
 30
0.0
  0
LWPOLYLINE
  5
16e
100
AcDbEntity
  8
0
 62
5
100
AcDbPolyline
 90
2
 70
0
 10
0.650771
 20
203.425371
 30
0.0
 10
36.648591
 20
203.425371
 30
0.0
  0
SPLINE
  5
16f
100
AcDbEntity
  8
0
 62
5
100
AcDbSpline
 70
8
 71
3
 72
8
 73
4
 74
0
 40
0
 40
0
 40
0
 40
0
 40
1
 40
1
 40
1
 40
1
 10
55.649920
 20
208.175879
 30
0.0
 10
55.925792
 20
208.175879
 30
0.0
 10
56.148748
 20
208.399893
 30
0.0
 10
56.148748
 20
208.675766
 30
0.0
  0
LWPOLYLINE
  5
170
100
AcDbEntity
  8
0
 62
5
100
AcDbPolyline
 90
2
 70
0
 10
37.149889
 20
203.925610
 30
0.0
 10
37.149889
 20
207.675640
 30
0.0
  0
SPLINE
  5
171
100
AcDbEntity
  8
0
 62
5
100
AcDbSpline
 70
8
 71
3
 72
8
 73
4
 74
0
 40
0
 40
0
 40
0
 40
0
 40
1
 40
1
 40
1
 40
1
 10
56.148748
 20
209.925658
 30
0.0
 10
56.148748
 20
210.201531
 30
0.0
 10
56.373820
 20
210.425545
 30
0.0
 10
56.649693
 20
210.425545
 30
0.0
  0
LWPOLYLINE
  5
172
100
AcDbEntity
  8
0
 62
5
100
AcDbPolyline
 90
2
 70
0
 10
37.649775
 20
208.175174
 30
0.0
 10
55.648862
 20
208.175174
 30
0.0
  0
SPLINE
  5
173
100
AcDbEntity
  8
0
 62
5
100
AcDbSpline
 70
8
 71
3
 72
8
 73
4
 74
0
 40
0
 40
0
 40
0
 40
0
 40
1
 40
1
 40
1
 40
1
 10
77.648803
 20
210.425897
 30
0.0
 10
77.924676
 20
210.425897
 30
0.0
 10
78.148690
 20
210.201531
 30
0.0
 10
78.148690
 20
209.925658
 30
0.0
  0
LWPOLYLINE
  5
174
100
AcDbEntity
  8
0
 62
5
100
AcDbPolyline
 90
2
 70
0
 10
56.148748
 20
208.675413
 30
0.0
 10
56.148748
 20
209.924953
 30
0.0
  0
SPLINE
  5
175
100
AcDbEntity
  8
0
 62
5
100
AcDbSpline
 70
8
 71
3
 72
8
 73
4
 74
0
 40
0
 40
0
 40
0
 40
0
 40
1
 40
1
 40
1
 40
1
 10
78.148690
 20
208.675413
 30
0.0
 10
78.148690
 20
208.399541
 30
0.0
 10
78.372351
 20
208.175879
 30
0.0
 10
78.648929
 20
208.175879
 30
0.0
  0
LWPOLYLINE
  5
176
100
AcDbEntity
  8
0
 62
5
100
AcDbPolyline
 90
2
 70
0
 10
56.648634
 20
210.425192
 30
0.0
 10
77.648803
 20
210.425192
 30
0.0
  0
SPLINE
  5
177
100
AcDbEntity
  8
0
 62
5
100
AcDbSpline
 70
8
 71
3
 72
8
 73
4
 74
0
 40
0
 40
0
 40
0
 40
0
 40
1
 40
1
 40
1
 40
1
 10
96.647662
 20
208.175879
 30
0.0
 10
96.924240
 20
208.175879
 30
0.0
 10
97.147902
 20
207.951513
 30
0.0
 10
97.147902
 20
207.675640
 30
0.0
  0
LWPOLYLINE
  5
178
100
AcDbEntity
  8
0
 62
5
100
AcDbPolyline
 90
2
 70
0
 10
78.148690
 20
209.924953
 30
0.0
 10
78.148690
 20
208.675413
 30
0.0
  0
SPLINE
  5
179
100
AcDbEntity
  8
0
 62
5
100
AcDbSpline
 70
8
 71
3
 72
8
 73
4
 74
0
 40
0
 40
0
 40
0
 40
0
 40
1
 40
1
 40
1
 40
1
 10
97.147902
 20
206.175628
 30
0.0
 10
97.147902
 20
205.899756
 30
0.0
 10
97.371210
 20
205.675742
 30
0.0
 10
97.647788
 20
205.675742
 30
0.0
  0
LWPOLYLINE
  5
17a
100
AcDbEntity
  8
0
 62
5
100
AcDbPolyline
 90
2
 70
0
 10
78.648929
 20
208.175174
 30
0.0
 10
96.647662
 20
208.175174
 30
0.0
  0
SPLINE
  5
17b
100
AcDbEntity
  8
0
 62
5
100
AcDbSpline
 70
8
 71
3
 72
8
 73
4
 74
0
 40
0
 40
0
 40
0
 40
0
 40
1
 40
1
 40
1
 40
1
 10
114.346887
 20
205.676094
 30
0.0
 10
114.623465
 20
205.676094
 30
0.0
 10
114.847832
 20
205.451375
 30
0.0
 10
114.847832
 20
205.175502
 30
0.0
  0
LWPOLYLINE
  5
17c
100
AcDbEntity
  8
0
 62
5
100
AcDbPolyline
 90
2
 70
0
 10
97.147902
 20
207.675640
 30
0.0
 10
97.147902
 20
206.175628
 30
0.0
  0
SPLINE
  5
17d
100
AcDbEntity
  8
0
 62
5
100
AcDbSpline
 70
8
 71
3
 72
8
 73
4
 74
0
 40
0
 40
0
 40
0
 40
0
 40
1
 40
1
 40
1
 40
1
 10
114.847832
 20
156.006010
 30
0.0
 10
114.849596
 20
155.738605
 30
0.0
 10
114.944846
 20
155.016115
 30
0.0
 10
115.122999
 20
154.730718
 30
0.0
  0
SPLINE
  5
17e
100
AcDbEntity
  8
0
 62
5
100
AcDbSpline
 70
8
 71
3
 72
8
 73
4
 74
0
 40
0
 40
0
 40
0
 40
0
 40
1
 40
1
 40
1
 40
1
 10
115.122999
 20
154.730718
 30
0.0
 10
115.248588
 20
154.529282
 30
0.0
 10
115.731541
 20
153.969070
 30
0.0
 10
115.875474
 20
153.881934
 30
0.0
  0
LWPOLYLINE
  5
17f
100
AcDbEntity
  8
0
 62
5
100
AcDbPolyline
 90
2
 70
0
 10
97.647788
 20
205.675389
 30
0.0
 10
114.346887
 20
205.675389
 30
0.0
  0
SPLINE
  5
180
100
AcDbEntity
  8
0
 62
5
100
AcDbSpline
 70
8
 71
3
 72
8
 73
4
 74
0
 40
0
 40
0
 40
0
 40
0
 40
1
 40
1
 40
1
 40
1
 10
133.800477
 20
143.366327
 30
0.0
 10
134.328233
 20
142.970863
 30
0.0
 10
134.490158
 20
142.249432
 30
0.0
 10
134.183594
 20
141.665585
 30
0.0
  0
LWPOLYLINE
  5
181
100
AcDbEntity
  8
0
 62
5
100
AcDbPolyline
 90
2
 70
0
 10
114.847832
 20
205.174797
 30
0.0
 10
114.847832
 20
156.006010
 30
0.0
  0
SPLINE
  5
182
100
AcDbEntity
  8
0
 62
5
100
AcDbSpline
 70
8
 71
3
 72
8
 73
4
 74
0
 40
0
 40
0
 40
0
 40
0
 40
1
 40
1
 40
1
 40
1
 10
120.946658
 20
118.628829
 30
0.0
 10
120.681369
 20
118.227720
 30
0.0
 10
120.139855
 20
118.117300
 30
0.0
 10
119.738394
 20
118.384353
 30
0.0
  0
LWPOLYLINE
  5
183
100
AcDbEntity
  8
0
 62
5
100
AcDbPolyline
 90
2
 70
0
 10
115.875474
 20
153.881934
 30
0.0
 10
133.800477
 20
143.366680
 30
0.0
  0
LWPOLYLINE
  5
184
100
AcDbEntity
  8
0
 62
5
100
AcDbPolyline
 90
2
 70
0
 10
119.738394
 20
118.384353
 30
0.0
 10
119.717227
 20
118.398112
 30
0.0
  0
SPLINE
  5
185
100
AcDbEntity
  8
0
 62
5
100
AcDbSpline
 70
8
 71
3
 72
8
 73
4
 74
0
 40
0
 40
0
 40
0
 40
0
 40
1
 40
1
 40
1
 40
1
 10
104.969343
 20
126.887362
 30
0.0
 10
104.878326
 20
126.919464
 30
0.0
 10
104.784134
 20
126.943100
 30
0.0
 10
104.689237
 20
126.959328
 30
0.0
  0
LWPOLYLINE
  5
186
100
AcDbEntity
  8
0
 62
5
100
AcDbPolyline
 90
2
 70
0
 10
134.182889
 20
141.665585
 30
0.0
 10
120.946658
 20
118.628829
 30
0.0
  0
SPLINE
  5
187
100
AcDbEntity
  8
0
 62
5
100
AcDbSpline
 70
8
 71
3
 72
8
 73
4
 74
0
 40
0
 40
0
 40
0
 40
0
 40
1
 40
1
 40
1
 40
1
 10
67.899078
 20
132.427740
 30
0.0
 10
67.769608
 20
132.441146
 30
0.0
 10
67.647547
 20
132.493004
 30
0.0
 10
67.548769
 20
132.578023
 30
0.0
  0
LWPOLYLINE
  5
188
100
AcDbEntity
  8
0
 62
5
100
AcDbPolyline
 90
2
 70
0
 10
119.717227
 20
118.398112
 30
0.0
 10
104.968637
 20
126.886303
 30
0.0
  0
LWPOLYLINE
  5
189
100
AcDbEntity
  8
0
 62
5
100
AcDbPolyline
 90
2
 70
0
 10
104.688531
 20
126.959328
 30
0.0
 10
67.898725
 20
132.427740
 30
0.0
  0
SPLINE
  5
18a
100
AcDbEntity
  8
0
 62
5
100
AcDbSpline
 70
8
 71
3
 72
8
 73
4
 74
0
 40
0
 40
0
 40
0
 40
0
 40
1
 40
1
 40
1
 40
1
 10
94.566978
 20
188.426661
 30
0.0
 10
94.567683
 20
187.819178
 30
0.0
 10
95.059456
 20
187.326700
 30
0.0
 10
95.666940
 20
187.326700
 30
0.0
  0
SPLINE
  5
18b
100
AcDbEntity
  8
0
 62
5
100
AcDbSpline
 70
8
 71
3
 72
8
 73
4
 74
0
 40
0
 40
0
 40
0
 40
0
 40
1
 40
1
 40
1
 40
1
 10
95.666940
 20
187.326700
 30
0.0
 10
96.274423
 20
187.326700
 30
0.0
 10
96.767607
 20
187.819178
 30
0.0
 10
96.767607
 20
188.426661
 30
0.0
  0
SPLINE
  5
18c
100
AcDbEntity
  8
0
 62
5
100
AcDbSpline
 70
8
 71
3
 72
8
 73
4
 74
0
 40
0
 40
0
 40
0
 40
0
 40
1
 40
1
 40
1
 40
1
 10
96.767607
 20
188.426661
 30
0.0
 10
96.767607
 20
189.034145
 30
0.0
 10
96.274423
 20
189.526623
 30
0.0
 10
95.666940
 20
189.526623
 30
0.0
  0
SPLINE
  5
18d
100
AcDbEntity
  8
0
 62
5
100
AcDbSpline
 70
8
 71
3
 72
8
 73
4
 74
0
 40
0
 40
0
 40
0
 40
0
 40
1
 40
1
 40
1
 40
1
 10
95.666940
 20
189.526623
 30
0.0
 10
95.059456
 20
189.526623
 30
0.0
 10
94.567683
 20
189.034145
 30
0.0
 10
94.567683
 20
188.426661
 30
0.0
  0
SPLINE
  5
18e
100
AcDbEntity
  8
0
 62
5
100
AcDbSpline
 70
8
 71
3
 72
8
 73
4
 74
0
 40
0
 40
0
 40
0
 40
0
 40
1
 40
1
 40
1
 40
1
 10
18.553585
 20
184.804337
 30
0.0
 10
18.553585
 20
184.196853
 30
0.0
 10
19.046098
 20
183.704375
 30
0.0
 10
19.653546
 20
183.704375
 30
0.0
  0
SPLINE
  5
18f
100
AcDbEntity
  8
0
 62
5
100
AcDbSpline
 70
8
 71
3
 72
8
 73
4
 74
0
 40
0
 40
0
 40
0
 40
0
 40
1
 40
1
 40
1
 40
1
 10
19.653546
 20
183.704375
 30
0.0
 10
20.260960
 20
183.704375
 30
0.0
 10
20.753473
 20
184.196853
 30
0.0
 10
20.753473
 20
184.804337
 30
0.0
  0
SPLINE
  5
190
100
AcDbEntity
  8
0
 62
5
100
AcDbSpline
 70
8
 71
3
 72
8
 73
4
 74
0
 40
0
 40
0
 40
0
 40
0
 40
1
 40
1
 40
1
 40
1
 10
20.753473
 20
184.804337
 30
0.0
 10
20.753473
 20
185.411821
 30
0.0
 10
20.260960
 20
185.904299
 30
0.0
 10
19.653546
 20
185.904299
 30
0.0
  0
SPLINE
  5
191
100
AcDbEntity
  8
0
 62
5
100
AcDbSpline
 70
8
 71
3
 72
8
 73
4
 74
0
 40
0
 40
0
 40
0
 40
0
 40
1
 40
1
 40
1
 40
1
 10
19.653546
 20
185.904299
 30
0.0
 10
19.046098
 20
185.904299
 30
0.0
 10
18.553585
 20
185.411821
 30
0.0
 10
18.553585
 20
184.804337
 30
0.0
  0
SPLINE
  5
192
100
AcDbEntity
  8
0
 62
5
100
AcDbSpline
 70
8
 71
3
 72
8
 73
4
 74
0
 40
0
 40
0
 40
0
 40
0
 40
1
 40
1
 40
1
 40
1
 10
18.544765
 20
165.790661
 30
0.0
 10
18.544765
 20
165.183883
 30
0.0
 10
19.037278
 20
164.691405
 30
0.0
 10
19.644727
 20
164.691405
 30
0.0
  0
SPLINE
  5
193
100
AcDbEntity
  8
0
 62
5
100
AcDbSpline
 70
8
 71
3
 72
8
 73
4
 74
0
 40
0
 40
0
 40
0
 40
0
 40
1
 40
1
 40
1
 40
1
 10
19.644727
 20
164.691405
 30
0.0
 10
20.252140
 20
164.691405
 30
0.0
 10
20.744653
 20
165.183883
 30
0.0
 10
20.744653
 20
165.790661
 30
0.0
  0
SPLINE
  5
194
100
AcDbEntity
  8
0
 62
5
100
AcDbSpline
 70
8
 71
3
 72
8
 73
4
 74
0
 40
0
 40
0
 40
0
 40
0
 40
1
 40
1
 40
1
 40
1
 10
20.744653
 20
165.790661
 30
0.0
 10
20.744653
 20
166.398850
 30
0.0
 10
20.252140
 20
166.891328
 30
0.0
 10
19.644727
 20
166.891328
 30
0.0
  0
SPLINE
  5
195
100
AcDbEntity
  8
0
 62
5
100
AcDbSpline
 70
8
 71
3
 72
8
 73
4
 74
0
 40
0
 40
0
 40
0
 40
0
 40
1
 40
1
 40
1
 40
1
 10
19.644727
 20
166.891328
 30
0.0
 10
19.037278
 20
166.891328
 30
0.0
 10
18.544765
 20
166.398850
 30
0.0
 10
18.544765
 20
165.790661
 30
0.0
  0
SPLINE
  5
196
100
AcDbEntity
  8
0
 62
5
100
AcDbSpline
 70
8
 71
3
 72
8
 73
4
 74
0
 40
0
 40
0
 40
0
 40
0
 40
1
 40
1
 40
1
 40
1
 10
108.307681
 20
140.929337
 30
0.0
 10
108.307681
 20
140.321853
 30
0.0
 10
108.800159
 20
139.829728
 30
0.0
 10
109.407643
 20
139.829728
 30
0.0
  0
SPLINE
  5
197
100
AcDbEntity
  8
0
 62
5
100
AcDbSpline
 70
8
 71
3
 72
8
 73
4
 74
0
 40
0
 40
0
 40
0
 40
0
 40
1
 40
1
 40
1
 40
1
 10
109.407643
 20
139.829728
 30
0.0
 10
110.015126
 20
139.829728
 30
0.0
 10
110.507604
 20
140.321853
 30
0.0
 10
110.507604
 20
140.929690
 30
0.0
  0
SPLINE
  5
198
100
AcDbEntity
  8
0
 62
5
100
AcDbSpline
 70
8
 71
3
 72
8
 73
4
 74
0
 40
0
 40
0
 40
0
 40
0
 40
1
 40
1
 40
1
 40
1
 10
110.507604
 20
140.929690
 30
0.0
 10
110.507604
 20
141.537174
 30
0.0
 10
110.015126
 20
142.029299
 30
0.0
 10
109.407643
 20
142.029299
 30
0.0
  0
SPLINE
  5
199
100
AcDbEntity
  8
0
 62
5
100
AcDbSpline
 70
8
 71
3
 72
8
 73
4
 74
0
 40
0
 40
0
 40
0
 40
0
 40
1
 40
1
 40
1
 40
1
 10
109.407643
 20
142.029299
 30
0.0
 10
108.800159
 20
142.029299
 30
0.0
 10
108.307681
 20
141.537174
 30
0.0
 10
108.307681
 20
140.929690
 30
0.0
  0
SPLINE
  5
19a
100
AcDbEntity
  8
0
 62
5
100
AcDbSpline
 70
8
 71
3
 72
8
 73
4
 74
0
 40
0
 40
0
 40
0
 40
0
 40
1
 40
1
 40
1
 40
1
 10
61.792138
 20
148.683750
 30
0.0
 10
61.792138
 20
148.075561
 30
0.0
 10
62.284616
 20
147.583788
 30
0.0
 10
62.892099
 20
147.583788
 30
0.0
  0
SPLINE
  5
19b
100
AcDbEntity
  8
0
 62
5
100
AcDbSpline
 70
8
 71
3
 72
8
 73
4
 74
0
 40
0
 40
0
 40
0
 40
0
 40
1
 40
1
 40
1
 40
1
 10
62.892099
 20
147.583788
 30
0.0
 10
63.499583
 20
147.583788
 30
0.0
 10
63.992061
 20
148.075561
 30
0.0
 10
63.992061
 20
148.683045
 30
0.0
  0
SPLINE
  5
19c
100
AcDbEntity
  8
0
 62
5
100
AcDbSpline
 70
8
 71
3
 72
8
 73
4
 74
0
 40
0
 40
0
 40
0
 40
0
 40
1
 40
1
 40
1
 40
1
 10
63.992061
 20
148.683045
 30
0.0
 10
63.992061
 20
149.290528
 30
0.0
 10
63.499583
 20
149.783006
 30
0.0
 10
62.892099
 20
149.783006
 30
0.0
  0
SPLINE
  5
19d
100
AcDbEntity
  8
0
 62
5
100
AcDbSpline
 70
8
 71
3
 72
8
 73
4
 74
0
 40
0
 40
0
 40
0
 40
0
 40
1
 40
1
 40
1
 40
1
 10
62.892099
 20
149.783006
 30
0.0
 10
62.284616
 20
149.783006
 30
0.0
 10
61.792138
 20
149.290528
 30
0.0
 10
61.792138
 20
148.683045
 30
0.0
  0
SPLINE
  5
19e
100
AcDbEntity
  8
0
 62
5
100
AcDbSpline
 70
8
 71
3
 72
8
 73
4
 74
0
 40
0
 40
0
 40
0
 40
0
 40
1
 40
1
 40
1
 40
1
 10
202.153386
 20
146.953685
 30
0.0
 10
202.059195
 20
147.047524
 30
0.0
 10
201.932194
 20
147.100088
 30
0.0
 10
201.799550
 20
147.100088
 30
0.0
  0
SPLINE
  5
19f
100
AcDbEntity
  8
0
 62
5
100
AcDbSpline
 70
8
 71
3
 72
8
 73
4
 74
0
 40
0
 40
0
 40
0
 40
0
 40
1
 40
1
 40
1
 40
1
 10
145.800981
 20
147.100441
 30
0.0
 10
145.525109
 20
147.100441
 30
0.0
 10
145.301060
 20
147.324102
 30
0.0
 10
145.301060
 20
147.599975
 30
0.0
  0
LWPOLYLINE
  5
1a0
100
AcDbEntity
  8
0
 62
5
100
AcDbPolyline
 90
3
 70
0
 10
67.548416
 20
132.577318
 30
0.0
 10
56.998943
 20
147.035571
 30
0.0
 10
57.002471
 20
147.031338
 30
0.0
  0
SPLINE
  5
1a1
100
AcDbEntity
  8
0
 62
5
100
AcDbSpline
 70
8
 71
3
 72
8
 73
4
 74
0
 40
0
 40
0
 40
0
 40
0
 40
1
 40
1
 40
1
 40
1
 10
145.301730
 20
202.848537
 30
0.0
 10
145.301730
 20
203.125115
 30
0.0
 10
145.525109
 20
203.348424
 30
0.0
 10
145.800981
 20
203.348424
 30
0.0
  0
LWPOLYLINE
  5
1a2
100
AcDbEntity
  8
0
 62
5
100
AcDbPolyline
 90
2
 70
0
 10
201.820011
 20
147.099735
 30
0.0
 10
145.800981
 20
147.099735
 30
0.0
  0
SPLINE
  5
1a3
100
AcDbEntity
  8
0
 62
5
100
AcDbSpline
 70
8
 71
3
 72
8
 73
4
 74
0
 40
0
 40
0
 40
0
 40
0
 40
1
 40
1
 40
1
 40
1
 10
181.800565
 20
203.348776
 30
0.0
 10
182.076438
 20
203.348776
 30
0.0
 10
182.300452
 20
203.572438
 30
0.0
 10
182.300452
 20
203.848310
 30
0.0
  0
LWPOLYLINE
  5
1a4
100
AcDbEntity
  8
0
 62
5
100
AcDbPolyline
 90
2
 70
0
 10
145.301060
 20
147.600327
 30
0.0
 10
145.301060
 20
202.848890
 30
0.0
  0
SPLINE
  5
1a5
100
AcDbEntity
  8
0
 62
5
100
AcDbSpline
 70
8
 71
3
 72
8
 73
4
 74
0
 40
0
 40
0
 40
0
 40
0
 40
1
 40
1
 40
1
 40
1
 10
182.299746
 20
207.598340
 30
0.0
 10
182.299746
 20
207.874565
 30
0.0
 10
182.524113
 20
208.098579
 30
0.0
 10
182.799985
 20
208.098579
 30
0.0
  0
LWPOLYLINE
  5
1a6
100
AcDbEntity
  8
0
 62
5
100
AcDbPolyline
 90
2
 70
0
 10
145.800981
 20
203.348071
 30
0.0
 10
181.798801
 20
203.348071
 30
0.0
  0
SPLINE
  5
1a7
100
AcDbEntity
  8
0
 62
5
100
AcDbSpline
 70
8
 71
3
 72
8
 73
4
 74
0
 40
0
 40
0
 40
0
 40
0
 40
1
 40
1
 40
1
 40
1
 10
200.800130
 20
208.098579
 30
0.0
 10
201.076002
 20
208.098579
 30
0.0
 10
201.298958
 20
208.322593
 30
0.0
 10
201.298958
 20
208.598466
 30
0.0
  0
LWPOLYLINE
  5
1a8
100
AcDbEntity
  8
0
 62
5
100
AcDbPolyline
 90
2
 70
0
 10
182.300099
 20
203.848310
 30
0.0
 10
182.300099
 20
207.598340
 30
0.0
  0
SPLINE
  5
1a9
100
AcDbEntity
  8
0
 62
5
100
AcDbSpline
 70
8
 71
3
 72
8
 73
4
 74
0
 40
0
 40
0
 40
0
 40
0
 40
1
 40
1
 40
1
 40
1
 10
201.298958
 20
209.848358
 30
0.0
 10
201.298958
 20
210.124231
 30
0.0
 10
201.524030
 20
210.348245
 30
0.0
 10
201.799903
 20
210.348245
 30
0.0
  0
LWPOLYLINE
  5
1aa
100
AcDbEntity
  8
0
 62
5
100
AcDbPolyline
 90
2
 70
0
 10
182.799985
 20
208.097874
 30
0.0
 10
200.799072
 20
208.097874
 30
0.0
  0
SPLINE
  5
1ab
100
AcDbEntity
  8
0
 62
5
100
AcDbSpline
 70
8
 71
3
 72
8
 73
4
 74
0
 40
0
 40
0
 40
0
 40
0
 40
1
 40
1
 40
1
 40
1
 10
222.799013
 20
210.348597
 30
0.0
 10
223.074886
 20
210.348597
 30
0.0
 10
223.298900
 20
210.124231
 30
0.0
 10
223.298900
 20
209.848358
 30
0.0
  0
LWPOLYLINE
  5
1ac
100
AcDbEntity
  8
0
 62
5
100
AcDbPolyline
 90
2
 70
0
 10
201.298958
 20
208.598113
 30
0.0
 10
201.298958
 20
209.847653
 30
0.0
  0
SPLINE
  5
1ad
100
AcDbEntity
  8
0
 62
5
100
AcDbSpline
 70
8
 71
3
 72
8
 73
4
 74
0
 40
0
 40
0
 40
0
 40
0
 40
1
 40
1
 40
1
 40
1
 10
223.298900
 20
208.598113
 30
0.0
 10
223.298900
 20
208.322241
 30
0.0
 10
223.522561
 20
208.098579
 30
0.0
 10
223.799139
 20
208.098579
 30
0.0
  0
LWPOLYLINE
  5
1ae
100
AcDbEntity
  8
0
 62
5
100
AcDbPolyline
 90
2
 70
0
 10
201.798844
 20
210.347892
 30
0.0
 10
222.799013
 20
210.347892
 30
0.0
  0
SPLINE
  5
1af
100
AcDbEntity
  8
0
 62
5
100
AcDbSpline
 70
8
 71
3
 72
8
 73
4
 74
0
 40
0
 40
0
 40
0
 40
0
 40
1
 40
1
 40
1
 40
1
 10
241.797872
 20
208.098579
 30
0.0
 10
242.074450
 20
208.098579
 30
0.0
 10
242.298112
 20
207.874213
 30
0.0
 10
242.298112
 20
207.598340
 30
0.0
  0
LWPOLYLINE
  5
1b0
100
AcDbEntity
  8
0
 62
5
100
AcDbPolyline
 90
2
 70
0
 10
223.298900
 20
209.847653
 30
0.0
 10
223.298900
 20
208.598113
 30
0.0
  0
SPLINE
  5
1b1
100
AcDbEntity
  8
0
 62
5
100
AcDbSpline
 70
8
 71
3
 72
8
 73
4
 74
0
 40
0
 40
0
 40
0
 40
0
 40
1
 40
1
 40
1
 40
1
 10
242.298112
 20
206.098328
 30
0.0
 10
242.298112
 20
205.822456
 30
0.0
 10
242.521420
 20
205.598442
 30
0.0
 10
242.797998
 20
205.598442
 30
0.0
  0
LWPOLYLINE
  5
1b2
100
AcDbEntity
  8
0
 62
5
100
AcDbPolyline
 90
2
 70
0
 10
223.799139
 20
208.097874
 30
0.0
 10
241.797872
 20
208.097874
 30
0.0
  0
SPLINE
  5
1b3
100
AcDbEntity
  8
0
 62
5
100
AcDbSpline
 70
8
 71
3
 72
8
 73
4
 74
0
 40
0
 40
0
 40
0
 40
0
 40
1
 40
1
 40
1
 40
1
 10
259.497097
 20
205.598794
 30
0.0
 10
259.773675
 20
205.598794
 30
0.0
 10
259.998042
 20
205.374075
 30
0.0
 10
259.998042
 20
205.098202
 30
0.0
  0
LWPOLYLINE
  5
1b4
100
AcDbEntity
  8
0
 62
5
100
AcDbPolyline
 90
2
 70
0
 10
242.298112
 20
207.598340
 30
0.0
 10
242.298112
 20
206.098328
 30
0.0
  0
SPLINE
  5
1b5
100
AcDbEntity
  8
0
 62
5
100
AcDbSpline
 70
8
 71
3
 72
8
 73
4
 74
0
 40
0
 40
0
 40
0
 40
0
 40
1
 40
1
 40
1
 40
1
 10
259.998042
 20
155.928710
 30
0.0
 10
259.999806
 20
155.661305
 30
0.0
 10
260.095056
 20
154.938815
 30
0.0
 10
260.273209
 20
154.653418
 30
0.0
  0
SPLINE
  5
1b6
100
AcDbEntity
  8
0
 62
5
100
AcDbSpline
 70
8
 71
3
 72
8
 73
4
 74
0
 40
0
 40
0
 40
0
 40
0
 40
1
 40
1
 40
1
 40
1
 10
260.273209
 20
154.653418
 30
0.0
 10
260.398798
 20
154.451982
 30
0.0
 10
260.881751
 20
153.891770
 30
0.0
 10
261.025684
 20
153.804634
 30
0.0
  0
LWPOLYLINE
  5
1b7
100
AcDbEntity
  8
0
 62
5
100
AcDbPolyline
 90
2
 70
0
 10
242.797998
 20
205.598089
 30
0.0
 10
259.497097
 20
205.598089
 30
0.0
  0
SPLINE
  5
1b8
100
AcDbEntity
  8
0
 62
5
100
AcDbSpline
 70
8
 71
3
 72
8
 73
4
 74
0
 40
0
 40
0
 40
0
 40
0
 40
1
 40
1
 40
1
 40
1
 10
278.950687
 20
143.289027
 30
0.0
 10
279.478443
 20
142.893563
 30
0.0
 10
279.640368
 20
142.172132
 30
0.0
 10
279.333804
 20
141.588285
 30
0.0
  0
LWPOLYLINE
  5
1b9
100
AcDbEntity
  8
0
 62
5
100
AcDbPolyline
 90
2
 70
0
 10
259.998042
 20
205.097497
 30
0.0
 10
259.998042
 20
155.928710
 30
0.0
  0
SPLINE
  5
1ba
100
AcDbEntity
  8
0
 62
5
100
AcDbSpline
 70
8
 71
3
 72
8
 73
4
 74
0
 40
0
 40
0
 40
0
 40
0
 40
1
 40
1
 40
1
 40
1
 10
266.096868
 20
118.551529
 30
0.0
 10
265.831579
 20
118.150420
 30
0.0
 10
265.290065
 20
118.040000
 30
0.0
 10
264.888604
 20
118.307053
 30
0.0
  0
LWPOLYLINE
  5
1bb
100
AcDbEntity
  8
0
 62
5
100
AcDbPolyline
 90
2
 70
0
 10
261.025684
 20
153.804634
 30
0.0
 10
278.950687
 20
143.289380
 30
0.0
  0
LWPOLYLINE
  5
1bc
100
AcDbEntity
  8
0
 62
5
100
AcDbPolyline
 90
2
 70
0
 10
264.888604
 20
118.307053
 30
0.0
 10
264.867437
 20
118.320812
 30
0.0
  0
SPLINE
  5
1bd
100
AcDbEntity
  8
0
 62
5
100
AcDbSpline
 70
8
 71
3
 72
8
 73
4
 74
0
 40
0
 40
0
 40
0
 40
0
 40
1
 40
1
 40
1
 40
1
 10
250.119553
 20
126.810062
 30
0.0
 10
250.028536
 20
126.842164
 30
0.0
 10
249.934344
 20
126.865800
 30
0.0
 10
249.839447
 20
126.882028
 30
0.0
  0
LWPOLYLINE
  5
1be
100
AcDbEntity
  8
0
 62
5
100
AcDbPolyline
 90
2
 70
0
 10
279.333099
 20
141.588285
 30
0.0
 10
266.096868
 20
118.551529
 30
0.0
  0
SPLINE
  5
1bf
100
AcDbEntity
  8
0
 62
5
100
AcDbSpline
 70
8
 71
3
 72
8
 73
4
 74
0
 40
0
 40
0
 40
0
 40
0
 40
1
 40
1
 40
1
 40
1
 10
213.049288
 20
132.350440
 30
0.0
 10
212.919818
 20
132.363846
 30
0.0
 10
212.797757
 20
132.415704
 30
0.0
 10
212.698979
 20
132.500723
 30
0.0
  0
LWPOLYLINE
  5
1c0
100
AcDbEntity
  8
0
 62
5
100
AcDbPolyline
 90
2
 70
0
 10
264.867437
 20
118.320812
 30
0.0
 10
250.118847
 20
126.809003
 30
0.0
  0
LWPOLYLINE
  5
1c1
100
AcDbEntity
  8
0
 62
5
100
AcDbPolyline
 90
2
 70
0
 10
249.838741
 20
126.882028
 30
0.0
 10
213.048935
 20
132.350440
 30
0.0
  0
SPLINE
  5
1c2
100
AcDbEntity
  8
0
 62
5
100
AcDbSpline
 70
8
 71
3
 72
8
 73
4
 74
0
 40
0
 40
0
 40
0
 40
0
 40
1
 40
1
 40
1
 40
1
 10
239.717188
 20
188.349361
 30
0.0
 10
239.717893
 20
187.741878
 30
0.0
 10
240.209666
 20
187.249400
 30
0.0
 10
240.817150
 20
187.249400
 30
0.0
  0
SPLINE
  5
1c3
100
AcDbEntity
  8
0
 62
5
100
AcDbSpline
 70
8
 71
3
 72
8
 73
4
 74
0
 40
0
 40
0
 40
0
 40
0
 40
1
 40
1
 40
1
 40
1
 10
240.817150
 20
187.249400
 30
0.0
 10
241.424633
 20
187.249400
 30
0.0
 10
241.917817
 20
187.741878
 30
0.0
 10
241.917817
 20
188.349361
 30
0.0
  0
SPLINE
  5
1c4
100
AcDbEntity
  8
0
 62
5
100
AcDbSpline
 70
8
 71
3
 72
8
 73
4
 74
0
 40
0
 40
0
 40
0
 40
0
 40
1
 40
1
 40
1
 40
1
 10
241.917817
 20
188.349361
 30
0.0
 10
241.917817
 20
188.956845
 30
0.0
 10
241.424633
 20
189.449323
 30
0.0
 10
240.817150
 20
189.449323
 30
0.0
  0
SPLINE
  5
1c5
100
AcDbEntity
  8
0
 62
5
100
AcDbSpline
 70
8
 71
3
 72
8
 73
4
 74
0
 40
0
 40
0
 40
0
 40
0
 40
1
 40
1
 40
1
 40
1
 10
240.817150
 20
189.449323
 30
0.0
 10
240.209666
 20
189.449323
 30
0.0
 10
239.717893
 20
188.956845
 30
0.0
 10
239.717893
 20
188.349361
 30
0.0
  0
SPLINE
  5
1c6
100
AcDbEntity
  8
0
 62
5
100
AcDbSpline
 70
8
 71
3
 72
8
 73
4
 74
0
 40
0
 40
0
 40
0
 40
0
 40
1
 40
1
 40
1
 40
1
 10
163.703795
 20
184.727037
 30
0.0
 10
163.703795
 20
184.119553
 30
0.0
 10
164.196308
 20
183.627075
 30
0.0
 10
164.803756
 20
183.627075
 30
0.0
  0
SPLINE
  5
1c7
100
AcDbEntity
  8
0
 62
5
100
AcDbSpline
 70
8
 71
3
 72
8
 73
4
 74
0
 40
0
 40
0
 40
0
 40
0
 40
1
 40
1
 40
1
 40
1
 10
164.803756
 20
183.627075
 30
0.0
 10
165.411170
 20
183.627075
 30
0.0
 10
165.903683
 20
184.119553
 30
0.0
 10
165.903683
 20
184.727037
 30
0.0
  0
SPLINE
  5
1c8
100
AcDbEntity
  8
0
 62
5
100
AcDbSpline
 70
8
 71
3
 72
8
 73
4
 74
0
 40
0
 40
0
 40
0
 40
0
 40
1
 40
1
 40
1
 40
1
 10
165.903683
 20
184.727037
 30
0.0
 10
165.903683
 20
185.334521
 30
0.0
 10
165.411170
 20
185.826999
 30
0.0
 10
164.803756
 20
185.826999
 30
0.0
  0
SPLINE
  5
1c9
100
AcDbEntity
  8
0
 62
5
100
AcDbSpline
 70
8
 71
3
 72
8
 73
4
 74
0
 40
0
 40
0
 40
0
 40
0
 40
1
 40
1
 40
1
 40
1
 10
164.803756
 20
185.826999
 30
0.0
 10
164.196308
 20
185.826999
 30
0.0
 10
163.703795
 20
185.334521
 30
0.0
 10
163.703795
 20
184.727037
 30
0.0
  0
SPLINE
  5
1ca
100
AcDbEntity
  8
0
 62
5
100
AcDbSpline
 70
8
 71
3
 72
8
 73
4
 74
0
 40
0
 40
0
 40
0
 40
0
 40
1
 40
1
 40
1
 40
1
 10
163.694975
 20
165.713361
 30
0.0
 10
163.694975
 20
165.106583
 30
0.0
 10
164.187488
 20
164.614105
 30
0.0
 10
164.794937
 20
164.614105
 30
0.0
  0
SPLINE
  5
1cb
100
AcDbEntity
  8
0
 62
5
100
AcDbSpline
 70
8
 71
3
 72
8
 73
4
 74
0
 40
0
 40
0
 40
0
 40
0
 40
1
 40
1
 40
1
 40
1
 10
164.794937
 20
164.614105
 30
0.0
 10
165.402350
 20
164.614105
 30
0.0
 10
165.894863
 20
165.106583
 30
0.0
 10
165.894863
 20
165.713361
 30
0.0
  0
SPLINE
  5
1cc
100
AcDbEntity
  8
0
 62
5
100
AcDbSpline
 70
8
 71
3
 72
8
 73
4
 74
0
 40
0
 40
0
 40
0
 40
0
 40
1
 40
1
 40
1
 40
1
 10
165.894863
 20
165.713361
 30
0.0
 10
165.894863
 20
166.321550
 30
0.0
 10
165.402350
 20
166.814028
 30
0.0
 10
164.794937
 20
166.814028
 30
0.0
  0
SPLINE
  5
1cd
100
AcDbEntity
  8
0
 62
5
100
AcDbSpline
 70
8
 71
3
 72
8
 73
4
 74
0
 40
0
 40
0
 40
0
 40
0
 40
1
 40
1
 40
1
 40
1
 10
164.794937
 20
166.814028
 30
0.0
 10
164.187488
 20
166.814028
 30
0.0
 10
163.694975
 20
166.321550
 30
0.0
 10
163.694975
 20
165.713361
 30
0.0
  0
SPLINE
  5
1ce
100
AcDbEntity
  8
0
 62
5
100
AcDbSpline
 70
8
 71
3
 72
8
 73
4
 74
0
 40
0
 40
0
 40
0
 40
0
 40
1
 40
1
 40
1
 40
1
 10
253.457891
 20
140.852037
 30
0.0
 10
253.457891
 20
140.244553
 30
0.0
 10
253.950369
 20
139.752428
 30
0.0
 10
254.557853
 20
139.752428
 30
0.0
  0
SPLINE
  5
1cf
100
AcDbEntity
  8
0
 62
5
100
AcDbSpline
 70
8
 71
3
 72
8
 73
4
 74
0
 40
0
 40
0
 40
0
 40
0
 40
1
 40
1
 40
1
 40
1
 10
254.557853
 20
139.752428
 30
0.0
 10
255.165336
 20
139.752428
 30
0.0
 10
255.657814
 20
140.244553
 30
0.0
 10
255.657814
 20
140.852390
 30
0.0
  0
SPLINE
  5
1d0
100
AcDbEntity
  8
0
 62
5
100
AcDbSpline
 70
8
 71
3
 72
8
 73
4
 74
0
 40
0
 40
0
 40
0
 40
0
 40
1
 40
1
 40
1
 40
1
 10
255.657814
 20
140.852390
 30
0.0
 10
255.657814
 20
141.459874
 30
0.0
 10
255.165336
 20
141.951999
 30
0.0
 10
254.557853
 20
141.951999
 30
0.0
  0
SPLINE
  5
1d1
100
AcDbEntity
  8
0
 62
5
100
AcDbSpline
 70
8
 71
3
 72
8
 73
4
 74
0
 40
0
 40
0
 40
0
 40
0
 40
1
 40
1
 40
1
 40
1
 10
254.557853
 20
141.951999
 30
0.0
 10
253.950369
 20
141.951999
 30
0.0
 10
253.457891
 20
141.459874
 30
0.0
 10
253.457891
 20
140.852390
 30
0.0
  0
SPLINE
  5
1d2
100
AcDbEntity
  8
0
 62
5
100
AcDbSpline
 70
8
 71
3
 72
8
 73
4
 74
0
 40
0
 40
0
 40
0
 40
0
 40
1
 40
1
 40
1
 40
1
 10
206.942348
 20
148.606450
 30
0.0
 10
206.942348
 20
147.998261
 30
0.0
 10
207.434826
 20
147.506488
 30
0.0
 10
208.042309
 20
147.506488
 30
0.0
  0
SPLINE
  5
1d3
100
AcDbEntity
  8
0
 62
5
100
AcDbSpline
 70
8
 71
3
 72
8
 73
4
 74
0
 40
0
 40
0
 40
0
 40
0
 40
1
 40
1
 40
1
 40
1
 10
208.042309
 20
147.506488
 30
0.0
 10
208.649793
 20
147.506488
 30
0.0
 10
209.142271
 20
147.998261
 30
0.0
 10
209.142271
 20
148.605745
 30
0.0
  0
SPLINE
  5
1d4
100
AcDbEntity
  8
0
 62
5
100
AcDbSpline
 70
8
 71
3
 72
8
 73
4
 74
0
 40
0
 40
0
 40
0
 40
0
 40
1
 40
1
 40
1
 40
1
 10
209.142271
 20
148.605745
 30
0.0
 10
209.142271
 20
149.213228
 30
0.0
 10
208.649793
 20
149.705706
 30
0.0
 10
208.042309
 20
149.705706
 30
0.0
  0
SPLINE
  5
1d5
100
AcDbEntity
  8
0
 62
5
100
AcDbSpline
 70
8
 71
3
 72
8
 73
4
 74
0
 40
0
 40
0
 40
0
 40
0
 40
1
 40
1
 40
1
 40
1
 10
208.042309
 20
149.705706
 30
0.0
 10
207.434826
 20
149.705706
 30
0.0
 10
206.942348
 20
149.213228
 30
0.0
 10
206.942348
 20
148.605745
 30
0.0
  0
LWPOLYLINE
  5
1d6
100
AcDbEntity
  8
0
 62
5
100
AcDbPolyline
 90
3
 70
0
 10
212.698626
 20
132.500018
 30
0.0
 10
202.149153
 20
146.958271
 30
0.0
 10
202.152681
 20
146.954038
 30
0.0
  0
LWPOLYLINE
  5
1d7
100
AcDbEntity
  8
0
 62
5
100
AcDbPolyline
 90
4
 70
1
 10
163.045087
 20
200.633091
 30
0.0
 10
147.544763
 20
200.633091
 30
0.0
 10
147.544763
 20
187.832894
 30
0.0
 10
163.045087
 20
187.832894
 30
0.0
  0
LWPOLYLINE
  5
1d8
100
AcDbEntity
  8
0
 62
5
100
AcDbPolyline
 90
4
 70
1
 10
201.044958
 20
205.382894
 30
0.0
 10
185.544951
 20
205.382894
 30
0.0
 10
185.544951
 20
192.583050
 30
0.0
 10
201.044958
 20
192.583050
 30
0.0
  0
LWPOLYLINE
  5
1d9
100
AcDbEntity
  8
0
 62
5
100
AcDbPolyline
 90
4
 70
1
 10
201.044958
 20
186.384035
 30
0.0
 10
185.544951
 20
186.384035
 30
0.0
 10
185.544951
 20
173.583838
 30
0.0
 10
201.044958
 20
173.583838
 30
0.0
  0
LWPOLYLINE
  5
1da
100
AcDbEntity
  8
0
 62
5
100
AcDbPolyline
 90
4
 70
1
 10
201.044958
 20
167.384118
 30
0.0
 10
185.544951
 20
167.384118
 30
0.0
 10
185.544951
 20
154.583921
 30
0.0
 10
201.044958
 20
154.583921
 30
0.0
  0
LWPOLYLINE
  5
1db
100
AcDbEntity
  8
0
 62
5
100
AcDbPolyline
 90
4
 70
1
 10
220.043817
 20
207.758149
 30
0.0
 10
204.543810
 20
207.758149
 30
0.0
 10
204.543810
 20
194.957952
 30
0.0
 10
220.043817
 20
194.957952
 30
0.0
  0
LWPOLYLINE
  5
1dc
100
AcDbEntity
  8
0
 62
5
100
AcDbPolyline
 90
4
 70
1
 10
220.043817
 20
188.757878
 30
0.0
 10
204.543810
 20
188.757878
 30
0.0
 10
204.543810
 20
175.958034
 30
0.0
 10
220.043817
 20
175.958034
 30
0.0
  0
LWPOLYLINE
  5
1dd
100
AcDbEntity
  8
0
 62
5
100
AcDbPolyline
 90
4
 70
1
 10
220.043817
 20
169.759019
 30
0.0
 10
204.543810
 20
169.759019
 30
0.0
 10
204.543810
 20
156.958822
 30
0.0
 10
220.043817
 20
156.958822
 30
0.0
  0
LWPOLYLINE
  5
1de
100
AcDbEntity
  8
0
 62
5
100
AcDbPolyline
 90
4
 70
1
 10
239.044087
 20
167.384118
 30
0.0
 10
223.544080
 20
167.384118
 30
0.0
 10
223.544080
 20
154.583921
 30
0.0
 10
239.044087
 20
154.583921
 30
0.0
  0
LWPOLYLINE
  5
1df
100
AcDbEntity
  8
0
 62
5
100
AcDbPolyline
 90
4
 70
1
 10
229.544129
 20
147.759783
 30
0.0
 10
214.044122
 20
147.759783
 30
0.0
 10
214.044122
 20
134.959939
 30
0.0
 10
229.544129
 20
134.959939
 30
0.0
  0
LWPOLYLINE
  5
1e0
100
AcDbEntity
  8
0
 62
5
100
AcDbPolyline
 90
4
 70
1
 10
258.042946
 20
203.009051
 30
0.0
 10
242.542940
 20
203.009051
 30
0.0
 10
242.542940
 20
190.208854
 30
0.0
 10
258.042946
 20
190.208854
 30
0.0
  0
LWPOLYLINE
  5
1e1
100
AcDbEntity
  8
0
 62
5
100
AcDbPolyline
 90
4
 70
1
 10
258.042946
 20
184.009134
 30
0.0
 10
242.542940
 20
184.009134
 30
0.0
 10
242.542940
 20
171.208937
 30
0.0
 10
258.042946
 20
171.208937
 30
0.0
  0
LWPOLYLINE
  5
1e2
100
AcDbEntity
  8
0
 62
5
100
AcDbPolyline
 90
4
 70
1
 10
258.042946
 20
165.008863
 30
0.0
 10
242.542940
 20
165.008863
 30
0.0
 10
242.542940
 20
152.209019
 30
0.0
 10
258.042946
 20
152.209019
 30
0.0
  0
LWPOLYLINE
  5
1e3
100
AcDbEntity
  8
0
 62
5
100
AcDbPolyline
 90
4
 70
1
 10
239.044087
 20
186.384035
 30
0.0
 10
223.544080
 20
186.384035
 30
0.0
 10
223.544080
 20
173.583838
 30
0.0
 10
239.044087
 20
173.583838
 30
0.0
  0
LWPOLYLINE
  5
1e4
100
AcDbEntity
  8
0
 62
5
100
AcDbPolyline
 90
4
 70
1
 10
239.044087
 20
205.382894
 30
0.0
 10
223.544080
 20
205.382894
 30
0.0
 10
223.544080
 20
192.583050
 30
0.0
 10
239.044087
 20
192.583050
 30
0.0
  0
LWPOLYLINE
  5
1e5
100
AcDbEntity
  8
0
 62
5
100
AcDbPolyline
 90
4
 70
1
 10
182.045040
 20
181.632821
 30
0.0
 10
166.545033
 20
181.632821
 30
0.0
 10
166.545033
 20
168.832977
 30
0.0
 10
182.045040
 20
168.832977
 30
0.0
  0
LWPOLYLINE
  5
1e6
100
AcDbEntity
  8
0
 62
5
100
AcDbPolyline
 90
4
 70
1
 10
163.045087
 20
181.632821
 30
0.0
 10
147.544763
 20
181.632821
 30
0.0
 10
147.544763
 20
168.832977
 30
0.0
 10
163.045087
 20
168.832977
 30
0.0
  0
LWPOLYLINE
  5
1e7
100
AcDbEntity
  8
0
 62
5
100
AcDbPolyline
 90
4
 70
1
 10
163.045087
 20
162.635020
 30
0.0
 10
147.544763
 20
162.635020
 30
0.0
 10
147.544763
 20
149.834823
 30
0.0
 10
163.045087
 20
149.834823
 30
0.0
  0
LWPOLYLINE
  5
1e8
100
AcDbEntity
  8
0
 62
5
100
AcDbPolyline
 90
4
 70
1
 10
182.045040
 20
162.635020
 30
0.0
 10
166.545033
 20
162.635020
 30
0.0
 10
166.545033
 20
149.834823
 30
0.0
 10
182.045040
 20
149.834823
 30
0.0
  0
LWPOLYLINE
  5
1e9
100
AcDbEntity
  8
0
 62
5
100
AcDbPolyline
 90
4
 70
1
 10
182.045040
 20
200.633091
 30
0.0
 10
166.545033
 20
200.633091
 30
0.0
 10
166.545033
 20
187.832894
 30
0.0
 10
182.045040
 20
187.832894
 30
0.0
  0
LWPOLYLINE
  5
1ea
100
AcDbEntity
  8
0
 62
5
100
AcDbPolyline
 90
4
 70
1
 10
255.637353
 20
131.333028
 30
0.0
 10
263.378008
 20
144.761876
 30
0.0
 10
274.467585
 20
138.369538
 30
0.0
 10
266.726930
 20
124.941044
 30
0.0
  0
SPLINE
  5
1eb
100
AcDbEntity
  8
0
 62
5
100
AcDbSpline
 70
8
 71
3
 72
8
 73
4
 74
0
 40
0
 40
0
 40
0
 40
0
 40
1
 40
1
 40
1
 40
1
 10
405.130157
 20
90.303410
 30
0.0
 10
404.591818
 20
90.303410
 30
0.0
 10
404.155078
 20
90.739796
 30
0.0
 10
404.155078
 20
91.278488
 30
0.0
  0
SPLINE
  5
1ec
100
AcDbEntity
  8
0
 62
5
100
AcDbSpline
 70
8
 71
3
 72
8
 73
4
 74
0
 40
0
 40
0
 40
0
 40
0
 40
1
 40
1
 40
1
 40
1
 10
404.155078
 20
91.278488
 30
0.0
 10
404.155078
 20
91.816828
 30
0.0
 10
404.591818
 20
92.253214
 30
0.0
 10
405.130157
 20
92.253214
 30
0.0
  0
LWPOLYLINE
  5
1ed
100
AcDbEntity
  8
0
 62
5
100
AcDbPolyline
 90
4
 70
1
 10
233.649759
 20
134.428302
 30
0.0
 10
236.962697
 20
146.792113
 30
0.0
 10
251.934595
 20
142.780322
 30
0.0
 10
248.621657
 20
130.416511
 30
0.0
  0
SPLINE
  5
1ee
100
AcDbEntity
  8
0
 62
5
100
AcDbSpline
 70
8
 71
3
 72
8
 73
4
 74
0
 40
0
 40
0
 40
0
 40
0
 40
1
 40
1
 40
1
 40
1
 10
406.188491
 20
92.253214
 30
0.0
 10
406.726830
 20
92.253214
 30
0.0
 10
407.163569
 20
91.816828
 30
0.0
 10
407.163569
 20
91.278488
 30
0.0
  0
SPLINE
  5
1ef
100
AcDbEntity
  8
0
 62
5
100
AcDbSpline
 70
8
 71
3
 72
8
 73
4
 74
0
 40
0
 40
0
 40
0
 40
0
 40
1
 40
1
 40
1
 40
1
 10
407.163569
 20
91.278488
 30
0.0
 10
407.163569
 20
90.739796
 30
0.0
 10
406.726830
 20
90.303410
 30
0.0
 10
406.188491
 20
90.303410
 30
0.0
  0
LWPOLYLINE
  5
1f0
100
AcDbEntity
  8
0
 62
5
100
AcDbPolyline
 90
2
 70
0
 10
405.130157
 20
92.253214
 30
0.0
 10
406.188491
 20
92.253214
 30
0.0
  0
SPLINE
  5
1f1
100
AcDbEntity
  8
0
 62
5
100
AcDbSpline
 70
8
 71
3
 72
8
 73
4
 74
0
 40
0
 40
0
 40
0
 40
0
 40
1
 40
1
 40
1
 40
1
 10
348.866398
 20
121.052782
 30
0.0
 10
348.150259
 20
120.973054
 30
0.0
 10
347.436941
 20
120.863693
 30
0.0
 10
346.900719
 20
120.743043
 30
0.0
  0
LWPOLYLINE
  5
1f2
100
AcDbEntity
  8
0
 62
5
100
AcDbPolyline
 90
2
 70
0
 10
406.188491
 20
90.303410
 30
0.0
 10
405.130157
 20
90.303410
 30
0.0
  0
SPLINE
  5
1f3
100
AcDbEntity
  8
0
 62
5
100
AcDbSpline
 70
8
 71
3
 72
8
 73
4
 74
0
 40
0
 40
0
 40
0
 40
0
 40
1
 40
1
 40
1
 40
1
 10
293.780466
 20
108.801155
 30
0.0
 10
292.707315
 20
108.559855
 30
0.0
 10
291.828898
 20
107.462715
 30
0.0
 10
291.828898
 20
106.362401
 30
0.0
  0
LWPOLYLINE
  5
1f4
100
AcDbEntity
  8
0
 62
5
100
AcDbPolyline
 90
2
 70
0
 10
346.900719
 20
120.743043
 30
0.0
 10
293.780466
 20
108.801155
 30
0.0
  0
SPLINE
  5
1f5
100
AcDbEntity
  8
0
 62
5
100
AcDbSpline
 70
8
 71
3
 72
8
 73
4
 74
0
 40
0
 40
0
 40
0
 40
0
 40
1
 40
1
 40
1
 40
1
 10
291.828898
 20
14.263354
 30
0.0
 10
291.828898
 20
13.163392
 30
0.0
 10
292.728835
 20
12.263455
 30
0.0
 10
293.829149
 20
12.263455
 30
0.0
  0
LWPOLYLINE
  5
1f6
100
AcDbEntity
  8
0
 62
5
100
AcDbPolyline
 90
2
 70
0
 10
291.828898
 20
106.362401
 30
0.0
 10
291.828898
 20
14.263354
 30
0.0
  0
SPLINE
  5
1f7
100
AcDbEntity
  8
0
 62
5
100
AcDbSpline
 70
8
 71
3
 72
8
 73
4
 74
0
 40
0
 40
0
 40
0
 40
0
 40
1
 40
1
 40
1
 40
1
 10
384.541073
 20
12.263455
 30
0.0
 10
385.641035
 20
12.263455
 30
0.0
 10
387.320611
 20
11.813663
 30
0.0
 10
388.273112
 20
11.264035
 30
0.0
  0
LWPOLYLINE
  5
1f8
100
AcDbEntity
  8
0
 62
5
100
AcDbPolyline
 90
2
 70
0
 10
293.829149
 20
12.263455
 30
0.0
 10
384.541073
 20
12.263455
 30
0.0
  0
SPLINE
  5
1f9
100
AcDbEntity
  8
0
 62
5
100
AcDbSpline
 70
8
 71
3
 72
8
 73
4
 74
0
 40
0
 40
0
 40
0
 40
0
 40
1
 40
1
 40
1
 40
1
 10
407.078648
 20
0.414701
 30
0.0
 10
408.031149
 20
-0.134575
 30
0.0
 10
409.257053
 20
0.197037
 30
0.0
 10
409.801742
 20
1.152359
 30
0.0
  0
LWPOLYLINE
  5
1fa
100
AcDbEntity
  8
0
 62
5
100
AcDbPolyline
 90
2
 70
0
 10
388.273112
 20
11.264035
 30
0.0
 10
407.078648
 20
0.414701
 30
0.0
  0
SPLINE
  5
1fb
100
AcDbEntity
  8
0
 62
5
100
AcDbSpline
 70
8
 71
3
 72
8
 73
4
 74
0
 40
0
 40
0
 40
0
 40
0
 40
1
 40
1
 40
1
 40
1
 10
424.918279
 20
27.648457
 30
0.0
 10
425.463321
 20
28.603779
 30
0.0
 10
425.909585
 20
30.285472
 30
0.0
 10
425.909585
 20
31.385434
 30
0.0
  0
LWPOLYLINE
  5
1fc
100
AcDbEntity
  8
0
 62
5
100
AcDbPolyline
 90
2
 70
0
 10
409.801742
 20
1.152359
 30
0.0
 10
424.918279
 20
27.648457
 30
0.0
  0
SPLINE
  5
1fd
100
AcDbEntity
  8
0
 62
5
100
AcDbSpline
 70
8
 71
3
 72
8
 73
4
 74
0
 40
0
 40
0
 40
0
 40
0
 40
1
 40
1
 40
1
 40
1
 10
425.911349
 20
98.623510
 30
0.0
 10
425.911349
 20
99.723471
 30
0.0
 10
425.408288
 20
101.369886
 30
0.0
 10
424.793749
 20
102.282170
 30
0.0
  0
LWPOLYLINE
  5
1fe
100
AcDbEntity
  8
0
 62
5
100
AcDbPolyline
 90
2
 70
0
 10
425.909585
 20
31.385434
 30
0.0
 10
425.911349
 20
98.623510
 30
0.0
  0
SPLINE
  5
1ff
100
AcDbEntity
  8
0
 62
5
100
AcDbSpline
 70
8
 71
3
 72
8
 73
4
 74
0
 40
0
 40
0
 40
0
 40
0
 40
1
 40
1
 40
1
 40
1
 10
418.983848
 20
110.903006
 30
0.0
 10
418.369308
 20
111.814937
 30
0.0
 10
416.966310
 20
112.561416
 30
0.0
 10
415.866348
 20
112.561416
 30
0.0
  0
LWPOLYLINE
  5
200
100
AcDbEntity
  8
0
 62
5
100
AcDbPolyline
 90
2
 70
0
 10
424.793749
 20
102.282170
 30
0.0
 10
418.983848
 20
110.903006
 30
0.0
  0
SPLINE
  5
201
100
AcDbEntity
  8
0
 62
5
100
AcDbSpline
 70
8
 71
3
 72
8
 73
4
 74
0
 40
0
 40
0
 40
0
 40
0
 40
1
 40
1
 40
1
 40
1
 10
401.866354
 20
112.561416
 30
0.0
 10
400.766392
 20
112.561416
 30
0.0
 10
399.131618
 20
113.081410
 30
0.0
 10
398.233798
 20
113.716764
 30
0.0
  0
LWPOLYLINE
  5
202
100
AcDbEntity
  8
0
 62
5
100
AcDbPolyline
 90
6
 70
0
 10
415.866348
 20
112.561416
 30
0.0
 10
415.749226
 20
112.561416
 30
0.0
 10
415.749226
 20
97.861509
 30
0.0
 10
403.588969
 20
97.861509
 30
0.0
 10
403.589321
 20
112.561416
 30
0.0
 10
401.866354
 20
112.561416
 30
0.0
  0
SPLINE
  5
203
100
AcDbEntity
  8
0
 62
5
100
AcDbSpline
 70
8
 71
3
 72
8
 73
4
 74
0
 40
0
 40
0
 40
0
 40
0
 40
1
 40
1
 40
1
 40
1
 10
389.314865
 20
120.026551
 30
0.0
 10
388.890473
 20
120.326765
 30
0.0
 10
388.301334
 20
120.601226
 30
0.0
 10
387.682208
 20
120.807249
 30
0.0
  0
LWPOLYLINE
  5
204
100
AcDbEntity
  8
0
 62
5
100
AcDbPolyline
 90
2
 70
0
 10
398.233798
 20
113.716764
 30
0.0
 10
389.314865
 20
120.026551
 30
0.0
  0
SPLINE
  5
205
100
AcDbEntity
  8
0
 62
5
100
AcDbSpline
 70
8
 71
3
 72
8
 73
4
 74
0
 40
0
 40
0
 40
0
 40
0
 40
1
 40
1
 40
1
 40
1
 10
312.081502
 20
88.713411
 30
0.0
 10
312.081502
 20
88.175072
 30
0.0
 10
311.645468
 20
87.738333
 30
0.0
 10
311.106424
 20
87.738333
 30
0.0
  0
SPLINE
  5
206
100
AcDbEntity
  8
0
 62
5
100
AcDbSpline
 70
8
 71
3
 72
8
 73
4
 74
0
 40
0
 40
0
 40
0
 40
0
 40
1
 40
1
 40
1
 40
1
 10
311.106424
 20
87.738333
 30
0.0
 10
310.568437
 20
87.738333
 30
0.0
 10
310.131698
 20
88.175072
 30
0.0
 10
310.131698
 20
88.713411
 30
0.0
  0
SPLINE
  5
207
100
AcDbEntity
  8
0
 62
5
100
AcDbSpline
 70
8
 71
3
 72
8
 73
4
 74
0
 40
0
 40
0
 40
0
 40
0
 40
1
 40
1
 40
1
 40
1
 10
310.131698
 20
88.713411
 30
0.0
 10
310.131698
 20
89.251750
 30
0.0
 10
310.568437
 20
89.688490
 30
0.0
 10
311.106424
 20
89.688490
 30
0.0
  0
SPLINE
  5
208
100
AcDbEntity
  8
0
 62
5
100
AcDbSpline
 70
8
 71
3
 72
8
 73
4
 74
0
 40
0
 40
0
 40
0
 40
0
 40
1
 40
1
 40
1
 40
1
 10
311.106424
 20
89.688490
 30
0.0
 10
311.645468
 20
89.688490
 30
0.0
 10
312.081502
 20
89.251750
 30
0.0
 10
312.081502
 20
88.713411
 30
0.0
  0
LWPOLYLINE
  5
209
100
AcDbEntity
  8
0
 62
5
100
AcDbPolyline
 90
4
 70
0
 10
387.682208
 20
120.807249
 30
0.0
 10
387.682208
 20
86.685855
 30
0.0
 10
348.851934
 20
86.685855
 30
0.0
 10
348.851934
 20
121.052782
 30
0.0
  0
SPLINE
  5
20a
100
AcDbEntity
  8
0
 62
5
100
AcDbSpline
 70
8
 71
3
 72
8
 73
4
 74
0
 40
0
 40
0
 40
0
 40
0
 40
1
 40
1
 40
1
 40
1
 10
350.181526
 20
74.488344
 30
0.0
 10
350.181526
 20
73.950005
 30
0.0
 10
349.745492
 20
73.513266
 30
0.0
 10
349.206448
 20
73.513266
 30
0.0
  0
SPLINE
  5
20b
100
AcDbEntity
  8
0
 62
5
100
AcDbSpline
 70
8
 71
3
 72
8
 73
4
 74
0
 40
0
 40
0
 40
0
 40
0
 40
1
 40
1
 40
1
 40
1
 10
349.206448
 20
73.513266
 30
0.0
 10
348.668461
 20
73.513266
 30
0.0
 10
348.231722
 20
73.950005
 30
0.0
 10
348.231722
 20
74.488344
 30
0.0
  0
SPLINE
  5
20c
100
AcDbEntity
  8
0
 62
5
100
AcDbSpline
 70
8
 71
3
 72
8
 73
4
 74
0
 40
0
 40
0
 40
0
 40
0
 40
1
 40
1
 40
1
 40
1
 10
348.231722
 20
74.488344
 30
0.0
 10
348.231722
 20
75.026683
 30
0.0
 10
348.668461
 20
75.463422
 30
0.0
 10
349.206448
 20
75.463422
 30
0.0
  0
SPLINE
  5
20d
100
AcDbEntity
  8
0
 62
5
100
AcDbSpline
 70
8
 71
3
 72
8
 73
4
 74
0
 40
0
 40
0
 40
0
 40
0
 40
1
 40
1
 40
1
 40
1
 10
349.206448
 20
75.463422
 30
0.0
 10
349.745492
 20
75.463422
 30
0.0
 10
350.181526
 20
75.026683
 30
0.0
 10
350.181526
 20
74.488344
 30
0.0
  0
LWPOLYLINE
  5
20e
100
AcDbEntity
  8
0
 62
5
100
AcDbPolyline
 90
1
 70
1
 10
312.081502
 20
88.713411
 30
0.0
  0
SPLINE
  5
20f
100
AcDbEntity
  8
0
 62
5
100
AcDbSpline
 70
8
 71
3
 72
8
 73
4
 74
0
 40
0
 40
0
 40
0
 40
0
 40
1
 40
1
 40
1
 40
1
 10
343.958522
 20
113.605427
 30
0.0
 10
343.958522
 20
113.067088
 30
0.0
 10
343.522136
 20
112.630349
 30
0.0
 10
342.983444
 20
112.630349
 30
0.0
  0
SPLINE
  5
210
100
AcDbEntity
  8
0
 62
5
100
AcDbSpline
 70
8
 71
3
 72
8
 73
4
 74
0
 40
0
 40
0
 40
0
 40
0
 40
1
 40
1
 40
1
 40
1
 10
342.983444
 20
112.630349
 30
0.0
 10
342.445105
 20
112.630349
 30
0.0
 10
342.008718
 20
113.067088
 30
0.0
 10
342.008718
 20
113.605427
 30
0.0
  0
SPLINE
  5
211
100
AcDbEntity
  8
0
 62
5
100
AcDbSpline
 70
8
 71
3
 72
8
 73
4
 74
0
 40
0
 40
0
 40
0
 40
0
 40
1
 40
1
 40
1
 40
1
 10
342.008718
 20
113.605427
 30
0.0
 10
342.008718
 20
114.143766
 30
0.0
 10
342.445105
 20
114.580505
 30
0.0
 10
342.983444
 20
114.580505
 30
0.0
  0
SPLINE
  5
212
100
AcDbEntity
  8
0
 62
5
100
AcDbSpline
 70
8
 71
3
 72
8
 73
4
 74
0
 40
0
 40
0
 40
0
 40
0
 40
1
 40
1
 40
1
 40
1
 10
342.983444
 20
114.580505
 30
0.0
 10
343.522136
 20
114.580505
 30
0.0
 10
343.958522
 20
114.143766
 30
0.0
 10
343.958522
 20
113.605427
 30
0.0
  0
LWPOLYLINE
  5
213
100
AcDbEntity
  8
0
 62
5
100
AcDbPolyline
 90
1
 70
1
 10
350.181526
 20
74.488344
 30
0.0
  0
SPLINE
  5
214
100
AcDbEntity
  8
0
 62
5
100
AcDbSpline
 70
8
 71
3
 72
8
 73
4
 74
0
 40
0
 40
0
 40
0
 40
0
 40
1
 40
1
 40
1
 40
1
 10
312.081502
 20
31.308317
 30
0.0
 10
312.081502
 20
30.769978
 30
0.0
 10
311.645468
 20
30.333238
 30
0.0
 10
311.106424
 20
30.333238
 30
0.0
  0
SPLINE
  5
215
100
AcDbEntity
  8
0
 62
5
100
AcDbSpline
 70
8
 71
3
 72
8
 73
4
 74
0
 40
0
 40
0
 40
0
 40
0
 40
1
 40
1
 40
1
 40
1
 10
311.106424
 20
30.333238
 30
0.0
 10
310.568437
 20
30.333238
 30
0.0
 10
310.131698
 20
30.769978
 30
0.0
 10
310.131698
 20
31.308317
 30
0.0
  0
SPLINE
  5
216
100
AcDbEntity
  8
0
 62
5
100
AcDbSpline
 70
8
 71
3
 72
8
 73
4
 74
0
 40
0
 40
0
 40
0
 40
0
 40
1
 40
1
 40
1
 40
1
 10
310.131698
 20
31.308317
 30
0.0
 10
310.131698
 20
31.846656
 30
0.0
 10
310.568437
 20
32.283395
 30
0.0
 10
311.106424
 20
32.283395
 30
0.0
  0
SPLINE
  5
217
100
AcDbEntity
  8
0
 62
5
100
AcDbSpline
 70
8
 71
3
 72
8
 73
4
 74
0
 40
0
 40
0
 40
0
 40
0
 40
1
 40
1
 40
1
 40
1
 10
311.106424
 20
32.283395
 30
0.0
 10
311.645468
 20
32.283395
 30
0.0
 10
312.081502
 20
31.846656
 30
0.0
 10
312.081502
 20
31.308317
 30
0.0
  0
LWPOLYLINE
  5
218
100
AcDbEntity
  8
0
 62
5
100
AcDbPolyline
 90
1
 70
1
 10
343.958522
 20
113.605427
 30
0.0
  0
SPLINE
  5
219
100
AcDbEntity
  8
0
 62
5
100
AcDbSpline
 70
8
 71
3
 72
8
 73
4
 74
0
 40
0
 40
0
 40
0
 40
0
 40
1
 40
1
 40
1
 40
1
 10
350.689526
 20
38.928322
 30
0.0
 10
350.689526
 20
38.389982
 30
0.0
 10
350.253140
 20
37.953243
 30
0.0
 10
349.714448
 20
37.953243
 30
0.0
  0
SPLINE
  5
21a
100
AcDbEntity
  8
0
 62
5
100
AcDbSpline
 70
8
 71
3
 72
8
 73
4
 74
0
 40
0
 40
0
 40
0
 40
0
 40
1
 40
1
 40
1
 40
1
 10
349.714448
 20
37.953243
 30
0.0
 10
349.176109
 20
37.953243
 30
0.0
 10
348.739722
 20
38.389982
 30
0.0
 10
348.739722
 20
38.928322
 30
0.0
  0
SPLINE
  5
21b
100
AcDbEntity
  8
0
 62
5
100
AcDbSpline
 70
8
 71
3
 72
8
 73
4
 74
0
 40
0
 40
0
 40
0
 40
0
 40
1
 40
1
 40
1
 40
1
 10
348.739722
 20
38.928322
 30
0.0
 10
348.739722
 20
39.466661
 30
0.0
 10
349.176109
 20
39.903400
 30
0.0
 10
349.714448
 20
39.903400
 30
0.0
  0
SPLINE
  5
21c
100
AcDbEntity
  8
0
 62
5
100
AcDbSpline
 70
8
 71
3
 72
8
 73
4
 74
0
 40
0
 40
0
 40
0
 40
0
 40
1
 40
1
 40
1
 40
1
 10
349.714448
 20
39.903400
 30
0.0
 10
350.253140
 20
39.903400
 30
0.0
 10
350.689526
 20
39.466661
 30
0.0
 10
350.689526
 20
38.928322
 30
0.0
  0
LWPOLYLINE
  5
21d
100
AcDbEntity
  8
0
 62
5
100
AcDbPolyline
 90
1
 70
1
 10
312.081502
 20
31.308317
 30
0.0
  0
SPLINE
  5
21e
100
AcDbEntity
  8
0
 62
5
100
AcDbSpline
 70
8
 71
3
 72
8
 73
4
 74
0
 40
0
 40
0
 40
0
 40
0
 40
1
 40
1
 40
1
 40
1
 10
401.362558
 20
31.561964
 30
0.0
 10
401.362558
 20
31.023625
 30
0.0
 10
400.926525
 20
30.586886
 30
0.0
 10
400.387480
 20
30.586886
 30
0.0
  0
SPLINE
  5
21f
100
AcDbEntity
  8
0
 62
5
100
AcDbSpline
 70
8
 71
3
 72
8
 73
4
 74
0
 40
0
 40
0
 40
0
 40
0
 40
1
 40
1
 40
1
 40
1
 10
400.387480
 20
30.586886
 30
0.0
 10
399.849493
 20
30.586886
 30
0.0
 10
399.412754
 20
31.023625
 30
0.0
 10
399.412754
 20
31.561964
 30
0.0
  0
SPLINE
  5
220
100
AcDbEntity
  8
0
 62
5
100
AcDbSpline
 70
8
 71
3
 72
8
 73
4
 74
0
 40
0
 40
0
 40
0
 40
0
 40
1
 40
1
 40
1
 40
1
 10
399.412754
 20
31.561964
 30
0.0
 10
399.412754
 20
32.100303
 30
0.0
 10
399.849493
 20
32.537043
 30
0.0
 10
400.387480
 20
32.537043
 30
0.0
  0
SPLINE
  5
221
100
AcDbEntity
  8
0
 62
5
100
AcDbSpline
 70
8
 71
3
 72
8
 73
4
 74
0
 40
0
 40
0
 40
0
 40
0
 40
1
 40
1
 40
1
 40
1
 10
400.387480
 20
32.537043
 30
0.0
 10
400.926525
 20
32.537043
 30
0.0
 10
401.362558
 20
32.100303
 30
0.0
 10
401.362558
 20
31.561964
 30
0.0
  0
LWPOLYLINE
  5
222
100
AcDbEntity
  8
0
 62
5
100
AcDbPolyline
 90
1
 70
1
 10
350.689526
 20
38.928322
 30
0.0
  0
SPLINE
  5
223
100
AcDbEntity
  8
0
 62
5
100
AcDbSpline
 70
8
 71
3
 72
8
 73
4
 74
0
 40
0
 40
0
 40
0
 40
0
 40
1
 40
1
 40
1
 40
1
 10
569.849096
 20
2.149665
 30
0.0
 10
569.849096
 20
1.049703
 30
0.0
 10
568.948810
 20
0.149766
 30
0.0
 10
567.848844
 20
0.149766
 30
0.0
  0
LWPOLYLINE
  5
224
100
AcDbEntity
  8
0
 62
5
100
AcDbPolyline
 90
1
 70
1
 10
401.362558
 20
31.561964
 30
0.0
  0
SPLINE
  5
225
100
AcDbEntity
  8
0
 62
5
100
AcDbSpline
 70
8
 71
3
 72
8
 73
4
 74
0
 40
0
 40
0
 40
0
 40
0
 40
1
 40
1
 40
1
 40
1
 10
437.767608
 20
0.149766
 30
0.0
 10
436.667294
 20
0.149766
 30
0.0
 10
435.767357
 20
1.049703
 30
0.0
 10
435.767357
 20
2.149665
 30
0.0
  0
LWPOLYLINE
  5
226
100
AcDbEntity
  8
0
 62
5
100
AcDbPolyline
 90
2
 70
0
 10
567.848844
 20
0.149766
 30
0.0
 10
437.767608
 20
0.149766
 30
0.0
  0
SPLINE
  5
227
100
AcDbEntity
  8
0
 62
5
100
AcDbSpline
 70
8
 71
3
 72
8
 73
4
 74
0
 40
0
 40
0
 40
0
 40
0
 40
1
 40
1
 40
1
 40
1
 10
435.767357
 20
23.189697
 30
0.0
 10
435.767357
 20
24.289659
 30
0.0
 10
436.645422
 20
25.387152
 30
0.0
 10
437.718572
 20
25.628452
 30
0.0
  0
LWPOLYLINE
  5
228
100
AcDbEntity
  8
0
 62
5
100
AcDbPolyline
 90
2
 70
0
 10
435.767357
 20
2.149665
 30
0.0
 10
435.767357
 20
23.189697
 30
0.0
  0
SPLINE
  5
229
100
AcDbEntity
  8
0
 62
5
100
AcDbSpline
 70
8
 71
3
 72
8
 73
4
 74
0
 40
0
 40
0
 40
0
 40
0
 40
1
 40
1
 40
1
 40
1
 10
490.838829
 20
37.569987
 30
0.0
 10
491.911979
 20
37.811287
 30
0.0
 10
493.690330
 20
38.008490
 30
0.0
 10
494.789939
 20
38.008490
 30
0.0
  0
LWPOLYLINE
  5
22a
100
AcDbEntity
  8
0
 62
5
100
AcDbPolyline
 90
2
 70
0
 10
437.718572
 20
25.628452
 30
0.0
 10
490.838829
 20
37.569987
 30
0.0
  0
SPLINE
  5
22b
100
AcDbEntity
  8
0
 62
5
100
AcDbSpline
 70
8
 71
3
 72
8
 73
4
 74
0
 40
0
 40
0
 40
0
 40
0
 40
1
 40
1
 40
1
 40
1
 10
529.620762
 20
38.008490
 30
0.0
 10
530.720371
 20
38.008490
 30
0.0
 10
532.355497
 20
37.488848
 30
0.0
 10
533.253321
 20
36.853495
 30
0.0
  0
LWPOLYLINE
  5
22c
100
AcDbEntity
  8
0
 62
5
100
AcDbPolyline
 90
2
 70
0
 10
494.789939
 20
38.008490
 30
0.0
 10
529.620762
 20
38.008490
 30
0.0
  0
SPLINE
  5
22d
100
AcDbEntity
  8
0
 62
5
100
AcDbSpline
 70
8
 71
3
 72
8
 73
4
 74
0
 40
0
 40
0
 40
0
 40
0
 40
1
 40
1
 40
1
 40
1
 10
542.172254
 20
30.543708
 30
0.0
 10
543.070427
 20
29.908354
 30
0.0
 10
544.704847
 20
29.388360
 30
0.0
 10
545.805162
 20
29.388360
 30
0.0
  0
LWPOLYLINE
  5
22e
100
AcDbEntity
  8
0
 62
5
100
AcDbPolyline
 90
2
 70
0
 10
533.253321
 20
36.853495
 30
0.0
 10
542.172254
 20
30.543708
 30
0.0
  0
SPLINE
  5
22f
100
AcDbEntity
  8
0
 62
5
100
AcDbSpline
 70
8
 71
3
 72
8
 73
4
 74
0
 40
0
 40
0
 40
0
 40
0
 40
1
 40
1
 40
1
 40
1
 10
559.804448
 20
29.388360
 30
0.0
 10
560.904413
 20
29.388360
 30
0.0
 10
562.307408
 20
28.642234
 30
0.0
 10
562.922300
 20
27.729950
 30
0.0
  0
LWPOLYLINE
  5
230
100
AcDbEntity
  8
0
 62
5
100
AcDbPolyline
 90
2
 70
0
 10
545.805162
 20
29.388360
 30
0.0
 10
559.804448
 20
29.388360
 30
0.0
  0
SPLINE
  5
231
100
AcDbEntity
  8
0
 62
5
100
AcDbSpline
 70
8
 71
3
 72
8
 73
4
 74
0
 40
0
 40
0
 40
0
 40
0
 40
1
 40
1
 40
1
 40
1
 10
568.731495
 20
19.108761
 30
0.0
 10
569.346387
 20
18.196830
 30
0.0
 10
569.849452
 20
16.550415
 30
0.0
 10
569.849452
 20
15.450454
 30
0.0
  0
LWPOLYLINE
  5
232
100
AcDbEntity
  8
0
 62
5
100
AcDbPolyline
 90
2
 70
0
 10
562.922300
 20
27.729950
 30
0.0
 10
568.731495
 20
19.108761
 30
0.0
  0
SPLINE
  5
233
100
AcDbEntity
  8
0
 62
5
100
AcDbSpline
 70
8
 71
3
 72
8
 73
4
 74
0
 40
0
 40
0
 40
0
 40
0
 40
1
 40
1
 40
1
 40
1
 10
549.063307
 20
7.127256
 30
0.0
 10
548.524967
 20
7.127256
 30
0.0
 10
548.088225
 20
7.563643
 30
0.0
 10
548.088225
 20
8.102335
 30
0.0
  0
SPLINE
  5
234
100
AcDbEntity
  8
0
 62
5
100
AcDbSpline
 70
8
 71
3
 72
8
 73
4
 74
0
 40
0
 40
0
 40
0
 40
0
 40
1
 40
1
 40
1
 40
1
 10
548.088225
 20
8.102335
 30
0.0
 10
548.088225
 20
8.640674
 30
0.0
 10
548.524967
 20
9.077060
 30
0.0
 10
549.063307
 20
9.077060
 30
0.0
  0
LWPOLYLINE
  5
235
100
AcDbEntity
  8
0
 62
5
100
AcDbPolyline
 90
2
 70
0
 10
569.849452
 20
15.450454
 30
0.0
 10
569.849096
 20
2.149665
 30
0.0
  0
SPLINE
  5
236
100
AcDbEntity
  8
0
 62
5
100
AcDbSpline
 70
8
 71
3
 72
8
 73
4
 74
0
 40
0
 40
0
 40
0
 40
0
 40
1
 40
1
 40
1
 40
1
 10
550.121641
 20
9.077060
 30
0.0
 10
550.659976
 20
9.077060
 30
0.0
 10
551.096719
 20
8.640674
 30
0.0
 10
551.096719
 20
8.102335
 30
0.0
  0
SPLINE
  5
237
100
AcDbEntity
  8
0
 62
5
100
AcDbSpline
 70
8
 71
3
 72
8
 73
4
 74
0
 40
0
 40
0
 40
0
 40
0
 40
1
 40
1
 40
1
 40
1
 10
551.096719
 20
8.102335
 30
0.0
 10
551.096719
 20
7.563643
 30
0.0
 10
550.659976
 20
7.127256
 30
0.0
 10
550.121641
 20
7.127256
 30
0.0
  0
LWPOLYLINE
  5
238
100
AcDbEntity
  8
0
 62
5
100
AcDbPolyline
 90
2
 70
0
 10
549.063307
 20
9.077060
 30
0.0
 10
550.121641
 20
9.077060
 30
0.0
  0
SPLINE
  5
239
100
AcDbEntity
  8
0
 62
5
100
AcDbSpline
 70
8
 71
3
 72
8
 73
4
 74
0
 40
0
 40
0
 40
0
 40
0
 40
1
 40
1
 40
1
 40
1
 10
456.014645
 20
5.535945
 30
0.0
 10
456.014645
 20
4.997606
 30
0.0
 10
455.578611
 20
4.560867
 30
0.0
 10
455.039566
 20
4.560867
 30
0.0
  0
SPLINE
  5
23a
100
AcDbEntity
  8
0
 62
5
100
AcDbSpline
 70
8
 71
3
 72
8
 73
4
 74
0
 40
0
 40
0
 40
0
 40
0
 40
1
 40
1
 40
1
 40
1
 10
455.039566
 20
4.560867
 30
0.0
 10
454.501580
 20
4.560867
 30
0.0
 10
454.064841
 20
4.997606
 30
0.0
 10
454.064841
 20
5.535945
 30
0.0
  0
SPLINE
  5
23b
100
AcDbEntity
  8
0
 62
5
100
AcDbSpline
 70
8
 71
3
 72
8
 73
4
 74
0
 40
0
 40
0
 40
0
 40
0
 40
1
 40
1
 40
1
 40
1
 10
454.064841
 20
5.535945
 30
0.0
 10
454.064841
 20
6.074285
 30
0.0
 10
454.501580
 20
6.511024
 30
0.0
 10
455.039566
 20
6.511024
 30
0.0
  0
SPLINE
  5
23c
100
AcDbEntity
  8
0
 62
5
100
AcDbSpline
 70
8
 71
3
 72
8
 73
4
 74
0
 40
0
 40
0
 40
0
 40
0
 40
1
 40
1
 40
1
 40
1
 10
455.039566
 20
6.511024
 30
0.0
 10
455.578611
 20
6.511024
 30
0.0
 10
456.014645
 20
6.074285
 30
0.0
 10
456.014645
 20
5.535945
 30
0.0
  0
LWPOLYLINE
  5
23d
100
AcDbEntity
  8
0
 62
5
100
AcDbPolyline
 90
2
 70
0
 10
550.121641
 20
7.127256
 30
0.0
 10
549.063307
 20
7.127256
 30
0.0
  0
SPLINE
  5
23e
100
AcDbEntity
  8
0
 62
5
100
AcDbSpline
 70
8
 71
3
 72
8
 73
4
 74
0
 40
0
 40
0
 40
0
 40
0
 40
1
 40
1
 40
1
 40
1
 10
487.891809
 20
30.427961
 30
0.0
 10
487.891809
 20
29.889622
 30
0.0
 10
487.455420
 20
29.452883
 30
0.0
 10
486.916728
 20
29.452883
 30
0.0
  0
SPLINE
  5
23f
100
AcDbEntity
  8
0
 62
5
100
AcDbSpline
 70
8
 71
3
 72
8
 73
4
 74
0
 40
0
 40
0
 40
0
 40
0
 40
1
 40
1
 40
1
 40
1
 10
486.916728
 20
29.452883
 30
0.0
 10
486.378392
 20
29.452883
 30
0.0
 10
485.942002
 20
29.889622
 30
0.0
 10
485.942002
 20
30.427961
 30
0.0
  0
SPLINE
  5
240
100
AcDbEntity
  8
0
 62
5
100
AcDbSpline
 70
8
 71
3
 72
8
 73
4
 74
0
 40
0
 40
0
 40
0
 40
0
 40
1
 40
1
 40
1
 40
1
 10
485.942002
 20
30.427961
 30
0.0
 10
485.942002
 20
30.966300
 30
0.0
 10
486.378392
 20
31.403039
 30
0.0
 10
486.916728
 20
31.403039
 30
0.0
  0
SPLINE
  5
241
100
AcDbEntity
  8
0
 62
5
100
AcDbSpline
 70
8
 71
3
 72
8
 73
4
 74
0
 40
0
 40
0
 40
0
 40
0
 40
1
 40
1
 40
1
 40
1
 10
486.916728
 20
31.403039
 30
0.0
 10
487.455420
 20
31.403039
 30
0.0
 10
487.891809
 20
30.966300
 30
0.0
 10
487.891809
 20
30.427961
 30
0.0
  0
LWPOLYLINE
  5
242
100
AcDbEntity
  8
0
 62
5
100
AcDbPolyline
 90
1
 70
1
 10
456.014645
 20
5.535945
 30
0.0
  0
SPLINE
  5
243
100
AcDbEntity
  8
0
 62
5
100
AcDbSpline
 70
8
 71
3
 72
8
 73
4
 74
0
 40
0
 40
0
 40
0
 40
0
 40
1
 40
1
 40
1
 40
1
 10
203.354081
 20
74.450331
 30
0.0
 10
203.354081
 20
73.911991
 30
0.0
 10
202.917695
 20
73.475252
 30
0.0
 10
202.379003
 20
73.475252
 30
0.0
  0
SPLINE
  5
244
100
AcDbEntity
  8
0
 62
5
100
AcDbSpline
 70
8
 71
3
 72
8
 73
4
 74
0
 40
0
 40
0
 40
0
 40
0
 40
1
 40
1
 40
1
 40
1
 10
202.379003
 20
73.475252
 30
0.0
 10
201.840664
 20
73.475252
 30
0.0
 10
201.404277
 20
73.911991
 30
0.0
 10
201.404277
 20
74.450331
 30
0.0
  0
SPLINE
  5
245
100
AcDbEntity
  8
0
 62
5
100
AcDbSpline
 70
8
 71
3
 72
8
 73
4
 74
0
 40
0
 40
0
 40
0
 40
0
 40
1
 40
1
 40
1
 40
1
 10
201.404277
 20
74.450331
 30
0.0
 10
201.404277
 20
74.988670
 30
0.0
 10
201.840664
 20
75.425409
 30
0.0
 10
202.379003
 20
75.425409
 30
0.0
  0
SPLINE
  5
246
100
AcDbEntity
  8
0
 62
5
100
AcDbSpline
 70
8
 71
3
 72
8
 73
4
 74
0
 40
0
 40
0
 40
0
 40
0
 40
1
 40
1
 40
1
 40
1
 10
202.379003
 20
75.425409
 30
0.0
 10
202.917695
 20
75.425409
 30
0.0
 10
203.354081
 20
74.988670
 30
0.0
 10
203.354081
 20
74.450331
 30
0.0
  0
LWPOLYLINE
  5
247
100
AcDbEntity
  8
0
 62
5
100
AcDbPolyline
 90
1
 70
1
 10
487.891809
 20
30.427961
 30
0.0
  0
SPLINE
  5
248
100
AcDbEntity
  8
0
 62
5
100
AcDbSpline
 70
8
 71
3
 72
8
 73
4
 74
0
 40
0
 40
0
 40
0
 40
0
 40
1
 40
1
 40
1
 40
1
 10
258.438182
 20
90.229963
 30
0.0
 10
257.899843
 20
90.229963
 30
0.0
 10
257.463104
 20
90.666350
 30
0.0
 10
257.463104
 20
91.205042
 30
0.0
  0
SPLINE
  5
249
100
AcDbEntity
  8
0
 62
5
100
AcDbSpline
 70
8
 71
3
 72
8
 73
4
 74
0
 40
0
 40
0
 40
0
 40
0
 40
1
 40
1
 40
1
 40
1
 10
257.463104
 20
91.205042
 30
0.0
 10
257.463104
 20
91.743381
 30
0.0
 10
257.899843
 20
92.179767
 30
0.0
 10
258.438182
 20
92.179767
 30
0.0
  0
LWPOLYLINE
  5
24a
100
AcDbEntity
  8
0
 62
5
100
AcDbPolyline
 90
1
 70
1
 10
203.354081
 20
74.450331
 30
0.0
  0
SPLINE
  5
24b
100
AcDbEntity
  8
0
 62
5
100
AcDbSpline
 70
8
 71
3
 72
8
 73
4
 74
0
 40
0
 40
0
 40
0
 40
0
 40
1
 40
1
 40
1
 40
1
 10
259.496516
 20
92.179767
 30
0.0
 10
260.034856
 20
92.179767
 30
0.0
 10
260.471598
 20
91.743381
 30
0.0
 10
260.471598
 20
91.205042
 30
0.0
  0
SPLINE
  5
24c
100
AcDbEntity
  8
0
 62
5
100
AcDbSpline
 70
8
 71
3
 72
8
 73
4
 74
0
 40
0
 40
0
 40
0
 40
0
 40
1
 40
1
 40
1
 40
1
 10
260.471598
 20
91.205042
 30
0.0
 10
260.471598
 20
90.666350
 30
0.0
 10
260.034856
 20
90.229963
 30
0.0
 10
259.496516
 20
90.229963
 30
0.0
  0
LWPOLYLINE
  5
24d
100
AcDbEntity
  8
0
 62
5
100
AcDbPolyline
 90
2
 70
0
 10
258.438182
 20
92.179767
 30
0.0
 10
259.496516
 20
92.179767
 30
0.0
  0
SPLINE
  5
24e
100
AcDbEntity
  8
0
 62
5
100
AcDbSpline
 70
8
 71
3
 72
8
 73
4
 74
0
 40
0
 40
0
 40
0
 40
0
 40
1
 40
1
 40
1
 40
1
 10
260.251045
 20
0.376638
 30
0.0
 10
261.203902
 20
-0.172987
 30
0.0
 10
262.429453
 20
0.158977
 30
0.0
 10
262.974495
 20
1.114297
 30
0.0
  0
LWPOLYLINE
  5
24f
100
AcDbEntity
  8
0
 62
5
100
AcDbPolyline
 90
2
 70
0
 10
259.496516
 20
90.229963
 30
0.0
 10
258.438182
 20
90.229963
 30
0.0
  0
SPLINE
  5
250
100
AcDbEntity
  8
0
 62
5
100
AcDbSpline
 70
8
 71
3
 72
8
 73
4
 74
0
 40
0
 40
0
 40
0
 40
0
 40
1
 40
1
 40
1
 40
1
 10
278.091028
 20
27.610394
 30
0.0
 10
278.636070
 20
28.565717
 30
0.0
 10
279.081985
 20
30.247409
 30
0.0
 10
279.081985
 20
31.347724
 30
0.0
  0
LWPOLYLINE
  5
251
100
AcDbEntity
  8
0
 62
5
100
AcDbPolyline
 90
2
 70
0
 10
262.974495
 20
1.114297
 30
0.0
 10
278.091028
 20
27.610394
 30
0.0
  0
SPLINE
  5
252
100
AcDbEntity
  8
0
 62
5
100
AcDbSpline
 70
8
 71
3
 72
8
 73
4
 74
0
 40
0
 40
0
 40
0
 40
0
 40
1
 40
1
 40
1
 40
1
 10
279.083749
 20
98.585447
 30
0.0
 10
279.083749
 20
99.685409
 30
0.0
 10
278.580688
 20
101.331824
 30
0.0
 10
277.966149
 20
102.243755
 30
0.0
  0
LWPOLYLINE
  5
253
100
AcDbEntity
  8
0
 62
5
100
AcDbPolyline
 90
2
 70
0
 10
279.081985
 20
31.347724
 30
0.0
 10
279.083749
 20
98.585447
 30
0.0
  0
SPLINE
  5
254
100
AcDbEntity
  8
0
 62
5
100
AcDbSpline
 70
8
 71
3
 72
8
 73
4
 74
0
 40
0
 40
0
 40
0
 40
0
 40
1
 40
1
 40
1
 40
1
 10
272.156509
 20
110.864944
 30
0.0
 10
271.541617
 20
111.776875
 30
0.0
 10
270.138619
 20
112.523353
 30
0.0
 10
269.038660
 20
112.523353
 30
0.0
  0
LWPOLYLINE
  5
255
100
AcDbEntity
  8
0
 62
5
100
AcDbPolyline
 90
2
 70
0
 10
277.966149
 20
102.243755
 30
0.0
 10
272.156509
 20
110.864944
 30
0.0
  0
SPLINE
  5
256
100
AcDbEntity
  8
0
 62
5
100
AcDbSpline
 70
8
 71
3
 72
8
 73
4
 74
0
 40
0
 40
0
 40
0
 40
0
 40
1
 40
1
 40
1
 40
1
 10
255.039371
 20
112.523353
 30
0.0
 10
253.939053
 20
112.523353
 30
0.0
 10
252.304636
 20
113.043348
 30
0.0
 10
251.406460
 20
113.678348
 30
0.0
  0
LWPOLYLINE
  5
257
100
AcDbEntity
  8
0
 62
5
100
AcDbPolyline
 90
2
 70
0
 10
269.038660
 20
112.523353
 30
0.0
 10
255.039371
 20
112.523353
 30
0.0
  0
SPLINE
  5
258
100
AcDbEntity
  8
0
 62
5
100
AcDbSpline
 70
8
 71
3
 72
8
 73
4
 74
0
 40
0
 40
0
 40
0
 40
0
 40
1
 40
1
 40
1
 40
1
 10
242.487530
 20
119.988488
 30
0.0
 10
241.589706
 20
120.623489
 30
0.0
 10
239.954936
 20
121.143483
 30
0.0
 10
238.854971
 20
121.143483
 30
0.0
  0
LWPOLYLINE
  5
259
100
AcDbEntity
  8
0
 62
5
100
AcDbPolyline
 90
2
 70
0
 10
251.406460
 20
113.678348
 30
0.0
 10
242.487530
 20
119.988488
 30
0.0
  0
SPLINE
  5
25a
100
AcDbEntity
  8
0
 62
5
100
AcDbSpline
 70
8
 71
3
 72
8
 73
4
 74
0
 40
0
 40
0
 40
0
 40
0
 40
1
 40
1
 40
1
 40
1
 10
204.024497
 20
121.143483
 30
0.0
 10
202.924535
 20
121.143483
 30
0.0
 10
201.146178
 20
120.945928
 30
0.0
 10
200.073027
 20
120.704627
 30
0.0
  0
LWPOLYLINE
  5
25b
100
AcDbEntity
  8
0
 62
5
100
AcDbPolyline
 90
2
 70
0
 10
238.854971
 20
121.143483
 30
0.0
 10
204.024497
 20
121.143483
 30
0.0
  0
SPLINE
  5
25c
100
AcDbEntity
  8
0
 62
5
100
AcDbSpline
 70
8
 71
3
 72
8
 73
4
 74
0
 40
0
 40
0
 40
0
 40
0
 40
1
 40
1
 40
1
 40
1
 10
146.952778
 20
108.763092
 30
0.0
 10
145.879627
 20
108.521792
 30
0.0
 10
145.001563
 20
107.424300
 30
0.0
 10
145.001563
 20
106.324338
 30
0.0
  0
LWPOLYLINE
  5
25d
100
AcDbEntity
  8
0
 62
5
100
AcDbPolyline
 90
2
 70
0
 10
200.073027
 20
120.704627
 30
0.0
 10
146.952778
 20
108.763092
 30
0.0
  0
SPLINE
  5
25e
100
AcDbEntity
  8
0
 62
5
100
AcDbSpline
 70
8
 71
3
 72
8
 73
4
 74
0
 40
0
 40
0
 40
0
 40
0
 40
1
 40
1
 40
1
 40
1
 10
145.001563
 20
14.225295
 30
0.0
 10
145.001563
 20
13.125333
 30
0.0
 10
145.901499
 20
12.225392
 30
0.0
 10
147.001814
 20
12.225392
 30
0.0
  0
LWPOLYLINE
  5
25f
100
AcDbEntity
  8
0
 62
5
100
AcDbPolyline
 90
2
 70
0
 10
145.001563
 20
106.324338
 30
0.0
 10
145.001563
 20
14.225295
 30
0.0
  0
SPLINE
  5
260
100
AcDbEntity
  8
0
 62
5
100
AcDbSpline
 70
8
 71
3
 72
8
 73
4
 74
0
 40
0
 40
0
 40
0
 40
0
 40
1
 40
1
 40
1
 40
1
 10
237.713473
 20
12.225392
 30
0.0
 10
238.813435
 20
12.225392
 30
0.0
 10
240.493360
 20
11.775601
 30
0.0
 10
241.445861
 20
11.225976
 30
0.0
  0
LWPOLYLINE
  5
261
100
AcDbEntity
  8
0
 62
5
100
AcDbPolyline
 90
2
 70
0
 10
147.001814
 20
12.225392
 30
0.0
 10
237.713473
 20
12.225392
 30
0.0
  0
SPLINE
  5
262
100
AcDbEntity
  8
0
 62
5
100
AcDbSpline
 70
8
 71
3
 72
8
 73
4
 74
0
 40
0
 40
0
 40
0
 40
0
 40
1
 40
1
 40
1
 40
1
 10
165.254223
 20
88.673990
 30
0.0
 10
165.254223
 20
88.135651
 30
0.0
 10
164.817837
 20
87.698912
 30
0.0
 10
164.279145
 20
87.698912
 30
0.0
  0
SPLINE
  5
263
100
AcDbEntity
  8
0
 62
5
100
AcDbSpline
 70
8
 71
3
 72
8
 73
4
 74
0
 40
0
 40
0
 40
0
 40
0
 40
1
 40
1
 40
1
 40
1
 10
164.279145
 20
87.698912
 30
0.0
 10
163.740806
 20
87.698912
 30
0.0
 10
163.304419
 20
88.135651
 30
0.0
 10
163.304419
 20
88.673990
 30
0.0
  0
SPLINE
  5
264
100
AcDbEntity
  8
0
 62
5
100
AcDbSpline
 70
8
 71
3
 72
8
 73
4
 74
0
 40
0
 40
0
 40
0
 40
0
 40
1
 40
1
 40
1
 40
1
 10
163.304419
 20
88.673990
 30
0.0
 10
163.304419
 20
89.212329
 30
0.0
 10
163.740806
 20
89.649069
 30
0.0
 10
164.279145
 20
89.649069
 30
0.0
  0
SPLINE
  5
265
100
AcDbEntity
  8
0
 62
5
100
AcDbSpline
 70
8
 71
3
 72
8
 73
4
 74
0
 40
0
 40
0
 40
0
 40
0
 40
1
 40
1
 40
1
 40
1
 10
164.279145
 20
89.649069
 30
0.0
 10
164.817837
 20
89.649069
 30
0.0
 10
165.254223
 20
89.212329
 30
0.0
 10
165.254223
 20
88.673990
 30
0.0
  0
LWPOLYLINE
  5
266
100
AcDbEntity
  8
0
 62
5
100
AcDbPolyline
 90
2
 70
0
 10
241.445861
 20
11.225976
 30
0.0
 10
260.251045
 20
0.376638
 30
0.0
  0
SPLINE
  5
267
100
AcDbEntity
  8
0
 62
5
100
AcDbSpline
 70
8
 71
3
 72
8
 73
4
 74
0
 40
0
 40
0
 40
0
 40
0
 40
1
 40
1
 40
1
 40
1
 10
197.131215
 20
113.566002
 30
0.0
 10
197.131215
 20
113.027663
 30
0.0
 10
196.694829
 20
112.590924
 30
0.0
 10
196.156137
 20
112.590924
 30
0.0
  0
SPLINE
  5
268
100
AcDbEntity
  8
0
 62
5
100
AcDbSpline
 70
8
 71
3
 72
8
 73
4
 74
0
 40
0
 40
0
 40
0
 40
0
 40
1
 40
1
 40
1
 40
1
 10
196.156137
 20
112.590924
 30
0.0
 10
195.617797
 20
112.590924
 30
0.0
 10
195.181411
 20
113.027663
 30
0.0
 10
195.181411
 20
113.566002
 30
0.0
  0
SPLINE
  5
269
100
AcDbEntity
  8
0
 62
5
100
AcDbSpline
 70
8
 71
3
 72
8
 73
4
 74
0
 40
0
 40
0
 40
0
 40
0
 40
1
 40
1
 40
1
 40
1
 10
195.181411
 20
113.566002
 30
0.0
 10
195.181411
 20
114.104342
 30
0.0
 10
195.617797
 20
114.541081
 30
0.0
 10
196.156137
 20
114.541081
 30
0.0
  0
SPLINE
  5
26a
100
AcDbEntity
  8
0
 62
5
100
AcDbSpline
 70
8
 71
3
 72
8
 73
4
 74
0
 40
0
 40
0
 40
0
 40
0
 40
1
 40
1
 40
1
 40
1
 10
196.156137
 20
114.541081
 30
0.0
 10
196.694829
 20
114.541081
 30
0.0
 10
197.131215
 20
114.104342
 30
0.0
 10
197.131215
 20
113.566002
 30
0.0
  0
LWPOLYLINE
  5
26b
100
AcDbEntity
  8
0
 62
5
100
AcDbPolyline
 90
1
 70
1
 10
165.254223
 20
88.673990
 30
0.0
  0
SPLINE
  5
26c
100
AcDbEntity
  8
0
 62
5
100
AcDbSpline
 70
8
 71
3
 72
8
 73
4
 74
0
 40
0
 40
0
 40
0
 40
0
 40
1
 40
1
 40
1
 40
1
 10
165.254223
 20
31.270183
 30
0.0
 10
165.254223
 20
30.731848
 30
0.0
 10
164.817837
 20
30.295105
 30
0.0
 10
164.279145
 20
30.295105
 30
0.0
  0
SPLINE
  5
26d
100
AcDbEntity
  8
0
 62
5
100
AcDbSpline
 70
8
 71
3
 72
8
 73
4
 74
0
 40
0
 40
0
 40
0
 40
0
 40
1
 40
1
 40
1
 40
1
 10
164.279145
 20
30.295105
 30
0.0
 10
163.740806
 20
30.295105
 30
0.0
 10
163.304419
 20
30.731848
 30
0.0
 10
163.304419
 20
31.270183
 30
0.0
  0
SPLINE
  5
26e
100
AcDbEntity
  8
0
 62
5
100
AcDbSpline
 70
8
 71
3
 72
8
 73
4
 74
0
 40
0
 40
0
 40
0
 40
0
 40
1
 40
1
 40
1
 40
1
 10
163.304419
 20
31.270183
 30
0.0
 10
163.304419
 20
31.808523
 30
0.0
 10
163.740806
 20
32.245265
 30
0.0
 10
164.279145
 20
32.245265
 30
0.0
  0
SPLINE
  5
26f
100
AcDbEntity
  8
0
 62
5
100
AcDbSpline
 70
8
 71
3
 72
8
 73
4
 74
0
 40
0
 40
0
 40
0
 40
0
 40
1
 40
1
 40
1
 40
1
 10
164.279145
 20
32.245265
 30
0.0
 10
164.817837
 20
32.245265
 30
0.0
 10
165.254223
 20
31.808523
 30
0.0
 10
165.254223
 20
31.270183
 30
0.0
  0
LWPOLYLINE
  5
270
100
AcDbEntity
  8
0
 62
5
100
AcDbPolyline
 90
1
 70
1
 10
197.131215
 20
113.566002
 30
0.0
  0
SPLINE
  5
271
100
AcDbEntity
  8
0
 62
5
100
AcDbSpline
 70
8
 71
3
 72
8
 73
4
 74
0
 40
0
 40
0
 40
0
 40
0
 40
1
 40
1
 40
1
 40
1
 10
203.862240
 20
38.890047
 30
0.0
 10
203.862240
 20
38.351711
 30
0.0
 10
203.425854
 20
37.914972
 30
0.0
 10
202.887162
 20
37.914972
 30
0.0
  0
SPLINE
  5
272
100
AcDbEntity
  8
0
 62
5
100
AcDbSpline
 70
8
 71
3
 72
8
 73
4
 74
0
 40
0
 40
0
 40
0
 40
0
 40
1
 40
1
 40
1
 40
1
 10
202.887162
 20
37.914972
 30
0.0
 10
202.348823
 20
37.914972
 30
0.0
 10
201.912436
 20
38.351711
 30
0.0
 10
201.912436
 20
38.890047
 30
0.0
  0
SPLINE
  5
273
100
AcDbEntity
  8
0
 62
5
100
AcDbSpline
 70
8
 71
3
 72
8
 73
4
 74
0
 40
0
 40
0
 40
0
 40
0
 40
1
 40
1
 40
1
 40
1
 10
201.912436
 20
38.890047
 30
0.0
 10
201.912436
 20
39.428390
 30
0.0
 10
202.348823
 20
39.865129
 30
0.0
 10
202.887162
 20
39.865129
 30
0.0
  0
SPLINE
  5
274
100
AcDbEntity
  8
0
 62
5
100
AcDbSpline
 70
8
 71
3
 72
8
 73
4
 74
0
 40
0
 40
0
 40
0
 40
0
 40
1
 40
1
 40
1
 40
1
 10
202.887162
 20
39.865129
 30
0.0
 10
203.425854
 20
39.865129
 30
0.0
 10
203.862240
 20
39.428390
 30
0.0
 10
203.862240
 20
38.890047
 30
0.0
  0
LWPOLYLINE
  5
275
100
AcDbEntity
  8
0
 62
5
100
AcDbPolyline
 90
1
 70
1
 10
165.254223
 20
31.270183
 30
0.0
  0
SPLINE
  5
276
100
AcDbEntity
  8
0
 62
5
100
AcDbSpline
 70
8
 71
3
 72
8
 73
4
 74
0
 40
0
 40
0
 40
0
 40
0
 40
1
 40
1
 40
1
 40
1
 10
254.535142
 20
31.523760
 30
0.0
 10
254.535142
 20
30.985425
 30
0.0
 10
254.099108
 20
30.548682
 30
0.0
 10
253.560067
 20
30.548682
 30
0.0
  0
SPLINE
  5
277
100
AcDbEntity
  8
0
 62
5
100
AcDbSpline
 70
8
 71
3
 72
8
 73
4
 74
0
 40
0
 40
0
 40
0
 40
0
 40
1
 40
1
 40
1
 40
1
 10
253.560067
 20
30.548682
 30
0.0
 10
253.022080
 20
30.548682
 30
0.0
 10
252.585341
 20
30.985425
 30
0.0
 10
252.585341
 20
31.523760
 30
0.0
  0
SPLINE
  5
278
100
AcDbEntity
  8
0
 62
5
100
AcDbSpline
 70
8
 71
3
 72
8
 73
4
 74
0
 40
0
 40
0
 40
0
 40
0
 40
1
 40
1
 40
1
 40
1
 10
252.585341
 20
31.523760
 30
0.0
 10
252.585341
 20
32.062099
 30
0.0
 10
253.022080
 20
32.498842
 30
0.0
 10
253.560067
 20
32.498842
 30
0.0
  0
SPLINE
  5
279
100
AcDbEntity
  8
0
 62
5
100
AcDbSpline
 70
8
 71
3
 72
8
 73
4
 74
0
 40
0
 40
0
 40
0
 40
0
 40
1
 40
1
 40
1
 40
1
 10
253.560067
 20
32.498842
 30
0.0
 10
254.099108
 20
32.498842
 30
0.0
 10
254.535142
 20
32.062099
 30
0.0
 10
254.535142
 20
31.523760
 30
0.0
  0
LWPOLYLINE
  5
27a
100
AcDbEntity
  8
0
 62
5
100
AcDbPolyline
 90
1
 70
1
 10
203.862240
 20
38.890047
 30
0.0
  0
LWPOLYLINE
  5
27b
100
AcDbEntity
  8
0
 62
5
100
AcDbPolyline
 90
1
 70
1
 10
254.535142
 20
31.523760
 30
0.0
  0
LWPOLYLINE
  5
27c
100
AcDbEntity
  8
0
 62
5
100
AcDbPolyline
 90
4
 70
1
 10
200.647223
 20
20.452666
 30
0.0
 10
200.647223
 20
33.175001
 30
0.0
 10
185.081917
 20
33.175001
 30
0.0
 10
185.081917
 20
20.452666
 30
0.0
  0
LWPOLYLINE
  5
27d
100
AcDbEntity
  8
0
 62
5
100
AcDbPolyline
 90
4
 70
1
 10
181.597564
 20
15.690159
 30
0.0
 10
181.597564
 20
28.412502
 30
0.0
 10
166.032257
 20
28.412502
 30
0.0
 10
166.032257
 20
15.690159
 30
0.0
  0
LWPOLYLINE
  5
27e
100
AcDbEntity
  8
0
 62
5
100
AcDbPolyline
 90
4
 70
1
 10
162.547202
 20
15.690159
 30
0.0
 10
162.547202
 20
28.412502
 30
0.0
 10
146.981896
 20
28.412502
 30
0.0
 10
146.981896
 20
15.690159
 30
0.0
  0
LWPOLYLINE
  5
27f
100
AcDbEntity
  8
0
 62
5
100
AcDbPolyline
 90
4
 70
1
 10
162.547202
 20
34.740524
 30
0.0
 10
162.547202
 20
47.462863
 30
0.0
 10
146.981896
 20
47.462863
 30
0.0
 10
146.981896
 20
34.740524
 30
0.0
  0
LWPOLYLINE
  5
280
100
AcDbEntity
  8
0
 62
5
100
AcDbPolyline
 90
4
 70
1
 10
181.597564
 20
34.740524
 30
0.0
 10
181.597564
 20
47.462863
 30
0.0
 10
166.032257
 20
47.462863
 30
0.0
 10
166.032257
 20
34.740524
 30
0.0
  0
LWPOLYLINE
  5
281
100
AcDbEntity
  8
0
 62
5
100
AcDbPolyline
 90
4
 70
1
 10
200.647576
 20
39.503027
 30
0.0
 10
200.647576
 20
52.225366
 30
0.0
 10
185.082269
 20
52.225366
 30
0.0
 10
185.082269
 20
39.503027
 30
0.0
  0
LWPOLYLINE
  5
282
100
AcDbEntity
  8
0
 62
5
100
AcDbPolyline
 90
4
 70
1
 10
219.697411
 20
41.884635
 30
0.0
 10
219.697411
 20
54.606970
 30
0.0
 10
204.132105
 20
54.606970
 30
0.0
 10
204.132105
 20
41.884635
 30
0.0
  0
LWPOLYLINE
  5
283
100
AcDbEntity
  8
0
 62
5
100
AcDbPolyline
 90
4
 70
1
 10
238.747600
 20
39.503027
 30
0.0
 10
238.747600
 20
52.225366
 30
0.0
 10
223.182293
 20
52.225366
 30
0.0
 10
223.182293
 20
39.503027
 30
0.0
  0
LWPOLYLINE
  5
284
100
AcDbEntity
  8
0
 62
5
100
AcDbPolyline
 90
4
 70
1
 10
257.797612
 20
37.121952
 30
0.0
 10
257.797612
 20
49.844291
 30
0.0
 10
242.232305
 20
49.844291
 30
0.0
 10
242.232305
 20
37.121952
 30
0.0
  0
LWPOLYLINE
  5
285
100
AcDbEntity
  8
0
 62
5
100
AcDbPolyline
 90
4
 70
1
 10
276.847620
 20
65.696970
 30
0.0
 10
276.847620
 20
78.419309
 30
0.0
 10
261.282317
 20
78.419309
 30
0.0
 10
261.282317
 20
65.696970
 30
0.0
  0
LWPOLYLINE
  5
286
100
AcDbEntity
  8
0
 62
5
100
AcDbPolyline
 90
4
 70
1
 10
257.797612
 20
56.171964
 30
0.0
 10
257.797612
 20
68.894303
 30
0.0
 10
242.232305
 20
68.894303
 30
0.0
 10
242.232305
 20
56.171964
 30
0.0
  0
LWPOLYLINE
  5
287
100
AcDbEntity
  8
0
 62
5
100
AcDbPolyline
 90
4
 70
1
 10
238.747600
 20
58.553215
 30
0.0
 10
238.747600
 20
71.275558
 30
0.0
 10
223.182293
 20
71.275558
 30
0.0
 10
223.182293
 20
58.553215
 30
0.0
  0
LWPOLYLINE
  5
288
100
AcDbEntity
  8
0
 62
5
100
AcDbPolyline
 90
4
 70
1
 10
219.697411
 20
60.934467
 30
0.0
 10
219.697411
 20
73.656806
 30
0.0
 10
204.132105
 20
73.656806
 30
0.0
 10
204.132105
 20
60.934467
 30
0.0
  0
LWPOLYLINE
  5
289
100
AcDbEntity
  8
0
 62
5
100
AcDbPolyline
 90
4
 70
1
 10
200.647576
 20
58.553215
 30
0.0
 10
200.647576
 20
71.275558
 30
0.0
 10
185.082269
 20
71.275558
 30
0.0
 10
185.082269
 20
58.553215
 30
0.0
  0
LWPOLYLINE
  5
28a
100
AcDbEntity
  8
0
 62
5
100
AcDbPolyline
 90
4
 70
1
 10
181.597564
 20
53.790712
 30
0.0
 10
181.597564
 20
66.513051
 30
0.0
 10
166.032257
 20
66.513051
 30
0.0
 10
166.032257
 20
53.790712
 30
0.0
  0
LWPOLYLINE
  5
28b
100
AcDbEntity
  8
0
 62
5
100
AcDbPolyline
 90
4
 70
1
 10
162.547202
 20
53.790712
 30
0.0
 10
162.547202
 20
66.513051
 30
0.0
 10
146.981896
 20
66.513051
 30
0.0
 10
146.981896
 20
53.790712
 30
0.0
  0
LWPOLYLINE
  5
28c
100
AcDbEntity
  8
0
 62
5
100
AcDbPolyline
 90
4
 70
1
 10
276.847620
 20
46.647134
 30
0.0
 10
276.847620
 20
59.369473
 30
0.0
 10
261.282317
 20
59.369473
 30
0.0
 10
261.282317
 20
46.647134
 30
0.0
  0
LWPOLYLINE
  5
28d
100
AcDbEntity
  8
0
 62
5
100
AcDbPolyline
 90
4
 70
1
 10
257.797612
 20
75.221983
 30
0.0
 10
257.797612
 20
87.944322
 30
0.0
 10
242.232305
 20
87.944322
 30
0.0
 10
242.232305
 20
75.221983
 30
0.0
  0
LWPOLYLINE
  5
28e
100
AcDbEntity
  8
0
 62
5
100
AcDbPolyline
 90
4
 70
1
 10
238.747600
 20
77.603235
 30
0.0
 10
238.747600
 20
90.325573
 30
0.0
 10
223.182293
 20
90.325573
 30
0.0
 10
223.182293
 20
77.603235
 30
0.0
  0
LWPOLYLINE
  5
28f
100
AcDbEntity
  8
0
 62
5
100
AcDbPolyline
 90
4
 70
1
 10
219.697411
 20
79.984486
 30
0.0
 10
219.697411
 20
92.706825
 30
0.0
 10
204.132105
 20
92.706825
 30
0.0
 10
204.132105
 20
79.984486
 30
0.0
  0
LWPOLYLINE
  5
290
100
AcDbEntity
  8
0
 62
5
100
AcDbPolyline
 90
4
 70
1
 10
200.647223
 20
77.603235
 30
0.0
 10
200.647223
 20
90.325573
 30
0.0
 10
185.081917
 20
90.325573
 30
0.0
 10
185.081917
 20
77.603235
 30
0.0
  0
LWPOLYLINE
  5
291
100
AcDbEntity
  8
0
 62
5
100
AcDbPolyline
 90
4
 70
1
 10
181.597564
 20
72.840724
 30
0.0
 10
181.597564
 20
85.563063
 30
0.0
 10
166.032257
 20
85.563063
 30
0.0
 10
166.032257
 20
72.840724
 30
0.0
  0
LWPOLYLINE
  5
292
100
AcDbEntity
  8
0
 62
5
100
AcDbPolyline
 90
4
 70
1
 10
162.547202
 20
72.840724
 30
0.0
 10
162.547202
 20
85.563063
 30
0.0
 10
146.981896
 20
85.563063
 30
0.0
 10
146.981896
 20
72.840724
 30
0.0
  0
LWPOLYLINE
  5
293
100
AcDbEntity
  8
0
 62
5
100
AcDbPolyline
 90
4
 70
1
 10
276.847620
 20
84.746989
 30
0.0
 10
276.847620
 20
97.469328
 30
0.0
 10
261.282317
 20
97.469328
 30
0.0
 10
261.282317
 20
84.746989
 30
0.0
  0
LWPOLYLINE
  5
294
100
AcDbEntity
  8
0
 62
5
100
AcDbPolyline
 90
4
 70
1
 10
257.797612
 20
94.272002
 30
0.0
 10
257.797612
 20
106.994341
 30
0.0
 10
242.232305
 20
106.994341
 30
0.0
 10
242.232305
 20
94.272002
 30
0.0
  0
LWPOLYLINE
  5
295
100
AcDbEntity
  8
0
 62
5
100
AcDbPolyline
 90
4
 70
1
 10
238.747600
 20
96.653254
 30
0.0
 10
238.747600
 20
109.375592
 30
0.0
 10
223.182293
 20
109.375592
 30
0.0
 10
223.182293
 20
96.653254
 30
0.0
  0
LWPOLYLINE
  5
296
100
AcDbEntity
  8
0
 62
5
100
AcDbPolyline
 90
4
 70
1
 10
219.697411
 20
99.034505
 30
0.0
 10
219.697411
 20
111.756844
 30
0.0
 10
204.132105
 20
111.756844
 30
0.0
 10
204.132105
 20
99.034505
 30
0.0
  0
LWPOLYLINE
  5
297
100
AcDbEntity
  8
0
 62
5
100
AcDbPolyline
 90
4
 70
1
 10
200.647223
 20
96.653254
 30
0.0
 10
200.647223
 20
109.375592
 30
0.0
 10
185.081917
 20
109.375592
 30
0.0
 10
185.081917
 20
96.653254
 30
0.0
  0
LWPOLYLINE
  5
298
100
AcDbEntity
  8
0
 62
5
100
AcDbPolyline
 90
4
 70
1
 10
181.597564
 20
91.890751
 30
0.0
 10
181.597564
 20
104.613089
 30
0.0
 10
166.032257
 20
104.613089
 30
0.0
 10
166.032257
 20
91.890751
 30
0.0
  0
LWPOLYLINE
  5
299
100
AcDbEntity
  8
0
 62
5
100
AcDbPolyline
 90
4
 70
1
 10
162.547202
 20
91.890751
 30
0.0
 10
162.547202
 20
104.613089
 30
0.0
 10
146.981896
 20
104.613089
 30
0.0
 10
146.981896
 20
91.890751
 30
0.0
  0
SPLINE
  5
29a
100
AcDbEntity
  8
0
 62
5
100
AcDbSpline
 70
8
 71
3
 72
8
 73
4
 74
0
 40
0
 40
0
 40
0
 40
0
 40
1
 40
1
 40
1
 40
1
 10
220.503156
 20
35.544886
 30
0.0
 10
215.314720
 20
35.544886
 30
0.0
 10
210.126286
 20
35.544886
 30
0.0
 10
204.937850
 20
35.544886
 30
0.0
  0
LWPOLYLINE
  5
29b
100
AcDbEntity
  8
0
 62
5
100
AcDbPolyline
 90
5
 70
0
 10
210.946361
 20
20.464371
 30
0.0
 10
226.511667
 20
20.464371
 30
0.0
 10
226.511667
 20
33.186706
 30
0.0
 10
220.495783
 20
33.186706
 30
0.0
 10
220.503156
 20
35.544886
 30
0.0
  0
LWPOLYLINE
  5
29c
100
AcDbEntity
  8
0
 62
5
100
AcDbPolyline
 90
4
 70
0
 10
204.937850
 20
35.544886
 30
0.0
 10
204.937850
 20
22.822551
 30
0.0
 10
210.907478
 20
22.822551
 30
0.0
 10
210.946361
 20
20.464371
 30
0.0
  0
LWPOLYLINE
  5
29d
100
AcDbEntity
  8
0
 62
5
100
AcDbPolyline
 90
4
 70
1
 10
267.910346
 20
16.362106
 30
0.0
 10
256.892478
 20
22.723279
 30
0.0
 10
249.109825
 20
9.243328
 30
0.0
 10
260.127696
 20
2.882159
 30
0.0
  0
LWPOLYLINE
  5
29e
100
AcDbEntity
  8
0
 62
5
100
AcDbPolyline
 90
4
 70
1
 10
251.406438
 20
25.916996
 30
0.0
 10
240.388571
 20
32.278183
 30
0.0
 10
232.605922
 20
18.798218
 30
0.0
 10
243.623789
 20
12.437070
 30
0.0
  0
SPLINE
  5
29f
100
AcDbEntity
  8
0
 62
5
100
AcDbSpline
 70
8
 71
3
 72
8
 73
4
 74
0
 40
0
 40
0
 40
0
 40
0
 40
1
 40
1
 40
1
 40
1
 10
58.503084
 20
74.488295
 30
0.0
 10
58.503084
 20
73.949956
 30
0.0
 10
58.066698
 20
73.513217
 30
0.0
 10
57.528006
 20
73.513217
 30
0.0
  0
SPLINE
  5
2a0
100
AcDbEntity
  8
0
 62
5
100
AcDbSpline
 70
8
 71
3
 72
8
 73
4
 74
0
 40
0
 40
0
 40
0
 40
0
 40
1
 40
1
 40
1
 40
1
 10
57.528006
 20
73.513217
 30
0.0
 10
56.989667
 20
73.513217
 30
0.0
 10
56.553280
 20
73.949956
 30
0.0
 10
56.553280
 20
74.488295
 30
0.0
  0
SPLINE
  5
2a1
100
AcDbEntity
  8
0
 62
5
100
AcDbSpline
 70
8
 71
3
 72
8
 73
4
 74
0
 40
0
 40
0
 40
0
 40
0
 40
1
 40
1
 40
1
 40
1
 10
56.553280
 20
74.488295
 30
0.0
 10
56.553280
 20
75.026635
 30
0.0
 10
56.989667
 20
75.463374
 30
0.0
 10
57.528006
 20
75.463374
 30
0.0
  0
SPLINE
  5
2a2
100
AcDbEntity
  8
0
 62
5
100
AcDbSpline
 70
8
 71
3
 72
8
 73
4
 74
0
 40
0
 40
0
 40
0
 40
0
 40
1
 40
1
 40
1
 40
1
 10
57.528006
 20
75.463374
 30
0.0
 10
58.066698
 20
75.463374
 30
0.0
 10
58.503084
 20
75.026635
 30
0.0
 10
58.503084
 20
74.488295
 30
0.0
  0
LWPOLYLINE
  5
2a3
100
AcDbEntity
  8
0
 62
5
100
AcDbPolyline
 90
4
 70
1
 10
277.465225
 20
32.799180
 30
0.0
 10
266.447358
 20
39.160367
 30
0.0
 10
258.664705
 20
25.680402
 30
0.0
 10
269.682575
 20
19.319254
 30
0.0
  0
SPLINE
  5
2a4
100
AcDbEntity
  8
0
 62
5
100
AcDbSpline
 70
8
 71
3
 72
8
 73
4
 74
0
 40
0
 40
0
 40
0
 40
0
 40
1
 40
1
 40
1
 40
1
 10
113.586970
 20
90.268020
 30
0.0
 10
113.048631
 20
90.268020
 30
0.0
 10
112.611892
 20
90.704406
 30
0.0
 10
112.611892
 20
91.243098
 30
0.0
  0
SPLINE
  5
2a5
100
AcDbEntity
  8
0
 62
5
100
AcDbSpline
 70
8
 71
3
 72
8
 73
4
 74
0
 40
0
 40
0
 40
0
 40
0
 40
1
 40
1
 40
1
 40
1
 10
112.611892
 20
91.243098
 30
0.0
 10
112.611892
 20
91.781438
 30
0.0
 10
113.048631
 20
92.217824
 30
0.0
 10
113.586970
 20
92.217824
 30
0.0
  0
LWPOLYLINE
  5
2a6
100
AcDbEntity
  8
0
 62
5
100
AcDbPolyline
 90
1
 70
1
 10
58.503084
 20
74.488295
 30
0.0
  0
SPLINE
  5
2a7
100
AcDbEntity
  8
0
 62
5
100
AcDbSpline
 70
8
 71
3
 72
8
 73
4
 74
0
 40
0
 40
0
 40
0
 40
0
 40
1
 40
1
 40
1
 40
1
 10
114.645304
 20
92.217824
 30
0.0
 10
115.183643
 20
92.217824
 30
0.0
 10
115.620383
 20
91.781438
 30
0.0
 10
115.620383
 20
91.243098
 30
0.0
  0
SPLINE
  5
2a8
100
AcDbEntity
  8
0
 62
5
100
AcDbSpline
 70
8
 71
3
 72
8
 73
4
 74
0
 40
0
 40
0
 40
0
 40
0
 40
1
 40
1
 40
1
 40
1
 10
115.620383
 20
91.243098
 30
0.0
 10
115.620383
 20
90.704406
 30
0.0
 10
115.183643
 20
90.268020
 30
0.0
 10
114.645304
 20
90.268020
 30
0.0
  0
LWPOLYLINE
  5
2a9
100
AcDbEntity
  8
0
 62
5
100
AcDbPolyline
 90
2
 70
0
 10
113.586970
 20
92.217824
 30
0.0
 10
114.645304
 20
92.217824
 30
0.0
  0
SPLINE
  5
2aa
100
AcDbEntity
  8
0
 62
5
100
AcDbSpline
 70
8
 71
3
 72
8
 73
4
 74
0
 40
0
 40
0
 40
0
 40
0
 40
1
 40
1
 40
1
 40
1
 10
115.399833
 20
0.414708
 30
0.0
 10
116.352686
 20
-0.134920
 30
0.0
 10
117.578237
 20
0.197044
 30
0.0
 10
118.123279
 20
1.152367
 30
0.0
  0
LWPOLYLINE
  5
2ab
100
AcDbEntity
  8
0
 62
5
100
AcDbPolyline
 90
2
 70
0
 10
114.645304
 20
90.268020
 30
0.0
 10
113.586970
 20
90.268020
 30
0.0
  0
SPLINE
  5
2ac
100
AcDbEntity
  8
0
 62
5
100
AcDbSpline
 70
8
 71
3
 72
8
 73
4
 74
0
 40
0
 40
0
 40
0
 40
0
 40
1
 40
1
 40
1
 40
1
 10
133.239816
 20
27.648464
 30
0.0
 10
133.784858
 20
28.603787
 30
0.0
 10
134.230770
 20
30.285480
 30
0.0
 10
134.230770
 20
31.385795
 30
0.0
  0
LWPOLYLINE
  5
2ad
100
AcDbEntity
  8
0
 62
5
100
AcDbPolyline
 90
2
 70
0
 10
118.123279
 20
1.152367
 30
0.0
 10
133.239816
 20
27.648464
 30
0.0
  0
SPLINE
  5
2ae
100
AcDbEntity
  8
0
 62
5
100
AcDbSpline
 70
8
 71
3
 72
8
 73
4
 74
0
 40
0
 40
0
 40
0
 40
0
 40
1
 40
1
 40
1
 40
1
 10
134.232534
 20
98.623518
 30
0.0
 10
134.232534
 20
99.723479
 30
0.0
 10
133.729472
 20
101.369894
 30
0.0
 10
133.114933
 20
102.281825
 30
0.0
  0
LWPOLYLINE
  5
2af
100
AcDbEntity
  8
0
 62
5
100
AcDbPolyline
 90
2
 70
0
 10
134.230770
 20
31.385795
 30
0.0
 10
134.232534
 20
98.623518
 30
0.0
  0
SPLINE
  5
2b0
100
AcDbEntity
  8
0
 62
5
100
AcDbSpline
 70
8
 71
3
 72
8
 73
4
 74
0
 40
0
 40
0
 40
0
 40
0
 40
1
 40
1
 40
1
 40
1
 10
127.305385
 20
110.903014
 30
0.0
 10
126.690493
 20
111.814945
 30
0.0
 10
125.287495
 20
112.561424
 30
0.0
 10
124.187533
 20
112.561424
 30
0.0
  0
LWPOLYLINE
  5
2b1
100
AcDbEntity
  8
0
 62
5
100
AcDbPolyline
 90
2
 70
0
 10
133.114933
 20
102.281825
 30
0.0
 10
127.305385
 20
110.903014
 30
0.0
  0
SPLINE
  5
2b2
100
AcDbEntity
  8
0
 62
5
100
AcDbSpline
 70
8
 71
3
 72
8
 73
4
 74
0
 40
0
 40
0
 40
0
 40
0
 40
1
 40
1
 40
1
 40
1
 10
110.188243
 20
112.561424
 30
0.0
 10
109.087929
 20
112.561424
 30
0.0
 10
107.453508
 20
113.081418
 30
0.0
 10
106.555336
 20
113.716419
 30
0.0
  0
LWPOLYLINE
  5
2b3
100
AcDbEntity
  8
0
 62
5
100
AcDbPolyline
 90
2
 70
0
 10
124.187533
 20
112.561424
 30
0.0
 10
110.188243
 20
112.561424
 30
0.0
  0
SPLINE
  5
2b4
100
AcDbEntity
  8
0
 62
5
100
AcDbSpline
 70
8
 71
3
 72
8
 73
4
 74
0
 40
0
 40
0
 40
0
 40
0
 40
1
 40
1
 40
1
 40
1
 10
97.636402
 20
120.026559
 30
0.0
 10
96.738582
 20
120.661559
 30
0.0
 10
95.103809
 20
121.181554
 30
0.0
 10
94.003847
 20
121.181554
 30
0.0
  0
LWPOLYLINE
  5
2b5
100
AcDbEntity
  8
0
 62
5
100
AcDbPolyline
 90
2
 70
0
 10
106.555336
 20
113.716419
 30
0.0
 10
97.636402
 20
120.026559
 30
0.0
  0
SPLINE
  5
2b6
100
AcDbEntity
  8
0
 62
5
100
AcDbSpline
 70
8
 71
3
 72
8
 73
4
 74
0
 40
0
 40
0
 40
0
 40
0
 40
1
 40
1
 40
1
 40
1
 10
59.173370
 20
121.181554
 30
0.0
 10
58.073408
 20
121.181554
 30
0.0
 10
56.295054
 20
120.983998
 30
0.0
 10
55.221903
 20
120.742698
 30
0.0
  0
LWPOLYLINE
  5
2b7
100
AcDbEntity
  8
0
 62
5
100
AcDbPolyline
 90
2
 70
0
 10
94.003847
 20
121.181554
 30
0.0
 10
59.173370
 20
121.181554
 30
0.0
  0
SPLINE
  5
2b8
100
AcDbEntity
  8
0
 62
5
100
AcDbSpline
 70
8
 71
3
 72
8
 73
4
 74
0
 40
0
 40
0
 40
0
 40
0
 40
1
 40
1
 40
1
 40
1
 10
2.101650
 20
108.801163
 30
0.0
 10
1.028500
 20
108.559863
 30
0.0
 10
0.150435
 20
107.462370
 30
0.0
 10
0.150435
 20
106.362409
 30
0.0
  0
LWPOLYLINE
  5
2b9
100
AcDbEntity
  8
0
 62
5
100
AcDbPolyline
 90
2
 70
0
 10
55.221903
 20
120.742698
 30
0.0
 10
2.101650
 20
108.801163
 30
0.0
  0
SPLINE
  5
2ba
100
AcDbEntity
  8
0
 62
5
100
AcDbSpline
 70
8
 71
3
 72
8
 73
4
 74
0
 40
0
 40
0
 40
0
 40
0
 40
1
 40
1
 40
1
 40
1
 10
0.150435
 20
14.263362
 30
0.0
 10
0.150435
 20
13.163400
 30
0.0
 10
1.050372
 20
12.263463
 30
0.0
 10
2.150686
 20
12.263463
 30
0.0
  0
LWPOLYLINE
  5
2bb
100
AcDbEntity
  8
0
 62
5
100
AcDbPolyline
 90
2
 70
0
 10
0.150435
 20
106.362409
 30
0.0
 10
0.150435
 20
14.263362
 30
0.0
  0
SPLINE
  5
2bc
100
AcDbEntity
  8
0
 62
5
100
AcDbSpline
 70
8
 71
3
 72
8
 73
4
 74
0
 40
0
 40
0
 40
0
 40
0
 40
1
 40
1
 40
1
 40
1
 10
92.862257
 20
12.263463
 30
0.0
 10
93.962219
 20
12.263463
 30
0.0
 10
95.642148
 20
11.813671
 30
0.0
 10
96.594649
 20
11.264043
 30
0.0
  0
LWPOLYLINE
  5
2bd
100
AcDbEntity
  8
0
 62
5
100
AcDbPolyline
 90
2
 70
0
 10
2.150686
 20
12.263463
 30
0.0
 10
92.862257
 20
12.263463
 30
0.0
  0
SPLINE
  5
2be
100
AcDbEntity
  8
0
 62
5
100
AcDbSpline
 70
8
 71
3
 72
8
 73
4
 74
0
 40
0
 40
0
 40
0
 40
0
 40
1
 40
1
 40
1
 40
1
 10
20.403008
 20
88.712057
 30
0.0
 10
20.403008
 20
88.173718
 30
0.0
 10
19.966622
 20
87.736979
 30
0.0
 10
19.427930
 20
87.736979
 30
0.0
  0
SPLINE
  5
2bf
100
AcDbEntity
  8
0
 62
5
100
AcDbSpline
 70
8
 71
3
 72
8
 73
4
 74
0
 40
0
 40
0
 40
0
 40
0
 40
1
 40
1
 40
1
 40
1
 10
19.427930
 20
87.736979
 30
0.0
 10
18.889591
 20
87.736979
 30
0.0
 10
18.453204
 20
88.173718
 30
0.0
 10
18.453204
 20
88.712057
 30
0.0
  0
SPLINE
  5
2c0
100
AcDbEntity
  8
0
 62
5
100
AcDbSpline
 70
8
 71
3
 72
8
 73
4
 74
0
 40
0
 40
0
 40
0
 40
0
 40
1
 40
1
 40
1
 40
1
 10
18.453204
 20
88.712057
 30
0.0
 10
18.453204
 20
89.250397
 30
0.0
 10
18.889591
 20
89.687136
 30
0.0
 10
19.427930
 20
89.687136
 30
0.0
  0
SPLINE
  5
2c1
100
AcDbEntity
  8
0
 62
5
100
AcDbSpline
 70
8
 71
3
 72
8
 73
4
 74
0
 40
0
 40
0
 40
0
 40
0
 40
1
 40
1
 40
1
 40
1
 10
19.427930
 20
89.687136
 30
0.0
 10
19.966622
 20
89.687136
 30
0.0
 10
20.403008
 20
89.250397
 30
0.0
 10
20.403008
 20
88.712057
 30
0.0
  0
LWPOLYLINE
  5
2c2
100
AcDbEntity
  8
0
 62
5
100
AcDbPolyline
 90
2
 70
0
 10
96.594649
 20
11.264043
 30
0.0
 10
115.399833
 20
0.414708
 30
0.0
  0
SPLINE
  5
2c3
100
AcDbEntity
  8
0
 62
5
100
AcDbSpline
 70
8
 71
3
 72
8
 73
4
 74
0
 40
0
 40
0
 40
0
 40
0
 40
1
 40
1
 40
1
 40
1
 10
52.279999
 20
113.604073
 30
0.0
 10
52.279999
 20
113.065734
 30
0.0
 10
51.843613
 20
112.628995
 30
0.0
 10
51.304921
 20
112.628995
 30
0.0
  0
SPLINE
  5
2c4
100
AcDbEntity
  8
0
 62
5
100
AcDbSpline
 70
8
 71
3
 72
8
 73
4
 74
0
 40
0
 40
0
 40
0
 40
0
 40
1
 40
1
 40
1
 40
1
 10
51.304921
 20
112.628995
 30
0.0
 10
50.766582
 20
112.628995
 30
0.0
 10
50.330195
 20
113.065734
 30
0.0
 10
50.330195
 20
113.604073
 30
0.0
  0
SPLINE
  5
2c5
100
AcDbEntity
  8
0
 62
5
100
AcDbSpline
 70
8
 71
3
 72
8
 73
4
 74
0
 40
0
 40
0
 40
0
 40
0
 40
1
 40
1
 40
1
 40
1
 10
50.330195
 20
113.604073
 30
0.0
 10
50.330195
 20
114.142412
 30
0.0
 10
50.766582
 20
114.579151
 30
0.0
 10
51.304921
 20
114.579151
 30
0.0
  0
SPLINE
  5
2c6
100
AcDbEntity
  8
0
 62
5
100
AcDbSpline
 70
8
 71
3
 72
8
 73
4
 74
0
 40
0
 40
0
 40
0
 40
0
 40
1
 40
1
 40
1
 40
1
 10
51.304921
 20
114.579151
 30
0.0
 10
51.843613
 20
114.579151
 30
0.0
 10
52.279999
 20
114.142412
 30
0.0
 10
52.279999
 20
113.604073
 30
0.0
  0
LWPOLYLINE
  5
2c7
100
AcDbEntity
  8
0
 62
5
100
AcDbPolyline
 90
1
 70
1
 10
20.403008
 20
88.712057
 30
0.0
  0
SPLINE
  5
2c8
100
AcDbEntity
  8
0
 62
5
100
AcDbSpline
 70
8
 71
3
 72
8
 73
4
 74
0
 40
0
 40
0
 40
0
 40
0
 40
1
 40
1
 40
1
 40
1
 10
20.403008
 20
31.308254
 30
0.0
 10
20.403008
 20
30.769915
 30
0.0
 10
19.966622
 20
30.333176
 30
0.0
 10
19.427930
 20
30.333176
 30
0.0
  0
SPLINE
  5
2c9
100
AcDbEntity
  8
0
 62
5
100
AcDbSpline
 70
8
 71
3
 72
8
 73
4
 74
0
 40
0
 40
0
 40
0
 40
0
 40
1
 40
1
 40
1
 40
1
 10
19.427930
 20
30.333176
 30
0.0
 10
18.889591
 20
30.333176
 30
0.0
 10
18.453204
 20
30.769915
 30
0.0
 10
18.453204
 20
31.308254
 30
0.0
  0
SPLINE
  5
2ca
100
AcDbEntity
  8
0
 62
5
100
AcDbSpline
 70
8
 71
3
 72
8
 73
4
 74
0
 40
0
 40
0
 40
0
 40
0
 40
1
 40
1
 40
1
 40
1
 10
18.453204
 20
31.308254
 30
0.0
 10
18.453204
 20
31.846593
 30
0.0
 10
18.889591
 20
32.283332
 30
0.0
 10
19.427930
 20
32.283332
 30
0.0
  0
SPLINE
  5
2cb
100
AcDbEntity
  8
0
 62
5
100
AcDbSpline
 70
8
 71
3
 72
8
 73
4
 74
0
 40
0
 40
0
 40
0
 40
0
 40
1
 40
1
 40
1
 40
1
 10
19.427930
 20
32.283332
 30
0.0
 10
19.966622
 20
32.283332
 30
0.0
 10
20.403008
 20
31.846593
 30
0.0
 10
20.403008
 20
31.308254
 30
0.0
  0
LWPOLYLINE
  5
2cc
100
AcDbEntity
  8
0
 62
5
100
AcDbPolyline
 90
1
 70
1
 10
52.279999
 20
113.604073
 30
0.0
  0
SPLINE
  5
2cd
100
AcDbEntity
  8
0
 62
5
100
AcDbSpline
 70
8
 71
3
 72
8
 73
4
 74
0
 40
0
 40
0
 40
0
 40
0
 40
1
 40
1
 40
1
 40
1
 10
59.011032
 20
38.928118
 30
0.0
 10
59.011032
 20
38.389778
 30
0.0
 10
58.574645
 20
37.953039
 30
0.0
 10
58.035953
 20
37.953039
 30
0.0
  0
SPLINE
  5
2ce
100
AcDbEntity
  8
0
 62
5
100
AcDbSpline
 70
8
 71
3
 72
8
 73
4
 74
0
 40
0
 40
0
 40
0
 40
0
 40
1
 40
1
 40
1
 40
1
 10
58.035953
 20
37.953039
 30
0.0
 10
57.497614
 20
37.953039
 30
0.0
 10
57.061228
 20
38.389778
 30
0.0
 10
57.061228
 20
38.928118
 30
0.0
  0
SPLINE
  5
2cf
100
AcDbEntity
  8
0
 62
5
100
AcDbSpline
 70
8
 71
3
 72
8
 73
4
 74
0
 40
0
 40
0
 40
0
 40
0
 40
1
 40
1
 40
1
 40
1
 10
57.061228
 20
38.928118
 30
0.0
 10
57.061228
 20
39.466457
 30
0.0
 10
57.497614
 20
39.903196
 30
0.0
 10
58.035953
 20
39.903196
 30
0.0
  0
SPLINE
  5
2d0
100
AcDbEntity
  8
0
 62
5
100
AcDbSpline
 70
8
 71
3
 72
8
 73
4
 74
0
 40
0
 40
0
 40
0
 40
0
 40
1
 40
1
 40
1
 40
1
 10
58.035953
 20
39.903196
 30
0.0
 10
58.574645
 20
39.903196
 30
0.0
 10
59.011032
 20
39.466457
 30
0.0
 10
59.011032
 20
38.928118
 30
0.0
  0
LWPOLYLINE
  5
2d1
100
AcDbEntity
  8
0
 62
5
100
AcDbPolyline
 90
1
 70
1
 10
20.403008
 20
31.308254
 30
0.0
  0
SPLINE
  5
2d2
100
AcDbEntity
  8
0
 62
5
100
AcDbSpline
 70
8
 71
3
 72
8
 73
4
 74
0
 40
0
 40
0
 40
0
 40
0
 40
1
 40
1
 40
1
 40
1
 10
109.683930
 20
31.561831
 30
0.0
 10
109.683930
 20
31.023492
 30
0.0
 10
109.247896
 20
30.586752
 30
0.0
 10
108.708851
 20
30.586752
 30
0.0
  0
SPLINE
  5
2d3
100
AcDbEntity
  8
0
 62
5
100
AcDbSpline
 70
8
 71
3
 72
8
 73
4
 74
0
 40
0
 40
0
 40
0
 40
0
 40
1
 40
1
 40
1
 40
1
 10
108.708851
 20
30.586752
 30
0.0
 10
108.170865
 20
30.586752
 30
0.0
 10
107.734126
 20
31.023492
 30
0.0
 10
107.734126
 20
31.561831
 30
0.0
  0
SPLINE
  5
2d4
100
AcDbEntity
  8
0
 62
5
100
AcDbSpline
 70
8
 71
3
 72
8
 73
4
 74
0
 40
0
 40
0
 40
0
 40
0
 40
1
 40
1
 40
1
 40
1
 10
107.734126
 20
31.561831
 30
0.0
 10
107.734126
 20
32.100170
 30
0.0
 10
108.170865
 20
32.536909
 30
0.0
 10
108.708851
 20
32.536909
 30
0.0
  0
SPLINE
  5
2d5
100
AcDbEntity
  8
0
 62
5
100
AcDbSpline
 70
8
 71
3
 72
8
 73
4
 74
0
 40
0
 40
0
 40
0
 40
0
 40
1
 40
1
 40
1
 40
1
 10
108.708851
 20
32.536909
 30
0.0
 10
109.247896
 20
32.536909
 30
0.0
 10
109.683930
 20
32.100170
 30
0.0
 10
109.683930
 20
31.561831
 30
0.0
  0
LWPOLYLINE
  5
2d6
100
AcDbEntity
  8
0
 62
5
100
AcDbPolyline
 90
1
 70
1
 10
59.011032
 20
38.928118
 30
0.0
  0
LWPOLYLINE
  5
2d7
100
AcDbEntity
  8
0
 62
5
100
AcDbPolyline
 90
1
 70
1
 10
109.683930
 20
31.561831
 30
0.0
  0
SPLINE
  5
2d8
100
AcDbEntity
  8
0
 62
5
100
AcDbSpline
 70
8
 71
3
 72
8
 73
4
 74
0
 40
0
 40
0
 40
0
 40
0
 40
1
 40
1
 40
1
 40
1
 10
312.591110
 20
272.641219
 30
0.0
 10
312.591695
 20
273.171550
 30
0.0
 10
312.309103
 20
273.661846
 30
0.0
 10
311.849920
 20
273.927181
 30
0.0
  0
SPLINE
  5
2d9
100
AcDbEntity
  8
0
 62
5
100
AcDbSpline
 70
8
 71
3
 72
8
 73
4
 74
0
 40
0
 40
0
 40
0
 40
0
 40
1
 40
1
 40
1
 40
1
 10
311.849920
 20
273.927181
 30
0.0
 10
311.390737
 20
274.192516
 30
0.0
 10
310.824831
 20
274.192516
 30
0.0
 10
310.365648
 20
273.927181
 30
0.0
  0
SPLINE
  5
2da
100
AcDbEntity
  8
0
 62
5
100
AcDbSpline
 70
8
 71
3
 72
8
 73
4
 74
0
 40
0
 40
0
 40
0
 40
0
 40
1
 40
1
 40
1
 40
1
 10
310.365648
 20
273.927181
 30
0.0
 10
309.906465
 20
273.661846
 30
0.0
 10
309.623873
 20
273.171550
 30
0.0
 10
309.624458
 20
272.641219
 30
0.0
  0
SPLINE
  5
2db
100
AcDbEntity
  8
0
 62
5
100
AcDbSpline
 70
8
 71
3
 72
8
 73
4
 74
0
 40
0
 40
0
 40
0
 40
0
 40
1
 40
1
 40
1
 40
1
 10
309.624458
 20
272.641219
 30
0.0
 10
309.623873
 20
272.110888
 30
0.0
 10
309.906465
 20
271.620591
 30
0.0
 10
310.365648
 20
271.355256
 30
0.0
  0
SPLINE
  5
2dc
100
AcDbEntity
  8
0
 62
5
100
AcDbSpline
 70
8
 71
3
 72
8
 73
4
 74
0
 40
0
 40
0
 40
0
 40
0
 40
1
 40
1
 40
1
 40
1
 10
310.365648
 20
271.355256
 30
0.0
 10
310.824831
 20
271.089922
 30
0.0
 10
311.390737
 20
271.089922
 30
0.0
 10
311.849920
 20
271.355256
 30
0.0
  0
SPLINE
  5
2dd
100
AcDbEntity
  8
0
 62
5
100
AcDbSpline
 70
8
 71
3
 72
8
 73
4
 74
0
 40
0
 40
0
 40
0
 40
0
 40
1
 40
1
 40
1
 40
1
 10
311.849920
 20
271.355256
 30
0.0
 10
312.309103
 20
271.620591
 30
0.0
 10
312.591695
 20
272.110888
 30
0.0
 10
312.591110
 20
272.641219
 30
0.0
  0
LWPOLYLINE
  5
2de
100
AcDbEntity
  8
0
 62
5
100
AcDbPolyline
 90
20
 70
1
 10
60.848924
 20
36.188116
 30
0.0
 10
60.848924
 20
35.582957
 30
0.0
 10
60.086638
 20
35.582957
 30
0.0
 10
60.086638
 20
22.849678
 30
0.0
 10
60.848924
 20
22.849678
 30
0.0
 10
60.848924
 20
22.245221
 30
0.0
 10
67.147031
 20
22.245221
 30
0.0
 10
67.147031
 20
20.491498
 30
0.0
 10
67.909317
 20
20.491498
 30
0.0
 10
67.909317
 20
19.887042
 30
0.0
 10
80.931362
 20
19.887042
 30
0.0
 10
80.931362
 20
20.491498
 30
0.0
 10
81.660452
 20
20.491498
 30
0.0
 10
81.660452
 20
33.224777
 30
0.0
 10
80.931362
 20
33.224777
 30
0.0
 10
80.931362
 20
33.829890
 30
0.0
 10
74.599417
 20
33.829890
 30
0.0
 10
74.599417
 20
35.582957
 30
0.0
 10
73.870972
 20
35.582957
 30
0.0
 10
73.870972
 20
36.188116
 30
0.0
  0
SPLINE
  5
2df
100
AcDbEntity
  8
0
 62
5
100
AcDbSpline
 70
8
 71
3
 72
8
 73
4
 74
0
 40
0
 40
0
 40
0
 40
0
 40
1
 40
1
 40
1
 40
1
 10
312.790672
 20
234.568205
 30
0.0
 10
312.791257
 20
235.098536
 30
0.0
 10
312.508665
 20
235.588833
 30
0.0
 10
312.049482
 20
235.854168
 30
0.0
  0
SPLINE
  5
2e0
100
AcDbEntity
  8
0
 62
5
100
AcDbSpline
 70
8
 71
3
 72
8
 73
4
 74
0
 40
0
 40
0
 40
0
 40
0
 40
1
 40
1
 40
1
 40
1
 10
312.049482
 20
235.854168
 30
0.0
 10
311.590299
 20
236.119502
 30
0.0
 10
311.024394
 20
236.119502
 30
0.0
 10
310.565211
 20
235.854168
 30
0.0
  0
SPLINE
  5
2e1
100
AcDbEntity
  8
0
 62
5
100
AcDbSpline
 70
8
 71
3
 72
8
 73
4
 74
0
 40
0
 40
0
 40
0
 40
0
 40
1
 40
1
 40
1
 40
1
 10
310.565211
 20
235.854168
 30
0.0
 10
310.106028
 20
235.588833
 30
0.0
 10
309.823436
 20
235.098536
 30
0.0
 10
309.824021
 20
234.568205
 30
0.0
  0
SPLINE
  5
2e2
100
AcDbEntity
  8
0
 62
5
100
AcDbSpline
 70
8
 71
3
 72
8
 73
4
 74
0
 40
0
 40
0
 40
0
 40
0
 40
1
 40
1
 40
1
 40
1
 10
309.824021
 20
234.568205
 30
0.0
 10
309.823436
 20
234.037874
 30
0.0
 10
310.106028
 20
233.547577
 30
0.0
 10
310.565211
 20
233.282243
 30
0.0
  0
SPLINE
  5
2e3
100
AcDbEntity
  8
0
 62
5
100
AcDbSpline
 70
8
 71
3
 72
8
 73
4
 74
0
 40
0
 40
0
 40
0
 40
0
 40
1
 40
1
 40
1
 40
1
 10
310.565211
 20
233.282243
 30
0.0
 10
311.024394
 20
233.016908
 30
0.0
 10
311.590299
 20
233.016908
 30
0.0
 10
312.049482
 20
233.282243
 30
0.0
  0
SPLINE
  5
2e4
100
AcDbEntity
  8
0
 62
5
100
AcDbSpline
 70
8
 71
3
 72
8
 73
4
 74
0
 40
0
 40
0
 40
0
 40
0
 40
1
 40
1
 40
1
 40
1
 10
312.049482
 20
233.282243
 30
0.0
 10
312.508665
 20
233.547577
 30
0.0
 10
312.791257
 20
234.037874
 30
0.0
 10
312.790672
 20
234.568205
 30
0.0
  0
LWPOLYLINE
  5
2e5
100
AcDbEntity
  8
0
 62
5
100
AcDbPolyline
 90
1
 70
1
 10
312.591110
 20
272.641219
 30
0.0
  0
SPLINE
  5
2e6
100
AcDbEntity
  8
0
 62
5
100
AcDbSpline
 70
8
 71
3
 72
8
 73
4
 74
0
 40
0
 40
0
 40
0
 40
0
 40
1
 40
1
 40
1
 40
1
 10
388.936801
 20
234.568205
 30
0.0
 10
388.936801
 20
235.098147
 30
0.0
 10
388.654080
 20
235.587833
 30
0.0
 10
388.195137
 20
235.852804
 30
0.0
  0
SPLINE
  5
2e7
100
AcDbEntity
  8
0
 62
5
100
AcDbSpline
 70
8
 71
3
 72
8
 73
4
 74
0
 40
0
 40
0
 40
0
 40
0
 40
1
 40
1
 40
1
 40
1
 10
388.195137
 20
235.852804
 30
0.0
 10
387.736194
 20
236.117775
 30
0.0
 10
387.170753
 20
236.117775
 30
0.0
 10
386.711810
 20
235.852804
 30
0.0
  0
SPLINE
  5
2e8
100
AcDbEntity
  8
0
 62
5
100
AcDbSpline
 70
8
 71
3
 72
8
 73
4
 74
0
 40
0
 40
0
 40
0
 40
0
 40
1
 40
1
 40
1
 40
1
 10
386.711810
 20
235.852804
 30
0.0
 10
386.252867
 20
235.587833
 30
0.0
 10
385.970146
 20
235.098147
 30
0.0
 10
385.970146
 20
234.568205
 30
0.0
  0
SPLINE
  5
2e9
100
AcDbEntity
  8
0
 62
5
100
AcDbSpline
 70
8
 71
3
 72
8
 73
4
 74
0
 40
0
 40
0
 40
0
 40
0
 40
1
 40
1
 40
1
 40
1
 10
385.970146
 20
234.568205
 30
0.0
 10
385.970146
 20
234.038263
 30
0.0
 10
386.252867
 20
233.548577
 30
0.0
 10
386.711810
 20
233.283606
 30
0.0
  0
SPLINE
  5
2ea
100
AcDbEntity
  8
0
 62
5
100
AcDbSpline
 70
8
 71
3
 72
8
 73
4
 74
0
 40
0
 40
0
 40
0
 40
0
 40
1
 40
1
 40
1
 40
1
 10
386.711810
 20
233.283606
 30
0.0
 10
387.170753
 20
233.018635
 30
0.0
 10
387.736194
 20
233.018635
 30
0.0
 10
388.195137
 20
233.283606
 30
0.0
  0
SPLINE
  5
2eb
100
AcDbEntity
  8
0
 62
5
100
AcDbSpline
 70
8
 71
3
 72
8
 73
4
 74
0
 40
0
 40
0
 40
0
 40
0
 40
1
 40
1
 40
1
 40
1
 10
388.195137
 20
233.283606
 30
0.0
 10
388.654080
 20
233.548577
 30
0.0
 10
388.936801
 20
234.038263
 30
0.0
 10
388.936801
 20
234.568205
 30
0.0
  0
LWPOLYLINE
  5
2ec
100
AcDbEntity
  8
0
 62
5
100
AcDbPolyline
 90
1
 70
1
 10
312.790672
 20
234.568205
 30
0.0
  0
SPLINE
  5
2ed
100
AcDbEntity
  8
0
 62
5
100
AcDbSpline
 70
8
 71
3
 72
8
 73
4
 74
0
 40
0
 40
0
 40
0
 40
0
 40
1
 40
1
 40
1
 40
1
 10
393.316054
 20
293.310589
 30
0.0
 10
393.316639
 20
293.840920
 30
0.0
 10
393.034047
 20
294.331217
 30
0.0
 10
392.574864
 20
294.596552
 30
0.0
  0
SPLINE
  5
2ee
100
AcDbEntity
  8
0
 62
5
100
AcDbSpline
 70
8
 71
3
 72
8
 73
4
 74
0
 40
0
 40
0
 40
0
 40
0
 40
1
 40
1
 40
1
 40
1
 10
392.574864
 20
294.596552
 30
0.0
 10
392.115681
 20
294.861886
 30
0.0
 10
391.549776
 20
294.861886
 30
0.0
 10
391.090593
 20
294.596552
 30
0.0
  0
SPLINE
  5
2ef
100
AcDbEntity
  8
0
 62
5
100
AcDbSpline
 70
8
 71
3
 72
8
 73
4
 74
0
 40
0
 40
0
 40
0
 40
0
 40
1
 40
1
 40
1
 40
1
 10
391.090593
 20
294.596552
 30
0.0
 10
390.631410
 20
294.331217
 30
0.0
 10
390.348818
 20
293.840920
 30
0.0
 10
390.349403
 20
293.310589
 30
0.0
  0
SPLINE
  5
2f0
100
AcDbEntity
  8
0
 62
5
100
AcDbSpline
 70
8
 71
3
 72
8
 73
4
 74
0
 40
0
 40
0
 40
0
 40
0
 40
1
 40
1
 40
1
 40
1
 10
390.349403
 20
293.310589
 30
0.0
 10
390.348818
 20
292.780258
 30
0.0
 10
390.631410
 20
292.289962
 30
0.0
 10
391.090593
 20
292.024627
 30
0.0
  0
SPLINE
  5
2f1
100
AcDbEntity
  8
0
 62
5
100
AcDbSpline
 70
8
 71
3
 72
8
 73
4
 74
0
 40
0
 40
0
 40
0
 40
0
 40
1
 40
1
 40
1
 40
1
 10
391.090593
 20
292.024627
 30
0.0
 10
391.549776
 20
291.759292
 30
0.0
 10
392.115681
 20
291.759292
 30
0.0
 10
392.574864
 20
292.024627
 30
0.0
  0
SPLINE
  5
2f2
100
AcDbEntity
  8
0
 62
5
100
AcDbSpline
 70
8
 71
3
 72
8
 73
4
 74
0
 40
0
 40
0
 40
0
 40
0
 40
1
 40
1
 40
1
 40
1
 10
392.574864
 20
292.024627
 30
0.0
 10
393.034047
 20
292.289962
 30
0.0
 10
393.316639
 20
292.780258
 30
0.0
 10
393.316054
 20
293.310589
 30
0.0
  0
LWPOLYLINE
  5
2f3
100
AcDbEntity
  8
0
 62
5
100
AcDbPolyline
 90
1
 70
1
 10
388.936801
 20
234.568205
 30
0.0
  0
SPLINE
  5
2f4
100
AcDbEntity
  8
0
 62
5
100
AcDbSpline
 70
8
 71
3
 72
8
 73
4
 74
0
 40
0
 40
0
 40
0
 40
0
 40
1
 40
1
 40
1
 40
1
 10
331.639652
 20
234.562614
 30
0.0
 10
331.639652
 20
235.092556
 30
0.0
 10
331.356931
 20
235.582242
 30
0.0
 10
330.897988
 20
235.847213
 30
0.0
  0
SPLINE
  5
2f5
100
AcDbEntity
  8
0
 62
5
100
AcDbSpline
 70
8
 71
3
 72
8
 73
4
 74
0
 40
0
 40
0
 40
0
 40
0
 40
1
 40
1
 40
1
 40
1
 10
330.897988
 20
235.847213
 30
0.0
 10
330.439045
 20
236.112184
 30
0.0
 10
329.873604
 20
236.112184
 30
0.0
 10
329.414661
 20
235.847213
 30
0.0
  0
SPLINE
  5
2f6
100
AcDbEntity
  8
0
 62
5
100
AcDbSpline
 70
8
 71
3
 72
8
 73
4
 74
0
 40
0
 40
0
 40
0
 40
0
 40
1
 40
1
 40
1
 40
1
 10
329.414661
 20
235.847213
 30
0.0
 10
328.955718
 20
235.582242
 30
0.0
 10
328.672998
 20
235.092556
 30
0.0
 10
328.672998
 20
234.562614
 30
0.0
  0
SPLINE
  5
2f7
100
AcDbEntity
  8
0
 62
5
100
AcDbSpline
 70
8
 71
3
 72
8
 73
4
 74
0
 40
0
 40
0
 40
0
 40
0
 40
1
 40
1
 40
1
 40
1
 10
328.672998
 20
234.562614
 30
0.0
 10
328.672998
 20
234.032673
 30
0.0
 10
328.955718
 20
233.542986
 30
0.0
 10
329.414661
 20
233.278015
 30
0.0
  0
SPLINE
  5
2f8
100
AcDbEntity
  8
0
 62
5
100
AcDbSpline
 70
8
 71
3
 72
8
 73
4
 74
0
 40
0
 40
0
 40
0
 40
0
 40
1
 40
1
 40
1
 40
1
 10
329.414661
 20
233.278015
 30
0.0
 10
329.873604
 20
233.013045
 30
0.0
 10
330.439045
 20
233.013045
 30
0.0
 10
330.897988
 20
233.278015
 30
0.0
  0
SPLINE
  5
2f9
100
AcDbEntity
  8
0
 62
5
100
AcDbSpline
 70
8
 71
3
 72
8
 73
4
 74
0
 40
0
 40
0
 40
0
 40
0
 40
1
 40
1
 40
1
 40
1
 10
330.897988
 20
233.278015
 30
0.0
 10
331.356931
 20
233.542986
 30
0.0
 10
331.639652
 20
234.032673
 30
0.0
 10
331.639652
 20
234.562614
 30
0.0
  0
LWPOLYLINE
  5
2fa
100
AcDbEntity
  8
0
 62
5
100
AcDbPolyline
 90
1
 70
1
 10
393.316054
 20
293.310589
 30
0.0
  0
SPLINE
  5
2fb
100
AcDbEntity
  8
0
 62
5
100
AcDbSpline
 70
8
 71
3
 72
8
 73
4
 74
0
 40
0
 40
0
 40
0
 40
0
 40
1
 40
1
 40
1
 40
1
 10
331.671495
 20
293.234781
 30
0.0
 10
331.672010
 20
293.765065
 30
0.0
 10
331.389402
 20
294.255289
 30
0.0
 10
330.930248
 20
294.520580
 30
0.0
  0
SPLINE
  5
2fc
100
AcDbEntity
  8
0
 62
5
100
AcDbSpline
 70
8
 71
3
 72
8
 73
4
 74
0
 40
0
 40
0
 40
0
 40
0
 40
1
 40
1
 40
1
 40
1
 10
330.930248
 20
294.520580
 30
0.0
 10
330.471094
 20
294.785871
 30
0.0
 10
329.905244
 20
294.785871
 30
0.0
 10
329.446090
 20
294.520580
 30
0.0
  0
SPLINE
  5
2fd
100
AcDbEntity
  8
0
 62
5
100
AcDbSpline
 70
8
 71
3
 72
8
 73
4
 74
0
 40
0
 40
0
 40
0
 40
0
 40
1
 40
1
 40
1
 40
1
 10
329.446090
 20
294.520580
 30
0.0
 10
328.986935
 20
294.255289
 30
0.0
 10
328.704328
 20
293.765065
 30
0.0
 10
328.704843
 20
293.234781
 30
0.0
  0
SPLINE
  5
2fe
100
AcDbEntity
  8
0
 62
5
100
AcDbSpline
 70
8
 71
3
 72
8
 73
4
 74
0
 40
0
 40
0
 40
0
 40
0
 40
1
 40
1
 40
1
 40
1
 10
328.704843
 20
293.234781
 30
0.0
 10
328.704328
 20
292.704496
 30
0.0
 10
328.986935
 20
292.214273
 30
0.0
 10
329.446090
 20
291.948981
 30
0.0
  0
SPLINE
  5
2ff
100
AcDbEntity
  8
0
 62
5
100
AcDbSpline
 70
8
 71
3
 72
8
 73
4
 74
0
 40
0
 40
0
 40
0
 40
0
 40
1
 40
1
 40
1
 40
1
 10
329.446090
 20
291.948981
 30
0.0
 10
329.905244
 20
291.683690
 30
0.0
 10
330.471094
 20
291.683690
 30
0.0
 10
330.930248
 20
291.948981
 30
0.0
  0
SPLINE
  5
300
100
AcDbEntity
  8
0
 62
5
100
AcDbSpline
 70
8
 71
3
 72
8
 73
4
 74
0
 40
0
 40
0
 40
0
 40
0
 40
1
 40
1
 40
1
 40
1
 10
330.930248
 20
291.948981
 30
0.0
 10
331.389402
 20
292.214273
 30
0.0
 10
331.672010
 20
292.704496
 30
0.0
 10
331.671495
 20
293.234781
 30
0.0
  0
LWPOLYLINE
  5
301
100
AcDbEntity
  8
0
 62
5
100
AcDbPolyline
 90
1
 70
1
 10
331.639652
 20
234.562614
 30
0.0
  0
LWPOLYLINE
  5
302
100
AcDbEntity
  8
0
 62
5
100
AcDbPolyline
 90
1
 70
1
 10
331.671495
 20
293.234781
 30
0.0
  0
SPLINE
  5
303
100
AcDbEntity
  8
0
 62
5
100
AcDbSpline
 70
8
 71
3
 72
8
 73
4
 74
0
 40
0
 40
0
 40
0
 40
0
 40
1
 40
1
 40
1
 40
1
 10
493.077895
 20
293.343877
 30
0.0
 10
493.078411
 20
293.874162
 30
0.0
 10
492.795803
 20
294.364387
 30
0.0
 10
492.336648
 20
294.629678
 30
0.0
  0
SPLINE
  5
304
100
AcDbEntity
  8
0
 62
5
100
AcDbSpline
 70
8
 71
3
 72
8
 73
4
 74
0
 40
0
 40
0
 40
0
 40
0
 40
1
 40
1
 40
1
 40
1
 10
492.336648
 20
294.629678
 30
0.0
 10
491.877493
 20
294.894970
 30
0.0
 10
491.311642
 20
294.894970
 30
0.0
 10
490.852487
 20
294.629678
 30
0.0
  0
SPLINE
  5
305
100
AcDbEntity
  8
0
 62
5
100
AcDbSpline
 70
8
 71
3
 72
8
 73
4
 74
0
 40
0
 40
0
 40
0
 40
0
 40
1
 40
1
 40
1
 40
1
 10
490.852487
 20
294.629678
 30
0.0
 10
490.393332
 20
294.364387
 30
0.0
 10
490.110724
 20
293.874162
 30
0.0
 10
490.111239
 20
293.343877
 30
0.0
  0
SPLINE
  5
306
100
AcDbEntity
  8
0
 62
5
100
AcDbSpline
 70
8
 71
3
 72
8
 73
4
 74
0
 40
0
 40
0
 40
0
 40
0
 40
1
 40
1
 40
1
 40
1
 10
490.111239
 20
293.343877
 30
0.0
 10
490.110724
 20
292.813592
 30
0.0
 10
490.393332
 20
292.323367
 30
0.0
 10
490.852487
 20
292.058076
 30
0.0
  0
SPLINE
  5
307
100
AcDbEntity
  8
0
 62
5
100
AcDbSpline
 70
8
 71
3
 72
8
 73
4
 74
0
 40
0
 40
0
 40
0
 40
0
 40
1
 40
1
 40
1
 40
1
 10
490.852487
 20
292.058076
 30
0.0
 10
491.311642
 20
291.792784
 30
0.0
 10
491.877493
 20
291.792784
 30
0.0
 10
492.336648
 20
292.058076
 30
0.0
  0
SPLINE
  5
308
100
AcDbEntity
  8
0
 62
5
100
AcDbSpline
 70
8
 71
3
 72
8
 73
4
 74
0
 40
0
 40
0
 40
0
 40
0
 40
1
 40
1
 40
1
 40
1
 10
492.336648
 20
292.058076
 30
0.0
 10
492.795803
 20
292.323367
 30
0.0
 10
493.078411
 20
292.813592
 30
0.0
 10
493.077895
 20
293.343877
 30
0.0
  0
LWPOLYLINE
  5
309
100
AcDbEntity
  8
0
 62
5
100
AcDbPolyline
 90
92
 70
1
 10
365.534785
 20
263.601429
 30
0.0
 10
389.347300
 20
263.601429
 30
0.0
 10
389.347304
 20
299.849351
 30
0.0
 10
406.412597
 20
299.848998
 30
0.0
 10
406.569598
 20
299.843001
 30
0.0
 10
406.725596
 20
299.825009
 30
0.0
 10
406.879598
 20
299.794000
 30
0.0
 10
407.031599
 20
299.751998
 30
0.0
 10
407.178598
 20
299.697000
 30
0.0
 10
407.320599
 20
299.631997
 30
0.0
 10
407.457596
 20
299.555000
 30
0.0
 10
407.588597
 20
299.467998
 30
0.0
 10
407.711597
 20
299.370000
 30
0.0
 10
407.827597
 20
299.263997
 30
0.0
 10
407.933600
 20
299.147997
 30
0.0
 10
408.031598
 20
299.024997
 30
0.0
 10
408.118600
 20
298.893996
 30
0.0
 10
408.195597
 20
298.756999
 30
0.0
 10
408.260597
 20
298.614998
 30
0.0
 10
408.315598
 20
298.467999
 30
0.0
 10
408.357600
 20
298.315998
 30
0.0
 10
408.388609
 20
298.161996
 30
0.0
 10
408.406601
 20
298.005998
 30
0.0
 10
408.412598
 20
297.848997
 30
0.0
 10
408.412598
 20
215.647945
 30
0.0
 10
408.406601
 20
215.491943
 30
0.0
 10
408.388609
 20
215.335945
 30
0.0
 10
408.357600
 20
215.181943
 30
0.0
 10
408.315598
 20
215.029945
 30
0.0
 10
408.260597
 20
214.882943
 30
0.0
 10
408.195597
 20
214.740946
 30
0.0
 10
408.118600
 20
214.603945
 30
0.0
 10
408.031598
 20
214.472944
 30
0.0
 10
407.933600
 20
214.349944
 30
0.0
 10
407.827597
 20
214.233944
 30
0.0
 10
407.711597
 20
214.127945
 30
0.0
 10
407.588597
 20
214.029943
 30
0.0
 10
407.457596
 20
213.942944
 30
0.0
 10
407.320599
 20
213.865944
 30
0.0
 10
407.178598
 20
213.800944
 30
0.0
 10
407.031599
 20
213.745943
 30
0.0
 10
406.879598
 20
213.703944
 30
0.0
 10
406.725596
 20
213.672935
 30
0.0
 10
406.569598
 20
213.654943
 30
0.0
 10
406.413596
 20
213.648946
 30
0.0
 10
294.112525
 20
213.647888
 30
0.0
 10
293.955525
 20
213.654873
 30
0.0
 10
293.799525
 20
213.672865
 30
0.0
 10
293.645525
 20
213.703874
 30
0.0
 10
293.493525
 20
213.745872
 30
0.0
 10
293.346525
 20
213.800874
 30
0.0
 10
293.204525
 20
213.865873
 30
0.0
 10
293.067525
 20
213.942874
 30
0.0
 10
292.936525
 20
214.029872
 30
0.0
 10
292.813525
 20
214.127874
 30
0.0
 10
292.697525
 20
214.233873
 30
0.0
 10
292.591524
 20
214.349874
 30
0.0
 10
292.493524
 20
214.472873
 30
0.0
 10
292.406524
 20
214.603874
 30
0.0
 10
292.329524
 20
214.740875
 30
0.0
 10
292.264524
 20
214.882872
 30
0.0
 10
292.209524
 20
215.029875
 30
0.0
 10
292.167524
 20
215.181872
 30
0.0
 10
292.136522
 20
215.335874
 30
0.0
 10
292.118523
 20
215.491873
 30
0.0
 10
292.111524
 20
215.647875
 30
0.0
 10
292.112512
 20
297.848927
 30
0.0
 10
292.118513
 20
298.005927
 30
0.0
 10
292.136512
 20
298.161926
 30
0.0
 10
292.167514
 20
298.315927
 30
0.0
 10
292.209514
 20
298.467929
 30
0.0
 10
292.264514
 20
298.614928
 30
0.0
 10
292.329514
 20
298.756928
 30
0.0
 10
292.406514
 20
298.893926
 30
0.0
 10
292.493514
 20
299.024926
 30
0.0
 10
292.591514
 20
299.147926
 30
0.0
 10
292.697514
 20
299.263926
 30
0.0
 10
292.813514
 20
299.369929
 30
0.0
 10
292.936514
 20
299.467927
 30
0.0
 10
293.067514
 20
299.554929
 30
0.0
 10
293.204514
 20
299.631927
 30
0.0
 10
293.346514
 20
299.696930
 30
0.0
 10
293.493514
 20
299.751928
 30
0.0
 10
293.645515
 20
299.793930
 30
0.0
 10
293.799514
 20
299.824939
 30
0.0
 10
293.955515
 20
299.842930
 30
0.0
 10
294.112515
 20
299.849951
 30
0.0
 10
304.614436
 20
299.849848
 30
0.0
 10
304.680582
 20
282.727250
 30
0.0
 10
317.909757
 20
282.727250
 30
0.0
 10
317.843611
 20
299.849721
 30
0.0
 10
365.534785
 20
299.849369
 30
0.0
  0
SPLINE
  5
30a
100
AcDbEntity
  8
0
 62
5
100
AcDbSpline
 70
8
 71
3
 72
8
 73
4
 74
0
 40
0
 40
0
 40
0
 40
0
 40
1
 40
1
 40
1
 40
1
 10
474.028881
 20
272.641033
 30
0.0
 10
474.029466
 20
273.171365
 30
0.0
 10
473.746874
 20
273.661663
 30
0.0
 10
473.287690
 20
273.926998
 30
0.0
  0
SPLINE
  5
30b
100
AcDbEntity
  8
0
 62
5
100
AcDbSpline
 70
8
 71
3
 72
8
 73
4
 74
0
 40
0
 40
0
 40
0
 40
0
 40
1
 40
1
 40
1
 40
1
 10
473.287690
 20
273.926998
 30
0.0
 10
472.828506
 20
274.192333
 30
0.0
 10
472.262600
 20
274.192333
 30
0.0
 10
471.803416
 20
273.926998
 30
0.0
  0
SPLINE
  5
30c
100
AcDbEntity
  8
0
 62
5
100
AcDbSpline
 70
8
 71
3
 72
8
 73
4
 74
0
 40
0
 40
0
 40
0
 40
0
 40
1
 40
1
 40
1
 40
1
 10
471.803416
 20
273.926998
 30
0.0
 10
471.344233
 20
273.661663
 30
0.0
 10
471.061640
 20
273.171365
 30
0.0
 10
471.062225
 20
272.641033
 30
0.0
  0
SPLINE
  5
30d
100
AcDbEntity
  8
0
 62
5
100
AcDbSpline
 70
8
 71
3
 72
8
 73
4
 74
0
 40
0
 40
0
 40
0
 40
0
 40
1
 40
1
 40
1
 40
1
 10
471.062225
 20
272.641033
 30
0.0
 10
471.061640
 20
272.110701
 30
0.0
 10
471.344233
 20
271.620404
 30
0.0
 10
471.803416
 20
271.355069
 30
0.0
  0
SPLINE
  5
30e
100
AcDbEntity
  8
0
 62
5
100
AcDbSpline
 70
8
 71
3
 72
8
 73
4
 74
0
 40
0
 40
0
 40
0
 40
0
 40
1
 40
1
 40
1
 40
1
 10
471.803416
 20
271.355069
 30
0.0
 10
472.262600
 20
271.089734
 30
0.0
 10
472.828506
 20
271.089734
 30
0.0
 10
473.287690
 20
271.355069
 30
0.0
  0
SPLINE
  5
30f
100
AcDbEntity
  8
0
 62
5
100
AcDbSpline
 70
8
 71
3
 72
8
 73
4
 74
0
 40
0
 40
0
 40
0
 40
0
 40
1
 40
1
 40
1
 40
1
 10
473.287690
 20
271.355069
 30
0.0
 10
473.746874
 20
271.620404
 30
0.0
 10
474.029466
 20
272.110701
 30
0.0
 10
474.028881
 20
272.641033
 30
0.0
  0
LWPOLYLINE
  5
310
100
AcDbEntity
  8
0
 62
5
100
AcDbPolyline
 90
1
 70
1
 10
493.077895
 20
293.343877
 30
0.0
  0
SPLINE
  5
311
100
AcDbEntity
  8
0
 62
5
100
AcDbSpline
 70
8
 71
3
 72
8
 73
4
 74
0
 40
0
 40
0
 40
0
 40
0
 40
1
 40
1
 40
1
 40
1
 10
554.753959
 20
293.310437
 30
0.0
 10
554.754544
 20
293.840769
 30
0.0
 10
554.471951
 20
294.331066
 30
0.0
 10
554.012768
 20
294.596401
 30
0.0
  0
SPLINE
  5
312
100
AcDbEntity
  8
0
 62
5
100
AcDbSpline
 70
8
 71
3
 72
8
 73
4
 74
0
 40
0
 40
0
 40
0
 40
0
 40
1
 40
1
 40
1
 40
1
 10
554.012768
 20
294.596401
 30
0.0
 10
553.553584
 20
294.861736
 30
0.0
 10
552.987678
 20
294.861736
 30
0.0
 10
552.528494
 20
294.596401
 30
0.0
  0
SPLINE
  5
313
100
AcDbEntity
  8
0
 62
5
100
AcDbSpline
 70
8
 71
3
 72
8
 73
4
 74
0
 40
0
 40
0
 40
0
 40
0
 40
1
 40
1
 40
1
 40
1
 10
552.528494
 20
294.596401
 30
0.0
 10
552.069310
 20
294.331066
 30
0.0
 10
551.786718
 20
293.840769
 30
0.0
 10
551.787303
 20
293.310437
 30
0.0
  0
SPLINE
  5
314
100
AcDbEntity
  8
0
 62
5
100
AcDbSpline
 70
8
 71
3
 72
8
 73
4
 74
0
 40
0
 40
0
 40
0
 40
0
 40
1
 40
1
 40
1
 40
1
 10
551.787303
 20
293.310437
 30
0.0
 10
551.786718
 20
292.780105
 30
0.0
 10
552.069310
 20
292.289807
 30
0.0
 10
552.528494
 20
292.024472
 30
0.0
  0
SPLINE
  5
315
100
AcDbEntity
  8
0
 62
5
100
AcDbSpline
 70
8
 71
3
 72
8
 73
4
 74
0
 40
0
 40
0
 40
0
 40
0
 40
1
 40
1
 40
1
 40
1
 10
552.528494
 20
292.024472
 30
0.0
 10
552.987678
 20
291.759137
 30
0.0
 10
553.553584
 20
291.759137
 30
0.0
 10
554.012768
 20
292.024472
 30
0.0
  0
SPLINE
  5
316
100
AcDbEntity
  8
0
 62
5
100
AcDbSpline
 70
8
 71
3
 72
8
 73
4
 74
0
 40
0
 40
0
 40
0
 40
0
 40
1
 40
1
 40
1
 40
1
 10
554.012768
 20
292.024472
 30
0.0
 10
554.471951
 20
292.289807
 30
0.0
 10
554.754544
 20
292.780105
 30
0.0
 10
554.753959
 20
293.310437
 30
0.0
  0
LWPOLYLINE
  5
317
100
AcDbEntity
  8
0
 62
5
100
AcDbPolyline
 90
1
 70
1
 10
474.028881
 20
272.641033
 30
0.0
  0
LWPOLYLINE
  5
318
100
AcDbEntity
  8
0
 62
5
100
AcDbPolyline
 90
1
 70
1
 10
554.753959
 20
293.310437
 30
0.0
  0
SPLINE
  5
319
100
AcDbEntity
  8
0
 62
5
100
AcDbSpline
 70
8
 71
3
 72
8
 73
4
 74
0
 40
0
 40
0
 40
0
 40
0
 40
1
 40
1
 40
1
 40
1
 10
165.795941
 20
272.641767
 30
0.0
 10
165.796527
 20
273.172098
 30
0.0
 10
165.513934
 20
273.662395
 30
0.0
 10
165.054751
 20
273.927730
 30
0.0
  0
SPLINE
  5
31a
100
AcDbEntity
  8
0
 62
5
100
AcDbSpline
 70
8
 71
3
 72
8
 73
4
 74
0
 40
0
 40
0
 40
0
 40
0
 40
1
 40
1
 40
1
 40
1
 10
165.054751
 20
273.927730
 30
0.0
 10
164.595569
 20
274.193064
 30
0.0
 10
164.029663
 20
274.193064
 30
0.0
 10
163.570480
 20
273.927730
 30
0.0
  0
SPLINE
  5
31b
100
AcDbEntity
  8
0
 62
5
100
AcDbSpline
 70
8
 71
3
 72
8
 73
4
 74
0
 40
0
 40
0
 40
0
 40
0
 40
1
 40
1
 40
1
 40
1
 10
163.570480
 20
273.927730
 30
0.0
 10
163.111297
 20
273.662395
 30
0.0
 10
162.828705
 20
273.172098
 30
0.0
 10
162.829290
 20
272.641767
 30
0.0
  0
SPLINE
  5
31c
100
AcDbEntity
  8
0
 62
5
100
AcDbSpline
 70
8
 71
3
 72
8
 73
4
 74
0
 40
0
 40
0
 40
0
 40
0
 40
1
 40
1
 40
1
 40
1
 10
162.829290
 20
272.641767
 30
0.0
 10
162.828705
 20
272.111436
 30
0.0
 10
163.111297
 20
271.621140
 30
0.0
 10
163.570480
 20
271.355805
 30
0.0
  0
SPLINE
  5
31d
100
AcDbEntity
  8
0
 62
5
100
AcDbSpline
 70
8
 71
3
 72
8
 73
4
 74
0
 40
0
 40
0
 40
0
 40
0
 40
1
 40
1
 40
1
 40
1
 10
163.570480
 20
271.355805
 30
0.0
 10
164.029663
 20
271.090470
 30
0.0
 10
164.595569
 20
271.090470
 30
0.0
 10
165.054751
 20
271.355805
 30
0.0
  0
SPLINE
  5
31e
100
AcDbEntity
  8
0
 62
5
100
AcDbSpline
 70
8
 71
3
 72
8
 73
4
 74
0
 40
0
 40
0
 40
0
 40
0
 40
1
 40
1
 40
1
 40
1
 10
165.054751
 20
271.355805
 30
0.0
 10
165.513934
 20
271.621140
 30
0.0
 10
165.796527
 20
272.111436
 30
0.0
 10
165.795941
 20
272.641767
 30
0.0
  0
LWPOLYLINE
  5
31f
100
AcDbEntity
  8
0
 62
5
100
AcDbPolyline
 90
84
 70
1
 10
569.844547
 20
265.194688
 30
0.0
 10
569.826547
 20
265.038688
 30
0.0
 10
569.795547
 20
264.884688
 30
0.0
 10
569.753547
 20
264.732687
 30
0.0
 10
569.698547
 20
264.585687
 30
0.0
 10
569.633547
 20
264.443687
 30
0.0
 10
569.556546
 20
264.306686
 30
0.0
 10
569.469546
 20
264.175686
 30
0.0
 10
569.371546
 20
264.052686
 30
0.0
 10
569.265546
 20
263.936686
 30
0.0
 10
569.149545
 20
263.830685
 30
0.0
 10
569.026545
 20
263.732685
 30
0.0
 10
568.895545
 20
263.645685
 30
0.0
 10
568.758545
 20
263.568685
 30
0.0
 10
568.616544
 20
263.503685
 30
0.0
 10
568.469544
 20
263.448685
 30
0.0
 10
568.317544
 20
263.406685
 30
0.0
 10
568.163543
 20
263.375684
 30
0.0
 10
568.007543
 20
263.357684
 30
0.0
 10
567.851543
 20
263.351684
 30
0.0
 10
455.550300
 20
263.350684
 30
0.0
 10
455.393300
 20
263.357684
 30
0.0
 10
455.237300
 20
263.375684
 30
0.0
 10
455.083299
 20
263.406685
 30
0.0
 10
454.931299
 20
263.448685
 30
0.0
 10
454.784299
 20
263.503685
 30
0.0
 10
454.642298
 20
263.568685
 30
0.0
 10
454.505298
 20
263.645685
 30
0.0
 10
454.374298
 20
263.732685
 30
0.0
 10
454.251298
 20
263.830685
 30
0.0
 10
454.135297
 20
263.936686
 30
0.0
 10
454.029297
 20
264.052686
 30
0.0
 10
453.931297
 20
264.175686
 30
0.0
 10
453.844297
 20
264.306686
 30
0.0
 10
453.767297
 20
264.443687
 30
0.0
 10
453.702296
 20
264.585687
 30
0.0
 10
453.647296
 20
264.732687
 30
0.0
 10
453.605296
 20
264.884688
 30
0.0
 10
453.574296
 20
265.038688
 30
0.0
 10
453.556296
 20
265.194688
 30
0.0
 10
453.549596
 20
265.353231
 30
0.0
 10
453.550296
 20
297.848676
 30
0.0
 10
453.556296
 20
298.005676
 30
0.0
 10
453.574296
 20
298.161677
 30
0.0
 10
453.605296
 20
298.315677
 30
0.0
 10
453.647296
 20
298.467677
 30
0.0
 10
453.702296
 20
298.614677
 30
0.0
 10
453.767297
 20
298.756678
 30
0.0
 10
453.844297
 20
298.893678
 30
0.0
 10
453.931297
 20
299.024678
 30
0.0
 10
454.029297
 20
299.147679
 30
0.0
 10
454.135297
 20
299.263679
 30
0.0
 10
454.251298
 20
299.369679
 30
0.0
 10
454.374298
 20
299.467679
 30
0.0
 10
454.505298
 20
299.554680
 30
0.0
 10
454.642298
 20
299.631680
 30
0.0
 10
454.784299
 20
299.696680
 30
0.0
 10
454.931299
 20
299.751680
 30
0.0
 10
455.083299
 20
299.793680
 30
0.0
 10
455.237300
 20
299.824680
 30
0.0
 10
455.393300
 20
299.842680
 30
0.0
 10
455.550300
 20
299.849680
 30
0.0
 10
567.850543
 20
299.848680
 30
0.0
 10
568.007543
 20
299.842680
 30
0.0
 10
568.163543
 20
299.824680
 30
0.0
 10
568.317544
 20
299.793680
 30
0.0
 10
568.469544
 20
299.751680
 30
0.0
 10
568.616544
 20
299.696680
 30
0.0
 10
568.758545
 20
299.631680
 30
0.0
 10
568.895545
 20
299.554680
 30
0.0
 10
569.026545
 20
299.467679
 30
0.0
 10
569.149545
 20
299.369679
 30
0.0
 10
569.265546
 20
299.263679
 30
0.0
 10
569.371546
 20
299.147679
 30
0.0
 10
569.469546
 20
299.024678
 30
0.0
 10
569.556546
 20
298.893678
 30
0.0
 10
569.633547
 20
298.756678
 30
0.0
 10
569.698547
 20
298.614677
 30
0.0
 10
569.753547
 20
298.467677
 30
0.0
 10
569.795547
 20
298.315677
 30
0.0
 10
569.826547
 20
298.161677
 30
0.0
 10
569.844547
 20
298.005676
 30
0.0
 10
569.850547
 20
297.848676
 30
0.0
 10
569.850547
 20
265.350689
 30
0.0
  0
SPLINE
  5
320
100
AcDbEntity
  8
0
 62
5
100
AcDbSpline
 70
8
 71
3
 72
8
 73
4
 74
0
 40
0
 40
0
 40
0
 40
0
 40
1
 40
1
 40
1
 40
1
 10
165.995504
 20
234.568756
 30
0.0
 10
165.996089
 20
235.099087
 30
0.0
 10
165.713497
 20
235.589384
 30
0.0
 10
165.254314
 20
235.854719
 30
0.0
  0
SPLINE
  5
321
100
AcDbEntity
  8
0
 62
5
100
AcDbSpline
 70
8
 71
3
 72
8
 73
4
 74
0
 40
0
 40
0
 40
0
 40
0
 40
1
 40
1
 40
1
 40
1
 10
165.254314
 20
235.854719
 30
0.0
 10
164.795131
 20
236.120053
 30
0.0
 10
164.229225
 20
236.120053
 30
0.0
 10
163.770042
 20
235.854719
 30
0.0
  0
SPLINE
  5
322
100
AcDbEntity
  8
0
 62
5
100
AcDbSpline
 70
8
 71
3
 72
8
 73
4
 74
0
 40
0
 40
0
 40
0
 40
0
 40
1
 40
1
 40
1
 40
1
 10
163.770042
 20
235.854719
 30
0.0
 10
163.310859
 20
235.589384
 30
0.0
 10
163.028267
 20
235.099087
 30
0.0
 10
163.028852
 20
234.568756
 30
0.0
  0
SPLINE
  5
323
100
AcDbEntity
  8
0
 62
5
100
AcDbSpline
 70
8
 71
3
 72
8
 73
4
 74
0
 40
0
 40
0
 40
0
 40
0
 40
1
 40
1
 40
1
 40
1
 10
163.028852
 20
234.568756
 30
0.0
 10
163.028267
 20
234.038425
 30
0.0
 10
163.310859
 20
233.548129
 30
0.0
 10
163.770042
 20
233.282794
 30
0.0
  0
SPLINE
  5
324
100
AcDbEntity
  8
0
 62
5
100
AcDbSpline
 70
8
 71
3
 72
8
 73
4
 74
0
 40
0
 40
0
 40
0
 40
0
 40
1
 40
1
 40
1
 40
1
 10
163.770042
 20
233.282794
 30
0.0
 10
164.229225
 20
233.017459
 30
0.0
 10
164.795131
 20
233.017459
 30
0.0
 10
165.254314
 20
233.282794
 30
0.0
  0
SPLINE
  5
325
100
AcDbEntity
  8
0
 62
5
100
AcDbSpline
 70
8
 71
3
 72
8
 73
4
 74
0
 40
0
 40
0
 40
0
 40
0
 40
1
 40
1
 40
1
 40
1
 10
165.254314
 20
233.282794
 30
0.0
 10
165.713497
 20
233.548129
 30
0.0
 10
165.996089
 20
234.038425
 30
0.0
 10
165.995504
 20
234.568756
 30
0.0
  0
LWPOLYLINE
  5
326
100
AcDbEntity
  8
0
 62
5
100
AcDbPolyline
 90
1
 70
1
 10
165.795941
 20
272.641767
 30
0.0
  0
SPLINE
  5
327
100
AcDbEntity
  8
0
 62
5
100
AcDbSpline
 70
8
 71
3
 72
8
 73
4
 74
0
 40
0
 40
0
 40
0
 40
0
 40
1
 40
1
 40
1
 40
1
 10
242.141627
 20
234.568756
 30
0.0
 10
242.141627
 20
235.098698
 30
0.0
 10
241.858907
 20
235.588384
 30
0.0
 10
241.399964
 20
235.853355
 30
0.0
  0
SPLINE
  5
328
100
AcDbEntity
  8
0
 62
5
100
AcDbSpline
 70
8
 71
3
 72
8
 73
4
 74
0
 40
0
 40
0
 40
0
 40
0
 40
1
 40
1
 40
1
 40
1
 10
241.399964
 20
235.853355
 30
0.0
 10
240.941021
 20
236.118326
 30
0.0
 10
240.375580
 20
236.118326
 30
0.0
 10
239.916637
 20
235.853355
 30
0.0
  0
SPLINE
  5
329
100
AcDbEntity
  8
0
 62
5
100
AcDbSpline
 70
8
 71
3
 72
8
 73
4
 74
0
 40
0
 40
0
 40
0
 40
0
 40
1
 40
1
 40
1
 40
1
 10
239.916637
 20
235.853355
 30
0.0
 10
239.457694
 20
235.588384
 30
0.0
 10
239.174973
 20
235.098698
 30
0.0
 10
239.174973
 20
234.568756
 30
0.0
  0
SPLINE
  5
32a
100
AcDbEntity
  8
0
 62
5
100
AcDbSpline
 70
8
 71
3
 72
8
 73
4
 74
0
 40
0
 40
0
 40
0
 40
0
 40
1
 40
1
 40
1
 40
1
 10
239.174973
 20
234.568756
 30
0.0
 10
239.174973
 20
234.038815
 30
0.0
 10
239.457694
 20
233.549128
 30
0.0
 10
239.916637
 20
233.284157
 30
0.0
  0
SPLINE
  5
32b
100
AcDbEntity
  8
0
 62
5
100
AcDbSpline
 70
8
 71
3
 72
8
 73
4
 74
0
 40
0
 40
0
 40
0
 40
0
 40
1
 40
1
 40
1
 40
1
 10
239.916637
 20
233.284157
 30
0.0
 10
240.375580
 20
233.019187
 30
0.0
 10
240.941021
 20
233.019187
 30
0.0
 10
241.399964
 20
233.284157
 30
0.0
  0
SPLINE
  5
32c
100
AcDbEntity
  8
0
 62
5
100
AcDbSpline
 70
8
 71
3
 72
8
 73
4
 74
0
 40
0
 40
0
 40
0
 40
0
 40
1
 40
1
 40
1
 40
1
 10
241.399964
 20
233.284157
 30
0.0
 10
241.858907
 20
233.549128
 30
0.0
 10
242.141627
 20
234.038815
 30
0.0
 10
242.141627
 20
234.568756
 30
0.0
  0
LWPOLYLINE
  5
32d
100
AcDbEntity
  8
0
 62
5
100
AcDbPolyline
 90
1
 70
1
 10
165.995504
 20
234.568756
 30
0.0
  0
SPLINE
  5
32e
100
AcDbEntity
  8
0
 62
5
100
AcDbSpline
 70
8
 71
3
 72
8
 73
4
 74
0
 40
0
 40
0
 40
0
 40
0
 40
1
 40
1
 40
1
 40
1
 10
246.520881
 20
293.311137
 30
0.0
 10
246.521466
 20
293.841468
 30
0.0
 10
246.238874
 20
294.331765
 30
0.0
 10
245.779691
 20
294.597099
 30
0.0
  0
SPLINE
  5
32f
100
AcDbEntity
  8
0
 62
5
100
AcDbSpline
 70
8
 71
3
 72
8
 73
4
 74
0
 40
0
 40
0
 40
0
 40
0
 40
1
 40
1
 40
1
 40
1
 10
245.779691
 20
294.597099
 30
0.0
 10
245.320508
 20
294.862434
 30
0.0
 10
244.754602
 20
294.862434
 30
0.0
 10
244.295419
 20
294.597099
 30
0.0
  0
SPLINE
  5
330
100
AcDbEntity
  8
0
 62
5
100
AcDbSpline
 70
8
 71
3
 72
8
 73
4
 74
0
 40
0
 40
0
 40
0
 40
0
 40
1
 40
1
 40
1
 40
1
 10
244.295419
 20
294.597099
 30
0.0
 10
243.836236
 20
294.331765
 30
0.0
 10
243.553644
 20
293.841468
 30
0.0
 10
243.554229
 20
293.311137
 30
0.0
  0
SPLINE
  5
331
100
AcDbEntity
  8
0
 62
5
100
AcDbSpline
 70
8
 71
3
 72
8
 73
4
 74
0
 40
0
 40
0
 40
0
 40
0
 40
1
 40
1
 40
1
 40
1
 10
243.554229
 20
293.311137
 30
0.0
 10
243.553644
 20
292.780806
 30
0.0
 10
243.836236
 20
292.290509
 30
0.0
 10
244.295419
 20
292.025174
 30
0.0
  0
SPLINE
  5
332
100
AcDbEntity
  8
0
 62
5
100
AcDbSpline
 70
8
 71
3
 72
8
 73
4
 74
0
 40
0
 40
0
 40
0
 40
0
 40
1
 40
1
 40
1
 40
1
 10
244.295419
 20
292.025174
 30
0.0
 10
244.754602
 20
291.759840
 30
0.0
 10
245.320508
 20
291.759840
 30
0.0
 10
245.779691
 20
292.025174
 30
0.0
  0
SPLINE
  5
333
100
AcDbEntity
  8
0
 62
5
100
AcDbSpline
 70
8
 71
3
 72
8
 73
4
 74
0
 40
0
 40
0
 40
0
 40
0
 40
1
 40
1
 40
1
 40
1
 10
245.779691
 20
292.025174
 30
0.0
 10
246.238874
 20
292.290509
 30
0.0
 10
246.521466
 20
292.780806
 30
0.0
 10
246.520881
 20
293.311137
 30
0.0
  0
LWPOLYLINE
  5
334
100
AcDbEntity
  8
0
 62
5
100
AcDbPolyline
 90
1
 70
1
 10
242.141627
 20
234.568756
 30
0.0
  0
SPLINE
  5
335
100
AcDbEntity
  8
0
 62
5
100
AcDbSpline
 70
8
 71
3
 72
8
 73
4
 74
0
 40
0
 40
0
 40
0
 40
0
 40
1
 40
1
 40
1
 40
1
 10
184.844482
 20
234.563165
 30
0.0
 10
184.844482
 20
235.093107
 30
0.0
 10
184.561762
 20
235.582793
 30
0.0
 10
184.102819
 20
235.847764
 30
0.0
  0
SPLINE
  5
336
100
AcDbEntity
  8
0
 62
5
100
AcDbSpline
 70
8
 71
3
 72
8
 73
4
 74
0
 40
0
 40
0
 40
0
 40
0
 40
1
 40
1
 40
1
 40
1
 10
184.102819
 20
235.847764
 30
0.0
 10
183.643876
 20
236.112735
 30
0.0
 10
183.078435
 20
236.112735
 30
0.0
 10
182.619492
 20
235.847764
 30
0.0
  0
SPLINE
  5
337
100
AcDbEntity
  8
0
 62
5
100
AcDbSpline
 70
8
 71
3
 72
8
 73
4
 74
0
 40
0
 40
0
 40
0
 40
0
 40
1
 40
1
 40
1
 40
1
 10
182.619492
 20
235.847764
 30
0.0
 10
182.160549
 20
235.582793
 30
0.0
 10
181.877828
 20
235.093107
 30
0.0
 10
181.877828
 20
234.563165
 30
0.0
  0
SPLINE
  5
338
100
AcDbEntity
  8
0
 62
5
100
AcDbSpline
 70
8
 71
3
 72
8
 73
4
 74
0
 40
0
 40
0
 40
0
 40
0
 40
1
 40
1
 40
1
 40
1
 10
181.877828
 20
234.563165
 30
0.0
 10
181.877828
 20
234.033224
 30
0.0
 10
182.160549
 20
233.543537
 30
0.0
 10
182.619492
 20
233.278567
 30
0.0
  0
SPLINE
  5
339
100
AcDbEntity
  8
0
 62
5
100
AcDbSpline
 70
8
 71
3
 72
8
 73
4
 74
0
 40
0
 40
0
 40
0
 40
0
 40
1
 40
1
 40
1
 40
1
 10
182.619492
 20
233.278567
 30
0.0
 10
183.078435
 20
233.013596
 30
0.0
 10
183.643876
 20
233.013596
 30
0.0
 10
184.102819
 20
233.278567
 30
0.0
  0
SPLINE
  5
33a
100
AcDbEntity
  8
0
 62
5
100
AcDbSpline
 70
8
 71
3
 72
8
 73
4
 74
0
 40
0
 40
0
 40
0
 40
0
 40
1
 40
1
 40
1
 40
1
 10
184.102819
 20
233.278567
 30
0.0
 10
184.561762
 20
233.543537
 30
0.0
 10
184.844482
 20
234.033224
 30
0.0
 10
184.844482
 20
234.563165
 30
0.0
  0
LWPOLYLINE
  5
33b
100
AcDbEntity
  8
0
 62
5
100
AcDbPolyline
 90
1
 70
1
 10
246.520881
 20
293.311137
 30
0.0
  0
SPLINE
  5
33c
100
AcDbEntity
  8
0
 62
5
100
AcDbSpline
 70
8
 71
3
 72
8
 73
4
 74
0
 40
0
 40
0
 40
0
 40
0
 40
1
 40
1
 40
1
 40
1
 10
184.844894
 20
293.344577
 30
0.0
 10
184.845497
 20
293.874920
 30
0.0
 10
184.562909
 20
294.365236
 30
0.0
 10
184.103719
 20
294.630582
 30
0.0
  0
SPLINE
  5
33d
100
AcDbEntity
  8
0
 62
5
100
AcDbSpline
 70
8
 71
3
 72
8
 73
4
 74
0
 40
0
 40
0
 40
0
 40
0
 40
1
 40
1
 40
1
 40
1
 10
184.103719
 20
294.630582
 30
0.0
 10
183.644529
 20
294.895928
 30
0.0
 10
183.078609
 20
294.895928
 30
0.0
 10
182.619418
 20
294.630582
 30
0.0
  0
SPLINE
  5
33e
100
AcDbEntity
  8
0
 62
5
100
AcDbSpline
 70
8
 71
3
 72
8
 73
4
 74
0
 40
0
 40
0
 40
0
 40
0
 40
1
 40
1
 40
1
 40
1
 10
182.619418
 20
294.630582
 30
0.0
 10
182.160228
 20
294.365236
 30
0.0
 10
181.877640
 20
293.874920
 30
0.0
 10
181.878243
 20
293.344577
 30
0.0
  0
SPLINE
  5
33f
100
AcDbEntity
  8
0
 62
5
100
AcDbSpline
 70
8
 71
3
 72
8
 73
4
 74
0
 40
0
 40
0
 40
0
 40
0
 40
1
 40
1
 40
1
 40
1
 10
181.878243
 20
293.344577
 30
0.0
 10
181.877640
 20
292.814234
 30
0.0
 10
182.160228
 20
292.323919
 30
0.0
 10
182.619418
 20
292.058573
 30
0.0
  0
SPLINE
  5
340
100
AcDbEntity
  8
0
 62
5
100
AcDbSpline
 70
8
 71
3
 72
8
 73
4
 74
0
 40
0
 40
0
 40
0
 40
0
 40
1
 40
1
 40
1
 40
1
 10
182.619418
 20
292.058573
 30
0.0
 10
183.078609
 20
291.793227
 30
0.0
 10
183.644529
 20
291.793227
 30
0.0
 10
184.103719
 20
292.058573
 30
0.0
  0
SPLINE
  5
341
100
AcDbEntity
  8
0
 62
5
100
AcDbSpline
 70
8
 71
3
 72
8
 73
4
 74
0
 40
0
 40
0
 40
0
 40
0
 40
1
 40
1
 40
1
 40
1
 10
184.103719
 20
292.058573
 30
0.0
 10
184.562909
 20
292.323919
 30
0.0
 10
184.845497
 20
292.814234
 30
0.0
 10
184.844894
 20
293.344577
 30
0.0
  0
LWPOLYLINE
  5
342
100
AcDbEntity
  8
0
 62
5
100
AcDbPolyline
 90
1
 70
1
 10
184.844482
 20
234.563165
 30
0.0
  0
LWPOLYLINE
  5
343
100
AcDbEntity
  8
0
 62
5
100
AcDbPolyline
 90
1
 70
1
 10
184.844894
 20
293.344577
 30
0.0
  0
LWPOLYLINE
  5
344
100
AcDbEntity
  8
0
 62
5
100
AcDbPolyline
 90
4
 70
1
 10
257.874582
 20
256.913180
 30
0.0
 10
257.874582
 20
269.635522
 30
0.0
 10
242.309276
 20
269.635522
 30
0.0
 10
242.309276
 20
256.913180
 30
0.0
  0
LWPOLYLINE
  5
345
100
AcDbEntity
  8
0
 62
5
100
AcDbPolyline
 90
4
 70
1
 10
162.624875
 20
237.863168
 30
0.0
 10
162.624875
 20
250.585510
 30
0.0
 10
147.059569
 20
250.585510
 30
0.0
 10
147.059569
 20
237.863168
 30
0.0
  0
LWPOLYLINE
  5
346
100
AcDbEntity
  8
0
 62
5
100
AcDbPolyline
 90
4
 70
1
 10
181.674887
 20
237.863168
 30
0.0
 10
181.674887
 20
250.585510
 30
0.0
 10
166.109581
 20
250.585510
 30
0.0
 10
166.109581
 20
237.863168
 30
0.0
  0
LWPOLYLINE
  5
347
100
AcDbEntity
  8
0
 62
5
100
AcDbPolyline
 90
4
 70
1
 10
257.874583
 20
237.863168
 30
0.0
 10
257.874583
 20
250.585510
 30
0.0
 10
242.309276
 20
250.585510
 30
0.0
 10
242.309276
 20
237.863168
 30
0.0
  0
LWPOLYLINE
  5
348
100
AcDbEntity
  8
0
 62
5
100
AcDbPolyline
 90
4
 70
1
 10
162.624875
 20
256.913180
 30
0.0
 10
162.624875
 20
269.635522
 30
0.0
 10
147.059569
 20
269.635522
 30
0.0
 10
147.059569
 20
256.913180
 30
0.0
  0
LWPOLYLINE
  5
349
100
AcDbEntity
  8
0
 62
5
100
AcDbPolyline
 90
4
 70
1
 10
238.824570
 20
256.913180
 30
0.0
 10
238.824570
 20
269.635522
 30
0.0
 10
223.259264
 20
269.635522
 30
0.0
 10
223.259264
 20
256.913180
 30
0.0
  0
LWPOLYLINE
  5
34a
100
AcDbEntity
  8
0
 62
5
100
AcDbPolyline
 90
4
 70
1
 10
219.774911
 20
256.913180
 30
0.0
 10
219.774911
 20
269.635522
 30
0.0
 10
204.209605
 20
269.635522
 30
0.0
 10
204.209605
 20
256.913180
 30
0.0
  0
LWPOLYLINE
  5
34b
100
AcDbEntity
  8
0
 62
5
100
AcDbPolyline
 90
4
 70
1
 10
181.674887
 20
256.913180
 30
0.0
 10
181.674887
 20
269.635522
 30
0.0
 10
166.109581
 20
269.635522
 30
0.0
 10
166.109581
 20
256.913180
 30
0.0
  0
LWPOLYLINE
  5
34c
100
AcDbEntity
  8
0
 62
5
100
AcDbPolyline
 90
4
 70
1
 10
200.724899
 20
256.913180
 30
0.0
 10
200.724899
 20
269.635522
 30
0.0
 10
185.159593
 20
269.635522
 30
0.0
 10
185.159593
 20
256.913180
 30
0.0
  0
LWPOLYLINE
  5
34d
100
AcDbEntity
  8
0
 62
5
100
AcDbPolyline
 90
4
 70
1
 10
257.874582
 20
275.963686
 30
0.0
 10
257.874582
 20
288.686028
 30
0.0
 10
242.309276
 20
288.686028
 30
0.0
 10
242.309276
 20
275.963686
 30
0.0
  0
LWPOLYLINE
  5
34e
100
AcDbEntity
  8
0
 62
5
100
AcDbPolyline
 90
4
 70
1
 10
200.724899
 20
218.813156
 30
0.0
 10
200.724899
 20
231.535498
 30
0.0
 10
185.159593
 20
231.535498
 30
0.0
 10
185.159593
 20
218.813156
 30
0.0
  0
LWPOLYLINE
  5
34f
100
AcDbEntity
  8
0
 62
5
100
AcDbPolyline
 90
4
 70
1
 10
238.824570
 20
275.963686
 30
0.0
 10
238.824570
 20
288.686028
 30
0.0
 10
223.259264
 20
288.686028
 30
0.0
 10
223.259264
 20
275.963686
 30
0.0
  0
LWPOLYLINE
  5
350
100
AcDbEntity
  8
0
 62
5
100
AcDbPolyline
 90
4
 70
1
 10
238.824570
 20
237.863168
 30
0.0
 10
238.824570
 20
250.585510
 30
0.0
 10
223.259264
 20
250.585510
 30
0.0
 10
223.259264
 20
237.863168
 30
0.0
  0
LWPOLYLINE
  5
351
100
AcDbEntity
  8
0
 62
5
100
AcDbPolyline
 90
4
 70
1
 10
219.774911
 20
275.963686
 30
0.0
 10
219.774911
 20
288.686028
 30
0.0
 10
204.209605
 20
288.686028
 30
0.0
 10
204.209605
 20
275.963686
 30
0.0
  0
LWPOLYLINE
  5
352
100
AcDbEntity
  8
0
 62
5
100
AcDbPolyline
 90
4
 70
1
 10
200.724899
 20
275.963686
 30
0.0
 10
200.724899
 20
288.686028
 30
0.0
 10
185.159593
 20
288.686028
 30
0.0
 10
185.159593
 20
275.963686
 30
0.0
  0
LWPOLYLINE
  5
353
100
AcDbEntity
  8
0
 62
5
100
AcDbPolyline
 90
4
 70
1
 10
181.674887
 20
275.963686
 30
0.0
 10
181.674887
 20
288.686028
 30
0.0
 10
166.109581
 20
288.686028
 30
0.0
 10
166.109581
 20
275.963686
 30
0.0
  0
LWPOLYLINE
  5
354
100
AcDbEntity
  8
0
 62
5
100
AcDbPolyline
 90
4
 70
1
 10
162.624875
 20
275.963686
 30
0.0
 10
162.624875
 20
288.686028
 30
0.0
 10
147.059569
 20
288.686028
 30
0.0
 10
147.059569
 20
275.963686
 30
0.0
  0
LWPOLYLINE
  5
355
100
AcDbEntity
  8
0
 62
5
100
AcDbPolyline
 90
4
 70
1
 10
200.724899
 20
237.863168
 30
0.0
 10
200.724899
 20
250.585510
 30
0.0
 10
185.159593
 20
250.585510
 30
0.0
 10
185.159593
 20
237.863168
 30
0.0
  0
LWPOLYLINE
  5
356
100
AcDbEntity
  8
0
 62
5
100
AcDbPolyline
 90
4
 70
1
 10
219.774911
 20
237.863168
 30
0.0
 10
219.774911
 20
250.585510
 30
0.0
 10
204.209605
 20
250.585510
 30
0.0
 10
204.209605
 20
237.863168
 30
0.0
  0
LWPOLYLINE
  5
357
100
AcDbEntity
  8
0
 62
5
100
AcDbPolyline
 90
4
 70
1
 10
257.874583
 20
218.813156
 30
0.0
 10
257.874583
 20
231.535498
 30
0.0
 10
242.309276
 20
231.535498
 30
0.0
 10
242.309276
 20
218.813156
 30
0.0
  0
LWPOLYLINE
  5
358
100
AcDbEntity
  8
0
 62
5
100
AcDbPolyline
 90
4
 70
1
 10
181.674887
 20
218.813156
 30
0.0
 10
181.674887
 20
231.535498
 30
0.0
 10
166.109581
 20
231.535498
 30
0.0
 10
166.109581
 20
218.813156
 30
0.0
  0
LWPOLYLINE
  5
359
100
AcDbEntity
  8
0
 62
5
100
AcDbPolyline
 90
4
 70
1
 10
238.824570
 20
218.813156
 30
0.0
 10
238.824570
 20
231.535498
 30
0.0
 10
223.259264
 20
231.535498
 30
0.0
 10
223.259264
 20
218.813156
 30
0.0
  0
LWPOLYLINE
  5
35a
100
AcDbEntity
  8
0
 62
5
100
AcDbPolyline
 90
4
 70
1
 10
162.624875
 20
218.813156
 30
0.0
 10
162.624875
 20
231.535498
 30
0.0
 10
147.059569
 20
231.535498
 30
0.0
 10
147.059569
 20
218.813156
 30
0.0
  0
SPLINE
  5
35b
100
AcDbEntity
  8
0
 62
5
100
AcDbSpline
 70
8
 71
3
 72
8
 73
4
 74
0
 40
0
 40
0
 40
0
 40
0
 40
1
 40
1
 40
1
 40
1
 10
20.629591
 20
272.641390
 30
0.0
 10
20.630176
 20
273.171721
 30
0.0
 10
20.347584
 20
273.662018
 30
0.0
 10
19.888401
 20
273.927353
 30
0.0
  0
SPLINE
  5
35c
100
AcDbEntity
  8
0
 62
5
100
AcDbSpline
 70
8
 71
3
 72
8
 73
4
 74
0
 40
0
 40
0
 40
0
 40
0
 40
1
 40
1
 40
1
 40
1
 10
19.888401
 20
273.927353
 30
0.0
 10
19.429218
 20
274.192687
 30
0.0
 10
18.863312
 20
274.192687
 30
0.0
 10
18.404129
 20
273.927353
 30
0.0
  0
SPLINE
  5
35d
100
AcDbEntity
  8
0
 62
5
100
AcDbSpline
 70
8
 71
3
 72
8
 73
4
 74
0
 40
0
 40
0
 40
0
 40
0
 40
1
 40
1
 40
1
 40
1
 10
18.404129
 20
273.927353
 30
0.0
 10
17.944947
 20
273.662018
 30
0.0
 10
17.662354
 20
273.171721
 30
0.0
 10
17.662940
 20
272.641390
 30
0.0
  0
SPLINE
  5
35e
100
AcDbEntity
  8
0
 62
5
100
AcDbSpline
 70
8
 71
3
 72
8
 73
4
 74
0
 40
0
 40
0
 40
0
 40
0
 40
1
 40
1
 40
1
 40
1
 10
17.662940
 20
272.641390
 30
0.0
 10
17.662354
 20
272.111059
 30
0.0
 10
17.944947
 20
271.620762
 30
0.0
 10
18.404129
 20
271.355428
 30
0.0
  0
SPLINE
  5
35f
100
AcDbEntity
  8
0
 62
5
100
AcDbSpline
 70
8
 71
3
 72
8
 73
4
 74
0
 40
0
 40
0
 40
0
 40
0
 40
1
 40
1
 40
1
 40
1
 10
18.404129
 20
271.355428
 30
0.0
 10
18.863312
 20
271.090093
 30
0.0
 10
19.429218
 20
271.090093
 30
0.0
 10
19.888401
 20
271.355428
 30
0.0
  0
SPLINE
  5
360
100
AcDbEntity
  8
0
 62
5
100
AcDbSpline
 70
8
 71
3
 72
8
 73
4
 74
0
 40
0
 40
0
 40
0
 40
0
 40
1
 40
1
 40
1
 40
1
 10
19.888401
 20
271.355428
 30
0.0
 10
20.347584
 20
271.620762
 30
0.0
 10
20.630176
 20
272.111059
 30
0.0
 10
20.629591
 20
272.641390
 30
0.0
  0
LWPOLYLINE
  5
361
100
AcDbEntity
  8
0
 62
5
100
AcDbPolyline
 90
4
 70
1
 10
219.774911
 20
218.813156
 30
0.0
 10
219.774911
 20
231.535498
 30
0.0
 10
204.209605
 20
231.535498
 30
0.0
 10
204.209605
 20
218.813156
 30
0.0
  0
SPLINE
  5
362
100
AcDbEntity
  8
0
 62
5
100
AcDbSpline
 70
8
 71
3
 72
8
 73
4
 74
0
 40
0
 40
0
 40
0
 40
0
 40
1
 40
1
 40
1
 40
1
 10
20.829195
 20
234.568270
 30
0.0
 10
20.829780
 20
235.098602
 30
0.0
 10
20.547187
 20
235.588899
 30
0.0
 10
20.088004
 20
235.854234
 30
0.0
  0
SPLINE
  5
363
100
AcDbEntity
  8
0
 62
5
100
AcDbSpline
 70
8
 71
3
 72
8
 73
4
 74
0
 40
0
 40
0
 40
0
 40
0
 40
1
 40
1
 40
1
 40
1
 10
20.088004
 20
235.854234
 30
0.0
 10
19.628820
 20
236.119569
 30
0.0
 10
19.062913
 20
236.119569
 30
0.0
 10
18.603730
 20
235.854234
 30
0.0
  0
SPLINE
  5
364
100
AcDbEntity
  8
0
 62
5
100
AcDbSpline
 70
8
 71
3
 72
8
 73
4
 74
0
 40
0
 40
0
 40
0
 40
0
 40
1
 40
1
 40
1
 40
1
 10
18.603730
 20
235.854234
 30
0.0
 10
18.144546
 20
235.588899
 30
0.0
 10
17.861954
 20
235.098602
 30
0.0
 10
17.862539
 20
234.568270
 30
0.0
  0
SPLINE
  5
365
100
AcDbEntity
  8
0
 62
5
100
AcDbSpline
 70
8
 71
3
 72
8
 73
4
 74
0
 40
0
 40
0
 40
0
 40
0
 40
1
 40
1
 40
1
 40
1
 10
17.862539
 20
234.568270
 30
0.0
 10
17.861954
 20
234.037938
 30
0.0
 10
18.144546
 20
233.547640
 30
0.0
 10
18.603730
 20
233.282305
 30
0.0
  0
SPLINE
  5
366
100
AcDbEntity
  8
0
 62
5
100
AcDbSpline
 70
8
 71
3
 72
8
 73
4
 74
0
 40
0
 40
0
 40
0
 40
0
 40
1
 40
1
 40
1
 40
1
 10
18.603730
 20
233.282305
 30
0.0
 10
19.062913
 20
233.016970
 30
0.0
 10
19.628820
 20
233.016970
 30
0.0
 10
20.088004
 20
233.282305
 30
0.0
  0
SPLINE
  5
367
100
AcDbEntity
  8
0
 62
5
100
AcDbSpline
 70
8
 71
3
 72
8
 73
4
 74
0
 40
0
 40
0
 40
0
 40
0
 40
1
 40
1
 40
1
 40
1
 10
20.088004
 20
233.282305
 30
0.0
 10
20.547187
 20
233.547640
 30
0.0
 10
20.829780
 20
234.037938
 30
0.0
 10
20.829195
 20
234.568270
 30
0.0
  0
LWPOLYLINE
  5
368
100
AcDbEntity
  8
0
 62
5
100
AcDbPolyline
 90
1
 70
1
 10
20.629591
 20
272.641390
 30
0.0
  0
SPLINE
  5
369
100
AcDbEntity
  8
0
 62
5
100
AcDbSpline
 70
8
 71
3
 72
8
 73
4
 74
0
 40
0
 40
0
 40
0
 40
0
 40
1
 40
1
 40
1
 40
1
 10
96.975440
 20
234.568270
 30
0.0
 10
96.975440
 20
235.098212
 30
0.0
 10
96.692719
 20
235.587899
 30
0.0
 10
96.233775
 20
235.852871
 30
0.0
  0
SPLINE
  5
36a
100
AcDbEntity
  8
0
 62
5
100
AcDbSpline
 70
8
 71
3
 72
8
 73
4
 74
0
 40
0
 40
0
 40
0
 40
0
 40
1
 40
1
 40
1
 40
1
 10
96.233775
 20
235.852871
 30
0.0
 10
95.774831
 20
236.117842
 30
0.0
 10
95.209389
 20
236.117842
 30
0.0
 10
94.750446
 20
235.852871
 30
0.0
  0
SPLINE
  5
36b
100
AcDbEntity
  8
0
 62
5
100
AcDbSpline
 70
8
 71
3
 72
8
 73
4
 74
0
 40
0
 40
0
 40
0
 40
0
 40
1
 40
1
 40
1
 40
1
 10
94.750446
 20
235.852871
 30
0.0
 10
94.291502
 20
235.587899
 30
0.0
 10
94.008781
 20
235.098212
 30
0.0
 10
94.008781
 20
234.568270
 30
0.0
  0
SPLINE
  5
36c
100
AcDbEntity
  8
0
 62
5
100
AcDbSpline
 70
8
 71
3
 72
8
 73
4
 74
0
 40
0
 40
0
 40
0
 40
0
 40
1
 40
1
 40
1
 40
1
 10
94.008781
 20
234.568270
 30
0.0
 10
94.008781
 20
234.038327
 30
0.0
 10
94.291502
 20
233.548640
 30
0.0
 10
94.750446
 20
233.283669
 30
0.0
  0
SPLINE
  5
36d
100
AcDbEntity
  8
0
 62
5
100
AcDbSpline
 70
8
 71
3
 72
8
 73
4
 74
0
 40
0
 40
0
 40
0
 40
0
 40
1
 40
1
 40
1
 40
1
 10
94.750446
 20
233.283669
 30
0.0
 10
95.209389
 20
233.018697
 30
0.0
 10
95.774831
 20
233.018697
 30
0.0
 10
96.233775
 20
233.283669
 30
0.0
  0
SPLINE
  5
36e
100
AcDbEntity
  8
0
 62
5
100
AcDbSpline
 70
8
 71
3
 72
8
 73
4
 74
0
 40
0
 40
0
 40
0
 40
0
 40
1
 40
1
 40
1
 40
1
 10
96.233775
 20
233.283669
 30
0.0
 10
96.692719
 20
233.548640
 30
0.0
 10
96.975440
 20
234.038327
 30
0.0
 10
96.975440
 20
234.568270
 30
0.0
  0
LWPOLYLINE
  5
36f
100
AcDbEntity
  8
0
 62
5
100
AcDbPolyline
 90
1
 70
1
 10
20.829195
 20
234.568270
 30
0.0
  0
SPLINE
  5
370
100
AcDbEntity
  8
0
 62
5
100
AcDbSpline
 70
8
 71
3
 72
8
 73
4
 74
0
 40
0
 40
0
 40
0
 40
0
 40
1
 40
1
 40
1
 40
1
 10
101.354700
 20
293.310744
 30
0.0
 10
101.355285
 20
293.841076
 30
0.0
 10
101.072693
 20
294.331373
 30
0.0
 10
100.613509
 20
294.596708
 30
0.0
  0
SPLINE
  5
371
100
AcDbEntity
  8
0
 62
5
100
AcDbSpline
 70
8
 71
3
 72
8
 73
4
 74
0
 40
0
 40
0
 40
0
 40
0
 40
1
 40
1
 40
1
 40
1
 10
100.613509
 20
294.596708
 30
0.0
 10
100.154325
 20
294.862043
 30
0.0
 10
99.588419
 20
294.862043
 30
0.0
 10
99.129235
 20
294.596708
 30
0.0
  0
SPLINE
  5
372
100
AcDbEntity
  8
0
 62
5
100
AcDbSpline
 70
8
 71
3
 72
8
 73
4
 74
0
 40
0
 40
0
 40
0
 40
0
 40
1
 40
1
 40
1
 40
1
 10
99.129235
 20
294.596708
 30
0.0
 10
98.670051
 20
294.331373
 30
0.0
 10
98.387459
 20
293.841076
 30
0.0
 10
98.388044
 20
293.310744
 30
0.0
  0
SPLINE
  5
373
100
AcDbEntity
  8
0
 62
5
100
AcDbSpline
 70
8
 71
3
 72
8
 73
4
 74
0
 40
0
 40
0
 40
0
 40
0
 40
1
 40
1
 40
1
 40
1
 10
98.388044
 20
293.310744
 30
0.0
 10
98.387459
 20
292.780412
 30
0.0
 10
98.670051
 20
292.290114
 30
0.0
 10
99.129235
 20
292.024779
 30
0.0
  0
SPLINE
  5
374
100
AcDbEntity
  8
0
 62
5
100
AcDbSpline
 70
8
 71
3
 72
8
 73
4
 74
0
 40
0
 40
0
 40
0
 40
0
 40
1
 40
1
 40
1
 40
1
 10
99.129235
 20
292.024779
 30
0.0
 10
99.588419
 20
291.759444
 30
0.0
 10
100.154325
 20
291.759444
 30
0.0
 10
100.613509
 20
292.024779
 30
0.0
  0
SPLINE
  5
375
100
AcDbEntity
  8
0
 62
5
100
AcDbSpline
 70
8
 71
3
 72
8
 73
4
 74
0
 40
0
 40
0
 40
0
 40
0
 40
1
 40
1
 40
1
 40
1
 10
100.613509
 20
292.024779
 30
0.0
 10
101.072693
 20
292.290114
 30
0.0
 10
101.355285
 20
292.780412
 30
0.0
 10
101.354700
 20
293.310744
 30
0.0
  0
LWPOLYLINE
  5
376
100
AcDbEntity
  8
0
 62
5
100
AcDbPolyline
 90
1
 70
1
 10
96.975440
 20
234.568270
 30
0.0
  0
SPLINE
  5
377
100
AcDbEntity
  8
0
 62
5
100
AcDbSpline
 70
8
 71
3
 72
8
 73
4
 74
0
 40
0
 40
0
 40
0
 40
0
 40
1
 40
1
 40
1
 40
1
 10
39.678203
 20
234.562679
 30
0.0
 10
39.678203
 20
235.092621
 30
0.0
 10
39.395482
 20
235.582308
 30
0.0
 10
38.936539
 20
235.847280
 30
0.0
  0
SPLINE
  5
378
100
AcDbEntity
  8
0
 62
5
100
AcDbSpline
 70
8
 71
3
 72
8
 73
4
 74
0
 40
0
 40
0
 40
0
 40
0
 40
1
 40
1
 40
1
 40
1
 10
38.936539
 20
235.847280
 30
0.0
 10
38.477595
 20
236.112251
 30
0.0
 10
37.912153
 20
236.112251
 30
0.0
 10
37.453209
 20
235.847280
 30
0.0
  0
SPLINE
  5
379
100
AcDbEntity
  8
0
 62
5
100
AcDbSpline
 70
8
 71
3
 72
8
 73
4
 74
0
 40
0
 40
0
 40
0
 40
0
 40
1
 40
1
 40
1
 40
1
 10
37.453209
 20
235.847280
 30
0.0
 10
36.994266
 20
235.582308
 30
0.0
 10
36.711545
 20
235.092621
 30
0.0
 10
36.711545
 20
234.562679
 30
0.0
  0
SPLINE
  5
37a
100
AcDbEntity
  8
0
 62
5
100
AcDbSpline
 70
8
 71
3
 72
8
 73
4
 74
0
 40
0
 40
0
 40
0
 40
0
 40
1
 40
1
 40
1
 40
1
 10
36.711545
 20
234.562679
 30
0.0
 10
36.711545
 20
234.032736
 30
0.0
 10
36.994266
 20
233.543049
 30
0.0
 10
37.453209
 20
233.278078
 30
0.0
  0
SPLINE
  5
37b
100
AcDbEntity
  8
0
 62
5
100
AcDbSpline
 70
8
 71
3
 72
8
 73
4
 74
0
 40
0
 40
0
 40
0
 40
0
 40
1
 40
1
 40
1
 40
1
 10
37.453209
 20
233.278078
 30
0.0
 10
37.912153
 20
233.013107
 30
0.0
 10
38.477595
 20
233.013107
 30
0.0
 10
38.936539
 20
233.278078
 30
0.0
  0
SPLINE
  5
37c
100
AcDbEntity
  8
0
 62
5
100
AcDbSpline
 70
8
 71
3
 72
8
 73
4
 74
0
 40
0
 40
0
 40
0
 40
0
 40
1
 40
1
 40
1
 40
1
 10
38.936539
 20
233.278078
 30
0.0
 10
39.395482
 20
233.543049
 30
0.0
 10
39.678203
 20
234.032736
 30
0.0
 10
39.678203
 20
234.562679
 30
0.0
  0
LWPOLYLINE
  5
37d
100
AcDbEntity
  8
0
 62
5
100
AcDbPolyline
 90
1
 70
1
 10
101.354700
 20
293.310744
 30
0.0
  0
SPLINE
  5
37e
100
AcDbEntity
  8
0
 62
5
100
AcDbSpline
 70
8
 71
3
 72
8
 73
4
 74
0
 40
0
 40
0
 40
0
 40
0
 40
1
 40
1
 40
1
 40
1
 10
39.678615
 20
293.344184
 30
0.0
 10
39.679219
 20
293.874528
 30
0.0
 10
39.396630
 20
294.364845
 30
0.0
 10
38.937439
 20
294.630191
 30
0.0
  0
SPLINE
  5
37f
100
AcDbEntity
  8
0
 62
5
100
AcDbSpline
 70
8
 71
3
 72
8
 73
4
 74
0
 40
0
 40
0
 40
0
 40
0
 40
1
 40
1
 40
1
 40
1
 10
38.937439
 20
294.630191
 30
0.0
 10
38.478248
 20
294.895537
 30
0.0
 10
37.912327
 20
294.895537
 30
0.0
 10
37.453136
 20
294.630191
 30
0.0
  0
SPLINE
  5
380
100
AcDbEntity
  8
0
 62
5
100
AcDbSpline
 70
8
 71
3
 72
8
 73
4
 74
0
 40
0
 40
0
 40
0
 40
0
 40
1
 40
1
 40
1
 40
1
 10
37.453136
 20
294.630191
 30
0.0
 10
36.993945
 20
294.364845
 30
0.0
 10
36.711356
 20
293.874528
 30
0.0
 10
36.711959
 20
293.344184
 30
0.0
  0
SPLINE
  5
381
100
AcDbEntity
  8
0
 62
5
100
AcDbSpline
 70
8
 71
3
 72
8
 73
4
 74
0
 40
0
 40
0
 40
0
 40
0
 40
1
 40
1
 40
1
 40
1
 10
36.711959
 20
293.344184
 30
0.0
 10
36.711356
 20
292.813840
 30
0.0
 10
36.993945
 20
292.323524
 30
0.0
 10
37.453136
 20
292.058178
 30
0.0
  0
SPLINE
  5
382
100
AcDbEntity
  8
0
 62
5
100
AcDbSpline
 70
8
 71
3
 72
8
 73
4
 74
0
 40
0
 40
0
 40
0
 40
0
 40
1
 40
1
 40
1
 40
1
 10
37.453136
 20
292.058178
 30
0.0
 10
37.912327
 20
291.792832
 30
0.0
 10
38.478248
 20
291.792832
 30
0.0
 10
38.937439
 20
292.058178
 30
0.0
  0
SPLINE
  5
383
100
AcDbEntity
  8
0
 62
5
100
AcDbSpline
 70
8
 71
3
 72
8
 73
4
 74
0
 40
0
 40
0
 40
0
 40
0
 40
1
 40
1
 40
1
 40
1
 10
38.937439
 20
292.058178
 30
0.0
 10
39.396630
 20
292.323524
 30
0.0
 10
39.679219
 20
292.813840
 30
0.0
 10
39.678615
 20
293.344184
 30
0.0
  0
LWPOLYLINE
  5
384
100
AcDbEntity
  8
0
 62
5
100
AcDbPolyline
 90
1
 70
1
 10
39.678203
 20
234.562679
 30
0.0
  0
LWPOLYLINE
  5
385
100
AcDbEntity
  8
0
 62
5
100
AcDbPolyline
 90
1
 70
1
 10
39.678615
 20
293.344184
 30
0.0
  0
ENDSEC
  0
SECTION
  2
OBJECTS
  0
DICTIONARY
  5
C
330
0
100
AcDbDictionary
  3
ACAD_GROUP
350
D
  3
ACAD_MLINESTYLE
350
17
  0
DICTIONARY
  5
D
330
C
100
AcDbDictionary
  0
DICTIONARY
  5
1A
330
C
100
AcDbDictionary
  0
DICTIONARY
  5
17
330
C
100
AcDbDictionary
  3
STANDARD
350
18
  0
DICTIONARY
  5
19
330
C
100
AcDbDictionary
  0
ENDSEC
  0
EOF
