  0
SECTION
  2
HEADER
  9
$ACADVER
  1
AC1014
  9
$HANDSEED
  5
FFFF
  9
$MEASUREMENT
 70
     1
  0
ENDSEC
  0
SECTION
  2
TABLES
  0
TABLE
  2
VPORT
  5
8
330
0
100
AcDbSymbolTable
 70
     4
  0
VPORT
  5
2E
330
8
100
AcDbSymbolTableRecord
100
AcDbViewportTableRecord
  2
*ACTIVE
 70
     0
 10
0.0
 20
0.0
 11
1.0
 21
1.0
 12
210.0
 22
148.5
 13
0.0
 23
0.0
 14
10.0
 24
10.0
 15
10.0
 25
10.0
 16
0.0
 26
0.0
 36
1.0
 17
0.0
 27
0.0
 37
0.0
 40
341.0
 41
1.24
 42
50.0
 43
0.0
 44
0.0
 50
0.0
 51
0.0
 71
     0
 72
   100
 73
     1
 74
     3
 75
     0
 76
     0
 77
     0
 78
     0
  0
ENDTAB
  0
TABLE
  2
LTYPE
  5
5
330
0
100
AcDbSymbolTable
 70
     1
  0
LTYPE
  5
14
330
5
100
AcDbSymbolTableRecord
100
AcDbLinetypeTableRecord
  2
BYBLOCK
 70
     0
  3

 72
    65
 73
     0
 40
0.0
  0
LTYPE
  5
15
330
5
100
AcDbSymbolTableRecord
100
AcDbLinetypeTableRecord
  2
BYLAYER
 70
     0
  3

 72
    65
 73
     0
 40
0.0
  0
LTYPE
  5
16
330
5
100
AcDbSymbolTableRecord
100
AcDbLinetypeTableRecord
  2
CONTINUOUS
 70
     0
  3
Solid line
 72
    65
 73
     0
 40
0.0
  0
ENDTAB
  0
TABLE
  2
LAYER
  5
2
100
AcDbSymbolTable
 70
1
  0
LAYER
  5
50
100
AcDbSymbolTableRecord
100
AcDbLayerTableRecord
  2
0
 70
0
  6
CONTINUOUS
  0
ENDTAB
  0
TABLE
  2
STYLE
  5
3
330
0
100
AcDbSymbolTable
 70
     1
  0
STYLE
  5
11
330
3
100
AcDbSymbolTableRecord
100
AcDbTextStyleTableRecord
  2
STANDARD
 70
     0
 40
0.0
 41
1.0
 50
0.0
 71
     0
 42
2.5
  3
txt
  4

  0
ENDTAB
  0
TABLE
  2
VIEW
  5
6
330
0
100
AcDbSymbolTable
 70
     0
  0
ENDTAB
  0
TABLE
  2
UCS
  5
7
330
0
100
AcDbSymbolTable
 70
     0
  0
ENDTAB
  0
TABLE
  2
APPID
  5
9
330
0
100
AcDbSymbolTable
 70
     2
  0
APPID
  5
12
330
9
100
AcDbSymbolTableRecord
100
AcDbRegAppTableRecord
  2
ACAD
 70
     0
  0
ENDTAB
  0
TABLE
  2
DIMSTYLE
  5
A
330
0
100
AcDbSymbolTable
 70
     1
  0
DIMSTYLE
105
27
330
A
100
AcDbSymbolTableRecord
100
AcDbDimStyleTableRecord
  2
ISO-25
 70
     0
  3

  4

  5

  6

  7

 40
1.0
 41
2.5
 42
0.625
 43
3.75
 44
1.25
 45
0.0
 46
0.0
 47
0.0
 48
0.0
140
2.5
141
2.5
142
0.0
143
0.03937007874016
144
1.0
145
0.0
146
1.0
147
0.625
 71
     0
 72
     0
 73
     0
 74
     0
 75
     0
 76
     0
 77
     1
 78
     8
170
     0
171
     3
172
     1
173
     0
174
     0
175
     0
176
     0
177
     0
178
     0
270
     2
271
     2
272
     2
273
     2
274
     3
340
11
275
     0
280
     0
281
     0
282
     0
283
     0
284
     8
285
     0
286
     0
287
     3
288
     0
  0
ENDTAB
  0
TABLE
  2
BLOCK_RECORD
  5
1
330
0
100
AcDbSymbolTable
 70
     1
  0
BLOCK_RECORD
  5
1F
330
1
100
AcDbSymbolTableRecord
100
AcDbBlockTableRecord
  2
*MODEL_SPACE
  0
BLOCK_RECORD
  5
1B
330
1
100
AcDbSymbolTableRecord
100
AcDbBlockTableRecord
  2
*PAPER_SPACE
  0
ENDTAB
  0
ENDSEC
  0
SECTION
  2
BLOCKS
  0
BLOCK
  5
20
330
1F
100
AcDbEntity
  8
0
100
AcDbBlockBegin
  2
*MODEL_SPACE
 70
     0
 10
0.0
 20
0.0
 30
0.0
  3
*MODEL_SPACE
  1

  0
ENDBLK
  5
21
330
1F
100
AcDbEntity
  8
0
100
AcDbBlockEnd
  0
BLOCK
  5
1C
330
1B
100
AcDbEntity
 67
     1
  8
0
100
AcDbBlockBegin
  2
*PAPER_SPACE
  1

  0
ENDBLK
  5
1D
330
1B
100
AcDbEntity
 67
     1
  8
0
100
AcDbBlockEnd
  0
ENDSEC
  0
SECTION
  2
ENTITIES
  0
SPLINE
  5
100
100
AcDbEntity
  8
0
 62
5
100
AcDbSpline
 70
8
 71
3
 72
8
 73
4
 74
0
 40
0
 40
0
 40
0
 40
0
 40
1
 40
1
 40
1
 40
1
 10
160.896500
 20
114.846173
 30
0.0
 10
161.173078
 20
114.846173
 30
0.0
 10
161.396386
 20
114.622794
 30
0.0
 10
161.396386
 20
114.346922
 30
0.0
  0
SPLINE
  5
101
100
AcDbEntity
  8
0
 62
5
100
AcDbSpline
 70
8
 71
3
 72
8
 73
4
 74
0
 40
0
 40
0
 40
0
 40
0
 40
1
 40
1
 40
1
 40
1
 10
161.396739
 20
78.347347
 30
0.0
 10
161.396739
 20
78.071474
 30
0.0
 10
161.620400
 20
77.847460
 30
0.0
 10
161.896272
 20
77.847460
 30
0.0
  0
LINE
  5
102
100
AcDbEntity
  8
0
 62
5
100
AcDbLine
 10
161.396033
 20
114.346922
 30
0.0
 11
161.396033
 21
78.349110
 31
0.0
  0
SPLINE
  5
103
100
AcDbEntity
  8
0
 62
5
100
AcDbSpline
 70
8
 71
3
 72
8
 73
4
 74
0
 40
0
 40
0
 40
0
 40
0
 40
1
 40
1
 40
1
 40
1
 10
165.646302
 20
77.848166
 30
0.0
 10
165.922527
 20
77.848166
 30
0.0
 10
166.146541
 20
77.623799
 30
0.0
 10
166.146541
 20
77.347927
 30
0.0
  0
LINE
  5
104
100
AcDbEntity
  8
0
 62
5
100
AcDbLine
 10
161.896272
 20
77.847813
 30
0.0
 11
165.646302
 21
77.847813
 31
0.0
  0
SPLINE
  5
105
100
AcDbEntity
  8
0
 62
5
100
AcDbSpline
 70
8
 71
3
 72
8
 73
4
 74
0
 40
0
 40
0
 40
0
 40
0
 40
1
 40
1
 40
1
 40
1
 10
166.146541
 20
59.347786
 30
0.0
 10
166.146541
 20
59.071914
 30
0.0
 10
166.370555
 20
58.848958
 30
0.0
 10
166.646427
 20
58.848958
 30
0.0
  0
LINE
  5
106
100
AcDbEntity
  8
0
 62
5
100
AcDbLine
 10
166.145835
 20
77.347927
 30
0.0
 11
166.145835
 21
59.348845
 31
0.0
  0
SPLINE
  5
107
100
AcDbEntity
  8
0
 62
5
100
AcDbSpline
 70
8
 71
3
 72
8
 73
4
 74
0
 40
0
 40
0
 40
0
 40
0
 40
1
 40
1
 40
1
 40
1
 10
167.896319
 20
58.848958
 30
0.0
 10
168.172191
 20
58.848958
 30
0.0
 10
168.396205
 20
58.623886
 30
0.0
 10
168.396205
 20
58.348014
 30
0.0
  0
LINE
  5
108
100
AcDbEntity
  8
0
 62
5
100
AcDbLine
 10
166.646074
 20
58.848958
 30
0.0
 11
167.895614
 21
58.848958
 31
0.0
  0
SPLINE
  5
109
100
AcDbEntity
  8
0
 62
5
100
AcDbSpline
 70
8
 71
3
 72
8
 73
4
 74
0
 40
0
 40
0
 40
0
 40
0
 40
1
 40
1
 40
1
 40
1
 10
168.396558
 20
37.348908
 30
0.0
 10
168.396558
 20
37.073036
 30
0.0
 10
168.172191
 20
36.849022
 30
0.0
 10
167.896319
 20
36.849022
 30
0.0
  0
LINE
  5
10a
100
AcDbEntity
  8
0
 62
5
100
AcDbLine
 10
168.395853
 20
58.349072
 30
0.0
 11
168.395853
 21
37.348908
 31
0.0
  0
SPLINE
  5
10b
100
AcDbEntity
  8
0
 62
5
100
AcDbSpline
 70
8
 71
3
 72
8
 73
4
 74
0
 40
0
 40
0
 40
0
 40
0
 40
1
 40
1
 40
1
 40
1
 10
166.646074
 20
36.849022
 30
0.0
 10
166.370202
 20
36.849022
 30
0.0
 10
166.146541
 20
36.625361
 30
0.0
 10
166.146541
 20
36.348783
 30
0.0
  0
LINE
  5
10c
100
AcDbEntity
  8
0
 62
5
100
AcDbLine
 10
167.895614
 20
36.849022
 30
0.0
 11
166.646074
 21
36.849022
 31
0.0
  0
SPLINE
  5
10d
100
AcDbEntity
  8
0
 62
5
100
AcDbSpline
 70
8
 71
3
 72
8
 73
4
 74
0
 40
0
 40
0
 40
0
 40
0
 40
1
 40
1
 40
1
 40
1
 10
166.146541
 20
18.350053
 30
0.0
 10
166.146541
 20
18.073475
 30
0.0
 10
165.922174
 20
17.849814
 30
0.0
 10
165.646302
 20
17.849814
 30
0.0
  0
LINE
  5
10e
100
AcDbEntity
  8
0
 62
5
100
AcDbLine
 10
166.145835
 20
36.348783
 30
0.0
 11
166.145835
 21
18.350053
 31
0.0
  0
SPLINE
  5
10f
100
AcDbEntity
  8
0
 62
5
100
AcDbSpline
 70
8
 71
3
 72
8
 73
4
 74
0
 40
0
 40
0
 40
0
 40
0
 40
1
 40
1
 40
1
 40
1
 10
164.146290
 20
17.849814
 30
0.0
 10
163.870418
 20
17.849814
 30
0.0
 10
163.646404
 20
17.626506
 30
0.0
 10
163.646404
 20
17.349928
 30
0.0
  0
LINE
  5
110
100
AcDbEntity
  8
0
 62
5
100
AcDbLine
 10
165.646302
 20
17.849814
 30
0.0
 11
164.146290
 21
17.849814
 31
0.0
  0
SPLINE
  5
111
100
AcDbEntity
  8
0
 62
5
100
AcDbSpline
 70
8
 71
3
 72
8
 73
4
 74
0
 40
0
 40
0
 40
0
 40
0
 40
1
 40
1
 40
1
 40
1
 10
163.646756
 20
0.650832
 30
0.0
 10
163.646756
 20
0.374255
 30
0.0
 10
163.422037
 20
0.149888
 30
0.0
 10
163.146164
 20
0.149888
 30
0.0
  0
LINE
  5
112
100
AcDbEntity
  8
0
 62
5
100
AcDbLine
 10
163.646051
 20
17.349928
 30
0.0
 11
163.646051
 21
0.650832
 31
0.0
  0
LINE
  5
113
100
AcDbEntity
  8
0
 62
5
100
AcDbLine
 10
163.145459
 20
0.149888
 30
0.0
 11
140.229358
 21
0.149888
 31
0.0
  0
LINE
  5
114
100
AcDbEntity
  8
0
 62
5
100
AcDbLine
 10
140.229358
 20
0.149888
 30
0.0
 11
140.229358
 21
114.846844
 31
0.0
  0
LINE
  5
115
100
AcDbEntity
  8
0
 62
5
100
AcDbLine
 10
140.229358
 20
114.846844
 30
0.0
 11
160.896852
 21
114.846844
 31
0.0
  0
SPLINE
  5
116
100
AcDbEntity
  8
0
 62
5
100
AcDbSpline
 70
8
 71
3
 72
8
 73
4
 74
0
 40
0
 40
0
 40
0
 40
0
 40
1
 40
1
 40
1
 40
1
 10
146.397327
 20
20.430738
 30
0.0
 10
145.789844
 20
20.430032
 30
0.0
 10
145.297366
 20
19.938260
 30
0.0
 10
145.297366
 20
19.330776
 30
0.0
  0
SPLINE
  5
117
100
AcDbEntity
  8
0
 62
5
100
AcDbSpline
 70
8
 71
3
 72
8
 73
4
 74
0
 40
0
 40
0
 40
0
 40
0
 40
1
 40
1
 40
1
 40
1
 10
145.297366
 20
19.330776
 30
0.0
 10
145.297366
 20
18.723292
 30
0.0
 10
145.789844
 20
18.230109
 30
0.0
 10
146.397327
 20
18.230109
 30
0.0
  0
SPLINE
  5
118
100
AcDbEntity
  8
0
 62
5
100
AcDbSpline
 70
8
 71
3
 72
8
 73
4
 74
0
 40
0
 40
0
 40
0
 40
0
 40
1
 40
1
 40
1
 40
1
 10
146.397327
 20
18.230109
 30
0.0
 10
147.004811
 20
18.230109
 30
0.0
 10
147.497289
 20
18.723292
 30
0.0
 10
147.497289
 20
19.330776
 30
0.0
  0
SPLINE
  5
119
100
AcDbEntity
  8
0
 62
5
100
AcDbSpline
 70
8
 71
3
 72
8
 73
4
 74
0
 40
0
 40
0
 40
0
 40
0
 40
1
 40
1
 40
1
 40
1
 10
147.497289
 20
19.330776
 30
0.0
 10
147.497289
 20
19.938260
 30
0.0
 10
147.004811
 20
20.430032
 30
0.0
 10
146.397327
 20
20.430032
 30
0.0
  0
SPLINE
  5
11a
100
AcDbEntity
  8
0
 62
5
100
AcDbSpline
 70
8
 71
3
 72
8
 73
4
 74
0
 40
0
 40
0
 40
0
 40
0
 40
1
 40
1
 40
1
 40
1
 10
142.775004
 20
96.444113
 30
0.0
 10
142.167520
 20
96.444113
 30
0.0
 10
141.675042
 20
95.951600
 30
0.0
 10
141.675042
 20
95.344151
 30
0.0
  0
SPLINE
  5
11b
100
AcDbEntity
  8
0
 62
5
100
AcDbSpline
 70
8
 71
3
 72
8
 73
4
 74
0
 40
0
 40
0
 40
0
 40
0
 40
1
 40
1
 40
1
 40
1
 10
141.675042
 20
95.344151
 30
0.0
 10
141.675042
 20
94.736738
 30
0.0
 10
142.167520
 20
94.244225
 30
0.0
 10
142.775004
 20
94.244225
 30
0.0
  0
SPLINE
  5
11c
100
AcDbEntity
  8
0
 62
5
100
AcDbSpline
 70
8
 71
3
 72
8
 73
4
 74
0
 40
0
 40
0
 40
0
 40
0
 40
1
 40
1
 40
1
 40
1
 10
142.775004
 20
94.244225
 30
0.0
 10
143.382487
 20
94.244225
 30
0.0
 10
143.874965
 20
94.736738
 30
0.0
 10
143.874965
 20
95.344151
 30
0.0
  0
SPLINE
  5
11d
100
AcDbEntity
  8
0
 62
5
100
AcDbSpline
 70
8
 71
3
 72
8
 73
4
 74
0
 40
0
 40
0
 40
0
 40
0
 40
1
 40
1
 40
1
 40
1
 10
143.874965
 20
95.344151
 30
0.0
 10
143.874965
 20
95.951600
 30
0.0
 10
143.382487
 20
96.444113
 30
0.0
 10
142.775004
 20
96.444113
 30
0.0
  0
SPLINE
  5
11e
100
AcDbEntity
  8
0
 62
5
100
AcDbSpline
 70
8
 71
3
 72
8
 73
4
 74
0
 40
0
 40
0
 40
0
 40
0
 40
1
 40
1
 40
1
 40
1
 10
168.768311
 20
173.054290
 30
0.0
 10
169.063941
 20
173.052290
 30
0.0
 10
169.700000
 20
173.003490
 30
0.0
 10
170.048190
 20
172.860970
 30
0.0
  0
SPLINE
  5
11f
100
AcDbEntity
  8
0
 62
5
100
AcDbSpline
 70
8
 71
3
 72
8
 73
4
 74
0
 40
0
 40
0
 40
0
 40
0
 40
1
 40
1
 40
1
 40
1
 10
170.048190
 20
172.860970
 30
0.0
 10
170.329710
 20
172.745610
 30
0.0
 10
170.421430
 20
172.599560
 30
0.0
 10
170.542790
 20
172.411880
 30
0.0
  0
SPLINE
  5
120
100
AcDbEntity
  8
0
 62
5
100
AcDbSpline
 70
8
 71
3
 72
8
 73
4
 74
0
 40
0
 40
0
 40
0
 40
0
 40
1
 40
1
 40
1
 40
1
 10
170.542790
 20
172.411880
 30
0.0
 10
170.561090
 20
172.383280
 30
0.0
 10
170.580590
 20
172.353680
 30
0.0
 10
170.600990
 20
172.323380
 30
0.0
  0
LINE
  5
121
100
AcDbEntity
  8
0
 62
5
100
AcDbLine
 10
121.113692
 20
173.054290
 30
0.0
 11
168.768311
 21
173.054290
 31
0.0
  0
SPLINE
  5
122
100
AcDbEntity
  8
0
 62
5
100
AcDbSpline
 70
8
 71
3
 72
8
 73
4
 74
0
 40
0
 40
0
 40
0
 40
0
 40
1
 40
1
 40
1
 40
1
 10
180.689728
 20
155.048524
 30
0.0
 10
180.859768
 20
154.644234
 30
0.0
 10
180.670328
 20
154.178574
 30
0.0
 10
180.265338
 20
154.008534
 30
0.0
  0
SPLINE
  5
123
100
AcDbEntity
  8
0
 62
5
100
AcDbSpline
 70
8
 71
3
 72
8
 73
4
 74
0
 40
0
 40
0
 40
0
 40
0
 40
1
 40
1
 40
1
 40
1
 10
180.265338
 20
154.008534
 30
0.0
 10
180.205738
 20
153.983134
 30
0.0
 10
180.143278
 20
153.965534
 30
0.0
 10
180.079068
 20
153.955234
 30
0.0
  0
LINE
  5
124
100
AcDbEntity
  8
0
 62
5
100
AcDbLine
 10
170.600990
 20
172.323340
 30
0.0
 11
180.690088
 21
155.049574
 31
0.0
  0
SPLINE
  5
125
100
AcDbEntity
  8
0
 62
5
100
AcDbSpline
 70
8
 71
3
 72
8
 73
4
 74
0
 40
0
 40
0
 40
0
 40
0
 40
1
 40
1
 40
1
 40
1
 10
121.124632
 20
153.955964
 30
0.0
 10
120.848402
 20
153.955964
 30
0.0
 10
120.624392
 20
154.179274
 30
0.0
 10
120.624392
 20
154.455854
 30
0.0
  0
LINE
  5
126
100
AcDbEntity
  8
0
 62
5
100
AcDbLine
 10
180.079778
 20
153.955964
 30
0.0
 11
121.124632
 21
153.955964
 31
0.0
  0
SPLINE
  5
127
100
AcDbEntity
  8
0
 62
5
100
AcDbSpline
 70
8
 71
3
 72
8
 73
4
 74
0
 40
0
 40
0
 40
0
 40
0
 40
1
 40
1
 40
1
 40
1
 10
120.624742
 20
172.554410
 30
0.0
 10
120.624742
 20
172.830280
 30
0.0
 10
120.849112
 20
173.053230
 30
0.0
 10
121.124982
 20
173.053230
 30
0.0
  0
LINE
  5
128
100
AcDbEntity
  8
0
 62
5
100
AcDbLine
 10
120.625092
 20
154.456554
 30
0.0
 11
120.625092
 21
170.546400
 31
0.0
  0
LINE
  5
129
100
AcDbEntity
  8
0
 62
5
100
AcDbLine
 10
120.625092
 20
170.546400
 30
0.0
 11
120.625092
 21
172.553350
 31
0.0
  0
SPLINE
  5
12a
100
AcDbEntity
  8
0
 62
5
100
AcDbSpline
 70
8
 71
3
 72
8
 73
4
 74
0
 40
0
 40
0
 40
0
 40
0
 40
1
 40
1
 40
1
 40
1
 10
168.370031
 20
172.048170
 30
0.0
 10
168.977511
 20
172.048880
 30
0.0
 10
169.469280
 20
171.556400
 30
0.0
 10
169.469280
 20
170.948910
 30
0.0
  0
SPLINE
  5
12b
100
AcDbEntity
  8
0
 62
5
100
AcDbSpline
 70
8
 71
3
 72
8
 73
4
 74
0
 40
0
 40
0
 40
0
 40
0
 40
1
 40
1
 40
1
 40
1
 10
169.469280
 20
170.948910
 30
0.0
 10
169.469280
 20
170.341430
 30
0.0
 10
168.977511
 20
169.848250
 30
0.0
 10
168.370031
 20
169.848250
 30
0.0
  0
SPLINE
  5
12c
100
AcDbEntity
  8
0
 62
5
100
AcDbSpline
 70
8
 71
3
 72
8
 73
4
 74
0
 40
0
 40
0
 40
0
 40
0
 40
1
 40
1
 40
1
 40
1
 10
168.370031
 20
169.848250
 30
0.0
 10
167.761841
 20
169.848250
 30
0.0
 10
167.270071
 20
170.341430
 30
0.0
 10
167.270071
 20
170.948910
 30
0.0
  0
SPLINE
  5
12d
100
AcDbEntity
  8
0
 62
5
100
AcDbSpline
 70
8
 71
3
 72
8
 73
4
 74
0
 40
0
 40
0
 40
0
 40
0
 40
1
 40
1
 40
1
 40
1
 10
167.270071
 20
170.948910
 30
0.0
 10
167.270071
 20
171.556400
 30
0.0
 10
167.761841
 20
172.048880
 30
0.0
 10
168.370031
 20
172.048880
 30
0.0
  0
SPLINE
  5
12e
100
AcDbEntity
  8
0
 62
5
100
AcDbSpline
 70
8
 71
3
 72
8
 73
4
 74
0
 40
0
 40
0
 40
0
 40
0
 40
1
 40
1
 40
1
 40
1
 10
176.869849
 20
157.549003
 30
0.0
 10
177.476989
 20
157.549003
 30
0.0
 10
177.969109
 20
157.057233
 30
0.0
 10
177.969109
 20
156.449754
 30
0.0
  0
SPLINE
  5
12f
100
AcDbEntity
  8
0
 62
5
100
AcDbSpline
 70
8
 71
3
 72
8
 73
4
 74
0
 40
0
 40
0
 40
0
 40
0
 40
1
 40
1
 40
1
 40
1
 10
177.969109
 20
156.449754
 30
0.0
 10
177.969109
 20
155.841564
 30
0.0
 10
177.476989
 20
155.349084
 30
0.0
 10
176.869849
 20
155.349084
 30
0.0
  0
SPLINE
  5
130
100
AcDbEntity
  8
0
 62
5
100
AcDbSpline
 70
8
 71
3
 72
8
 73
4
 74
0
 40
0
 40
0
 40
0
 40
0
 40
1
 40
1
 40
1
 40
1
 10
176.869849
 20
155.349084
 30
0.0
 10
176.262369
 20
155.349084
 30
0.0
 10
175.769539
 20
155.841564
 30
0.0
 10
175.769539
 20
156.449754
 30
0.0
  0
SPLINE
  5
131
100
AcDbEntity
  8
0
 62
5
100
AcDbSpline
 70
8
 71
3
 72
8
 73
4
 74
0
 40
0
 40
0
 40
0
 40
0
 40
1
 40
1
 40
1
 40
1
 10
175.769539
 20
156.449754
 30
0.0
 10
175.769539
 20
157.057233
 30
0.0
 10
176.262369
 20
157.549003
 30
0.0
 10
176.869849
 20
157.549003
 30
0.0
  0
SPLINE
  5
132
100
AcDbEntity
  8
0
 62
5
100
AcDbSpline
 70
8
 71
3
 72
8
 73
4
 74
0
 40
0
 40
0
 40
0
 40
0
 40
1
 40
1
 40
1
 40
1
 10
57.002373
 20
146.061581
 30
0.0
 10
56.908181
 20
146.155420
 30
0.0
 10
56.781181
 20
146.207984
 30
0.0
 10
56.648537
 20
146.207984
 30
0.0
  0
SPLINE
  5
133
100
AcDbEntity
  8
0
 62
5
100
AcDbSpline
 70
8
 71
3
 72
8
 73
4
 74
0
 40
0
 40
0
 40
0
 40
0
 40
1
 40
1
 40
1
 40
1
 10
0.649981
 20
146.208337
 30
0.0
 10
0.374109
 20
146.208337
 30
0.0
 10
0.150060
 20
146.431998
 30
0.0
 10
0.150060
 20
146.707870
 30
0.0
  0
LINE
  5
134
100
AcDbEntity
  8
0
 62
5
100
AcDbLine
 10
56.668998
 20
146.207631
 30
0.0
 11
0.649981
 21
146.207631
 31
0.0
  0
SPLINE
  5
135
100
AcDbEntity
  8
0
 62
5
100
AcDbSpline
 70
8
 71
3
 72
8
 73
4
 74
0
 40
0
 40
0
 40
0
 40
0
 40
1
 40
1
 40
1
 40
1
 10
0.150730
 20
201.956420
 30
0.0
 10
0.150730
 20
202.232998
 30
0.0
 10
0.374109
 20
202.456306
 30
0.0
 10
0.649981
 20
202.456306
 30
0.0
  0
LINE
  5
136
100
AcDbEntity
  8
0
 62
5
100
AcDbLine
 10
0.150060
 20
146.708223
 30
0.0
 11
0.150060
 21
201.956773
 31
0.0
  0
SPLINE
  5
137
100
AcDbEntity
  8
0
 62
5
100
AcDbSpline
 70
8
 71
3
 72
8
 73
4
 74
0
 40
0
 40
0
 40
0
 40
0
 40
1
 40
1
 40
1
 40
1
 10
36.649557
 20
202.456659
 30
0.0
 10
36.925429
 20
202.456659
 30
0.0
 10
37.149443
 20
202.680320
 30
0.0
 10
37.149443
 20
202.956193
 30
0.0
  0
LINE
  5
138
100
AcDbEntity
  8
0
 62
5
100
AcDbLine
 10
0.649981
 20
202.455954
 30
0.0
 11
36.647793
 21
202.455954
 31
0.0
  0
SPLINE
  5
139
100
AcDbEntity
  8
0
 62
5
100
AcDbSpline
 70
8
 71
3
 72
8
 73
4
 74
0
 40
0
 40
0
 40
0
 40
0
 40
1
 40
1
 40
1
 40
1
 10
37.148737
 20
206.706222
 30
0.0
 10
37.148737
 20
206.982447
 30
0.0
 10
37.373104
 20
207.206461
 30
0.0
 10
37.648976
 20
207.206461
 30
0.0
  0
LINE
  5
13a
100
AcDbEntity
  8
0
 62
5
100
AcDbLine
 10
37.149090
 20
202.956193
 30
0.0
 11
37.149090
 21
206.706222
 31
0.0
  0
SPLINE
  5
13b
100
AcDbEntity
  8
0
 62
5
100
AcDbSpline
 70
8
 71
3
 72
8
 73
4
 74
0
 40
0
 40
0
 40
0
 40
0
 40
1
 40
1
 40
1
 40
1
 10
55.649117
 20
207.206461
 30
0.0
 10
55.924989
 20
207.206461
 30
0.0
 10
56.147945
 20
207.430475
 30
0.0
 10
56.147945
 20
207.706347
 30
0.0
  0
LINE
  5
13c
100
AcDbEntity
  8
0
 62
5
100
AcDbLine
 10
37.648976
 20
207.205756
 30
0.0
 11
55.648059
 21
207.205756
 31
0.0
  0
SPLINE
  5
13d
100
AcDbEntity
  8
0
 62
5
100
AcDbSpline
 70
8
 71
3
 72
8
 73
4
 74
0
 40
0
 40
0
 40
0
 40
0
 40
1
 40
1
 40
1
 40
1
 10
56.147945
 20
208.956240
 30
0.0
 10
56.147945
 20
209.232112
 30
0.0
 10
56.373017
 20
209.456126
 30
0.0
 10
56.648890
 20
209.456126
 30
0.0
  0
LINE
  5
13e
100
AcDbEntity
  8
0
 62
5
100
AcDbLine
 10
56.147945
 20
207.705995
 30
0.0
 11
56.147945
 21
208.955534
 31
0.0
  0
SPLINE
  5
13f
100
AcDbEntity
  8
0
 62
5
100
AcDbSpline
 70
8
 71
3
 72
8
 73
4
 74
0
 40
0
 40
0
 40
0
 40
0
 40
1
 40
1
 40
1
 40
1
 10
77.647995
 20
209.456479
 30
0.0
 10
77.923867
 20
209.456479
 30
0.0
 10
78.147881
 20
209.232112
 30
0.0
 10
78.147881
 20
208.956240
 30
0.0
  0
LINE
  5
140
100
AcDbEntity
  8
0
 62
5
100
AcDbLine
 10
56.647831
 20
209.455773
 30
0.0
 11
77.647995
 21
209.455773
 31
0.0
  0
SPLINE
  5
141
100
AcDbEntity
  8
0
 62
5
100
AcDbSpline
 70
8
 71
3
 72
8
 73
4
 74
0
 40
0
 40
0
 40
0
 40
0
 40
1
 40
1
 40
1
 40
1
 10
78.147881
 20
207.705995
 30
0.0
 10
78.147881
 20
207.430122
 30
0.0
 10
78.371543
 20
207.206461
 30
0.0
 10
78.648120
 20
207.206461
 30
0.0
  0
LINE
  5
142
100
AcDbEntity
  8
0
 62
5
100
AcDbLine
 10
78.147881
 20
208.955534
 30
0.0
 11
78.147881
 21
207.705995
 31
0.0
  0
SPLINE
  5
143
100
AcDbEntity
  8
0
 62
5
100
AcDbSpline
 70
8
 71
3
 72
8
 73
4
 74
0
 40
0
 40
0
 40
0
 40
0
 40
1
 40
1
 40
1
 40
1
 10
96.646850
 20
207.206461
 30
0.0
 10
96.923428
 20
207.206461
 30
0.0
 10
97.147089
 20
206.982094
 30
0.0
 10
97.147089
 20
206.706222
 30
0.0
  0
LINE
  5
144
100
AcDbEntity
  8
0
 62
5
100
AcDbLine
 10
78.648120
 20
207.205756
 30
0.0
 11
96.646850
 21
207.205756
 31
0.0
  0
SPLINE
  5
145
100
AcDbEntity
  8
0
 62
5
100
AcDbSpline
 70
8
 71
3
 72
8
 73
4
 74
0
 40
0
 40
0
 40
0
 40
0
 40
1
 40
1
 40
1
 40
1
 10
97.147089
 20
205.206210
 30
0.0
 10
97.147089
 20
204.930338
 30
0.0
 10
97.370397
 20
204.706324
 30
0.0
 10
97.646975
 20
204.706324
 30
0.0
  0
LINE
  5
146
100
AcDbEntity
  8
0
 62
5
100
AcDbLine
 10
97.147089
 20
206.706222
 30
0.0
 11
97.147089
 21
205.206210
 31
0.0
  0
SPLINE
  5
147
100
AcDbEntity
  8
0
 62
5
100
AcDbSpline
 70
8
 71
3
 72
8
 73
4
 74
0
 40
0
 40
0
 40
0
 40
0
 40
1
 40
1
 40
1
 40
1
 10
114.346071
 20
204.706677
 30
0.0
 10
114.622649
 20
204.706677
 30
0.0
 10
114.847015
 20
204.481957
 30
0.0
 10
114.847015
 20
204.206085
 30
0.0
  0
LINE
  5
148
100
AcDbEntity
  8
0
 62
5
100
AcDbLine
 10
97.646975
 20
204.705971
 30
0.0
 11
114.346071
 21
204.705971
 31
0.0
  0
SPLINE
  5
149
100
AcDbEntity
  8
0
 62
5
100
AcDbSpline
 70
8
 71
3
 72
8
 73
4
 74
0
 40
0
 40
0
 40
0
 40
0
 40
1
 40
1
 40
1
 40
1
 10
114.847015
 20
155.036604
 30
0.0
 10
114.848779
 20
154.769199
 30
0.0
 10
114.944029
 20
154.046709
 30
0.0
 10
115.122182
 20
153.761312
 30
0.0
  0
SPLINE
  5
14a
100
AcDbEntity
  8
0
 62
5
100
AcDbSpline
 70
8
 71
3
 72
8
 73
4
 74
0
 40
0
 40
0
 40
0
 40
0
 40
1
 40
1
 40
1
 40
1
 10
115.122182
 20
153.761312
 30
0.0
 10
115.247771
 20
153.559876
 30
0.0
 10
115.730724
 20
152.999665
 30
0.0
 10
115.874657
 20
152.912528
 30
0.0
  0
LINE
  5
14b
100
AcDbEntity
  8
0
 62
5
100
AcDbLine
 10
114.847015
 20
204.205379
 30
0.0
 11
114.847015
 21
155.036604
 31
0.0
  0
SPLINE
  5
14c
100
AcDbEntity
  8
0
 62
5
100
AcDbSpline
 70
8
 71
3
 72
8
 73
4
 74
0
 40
0
 40
0
 40
0
 40
0
 40
1
 40
1
 40
1
 40
1
 10
133.799656
 20
142.396924
 30
0.0
 10
134.327412
 20
142.001460
 30
0.0
 10
134.489337
 20
141.280029
 30
0.0
 10
134.182773
 20
140.696182
 30
0.0
  0
LINE
  5
14d
100
AcDbEntity
  8
0
 62
5
100
AcDbLine
 10
115.874657
 20
152.912528
 30
0.0
 11
133.799656
 21
142.397277
 31
0.0
  0
SPLINE
  5
14e
100
AcDbEntity
  8
0
 62
5
100
AcDbSpline
 70
8
 71
3
 72
8
 73
4
 74
0
 40
0
 40
0
 40
0
 40
0
 40
1
 40
1
 40
1
 40
1
 10
120.945840
 20
117.659431
 30
0.0
 10
120.680551
 20
117.258323
 30
0.0
 10
120.139037
 20
117.147903
 30
0.0
 10
119.737576
 20
117.414956
 30
0.0
  0
LINE
  5
14f
100
AcDbEntity
  8
0
 62
5
100
AcDbLine
 10
119.737576
 20
117.414956
 30
0.0
 11
119.716409
 21
117.428714
 31
0.0
  0
LINE
  5
150
100
AcDbEntity
  8
0
 62
5
100
AcDbLine
 10
134.182068
 20
140.696182
 30
0.0
 11
120.945840
 21
117.659431
 31
0.0
  0
SPLINE
  5
151
100
AcDbEntity
  8
0
 62
5
100
AcDbSpline
 70
8
 71
3
 72
8
 73
4
 74
0
 40
0
 40
0
 40
0
 40
0
 40
1
 40
1
 40
1
 40
1
 10
104.968528
 20
125.917962
 30
0.0
 10
104.877511
 20
125.950065
 30
0.0
 10
104.783320
 20
125.973701
 30
0.0
 10
104.688422
 20
125.989929
 30
0.0
  0
LINE
  5
152
100
AcDbEntity
  8
0
 62
5
100
AcDbLine
 10
119.716409
 20
117.428714
 30
0.0
 11
104.967823
 21
125.916904
 31
0.0
  0
SPLINE
  5
153
100
AcDbEntity
  8
0
 62
5
100
AcDbSpline
 70
8
 71
3
 72
8
 73
4
 74
0
 40
0
 40
0
 40
0
 40
0
 40
1
 40
1
 40
1
 40
1
 10
67.898272
 20
131.458339
 30
0.0
 10
67.768802
 20
131.471745
 30
0.0
 10
67.646741
 20
131.523603
 30
0.0
 10
67.547963
 20
131.608623
 30
0.0
  0
LINE
  5
154
100
AcDbEntity
  8
0
 62
5
100
AcDbLine
 10
104.687717
 20
125.989929
 30
0.0
 11
67.897919
 21
131.458339
 31
0.0
  0
LINE
  5
155
100
AcDbEntity
  8
0
 62
5
100
AcDbLine
 10
67.547611
 20
131.607917
 30
0.0
 11
56.998140
 21
146.066167
 31
0.0
  0
LINE
  5
156
100
AcDbEntity
  8
0
 62
5
100
AcDbLine
 10
56.998140
 20
146.066167
 30
0.0
 11
57.001667
 21
146.061934
 31
0.0
  0
SPLINE
  5
157
100
AcDbEntity
  8
0
 62
5
100
AcDbSpline
 70
8
 71
3
 72
8
 73
4
 74
0
 40
0
 40
0
 40
0
 40
0
 40
1
 40
1
 40
1
 40
1
 10
94.566166
 20
187.457248
 30
0.0
 10
94.566871
 20
186.849764
 30
0.0
 10
95.058644
 20
186.357286
 30
0.0
 10
95.666127
 20
186.357286
 30
0.0
  0
SPLINE
  5
158
100
AcDbEntity
  8
0
 62
5
100
AcDbSpline
 70
8
 71
3
 72
8
 73
4
 74
0
 40
0
 40
0
 40
0
 40
0
 40
1
 40
1
 40
1
 40
1
 10
95.666127
 20
186.357286
 30
0.0
 10
96.273611
 20
186.357286
 30
0.0
 10
96.766794
 20
186.849764
 30
0.0
 10
96.766794
 20
187.457248
 30
0.0
  0
SPLINE
  5
159
100
AcDbEntity
  8
0
 62
5
100
AcDbSpline
 70
8
 71
3
 72
8
 73
4
 74
0
 40
0
 40
0
 40
0
 40
0
 40
1
 40
1
 40
1
 40
1
 10
96.766794
 20
187.457248
 30
0.0
 10
96.766794
 20
188.064731
 30
0.0
 10
96.273611
 20
188.557209
 30
0.0
 10
95.666127
 20
188.557209
 30
0.0
  0
SPLINE
  5
15a
100
AcDbEntity
  8
0
 62
5
100
AcDbSpline
 70
8
 71
3
 72
8
 73
4
 74
0
 40
0
 40
0
 40
0
 40
0
 40
1
 40
1
 40
1
 40
1
 10
95.666127
 20
188.557209
 30
0.0
 10
95.058644
 20
188.557209
 30
0.0
 10
94.566871
 20
188.064731
 30
0.0
 10
94.566871
 20
187.457248
 30
0.0
  0
SPLINE
  5
15b
100
AcDbEntity
  8
0
 62
5
100
AcDbSpline
 70
8
 71
3
 72
8
 73
4
 74
0
 40
0
 40
0
 40
0
 40
0
 40
1
 40
1
 40
1
 40
1
 10
18.552790
 20
183.834924
 30
0.0
 10
18.552790
 20
183.227440
 30
0.0
 10
19.045303
 20
182.734962
 30
0.0
 10
19.652752
 20
182.734962
 30
0.0
  0
SPLINE
  5
15c
100
AcDbEntity
  8
0
 62
5
100
AcDbSpline
 70
8
 71
3
 72
8
 73
4
 74
0
 40
0
 40
0
 40
0
 40
0
 40
1
 40
1
 40
1
 40
1
 10
19.652752
 20
182.734962
 30
0.0
 10
20.260165
 20
182.734962
 30
0.0
 10
20.752678
 20
183.227440
 30
0.0
 10
20.752678
 20
183.834924
 30
0.0
  0
SPLINE
  5
15d
100
AcDbEntity
  8
0
 62
5
100
AcDbSpline
 70
8
 71
3
 72
8
 73
4
 74
0
 40
0
 40
0
 40
0
 40
0
 40
1
 40
1
 40
1
 40
1
 10
20.752678
 20
183.834924
 30
0.0
 10
20.752678
 20
184.442408
 30
0.0
 10
20.260165
 20
184.934886
 30
0.0
 10
19.652752
 20
184.934886
 30
0.0
  0
SPLINE
  5
15e
100
AcDbEntity
  8
0
 62
5
100
AcDbSpline
 70
8
 71
3
 72
8
 73
4
 74
0
 40
0
 40
0
 40
0
 40
0
 40
1
 40
1
 40
1
 40
1
 10
19.652752
 20
184.934886
 30
0.0
 10
19.045303
 20
184.934886
 30
0.0
 10
18.552790
 20
184.442408
 30
0.0
 10
18.552790
 20
183.834924
 30
0.0
  0
SPLINE
  5
15f
100
AcDbEntity
  8
0
 62
5
100
AcDbSpline
 70
8
 71
3
 72
8
 73
4
 74
0
 40
0
 40
0
 40
0
 40
0
 40
1
 40
1
 40
1
 40
1
 10
18.543971
 20
164.821253
 30
0.0
 10
18.543971
 20
164.214475
 30
0.0
 10
19.036484
 20
163.721997
 30
0.0
 10
19.643932
 20
163.721997
 30
0.0
  0
SPLINE
  5
160
100
AcDbEntity
  8
0
 62
5
100
AcDbSpline
 70
8
 71
3
 72
8
 73
4
 74
0
 40
0
 40
0
 40
0
 40
0
 40
1
 40
1
 40
1
 40
1
 10
19.643932
 20
163.721997
 30
0.0
 10
20.251345
 20
163.721997
 30
0.0
 10
20.743859
 20
164.214475
 30
0.0
 10
20.743859
 20
164.821253
 30
0.0
  0
SPLINE
  5
161
100
AcDbEntity
  8
0
 62
5
100
AcDbSpline
 70
8
 71
3
 72
8
 73
4
 74
0
 40
0
 40
0
 40
0
 40
0
 40
1
 40
1
 40
1
 40
1
 10
20.743859
 20
164.821253
 30
0.0
 10
20.743859
 20
165.429442
 30
0.0
 10
20.251345
 20
165.921920
 30
0.0
 10
19.643932
 20
165.921920
 30
0.0
  0
SPLINE
  5
162
100
AcDbEntity
  8
0
 62
5
100
AcDbSpline
 70
8
 71
3
 72
8
 73
4
 74
0
 40
0
 40
0
 40
0
 40
0
 40
1
 40
1
 40
1
 40
1
 10
19.643932
 20
165.921920
 30
0.0
 10
19.036484
 20
165.921920
 30
0.0
 10
18.543971
 20
165.429442
 30
0.0
 10
18.543971
 20
164.821253
 30
0.0
  0
SPLINE
  5
163
100
AcDbEntity
  8
0
 62
5
100
AcDbSpline
 70
8
 71
3
 72
8
 73
4
 74
0
 40
0
 40
0
 40
0
 40
0
 40
1
 40
1
 40
1
 40
1
 10
108.306866
 20
139.959934
 30
0.0
 10
108.306866
 20
139.352451
 30
0.0
 10
108.799344
 20
138.860326
 30
0.0
 10
109.406827
 20
138.860326
 30
0.0
  0
SPLINE
  5
164
100
AcDbEntity
  8
0
 62
5
100
AcDbSpline
 70
8
 71
3
 72
8
 73
4
 74
0
 40
0
 40
0
 40
0
 40
0
 40
1
 40
1
 40
1
 40
1
 10
109.406827
 20
138.860326
 30
0.0
 10
110.014311
 20
138.860326
 30
0.0
 10
110.506789
 20
139.352451
 30
0.0
 10
110.506789
 20
139.960287
 30
0.0
  0
SPLINE
  5
165
100
AcDbEntity
  8
0
 62
5
100
AcDbSpline
 70
8
 71
3
 72
8
 73
4
 74
0
 40
0
 40
0
 40
0
 40
0
 40
1
 40
1
 40
1
 40
1
 10
110.506789
 20
139.960287
 30
0.0
 10
110.506789
 20
140.567771
 30
0.0
 10
110.014311
 20
141.059896
 30
0.0
 10
109.406827
 20
141.059896
 30
0.0
  0
SPLINE
  5
166
100
AcDbEntity
  8
0
 62
5
100
AcDbSpline
 70
8
 71
3
 72
8
 73
4
 74
0
 40
0
 40
0
 40
0
 40
0
 40
1
 40
1
 40
1
 40
1
 10
109.406827
 20
141.059896
 30
0.0
 10
108.799344
 20
141.059896
 30
0.0
 10
108.306866
 20
140.567771
 30
0.0
 10
108.306866
 20
139.960287
 30
0.0
  0
SPLINE
  5
167
100
AcDbEntity
  8
0
 62
5
100
AcDbSpline
 70
8
 71
3
 72
8
 73
4
 74
0
 40
0
 40
0
 40
0
 40
0
 40
1
 40
1
 40
1
 40
1
 10
61.791333
 20
147.714346
 30
0.0
 10
61.791333
 20
147.106157
 30
0.0
 10
62.283811
 20
146.614384
 30
0.0
 10
62.891295
 20
146.614384
 30
0.0
  0
SPLINE
  5
168
100
AcDbEntity
  8
0
 62
5
100
AcDbSpline
 70
8
 71
3
 72
8
 73
4
 74
0
 40
0
 40
0
 40
0
 40
0
 40
1
 40
1
 40
1
 40
1
 10
62.891295
 20
146.614384
 30
0.0
 10
63.498778
 20
146.614384
 30
0.0
 10
63.991256
 20
147.106157
 30
0.0
 10
63.991256
 20
147.713640
 30
0.0
  0
SPLINE
  5
169
100
AcDbEntity
  8
0
 62
5
100
AcDbSpline
 70
8
 71
3
 72
8
 73
4
 74
0
 40
0
 40
0
 40
0
 40
0
 40
1
 40
1
 40
1
 40
1
 10
63.991256
 20
147.713640
 30
0.0
 10
63.991256
 20
148.321124
 30
0.0
 10
63.498778
 20
148.813602
 30
0.0
 10
62.891295
 20
148.813602
 30
0.0
  0
SPLINE
  5
16a
100
AcDbEntity
  8
0
 62
5
100
AcDbSpline
 70
8
 71
3
 72
8
 73
4
 74
0
 40
0
 40
0
 40
0
 40
0
 40
1
 40
1
 40
1
 40
1
 10
62.891295
 20
148.813602
 30
0.0
 10
62.283811
 20
148.813602
 30
0.0
 10
61.791333
 20
148.321124
 30
0.0
 10
61.791333
 20
147.713640
 30
0.0
  0
SPLINE
  5
16b
100
AcDbEntity
  8
0
 62
5
100
AcDbSpline
 70
8
 71
3
 72
8
 73
4
 74
0
 40
0
 40
0
 40
0
 40
0
 40
1
 40
1
 40
1
 40
1
 10
113.451080
 20
90.358319
 30
0.0
 10
112.912741
 20
90.358319
 30
0.0
 10
112.476002
 20
90.794705
 30
0.0
 10
112.476002
 20
91.333397
 30
0.0
  0
SPLINE
  5
16c
100
AcDbEntity
  8
0
 62
5
100
AcDbSpline
 70
8
 71
3
 72
8
 73
4
 74
0
 40
0
 40
0
 40
0
 40
0
 40
1
 40
1
 40
1
 40
1
 10
112.476002
 20
91.333397
 30
0.0
 10
112.476002
 20
91.871736
 30
0.0
 10
112.912741
 20
92.308122
 30
0.0
 10
113.451080
 20
92.308122
 30
0.0
  0
LINE
  5
16d
100
AcDbEntity
  8
0
 62
5
100
AcDbLine
 10
113.451080
 20
92.308122
 30
0.0
 11
114.509414
 21
92.308122
 31
0.0
  0
SPLINE
  5
16e
100
AcDbEntity
  8
0
 62
5
100
AcDbSpline
 70
8
 71
3
 72
8
 73
4
 74
0
 40
0
 40
0
 40
0
 40
0
 40
1
 40
1
 40
1
 40
1
 10
114.509414
 20
92.308122
 30
0.0
 10
115.047753
 20
92.308122
 30
0.0
 10
115.484492
 20
91.871736
 30
0.0
 10
115.484492
 20
91.333397
 30
0.0
  0
SPLINE
  5
16f
100
AcDbEntity
  8
0
 62
5
100
AcDbSpline
 70
8
 71
3
 72
8
 73
4
 74
0
 40
0
 40
0
 40
0
 40
0
 40
1
 40
1
 40
1
 40
1
 10
115.484492
 20
91.333397
 30
0.0
 10
115.484492
 20
90.794705
 30
0.0
 10
115.047753
 20
90.358319
 30
0.0
 10
114.509414
 20
90.358319
 30
0.0
  0
LINE
  5
170
100
AcDbEntity
  8
0
 62
5
100
AcDbLine
 10
114.509414
 20
90.358319
 30
0.0
 11
113.451080
 21
90.358319
 31
0.0
  0
SPLINE
  5
171
100
AcDbEntity
  8
0
 62
5
100
AcDbSpline
 70
8
 71
3
 72
8
 73
4
 74
0
 40
0
 40
0
 40
0
 40
0
 40
1
 40
1
 40
1
 40
1
 10
57.187335
 20
121.107684
 30
0.0
 10
56.471195
 20
121.027956
 30
0.0
 10
55.757878
 20
120.918595
 30
0.0
 10
55.221656
 20
120.797945
 30
0.0
  0
LINE
  5
172
100
AcDbEntity
  8
0
 62
5
100
AcDbLine
 10
55.221656
 20
120.797945
 30
0.0
 11
2.101416
 21
108.856060
 31
0.0
  0
SPLINE
  5
173
100
AcDbEntity
  8
0
 62
5
100
AcDbSpline
 70
8
 71
3
 72
8
 73
4
 74
0
 40
0
 40
0
 40
0
 40
0
 40
1
 40
1
 40
1
 40
1
 10
2.101416
 20
108.856060
 30
0.0
 10
1.028265
 20
108.614760
 30
0.0
 10
0.149848
 20
107.517620
 30
0.0
 10
0.149848
 20
106.417306
 30
0.0
  0
LINE
  5
174
100
AcDbEntity
  8
0
 62
5
100
AcDbLine
 10
0.149848
 20
106.417306
 30
0.0
 11
0.149848
 21
14.318280
 31
0.0
  0
SPLINE
  5
175
100
AcDbEntity
  8
0
 62
5
100
AcDbSpline
 70
8
 71
3
 72
8
 73
4
 74
0
 40
0
 40
0
 40
0
 40
0
 40
1
 40
1
 40
1
 40
1
 10
0.149848
 20
14.318280
 30
0.0
 10
0.149848
 20
13.218319
 30
0.0
 10
1.049785
 20
12.318382
 30
0.0
 10
2.150099
 20
12.318382
 30
0.0
  0
LINE
  5
176
100
AcDbEntity
  8
0
 62
5
100
AcDbLine
 10
2.150099
 20
12.318382
 30
0.0
 11
92.862002
 21
12.318382
 31
0.0
  0
SPLINE
  5
177
100
AcDbEntity
  8
0
 62
5
100
AcDbSpline
 70
8
 71
3
 72
8
 73
4
 74
0
 40
0
 40
0
 40
0
 40
0
 40
1
 40
1
 40
1
 40
1
 10
92.862002
 20
12.318382
 30
0.0
 10
93.961963
 20
12.318382
 30
0.0
 10
95.641539
 20
11.868591
 30
0.0
 10
96.594039
 20
11.318963
 30
0.0
  0
LINE
  5
178
100
AcDbEntity
  8
0
 62
5
100
AcDbLine
 10
96.594039
 20
11.318963
 30
0.0
 11
115.399572
 21
0.469630
 31
0.0
  0
SPLINE
  5
179
100
AcDbEntity
  8
0
 62
5
100
AcDbSpline
 70
8
 71
3
 72
8
 73
4
 74
0
 40
0
 40
0
 40
0
 40
0
 40
1
 40
1
 40
1
 40
1
 10
115.399572
 20
0.469630
 30
0.0
 10
116.352072
 20
-0.079645
 30
0.0
 10
117.577975
 20
0.251967
 30
0.0
 10
118.122664
 20
1.207289
 30
0.0
  0
LINE
  5
17a
100
AcDbEntity
  8
0
 62
5
100
AcDbLine
 10
118.122664
 20
1.207289
 30
0.0
 11
133.239198
 21
27.703380
 31
0.0
  0
SPLINE
  5
17b
100
AcDbEntity
  8
0
 62
5
100
AcDbSpline
 70
8
 71
3
 72
8
 73
4
 74
0
 40
0
 40
0
 40
0
 40
0
 40
1
 40
1
 40
1
 40
1
 10
133.239198
 20
27.703380
 30
0.0
 10
133.784240
 20
28.658703
 30
0.0
 10
134.230504
 20
30.340395
 30
0.0
 10
134.230504
 20
31.440357
 30
0.0
  0
LINE
  5
17c
100
AcDbEntity
  8
0
 62
5
100
AcDbLine
 10
134.230504
 20
31.440357
 30
0.0
 11
134.232268
 21
98.678417
 31
0.0
  0
SPLINE
  5
17d
100
AcDbEntity
  8
0
 62
5
100
AcDbSpline
 70
8
 71
3
 72
8
 73
4
 74
0
 40
0
 40
0
 40
0
 40
0
 40
1
 40
1
 40
1
 40
1
 10
134.232268
 20
98.678417
 30
0.0
 10
134.232268
 20
99.778378
 30
0.0
 10
133.729207
 20
101.424793
 30
0.0
 10
133.114667
 20
102.337076
 30
0.0
  0
LINE
  5
17e
100
AcDbEntity
  8
0
 62
5
100
AcDbLine
 10
133.114667
 20
102.337076
 30
0.0
 11
127.304768
 21
110.957910
 31
0.0
  0
SPLINE
  5
17f
100
AcDbEntity
  8
0
 62
5
100
AcDbSpline
 70
8
 71
3
 72
8
 73
4
 74
0
 40
0
 40
0
 40
0
 40
0
 40
1
 40
1
 40
1
 40
1
 10
127.304768
 20
110.957910
 30
0.0
 10
126.690229
 20
111.869841
 30
0.0
 10
125.287231
 20
112.616319
 30
0.0
 10
124.187270
 20
112.616319
 30
0.0
  0
LINE
  5
180
100
AcDbEntity
  8
0
 62
5
100
AcDbLine
 10
124.187270
 20
112.616319
 30
0.0
 11
124.070147
 21
112.616319
 31
0.0
  0
LINE
  5
181
100
AcDbEntity
  8
0
 62
5
100
AcDbLine
 10
124.070147
 20
112.616319
 30
0.0
 11
124.070147
 21
97.916416
 31
0.0
  0
LINE
  5
182
100
AcDbEntity
  8
0
 62
5
100
AcDbLine
 10
124.070147
 20
97.916416
 30
0.0
 11
111.909892
 21
97.916416
 31
0.0
  0
LINE
  5
183
100
AcDbEntity
  8
0
 62
5
100
AcDbLine
 10
111.909892
 20
97.916416
 30
0.0
 11
111.910245
 21
112.616319
 31
0.0
  0
LINE
  5
184
100
AcDbEntity
  8
0
 62
5
100
AcDbLine
 10
111.910245
 20
112.616319
 30
0.0
 11
110.187278
 21
112.616319
 31
0.0
  0
SPLINE
  5
185
100
AcDbEntity
  8
0
 62
5
100
AcDbSpline
 70
8
 71
3
 72
8
 73
4
 74
0
 40
0
 40
0
 40
0
 40
0
 40
1
 40
1
 40
1
 40
1
 10
110.187278
 20
112.616319
 30
0.0
 10
109.087316
 20
112.616319
 30
0.0
 10
107.452543
 20
113.136314
 30
0.0
 10
106.554724
 20
113.771667
 30
0.0
  0
LINE
  5
186
100
AcDbEntity
  8
0
 62
5
100
AcDbLine
 10
106.554724
 20
113.771667
 30
0.0
 11
97.635792
 21
120.081453
 31
0.0
  0
SPLINE
  5
187
100
AcDbEntity
  8
0
 62
5
100
AcDbSpline
 70
8
 71
3
 72
8
 73
4
 74
0
 40
0
 40
0
 40
0
 40
0
 40
1
 40
1
 40
1
 40
1
 10
97.635792
 20
120.081453
 30
0.0
 10
97.211400
 20
120.381667
 30
0.0
 10
96.622261
 20
120.656128
 30
0.0
 10
96.003136
 20
120.862150
 30
0.0
  0
LINE
  5
188
100
AcDbEntity
  8
0
 62
5
100
AcDbLine
 10
96.003136
 20
120.862150
 30
0.0
 11
96.003136
 21
86.740765
 31
0.0
  0
LINE
  5
189
100
AcDbEntity
  8
0
 62
5
100
AcDbLine
 10
96.003136
 20
86.740765
 30
0.0
 11
57.172871
 21
86.740765
 31
0.0
  0
LINE
  5
18a
100
AcDbEntity
  8
0
 62
5
100
AcDbLine
 10
57.172871
 20
86.740765
 30
0.0
 11
57.172871
 21
121.107684
 31
0.0
  0
SPLINE
  5
18b
100
AcDbEntity
  8
0
 62
5
100
AcDbSpline
 70
8
 71
3
 72
8
 73
4
 74
0
 40
0
 40
0
 40
0
 40
0
 40
1
 40
1
 40
1
 40
1
 10
20.402447
 20
88.768321
 30
0.0
 10
20.402447
 20
88.229981
 30
0.0
 10
19.966414
 20
87.793242
 30
0.0
 10
19.427369
 20
87.793242
 30
0.0
  0
SPLINE
  5
18c
100
AcDbEntity
  8
0
 62
5
100
AcDbSpline
 70
8
 71
3
 72
8
 73
4
 74
0
 40
0
 40
0
 40
0
 40
0
 40
1
 40
1
 40
1
 40
1
 10
19.427369
 20
87.793242
 30
0.0
 10
18.889383
 20
87.793242
 30
0.0
 10
18.452644
 20
88.229981
 30
0.0
 10
18.452644
 20
88.768321
 30
0.0
  0
SPLINE
  5
18d
100
AcDbEntity
  8
0
 62
5
100
AcDbSpline
 70
8
 71
3
 72
8
 73
4
 74
0
 40
0
 40
0
 40
0
 40
0
 40
1
 40
1
 40
1
 40
1
 10
18.452644
 20
88.768321
 30
0.0
 10
18.452644
 20
89.306660
 30
0.0
 10
18.889383
 20
89.743399
 30
0.0
 10
19.427369
 20
89.743399
 30
0.0
  0
SPLINE
  5
18e
100
AcDbEntity
  8
0
 62
5
100
AcDbSpline
 70
8
 71
3
 72
8
 73
4
 74
0
 40
0
 40
0
 40
0
 40
0
 40
1
 40
1
 40
1
 40
1
 10
19.427369
 20
89.743399
 30
0.0
 10
19.966414
 20
89.743399
 30
0.0
 10
20.402447
 20
89.306660
 30
0.0
 10
20.402447
 20
88.768321
 30
0.0
  0
LINE
  5
18f
100
AcDbEntity
  8
0
 62
5
100
AcDbLine
 10
20.402447
 20
88.768321
 30
0.0
 11
20.402447
 21
88.768321
 31
0.0
  0
SPLINE
  5
190
100
AcDbEntity
  8
0
 62
5
100
AcDbSpline
 70
8
 71
3
 72
8
 73
4
 74
0
 40
0
 40
0
 40
0
 40
0
 40
1
 40
1
 40
1
 40
1
 10
58.502462
 20
74.543257
 30
0.0
 10
58.502462
 20
74.004917
 30
0.0
 10
58.066429
 20
73.568178
 30
0.0
 10
57.527384
 20
73.568178
 30
0.0
  0
SPLINE
  5
191
100
AcDbEntity
  8
0
 62
5
100
AcDbSpline
 70
8
 71
3
 72
8
 73
4
 74
0
 40
0
 40
0
 40
0
 40
0
 40
1
 40
1
 40
1
 40
1
 10
57.527384
 20
73.568178
 30
0.0
 10
56.989398
 20
73.568178
 30
0.0
 10
56.552659
 20
74.004917
 30
0.0
 10
56.552659
 20
74.543257
 30
0.0
  0
SPLINE
  5
192
100
AcDbEntity
  8
0
 62
5
100
AcDbSpline
 70
8
 71
3
 72
8
 73
4
 74
0
 40
0
 40
0
 40
0
 40
0
 40
1
 40
1
 40
1
 40
1
 10
56.552659
 20
74.543257
 30
0.0
 10
56.552659
 20
75.081596
 30
0.0
 10
56.989398
 20
75.518335
 30
0.0
 10
57.527384
 20
75.518335
 30
0.0
  0
SPLINE
  5
193
100
AcDbEntity
  8
0
 62
5
100
AcDbSpline
 70
8
 71
3
 72
8
 73
4
 74
0
 40
0
 40
0
 40
0
 40
0
 40
1
 40
1
 40
1
 40
1
 10
57.527384
 20
75.518335
 30
0.0
 10
58.066429
 20
75.518335
 30
0.0
 10
58.502462
 20
75.081596
 30
0.0
 10
58.502462
 20
74.543257
 30
0.0
  0
LINE
  5
194
100
AcDbEntity
  8
0
 62
5
100
AcDbLine
 10
58.502462
 20
74.543257
 30
0.0
 11
58.502462
 21
74.543257
 31
0.0
  0
SPLINE
  5
195
100
AcDbEntity
  8
0
 62
5
100
AcDbSpline
 70
8
 71
3
 72
8
 73
4
 74
0
 40
0
 40
0
 40
0
 40
0
 40
1
 40
1
 40
1
 40
1
 10
52.279460
 20
113.660330
 30
0.0
 10
52.279460
 20
113.121991
 30
0.0
 10
51.843074
 20
112.685252
 30
0.0
 10
51.304382
 20
112.685252
 30
0.0
  0
SPLINE
  5
196
100
AcDbEntity
  8
0
 62
5
100
AcDbSpline
 70
8
 71
3
 72
8
 73
4
 74
0
 40
0
 40
0
 40
0
 40
0
 40
1
 40
1
 40
1
 40
1
 10
51.304382
 20
112.685252
 30
0.0
 10
50.766043
 20
112.685252
 30
0.0
 10
50.329656
 20
113.121991
 30
0.0
 10
50.329656
 20
113.660330
 30
0.0
  0
SPLINE
  5
197
100
AcDbEntity
  8
0
 62
5
100
AcDbSpline
 70
8
 71
3
 72
8
 73
4
 74
0
 40
0
 40
0
 40
0
 40
0
 40
1
 40
1
 40
1
 40
1
 10
50.329656
 20
113.660330
 30
0.0
 10
50.329656
 20
114.198670
 30
0.0
 10
50.766043
 20
114.635409
 30
0.0
 10
51.304382
 20
114.635409
 30
0.0
  0
SPLINE
  5
198
100
AcDbEntity
  8
0
 62
5
100
AcDbSpline
 70
8
 71
3
 72
8
 73
4
 74
0
 40
0
 40
0
 40
0
 40
0
 40
1
 40
1
 40
1
 40
1
 10
51.304382
 20
114.635409
 30
0.0
 10
51.843074
 20
114.635409
 30
0.0
 10
52.279460
 20
114.198670
 30
0.0
 10
52.279460
 20
113.660330
 30
0.0
  0
LINE
  5
199
100
AcDbEntity
  8
0
 62
5
100
AcDbLine
 10
52.279460
 20
113.660330
 30
0.0
 11
52.279460
 21
113.660330
 31
0.0
  0
SPLINE
  5
19a
100
AcDbEntity
  8
0
 62
5
100
AcDbSpline
 70
8
 71
3
 72
8
 73
4
 74
0
 40
0
 40
0
 40
0
 40
0
 40
1
 40
1
 40
1
 40
1
 10
20.402447
 20
31.363239
 30
0.0
 10
20.402447
 20
30.824900
 30
0.0
 10
19.966414
 20
30.388161
 30
0.0
 10
19.427369
 20
30.388161
 30
0.0
  0
SPLINE
  5
19b
100
AcDbEntity
  8
0
 62
5
100
AcDbSpline
 70
8
 71
3
 72
8
 73
4
 74
0
 40
0
 40
0
 40
0
 40
0
 40
1
 40
1
 40
1
 40
1
 10
19.427369
 20
30.388161
 30
0.0
 10
18.889383
 20
30.388161
 30
0.0
 10
18.452644
 20
30.824900
 30
0.0
 10
18.452644
 20
31.363239
 30
0.0
  0
SPLINE
  5
19c
100
AcDbEntity
  8
0
 62
5
100
AcDbSpline
 70
8
 71
3
 72
8
 73
4
 74
0
 40
0
 40
0
 40
0
 40
0
 40
1
 40
1
 40
1
 40
1
 10
18.452644
 20
31.363239
 30
0.0
 10
18.452644
 20
31.901579
 30
0.0
 10
18.889383
 20
32.338318
 30
0.0
 10
19.427369
 20
32.338318
 30
0.0
  0
SPLINE
  5
19d
100
AcDbEntity
  8
0
 62
5
100
AcDbSpline
 70
8
 71
3
 72
8
 73
4
 74
0
 40
0
 40
0
 40
0
 40
0
 40
1
 40
1
 40
1
 40
1
 10
19.427369
 20
32.338318
 30
0.0
 10
19.966414
 20
32.338318
 30
0.0
 10
20.402447
 20
31.901579
 30
0.0
 10
20.402447
 20
31.363239
 30
0.0
  0
LINE
  5
19e
100
AcDbEntity
  8
0
 62
5
100
AcDbLine
 10
20.402447
 20
31.363239
 30
0.0
 11
20.402447
 21
31.363239
 31
0.0
  0
SPLINE
  5
19f
100
AcDbEntity
  8
0
 62
5
100
AcDbSpline
 70
8
 71
3
 72
8
 73
4
 74
0
 40
0
 40
0
 40
0
 40
0
 40
1
 40
1
 40
1
 40
1
 10
59.010463
 20
38.983242
 30
0.0
 10
59.010463
 20
38.444903
 30
0.0
 10
58.574076
 20
38.008164
 30
0.0
 10
58.035384
 20
38.008164
 30
0.0
  0
SPLINE
  5
1a0
100
AcDbEntity
  8
0
 62
5
100
AcDbSpline
 70
8
 71
3
 72
8
 73
4
 74
0
 40
0
 40
0
 40
0
 40
0
 40
1
 40
1
 40
1
 40
1
 10
58.035384
 20
38.008164
 30
0.0
 10
57.497045
 20
38.008164
 30
0.0
 10
57.060659
 20
38.444903
 30
0.0
 10
57.060659
 20
38.983242
 30
0.0
  0
SPLINE
  5
1a1
100
AcDbEntity
  8
0
 62
5
100
AcDbSpline
 70
8
 71
3
 72
8
 73
4
 74
0
 40
0
 40
0
 40
0
 40
0
 40
1
 40
1
 40
1
 40
1
 10
57.060659
 20
38.983242
 30
0.0
 10
57.060659
 20
39.521582
 30
0.0
 10
57.497045
 20
39.958321
 30
0.0
 10
58.035384
 20
39.958321
 30
0.0
  0
SPLINE
  5
1a2
100
AcDbEntity
  8
0
 62
5
100
AcDbSpline
 70
8
 71
3
 72
8
 73
4
 74
0
 40
0
 40
0
 40
0
 40
0
 40
1
 40
1
 40
1
 40
1
 10
58.035384
 20
39.958321
 30
0.0
 10
58.574076
 20
39.958321
 30
0.0
 10
59.010463
 20
39.521582
 30
0.0
 10
59.010463
 20
38.983242
 30
0.0
  0
LINE
  5
1a3
100
AcDbEntity
  8
0
 62
5
100
AcDbLine
 10
59.010463
 20
38.983242
 30
0.0
 11
59.010463
 21
38.983242
 31
0.0
  0
SPLINE
  5
1a4
100
AcDbEntity
  8
0
 62
5
100
AcDbSpline
 70
8
 71
3
 72
8
 73
4
 74
0
 40
0
 40
0
 40
0
 40
0
 40
1
 40
1
 40
1
 40
1
 10
109.683483
 20
31.616887
 30
0.0
 10
109.683483
 20
31.078548
 30
0.0
 10
109.247449
 20
30.641809
 30
0.0
 10
108.708405
 20
30.641809
 30
0.0
  0
SPLINE
  5
1a5
100
AcDbEntity
  8
0
 62
5
100
AcDbSpline
 70
8
 71
3
 72
8
 73
4
 74
0
 40
0
 40
0
 40
0
 40
0
 40
1
 40
1
 40
1
 40
1
 10
108.708405
 20
30.641809
 30
0.0
 10
108.170418
 20
30.641809
 30
0.0
 10
107.733679
 20
31.078548
 30
0.0
 10
107.733679
 20
31.616887
 30
0.0
  0
SPLINE
  5
1a6
100
AcDbEntity
  8
0
 62
5
100
AcDbSpline
 70
8
 71
3
 72
8
 73
4
 74
0
 40
0
 40
0
 40
0
 40
0
 40
1
 40
1
 40
1
 40
1
 10
107.733679
 20
31.616887
 30
0.0
 10
107.733679
 20
32.155226
 30
0.0
 10
108.170418
 20
32.591965
 30
0.0
 10
108.708405
 20
32.591965
 30
0.0
  0
SPLINE
  5
1a7
100
AcDbEntity
  8
0
 62
5
100
AcDbSpline
 70
8
 71
3
 72
8
 73
4
 74
0
 40
0
 40
0
 40
0
 40
0
 40
1
 40
1
 40
1
 40
1
 10
108.708405
 20
32.591965
 30
0.0
 10
109.247449
 20
32.591965
 30
0.0
 10
109.683483
 20
32.155226
 30
0.0
 10
109.683483
 20
31.616887
 30
0.0
  0
LINE
  5
1a8
100
AcDbEntity
  8
0
 62
5
100
AcDbLine
 10
109.683483
 20
31.616887
 30
0.0
 11
109.683483
 21
31.616887
 31
0.0
  0
SPLINE
  5
1a9
100
AcDbEntity
  8
0
 62
5
100
AcDbSpline
 70
8
 71
3
 72
8
 73
4
 74
0
 40
0
 40
0
 40
0
 40
0
 40
1
 40
1
 40
1
 40
1
 10
200.718289
 20
300.054456
 30
0.0
 10
201.818250
 20
300.054456
 30
0.0
 10
202.718187
 20
299.154170
 30
0.0
 10
202.718187
 20
298.054205
 30
0.0
  0
LINE
  5
1aa
100
AcDbEntity
  8
0
 62
5
100
AcDbLine
 10
202.718187
 20
298.054205
 30
0.0
 11
202.718187
 21
167.972999
 31
0.0
  0
SPLINE
  5
1ab
100
AcDbEntity
  8
0
 62
5
100
AcDbSpline
 70
8
 71
3
 72
8
 73
4
 74
0
 40
0
 40
0
 40
0
 40
0
 40
1
 40
1
 40
1
 40
1
 10
202.718187
 20
167.972999
 30
0.0
 10
202.718187
 20
166.872685
 30
0.0
 10
201.818250
 20
165.972748
 30
0.0
 10
200.718289
 20
165.972748
 30
0.0
  0
LINE
  5
1ac
100
AcDbEntity
  8
0
 62
5
100
AcDbLine
 10
200.718289
 20
165.972748
 30
0.0
 11
179.678261
 21
165.972748
 31
0.0
  0
SPLINE
  5
1ad
100
AcDbEntity
  8
0
 62
5
100
AcDbSpline
 70
8
 71
3
 72
8
 73
4
 74
0
 40
0
 40
0
 40
0
 40
0
 40
1
 40
1
 40
1
 40
1
 10
179.678261
 20
165.972748
 30
0.0
 10
178.578299
 20
165.972748
 30
0.0
 10
177.480807
 20
166.850813
 30
0.0
 10
177.239507
 20
167.923963
 30
0.0
  0
LINE
  5
1ae
100
AcDbEntity
  8
0
 62
5
100
AcDbLine
 10
177.239507
 20
167.923963
 30
0.0
 11
165.297974
 21
221.044207
 31
0.0
  0
SPLINE
  5
1af
100
AcDbEntity
  8
0
 62
5
100
AcDbSpline
 70
8
 71
3
 72
8
 73
4
 74
0
 40
0
 40
0
 40
0
 40
0
 40
1
 40
1
 40
1
 40
1
 10
165.297974
 20
221.044207
 30
0.0
 10
165.056674
 20
222.117358
 30
0.0
 10
164.859472
 20
223.895708
 30
0.0
 10
164.859472
 20
224.995316
 30
0.0
  0
LINE
  5
1b0
100
AcDbEntity
  8
0
 62
5
100
AcDbLine
 10
164.859472
 20
224.995316
 30
0.0
 11
164.859472
 21
259.826131
 31
0.0
  0
SPLINE
  5
1b1
100
AcDbEntity
  8
0
 62
5
100
AcDbSpline
 70
8
 71
3
 72
8
 73
4
 74
0
 40
0
 40
0
 40
0
 40
0
 40
1
 40
1
 40
1
 40
1
 10
164.859472
 20
259.826131
 30
0.0
 10
164.859472
 20
260.925740
 30
0.0
 10
165.379113
 20
262.560866
 30
0.0
 10
166.014466
 20
263.458689
 30
0.0
  0
LINE
  5
1b2
100
AcDbEntity
  8
0
 62
5
100
AcDbLine
 10
166.014466
 20
263.458689
 30
0.0
 11
172.324252
 21
272.377620
 31
0.0
  0
SPLINE
  5
1b3
100
AcDbEntity
  8
0
 62
5
100
AcDbSpline
 70
8
 71
3
 72
8
 73
4
 74
0
 40
0
 40
0
 40
0
 40
0
 40
1
 40
1
 40
1
 40
1
 10
172.324252
 20
272.377620
 30
0.0
 10
172.959605
 20
273.275793
 30
0.0
 10
173.479600
 20
274.910213
 30
0.0
 10
173.479600
 20
276.010527
 30
0.0
  0
LINE
  5
1b4
100
AcDbEntity
  8
0
 62
5
100
AcDbLine
 10
173.479600
 20
276.010527
 30
0.0
 11
173.479600
 21
290.009810
 31
0.0
  0
SPLINE
  5
1b5
100
AcDbEntity
  8
0
 62
5
100
AcDbSpline
 70
8
 71
3
 72
8
 73
4
 74
0
 40
0
 40
0
 40
0
 40
0
 40
1
 40
1
 40
1
 40
1
 10
173.479600
 20
290.009810
 30
0.0
 10
173.479600
 20
291.109775
 30
0.0
 10
174.225725
 20
292.512769
 30
0.0
 10
175.138009
 20
293.127661
 30
0.0
  0
LINE
  5
1b6
100
AcDbEntity
  8
0
 62
5
100
AcDbLine
 10
175.138009
 20
293.127661
 30
0.0
 11
183.759196
 21
298.936855
 31
0.0
  0
SPLINE
  5
1b7
100
AcDbEntity
  8
0
 62
5
100
AcDbSpline
 70
8
 71
3
 72
8
 73
4
 74
0
 40
0
 40
0
 40
0
 40
0
 40
1
 40
1
 40
1
 40
1
 10
183.759196
 20
298.936855
 30
0.0
 10
184.671127
 20
299.551747
 30
0.0
 10
186.317541
 20
300.054812
 30
0.0
 10
187.417503
 20
300.054812
 30
0.0
  0
LINE
  5
1b8
100
AcDbEntity
  8
0
 62
5
100
AcDbLine
 10
187.417503
 20
300.054812
 30
0.0
 11
200.718289
 21
300.054456
 31
0.0
  0
SPLINE
  5
1b9
100
AcDbEntity
  8
0
 62
5
100
AcDbSpline
 70
8
 71
3
 72
8
 73
4
 74
0
 40
0
 40
0
 40
0
 40
0
 40
1
 40
1
 40
1
 40
1
 10
195.740698
 20
279.268671
 30
0.0
 10
195.740698
 20
278.730332
 30
0.0
 10
195.304312
 20
278.293590
 30
0.0
 10
194.765620
 20
278.293590
 30
0.0
  0
SPLINE
  5
1ba
100
AcDbEntity
  8
0
 62
5
100
AcDbSpline
 70
8
 71
3
 72
8
 73
4
 74
0
 40
0
 40
0
 40
0
 40
0
 40
1
 40
1
 40
1
 40
1
 10
194.765620
 20
278.293590
 30
0.0
 10
194.227281
 20
278.293590
 30
0.0
 10
193.790894
 20
278.730332
 30
0.0
 10
193.790894
 20
279.268671
 30
0.0
  0
LINE
  5
1bb
100
AcDbEntity
  8
0
 62
5
100
AcDbLine
 10
193.790894
 20
279.268671
 30
0.0
 11
193.790894
 21
280.327005
 31
0.0
  0
SPLINE
  5
1bc
100
AcDbEntity
  8
0
 62
5
100
AcDbSpline
 70
8
 71
3
 72
8
 73
4
 74
0
 40
0
 40
0
 40
0
 40
0
 40
1
 40
1
 40
1
 40
1
 10
193.790894
 20
280.327005
 30
0.0
 10
193.790894
 20
280.865341
 30
0.0
 10
194.227281
 20
281.302083
 30
0.0
 10
194.765620
 20
281.302083
 30
0.0
  0
SPLINE
  5
1bd
100
AcDbEntity
  8
0
 62
5
100
AcDbSpline
 70
8
 71
3
 72
8
 73
4
 74
0
 40
0
 40
0
 40
0
 40
0
 40
1
 40
1
 40
1
 40
1
 10
194.765620
 20
281.302083
 30
0.0
 10
195.304312
 20
281.302083
 30
0.0
 10
195.740698
 20
280.865341
 30
0.0
 10
195.740698
 20
280.327005
 30
0.0
  0
LINE
  5
1be
100
AcDbEntity
  8
0
 62
5
100
AcDbLine
 10
195.740698
 20
280.327005
 30
0.0
 11
195.740698
 21
279.268671
 31
0.0
  0
SPLINE
  5
1bf
100
AcDbEntity
  8
0
 62
5
100
AcDbSpline
 70
8
 71
3
 72
8
 73
4
 74
0
 40
0
 40
0
 40
0
 40
0
 40
1
 40
1
 40
1
 40
1
 10
197.332009
 20
186.220031
 30
0.0
 10
197.870348
 20
186.220031
 30
0.0
 10
198.307087
 20
185.783998
 30
0.0
 10
198.307087
 20
185.244953
 30
0.0
  0
SPLINE
  5
1c0
100
AcDbEntity
  8
0
 62
5
100
AcDbSpline
 70
8
 71
3
 72
8
 73
4
 74
0
 40
0
 40
0
 40
0
 40
0
 40
1
 40
1
 40
1
 40
1
 10
198.307087
 20
185.244953
 30
0.0
 10
198.307087
 20
184.706967
 30
0.0
 10
197.870348
 20
184.270228
 30
0.0
 10
197.332009
 20
184.270228
 30
0.0
  0
SPLINE
  5
1c1
100
AcDbEntity
  8
0
 62
5
100
AcDbSpline
 70
8
 71
3
 72
8
 73
4
 74
0
 40
0
 40
0
 40
0
 40
0
 40
1
 40
1
 40
1
 40
1
 10
197.332009
 20
184.270228
 30
0.0
 10
196.793669
 20
184.270228
 30
0.0
 10
196.356930
 20
184.706967
 30
0.0
 10
196.356930
 20
185.244953
 30
0.0
  0
SPLINE
  5
1c2
100
AcDbEntity
  8
0
 62
5
100
AcDbSpline
 70
8
 71
3
 72
8
 73
4
 74
0
 40
0
 40
0
 40
0
 40
0
 40
1
 40
1
 40
1
 40
1
 10
196.356930
 20
185.244953
 30
0.0
 10
196.356930
 20
185.783998
 30
0.0
 10
196.793669
 20
186.220031
 30
0.0
 10
197.332009
 20
186.220031
 30
0.0
  0
LINE
  5
1c3
100
AcDbEntity
  8
0
 62
5
100
AcDbLine
 10
197.332009
 20
186.220031
 30
0.0
 11
197.332009
 21
186.220031
 31
0.0
  0
SPLINE
  5
1c4
100
AcDbEntity
  8
0
 62
5
100
AcDbSpline
 70
8
 71
3
 72
8
 73
4
 74
0
 40
0
 40
0
 40
0
 40
0
 40
1
 40
1
 40
1
 40
1
 10
172.439999
 20
218.097189
 30
0.0
 10
172.978338
 20
218.097189
 30
0.0
 10
173.415077
 20
217.660799
 30
0.0
 10
173.415077
 20
217.122107
 30
0.0
  0
SPLINE
  5
1c5
100
AcDbEntity
  8
0
 62
5
100
AcDbSpline
 70
8
 71
3
 72
8
 73
4
 74
0
 40
0
 40
0
 40
0
 40
0
 40
1
 40
1
 40
1
 40
1
 10
173.415077
 20
217.122107
 30
0.0
 10
173.415077
 20
216.583771
 30
0.0
 10
172.978338
 20
216.147382
 30
0.0
 10
172.439999
 20
216.147382
 30
0.0
  0
SPLINE
  5
1c6
100
AcDbEntity
  8
0
 62
5
100
AcDbSpline
 70
8
 71
3
 72
8
 73
4
 74
0
 40
0
 40
0
 40
0
 40
0
 40
1
 40
1
 40
1
 40
1
 10
172.439999
 20
216.147382
 30
0.0
 10
171.901660
 20
216.147382
 30
0.0
 10
171.464921
 20
216.583771
 30
0.0
 10
171.464921
 20
217.122107
 30
0.0
  0
SPLINE
  5
1c7
100
AcDbEntity
  8
0
 62
5
100
AcDbSpline
 70
8
 71
3
 72
8
 73
4
 74
0
 40
0
 40
0
 40
0
 40
0
 40
1
 40
1
 40
1
 40
1
 10
171.464921
 20
217.122107
 30
0.0
 10
171.464921
 20
217.660799
 30
0.0
 10
171.901660
 20
218.097189
 30
0.0
 10
172.439999
 20
218.097189
 30
0.0
  0
LINE
  5
1c8
100
AcDbEntity
  8
0
 62
5
100
AcDbLine
 10
172.439999
 20
218.097189
 30
0.0
 11
172.439999
 21
218.097189
 31
0.0
  0
SPLINE
  5
1c9
100
AcDbEntity
  8
0
 62
5
100
AcDbSpline
 70
8
 71
3
 72
8
 73
4
 74
0
 40
0
 40
0
 40
0
 40
0
 40
1
 40
1
 40
1
 40
1
 10
20.629585
 20
241.061555
 30
0.0
 10
20.630170
 20
240.531224
 30
0.0
 10
20.347578
 20
240.040928
 30
0.0
 10
19.888395
 20
239.775593
 30
0.0
  0
SPLINE
  5
1ca
100
AcDbEntity
  8
0
 62
5
100
AcDbSpline
 70
8
 71
3
 72
8
 73
4
 74
0
 40
0
 40
0
 40
0
 40
0
 40
1
 40
1
 40
1
 40
1
 10
19.888395
 20
239.775593
 30
0.0
 10
19.429212
 20
239.510258
 30
0.0
 10
18.863307
 20
239.510258
 30
0.0
 10
18.404124
 20
239.775593
 30
0.0
  0
SPLINE
  5
1cb
100
AcDbEntity
  8
0
 62
5
100
AcDbSpline
 70
8
 71
3
 72
8
 73
4
 74
0
 40
0
 40
0
 40
0
 40
0
 40
1
 40
1
 40
1
 40
1
 10
18.404124
 20
239.775593
 30
0.0
 10
17.944941
 20
240.040928
 30
0.0
 10
17.662349
 20
240.531224
 30
0.0
 10
17.662934
 20
241.061555
 30
0.0
  0
SPLINE
  5
1cc
100
AcDbEntity
  8
0
 62
5
100
AcDbSpline
 70
8
 71
3
 72
8
 73
4
 74
0
 40
0
 40
0
 40
0
 40
0
 40
1
 40
1
 40
1
 40
1
 10
17.662934
 20
241.061555
 30
0.0
 10
17.662349
 20
241.591886
 30
0.0
 10
17.944941
 20
242.082183
 30
0.0
 10
18.404124
 20
242.347517
 30
0.0
  0
SPLINE
  5
1cd
100
AcDbEntity
  8
0
 62
5
100
AcDbSpline
 70
8
 71
3
 72
8
 73
4
 74
0
 40
0
 40
0
 40
0
 40
0
 40
1
 40
1
 40
1
 40
1
 10
18.404124
 20
242.347517
 30
0.0
 10
18.863307
 20
242.612852
 30
0.0
 10
19.429212
 20
242.612852
 30
0.0
 10
19.888395
 20
242.347517
 30
0.0
  0
SPLINE
  5
1ce
100
AcDbEntity
  8
0
 62
5
100
AcDbSpline
 70
8
 71
3
 72
8
 73
4
 74
0
 40
0
 40
0
 40
0
 40
0
 40
1
 40
1
 40
1
 40
1
 10
19.888395
 20
242.347517
 30
0.0
 10
20.347578
 20
242.082183
 30
0.0
 10
20.630170
 20
241.591886
 30
0.0
 10
20.629585
 20
241.061555
 30
0.0
  0
LINE
  5
1cf
100
AcDbEntity
  8
0
 62
5
100
AcDbLine
 10
20.629585
 20
241.061555
 30
0.0
 11
20.629585
 21
241.061555
 31
0.0
  0
SPLINE
  5
1d0
100
AcDbEntity
  8
0
 62
5
100
AcDbSpline
 70
8
 71
3
 72
8
 73
4
 74
0
 40
0
 40
0
 40
0
 40
0
 40
1
 40
1
 40
1
 40
1
 10
20.829147
 20
279.134560
 30
0.0
 10
20.829733
 20
278.604229
 30
0.0
 10
20.547140
 20
278.113932
 30
0.0
 10
20.087958
 20
277.848598
 30
0.0
  0
SPLINE
  5
1d1
100
AcDbEntity
  8
0
 62
5
100
AcDbSpline
 70
8
 71
3
 72
8
 73
4
 74
0
 40
0
 40
0
 40
0
 40
0
 40
1
 40
1
 40
1
 40
1
 10
20.087958
 20
277.848598
 30
0.0
 10
19.628775
 20
277.583263
 30
0.0
 10
19.062869
 20
277.583263
 30
0.0
 10
18.603686
 20
277.848598
 30
0.0
  0
SPLINE
  5
1d2
100
AcDbEntity
  8
0
 62
5
100
AcDbSpline
 70
8
 71
3
 72
8
 73
4
 74
0
 40
0
 40
0
 40
0
 40
0
 40
1
 40
1
 40
1
 40
1
 10
18.603686
 20
277.848598
 30
0.0
 10
18.144504
 20
278.113932
 30
0.0
 10
17.861911
 20
278.604229
 30
0.0
 10
17.862497
 20
279.134560
 30
0.0
  0
SPLINE
  5
1d3
100
AcDbEntity
  8
0
 62
5
100
AcDbSpline
 70
8
 71
3
 72
8
 73
4
 74
0
 40
0
 40
0
 40
0
 40
0
 40
1
 40
1
 40
1
 40
1
 10
17.862497
 20
279.134560
 30
0.0
 10
17.861911
 20
279.664891
 30
0.0
 10
18.144504
 20
280.155187
 30
0.0
 10
18.603686
 20
280.420522
 30
0.0
  0
SPLINE
  5
1d4
100
AcDbEntity
  8
0
 62
5
100
AcDbSpline
 70
8
 71
3
 72
8
 73
4
 74
0
 40
0
 40
0
 40
0
 40
0
 40
1
 40
1
 40
1
 40
1
 10
18.603686
 20
280.420522
 30
0.0
 10
19.062869
 20
280.685856
 30
0.0
 10
19.628775
 20
280.685856
 30
0.0
 10
20.087958
 20
280.420522
 30
0.0
  0
SPLINE
  5
1d5
100
AcDbEntity
  8
0
 62
5
100
AcDbSpline
 70
8
 71
3
 72
8
 73
4
 74
0
 40
0
 40
0
 40
0
 40
0
 40
1
 40
1
 40
1
 40
1
 10
20.087958
 20
280.420522
 30
0.0
 10
20.547140
 20
280.155187
 30
0.0
 10
20.829733
 20
279.664891
 30
0.0
 10
20.829147
 20
279.134560
 30
0.0
  0
LINE
  5
1d6
100
AcDbEntity
  8
0
 62
5
100
AcDbLine
 10
20.829147
 20
279.134560
 30
0.0
 11
20.829147
 21
279.134560
 31
0.0
  0
SPLINE
  5
1d7
100
AcDbEntity
  8
0
 62
5
100
AcDbSpline
 70
8
 71
3
 72
8
 73
4
 74
0
 40
0
 40
0
 40
0
 40
0
 40
1
 40
1
 40
1
 40
1
 10
96.975258
 20
279.134560
 30
0.0
 10
96.975258
 20
278.604618
 30
0.0
 10
96.692538
 20
278.114932
 30
0.0
 10
96.233595
 20
277.849961
 30
0.0
  0
SPLINE
  5
1d8
100
AcDbEntity
  8
0
 62
5
100
AcDbSpline
 70
8
 71
3
 72
8
 73
4
 74
0
 40
0
 40
0
 40
0
 40
0
 40
1
 40
1
 40
1
 40
1
 10
96.233595
 20
277.849961
 30
0.0
 10
95.774652
 20
277.584990
 30
0.0
 10
95.209211
 20
277.584990
 30
0.0
 10
94.750268
 20
277.849961
 30
0.0
  0
SPLINE
  5
1d9
100
AcDbEntity
  8
0
 62
5
100
AcDbSpline
 70
8
 71
3
 72
8
 73
4
 74
0
 40
0
 40
0
 40
0
 40
0
 40
1
 40
1
 40
1
 40
1
 10
94.750268
 20
277.849961
 30
0.0
 10
94.291325
 20
278.114932
 30
0.0
 10
94.008605
 20
278.604618
 30
0.0
 10
94.008605
 20
279.134560
 30
0.0
  0
SPLINE
  5
1da
100
AcDbEntity
  8
0
 62
5
100
AcDbSpline
 70
8
 71
3
 72
8
 73
4
 74
0
 40
0
 40
0
 40
0
 40
0
 40
1
 40
1
 40
1
 40
1
 10
94.008605
 20
279.134560
 30
0.0
 10
94.008605
 20
279.664501
 30
0.0
 10
94.291325
 20
280.154188
 30
0.0
 10
94.750268
 20
280.419158
 30
0.0
  0
SPLINE
  5
1db
100
AcDbEntity
  8
0
 62
5
100
AcDbSpline
 70
8
 71
3
 72
8
 73
4
 74
0
 40
0
 40
0
 40
0
 40
0
 40
1
 40
1
 40
1
 40
1
 10
94.750268
 20
280.419158
 30
0.0
 10
95.209211
 20
280.684129
 30
0.0
 10
95.774652
 20
280.684129
 30
0.0
 10
96.233595
 20
280.419158
 30
0.0
  0
SPLINE
  5
1dc
100
AcDbEntity
  8
0
 62
5
100
AcDbSpline
 70
8
 71
3
 72
8
 73
4
 74
0
 40
0
 40
0
 40
0
 40
0
 40
1
 40
1
 40
1
 40
1
 10
96.233595
 20
280.419158
 30
0.0
 10
96.692538
 20
280.154188
 30
0.0
 10
96.975258
 20
279.664501
 30
0.0
 10
96.975258
 20
279.134560
 30
0.0
  0
LINE
  5
1dd
100
AcDbEntity
  8
0
 62
5
100
AcDbLine
 10
96.975258
 20
279.134560
 30
0.0
 11
96.975258
 21
279.134560
 31
0.0
  0
SPLINE
  5
1de
100
AcDbEntity
  8
0
 62
5
100
AcDbSpline
 70
8
 71
3
 72
8
 73
4
 74
0
 40
0
 40
0
 40
0
 40
0
 40
1
 40
1
 40
1
 40
1
 10
101.354511
 20
220.392189
 30
0.0
 10
101.355096
 20
219.861858
 30
0.0
 10
101.072504
 20
219.371562
 30
0.0
 10
100.613321
 20
219.106227
 30
0.0
  0
SPLINE
  5
1df
100
AcDbEntity
  8
0
 62
5
100
AcDbSpline
 70
8
 71
3
 72
8
 73
4
 74
0
 40
0
 40
0
 40
0
 40
0
 40
1
 40
1
 40
1
 40
1
 10
100.613321
 20
219.106227
 30
0.0
 10
100.154138
 20
218.840893
 30
0.0
 10
99.588232
 20
218.840893
 30
0.0
 10
99.129050
 20
219.106227
 30
0.0
  0
SPLINE
  5
1e0
100
AcDbEntity
  8
0
 62
5
100
AcDbSpline
 70
8
 71
3
 72
8
 73
4
 74
0
 40
0
 40
0
 40
0
 40
0
 40
1
 40
1
 40
1
 40
1
 10
99.129050
 20
219.106227
 30
0.0
 10
98.669867
 20
219.371562
 30
0.0
 10
98.387275
 20
219.861858
 30
0.0
 10
98.387860
 20
220.392189
 30
0.0
  0
SPLINE
  5
1e1
100
AcDbEntity
  8
0
 62
5
100
AcDbSpline
 70
8
 71
3
 72
8
 73
4
 74
0
 40
0
 40
0
 40
0
 40
0
 40
1
 40
1
 40
1
 40
1
 10
98.387860
 20
220.392189
 30
0.0
 10
98.387275
 20
220.922520
 30
0.0
 10
98.669867
 20
221.412817
 30
0.0
 10
99.129050
 20
221.678151
 30
0.0
  0
SPLINE
  5
1e2
100
AcDbEntity
  8
0
 62
5
100
AcDbSpline
 70
8
 71
3
 72
8
 73
4
 74
0
 40
0
 40
0
 40
0
 40
0
 40
1
 40
1
 40
1
 40
1
 10
99.129050
 20
221.678151
 30
0.0
 10
99.588232
 20
221.943486
 30
0.0
 10
100.154138
 20
221.943486
 30
0.0
 10
100.613321
 20
221.678151
 30
0.0
  0
SPLINE
  5
1e3
100
AcDbEntity
  8
0
 62
5
100
AcDbSpline
 70
8
 71
3
 72
8
 73
4
 74
0
 40
0
 40
0
 40
0
 40
0
 40
1
 40
1
 40
1
 40
1
 10
100.613321
 20
221.678151
 30
0.0
 10
101.072504
 20
221.412817
 30
0.0
 10
101.355096
 20
220.922520
 30
0.0
 10
101.354511
 20
220.392189
 30
0.0
  0
LINE
  5
1e4
100
AcDbEntity
  8
0
 62
5
100
AcDbLine
 10
101.354511
 20
220.392189
 30
0.0
 11
101.354511
 21
220.392189
 31
0.0
  0
SPLINE
  5
1e5
100
AcDbEntity
  8
0
 62
5
100
AcDbSpline
 70
8
 71
3
 72
8
 73
4
 74
0
 40
0
 40
0
 40
0
 40
0
 40
1
 40
1
 40
1
 40
1
 10
39.678123
 20
279.140151
 30
0.0
 10
39.678123
 20
278.610209
 30
0.0
 10
39.395402
 20
278.120523
 30
0.0
 10
38.936459
 20
277.855552
 30
0.0
  0
SPLINE
  5
1e6
100
AcDbEntity
  8
0
 62
5
100
AcDbSpline
 70
8
 71
3
 72
8
 73
4
 74
0
 40
0
 40
0
 40
0
 40
0
 40
1
 40
1
 40
1
 40
1
 10
38.936459
 20
277.855552
 30
0.0
 10
38.477516
 20
277.590581
 30
0.0
 10
37.912075
 20
277.590581
 30
0.0
 10
37.453133
 20
277.855552
 30
0.0
  0
SPLINE
  5
1e7
100
AcDbEntity
  8
0
 62
5
100
AcDbSpline
 70
8
 71
3
 72
8
 73
4
 74
0
 40
0
 40
0
 40
0
 40
0
 40
1
 40
1
 40
1
 40
1
 10
37.453133
 20
277.855552
 30
0.0
 10
36.994190
 20
278.120523
 30
0.0
 10
36.711469
 20
278.610209
 30
0.0
 10
36.711469
 20
279.140151
 30
0.0
  0
SPLINE
  5
1e8
100
AcDbEntity
  8
0
 62
5
100
AcDbSpline
 70
8
 71
3
 72
8
 73
4
 74
0
 40
0
 40
0
 40
0
 40
0
 40
1
 40
1
 40
1
 40
1
 10
36.711469
 20
279.140151
 30
0.0
 10
36.711469
 20
279.670092
 30
0.0
 10
36.994190
 20
280.159778
 30
0.0
 10
37.453133
 20
280.424749
 30
0.0
  0
SPLINE
  5
1e9
100
AcDbEntity
  8
0
 62
5
100
AcDbSpline
 70
8
 71
3
 72
8
 73
4
 74
0
 40
0
 40
0
 40
0
 40
0
 40
1
 40
1
 40
1
 40
1
 10
37.453133
 20
280.424749
 30
0.0
 10
37.912075
 20
280.689720
 30
0.0
 10
38.477516
 20
280.689720
 30
0.0
 10
38.936459
 20
280.424749
 30
0.0
  0
SPLINE
  5
1ea
100
AcDbEntity
  8
0
 62
5
100
AcDbSpline
 70
8
 71
3
 72
8
 73
4
 74
0
 40
0
 40
0
 40
0
 40
0
 40
1
 40
1
 40
1
 40
1
 10
38.936459
 20
280.424749
 30
0.0
 10
39.395402
 20
280.159778
 30
0.0
 10
39.678123
 20
279.670092
 30
0.0
 10
39.678123
 20
279.140151
 30
0.0
  0
LINE
  5
1eb
100
AcDbEntity
  8
0
 62
5
100
AcDbLine
 10
39.678123
 20
279.140151
 30
0.0
 11
39.678123
 21
279.140151
 31
0.0
  0
SPLINE
  5
1ec
100
AcDbEntity
  8
0
 62
5
100
AcDbSpline
 70
8
 71
3
 72
8
 73
4
 74
0
 40
0
 40
0
 40
0
 40
0
 40
1
 40
1
 40
1
 40
1
 10
39.709966
 20
220.467998
 30
0.0
 10
39.710481
 20
219.937713
 30
0.0
 10
39.427873
 20
219.447490
 30
0.0
 10
38.968719
 20
219.182199
 30
0.0
  0
SPLINE
  5
1ed
100
AcDbEntity
  8
0
 62
5
100
AcDbSpline
 70
8
 71
3
 72
8
 73
4
 74
0
 40
0
 40
0
 40
0
 40
0
 40
1
 40
1
 40
1
 40
1
 10
38.968719
 20
219.182199
 30
0.0
 10
38.509565
 20
218.916908
 30
0.0
 10
37.943715
 20
218.916908
 30
0.0
 10
37.484561
 20
219.182199
 30
0.0
  0
SPLINE
  5
1ee
100
AcDbEntity
  8
0
 62
5
100
AcDbSpline
 70
8
 71
3
 72
8
 73
4
 74
0
 40
0
 40
0
 40
0
 40
0
 40
1
 40
1
 40
1
 40
1
 10
37.484561
 20
219.182199
 30
0.0
 10
37.025407
 20
219.447490
 30
0.0
 10
36.742799
 20
219.937713
 30
0.0
 10
36.743314
 20
220.467998
 30
0.0
  0
SPLINE
  5
1ef
100
AcDbEntity
  8
0
 62
5
100
AcDbSpline
 70
8
 71
3
 72
8
 73
4
 74
0
 40
0
 40
0
 40
0
 40
0
 40
1
 40
1
 40
1
 40
1
 10
36.743314
 20
220.467998
 30
0.0
 10
36.742799
 20
220.998282
 30
0.0
 10
37.025407
 20
221.488506
 30
0.0
 10
37.484561
 20
221.753797
 30
0.0
  0
SPLINE
  5
1f0
100
AcDbEntity
  8
0
 62
5
100
AcDbSpline
 70
8
 71
3
 72
8
 73
4
 74
0
 40
0
 40
0
 40
0
 40
0
 40
1
 40
1
 40
1
 40
1
 10
37.484561
 20
221.753797
 30
0.0
 10
37.943715
 20
222.019088
 30
0.0
 10
38.509565
 20
222.019088
 30
0.0
 10
38.968719
 20
221.753797
 30
0.0
  0
SPLINE
  5
1f1
100
AcDbEntity
  8
0
 62
5
100
AcDbSpline
 70
8
 71
3
 72
8
 73
4
 74
0
 40
0
 40
0
 40
0
 40
0
 40
1
 40
1
 40
1
 40
1
 10
38.968719
 20
221.753797
 30
0.0
 10
39.427873
 20
221.488506
 30
0.0
 10
39.710481
 20
220.998282
 30
0.0
 10
39.709966
 20
220.467998
 30
0.0
  0
LINE
  5
1f2
100
AcDbEntity
  8
0
 62
5
100
AcDbLine
 10
39.709966
 20
220.467998
 30
0.0
 11
39.709966
 21
220.467998
 31
0.0
  0
LINE
  5
1f3
100
AcDbEntity
  8
0
 62
5
100
AcDbLine
 10
73.573248
 20
250.101343
 30
0.0
 11
97.385758
 21
250.101343
 31
0.0
  0
LINE
  5
1f4
100
AcDbEntity
  8
0
 62
5
100
AcDbLine
 10
97.385758
 20
250.101343
 30
0.0
 11
97.385761
 21
213.853429
 31
0.0
  0
LINE
  5
1f5
100
AcDbEntity
  8
0
 62
5
100
AcDbLine
 10
97.385761
 20
213.853429
 30
0.0
 11
114.451051
 21
213.853782
 31
0.0
  0
LINE
  5
1f6
100
AcDbEntity
  8
0
 62
5
100
AcDbLine
 10
114.451051
 20
213.853782
 30
0.0
 11
114.608051
 21
213.859779
 31
0.0
  0
LINE
  5
1f7
100
AcDbEntity
  8
0
 62
5
100
AcDbLine
 10
114.608051
 20
213.859779
 30
0.0
 11
114.764049
 21
213.877771
 31
0.0
  0
LINE
  5
1f8
100
AcDbEntity
  8
0
 62
5
100
AcDbLine
 10
114.764049
 20
213.877771
 30
0.0
 11
114.918051
 21
213.908780
 31
0.0
  0
LINE
  5
1f9
100
AcDbEntity
  8
0
 62
5
100
AcDbLine
 10
114.918051
 20
213.908780
 30
0.0
 11
115.070053
 21
213.950782
 31
0.0
  0
LINE
  5
1fa
100
AcDbEntity
  8
0
 62
5
100
AcDbLine
 10
115.070053
 20
213.950782
 30
0.0
 11
115.217052
 21
214.005780
 31
0.0
  0
LINE
  5
1fb
100
AcDbEntity
  8
0
 62
5
100
AcDbLine
 10
115.217052
 20
214.005780
 30
0.0
 11
115.359052
 21
214.070783
 31
0.0
  0
LINE
  5
1fc
100
AcDbEntity
  8
0
 62
5
100
AcDbLine
 10
115.359052
 20
214.070783
 30
0.0
 11
115.496050
 21
214.147780
 31
0.0
  0
LINE
  5
1fd
100
AcDbEntity
  8
0
 62
5
100
AcDbLine
 10
115.496050
 20
214.147780
 30
0.0
 11
115.627050
 21
214.234782
 31
0.0
  0
LINE
  5
1fe
100
AcDbEntity
  8
0
 62
5
100
AcDbLine
 10
115.627050
 20
214.234782
 30
0.0
 11
115.750050
 21
214.332780
 31
0.0
  0
LINE
  5
1ff
100
AcDbEntity
  8
0
 62
5
100
AcDbLine
 10
115.750050
 20
214.332780
 30
0.0
 11
115.866050
 21
214.438783
 31
0.0
  0
LINE
  5
200
100
AcDbEntity
  8
0
 62
5
100
AcDbLine
 10
115.866050
 20
214.438783
 30
0.0
 11
115.972053
 21
214.554783
 31
0.0
  0
LINE
  5
201
100
AcDbEntity
  8
0
 62
5
100
AcDbLine
 10
115.972053
 20
214.554783
 30
0.0
 11
116.070051
 21
214.677783
 31
0.0
  0
LINE
  5
202
100
AcDbEntity
  8
0
 62
5
100
AcDbLine
 10
116.070051
 20
214.677783
 30
0.0
 11
116.157053
 21
214.808784
 31
0.0
  0
LINE
  5
203
100
AcDbEntity
  8
0
 62
5
100
AcDbLine
 10
116.157053
 20
214.808784
 30
0.0
 11
116.234050
 21
214.945781
 31
0.0
  0
LINE
  5
204
100
AcDbEntity
  8
0
 62
5
100
AcDbLine
 10
116.234050
 20
214.945781
 30
0.0
 11
116.299050
 21
215.087781
 31
0.0
  0
LINE
  5
205
100
AcDbEntity
  8
0
 62
5
100
AcDbLine
 10
116.299050
 20
215.087781
 30
0.0
 11
116.354051
 21
215.234781
 31
0.0
  0
LINE
  5
206
100
AcDbEntity
  8
0
 62
5
100
AcDbLine
 10
116.354051
 20
215.234781
 30
0.0
 11
116.396053
 21
215.386782
 31
0.0
  0
LINE
  5
207
100
AcDbEntity
  8
0
 62
5
100
AcDbLine
 10
116.396053
 20
215.386782
 30
0.0
 11
116.427062
 21
215.540784
 31
0.0
  0
LINE
  5
208
100
AcDbEntity
  8
0
 62
5
100
AcDbLine
 10
116.427062
 20
215.540784
 30
0.0
 11
116.445054
 21
215.696782
 31
0.0
  0
LINE
  5
209
100
AcDbEntity
  8
0
 62
5
100
AcDbLine
 10
116.445054
 20
215.696782
 30
0.0
 11
116.451051
 21
215.853782
 31
0.0
  0
LINE
  5
20a
100
AcDbEntity
  8
0
 62
5
100
AcDbLine
 10
116.451051
 20
215.853782
 30
0.0
 11
116.451051
 21
298.054815
 31
0.0
  0
LINE
  5
20b
100
AcDbEntity
  8
0
 62
5
100
AcDbLine
 10
116.451051
 20
298.054815
 30
0.0
 11
116.445054
 21
298.210817
 31
0.0
  0
LINE
  5
20c
100
AcDbEntity
  8
0
 62
5
100
AcDbLine
 10
116.445054
 20
298.210817
 30
0.0
 11
116.427062
 21
298.366816
 31
0.0
  0
LINE
  5
20d
100
AcDbEntity
  8
0
 62
5
100
AcDbLine
 10
116.427062
 20
298.366816
 30
0.0
 11
116.396053
 21
298.520817
 31
0.0
  0
LINE
  5
20e
100
AcDbEntity
  8
0
 62
5
100
AcDbLine
 10
116.396053
 20
298.520817
 30
0.0
 11
116.354051
 21
298.672815
 31
0.0
  0
LINE
  5
20f
100
AcDbEntity
  8
0
 62
5
100
AcDbLine
 10
116.354051
 20
298.672815
 30
0.0
 11
116.299050
 21
298.819818
 31
0.0
  0
LINE
  5
210
100
AcDbEntity
  8
0
 62
5
100
AcDbLine
 10
116.299050
 20
298.819818
 30
0.0
 11
116.234050
 21
298.961814
 31
0.0
  0
LINE
  5
211
100
AcDbEntity
  8
0
 62
5
100
AcDbLine
 10
116.234050
 20
298.961814
 30
0.0
 11
116.157053
 21
299.098816
 31
0.0
  0
LINE
  5
212
100
AcDbEntity
  8
0
 62
5
100
AcDbLine
 10
116.157053
 20
299.098816
 30
0.0
 11
116.070051
 21
299.229816
 31
0.0
  0
LINE
  5
213
100
AcDbEntity
  8
0
 62
5
100
AcDbLine
 10
116.070051
 20
299.229816
 30
0.0
 11
115.972053
 21
299.352816
 31
0.0
  0
LINE
  5
214
100
AcDbEntity
  8
0
 62
5
100
AcDbLine
 10
115.972053
 20
299.352816
 30
0.0
 11
115.866050
 21
299.468816
 31
0.0
  0
LINE
  5
215
100
AcDbEntity
  8
0
 62
5
100
AcDbLine
 10
115.866050
 20
299.468816
 30
0.0
 11
115.750050
 21
299.574815
 31
0.0
  0
LINE
  5
216
100
AcDbEntity
  8
0
 62
5
100
AcDbLine
 10
115.750050
 20
299.574815
 30
0.0
 11
115.627050
 21
299.672817
 31
0.0
  0
LINE
  5
217
100
AcDbEntity
  8
0
 62
5
100
AcDbLine
 10
115.627050
 20
299.672817
 30
0.0
 11
115.496050
 21
299.759816
 31
0.0
  0
LINE
  5
218
100
AcDbEntity
  8
0
 62
5
100
AcDbLine
 10
115.496050
 20
299.759816
 30
0.0
 11
115.359052
 21
299.836817
 31
0.0
  0
LINE
  5
219
100
AcDbEntity
  8
0
 62
5
100
AcDbLine
 10
115.359052
 20
299.836817
 30
0.0
 11
115.217052
 21
299.901816
 31
0.0
  0
LINE
  5
21a
100
AcDbEntity
  8
0
 62
5
100
AcDbLine
 10
115.217052
 20
299.901816
 30
0.0
 11
115.070053
 21
299.956818
 31
0.0
  0
LINE
  5
21b
100
AcDbEntity
  8
0
 62
5
100
AcDbLine
 10
115.070053
 20
299.956818
 30
0.0
 11
114.918051
 21
299.998816
 31
0.0
  0
LINE
  5
21c
100
AcDbEntity
  8
0
 62
5
100
AcDbLine
 10
114.918051
 20
299.998816
 30
0.0
 11
114.764049
 21
300.029825
 31
0.0
  0
LINE
  5
21d
100
AcDbEntity
  8
0
 62
5
100
AcDbLine
 10
114.764049
 20
300.029825
 30
0.0
 11
114.608051
 21
300.047817
 31
0.0
  0
LINE
  5
21e
100
AcDbEntity
  8
0
 62
5
100
AcDbLine
 10
114.608051
 20
300.047817
 30
0.0
 11
114.452049
 21
300.053814
 31
0.0
  0
LINE
  5
21f
100
AcDbEntity
  8
0
 62
5
100
AcDbLine
 10
114.452049
 20
300.053814
 30
0.0
 11
2.151005
 21
300.054872
 31
0.0
  0
LINE
  5
220
100
AcDbEntity
  8
0
 62
5
100
AcDbLine
 10
2.151005
 20
300.054872
 30
0.0
 11
1.994005
 21
300.047887
 31
0.0
  0
LINE
  5
221
100
AcDbEntity
  8
0
 62
5
100
AcDbLine
 10
1.994005
 20
300.047887
 30
0.0
 11
1.838005
 21
300.029895
 31
0.0
  0
LINE
  5
222
100
AcDbEntity
  8
0
 62
5
100
AcDbLine
 10
1.838005
 20
300.029895
 30
0.0
 11
1.684005
 21
299.998886
 31
0.0
  0
LINE
  5
223
100
AcDbEntity
  8
0
 62
5
100
AcDbLine
 10
1.684005
 20
299.998886
 30
0.0
 11
1.532005
 21
299.956888
 31
0.0
  0
LINE
  5
224
100
AcDbEntity
  8
0
 62
5
100
AcDbLine
 10
1.532005
 20
299.956888
 30
0.0
 11
1.385005
 21
299.901886
 31
0.0
  0
LINE
  5
225
100
AcDbEntity
  8
0
 62
5
100
AcDbLine
 10
1.385005
 20
299.901886
 30
0.0
 11
1.243004
 21
299.836887
 31
0.0
  0
LINE
  5
226
100
AcDbEntity
  8
0
 62
5
100
AcDbLine
 10
1.243004
 20
299.836887
 30
0.0
 11
1.106005
 21
299.759886
 31
0.0
  0
LINE
  5
227
100
AcDbEntity
  8
0
 62
5
100
AcDbLine
 10
1.106005
 20
299.759886
 30
0.0
 11
0.975004
 21
299.672888
 31
0.0
  0
LINE
  5
228
100
AcDbEntity
  8
0
 62
5
100
AcDbLine
 10
0.975004
 20
299.672888
 30
0.0
 11
0.852004
 21
299.574886
 31
0.0
  0
LINE
  5
229
100
AcDbEntity
  8
0
 62
5
100
AcDbLine
 10
0.852004
 20
299.574886
 30
0.0
 11
0.736004
 21
299.468887
 31
0.0
  0
LINE
  5
22a
100
AcDbEntity
  8
0
 62
5
100
AcDbLine
 10
0.736004
 20
299.468887
 30
0.0
 11
0.630004
 21
299.352886
 31
0.0
  0
LINE
  5
22b
100
AcDbEntity
  8
0
 62
5
100
AcDbLine
 10
0.630004
 20
299.352886
 30
0.0
 11
0.532004
 21
299.229887
 31
0.0
  0
LINE
  5
22c
100
AcDbEntity
  8
0
 62
5
100
AcDbLine
 10
0.532004
 20
299.229887
 30
0.0
 11
0.445004
 21
299.098886
 31
0.0
  0
LINE
  5
22d
100
AcDbEntity
  8
0
 62
5
100
AcDbLine
 10
0.445004
 20
299.098886
 30
0.0
 11
0.368004
 21
298.961885
 31
0.0
  0
LINE
  5
22e
100
AcDbEntity
  8
0
 62
5
100
AcDbLine
 10
0.368004
 20
298.961885
 30
0.0
 11
0.303004
 21
298.819888
 31
0.0
  0
LINE
  5
22f
100
AcDbEntity
  8
0
 62
5
100
AcDbLine
 10
0.303004
 20
298.819888
 30
0.0
 11
0.248004
 21
298.672886
 31
0.0
  0
LINE
  5
230
100
AcDbEntity
  8
0
 62
5
100
AcDbLine
 10
0.248004
 20
298.672886
 30
0.0
 11
0.206004
 21
298.520888
 31
0.0
  0
LINE
  5
231
100
AcDbEntity
  8
0
 62
5
100
AcDbLine
 10
0.206004
 20
298.520888
 30
0.0
 11
0.175002
 21
298.366886
 31
0.0
  0
LINE
  5
232
100
AcDbEntity
  8
0
 62
5
100
AcDbLine
 10
0.175002
 20
298.366886
 30
0.0
 11
0.157003
 21
298.210888
 31
0.0
  0
LINE
  5
233
100
AcDbEntity
  8
0
 62
5
100
AcDbLine
 10
0.157003
 20
298.210888
 30
0.0
 11
0.150004
 21
298.054886
 31
0.0
  0
LINE
  5
234
100
AcDbEntity
  8
0
 62
5
100
AcDbLine
 10
0.150004
 20
298.054886
 30
0.0
 11
0.150992
 21
215.853853
 31
0.0
  0
LINE
  5
235
100
AcDbEntity
  8
0
 62
5
100
AcDbLine
 10
0.150992
 20
215.853853
 30
0.0
 11
0.156993
 21
215.696853
 31
0.0
  0
LINE
  5
236
100
AcDbEntity
  8
0
 62
5
100
AcDbLine
 10
0.156993
 20
215.696853
 30
0.0
 11
0.174992
 21
215.540854
 31
0.0
  0
LINE
  5
237
100
AcDbEntity
  8
0
 62
5
100
AcDbLine
 10
0.174992
 20
215.540854
 30
0.0
 11
0.205994
 21
215.386852
 31
0.0
  0
LINE
  5
238
100
AcDbEntity
  8
0
 62
5
100
AcDbLine
 10
0.205994
 20
215.386852
 30
0.0
 11
0.247994
 21
215.234851
 31
0.0
  0
LINE
  5
239
100
AcDbEntity
  8
0
 62
5
100
AcDbLine
 10
0.247994
 20
215.234851
 30
0.0
 11
0.302993
 21
215.087852
 31
0.0
  0
LINE
  5
23a
100
AcDbEntity
  8
0
 62
5
100
AcDbLine
 10
0.302993
 20
215.087852
 30
0.0
 11
0.367994
 21
214.945852
 31
0.0
  0
LINE
  5
23b
100
AcDbEntity
  8
0
 62
5
100
AcDbLine
 10
0.367994
 20
214.945852
 30
0.0
 11
0.444994
 21
214.808854
 31
0.0
  0
LINE
  5
23c
100
AcDbEntity
  8
0
 62
5
100
AcDbLine
 10
0.444994
 20
214.808854
 30
0.0
 11
0.531994
 21
214.677854
 31
0.0
  0
LINE
  5
23d
100
AcDbEntity
  8
0
 62
5
100
AcDbLine
 10
0.531994
 20
214.677854
 30
0.0
 11
0.629994
 21
214.554854
 31
0.0
  0
LINE
  5
23e
100
AcDbEntity
  8
0
 62
5
100
AcDbLine
 10
0.629994
 20
214.554854
 30
0.0
 11
0.735994
 21
214.438854
 31
0.0
  0
LINE
  5
23f
100
AcDbEntity
  8
0
 62
5
100
AcDbLine
 10
0.735994
 20
214.438854
 30
0.0
 11
0.851994
 21
214.332851
 31
0.0
  0
LINE
  5
240
100
AcDbEntity
  8
0
 62
5
100
AcDbLine
 10
0.851994
 20
214.332851
 30
0.0
 11
0.974994
 21
214.234853
 31
0.0
  0
LINE
  5
241
100
AcDbEntity
  8
0
 62
5
100
AcDbLine
 10
0.974994
 20
214.234853
 30
0.0
 11
1.105994
 21
214.147851
 31
0.0
  0
LINE
  5
242
100
AcDbEntity
  8
0
 62
5
100
AcDbLine
 10
1.105994
 20
214.147851
 30
0.0
 11
1.242994
 21
214.070853
 31
0.0
  0
LINE
  5
243
100
AcDbEntity
  8
0
 62
5
100
AcDbLine
 10
1.242994
 20
214.070853
 30
0.0
 11
1.384994
 21
214.005850
 31
0.0
  0
LINE
  5
244
100
AcDbEntity
  8
0
 62
5
100
AcDbLine
 10
1.384994
 20
214.005850
 30
0.0
 11
1.531994
 21
213.950852
 31
0.0
  0
LINE
  5
245
100
AcDbEntity
  8
0
 62
5
100
AcDbLine
 10
1.531994
 20
213.950852
 30
0.0
 11
1.683994
 21
213.908851
 31
0.0
  0
LINE
  5
246
100
AcDbEntity
  8
0
 62
5
100
AcDbLine
 10
1.683994
 20
213.908851
 30
0.0
 11
1.837994
 21
213.877841
 31
0.0
  0
LINE
  5
247
100
AcDbEntity
  8
0
 62
5
100
AcDbLine
 10
1.837994
 20
213.877841
 30
0.0
 11
1.993994
 21
213.859850
 31
0.0
  0
LINE
  5
248
100
AcDbEntity
  8
0
 62
5
100
AcDbLine
 10
1.993994
 20
213.859850
 30
0.0
 11
2.150994
 21
213.852829
 31
0.0
  0
LINE
  5
249
100
AcDbEntity
  8
0
 62
5
100
AcDbLine
 10
2.150994
 20
213.852829
 30
0.0
 11
12.652913
 21
213.852932
 31
0.0
  0
LINE
  5
24a
100
AcDbEntity
  8
0
 62
5
100
AcDbLine
 10
12.652913
 20
213.852932
 30
0.0
 11
12.719059
 21
230.975527
 31
0.0
  0
LINE
  5
24b
100
AcDbEntity
  8
0
 62
5
100
AcDbLine
 10
12.719059
 20
230.975527
 30
0.0
 11
25.948231
 21
230.975527
 31
0.0
  0
LINE
  5
24c
100
AcDbEntity
  8
0
 62
5
100
AcDbLine
 10
25.948231
 20
230.975527
 30
0.0
 11
25.882085
 21
213.853059
 31
0.0
  0
LINE
  5
24d
100
AcDbEntity
  8
0
 62
5
100
AcDbLine
 10
25.882085
 20
213.853059
 30
0.0
 11
73.573248
 21
213.853412
 31
0.0
  0
LINE
  5
24e
100
AcDbEntity
  8
0
 62
5
100
AcDbLine
 10
73.573248
 20
213.853412
 30
0.0
 11
73.573248
 21
250.101343
 31
0.0
  0
SPLINE
  5
24f
100
AcDbEntity
  8
0
 62
5
100
AcDbSpline
 70
8
 71
3
 72
8
 73
4
 74
0
 40
0
 40
0
 40
0
 40
0
 40
1
 40
1
 40
1
 40
1
 10
151.212842
 20
260.526974
 30
0.0
 10
151.743127
 20
260.526459
 30
0.0
 10
152.233351
 20
260.809067
 30
0.0
 10
152.498643
 20
261.268222
 30
0.0
  0
SPLINE
  5
250
100
AcDbEntity
  8
0
 62
5
100
AcDbSpline
 70
8
 71
3
 72
8
 73
4
 74
0
 40
0
 40
0
 40
0
 40
0
 40
1
 40
1
 40
1
 40
1
 10
152.498643
 20
261.268222
 30
0.0
 10
152.763934
 20
261.727376
 30
0.0
 10
152.763934
 20
262.293227
 30
0.0
 10
152.498643
 20
262.752382
 30
0.0
  0
SPLINE
  5
251
100
AcDbEntity
  8
0
 62
5
100
AcDbSpline
 70
8
 71
3
 72
8
 73
4
 74
0
 40
0
 40
0
 40
0
 40
0
 40
1
 40
1
 40
1
 40
1
 10
152.498643
 20
262.752382
 30
0.0
 10
152.233351
 20
263.211537
 30
0.0
 10
151.743127
 20
263.494145
 30
0.0
 10
151.212842
 20
263.493630
 30
0.0
  0
SPLINE
  5
252
100
AcDbEntity
  8
0
 62
5
100
AcDbSpline
 70
8
 71
3
 72
8
 73
4
 74
0
 40
0
 40
0
 40
0
 40
0
 40
1
 40
1
 40
1
 40
1
 10
151.212842
 20
263.493630
 30
0.0
 10
150.682557
 20
263.494145
 30
0.0
 10
150.192332
 20
263.211537
 30
0.0
 10
149.927041
 20
262.752382
 30
0.0
  0
SPLINE
  5
253
100
AcDbEntity
  8
0
 62
5
100
AcDbSpline
 70
8
 71
3
 72
8
 73
4
 74
0
 40
0
 40
0
 40
0
 40
0
 40
1
 40
1
 40
1
 40
1
 10
149.927041
 20
262.752382
 30
0.0
 10
149.661749
 20
262.293227
 30
0.0
 10
149.661749
 20
261.727376
 30
0.0
 10
149.927041
 20
261.268222
 30
0.0
  0
SPLINE
  5
254
100
AcDbEntity
  8
0
 62
5
100
AcDbSpline
 70
8
 71
3
 72
8
 73
4
 74
0
 40
0
 40
0
 40
0
 40
0
 40
1
 40
1
 40
1
 40
1
 10
149.927041
 20
261.268222
 30
0.0
 10
150.192332
 20
260.809067
 30
0.0
 10
150.682557
 20
260.526459
 30
0.0
 10
151.212842
 20
260.526974
 30
0.0
  0
LINE
  5
255
100
AcDbEntity
  8
0
 62
5
100
AcDbLine
 10
151.212842
 20
260.526974
 30
0.0
 11
151.212842
 21
260.526974
 31
0.0
  0
SPLINE
  5
256
100
AcDbEntity
  8
0
 62
5
100
AcDbSpline
 70
8
 71
3
 72
8
 73
4
 74
0
 40
0
 40
0
 40
0
 40
0
 40
1
 40
1
 40
1
 40
1
 10
130.510003
 20
279.575984
 30
0.0
 10
131.040335
 20
279.575399
 30
0.0
 10
131.530632
 20
279.857991
 30
0.0
 10
131.795967
 20
280.317175
 30
0.0
  0
SPLINE
  5
257
100
AcDbEntity
  8
0
 62
5
100
AcDbSpline
 70
8
 71
3
 72
8
 73
4
 74
0
 40
0
 40
0
 40
0
 40
0
 40
1
 40
1
 40
1
 40
1
 10
131.795967
 20
280.317175
 30
0.0
 10
132.061302
 20
280.776358
 30
0.0
 10
132.061302
 20
281.342265
 30
0.0
 10
131.795967
 20
281.801448
 30
0.0
  0
SPLINE
  5
258
100
AcDbEntity
  8
0
 62
5
100
AcDbSpline
 70
8
 71
3
 72
8
 73
4
 74
0
 40
0
 40
0
 40
0
 40
0
 40
1
 40
1
 40
1
 40
1
 10
131.795967
 20
281.801448
 30
0.0
 10
131.530632
 20
282.260632
 30
0.0
 10
131.040335
 20
282.543224
 30
0.0
 10
130.510003
 20
282.542639
 30
0.0
  0
SPLINE
  5
259
100
AcDbEntity
  8
0
 62
5
100
AcDbSpline
 70
8
 71
3
 72
8
 73
4
 74
0
 40
0
 40
0
 40
0
 40
0
 40
1
 40
1
 40
1
 40
1
 10
130.510003
 20
282.542639
 30
0.0
 10
129.979671
 20
282.543224
 30
0.0
 10
129.489374
 20
282.260632
 30
0.0
 10
129.224039
 20
281.801448
 30
0.0
  0
SPLINE
  5
25a
100
AcDbEntity
  8
0
 62
5
100
AcDbSpline
 70
8
 71
3
 72
8
 73
4
 74
0
 40
0
 40
0
 40
0
 40
0
 40
1
 40
1
 40
1
 40
1
 10
129.224039
 20
281.801448
 30
0.0
 10
128.958704
 20
281.342265
 30
0.0
 10
128.958704
 20
280.776358
 30
0.0
 10
129.224039
 20
280.317175
 30
0.0
  0
SPLINE
  5
25b
100
AcDbEntity
  8
0
 62
5
100
AcDbSpline
 70
8
 71
3
 72
8
 73
4
 74
0
 40
0
 40
0
 40
0
 40
0
 40
1
 40
1
 40
1
 40
1
 10
129.224039
 20
280.317175
 30
0.0
 10
129.489374
 20
279.857991
 30
0.0
 10
129.979671
 20
279.575399
 30
0.0
 10
130.510003
 20
279.575984
 30
0.0
  0
LINE
  5
25c
100
AcDbEntity
  8
0
 62
5
100
AcDbLine
 10
130.510003
 20
279.575984
 30
0.0
 11
130.510003
 21
279.575984
 31
0.0
  0
SPLINE
  5
25d
100
AcDbEntity
  8
0
 62
5
100
AcDbSpline
 70
8
 71
3
 72
8
 73
4
 74
0
 40
0
 40
0
 40
0
 40
0
 40
1
 40
1
 40
1
 40
1
 10
151.179402
 20
198.850925
 30
0.0
 10
151.709733
 20
198.850340
 30
0.0
 10
152.200031
 20
199.132932
 30
0.0
 10
152.465366
 20
199.592116
 30
0.0
  0
SPLINE
  5
25e
100
AcDbEntity
  8
0
 62
5
100
AcDbSpline
 70
8
 71
3
 72
8
 73
4
 74
0
 40
0
 40
0
 40
0
 40
0
 40
1
 40
1
 40
1
 40
1
 10
152.465366
 20
199.592116
 30
0.0
 10
152.730701
 20
200.051299
 30
0.0
 10
152.730701
 20
200.617206
 30
0.0
 10
152.465366
 20
201.076389
 30
0.0
  0
SPLINE
  5
25f
100
AcDbEntity
  8
0
 62
5
100
AcDbSpline
 70
8
 71
3
 72
8
 73
4
 74
0
 40
0
 40
0
 40
0
 40
0
 40
1
 40
1
 40
1
 40
1
 10
152.465366
 20
201.076389
 30
0.0
 10
152.200031
 20
201.535573
 30
0.0
 10
151.709733
 20
201.818165
 30
0.0
 10
151.179402
 20
201.817580
 30
0.0
  0
SPLINE
  5
260
100
AcDbEntity
  8
0
 62
5
100
AcDbSpline
 70
8
 71
3
 72
8
 73
4
 74
0
 40
0
 40
0
 40
0
 40
0
 40
1
 40
1
 40
1
 40
1
 10
151.179402
 20
201.817580
 30
0.0
 10
150.649070
 20
201.818165
 30
0.0
 10
150.158772
 20
201.535573
 30
0.0
 10
149.893437
 20
201.076389
 30
0.0
  0
SPLINE
  5
261
100
AcDbEntity
  8
0
 62
5
100
AcDbSpline
 70
8
 71
3
 72
8
 73
4
 74
0
 40
0
 40
0
 40
0
 40
0
 40
1
 40
1
 40
1
 40
1
 10
149.893437
 20
201.076389
 30
0.0
 10
149.628102
 20
200.617206
 30
0.0
 10
149.628102
 20
200.051299
 30
0.0
 10
149.893437
 20
199.592116
 30
0.0
  0
SPLINE
  5
262
100
AcDbEntity
  8
0
 62
5
100
AcDbSpline
 70
8
 71
3
 72
8
 73
4
 74
0
 40
0
 40
0
 40
0
 40
0
 40
1
 40
1
 40
1
 40
1
 10
149.893437
 20
199.592116
 30
0.0
 10
150.158772
 20
199.132932
 30
0.0
 10
150.649070
 20
198.850340
 30
0.0
 10
151.179402
 20
198.850925
 30
0.0
  0
LINE
  5
263
100
AcDbEntity
  8
0
 62
5
100
AcDbLine
 10
151.179402
 20
198.850925
 30
0.0
 11
151.179402
 21
198.850925
 31
0.0
  0
LINE
  5
264
100
AcDbEntity
  8
0
 62
5
100
AcDbLine
 10
123.063660
 20
183.760340
 30
0.0
 11
122.907659
 21
183.778340
 31
0.0
  0
LINE
  5
265
100
AcDbEntity
  8
0
 62
5
100
AcDbLine
 10
122.907659
 20
183.778340
 30
0.0
 11
122.753659
 21
183.809340
 31
0.0
  0
LINE
  5
266
100
AcDbEntity
  8
0
 62
5
100
AcDbLine
 10
122.753659
 20
183.809340
 30
0.0
 11
122.601659
 21
183.851340
 31
0.0
  0
LINE
  5
267
100
AcDbEntity
  8
0
 62
5
100
AcDbLine
 10
122.601659
 20
183.851340
 30
0.0
 11
122.454659
 21
183.906340
 31
0.0
  0
LINE
  5
268
100
AcDbEntity
  8
0
 62
5
100
AcDbLine
 10
122.454659
 20
183.906340
 30
0.0
 11
122.312658
 21
183.971341
 31
0.0
  0
LINE
  5
269
100
AcDbEntity
  8
0
 62
5
100
AcDbLine
 10
122.312658
 20
183.971341
 30
0.0
 11
122.175658
 21
184.048341
 31
0.0
  0
LINE
  5
26a
100
AcDbEntity
  8
0
 62
5
100
AcDbLine
 10
122.175658
 20
184.048341
 30
0.0
 11
122.044658
 21
184.135341
 31
0.0
  0
LINE
  5
26b
100
AcDbEntity
  8
0
 62
5
100
AcDbLine
 10
122.044658
 20
184.135341
 30
0.0
 11
121.921657
 21
184.233341
 31
0.0
  0
LINE
  5
26c
100
AcDbEntity
  8
0
 62
5
100
AcDbLine
 10
121.921657
 20
184.233341
 30
0.0
 11
121.805657
 21
184.339341
 31
0.0
  0
LINE
  5
26d
100
AcDbEntity
  8
0
 62
5
100
AcDbLine
 10
121.805657
 20
184.339341
 30
0.0
 11
121.699657
 21
184.455342
 31
0.0
  0
LINE
  5
26e
100
AcDbEntity
  8
0
 62
5
100
AcDbLine
 10
121.699657
 20
184.455342
 30
0.0
 11
121.601657
 21
184.578342
 31
0.0
  0
LINE
  5
26f
100
AcDbEntity
  8
0
 62
5
100
AcDbLine
 10
121.601657
 20
184.578342
 30
0.0
 11
121.514657
 21
184.709342
 31
0.0
  0
LINE
  5
270
100
AcDbEntity
  8
0
 62
5
100
AcDbLine
 10
121.514657
 20
184.709342
 30
0.0
 11
121.437657
 21
184.846342
 31
0.0
  0
LINE
  5
271
100
AcDbEntity
  8
0
 62
5
100
AcDbLine
 10
121.437657
 20
184.846342
 30
0.0
 11
121.372656
 21
184.988343
 31
0.0
  0
LINE
  5
272
100
AcDbEntity
  8
0
 62
5
100
AcDbLine
 10
121.372656
 20
184.988343
 30
0.0
 11
121.317656
 21
185.135343
 31
0.0
  0
LINE
  5
273
100
AcDbEntity
  8
0
 62
5
100
AcDbLine
 10
121.317656
 20
185.135343
 30
0.0
 11
121.275656
 21
185.287343
 31
0.0
  0
LINE
  5
274
100
AcDbEntity
  8
0
 62
5
100
AcDbLine
 10
121.275656
 20
185.287343
 30
0.0
 11
121.244656
 21
185.441343
 31
0.0
  0
LINE
  5
275
100
AcDbEntity
  8
0
 62
5
100
AcDbLine
 10
121.244656
 20
185.441343
 30
0.0
 11
121.226656
 21
185.597344
 31
0.0
  0
LINE
  5
276
100
AcDbEntity
  8
0
 62
5
100
AcDbLine
 10
121.226656
 20
185.597344
 30
0.0
 11
121.220656
 21
185.753344
 31
0.0
  0
LINE
  5
277
100
AcDbEntity
  8
0
 62
5
100
AcDbLine
 10
121.220656
 20
185.753344
 30
0.0
 11
121.219656
 21
298.054560
 31
0.0
  0
LINE
  5
278
100
AcDbEntity
  8
0
 62
5
100
AcDbLine
 10
121.219656
 20
298.054560
 30
0.0
 11
121.226656
 21
298.211560
 31
0.0
  0
LINE
  5
279
100
AcDbEntity
  8
0
 62
5
100
AcDbLine
 10
121.226656
 20
298.211560
 30
0.0
 11
121.244656
 21
298.367561
 31
0.0
  0
LINE
  5
27a
100
AcDbEntity
  8
0
 62
5
100
AcDbLine
 10
121.244656
 20
298.367561
 30
0.0
 11
121.275656
 21
298.521561
 31
0.0
  0
LINE
  5
27b
100
AcDbEntity
  8
0
 62
5
100
AcDbLine
 10
121.275656
 20
298.521561
 30
0.0
 11
121.317656
 21
298.673561
 31
0.0
  0
LINE
  5
27c
100
AcDbEntity
  8
0
 62
5
100
AcDbLine
 10
121.317656
 20
298.673561
 30
0.0
 11
121.372656
 21
298.820562
 31
0.0
  0
LINE
  5
27d
100
AcDbEntity
  8
0
 62
5
100
AcDbLine
 10
121.372656
 20
298.820562
 30
0.0
 11
121.437657
 21
298.962562
 31
0.0
  0
LINE
  5
27e
100
AcDbEntity
  8
0
 62
5
100
AcDbLine
 10
121.437657
 20
298.962562
 30
0.0
 11
121.514657
 21
299.099562
 31
0.0
  0
LINE
  5
27f
100
AcDbEntity
  8
0
 62
5
100
AcDbLine
 10
121.514657
 20
299.099562
 30
0.0
 11
121.601657
 21
299.230562
 31
0.0
  0
LINE
  5
280
100
AcDbEntity
  8
0
 62
5
100
AcDbLine
 10
121.601657
 20
299.230562
 30
0.0
 11
121.699657
 21
299.353563
 31
0.0
  0
LINE
  5
281
100
AcDbEntity
  8
0
 62
5
100
AcDbLine
 10
121.699657
 20
299.353563
 30
0.0
 11
121.805657
 21
299.469563
 31
0.0
  0
LINE
  5
282
100
AcDbEntity
  8
0
 62
5
100
AcDbLine
 10
121.805657
 20
299.469563
 30
0.0
 11
121.921657
 21
299.575563
 31
0.0
  0
LINE
  5
283
100
AcDbEntity
  8
0
 62
5
100
AcDbLine
 10
121.921657
 20
299.575563
 30
0.0
 11
122.044658
 21
299.673563
 31
0.0
  0
LINE
  5
284
100
AcDbEntity
  8
0
 62
5
100
AcDbLine
 10
122.044658
 20
299.673563
 30
0.0
 11
122.175658
 21
299.760563
 31
0.0
  0
LINE
  5
285
100
AcDbEntity
  8
0
 62
5
100
AcDbLine
 10
122.175658
 20
299.760563
 30
0.0
 11
122.312658
 21
299.837564
 31
0.0
  0
LINE
  5
286
100
AcDbEntity
  8
0
 62
5
100
AcDbLine
 10
122.312658
 20
299.837564
 30
0.0
 11
122.454659
 21
299.902564
 31
0.0
  0
LINE
  5
287
100
AcDbEntity
  8
0
 62
5
100
AcDbLine
 10
122.454659
 20
299.902564
 30
0.0
 11
122.601659
 21
299.957564
 31
0.0
  0
LINE
  5
288
100
AcDbEntity
  8
0
 62
5
100
AcDbLine
 10
122.601659
 20
299.957564
 30
0.0
 11
122.753659
 21
299.999564
 31
0.0
  0
LINE
  5
289
100
AcDbEntity
  8
0
 62
5
100
AcDbLine
 10
122.753659
 20
299.999564
 30
0.0
 11
122.907659
 21
300.030564
 31
0.0
  0
LINE
  5
28a
100
AcDbEntity
  8
0
 62
5
100
AcDbLine
 10
122.907659
 20
300.030564
 30
0.0
 11
123.063660
 21
300.048564
 31
0.0
  0
LINE
  5
28b
100
AcDbEntity
  8
0
 62
5
100
AcDbLine
 10
123.063660
 20
300.048564
 30
0.0
 11
123.222202
 21
300.055264
 31
0.0
  0
LINE
  5
28c
100
AcDbEntity
  8
0
 62
5
100
AcDbLine
 10
123.222202
 20
300.055264
 30
0.0
 11
155.717640
 21
300.054564
 31
0.0
  0
LINE
  5
28d
100
AcDbEntity
  8
0
 62
5
100
AcDbLine
 10
155.717640
 20
300.054564
 30
0.0
 11
155.874640
 21
300.048564
 31
0.0
  0
LINE
  5
28e
100
AcDbEntity
  8
0
 62
5
100
AcDbLine
 10
155.874640
 20
300.048564
 30
0.0
 11
156.030640
 21
300.030564
 31
0.0
  0
LINE
  5
28f
100
AcDbEntity
  8
0
 62
5
100
AcDbLine
 10
156.030640
 20
300.030564
 30
0.0
 11
156.184640
 21
299.999564
 31
0.0
  0
LINE
  5
290
100
AcDbEntity
  8
0
 62
5
100
AcDbLine
 10
156.184640
 20
299.999564
 30
0.0
 11
156.336641
 21
299.957564
 31
0.0
  0
LINE
  5
291
100
AcDbEntity
  8
0
 62
5
100
AcDbLine
 10
156.336641
 20
299.957564
 30
0.0
 11
156.483641
 21
299.902564
 31
0.0
  0
LINE
  5
292
100
AcDbEntity
  8
0
 62
5
100
AcDbLine
 10
156.483641
 20
299.902564
 30
0.0
 11
156.625641
 21
299.837564
 31
0.0
  0
LINE
  5
293
100
AcDbEntity
  8
0
 62
5
100
AcDbLine
 10
156.625641
 20
299.837564
 30
0.0
 11
156.762642
 21
299.760563
 31
0.0
  0
LINE
  5
294
100
AcDbEntity
  8
0
 62
5
100
AcDbLine
 10
156.762642
 20
299.760563
 30
0.0
 11
156.893642
 21
299.673563
 31
0.0
  0
LINE
  5
295
100
AcDbEntity
  8
0
 62
5
100
AcDbLine
 10
156.893642
 20
299.673563
 30
0.0
 11
157.016642
 21
299.575563
 31
0.0
  0
LINE
  5
296
100
AcDbEntity
  8
0
 62
5
100
AcDbLine
 10
157.016642
 20
299.575563
 30
0.0
 11
157.132642
 21
299.469563
 31
0.0
  0
LINE
  5
297
100
AcDbEntity
  8
0
 62
5
100
AcDbLine
 10
157.132642
 20
299.469563
 30
0.0
 11
157.238642
 21
299.353563
 31
0.0
  0
LINE
  5
298
100
AcDbEntity
  8
0
 62
5
100
AcDbLine
 10
157.238642
 20
299.353563
 30
0.0
 11
157.336643
 21
299.230562
 31
0.0
  0
LINE
  5
299
100
AcDbEntity
  8
0
 62
5
100
AcDbLine
 10
157.336643
 20
299.230562
 30
0.0
 11
157.423643
 21
299.099562
 31
0.0
  0
LINE
  5
29a
100
AcDbEntity
  8
0
 62
5
100
AcDbLine
 10
157.423643
 20
299.099562
 30
0.0
 11
157.500643
 21
298.962562
 31
0.0
  0
LINE
  5
29b
100
AcDbEntity
  8
0
 62
5
100
AcDbLine
 10
157.500643
 20
298.962562
 30
0.0
 11
157.565643
 21
298.820562
 31
0.0
  0
LINE
  5
29c
100
AcDbEntity
  8
0
 62
5
100
AcDbLine
 10
157.565643
 20
298.820562
 30
0.0
 11
157.620643
 21
298.673561
 31
0.0
  0
LINE
  5
29d
100
AcDbEntity
  8
0
 62
5
100
AcDbLine
 10
157.620643
 20
298.673561
 30
0.0
 11
157.662643
 21
298.521561
 31
0.0
  0
LINE
  5
29e
100
AcDbEntity
  8
0
 62
5
100
AcDbLine
 10
157.662643
 20
298.521561
 30
0.0
 11
157.693643
 21
298.367561
 31
0.0
  0
LINE
  5
29f
100
AcDbEntity
  8
0
 62
5
100
AcDbLine
 10
157.693643
 20
298.367561
 30
0.0
 11
157.711643
 21
298.211560
 31
0.0
  0
LINE
  5
2a0
100
AcDbEntity
  8
0
 62
5
100
AcDbLine
 10
157.711643
 20
298.211560
 30
0.0
 11
157.718643
 21
298.054560
 31
0.0
  0
LINE
  5
2a1
100
AcDbEntity
  8
0
 62
5
100
AcDbLine
 10
157.718643
 20
298.054560
 30
0.0
 11
157.717643
 21
185.754344
 31
0.0
  0
LINE
  5
2a2
100
AcDbEntity
  8
0
 62
5
100
AcDbLine
 10
157.717643
 20
185.754344
 30
0.0
 11
157.711643
 21
185.597344
 31
0.0
  0
LINE
  5
2a3
100
AcDbEntity
  8
0
 62
5
100
AcDbLine
 10
157.711643
 20
185.597344
 30
0.0
 11
157.693643
 21
185.441343
 31
0.0
  0
LINE
  5
2a4
100
AcDbEntity
  8
0
 62
5
100
AcDbLine
 10
157.693643
 20
185.441343
 30
0.0
 11
157.662643
 21
185.287343
 31
0.0
  0
LINE
  5
2a5
100
AcDbEntity
  8
0
 62
5
100
AcDbLine
 10
157.662643
 20
185.287343
 30
0.0
 11
157.620643
 21
185.135343
 31
0.0
  0
LINE
  5
2a6
100
AcDbEntity
  8
0
 62
5
100
AcDbLine
 10
157.620643
 20
185.135343
 30
0.0
 11
157.565643
 21
184.988343
 31
0.0
  0
LINE
  5
2a7
100
AcDbEntity
  8
0
 62
5
100
AcDbLine
 10
157.565643
 20
184.988343
 30
0.0
 11
157.500643
 21
184.846342
 31
0.0
  0
LINE
  5
2a8
100
AcDbEntity
  8
0
 62
5
100
AcDbLine
 10
157.500643
 20
184.846342
 30
0.0
 11
157.423643
 21
184.709342
 31
0.0
  0
LINE
  5
2a9
100
AcDbEntity
  8
0
 62
5
100
AcDbLine
 10
157.423643
 20
184.709342
 30
0.0
 11
157.336643
 21
184.578342
 31
0.0
  0
LINE
  5
2aa
100
AcDbEntity
  8
0
 62
5
100
AcDbLine
 10
157.336643
 20
184.578342
 30
0.0
 11
157.238642
 21
184.455342
 31
0.0
  0
LINE
  5
2ab
100
AcDbEntity
  8
0
 62
5
100
AcDbLine
 10
157.238642
 20
184.455342
 30
0.0
 11
157.132642
 21
184.339341
 31
0.0
  0
LINE
  5
2ac
100
AcDbEntity
  8
0
 62
5
100
AcDbLine
 10
157.132642
 20
184.339341
 30
0.0
 11
157.016642
 21
184.233341
 31
0.0
  0
LINE
  5
2ad
100
AcDbEntity
  8
0
 62
5
100
AcDbLine
 10
157.016642
 20
184.233341
 30
0.0
 11
156.893642
 21
184.135341
 31
0.0
  0
LINE
  5
2ae
100
AcDbEntity
  8
0
 62
5
100
AcDbLine
 10
156.893642
 20
184.135341
 30
0.0
 11
156.762642
 21
184.048341
 31
0.0
  0
LINE
  5
2af
100
AcDbEntity
  8
0
 62
5
100
AcDbLine
 10
156.762642
 20
184.048341
 30
0.0
 11
156.625641
 21
183.971341
 31
0.0
  0
LINE
  5
2b0
100
AcDbEntity
  8
0
 62
5
100
AcDbLine
 10
156.625641
 20
183.971341
 30
0.0
 11
156.483641
 21
183.906340
 31
0.0
  0
LINE
  5
2b1
100
AcDbEntity
  8
0
 62
5
100
AcDbLine
 10
156.483641
 20
183.906340
 30
0.0
 11
156.336641
 21
183.851340
 31
0.0
  0
LINE
  5
2b2
100
AcDbEntity
  8
0
 62
5
100
AcDbLine
 10
156.336641
 20
183.851340
 30
0.0
 11
156.184640
 21
183.809340
 31
0.0
  0
LINE
  5
2b3
100
AcDbEntity
  8
0
 62
5
100
AcDbLine
 10
156.184640
 20
183.809340
 30
0.0
 11
156.030640
 21
183.778340
 31
0.0
  0
LINE
  5
2b4
100
AcDbEntity
  8
0
 62
5
100
AcDbLine
 10
156.030640
 20
183.778340
 30
0.0
 11
155.874640
 21
183.760340
 31
0.0
  0
LINE
  5
2b5
100
AcDbEntity
  8
0
 62
5
100
AcDbLine
 10
155.874640
 20
183.760340
 30
0.0
 11
155.717640
 21
183.754340
 31
0.0
  0
LINE
  5
2b6
100
AcDbEntity
  8
0
 62
5
100
AcDbLine
 10
155.717640
 20
183.754340
 30
0.0
 11
123.219660
 21
183.754340
 31
0.0
  0
LINE
  5
2b7
100
AcDbEntity
  8
0
 62
5
100
AcDbLine
 10
123.219660
 20
183.754340
 30
0.0
 11
123.063660
 21
183.760340
 31
0.0
  0
SPLINE
  5
2b8
100
AcDbEntity
  8
0
 62
5
100
AcDbSpline
 70
8
 71
3
 72
8
 73
4
 74
0
 40
0
 40
0
 40
0
 40
0
 40
1
 40
1
 40
1
 40
1
 10
154.659964
 20
146.595996
 30
0.0
 10
153.444291
 20
146.595996
 30
0.0
 10
152.460746
 20
145.611745
 30
0.0
 10
152.460746
 20
144.395720
 30
0.0
  0
LINE
  5
2b9
100
AcDbEntity
  8
0
 62
5
100
AcDbLine
 10
152.459964
 20
144.395996
 30
0.0
 11
152.459964
 21
121.050918
 31
0.0
  0
SPLINE
  5
2ba
100
AcDbEntity
  8
0
 62
5
100
AcDbSpline
 70
8
 71
3
 72
8
 73
4
 74
0
 40
0
 40
0
 40
0
 40
0
 40
1
 40
1
 40
1
 40
1
 10
152.459964
 20
121.051002
 30
0.0
 10
152.459964
 20
119.835329
 30
0.0
 10
153.444215
 20
118.851431
 30
0.0
 10
154.659888
 20
118.851431
 30
0.0
  0
SPLINE
  5
2bb
100
AcDbEntity
  8
0
 62
5
100
AcDbSpline
 70
8
 71
3
 72
8
 73
4
 74
0
 40
0
 40
0
 40
0
 40
0
 40
1
 40
1
 40
1
 40
1
 10
154.873964
 20
120.079002
 30
0.0
 10
155.522017
 20
120.079002
 30
0.0
 10
156.048009
 20
120.604641
 30
0.0
 10
156.048009
 20
121.253047
 30
0.0
  0
SPLINE
  5
2bc
100
AcDbEntity
  8
0
 62
5
100
AcDbSpline
 70
8
 71
3
 72
8
 73
4
 74
0
 40
0
 40
0
 40
0
 40
0
 40
1
 40
1
 40
1
 40
1
 10
156.048009
 20
121.253047
 30
0.0
 10
156.048009
 20
121.901100
 30
0.0
 10
155.522017
 20
122.426739
 30
0.0
 10
154.873964
 20
122.426739
 30
0.0
  0
SPLINE
  5
2bd
100
AcDbEntity
  8
0
 62
5
100
AcDbSpline
 70
8
 71
3
 72
8
 73
4
 74
0
 40
0
 40
0
 40
0
 40
0
 40
1
 40
1
 40
1
 40
1
 10
154.873964
 20
122.426739
 30
0.0
 10
154.225558
 20
122.426739
 30
0.0
 10
153.699919
 20
121.901100
 30
0.0
 10
153.699919
 20
121.253047
 30
0.0
  0
SPLINE
  5
2be
100
AcDbEntity
  8
0
 62
5
100
AcDbSpline
 70
8
 71
3
 72
8
 73
4
 74
0
 40
0
 40
0
 40
0
 40
0
 40
1
 40
1
 40
1
 40
1
 10
153.699919
 20
121.253047
 30
0.0
 10
153.699919
 20
120.604641
 30
0.0
 10
154.225558
 20
120.079002
 30
0.0
 10
154.873964
 20
120.079002
 30
0.0
  0
LINE
  5
2bf
100
AcDbEntity
  8
0
 62
5
100
AcDbLine
 10
154.873964
 20
120.079002
 30
0.0
 11
154.873964
 21
120.079002
 31
0.0
  0
SPLINE
  5
2c0
100
AcDbEntity
  8
0
 62
5
100
AcDbSpline
 70
8
 71
3
 72
8
 73
4
 74
0
 40
0
 40
0
 40
0
 40
0
 40
1
 40
1
 40
1
 40
1
 10
154.873964
 20
142.078997
 30
0.0
 10
155.522017
 20
142.078997
 30
0.0
 10
156.048009
 20
142.604636
 30
0.0
 10
156.048009
 20
143.253042
 30
0.0
  0
SPLINE
  5
2c1
100
AcDbEntity
  8
0
 62
5
100
AcDbSpline
 70
8
 71
3
 72
8
 73
4
 74
0
 40
0
 40
0
 40
0
 40
0
 40
1
 40
1
 40
1
 40
1
 10
156.048009
 20
143.253042
 30
0.0
 10
156.048009
 20
143.901095
 30
0.0
 10
155.522017
 20
144.426734
 30
0.0
 10
154.873964
 20
144.426734
 30
0.0
  0
SPLINE
  5
2c2
100
AcDbEntity
  8
0
 62
5
100
AcDbSpline
 70
8
 71
3
 72
8
 73
4
 74
0
 40
0
 40
0
 40
0
 40
0
 40
1
 40
1
 40
1
 40
1
 10
154.873964
 20
144.426734
 30
0.0
 10
154.225558
 20
144.426734
 30
0.0
 10
153.699919
 20
143.901095
 30
0.0
 10
153.699919
 20
143.253042
 30
0.0
  0
SPLINE
  5
2c3
100
AcDbEntity
  8
0
 62
5
100
AcDbSpline
 70
8
 71
3
 72
8
 73
4
 74
0
 40
0
 40
0
 40
0
 40
0
 40
1
 40
1
 40
1
 40
1
 10
153.699919
 20
143.253042
 30
0.0
 10
153.699919
 20
142.604636
 30
0.0
 10
154.225558
 20
142.078997
 30
0.0
 10
154.873964
 20
142.078997
 30
0.0
  0
LINE
  5
2c4
100
AcDbEntity
  8
0
 62
5
100
AcDbLine
 10
154.873964
 20
142.078997
 30
0.0
 11
154.873964
 21
142.078997
 31
0.0
  0
SPLINE
  5
2c5
100
AcDbEntity
  8
0
 62
5
100
AcDbSpline
 70
8
 71
3
 72
8
 73
4
 74
0
 40
0
 40
0
 40
0
 40
0
 40
1
 40
1
 40
1
 40
1
 10
200.518053
 20
118.851002
 30
0.0
 10
201.734079
 20
118.851002
 30
0.0
 10
202.717624
 20
119.834900
 30
0.0
 10
202.717624
 20
121.050925
 30
0.0
  0
SPLINE
  5
2c6
100
AcDbEntity
  8
0
 62
5
100
AcDbSpline
 70
8
 71
3
 72
8
 73
4
 74
0
 40
0
 40
0
 40
0
 40
0
 40
1
 40
1
 40
1
 40
1
 10
202.717753
 20
144.396996
 30
0.0
 10
202.717753
 20
145.613022
 30
0.0
 10
201.733855
 20
146.596567
 30
0.0
 10
200.517830
 20
146.596567
 30
0.0
  0
LINE
  5
2c7
100
AcDbEntity
  8
0
 62
5
100
AcDbLine
 10
202.717753
 20
121.051002
 30
0.0
 11
202.717753
 21
144.396433
 31
0.0
  0
LINE
  5
2c8
100
AcDbEntity
  8
0
 62
5
100
AcDbLine
 10
154.659964
 20
146.595996
 30
0.0
 11
200.518624
 21
146.595996
 31
0.0
  0
LINE
  5
2c9
100
AcDbEntity
  8
0
 62
5
100
AcDbLine
 10
154.659964
 20
118.851002
 30
0.0
 11
200.504160
 21
118.851002
 31
0.0
  0
SPLINE
  5
2ca
100
AcDbEntity
  8
0
 62
5
100
AcDbSpline
 70
8
 71
3
 72
8
 73
4
 74
0
 40
0
 40
0
 40
0
 40
0
 40
1
 40
1
 40
1
 40
1
 10
182.051420
 20
114.846173
 30
0.0
 10
181.774842
 20
114.846173
 30
0.0
 10
181.551534
 20
114.622794
 30
0.0
 10
181.551534
 20
114.346922
 30
0.0
  0
SPLINE
  5
2cb
100
AcDbEntity
  8
0
 62
5
100
AcDbSpline
 70
8
 71
3
 72
8
 73
4
 74
0
 40
0
 40
0
 40
0
 40
0
 40
1
 40
1
 40
1
 40
1
 10
181.551181
 20
78.347347
 30
0.0
 10
181.551181
 20
78.071474
 30
0.0
 10
181.327520
 20
77.847460
 30
0.0
 10
181.051648
 20
77.847460
 30
0.0
  0
LINE
  5
2cc
100
AcDbEntity
  8
0
 62
5
100
AcDbLine
 10
181.551887
 20
114.346922
 30
0.0
 11
181.551887
 21
78.349110
 31
0.0
  0
SPLINE
  5
2cd
100
AcDbEntity
  8
0
 62
5
100
AcDbSpline
 70
8
 71
3
 72
8
 73
4
 74
0
 40
0
 40
0
 40
0
 40
0
 40
1
 40
1
 40
1
 40
1
 10
177.301618
 20
77.848166
 30
0.0
 10
177.025393
 20
77.848166
 30
0.0
 10
176.801379
 20
77.623799
 30
0.0
 10
176.801379
 20
77.347927
 30
0.0
  0
LINE
  5
2ce
100
AcDbEntity
  8
0
 62
5
100
AcDbLine
 10
181.051648
 20
77.847813
 30
0.0
 11
177.301618
 21
77.847813
 31
0.0
  0
SPLINE
  5
2cf
100
AcDbEntity
  8
0
 62
5
100
AcDbSpline
 70
8
 71
3
 72
8
 73
4
 74
0
 40
0
 40
0
 40
0
 40
0
 40
1
 40
1
 40
1
 40
1
 10
176.801379
 20
59.347786
 30
0.0
 10
176.801379
 20
59.071914
 30
0.0
 10
176.577365
 20
58.848958
 30
0.0
 10
176.301493
 20
58.848958
 30
0.0
  0
LINE
  5
2d0
100
AcDbEntity
  8
0
 62
5
100
AcDbLine
 10
176.802085
 20
77.347927
 30
0.0
 11
176.802085
 21
59.348845
 31
0.0
  0
SPLINE
  5
2d1
100
AcDbEntity
  8
0
 62
5
100
AcDbSpline
 70
8
 71
3
 72
8
 73
4
 74
0
 40
0
 40
0
 40
0
 40
0
 40
1
 40
1
 40
1
 40
1
 10
175.051601
 20
58.848958
 30
0.0
 10
174.775729
 20
58.848958
 30
0.0
 10
174.551715
 20
58.623886
 30
0.0
 10
174.551715
 20
58.348014
 30
0.0
  0
LINE
  5
2d2
100
AcDbEntity
  8
0
 62
5
100
AcDbLine
 10
176.301846
 20
58.848958
 30
0.0
 11
175.052306
 21
58.848958
 31
0.0
  0
SPLINE
  5
2d3
100
AcDbEntity
  8
0
 62
5
100
AcDbSpline
 70
8
 71
3
 72
8
 73
4
 74
0
 40
0
 40
0
 40
0
 40
0
 40
1
 40
1
 40
1
 40
1
 10
174.551362
 20
37.348908
 30
0.0
 10
174.551362
 20
37.073036
 30
0.0
 10
174.775729
 20
36.849022
 30
0.0
 10
175.051601
 20
36.849022
 30
0.0
  0
LINE
  5
2d4
100
AcDbEntity
  8
0
 62
5
100
AcDbLine
 10
174.552067
 20
58.349072
 30
0.0
 11
174.552067
 21
37.348908
 31
0.0
  0
SPLINE
  5
2d5
100
AcDbEntity
  8
0
 62
5
100
AcDbSpline
 70
8
 71
3
 72
8
 73
4
 74
0
 40
0
 40
0
 40
0
 40
0
 40
1
 40
1
 40
1
 40
1
 10
176.301846
 20
36.849022
 30
0.0
 10
176.577718
 20
36.849022
 30
0.0
 10
176.801379
 20
36.625361
 30
0.0
 10
176.801379
 20
36.348783
 30
0.0
  0
LINE
  5
2d6
100
AcDbEntity
  8
0
 62
5
100
AcDbLine
 10
175.052306
 20
36.849022
 30
0.0
 11
176.301846
 21
36.849022
 31
0.0
  0
SPLINE
  5
2d7
100
AcDbEntity
  8
0
 62
5
100
AcDbSpline
 70
8
 71
3
 72
8
 73
4
 74
0
 40
0
 40
0
 40
0
 40
0
 40
1
 40
1
 40
1
 40
1
 10
176.801379
 20
18.350053
 30
0.0
 10
176.801379
 20
18.073475
 30
0.0
 10
177.025746
 20
17.849814
 30
0.0
 10
177.301618
 20
17.849814
 30
0.0
  0
LINE
  5
2d8
100
AcDbEntity
  8
0
 62
5
100
AcDbLine
 10
176.802085
 20
36.348783
 30
0.0
 11
176.802085
 21
18.350053
 31
0.0
  0
SPLINE
  5
2d9
100
AcDbEntity
  8
0
 62
5
100
AcDbSpline
 70
8
 71
3
 72
8
 73
4
 74
0
 40
0
 40
0
 40
0
 40
0
 40
1
 40
1
 40
1
 40
1
 10
178.801630
 20
17.849814
 30
0.0
 10
179.077503
 20
17.849814
 30
0.0
 10
179.301516
 20
17.626506
 30
0.0
 10
179.301516
 20
17.349928
 30
0.0
  0
LINE
  5
2da
100
AcDbEntity
  8
0
 62
5
100
AcDbLine
 10
177.301618
 20
17.849814
 30
0.0
 11
178.801630
 21
17.849814
 31
0.0
  0
SPLINE
  5
2db
100
AcDbEntity
  8
0
 62
5
100
AcDbSpline
 70
8
 71
3
 72
8
 73
4
 74
0
 40
0
 40
0
 40
0
 40
0
 40
1
 40
1
 40
1
 40
1
 10
179.301164
 20
0.650832
 30
0.0
 10
179.301164
 20
0.374255
 30
0.0
 10
179.525883
 20
0.149888
 30
0.0
 10
179.801756
 20
0.149888
 30
0.0
  0
LINE
  5
2dc
100
AcDbEntity
  8
0
 62
5
100
AcDbLine
 10
179.301869
 20
17.349928
 30
0.0
 11
179.301869
 21
0.650832
 31
0.0
  0
LINE
  5
2dd
100
AcDbEntity
  8
0
 62
5
100
AcDbLine
 10
179.802461
 20
0.149888
 30
0.0
 11
202.718562
 21
0.149888
 31
0.0
  0
LINE
  5
2de
100
AcDbEntity
  8
0
 62
5
100
AcDbLine
 10
202.718562
 20
0.149888
 30
0.0
 11
202.718562
 21
114.846844
 31
0.0
  0
LINE
  5
2df
100
AcDbEntity
  8
0
 62
5
100
AcDbLine
 10
202.718562
 20
114.846844
 30
0.0
 11
182.051068
 21
114.846844
 31
0.0
  0
SPLINE
  5
2e0
100
AcDbEntity
  8
0
 62
5
100
AcDbSpline
 70
8
 71
3
 72
8
 73
4
 74
0
 40
0
 40
0
 40
0
 40
0
 40
1
 40
1
 40
1
 40
1
 10
196.550593
 20
20.430738
 30
0.0
 10
197.158076
 20
20.430032
 30
0.0
 10
197.650554
 20
19.938260
 30
0.0
 10
197.650554
 20
19.330776
 30
0.0
  0
SPLINE
  5
2e1
100
AcDbEntity
  8
0
 62
5
100
AcDbSpline
 70
8
 71
3
 72
8
 73
4
 74
0
 40
0
 40
0
 40
0
 40
0
 40
1
 40
1
 40
1
 40
1
 10
197.650554
 20
19.330776
 30
0.0
 10
197.650554
 20
18.723292
 30
0.0
 10
197.158076
 20
18.230109
 30
0.0
 10
196.550593
 20
18.230109
 30
0.0
  0
SPLINE
  5
2e2
100
AcDbEntity
  8
0
 62
5
100
AcDbSpline
 70
8
 71
3
 72
8
 73
4
 74
0
 40
0
 40
0
 40
0
 40
0
 40
1
 40
1
 40
1
 40
1
 10
196.550593
 20
18.230109
 30
0.0
 10
195.943109
 20
18.230109
 30
0.0
 10
195.450631
 20
18.723292
 30
0.0
 10
195.450631
 20
19.330776
 30
0.0
  0
SPLINE
  5
2e3
100
AcDbEntity
  8
0
 62
5
100
AcDbSpline
 70
8
 71
3
 72
8
 73
4
 74
0
 40
0
 40
0
 40
0
 40
0
 40
1
 40
1
 40
1
 40
1
 10
195.450631
 20
19.330776
 30
0.0
 10
195.450631
 20
19.938260
 30
0.0
 10
195.943109
 20
20.430032
 30
0.0
 10
196.550593
 20
20.430032
 30
0.0
  0
SPLINE
  5
2e4
100
AcDbEntity
  8
0
 62
5
100
AcDbSpline
 70
8
 71
3
 72
8
 73
4
 74
0
 40
0
 40
0
 40
0
 40
0
 40
1
 40
1
 40
1
 40
1
 10
200.172916
 20
96.444113
 30
0.0
 10
200.780400
 20
96.444113
 30
0.0
 10
201.272878
 20
95.951600
 30
0.0
 10
201.272878
 20
95.344151
 30
0.0
  0
SPLINE
  5
2e5
100
AcDbEntity
  8
0
 62
5
100
AcDbSpline
 70
8
 71
3
 72
8
 73
4
 74
0
 40
0
 40
0
 40
0
 40
0
 40
1
 40
1
 40
1
 40
1
 10
201.272878
 20
95.344151
 30
0.0
 10
201.272878
 20
94.736738
 30
0.0
 10
200.780400
 20
94.244225
 30
0.0
 10
200.172916
 20
94.244225
 30
0.0
  0
SPLINE
  5
2e6
100
AcDbEntity
  8
0
 62
5
100
AcDbSpline
 70
8
 71
3
 72
8
 73
4
 74
0
 40
0
 40
0
 40
0
 40
0
 40
1
 40
1
 40
1
 40
1
 10
200.172916
 20
94.244225
 30
0.0
 10
199.565433
 20
94.244225
 30
0.0
 10
199.072955
 20
94.736738
 30
0.0
 10
199.072955
 20
95.344151
 30
0.0
  0
SPLINE
  5
2e7
100
AcDbEntity
  8
0
 62
5
100
AcDbSpline
 70
8
 71
3
 72
8
 73
4
 74
0
 40
0
 40
0
 40
0
 40
0
 40
1
 40
1
 40
1
 40
1
 10
199.072955
 20
95.344151
 30
0.0
 10
199.072955
 20
95.951600
 30
0.0
 10
199.565433
 20
96.444113
 30
0.0
 10
200.172916
 20
96.444113
 30
0.0
  0
ENDSEC
  0
SECTION
  2
OBJECTS
  0
DICTIONARY
  5
C
330
0
100
AcDbDictionary
  3
ACAD_GROUP
350
D
  3
ACAD_MLINESTYLE
350
17
  0
DICTIONARY
  5
D
330
C
100
AcDbDictionary
  0
DICTIONARY
  5
1A
330
C
100
AcDbDictionary
  0
DICTIONARY
  5
17
330
C
100
AcDbDictionary
  3
STANDARD
350
18
  0
DICTIONARY
  5
19
330
C
100
AcDbDictionary
  0
ENDSEC
  0
EOF
