  0
SECTION
  2
HEADER
  9
$ACADVER
  1
AC1014
  9
$HANDSEED
  5
FFFF
  9
$MEASUREMENT
 70
     1
  0
ENDSEC
  0
SECTION
  2
TABLES
  0
TABLE
  2
VPORT
  5
8
330
0
100
AcDbSymbolTable
 70
     4
  0
VPORT
  5
2E
330
8
100
AcDbSymbolTableRecord
100
AcDbViewportTableRecord
  2
*ACTIVE
 70
     0
 10
0.0
 20
0.0
 11
1.0
 21
1.0
 12
210.0
 22
148.5
 13
0.0
 23
0.0
 14
10.0
 24
10.0
 15
10.0
 25
10.0
 16
0.0
 26
0.0
 36
1.0
 17
0.0
 27
0.0
 37
0.0
 40
341.0
 41
1.24
 42
50.0
 43
0.0
 44
0.0
 50
0.0
 51
0.0
 71
     0
 72
   100
 73
     1
 74
     3
 75
     0
 76
     0
 77
     0
 78
     0
  0
ENDTAB
  0
TABLE
  2
LTYPE
  5
5
330
0
100
AcDbSymbolTable
 70
     1
  0
LTYPE
  5
14
330
5
100
AcDbSymbolTableRecord
100
AcDbLinetypeTableRecord
  2
BYBLOCK
 70
     0
  3

 72
    65
 73
     0
 40
0.0
  0
LTYPE
  5
15
330
5
100
AcDbSymbolTableRecord
100
AcDbLinetypeTableRecord
  2
BYLAYER
 70
     0
  3

 72
    65
 73
     0
 40
0.0
  0
LTYPE
  5
16
330
5
100
AcDbSymbolTableRecord
100
AcDbLinetypeTableRecord
  2
CONTINUOUS
 70
     0
  3
Solid line
 72
    65
 73
     0
 40
0.0
  0
ENDTAB
  0
TABLE
  2
LAYER
  5
2
100
AcDbSymbolTable
 70
1
  0
LAYER
  5
50
100
AcDbSymbolTableRecord
100
AcDbLayerTableRecord
  2
0
 70
0
  6
CONTINUOUS
  0
ENDTAB
  0
TABLE
  2
STYLE
  5
3
330
0
100
AcDbSymbolTable
 70
     1
  0
STYLE
  5
11
330
3
100
AcDbSymbolTableRecord
100
AcDbTextStyleTableRecord
  2
STANDARD
 70
     0
 40
0.0
 41
1.0
 50
0.0
 71
     0
 42
2.5
  3
txt
  4

  0
ENDTAB
  0
TABLE
  2
VIEW
  5
6
330
0
100
AcDbSymbolTable
 70
     0
  0
ENDTAB
  0
TABLE
  2
UCS
  5
7
330
0
100
AcDbSymbolTable
 70
     0
  0
ENDTAB
  0
TABLE
  2
APPID
  5
9
330
0
100
AcDbSymbolTable
 70
     2
  0
APPID
  5
12
330
9
100
AcDbSymbolTableRecord
100
AcDbRegAppTableRecord
  2
ACAD
 70
     0
  0
ENDTAB
  0
TABLE
  2
DIMSTYLE
  5
A
330
0
100
AcDbSymbolTable
 70
     1
  0
DIMSTYLE
105
27
330
A
100
AcDbSymbolTableRecord
100
AcDbDimStyleTableRecord
  2
ISO-25
 70
     0
  3

  4

  5

  6

  7

 40
1.0
 41
2.5
 42
0.625
 43
3.75
 44
1.25
 45
0.0
 46
0.0
 47
0.0
 48
0.0
140
2.5
141
2.5
142
0.0
143
0.03937007874016
144
1.0
145
0.0
146
1.0
147
0.625
 71
     0
 72
     0
 73
     0
 74
     0
 75
     0
 76
     0
 77
     1
 78
     8
170
     0
171
     3
172
     1
173
     0
174
     0
175
     0
176
     0
177
     0
178
     0
270
     2
271
     2
272
     2
273
     2
274
     3
340
11
275
     0
280
     0
281
     0
282
     0
283
     0
284
     8
285
     0
286
     0
287
     3
288
     0
  0
ENDTAB
  0
TABLE
  2
BLOCK_RECORD
  5
1
330
0
100
AcDbSymbolTable
 70
     1
  0
BLOCK_RECORD
  5
1F
330
1
100
AcDbSymbolTableRecord
100
AcDbBlockTableRecord
  2
*MODEL_SPACE
  0
BLOCK_RECORD
  5
1B
330
1
100
AcDbSymbolTableRecord
100
AcDbBlockTableRecord
  2
*PAPER_SPACE
  0
ENDTAB
  0
ENDSEC
  0
SECTION
  2
BLOCKS
  0
BLOCK
  5
20
330
1F
100
AcDbEntity
  8
0
100
AcDbBlockBegin
  2
*MODEL_SPACE
 70
     0
 10
0.0
 20
0.0
 30
0.0
  3
*MODEL_SPACE
  1

  0
ENDBLK
  5
21
330
1F
100
AcDbEntity
  8
0
100
AcDbBlockEnd
  0
BLOCK
  5
1C
330
1B
100
AcDbEntity
 67
     1
  8
0
100
AcDbBlockBegin
  2
*PAPER_SPACE
  1

  0
ENDBLK
  5
1D
330
1B
100
AcDbEntity
 67
     1
  8
0
100
AcDbBlockEnd
  0
ENDSEC
  0
SECTION
  2
ENTITIES
  0
LINE
  5
100
100
AcDbEntity
  8
0
 62
5
100
AcDbLine
 10
171.910612
 20
327.945098
 30
0.0
 11
171.699001
 21
327.852991
 31
0.0
  0
LINE
  5
101
100
AcDbEntity
  8
0
 62
5
100
AcDbLine
 10
171.699001
 20
327.852991
 30
0.0
 11
171.479938
 21
327.775054
 31
0.0
  0
LINE
  5
102
100
AcDbEntity
  8
0
 62
5
100
AcDbLine
 10
171.479938
 20
327.775054
 30
0.0
 11
171.253424
 21
327.715539
 31
0.0
  0
LINE
  5
103
100
AcDbEntity
  8
0
 62
5
100
AcDbLine
 10
171.253424
 20
327.715539
 30
0.0
 11
171.023930
 21
327.671611
 31
0.0
  0
LINE
  5
104
100
AcDbEntity
  8
0
 62
5
100
AcDbLine
 10
171.023930
 20
327.671611
 30
0.0
 11
170.791455
 21
327.646104
 31
0.0
  0
LINE
  5
105
100
AcDbEntity
  8
0
 62
5
100
AcDbLine
 10
170.791455
 20
327.646104
 30
0.0
 11
170.558980
 21
327.637602
 31
0.0
  0
LINE
  5
106
100
AcDbEntity
  8
0
 62
5
100
AcDbLine
 10
170.558980
 20
327.637602
 30
0.0
 11
3.205469
 21
327.636185
 31
0.0
  0
LINE
  5
107
100
AcDbEntity
  8
0
 62
5
100
AcDbLine
 10
3.205469
 20
327.636185
 30
0.0
 11
2.971504
 21
327.646104
 31
0.0
  0
LINE
  5
108
100
AcDbEntity
  8
0
 62
5
100
AcDbLine
 10
2.971504
 20
327.646104
 30
0.0
 11
2.739030
 21
327.671611
 31
0.0
  0
LINE
  5
109
100
AcDbEntity
  8
0
 62
5
100
AcDbLine
 10
2.739030
 20
327.671611
 30
0.0
 11
2.509535
 21
327.715539
 31
0.0
  0
LINE
  5
10a
100
AcDbEntity
  8
0
 62
5
100
AcDbLine
 10
2.509535
 20
327.715539
 30
0.0
 11
2.283021
 21
327.775054
 31
0.0
  0
LINE
  5
10b
100
AcDbEntity
  8
0
 62
5
100
AcDbLine
 10
2.283021
 20
327.775054
 30
0.0
 11
2.063959
 21
327.852991
 31
0.0
  0
LINE
  5
10c
100
AcDbEntity
  8
0
 62
5
100
AcDbLine
 10
2.063959
 20
327.852991
 30
0.0
 11
1.852347
 21
327.945098
 31
0.0
  0
LINE
  5
10d
100
AcDbEntity
  8
0
 62
5
100
AcDbLine
 10
1.852347
 20
327.945098
 30
0.0
 11
1.648187
 21
328.054210
 31
0.0
  0
LINE
  5
10e
100
AcDbEntity
  8
0
 62
5
100
AcDbLine
 10
1.648187
 20
328.054210
 30
0.0
 11
1.452967
 21
328.177492
 31
0.0
  0
LINE
  5
10f
100
AcDbEntity
  8
0
 62
5
100
AcDbLine
 10
1.452967
 20
328.177492
 30
0.0
 11
1.269670
 21
328.316362
 31
0.0
  0
LINE
  5
110
100
AcDbEntity
  8
0
 62
5
100
AcDbLine
 10
1.269670
 20
328.316362
 30
0.0
 11
1.096804
 21
328.466567
 31
0.0
  0
LINE
  5
111
100
AcDbEntity
  8
0
 62
5
100
AcDbLine
 10
1.096804
 20
328.466567
 30
0.0
 11
0.938841
 21
328.630943
 31
0.0
  0
LINE
  5
112
100
AcDbEntity
  8
0
 62
5
100
AcDbLine
 10
0.938841
 20
328.630943
 30
0.0
 11
0.792799
 21
328.805239
 31
0.0
  0
LINE
  5
113
100
AcDbEntity
  8
0
 62
5
100
AcDbLine
 10
0.792799
 20
328.805239
 30
0.0
 11
0.663149
 21
328.990870
 31
0.0
  0
LINE
  5
114
100
AcDbEntity
  8
0
 62
5
100
AcDbLine
 10
0.663149
 20
328.990870
 30
0.0
 11
0.548402
 21
329.185004
 31
0.0
  0
LINE
  5
115
100
AcDbEntity
  8
0
 62
5
100
AcDbLine
 10
0.548402
 20
329.185004
 30
0.0
 11
0.451538
 21
329.386223
 31
0.0
  0
LINE
  5
116
100
AcDbEntity
  8
0
 62
5
100
AcDbLine
 10
0.451538
 20
329.386223
 30
0.0
 11
0.369575
 21
329.594527
 31
0.0
  0
LINE
  5
117
100
AcDbEntity
  8
0
 62
5
100
AcDbLine
 10
0.369575
 20
329.594527
 30
0.0
 11
0.306986
 21
329.809917
 31
0.0
  0
LINE
  5
118
100
AcDbEntity
  8
0
 62
5
100
AcDbLine
 10
0.306986
 20
329.809917
 30
0.0
 11
0.260789
 21
330.028140
 31
0.0
  0
LINE
  5
119
100
AcDbEntity
  8
0
 62
5
100
AcDbLine
 10
0.260789
 20
330.028140
 30
0.0
 11
0.233965
 21
330.249198
 31
0.0
  0
LINE
  5
11a
100
AcDbEntity
  8
0
 62
5
100
AcDbLine
 10
0.233965
 20
330.249198
 30
0.0
 11
0.223534
 21
330.470255
 31
0.0
  0
LINE
  5
11b
100
AcDbEntity
  8
0
 62
5
100
AcDbLine
 10
0.223534
 20
330.470255
 30
0.0
 11
0.225024
 21
446.951957
 31
0.0
  0
LINE
  5
11c
100
AcDbEntity
  8
0
 62
5
100
AcDbLine
 10
0.225024
 20
446.951957
 30
0.0
 11
0.233965
 21
447.174432
 31
0.0
  0
LINE
  5
11d
100
AcDbEntity
  8
0
 62
5
100
AcDbLine
 10
0.233965
 20
447.174432
 30
0.0
 11
0.260789
 21
447.395489
 31
0.0
  0
LINE
  5
11e
100
AcDbEntity
  8
0
 62
5
100
AcDbLine
 10
0.260789
 20
447.395489
 30
0.0
 11
0.306986
 21
447.613713
 31
0.0
  0
LINE
  5
11f
100
AcDbEntity
  8
0
 62
5
100
AcDbLine
 10
0.306986
 20
447.613713
 30
0.0
 11
0.369575
 21
447.829102
 31
0.0
  0
LINE
  5
120
100
AcDbEntity
  8
0
 62
5
100
AcDbLine
 10
0.369575
 20
447.829102
 30
0.0
 11
0.451538
 21
448.037406
 31
0.0
  0
LINE
  5
121
100
AcDbEntity
  8
0
 62
5
100
AcDbLine
 10
0.451538
 20
448.037406
 30
0.0
 11
0.548402
 21
448.238625
 31
0.0
  0
LINE
  5
122
100
AcDbEntity
  8
0
 62
5
100
AcDbLine
 10
0.548402
 20
448.238625
 30
0.0
 11
0.663149
 21
448.432759
 31
0.0
  0
LINE
  5
123
100
AcDbEntity
  8
0
 62
5
100
AcDbLine
 10
0.663149
 20
448.432759
 30
0.0
 11
0.792799
 21
448.618391
 31
0.0
  0
LINE
  5
124
100
AcDbEntity
  8
0
 62
5
100
AcDbLine
 10
0.792799
 20
448.618391
 30
0.0
 11
0.938841
 21
448.792686
 31
0.0
  0
LINE
  5
125
100
AcDbEntity
  8
0
 62
5
100
AcDbLine
 10
0.938841
 20
448.792686
 30
0.0
 11
1.096804
 21
448.957062
 31
0.0
  0
LINE
  5
126
100
AcDbEntity
  8
0
 62
5
100
AcDbLine
 10
1.096804
 20
448.957062
 30
0.0
 11
1.269670
 21
449.107268
 31
0.0
  0
LINE
  5
127
100
AcDbEntity
  8
0
 62
5
100
AcDbLine
 10
1.269670
 20
449.107268
 30
0.0
 11
1.452967
 21
449.246137
 31
0.0
  0
LINE
  5
128
100
AcDbEntity
  8
0
 62
5
100
AcDbLine
 10
1.452967
 20
449.246137
 30
0.0
 11
1.648187
 21
449.369419
 31
0.0
  0
LINE
  5
129
100
AcDbEntity
  8
0
 62
5
100
AcDbLine
 10
1.648187
 20
449.369419
 30
0.0
 11
1.852347
 21
449.478531
 31
0.0
  0
LINE
  5
12a
100
AcDbEntity
  8
0
 62
5
100
AcDbLine
 10
1.852347
 20
449.478531
 30
0.0
 11
2.063959
 21
449.570638
 31
0.0
  0
LINE
  5
12b
100
AcDbEntity
  8
0
 62
5
100
AcDbLine
 10
2.063959
 20
449.570638
 30
0.0
 11
2.283021
 21
449.648575
 31
0.0
  0
LINE
  5
12c
100
AcDbEntity
  8
0
 62
5
100
AcDbLine
 10
2.283021
 20
449.648575
 30
0.0
 11
2.509535
 21
449.708091
 31
0.0
  0
LINE
  5
12d
100
AcDbEntity
  8
0
 62
5
100
AcDbLine
 10
2.509535
 20
449.708091
 30
0.0
 11
2.739030
 21
449.752019
 31
0.0
  0
LINE
  5
12e
100
AcDbEntity
  8
0
 62
5
100
AcDbLine
 10
2.739030
 20
449.752019
 30
0.0
 11
2.971504
 21
449.777525
 31
0.0
  0
LINE
  5
12f
100
AcDbEntity
  8
0
 62
5
100
AcDbLine
 10
2.971504
 20
449.777525
 30
0.0
 11
3.205469
 21
449.787445
 31
0.0
  0
LINE
  5
130
100
AcDbEntity
  8
0
 62
5
100
AcDbLine
 10
3.205469
 20
449.787445
 30
0.0
 11
170.557490
 21
449.786027
 31
0.0
  0
LINE
  5
131
100
AcDbEntity
  8
0
 62
5
100
AcDbLine
 10
170.557490
 20
449.786027
 30
0.0
 11
170.791455
 21
449.777525
 31
0.0
  0
LINE
  5
132
100
AcDbEntity
  8
0
 62
5
100
AcDbLine
 10
170.791455
 20
449.777525
 30
0.0
 11
171.023930
 21
449.752019
 31
0.0
  0
LINE
  5
133
100
AcDbEntity
  8
0
 62
5
100
AcDbLine
 10
171.023930
 20
449.752019
 30
0.0
 11
171.253424
 21
449.708091
 31
0.0
  0
LINE
  5
134
100
AcDbEntity
  8
0
 62
5
100
AcDbLine
 10
171.253424
 20
449.708091
 30
0.0
 11
171.479938
 21
449.648575
 31
0.0
  0
LINE
  5
135
100
AcDbEntity
  8
0
 62
5
100
AcDbLine
 10
171.479938
 20
449.648575
 30
0.0
 11
171.699001
 21
449.570638
 31
0.0
  0
LINE
  5
136
100
AcDbEntity
  8
0
 62
5
100
AcDbLine
 10
171.699001
 20
449.570638
 30
0.0
 11
171.910612
 21
449.478531
 31
0.0
  0
LINE
  5
137
100
AcDbEntity
  8
0
 62
5
100
AcDbLine
 10
171.910612
 20
449.478531
 30
0.0
 11
172.114773
 21
449.369419
 31
0.0
  0
LINE
  5
138
100
AcDbEntity
  8
0
 62
5
100
AcDbLine
 10
172.114773
 20
449.369419
 30
0.0
 11
172.309992
 21
449.246137
 31
0.0
  0
LINE
  5
139
100
AcDbEntity
  8
0
 62
5
100
AcDbLine
 10
172.309992
 20
449.246137
 30
0.0
 11
172.493289
 21
449.107268
 31
0.0
  0
LINE
  5
13a
100
AcDbEntity
  8
0
 62
5
100
AcDbLine
 10
172.493289
 20
449.107268
 30
0.0
 11
172.666155
 21
448.957062
 31
0.0
  0
LINE
  5
13b
100
AcDbEntity
  8
0
 62
5
100
AcDbLine
 10
172.666155
 20
448.957062
 30
0.0
 11
172.824119
 21
448.792686
 31
0.0
  0
LINE
  5
13c
100
AcDbEntity
  8
0
 62
5
100
AcDbLine
 10
172.824119
 20
448.792686
 30
0.0
 11
172.970161
 21
448.618391
 31
0.0
  0
LINE
  5
13d
100
AcDbEntity
  8
0
 62
5
100
AcDbLine
 10
172.970161
 20
448.618391
 30
0.0
 11
173.099810
 21
448.432759
 31
0.0
  0
LINE
  5
13e
100
AcDbEntity
  8
0
 62
5
100
AcDbLine
 10
173.099810
 20
448.432759
 30
0.0
 11
173.214557
 21
448.238625
 31
0.0
  0
LINE
  5
13f
100
AcDbEntity
  8
0
 62
5
100
AcDbLine
 10
173.214557
 20
448.238625
 30
0.0
 11
173.311422
 21
448.037406
 31
0.0
  0
LINE
  5
140
100
AcDbEntity
  8
0
 62
5
100
AcDbLine
 10
173.311422
 20
448.037406
 30
0.0
 11
173.393384
 21
447.829102
 31
0.0
  0
LINE
  5
141
100
AcDbEntity
  8
0
 62
5
100
AcDbLine
 10
173.393384
 20
447.829102
 30
0.0
 11
173.455973
 21
447.613713
 31
0.0
  0
LINE
  5
142
100
AcDbEntity
  8
0
 62
5
100
AcDbLine
 10
173.455973
 20
447.613713
 30
0.0
 11
173.502170
 21
447.395489
 31
0.0
  0
LINE
  5
143
100
AcDbEntity
  8
0
 62
5
100
AcDbLine
 10
173.502170
 20
447.395489
 30
0.0
 11
173.528994
 21
447.174432
 31
0.0
  0
LINE
  5
144
100
AcDbEntity
  8
0
 62
5
100
AcDbLine
 10
173.528994
 20
447.174432
 30
0.0
 11
173.537935
 21
446.951957
 31
0.0
  0
LINE
  5
145
100
AcDbEntity
  8
0
 62
5
100
AcDbLine
 10
173.537935
 20
446.951957
 30
0.0
 11
173.537935
 21
330.470255
 31
0.0
  0
LINE
  5
146
100
AcDbEntity
  8
0
 62
5
100
AcDbLine
 10
173.537935
 20
330.470255
 30
0.0
 11
173.528994
 21
330.249198
 31
0.0
  0
LINE
  5
147
100
AcDbEntity
  8
0
 62
5
100
AcDbLine
 10
173.528994
 20
330.249198
 30
0.0
 11
173.502170
 21
330.028140
 31
0.0
  0
LINE
  5
148
100
AcDbEntity
  8
0
 62
5
100
AcDbLine
 10
173.502170
 20
330.028140
 30
0.0
 11
173.455973
 21
329.809917
 31
0.0
  0
LINE
  5
149
100
AcDbEntity
  8
0
 62
5
100
AcDbLine
 10
173.455973
 20
329.809917
 30
0.0
 11
173.393384
 21
329.594527
 31
0.0
  0
LINE
  5
14a
100
AcDbEntity
  8
0
 62
5
100
AcDbLine
 10
173.393384
 20
329.594527
 30
0.0
 11
173.311422
 21
329.386223
 31
0.0
  0
LINE
  5
14b
100
AcDbEntity
  8
0
 62
5
100
AcDbLine
 10
173.311422
 20
329.386223
 30
0.0
 11
173.214557
 21
329.185004
 31
0.0
  0
LINE
  5
14c
100
AcDbEntity
  8
0
 62
5
100
AcDbLine
 10
173.214557
 20
329.185004
 30
0.0
 11
173.099810
 21
328.990870
 31
0.0
  0
LINE
  5
14d
100
AcDbEntity
  8
0
 62
5
100
AcDbLine
 10
173.099810
 20
328.990870
 30
0.0
 11
172.970161
 21
328.805239
 31
0.0
  0
LINE
  5
14e
100
AcDbEntity
  8
0
 62
5
100
AcDbLine
 10
172.970161
 20
328.805239
 30
0.0
 11
172.824119
 21
328.630943
 31
0.0
  0
LINE
  5
14f
100
AcDbEntity
  8
0
 62
5
100
AcDbLine
 10
172.824119
 20
328.630943
 30
0.0
 11
172.666155
 21
328.466567
 31
0.0
  0
LINE
  5
150
100
AcDbEntity
  8
0
 62
5
100
AcDbLine
 10
172.666155
 20
328.466567
 30
0.0
 11
172.493289
 21
328.316362
 31
0.0
  0
LINE
  5
151
100
AcDbEntity
  8
0
 62
5
100
AcDbLine
 10
172.493289
 20
328.316362
 30
0.0
 11
172.309992
 21
328.177492
 31
0.0
  0
LINE
  5
152
100
AcDbEntity
  8
0
 62
5
100
AcDbLine
 10
172.309992
 20
328.177492
 30
0.0
 11
172.114773
 21
328.054210
 31
0.0
  0
LINE
  5
153
100
AcDbEntity
  8
0
 62
5
100
AcDbLine
 10
172.114773
 20
328.054210
 30
0.0
 11
171.910612
 21
327.945098
 31
0.0
  0
LINE
  5
154
100
AcDbEntity
  8
0
 62
5
100
AcDbLine
 10
16.604639
 20
427.343520
 30
0.0
 11
2.753879
 21
427.343520
 31
0.0
  0
LINE
  5
155
100
AcDbEntity
  8
0
 62
5
100
AcDbLine
 10
2.753879
 20
427.343520
 30
0.0
 11
2.753879
 21
441.194280
 31
0.0
  0
LINE
  5
156
100
AcDbEntity
  8
0
 62
5
100
AcDbLine
 10
2.753879
 20
441.194280
 30
0.0
 11
16.604639
 21
441.194280
 31
0.0
  0
LINE
  5
157
100
AcDbEntity
  8
0
 62
5
100
AcDbLine
 10
16.604639
 20
441.194280
 30
0.0
 11
16.604639
 21
427.343520
 31
0.0
  0
LINE
  5
158
100
AcDbEntity
  8
0
 62
5
100
AcDbLine
 10
35.654639
 20
427.343520
 30
0.0
 11
21.803879
 21
427.343520
 31
0.0
  0
LINE
  5
159
100
AcDbEntity
  8
0
 62
5
100
AcDbLine
 10
21.803879
 20
427.343520
 30
0.0
 11
21.803879
 21
441.194280
 31
0.0
  0
LINE
  5
15a
100
AcDbEntity
  8
0
 62
5
100
AcDbLine
 10
21.803879
 20
441.194280
 30
0.0
 11
35.654639
 21
441.194280
 31
0.0
  0
LINE
  5
15b
100
AcDbEntity
  8
0
 62
5
100
AcDbLine
 10
35.654639
 20
441.194280
 30
0.0
 11
35.654639
 21
427.343520
 31
0.0
  0
LINE
  5
15c
100
AcDbEntity
  8
0
 62
5
100
AcDbLine
 10
54.704639
 20
427.343520
 30
0.0
 11
40.853879
 21
427.343520
 31
0.0
  0
LINE
  5
15d
100
AcDbEntity
  8
0
 62
5
100
AcDbLine
 10
40.853879
 20
427.343520
 30
0.0
 11
40.853879
 21
441.194280
 31
0.0
  0
LINE
  5
15e
100
AcDbEntity
  8
0
 62
5
100
AcDbLine
 10
40.853879
 20
441.194280
 30
0.0
 11
54.704639
 21
441.194280
 31
0.0
  0
LINE
  5
15f
100
AcDbEntity
  8
0
 62
5
100
AcDbLine
 10
54.704639
 20
441.194280
 30
0.0
 11
54.704639
 21
427.343520
 31
0.0
  0
LINE
  5
160
100
AcDbEntity
  8
0
 62
5
100
AcDbLine
 10
73.754639
 20
427.343520
 30
0.0
 11
59.903879
 21
427.343520
 31
0.0
  0
LINE
  5
161
100
AcDbEntity
  8
0
 62
5
100
AcDbLine
 10
59.903879
 20
427.343520
 30
0.0
 11
59.903879
 21
441.194280
 31
0.0
  0
LINE
  5
162
100
AcDbEntity
  8
0
 62
5
100
AcDbLine
 10
59.903879
 20
441.194280
 30
0.0
 11
73.754639
 21
441.194280
 31
0.0
  0
LINE
  5
163
100
AcDbEntity
  8
0
 62
5
100
AcDbLine
 10
73.754639
 20
441.194280
 30
0.0
 11
73.754639
 21
427.343520
 31
0.0
  0
LINE
  5
164
100
AcDbEntity
  8
0
 62
5
100
AcDbLine
 10
92.804139
 20
427.343520
 30
0.0
 11
78.953379
 21
427.343520
 31
0.0
  0
LINE
  5
165
100
AcDbEntity
  8
0
 62
5
100
AcDbLine
 10
78.953379
 20
427.343520
 30
0.0
 11
78.953379
 21
441.194280
 31
0.0
  0
LINE
  5
166
100
AcDbEntity
  8
0
 62
5
100
AcDbLine
 10
78.953379
 20
441.194280
 30
0.0
 11
92.804139
 21
441.194280
 31
0.0
  0
LINE
  5
167
100
AcDbEntity
  8
0
 62
5
100
AcDbLine
 10
92.804139
 20
441.194280
 30
0.0
 11
92.804139
 21
427.343520
 31
0.0
  0
LINE
  5
168
100
AcDbEntity
  8
0
 62
5
100
AcDbLine
 10
111.854140
 20
427.343520
 30
0.0
 11
98.003379
 21
427.343520
 31
0.0
  0
LINE
  5
169
100
AcDbEntity
  8
0
 62
5
100
AcDbLine
 10
98.003379
 20
427.343520
 30
0.0
 11
98.003379
 21
441.194280
 31
0.0
  0
LINE
  5
16a
100
AcDbEntity
  8
0
 62
5
100
AcDbLine
 10
98.003379
 20
441.194280
 30
0.0
 11
111.854140
 21
441.194280
 31
0.0
  0
LINE
  5
16b
100
AcDbEntity
  8
0
 62
5
100
AcDbLine
 10
111.854140
 20
441.194280
 30
0.0
 11
111.854140
 21
427.343520
 31
0.0
  0
LINE
  5
16c
100
AcDbEntity
  8
0
 62
5
100
AcDbLine
 10
130.903640
 20
427.343520
 30
0.0
 11
117.052880
 21
427.343520
 31
0.0
  0
LINE
  5
16d
100
AcDbEntity
  8
0
 62
5
100
AcDbLine
 10
117.052880
 20
427.343520
 30
0.0
 11
117.052880
 21
441.194280
 31
0.0
  0
LINE
  5
16e
100
AcDbEntity
  8
0
 62
5
100
AcDbLine
 10
117.052880
 20
441.194280
 30
0.0
 11
130.903640
 21
441.194280
 31
0.0
  0
LINE
  5
16f
100
AcDbEntity
  8
0
 62
5
100
AcDbLine
 10
130.903640
 20
441.194280
 30
0.0
 11
130.903640
 21
427.343520
 31
0.0
  0
LINE
  5
170
100
AcDbEntity
  8
0
 62
5
100
AcDbLine
 10
149.953140
 20
427.343520
 30
0.0
 11
136.102380
 21
427.343520
 31
0.0
  0
LINE
  5
171
100
AcDbEntity
  8
0
 62
5
100
AcDbLine
 10
136.102380
 20
427.343520
 30
0.0
 11
136.102380
 21
441.194280
 31
0.0
  0
LINE
  5
172
100
AcDbEntity
  8
0
 62
5
100
AcDbLine
 10
136.102380
 20
441.194280
 30
0.0
 11
149.953140
 21
441.194280
 31
0.0
  0
LINE
  5
173
100
AcDbEntity
  8
0
 62
5
100
AcDbLine
 10
149.953140
 20
441.194280
 30
0.0
 11
149.953140
 21
427.343520
 31
0.0
  0
LINE
  5
174
100
AcDbEntity
  8
0
 62
5
100
AcDbLine
 10
169.003140
 20
427.343520
 30
0.0
 11
155.152380
 21
427.343520
 31
0.0
  0
LINE
  5
175
100
AcDbEntity
  8
0
 62
5
100
AcDbLine
 10
155.152380
 20
427.343520
 30
0.0
 11
155.152380
 21
441.194280
 31
0.0
  0
LINE
  5
176
100
AcDbEntity
  8
0
 62
5
100
AcDbLine
 10
155.152380
 20
441.194280
 30
0.0
 11
169.003140
 21
441.194280
 31
0.0
  0
LINE
  5
177
100
AcDbEntity
  8
0
 62
5
100
AcDbLine
 10
169.003140
 20
441.194280
 30
0.0
 11
169.003140
 21
427.343520
 31
0.0
  0
LINE
  5
178
100
AcDbEntity
  8
0
 62
5
100
AcDbLine
 10
16.679259
 20
408.367640
 30
0.0
 11
2.828499
 21
408.367640
 31
0.0
  0
LINE
  5
179
100
AcDbEntity
  8
0
 62
5
100
AcDbLine
 10
2.828499
 20
408.367640
 30
0.0
 11
2.828499
 21
422.218400
 31
0.0
  0
LINE
  5
17a
100
AcDbEntity
  8
0
 62
5
100
AcDbLine
 10
2.828499
 20
422.218400
 30
0.0
 11
16.679259
 21
422.218400
 31
0.0
  0
LINE
  5
17b
100
AcDbEntity
  8
0
 62
5
100
AcDbLine
 10
16.679259
 20
422.218400
 30
0.0
 11
16.679259
 21
408.367640
 31
0.0
  0
LINE
  5
17c
100
AcDbEntity
  8
0
 62
5
100
AcDbLine
 10
35.729259
 20
408.367640
 30
0.0
 11
21.878499
 21
408.367640
 31
0.0
  0
LINE
  5
17d
100
AcDbEntity
  8
0
 62
5
100
AcDbLine
 10
21.878499
 20
408.367640
 30
0.0
 11
21.878499
 21
422.218400
 31
0.0
  0
LINE
  5
17e
100
AcDbEntity
  8
0
 62
5
100
AcDbLine
 10
21.878499
 20
422.218400
 30
0.0
 11
35.729259
 21
422.218400
 31
0.0
  0
LINE
  5
17f
100
AcDbEntity
  8
0
 62
5
100
AcDbLine
 10
35.729259
 20
422.218400
 30
0.0
 11
35.729259
 21
408.367640
 31
0.0
  0
LINE
  5
180
100
AcDbEntity
  8
0
 62
5
100
AcDbLine
 10
54.779256
 20
408.367640
 30
0.0
 11
40.928496
 21
408.367640
 31
0.0
  0
LINE
  5
181
100
AcDbEntity
  8
0
 62
5
100
AcDbLine
 10
40.928496
 20
408.367640
 30
0.0
 11
40.928496
 21
422.218400
 31
0.0
  0
LINE
  5
182
100
AcDbEntity
  8
0
 62
5
100
AcDbLine
 10
40.928496
 20
422.218400
 30
0.0
 11
54.779256
 21
422.218400
 31
0.0
  0
LINE
  5
183
100
AcDbEntity
  8
0
 62
5
100
AcDbLine
 10
54.779256
 20
422.218400
 30
0.0
 11
54.779256
 21
408.367640
 31
0.0
  0
LINE
  5
184
100
AcDbEntity
  8
0
 62
5
100
AcDbLine
 10
73.829256
 20
408.367640
 30
0.0
 11
59.978496
 21
408.367640
 31
0.0
  0
LINE
  5
185
100
AcDbEntity
  8
0
 62
5
100
AcDbLine
 10
59.978496
 20
408.367640
 30
0.0
 11
59.978496
 21
422.218400
 31
0.0
  0
LINE
  5
186
100
AcDbEntity
  8
0
 62
5
100
AcDbLine
 10
59.978496
 20
422.218400
 30
0.0
 11
73.829256
 21
422.218400
 31
0.0
  0
LINE
  5
187
100
AcDbEntity
  8
0
 62
5
100
AcDbLine
 10
73.829256
 20
422.218400
 30
0.0
 11
73.829256
 21
408.367640
 31
0.0
  0
LINE
  5
188
100
AcDbEntity
  8
0
 62
5
100
AcDbLine
 10
92.878756
 20
408.367640
 30
0.0
 11
79.027996
 21
408.367640
 31
0.0
  0
LINE
  5
189
100
AcDbEntity
  8
0
 62
5
100
AcDbLine
 10
79.027996
 20
408.367640
 30
0.0
 11
79.027996
 21
422.218400
 31
0.0
  0
LINE
  5
18a
100
AcDbEntity
  8
0
 62
5
100
AcDbLine
 10
79.027996
 20
422.218400
 30
0.0
 11
92.878756
 21
422.218400
 31
0.0
  0
LINE
  5
18b
100
AcDbEntity
  8
0
 62
5
100
AcDbLine
 10
92.878756
 20
422.218400
 30
0.0
 11
92.878756
 21
408.367640
 31
0.0
  0
LINE
  5
18c
100
AcDbEntity
  8
0
 62
5
100
AcDbLine
 10
111.928760
 20
408.367640
 30
0.0
 11
98.077996
 21
408.367640
 31
0.0
  0
LINE
  5
18d
100
AcDbEntity
  8
0
 62
5
100
AcDbLine
 10
98.077996
 20
408.367640
 30
0.0
 11
98.077996
 21
422.218400
 31
0.0
  0
LINE
  5
18e
100
AcDbEntity
  8
0
 62
5
100
AcDbLine
 10
98.077996
 20
422.218400
 30
0.0
 11
111.928760
 21
422.218400
 31
0.0
  0
LINE
  5
18f
100
AcDbEntity
  8
0
 62
5
100
AcDbLine
 10
111.928760
 20
422.218400
 30
0.0
 11
111.928760
 21
408.367640
 31
0.0
  0
LINE
  5
190
100
AcDbEntity
  8
0
 62
5
100
AcDbLine
 10
130.978260
 20
408.367640
 30
0.0
 11
117.127500
 21
408.367640
 31
0.0
  0
LINE
  5
191
100
AcDbEntity
  8
0
 62
5
100
AcDbLine
 10
117.127500
 20
408.367640
 30
0.0
 11
117.127500
 21
422.218400
 31
0.0
  0
LINE
  5
192
100
AcDbEntity
  8
0
 62
5
100
AcDbLine
 10
117.127500
 20
422.218400
 30
0.0
 11
130.978260
 21
422.218400
 31
0.0
  0
LINE
  5
193
100
AcDbEntity
  8
0
 62
5
100
AcDbLine
 10
130.978260
 20
422.218400
 30
0.0
 11
130.978260
 21
408.367640
 31
0.0
  0
LINE
  5
194
100
AcDbEntity
  8
0
 62
5
100
AcDbLine
 10
150.027760
 20
408.367640
 30
0.0
 11
136.177000
 21
408.367640
 31
0.0
  0
LINE
  5
195
100
AcDbEntity
  8
0
 62
5
100
AcDbLine
 10
136.177000
 20
408.367640
 30
0.0
 11
136.177000
 21
422.218400
 31
0.0
  0
LINE
  5
196
100
AcDbEntity
  8
0
 62
5
100
AcDbLine
 10
136.177000
 20
422.218400
 30
0.0
 11
150.027760
 21
422.218400
 31
0.0
  0
LINE
  5
197
100
AcDbEntity
  8
0
 62
5
100
AcDbLine
 10
150.027760
 20
422.218400
 30
0.0
 11
150.027760
 21
408.367640
 31
0.0
  0
LINE
  5
198
100
AcDbEntity
  8
0
 62
5
100
AcDbLine
 10
169.077760
 20
408.367640
 30
0.0
 11
155.227000
 21
408.367640
 31
0.0
  0
LINE
  5
199
100
AcDbEntity
  8
0
 62
5
100
AcDbLine
 10
155.227000
 20
408.367640
 30
0.0
 11
155.227000
 21
422.218400
 31
0.0
  0
LINE
  5
19a
100
AcDbEntity
  8
0
 62
5
100
AcDbLine
 10
155.227000
 20
422.218400
 30
0.0
 11
169.077760
 21
422.218400
 31
0.0
  0
LINE
  5
19b
100
AcDbEntity
  8
0
 62
5
100
AcDbLine
 10
169.077760
 20
422.218400
 30
0.0
 11
169.077760
 21
408.367640
 31
0.0
  0
LINE
  5
19c
100
AcDbEntity
  8
0
 62
5
100
AcDbLine
 10
16.530018
 20
389.317636
 30
0.0
 11
2.679258
 21
389.317636
 31
0.0
  0
LINE
  5
19d
100
AcDbEntity
  8
0
 62
5
100
AcDbLine
 10
2.679258
 20
389.317636
 30
0.0
 11
2.679258
 21
403.168396
 31
0.0
  0
LINE
  5
19e
100
AcDbEntity
  8
0
 62
5
100
AcDbLine
 10
2.679258
 20
403.168396
 30
0.0
 11
16.530018
 21
403.168396
 31
0.0
  0
LINE
  5
19f
100
AcDbEntity
  8
0
 62
5
100
AcDbLine
 10
16.530018
 20
403.168396
 30
0.0
 11
16.530018
 21
389.317636
 31
0.0
  0
LINE
  5
1a0
100
AcDbEntity
  8
0
 62
5
100
AcDbLine
 10
35.580019
 20
389.317636
 30
0.0
 11
21.729259
 21
389.317636
 31
0.0
  0
LINE
  5
1a1
100
AcDbEntity
  8
0
 62
5
100
AcDbLine
 10
21.729259
 20
389.317636
 30
0.0
 11
21.729259
 21
403.168396
 31
0.0
  0
LINE
  5
1a2
100
AcDbEntity
  8
0
 62
5
100
AcDbLine
 10
21.729259
 20
403.168396
 30
0.0
 11
35.580019
 21
403.168396
 31
0.0
  0
LINE
  5
1a3
100
AcDbEntity
  8
0
 62
5
100
AcDbLine
 10
35.580019
 20
403.168396
 30
0.0
 11
35.580019
 21
389.317636
 31
0.0
  0
LINE
  5
1a4
100
AcDbEntity
  8
0
 62
5
100
AcDbLine
 10
54.630019
 20
389.317636
 30
0.0
 11
40.779259
 21
389.317636
 31
0.0
  0
LINE
  5
1a5
100
AcDbEntity
  8
0
 62
5
100
AcDbLine
 10
40.779259
 20
389.317636
 30
0.0
 11
40.779259
 21
403.168396
 31
0.0
  0
LINE
  5
1a6
100
AcDbEntity
  8
0
 62
5
100
AcDbLine
 10
40.779259
 20
403.168396
 30
0.0
 11
54.630019
 21
403.168396
 31
0.0
  0
LINE
  5
1a7
100
AcDbEntity
  8
0
 62
5
100
AcDbLine
 10
54.630019
 20
403.168396
 30
0.0
 11
54.630019
 21
389.317636
 31
0.0
  0
LINE
  5
1a8
100
AcDbEntity
  8
0
 62
5
100
AcDbLine
 10
73.680019
 20
389.317636
 30
0.0
 11
59.829259
 21
389.317636
 31
0.0
  0
LINE
  5
1a9
100
AcDbEntity
  8
0
 62
5
100
AcDbLine
 10
59.829259
 20
389.317636
 30
0.0
 11
59.829259
 21
403.168396
 31
0.0
  0
LINE
  5
1aa
100
AcDbEntity
  8
0
 62
5
100
AcDbLine
 10
59.829259
 20
403.168396
 30
0.0
 11
73.680019
 21
403.168396
 31
0.0
  0
LINE
  5
1ab
100
AcDbEntity
  8
0
 62
5
100
AcDbLine
 10
73.680019
 20
403.168396
 30
0.0
 11
73.680019
 21
389.317636
 31
0.0
  0
LINE
  5
1ac
100
AcDbEntity
  8
0
 62
5
100
AcDbLine
 10
92.729518
 20
389.317636
 30
0.0
 11
78.878758
 21
389.317636
 31
0.0
  0
LINE
  5
1ad
100
AcDbEntity
  8
0
 62
5
100
AcDbLine
 10
78.878758
 20
389.317636
 30
0.0
 11
78.878758
 21
403.168396
 31
0.0
  0
LINE
  5
1ae
100
AcDbEntity
  8
0
 62
5
100
AcDbLine
 10
78.878758
 20
403.168396
 30
0.0
 11
92.729518
 21
403.168396
 31
0.0
  0
LINE
  5
1af
100
AcDbEntity
  8
0
 62
5
100
AcDbLine
 10
92.729518
 20
403.168396
 30
0.0
 11
92.729518
 21
389.317636
 31
0.0
  0
LINE
  5
1b0
100
AcDbEntity
  8
0
 62
5
100
AcDbLine
 10
111.779520
 20
389.317636
 30
0.0
 11
97.928759
 21
389.317636
 31
0.0
  0
LINE
  5
1b1
100
AcDbEntity
  8
0
 62
5
100
AcDbLine
 10
97.928759
 20
389.317636
 30
0.0
 11
97.928759
 21
403.168396
 31
0.0
  0
LINE
  5
1b2
100
AcDbEntity
  8
0
 62
5
100
AcDbLine
 10
97.928759
 20
403.168396
 30
0.0
 11
111.779520
 21
403.168396
 31
0.0
  0
LINE
  5
1b3
100
AcDbEntity
  8
0
 62
5
100
AcDbLine
 10
111.779520
 20
403.168396
 30
0.0
 11
111.779520
 21
389.317636
 31
0.0
  0
LINE
  5
1b4
100
AcDbEntity
  8
0
 62
5
100
AcDbLine
 10
130.829020
 20
389.317636
 30
0.0
 11
116.978260
 21
389.317636
 31
0.0
  0
LINE
  5
1b5
100
AcDbEntity
  8
0
 62
5
100
AcDbLine
 10
116.978260
 20
389.317636
 30
0.0
 11
116.978260
 21
403.168396
 31
0.0
  0
LINE
  5
1b6
100
AcDbEntity
  8
0
 62
5
100
AcDbLine
 10
116.978260
 20
403.168396
 30
0.0
 11
130.829020
 21
403.168396
 31
0.0
  0
LINE
  5
1b7
100
AcDbEntity
  8
0
 62
5
100
AcDbLine
 10
130.829020
 20
403.168396
 30
0.0
 11
130.829020
 21
389.317636
 31
0.0
  0
LINE
  5
1b8
100
AcDbEntity
  8
0
 62
5
100
AcDbLine
 10
149.878520
 20
389.317636
 30
0.0
 11
136.027760
 21
389.317636
 31
0.0
  0
LINE
  5
1b9
100
AcDbEntity
  8
0
 62
5
100
AcDbLine
 10
136.027760
 20
389.317636
 30
0.0
 11
136.027760
 21
403.168396
 31
0.0
  0
LINE
  5
1ba
100
AcDbEntity
  8
0
 62
5
100
AcDbLine
 10
136.027760
 20
403.168396
 30
0.0
 11
149.878520
 21
403.168396
 31
0.0
  0
LINE
  5
1bb
100
AcDbEntity
  8
0
 62
5
100
AcDbLine
 10
149.878520
 20
403.168396
 30
0.0
 11
149.878520
 21
389.317636
 31
0.0
  0
LINE
  5
1bc
100
AcDbEntity
  8
0
 62
5
100
AcDbLine
 10
168.928520
 20
389.317636
 30
0.0
 11
155.077760
 21
389.317636
 31
0.0
  0
LINE
  5
1bd
100
AcDbEntity
  8
0
 62
5
100
AcDbLine
 10
155.077760
 20
389.317636
 30
0.0
 11
155.077760
 21
403.168396
 31
0.0
  0
LINE
  5
1be
100
AcDbEntity
  8
0
 62
5
100
AcDbLine
 10
155.077760
 20
403.168396
 30
0.0
 11
168.928520
 21
403.168396
 31
0.0
  0
LINE
  5
1bf
100
AcDbEntity
  8
0
 62
5
100
AcDbLine
 10
168.928520
 20
403.168396
 30
0.0
 11
168.928520
 21
389.317636
 31
0.0
  0
LINE
  5
1c0
100
AcDbEntity
  8
0
 62
5
100
AcDbLine
 10
16.530523
 20
370.267636
 30
0.0
 11
2.679763
 21
370.267636
 31
0.0
  0
LINE
  5
1c1
100
AcDbEntity
  8
0
 62
5
100
AcDbLine
 10
2.679763
 20
370.267636
 30
0.0
 11
2.679763
 21
384.118396
 31
0.0
  0
LINE
  5
1c2
100
AcDbEntity
  8
0
 62
5
100
AcDbLine
 10
2.679763
 20
384.118396
 30
0.0
 11
16.530523
 21
384.118396
 31
0.0
  0
LINE
  5
1c3
100
AcDbEntity
  8
0
 62
5
100
AcDbLine
 10
16.530523
 20
384.118396
 30
0.0
 11
16.530523
 21
370.267636
 31
0.0
  0
LINE
  5
1c4
100
AcDbEntity
  8
0
 62
5
100
AcDbLine
 10
35.580519
 20
370.267636
 30
0.0
 11
21.729759
 21
370.267636
 31
0.0
  0
LINE
  5
1c5
100
AcDbEntity
  8
0
 62
5
100
AcDbLine
 10
21.729759
 20
370.267636
 30
0.0
 11
21.729759
 21
384.118396
 31
0.0
  0
LINE
  5
1c6
100
AcDbEntity
  8
0
 62
5
100
AcDbLine
 10
21.729759
 20
384.118396
 30
0.0
 11
35.580519
 21
384.118396
 31
0.0
  0
LINE
  5
1c7
100
AcDbEntity
  8
0
 62
5
100
AcDbLine
 10
35.580519
 20
384.118396
 30
0.0
 11
35.580519
 21
370.267636
 31
0.0
  0
LINE
  5
1c8
100
AcDbEntity
  8
0
 62
5
100
AcDbLine
 10
54.630519
 20
370.267636
 30
0.0
 11
40.779759
 21
370.267636
 31
0.0
  0
LINE
  5
1c9
100
AcDbEntity
  8
0
 62
5
100
AcDbLine
 10
40.779759
 20
370.267636
 30
0.0
 11
40.779759
 21
384.118396
 31
0.0
  0
LINE
  5
1ca
100
AcDbEntity
  8
0
 62
5
100
AcDbLine
 10
40.779759
 20
384.118396
 30
0.0
 11
54.630519
 21
384.118396
 31
0.0
  0
LINE
  5
1cb
100
AcDbEntity
  8
0
 62
5
100
AcDbLine
 10
54.630519
 20
384.118396
 30
0.0
 11
54.630519
 21
370.267636
 31
0.0
  0
LINE
  5
1cc
100
AcDbEntity
  8
0
 62
5
100
AcDbLine
 10
73.680519
 20
370.267636
 30
0.0
 11
59.829759
 21
370.267636
 31
0.0
  0
LINE
  5
1cd
100
AcDbEntity
  8
0
 62
5
100
AcDbLine
 10
59.829759
 20
370.267636
 30
0.0
 11
59.829759
 21
384.118396
 31
0.0
  0
LINE
  5
1ce
100
AcDbEntity
  8
0
 62
5
100
AcDbLine
 10
59.829759
 20
384.118396
 30
0.0
 11
73.680519
 21
384.118396
 31
0.0
  0
LINE
  5
1cf
100
AcDbEntity
  8
0
 62
5
100
AcDbLine
 10
73.680519
 20
384.118396
 30
0.0
 11
73.680519
 21
370.267636
 31
0.0
  0
LINE
  5
1d0
100
AcDbEntity
  8
0
 62
5
100
AcDbLine
 10
92.730019
 20
370.267636
 30
0.0
 11
78.879259
 21
370.267636
 31
0.0
  0
LINE
  5
1d1
100
AcDbEntity
  8
0
 62
5
100
AcDbLine
 10
78.879259
 20
370.267636
 30
0.0
 11
78.879259
 21
384.118396
 31
0.0
  0
LINE
  5
1d2
100
AcDbEntity
  8
0
 62
5
100
AcDbLine
 10
78.879259
 20
384.118396
 30
0.0
 11
92.730019
 21
384.118396
 31
0.0
  0
LINE
  5
1d3
100
AcDbEntity
  8
0
 62
5
100
AcDbLine
 10
92.730019
 20
384.118396
 30
0.0
 11
92.730019
 21
370.267636
 31
0.0
  0
LINE
  5
1d4
100
AcDbEntity
  8
0
 62
5
100
AcDbLine
 10
111.780020
 20
370.267636
 30
0.0
 11
97.929259
 21
370.267636
 31
0.0
  0
LINE
  5
1d5
100
AcDbEntity
  8
0
 62
5
100
AcDbLine
 10
97.929259
 20
370.267636
 30
0.0
 11
97.929259
 21
384.118396
 31
0.0
  0
LINE
  5
1d6
100
AcDbEntity
  8
0
 62
5
100
AcDbLine
 10
97.929259
 20
384.118396
 30
0.0
 11
111.780020
 21
384.118396
 31
0.0
  0
LINE
  5
1d7
100
AcDbEntity
  8
0
 62
5
100
AcDbLine
 10
111.780020
 20
384.118396
 30
0.0
 11
111.780020
 21
370.267636
 31
0.0
  0
LINE
  5
1d8
100
AcDbEntity
  8
0
 62
5
100
AcDbLine
 10
130.829520
 20
370.267636
 30
0.0
 11
116.978760
 21
370.267636
 31
0.0
  0
LINE
  5
1d9
100
AcDbEntity
  8
0
 62
5
100
AcDbLine
 10
116.978760
 20
370.267636
 30
0.0
 11
116.978760
 21
384.118396
 31
0.0
  0
LINE
  5
1da
100
AcDbEntity
  8
0
 62
5
100
AcDbLine
 10
116.978760
 20
384.118396
 30
0.0
 11
130.829520
 21
384.118396
 31
0.0
  0
LINE
  5
1db
100
AcDbEntity
  8
0
 62
5
100
AcDbLine
 10
130.829520
 20
384.118396
 30
0.0
 11
130.829520
 21
370.267636
 31
0.0
  0
LINE
  5
1dc
100
AcDbEntity
  8
0
 62
5
100
AcDbLine
 10
149.879020
 20
370.267636
 30
0.0
 11
136.028260
 21
370.267636
 31
0.0
  0
LINE
  5
1dd
100
AcDbEntity
  8
0
 62
5
100
AcDbLine
 10
136.028260
 20
370.267636
 30
0.0
 11
136.028260
 21
384.118396
 31
0.0
  0
LINE
  5
1de
100
AcDbEntity
  8
0
 62
5
100
AcDbLine
 10
136.028260
 20
384.118396
 30
0.0
 11
149.879020
 21
384.118396
 31
0.0
  0
LINE
  5
1df
100
AcDbEntity
  8
0
 62
5
100
AcDbLine
 10
149.879020
 20
384.118396
 30
0.0
 11
149.879020
 21
370.267636
 31
0.0
  0
LINE
  5
1e0
100
AcDbEntity
  8
0
 62
5
100
AcDbLine
 10
168.929020
 20
370.267636
 30
0.0
 11
155.078260
 21
370.267636
 31
0.0
  0
LINE
  5
1e1
100
AcDbEntity
  8
0
 62
5
100
AcDbLine
 10
155.078260
 20
370.267636
 30
0.0
 11
155.078260
 21
384.118396
 31
0.0
  0
LINE
  5
1e2
100
AcDbEntity
  8
0
 62
5
100
AcDbLine
 10
155.078260
 20
384.118396
 30
0.0
 11
168.929020
 21
384.118396
 31
0.0
  0
LINE
  5
1e3
100
AcDbEntity
  8
0
 62
5
100
AcDbLine
 10
168.929020
 20
384.118396
 30
0.0
 11
168.929020
 21
370.267636
 31
0.0
  0
LINE
  5
1e4
100
AcDbEntity
  8
0
 62
5
100
AcDbLine
 10
16.530514
 20
351.218637
 30
0.0
 11
2.679754
 21
351.218637
 31
0.0
  0
LINE
  5
1e5
100
AcDbEntity
  8
0
 62
5
100
AcDbLine
 10
2.679754
 20
351.218637
 30
0.0
 11
2.679754
 21
365.069397
 31
0.0
  0
LINE
  5
1e6
100
AcDbEntity
  8
0
 62
5
100
AcDbLine
 10
2.679754
 20
365.069397
 30
0.0
 11
16.530514
 21
365.069397
 31
0.0
  0
LINE
  5
1e7
100
AcDbEntity
  8
0
 62
5
100
AcDbLine
 10
16.530514
 20
365.069397
 30
0.0
 11
16.530514
 21
351.218637
 31
0.0
  0
LINE
  5
1e8
100
AcDbEntity
  8
0
 62
5
100
AcDbLine
 10
35.580519
 20
351.218637
 30
0.0
 11
21.729759
 21
351.218637
 31
0.0
  0
LINE
  5
1e9
100
AcDbEntity
  8
0
 62
5
100
AcDbLine
 10
21.729759
 20
351.218637
 30
0.0
 11
21.729759
 21
365.069397
 31
0.0
  0
LINE
  5
1ea
100
AcDbEntity
  8
0
 62
5
100
AcDbLine
 10
21.729759
 20
365.069397
 30
0.0
 11
35.580519
 21
365.069397
 31
0.0
  0
LINE
  5
1eb
100
AcDbEntity
  8
0
 62
5
100
AcDbLine
 10
35.580519
 20
365.069397
 30
0.0
 11
35.580519
 21
351.218637
 31
0.0
  0
LINE
  5
1ec
100
AcDbEntity
  8
0
 62
5
100
AcDbLine
 10
54.630519
 20
351.218637
 30
0.0
 11
40.779759
 21
351.218637
 31
0.0
  0
LINE
  5
1ed
100
AcDbEntity
  8
0
 62
5
100
AcDbLine
 10
40.779759
 20
351.218637
 30
0.0
 11
40.779759
 21
365.069397
 31
0.0
  0
LINE
  5
1ee
100
AcDbEntity
  8
0
 62
5
100
AcDbLine
 10
40.779759
 20
365.069397
 30
0.0
 11
54.630519
 21
365.069397
 31
0.0
  0
LINE
  5
1ef
100
AcDbEntity
  8
0
 62
5
100
AcDbLine
 10
54.630519
 20
365.069397
 30
0.0
 11
54.630519
 21
351.218637
 31
0.0
  0
LINE
  5
1f0
100
AcDbEntity
  8
0
 62
5
100
AcDbLine
 10
73.680519
 20
351.218637
 30
0.0
 11
59.829759
 21
351.218637
 31
0.0
  0
LINE
  5
1f1
100
AcDbEntity
  8
0
 62
5
100
AcDbLine
 10
59.829759
 20
351.218637
 30
0.0
 11
59.829759
 21
365.069397
 31
0.0
  0
LINE
  5
1f2
100
AcDbEntity
  8
0
 62
5
100
AcDbLine
 10
59.829759
 20
365.069397
 30
0.0
 11
73.680519
 21
365.069397
 31
0.0
  0
LINE
  5
1f3
100
AcDbEntity
  8
0
 62
5
100
AcDbLine
 10
73.680519
 20
365.069397
 30
0.0
 11
73.680519
 21
351.218637
 31
0.0
  0
LINE
  5
1f4
100
AcDbEntity
  8
0
 62
5
100
AcDbLine
 10
92.730019
 20
351.218637
 30
0.0
 11
78.879259
 21
351.218637
 31
0.0
  0
LINE
  5
1f5
100
AcDbEntity
  8
0
 62
5
100
AcDbLine
 10
78.879259
 20
351.218637
 30
0.0
 11
78.879259
 21
365.069397
 31
0.0
  0
LINE
  5
1f6
100
AcDbEntity
  8
0
 62
5
100
AcDbLine
 10
78.879259
 20
365.069397
 30
0.0
 11
92.730019
 21
365.069397
 31
0.0
  0
LINE
  5
1f7
100
AcDbEntity
  8
0
 62
5
100
AcDbLine
 10
92.730019
 20
365.069397
 30
0.0
 11
92.730019
 21
351.218637
 31
0.0
  0
LINE
  5
1f8
100
AcDbEntity
  8
0
 62
5
100
AcDbLine
 10
111.780020
 20
351.218637
 30
0.0
 11
97.929259
 21
351.218637
 31
0.0
  0
LINE
  5
1f9
100
AcDbEntity
  8
0
 62
5
100
AcDbLine
 10
97.929259
 20
351.218637
 30
0.0
 11
97.929259
 21
365.069397
 31
0.0
  0
LINE
  5
1fa
100
AcDbEntity
  8
0
 62
5
100
AcDbLine
 10
97.929259
 20
365.069397
 30
0.0
 11
111.780020
 21
365.069397
 31
0.0
  0
LINE
  5
1fb
100
AcDbEntity
  8
0
 62
5
100
AcDbLine
 10
111.780020
 20
365.069397
 30
0.0
 11
111.780020
 21
351.218637
 31
0.0
  0
LINE
  5
1fc
100
AcDbEntity
  8
0
 62
5
100
AcDbLine
 10
130.829520
 20
351.218637
 30
0.0
 11
116.978760
 21
351.218637
 31
0.0
  0
LINE
  5
1fd
100
AcDbEntity
  8
0
 62
5
100
AcDbLine
 10
116.978760
 20
351.218637
 30
0.0
 11
116.978760
 21
365.069397
 31
0.0
  0
LINE
  5
1fe
100
AcDbEntity
  8
0
 62
5
100
AcDbLine
 10
116.978760
 20
365.069397
 30
0.0
 11
130.829520
 21
365.069397
 31
0.0
  0
LINE
  5
1ff
100
AcDbEntity
  8
0
 62
5
100
AcDbLine
 10
130.829520
 20
365.069397
 30
0.0
 11
130.829520
 21
351.218637
 31
0.0
  0
LINE
  5
200
100
AcDbEntity
  8
0
 62
5
100
AcDbLine
 10
149.879020
 20
351.218637
 30
0.0
 11
136.028260
 21
351.218637
 31
0.0
  0
LINE
  5
201
100
AcDbEntity
  8
0
 62
5
100
AcDbLine
 10
136.028260
 20
351.218637
 30
0.0
 11
136.028260
 21
365.069397
 31
0.0
  0
LINE
  5
202
100
AcDbEntity
  8
0
 62
5
100
AcDbLine
 10
136.028260
 20
365.069397
 30
0.0
 11
149.879020
 21
365.069397
 31
0.0
  0
LINE
  5
203
100
AcDbEntity
  8
0
 62
5
100
AcDbLine
 10
149.879020
 20
365.069397
 30
0.0
 11
149.879020
 21
351.218637
 31
0.0
  0
LINE
  5
204
100
AcDbEntity
  8
0
 62
5
100
AcDbLine
 10
168.929020
 20
351.218637
 30
0.0
 11
155.078260
 21
351.218637
 31
0.0
  0
LINE
  5
205
100
AcDbEntity
  8
0
 62
5
100
AcDbLine
 10
155.078260
 20
351.218637
 30
0.0
 11
155.078260
 21
365.069397
 31
0.0
  0
LINE
  5
206
100
AcDbEntity
  8
0
 62
5
100
AcDbLine
 10
155.078260
 20
365.069397
 30
0.0
 11
168.929020
 21
365.069397
 31
0.0
  0
LINE
  5
207
100
AcDbEntity
  8
0
 62
5
100
AcDbLine
 10
168.929020
 20
365.069397
 30
0.0
 11
168.929020
 21
351.218637
 31
0.0
  0
LINE
  5
208
100
AcDbEntity
  8
0
 62
5
100
AcDbLine
 10
16.530019
 20
332.168640
 30
0.0
 11
2.679259
 21
332.168640
 31
0.0
  0
LINE
  5
209
100
AcDbEntity
  8
0
 62
5
100
AcDbLine
 10
2.679259
 20
332.168640
 30
0.0
 11
2.679259
 21
346.019400
 31
0.0
  0
LINE
  5
20a
100
AcDbEntity
  8
0
 62
5
100
AcDbLine
 10
2.679259
 20
346.019400
 30
0.0
 11
16.530019
 21
346.019400
 31
0.0
  0
LINE
  5
20b
100
AcDbEntity
  8
0
 62
5
100
AcDbLine
 10
16.530019
 20
346.019400
 30
0.0
 11
16.530019
 21
332.168640
 31
0.0
  0
LINE
  5
20c
100
AcDbEntity
  8
0
 62
5
100
AcDbLine
 10
35.580019
 20
332.168640
 30
0.0
 11
21.729259
 21
332.168640
 31
0.0
  0
LINE
  5
20d
100
AcDbEntity
  8
0
 62
5
100
AcDbLine
 10
21.729259
 20
332.168640
 30
0.0
 11
21.729259
 21
346.019400
 31
0.0
  0
LINE
  5
20e
100
AcDbEntity
  8
0
 62
5
100
AcDbLine
 10
21.729259
 20
346.019400
 30
0.0
 11
35.580019
 21
346.019400
 31
0.0
  0
LINE
  5
20f
100
AcDbEntity
  8
0
 62
5
100
AcDbLine
 10
35.580019
 20
346.019400
 30
0.0
 11
35.580019
 21
332.168640
 31
0.0
  0
LINE
  5
210
100
AcDbEntity
  8
0
 62
5
100
AcDbLine
 10
54.630019
 20
332.168640
 30
0.0
 11
40.779259
 21
332.168640
 31
0.0
  0
LINE
  5
211
100
AcDbEntity
  8
0
 62
5
100
AcDbLine
 10
40.779259
 20
332.168640
 30
0.0
 11
40.779259
 21
346.019400
 31
0.0
  0
LINE
  5
212
100
AcDbEntity
  8
0
 62
5
100
AcDbLine
 10
40.779259
 20
346.019400
 30
0.0
 11
54.630019
 21
346.019400
 31
0.0
  0
LINE
  5
213
100
AcDbEntity
  8
0
 62
5
100
AcDbLine
 10
54.630019
 20
346.019400
 30
0.0
 11
54.630019
 21
332.168640
 31
0.0
  0
LINE
  5
214
100
AcDbEntity
  8
0
 62
5
100
AcDbLine
 10
73.680019
 20
332.168640
 30
0.0
 11
59.829259
 21
332.168640
 31
0.0
  0
LINE
  5
215
100
AcDbEntity
  8
0
 62
5
100
AcDbLine
 10
59.829259
 20
332.168640
 30
0.0
 11
59.829259
 21
346.019400
 31
0.0
  0
LINE
  5
216
100
AcDbEntity
  8
0
 62
5
100
AcDbLine
 10
59.829259
 20
346.019400
 30
0.0
 11
73.680019
 21
346.019400
 31
0.0
  0
LINE
  5
217
100
AcDbEntity
  8
0
 62
5
100
AcDbLine
 10
73.680019
 20
346.019400
 30
0.0
 11
73.680019
 21
332.168640
 31
0.0
  0
LINE
  5
218
100
AcDbEntity
  8
0
 62
5
100
AcDbLine
 10
92.729519
 20
332.168640
 30
0.0
 11
78.878759
 21
332.168640
 31
0.0
  0
LINE
  5
219
100
AcDbEntity
  8
0
 62
5
100
AcDbLine
 10
78.878759
 20
332.168640
 30
0.0
 11
78.878759
 21
346.019400
 31
0.0
  0
LINE
  5
21a
100
AcDbEntity
  8
0
 62
5
100
AcDbLine
 10
78.878759
 20
346.019400
 30
0.0
 11
92.729519
 21
346.019400
 31
0.0
  0
LINE
  5
21b
100
AcDbEntity
  8
0
 62
5
100
AcDbLine
 10
92.729519
 20
346.019400
 30
0.0
 11
92.729519
 21
332.168640
 31
0.0
  0
LINE
  5
21c
100
AcDbEntity
  8
0
 62
5
100
AcDbLine
 10
111.779520
 20
332.168640
 30
0.0
 11
97.928759
 21
332.168640
 31
0.0
  0
LINE
  5
21d
100
AcDbEntity
  8
0
 62
5
100
AcDbLine
 10
97.928759
 20
332.168640
 30
0.0
 11
97.928759
 21
346.019400
 31
0.0
  0
LINE
  5
21e
100
AcDbEntity
  8
0
 62
5
100
AcDbLine
 10
97.928759
 20
346.019400
 30
0.0
 11
111.779520
 21
346.019400
 31
0.0
  0
LINE
  5
21f
100
AcDbEntity
  8
0
 62
5
100
AcDbLine
 10
111.779520
 20
346.019400
 30
0.0
 11
111.779520
 21
332.168640
 31
0.0
  0
LINE
  5
220
100
AcDbEntity
  8
0
 62
5
100
AcDbLine
 10
130.829020
 20
332.168640
 30
0.0
 11
116.978260
 21
332.168640
 31
0.0
  0
LINE
  5
221
100
AcDbEntity
  8
0
 62
5
100
AcDbLine
 10
116.978260
 20
332.168640
 30
0.0
 11
116.978260
 21
346.019400
 31
0.0
  0
LINE
  5
222
100
AcDbEntity
  8
0
 62
5
100
AcDbLine
 10
116.978260
 20
346.019400
 30
0.0
 11
130.829020
 21
346.019400
 31
0.0
  0
LINE
  5
223
100
AcDbEntity
  8
0
 62
5
100
AcDbLine
 10
130.829020
 20
346.019400
 30
0.0
 11
130.829020
 21
332.168640
 31
0.0
  0
LINE
  5
224
100
AcDbEntity
  8
0
 62
5
100
AcDbLine
 10
149.878520
 20
332.168640
 30
0.0
 11
136.027760
 21
332.168640
 31
0.0
  0
LINE
  5
225
100
AcDbEntity
  8
0
 62
5
100
AcDbLine
 10
136.027760
 20
332.168640
 30
0.0
 11
136.027760
 21
346.019400
 31
0.0
  0
LINE
  5
226
100
AcDbEntity
  8
0
 62
5
100
AcDbLine
 10
136.027760
 20
346.019400
 30
0.0
 11
149.878520
 21
346.019400
 31
0.0
  0
LINE
  5
227
100
AcDbEntity
  8
0
 62
5
100
AcDbLine
 10
149.878520
 20
346.019400
 30
0.0
 11
149.878520
 21
332.168640
 31
0.0
  0
LINE
  5
228
100
AcDbEntity
  8
0
 62
5
100
AcDbLine
 10
168.928520
 20
332.168640
 30
0.0
 11
155.077760
 21
332.168640
 31
0.0
  0
LINE
  5
229
100
AcDbEntity
  8
0
 62
5
100
AcDbLine
 10
155.077760
 20
332.168640
 30
0.0
 11
155.077760
 21
346.019400
 31
0.0
  0
LINE
  5
22a
100
AcDbEntity
  8
0
 62
5
100
AcDbLine
 10
155.077760
 20
346.019400
 30
0.0
 11
168.928520
 21
346.019400
 31
0.0
  0
LINE
  5
22b
100
AcDbEntity
  8
0
 62
5
100
AcDbLine
 10
168.928520
 20
346.019400
 30
0.0
 11
168.928520
 21
332.168640
 31
0.0
  0
SPLINE
  5
22c
100
AcDbEntity
  8
0
 62
5
100
AcDbSpline
 70
8
 71
3
 72
8
 73
4
 74
0
 40
0
 40
0
 40
0
 40
0
 40
1
 40
1
 40
1
 40
1
 10
84.791411
 20
445.330120
 30
0.0
 10
84.791411
 20
444.722630
 30
0.0
 10
85.283891
 20
444.230510
 30
0.0
 10
85.891371
 20
444.230510
 30
0.0
  0
SPLINE
  5
22d
100
AcDbEntity
  8
0
 62
5
100
AcDbSpline
 70
8
 71
3
 72
8
 73
4
 74
0
 40
0
 40
0
 40
0
 40
0
 40
1
 40
1
 40
1
 40
1
 10
85.891371
 20
444.230510
 30
0.0
 10
86.498861
 20
444.230510
 30
0.0
 10
86.991341
 20
444.722630
 30
0.0
 10
86.991341
 20
445.330470
 30
0.0
  0
SPLINE
  5
22e
100
AcDbEntity
  8
0
 62
5
100
AcDbSpline
 70
8
 71
3
 72
8
 73
4
 74
0
 40
0
 40
0
 40
0
 40
0
 40
1
 40
1
 40
1
 40
1
 10
86.991341
 20
445.330470
 30
0.0
 10
86.991341
 20
445.937950
 30
0.0
 10
86.498861
 20
446.430080
 30
0.0
 10
85.891371
 20
446.430080
 30
0.0
  0
SPLINE
  5
22f
100
AcDbEntity
  8
0
 62
5
100
AcDbSpline
 70
8
 71
3
 72
8
 73
4
 74
0
 40
0
 40
0
 40
0
 40
0
 40
1
 40
1
 40
1
 40
1
 10
85.891371
 20
446.430080
 30
0.0
 10
85.283891
 20
446.430080
 30
0.0
 10
84.791411
 20
445.937950
 30
0.0
 10
84.791411
 20
445.330470
 30
0.0
  0
SPLINE
  5
230
100
AcDbEntity
  8
0
 62
5
100
AcDbSpline
 70
8
 71
3
 72
8
 73
4
 74
0
 40
0
 40
0
 40
0
 40
0
 40
1
 40
1
 40
1
 40
1
 10
13.691839
 20
445.329640
 30
0.0
 10
13.691839
 20
444.722150
 30
0.0
 10
14.184319
 20
444.230030
 30
0.0
 10
14.791799
 20
444.230030
 30
0.0
  0
SPLINE
  5
231
100
AcDbEntity
  8
0
 62
5
100
AcDbSpline
 70
8
 71
3
 72
8
 73
4
 74
0
 40
0
 40
0
 40
0
 40
0
 40
1
 40
1
 40
1
 40
1
 10
14.791799
 20
444.230030
 30
0.0
 10
15.399289
 20
444.230030
 30
0.0
 10
15.891769
 20
444.722150
 30
0.0
 10
15.891769
 20
445.329990
 30
0.0
  0
SPLINE
  5
232
100
AcDbEntity
  8
0
 62
5
100
AcDbSpline
 70
8
 71
3
 72
8
 73
4
 74
0
 40
0
 40
0
 40
0
 40
0
 40
1
 40
1
 40
1
 40
1
 10
15.891769
 20
445.329990
 30
0.0
 10
15.891769
 20
445.937470
 30
0.0
 10
15.399289
 20
446.429600
 30
0.0
 10
14.791799
 20
446.429600
 30
0.0
  0
SPLINE
  5
233
100
AcDbEntity
  8
0
 62
5
100
AcDbSpline
 70
8
 71
3
 72
8
 73
4
 74
0
 40
0
 40
0
 40
0
 40
0
 40
1
 40
1
 40
1
 40
1
 10
14.791799
 20
446.429600
 30
0.0
 10
14.184319
 20
446.429600
 30
0.0
 10
13.691839
 20
445.937470
 30
0.0
 10
13.691839
 20
445.329990
 30
0.0
  0
SPLINE
  5
234
100
AcDbEntity
  8
0
 62
5
100
AcDbSpline
 70
8
 71
3
 72
8
 73
4
 74
0
 40
0
 40
0
 40
0
 40
0
 40
1
 40
1
 40
1
 40
1
 10
155.864740
 20
445.329640
 30
0.0
 10
155.864740
 20
444.722150
 30
0.0
 10
156.357220
 20
444.230030
 30
0.0
 10
156.964700
 20
444.230030
 30
0.0
  0
SPLINE
  5
235
100
AcDbEntity
  8
0
 62
5
100
AcDbSpline
 70
8
 71
3
 72
8
 73
4
 74
0
 40
0
 40
0
 40
0
 40
0
 40
1
 40
1
 40
1
 40
1
 10
156.964700
 20
444.230030
 30
0.0
 10
157.572190
 20
444.230030
 30
0.0
 10
158.064670
 20
444.722150
 30
0.0
 10
158.064670
 20
445.329990
 30
0.0
  0
SPLINE
  5
236
100
AcDbEntity
  8
0
 62
5
100
AcDbSpline
 70
8
 71
3
 72
8
 73
4
 74
0
 40
0
 40
0
 40
0
 40
0
 40
1
 40
1
 40
1
 40
1
 10
158.064670
 20
445.329990
 30
0.0
 10
158.064670
 20
445.937470
 30
0.0
 10
157.572190
 20
446.429600
 30
0.0
 10
156.964700
 20
446.429600
 30
0.0
  0
SPLINE
  5
237
100
AcDbEntity
  8
0
 62
5
100
AcDbSpline
 70
8
 71
3
 72
8
 73
4
 74
0
 40
0
 40
0
 40
0
 40
0
 40
1
 40
1
 40
1
 40
1
 10
156.964700
 20
446.429600
 30
0.0
 10
156.357220
 20
446.429600
 30
0.0
 10
155.864740
 20
445.937470
 30
0.0
 10
155.864740
 20
445.329990
 30
0.0
  0
SPLINE
  5
238
100
AcDbEntity
  8
0
 62
5
100
AcDbSpline
 70
8
 71
3
 72
8
 73
4
 74
0
 40
0
 40
0
 40
0
 40
0
 40
1
 40
1
 40
1
 40
1
 10
18.249099
 20
348.413640
 30
0.0
 10
18.249099
 20
347.806150
 30
0.0
 10
18.741579
 20
347.314030
 30
0.0
 10
19.349059
 20
347.314030
 30
0.0
  0
SPLINE
  5
239
100
AcDbEntity
  8
0
 62
5
100
AcDbSpline
 70
8
 71
3
 72
8
 73
4
 74
0
 40
0
 40
0
 40
0
 40
0
 40
1
 40
1
 40
1
 40
1
 10
19.349059
 20
347.314030
 30
0.0
 10
19.956549
 20
347.314030
 30
0.0
 10
20.449029
 20
347.806150
 30
0.0
 10
20.449029
 20
348.413990
 30
0.0
  0
SPLINE
  5
23a
100
AcDbEntity
  8
0
 62
5
100
AcDbSpline
 70
8
 71
3
 72
8
 73
4
 74
0
 40
0
 40
0
 40
0
 40
0
 40
1
 40
1
 40
1
 40
1
 10
20.449029
 20
348.413990
 30
0.0
 10
20.449029
 20
349.021470
 30
0.0
 10
19.956549
 20
349.513600
 30
0.0
 10
19.349059
 20
349.513600
 30
0.0
  0
SPLINE
  5
23b
100
AcDbEntity
  8
0
 62
5
100
AcDbSpline
 70
8
 71
3
 72
8
 73
4
 74
0
 40
0
 40
0
 40
0
 40
0
 40
1
 40
1
 40
1
 40
1
 10
19.349059
 20
349.513600
 30
0.0
 10
18.741579
 20
349.513600
 30
0.0
 10
18.249099
 20
349.021470
 30
0.0
 10
18.249099
 20
348.413990
 30
0.0
  0
SPLINE
  5
23c
100
AcDbEntity
  8
0
 62
5
100
AcDbSpline
 70
8
 71
3
 72
8
 73
4
 74
0
 40
0
 40
0
 40
0
 40
0
 40
1
 40
1
 40
1
 40
1
 10
18.049538
 20
405.535637
 30
0.0
 10
18.049538
 20
404.928147
 30
0.0
 10
18.542018
 20
404.436027
 30
0.0
 10
19.149498
 20
404.436027
 30
0.0
  0
SPLINE
  5
23d
100
AcDbEntity
  8
0
 62
5
100
AcDbSpline
 70
8
 71
3
 72
8
 73
4
 74
0
 40
0
 40
0
 40
0
 40
0
 40
1
 40
1
 40
1
 40
1
 10
19.149498
 20
404.436027
 30
0.0
 10
19.756988
 20
404.436027
 30
0.0
 10
20.249468
 20
404.928147
 30
0.0
 10
20.249468
 20
405.535987
 30
0.0
  0
SPLINE
  5
23e
100
AcDbEntity
  8
0
 62
5
100
AcDbSpline
 70
8
 71
3
 72
8
 73
4
 74
0
 40
0
 40
0
 40
0
 40
0
 40
1
 40
1
 40
1
 40
1
 10
20.249468
 20
405.535987
 30
0.0
 10
20.249468
 20
406.143467
 30
0.0
 10
19.756988
 20
406.635597
 30
0.0
 10
19.149498
 20
406.635597
 30
0.0
  0
SPLINE
  5
23f
100
AcDbEntity
  8
0
 62
5
100
AcDbSpline
 70
8
 71
3
 72
8
 73
4
 74
0
 40
0
 40
0
 40
0
 40
0
 40
1
 40
1
 40
1
 40
1
 10
19.149498
 20
406.635597
 30
0.0
 10
18.542018
 20
406.635597
 30
0.0
 10
18.049538
 20
406.143467
 30
0.0
 10
18.049538
 20
405.535987
 30
0.0
  0
SPLINE
  5
240
100
AcDbEntity
  8
0
 62
5
100
AcDbSpline
 70
8
 71
3
 72
8
 73
4
 74
0
 40
0
 40
0
 40
0
 40
0
 40
1
 40
1
 40
1
 40
1
 10
113.098980
 20
424.558640
 30
0.0
 10
113.098980
 20
423.951150
 30
0.0
 10
113.591460
 20
423.459030
 30
0.0
 10
114.198940
 20
423.459030
 30
0.0
  0
SPLINE
  5
241
100
AcDbEntity
  8
0
 62
5
100
AcDbSpline
 70
8
 71
3
 72
8
 73
4
 74
0
 40
0
 40
0
 40
0
 40
0
 40
1
 40
1
 40
1
 40
1
 10
114.198940
 20
423.459030
 30
0.0
 10
114.806430
 20
423.459030
 30
0.0
 10
115.298910
 20
423.951150
 30
0.0
 10
115.298910
 20
424.558990
 30
0.0
  0
SPLINE
  5
242
100
AcDbEntity
  8
0
 62
5
100
AcDbSpline
 70
8
 71
3
 72
8
 73
4
 74
0
 40
0
 40
0
 40
0
 40
0
 40
1
 40
1
 40
1
 40
1
 10
115.298910
 20
424.558990
 30
0.0
 10
115.298910
 20
425.166470
 30
0.0
 10
114.806430
 20
425.658600
 30
0.0
 10
114.198940
 20
425.658600
 30
0.0
  0
SPLINE
  5
243
100
AcDbEntity
  8
0
 62
5
100
AcDbSpline
 70
8
 71
3
 72
8
 73
4
 74
0
 40
0
 40
0
 40
0
 40
0
 40
1
 40
1
 40
1
 40
1
 10
114.198940
 20
425.658600
 30
0.0
 10
113.591460
 20
425.658600
 30
0.0
 10
113.098980
 20
425.166470
 30
0.0
 10
113.098980
 20
424.558990
 30
0.0
  0
SPLINE
  5
244
100
AcDbEntity
  8
0
 62
5
100
AcDbSpline
 70
8
 71
3
 72
8
 73
4
 74
0
 40
0
 40
0
 40
0
 40
0
 40
1
 40
1
 40
1
 40
1
 10
55.949977
 20
424.558630
 30
0.0
 10
55.949977
 20
423.951140
 30
0.0
 10
56.442457
 20
423.459020
 30
0.0
 10
57.049937
 20
423.459020
 30
0.0
  0
SPLINE
  5
245
100
AcDbEntity
  8
0
 62
5
100
AcDbSpline
 70
8
 71
3
 72
8
 73
4
 74
0
 40
0
 40
0
 40
0
 40
0
 40
1
 40
1
 40
1
 40
1
 10
57.049937
 20
423.459020
 30
0.0
 10
57.657427
 20
423.459020
 30
0.0
 10
58.149907
 20
423.951140
 30
0.0
 10
58.149907
 20
424.558980
 30
0.0
  0
SPLINE
  5
246
100
AcDbEntity
  8
0
 62
5
100
AcDbSpline
 70
8
 71
3
 72
8
 73
4
 74
0
 40
0
 40
0
 40
0
 40
0
 40
1
 40
1
 40
1
 40
1
 10
58.149907
 20
424.558980
 30
0.0
 10
58.149907
 20
425.166460
 30
0.0
 10
57.657427
 20
425.658590
 30
0.0
 10
57.049937
 20
425.658590
 30
0.0
  0
SPLINE
  5
247
100
AcDbEntity
  8
0
 62
5
100
AcDbSpline
 70
8
 71
3
 72
8
 73
4
 74
0
 40
0
 40
0
 40
0
 40
0
 40
1
 40
1
 40
1
 40
1
 10
57.049937
 20
425.658590
 30
0.0
 10
56.442457
 20
425.658590
 30
0.0
 10
55.949977
 20
425.166460
 30
0.0
 10
55.949977
 20
424.558980
 30
0.0
  0
SPLINE
  5
248
100
AcDbEntity
  8
0
 62
5
100
AcDbSpline
 70
8
 71
3
 72
8
 73
4
 74
0
 40
0
 40
0
 40
0
 40
0
 40
1
 40
1
 40
1
 40
1
 10
56.149538
 20
348.386630
 30
0.0
 10
56.149538
 20
347.779140
 30
0.0
 10
56.642018
 20
347.287020
 30
0.0
 10
57.249498
 20
347.287020
 30
0.0
  0
SPLINE
  5
249
100
AcDbEntity
  8
0
 62
5
100
AcDbSpline
 70
8
 71
3
 72
8
 73
4
 74
0
 40
0
 40
0
 40
0
 40
0
 40
1
 40
1
 40
1
 40
1
 10
57.249498
 20
347.287020
 30
0.0
 10
57.856988
 20
347.287020
 30
0.0
 10
58.349468
 20
347.779140
 30
0.0
 10
58.349468
 20
348.386980
 30
0.0
  0
SPLINE
  5
24a
100
AcDbEntity
  8
0
 62
5
100
AcDbSpline
 70
8
 71
3
 72
8
 73
4
 74
0
 40
0
 40
0
 40
0
 40
0
 40
1
 40
1
 40
1
 40
1
 10
58.349468
 20
348.386980
 30
0.0
 10
58.349468
 20
348.994460
 30
0.0
 10
57.856988
 20
349.486590
 30
0.0
 10
57.249498
 20
349.486590
 30
0.0
  0
SPLINE
  5
24b
100
AcDbEntity
  8
0
 62
5
100
AcDbSpline
 70
8
 71
3
 72
8
 73
4
 74
0
 40
0
 40
0
 40
0
 40
0
 40
1
 40
1
 40
1
 40
1
 10
57.249498
 20
349.486590
 30
0.0
 10
56.642018
 20
349.486590
 30
0.0
 10
56.149538
 20
348.994460
 30
0.0
 10
56.149538
 20
348.386980
 30
0.0
  0
SPLINE
  5
24c
100
AcDbEntity
  8
0
 62
5
100
AcDbSpline
 70
8
 71
3
 72
8
 73
4
 74
0
 40
0
 40
0
 40
0
 40
0
 40
1
 40
1
 40
1
 40
1
 10
56.149541
 20
386.485642
 30
0.0
 10
56.149541
 20
385.878152
 30
0.0
 10
56.642021
 20
385.386032
 30
0.0
 10
57.249501
 20
385.386032
 30
0.0
  0
SPLINE
  5
24d
100
AcDbEntity
  8
0
 62
5
100
AcDbSpline
 70
8
 71
3
 72
8
 73
4
 74
0
 40
0
 40
0
 40
0
 40
0
 40
1
 40
1
 40
1
 40
1
 10
57.249501
 20
385.386032
 30
0.0
 10
57.856991
 20
385.386032
 30
0.0
 10
58.349471
 20
385.878152
 30
0.0
 10
58.349471
 20
386.485992
 30
0.0
  0
SPLINE
  5
24e
100
AcDbEntity
  8
0
 62
5
100
AcDbSpline
 70
8
 71
3
 72
8
 73
4
 74
0
 40
0
 40
0
 40
0
 40
0
 40
1
 40
1
 40
1
 40
1
 10
58.349471
 20
386.485992
 30
0.0
 10
58.349471
 20
387.093472
 30
0.0
 10
57.856991
 20
387.585602
 30
0.0
 10
57.249501
 20
387.585602
 30
0.0
  0
SPLINE
  5
24f
100
AcDbEntity
  8
0
 62
5
100
AcDbSpline
 70
8
 71
3
 72
8
 73
4
 74
0
 40
0
 40
0
 40
0
 40
0
 40
1
 40
1
 40
1
 40
1
 10
57.249501
 20
387.585602
 30
0.0
 10
56.642021
 20
387.585602
 30
0.0
 10
56.149541
 20
387.093472
 30
0.0
 10
56.149541
 20
386.485992
 30
0.0
  0
SPLINE
  5
250
100
AcDbEntity
  8
0
 62
5
100
AcDbSpline
 70
8
 71
3
 72
8
 73
4
 74
0
 40
0
 40
0
 40
0
 40
0
 40
1
 40
1
 40
1
 40
1
 10
113.298540
 20
348.386640
 30
0.0
 10
113.298540
 20
347.779150
 30
0.0
 10
113.791020
 20
347.287030
 30
0.0
 10
114.398500
 20
347.287030
 30
0.0
  0
SPLINE
  5
251
100
AcDbEntity
  8
0
 62
5
100
AcDbSpline
 70
8
 71
3
 72
8
 73
4
 74
0
 40
0
 40
0
 40
0
 40
0
 40
1
 40
1
 40
1
 40
1
 10
114.398500
 20
347.287030
 30
0.0
 10
115.005990
 20
347.287030
 30
0.0
 10
115.498470
 20
347.779150
 30
0.0
 10
115.498470
 20
348.386990
 30
0.0
  0
SPLINE
  5
252
100
AcDbEntity
  8
0
 62
5
100
AcDbSpline
 70
8
 71
3
 72
8
 73
4
 74
0
 40
0
 40
0
 40
0
 40
0
 40
1
 40
1
 40
1
 40
1
 10
115.498470
 20
348.386990
 30
0.0
 10
115.498470
 20
348.994470
 30
0.0
 10
115.005990
 20
349.486600
 30
0.0
 10
114.398500
 20
349.486600
 30
0.0
  0
SPLINE
  5
253
100
AcDbEntity
  8
0
 62
5
100
AcDbSpline
 70
8
 71
3
 72
8
 73
4
 74
0
 40
0
 40
0
 40
0
 40
0
 40
1
 40
1
 40
1
 40
1
 10
114.398500
 20
349.486600
 30
0.0
 10
113.791020
 20
349.486600
 30
0.0
 10
113.298540
 20
348.994470
 30
0.0
 10
113.298540
 20
348.386990
 30
0.0
  0
SPLINE
  5
254
100
AcDbEntity
  8
0
 62
5
100
AcDbSpline
 70
8
 71
3
 72
8
 73
4
 74
0
 40
0
 40
0
 40
0
 40
0
 40
1
 40
1
 40
1
 40
1
 10
151.344620
 20
405.535641
 30
0.0
 10
151.344620
 20
404.928151
 30
0.0
 10
151.837100
 20
404.436031
 30
0.0
 10
152.444580
 20
404.436031
 30
0.0
  0
SPLINE
  5
255
100
AcDbEntity
  8
0
 62
5
100
AcDbSpline
 70
8
 71
3
 72
8
 73
4
 74
0
 40
0
 40
0
 40
0
 40
0
 40
1
 40
1
 40
1
 40
1
 10
152.444580
 20
404.436031
 30
0.0
 10
153.052070
 20
404.436031
 30
0.0
 10
153.544550
 20
404.928151
 30
0.0
 10
153.544550
 20
405.535991
 30
0.0
  0
SPLINE
  5
256
100
AcDbEntity
  8
0
 62
5
100
AcDbSpline
 70
8
 71
3
 72
8
 73
4
 74
0
 40
0
 40
0
 40
0
 40
0
 40
1
 40
1
 40
1
 40
1
 10
153.544550
 20
405.535991
 30
0.0
 10
153.544550
 20
406.143471
 30
0.0
 10
153.052070
 20
406.635601
 30
0.0
 10
152.444580
 20
406.635601
 30
0.0
  0
SPLINE
  5
257
100
AcDbEntity
  8
0
 62
5
100
AcDbSpline
 70
8
 71
3
 72
8
 73
4
 74
0
 40
0
 40
0
 40
0
 40
0
 40
1
 40
1
 40
1
 40
1
 10
152.444580
 20
406.635601
 30
0.0
 10
151.837100
 20
406.635601
 30
0.0
 10
151.344620
 20
406.143471
 30
0.0
 10
151.344620
 20
405.535991
 30
0.0
  0
SPLINE
  5
258
100
AcDbEntity
  8
0
 62
5
100
AcDbSpline
 70
8
 71
3
 72
8
 73
4
 74
0
 40
0
 40
0
 40
0
 40
0
 40
1
 40
1
 40
1
 40
1
 10
151.544180
 20
348.413640
 30
0.0
 10
151.544180
 20
347.806150
 30
0.0
 10
152.036660
 20
347.314030
 30
0.0
 10
152.644140
 20
347.314030
 30
0.0
  0
SPLINE
  5
259
100
AcDbEntity
  8
0
 62
5
100
AcDbSpline
 70
8
 71
3
 72
8
 73
4
 74
0
 40
0
 40
0
 40
0
 40
0
 40
1
 40
1
 40
1
 40
1
 10
152.644140
 20
347.314030
 30
0.0
 10
153.251630
 20
347.314030
 30
0.0
 10
153.744110
 20
347.806150
 30
0.0
 10
153.744110
 20
348.413990
 30
0.0
  0
SPLINE
  5
25a
100
AcDbEntity
  8
0
 62
5
100
AcDbSpline
 70
8
 71
3
 72
8
 73
4
 74
0
 40
0
 40
0
 40
0
 40
0
 40
1
 40
1
 40
1
 40
1
 10
153.744110
 20
348.413990
 30
0.0
 10
153.744110
 20
349.021470
 30
0.0
 10
153.251630
 20
349.513600
 30
0.0
 10
152.644140
 20
349.513600
 30
0.0
  0
SPLINE
  5
25b
100
AcDbEntity
  8
0
 62
5
100
AcDbSpline
 70
8
 71
3
 72
8
 73
4
 74
0
 40
0
 40
0
 40
0
 40
0
 40
1
 40
1
 40
1
 40
1
 10
152.644140
 20
349.513600
 30
0.0
 10
152.036660
 20
349.513600
 30
0.0
 10
151.544180
 20
349.021470
 30
0.0
 10
151.544180
 20
348.413990
 30
0.0
  0
SPLINE
  5
25c
100
AcDbEntity
  8
0
 62
5
100
AcDbSpline
 70
8
 71
3
 72
8
 73
4
 74
0
 40
0
 40
0
 40
0
 40
0
 40
1
 40
1
 40
1
 40
1
 10
113.298540
 20
386.485641
 30
0.0
 10
113.298540
 20
385.878151
 30
0.0
 10
113.791020
 20
385.386031
 30
0.0
 10
114.398500
 20
385.386031
 30
0.0
  0
SPLINE
  5
25d
100
AcDbEntity
  8
0
 62
5
100
AcDbSpline
 70
8
 71
3
 72
8
 73
4
 74
0
 40
0
 40
0
 40
0
 40
0
 40
1
 40
1
 40
1
 40
1
 10
114.398500
 20
385.386031
 30
0.0
 10
115.005990
 20
385.386031
 30
0.0
 10
115.498470
 20
385.878151
 30
0.0
 10
115.498470
 20
386.485991
 30
0.0
  0
SPLINE
  5
25e
100
AcDbEntity
  8
0
 62
5
100
AcDbSpline
 70
8
 71
3
 72
8
 73
4
 74
0
 40
0
 40
0
 40
0
 40
0
 40
1
 40
1
 40
1
 40
1
 10
115.498470
 20
386.485991
 30
0.0
 10
115.498470
 20
387.093471
 30
0.0
 10
115.005990
 20
387.585601
 30
0.0
 10
114.398500
 20
387.585601
 30
0.0
  0
SPLINE
  5
25f
100
AcDbEntity
  8
0
 62
5
100
AcDbSpline
 70
8
 71
3
 72
8
 73
4
 74
0
 40
0
 40
0
 40
0
 40
0
 40
1
 40
1
 40
1
 40
1
 10
114.398500
 20
387.585601
 30
0.0
 10
113.791020
 20
387.585601
 30
0.0
 10
113.298540
 20
387.093471
 30
0.0
 10
113.298540
 20
386.485991
 30
0.0
  0
ENDSEC
  0
SECTION
  2
OBJECTS
  0
DICTIONARY
  5
C
330
0
100
AcDbDictionary
  3
ACAD_GROUP
350
D
  3
ACAD_MLINESTYLE
350
17
  0
DICTIONARY
  5
D
330
C
100
AcDbDictionary
  0
DICTIONARY
  5
1A
330
C
100
AcDbDictionary
  0
DICTIONARY
  5
17
330
C
100
AcDbDictionary
  3
STANDARD
350
18
  0
DICTIONARY
  5
19
330
C
100
AcDbDictionary
  0
ENDSEC
  0
EOF
