  0
SECTION
  2
HEADER
  9
$ACADVER
  1
AC1014
  9
$HANDSEED
  5
FFFF
  9
$MEASUREMENT
 70
     1
  0
ENDSEC
  0
SECTION
  2
TABLES
  0
TABLE
  2
VPORT
  5
8
330
0
100
AcDbSymbolTable
 70
     4
  0
VPORT
  5
2E
330
8
100
AcDbSymbolTableRecord
100
AcDbViewportTableRecord
  2
*ACTIVE
 70
     0
 10
0.0
 20
0.0
 11
1.0
 21
1.0
 12
210.0
 22
148.5
 13
0.0
 23
0.0
 14
10.0
 24
10.0
 15
10.0
 25
10.0
 16
0.0
 26
0.0
 36
1.0
 17
0.0
 27
0.0
 37
0.0
 40
341.0
 41
1.24
 42
50.0
 43
0.0
 44
0.0
 50
0.0
 51
0.0
 71
     0
 72
   100
 73
     1
 74
     3
 75
     0
 76
     0
 77
     0
 78
     0
  0
ENDTAB
  0
TABLE
  2
LTYPE
  5
5
330
0
100
AcDbSymbolTable
 70
     1
  0
LTYPE
  5
14
330
5
100
AcDbSymbolTableRecord
100
AcDbLinetypeTableRecord
  2
BYBLOCK
 70
     0
  3

 72
    65
 73
     0
 40
0.0
  0
LTYPE
  5
15
330
5
100
AcDbSymbolTableRecord
100
AcDbLinetypeTableRecord
  2
BYLAYER
 70
     0
  3

 72
    65
 73
     0
 40
0.0
  0
LTYPE
  5
16
330
5
100
AcDbSymbolTableRecord
100
AcDbLinetypeTableRecord
  2
CONTINUOUS
 70
     0
  3
Solid line
 72
    65
 73
     0
 40
0.0
  0
ENDTAB
  0
TABLE
  2
LAYER
  5
2
100
AcDbSymbolTable
 70
1
  0
LAYER
  5
50
100
AcDbSymbolTableRecord
100
AcDbLayerTableRecord
  2
0
 70
0
  6
CONTINUOUS
  0
ENDTAB
  0
TABLE
  2
STYLE
  5
3
330
0
100
AcDbSymbolTable
 70
     1
  0
STYLE
  5
11
330
3
100
AcDbSymbolTableRecord
100
AcDbTextStyleTableRecord
  2
STANDARD
 70
     0
 40
0.0
 41
1.0
 50
0.0
 71
     0
 42
2.5
  3
txt
  4

  0
ENDTAB
  0
TABLE
  2
VIEW
  5
6
330
0
100
AcDbSymbolTable
 70
     0
  0
ENDTAB
  0
TABLE
  2
UCS
  5
7
330
0
100
AcDbSymbolTable
 70
     0
  0
ENDTAB
  0
TABLE
  2
APPID
  5
9
330
0
100
AcDbSymbolTable
 70
     2
  0
APPID
  5
12
330
9
100
AcDbSymbolTableRecord
100
AcDbRegAppTableRecord
  2
ACAD
 70
     0
  0
ENDTAB
  0
TABLE
  2
DIMSTYLE
  5
A
330
0
100
AcDbSymbolTable
 70
     1
  0
DIMSTYLE
105
27
330
A
100
AcDbSymbolTableRecord
100
AcDbDimStyleTableRecord
  2
ISO-25
 70
     0
  3

  4

  5

  6

  7

 40
1.0
 41
2.5
 42
0.625
 43
3.75
 44
1.25
 45
0.0
 46
0.0
 47
0.0
 48
0.0
140
2.5
141
2.5
142
0.0
143
0.03937007874016
144
1.0
145
0.0
146
1.0
147
0.625
 71
     0
 72
     0
 73
     0
 74
     0
 75
     0
 76
     0
 77
     1
 78
     8
170
     0
171
     3
172
     1
173
     0
174
     0
175
     0
176
     0
177
     0
178
     0
270
     2
271
     2
272
     2
273
     2
274
     3
340
11
275
     0
280
     0
281
     0
282
     0
283
     0
284
     8
285
     0
286
     0
287
     3
288
     0
  0
ENDTAB
  0
TABLE
  2
BLOCK_RECORD
  5
1
330
0
100
AcDbSymbolTable
 70
     1
  0
BLOCK_RECORD
  5
1F
330
1
100
AcDbSymbolTableRecord
100
AcDbBlockTableRecord
  2
*MODEL_SPACE
  0
BLOCK_RECORD
  5
1B
330
1
100
AcDbSymbolTableRecord
100
AcDbBlockTableRecord
  2
*PAPER_SPACE
  0
ENDTAB
  0
ENDSEC
  0
SECTION
  2
BLOCKS
  0
BLOCK
  5
20
330
1F
100
AcDbEntity
  8
0
100
AcDbBlockBegin
  2
*MODEL_SPACE
 70
     0
 10
0.0
 20
0.0
 30
0.0
  3
*MODEL_SPACE
  1

  0
ENDBLK
  5
21
330
1F
100
AcDbEntity
  8
0
100
AcDbBlockEnd
  0
BLOCK
  5
1C
330
1B
100
AcDbEntity
 67
     1
  8
0
100
AcDbBlockBegin
  2
*PAPER_SPACE
  1

  0
ENDBLK
  5
1D
330
1B
100
AcDbEntity
 67
     1
  8
0
100
AcDbBlockEnd
  0
ENDSEC
  0
SECTION
  2
ENTITIES
  0
LINE
  5
100
100
AcDbEntity
  8
0
 62
5
100
AcDbLine
 10
60.734159
 20
199.853194
 30
0.0
 11
60.784514
 21
185.000000
 31
0.0
  0
LINE
  5
101
100
AcDbEntity
  8
0
 62
5
100
AcDbLine
 10
60.784514
 20
185.000000
 30
0.0
 11
39.295342
 21
185.000000
 31
0.0
  0
LINE
  5
102
100
AcDbEntity
  8
0
 62
5
100
AcDbLine
 10
39.295342
 20
185.000000
 30
0.0
 11
39.295342
 21
164.066237
 31
0.0
  0
LINE
  5
103
100
AcDbEntity
  8
0
 62
5
100
AcDbLine
 10
39.295342
 20
164.066237
 30
0.0
 11
18.451175
 21
164.066237
 31
0.0
  0
LINE
  5
104
100
AcDbEntity
  8
0
 62
5
100
AcDbLine
 10
18.451175
 20
164.066237
 30
0.0
 11
18.451524
 21
175.791485
 31
0.0
  0
LINE
  5
105
100
AcDbEntity
  8
0
 62
5
100
AcDbLine
 10
18.451524
 20
175.791485
 30
0.0
 11
18.452120
 21
199.853552
 31
0.0
  0
LINE
  5
106
100
AcDbEntity
  8
0
 62
5
100
AcDbLine
 10
18.452120
 20
199.853552
 30
0.0
 11
3.135811
 21
199.853682
 31
0.0
  0
LINE
  5
107
100
AcDbEntity
  8
0
 62
5
100
AcDbLine
 10
3.135811
 20
199.853682
 30
0.0
 11
2.901846
 21
199.843763
 31
0.0
  0
LINE
  5
108
100
AcDbEntity
  8
0
 62
5
100
AcDbLine
 10
2.901846
 20
199.843763
 30
0.0
 11
2.669371
 21
199.818256
 31
0.0
  0
LINE
  5
109
100
AcDbEntity
  8
0
 62
5
100
AcDbLine
 10
2.669371
 20
199.818256
 30
0.0
 11
2.439877
 21
199.774328
 31
0.0
  0
LINE
  5
10a
100
AcDbEntity
  8
0
 62
5
100
AcDbLine
 10
2.439877
 20
199.774328
 30
0.0
 11
2.213363
 21
199.714812
 31
0.0
  0
LINE
  5
10b
100
AcDbEntity
  8
0
 62
5
100
AcDbLine
 10
2.213363
 20
199.714812
 30
0.0
 11
1.994300
 21
199.636876
 31
0.0
  0
LINE
  5
10c
100
AcDbEntity
  8
0
 62
5
100
AcDbLine
 10
1.994300
 20
199.636876
 30
0.0
 11
1.782689
 21
199.544768
 31
0.0
  0
LINE
  5
10d
100
AcDbEntity
  8
0
 62
5
100
AcDbLine
 10
1.782689
 20
199.544768
 30
0.0
 11
1.578528
 21
199.435657
 31
0.0
  0
LINE
  5
10e
100
AcDbEntity
  8
0
 62
5
100
AcDbLine
 10
1.578528
 20
199.435657
 30
0.0
 11
1.383309
 21
199.312375
 31
0.0
  0
LINE
  5
10f
100
AcDbEntity
  8
0
 62
5
100
AcDbLine
 10
1.383309
 20
199.312375
 30
0.0
 11
1.200012
 21
199.173505
 31
0.0
  0
LINE
  5
110
100
AcDbEntity
  8
0
 62
5
100
AcDbLine
 10
1.200012
 20
199.173505
 30
0.0
 11
1.027146
 21
199.023299
 31
0.0
  0
LINE
  5
111
100
AcDbEntity
  8
0
 62
5
100
AcDbLine
 10
1.027146
 20
199.023299
 30
0.0
 11
0.869182
 21
198.858923
 31
0.0
  0
LINE
  5
112
100
AcDbEntity
  8
0
 62
5
100
AcDbLine
 10
0.869182
 20
198.858923
 30
0.0
 11
0.723140
 21
198.684628
 31
0.0
  0
LINE
  5
113
100
AcDbEntity
  8
0
 62
5
100
AcDbLine
 10
0.723140
 20
198.684628
 30
0.0
 11
0.593491
 21
198.498996
 31
0.0
  0
LINE
  5
114
100
AcDbEntity
  8
0
 62
5
100
AcDbLine
 10
0.593491
 20
198.498996
 30
0.0
 11
0.478744
 21
198.304863
 31
0.0
  0
LINE
  5
115
100
AcDbEntity
  8
0
 62
5
100
AcDbLine
 10
0.478744
 20
198.304863
 30
0.0
 11
0.381879
 21
198.103644
 31
0.0
  0
LINE
  5
116
100
AcDbEntity
  8
0
 62
5
100
AcDbLine
 10
0.381879
 20
198.103644
 30
0.0
 11
0.299917
 21
197.895339
 31
0.0
  0
LINE
  5
117
100
AcDbEntity
  8
0
 62
5
100
AcDbLine
 10
0.299917
 20
197.895339
 30
0.0
 11
0.237328
 21
197.679950
 31
0.0
  0
LINE
  5
118
100
AcDbEntity
  8
0
 62
5
100
AcDbLine
 10
0.237328
 20
197.679950
 30
0.0
 11
0.191131
 21
197.461727
 31
0.0
  0
LINE
  5
119
100
AcDbEntity
  8
0
 62
5
100
AcDbLine
 10
0.191131
 20
197.461727
 30
0.0
 11
0.164307
 21
197.240669
 31
0.0
  0
LINE
  5
11a
100
AcDbEntity
  8
0
 62
5
100
AcDbLine
 10
0.164307
 20
197.240669
 30
0.0
 11
0.155366
 21
197.018195
 31
0.0
  0
LINE
  5
11b
100
AcDbEntity
  8
0
 62
5
100
AcDbLine
 10
0.155366
 20
197.018195
 30
0.0
 11
0.153876
 21
80.536490
 31
0.0
  0
LINE
  5
11c
100
AcDbEntity
  8
0
 62
5
100
AcDbLine
 10
0.153876
 20
80.536490
 30
0.0
 11
0.164307
 21
80.315430
 31
0.0
  0
LINE
  5
11d
100
AcDbEntity
  8
0
 62
5
100
AcDbLine
 10
0.164307
 20
80.315430
 30
0.0
 11
0.191131
 21
80.094380
 31
0.0
  0
LINE
  5
11e
100
AcDbEntity
  8
0
 62
5
100
AcDbLine
 10
0.191131
 20
80.094380
 30
0.0
 11
0.237328
 21
79.876150
 31
0.0
  0
LINE
  5
11f
100
AcDbEntity
  8
0
 62
5
100
AcDbLine
 10
0.237328
 20
79.876150
 30
0.0
 11
0.299918
 21
79.660760
 31
0.0
  0
LINE
  5
120
100
AcDbEntity
  8
0
 62
5
100
AcDbLine
 10
0.299918
 20
79.660760
 30
0.0
 11
0.381880
 21
79.452460
 31
0.0
  0
LINE
  5
121
100
AcDbEntity
  8
0
 62
5
100
AcDbLine
 10
0.381880
 20
79.452460
 30
0.0
 11
0.478744
 21
79.251240
 31
0.0
  0
LINE
  5
122
100
AcDbEntity
  8
0
 62
5
100
AcDbLine
 10
0.478744
 20
79.251240
 30
0.0
 11
0.593492
 21
79.057110
 31
0.0
  0
LINE
  5
123
100
AcDbEntity
  8
0
 62
5
100
AcDbLine
 10
0.593492
 20
79.057110
 30
0.0
 11
0.723141
 21
78.871480
 31
0.0
  0
LINE
  5
124
100
AcDbEntity
  8
0
 62
5
100
AcDbLine
 10
0.723141
 20
78.871480
 30
0.0
 11
0.869183
 21
78.697180
 31
0.0
  0
LINE
  5
125
100
AcDbEntity
  8
0
 62
5
100
AcDbLine
 10
0.869183
 20
78.697180
 30
0.0
 11
1.027146
 21
78.532800
 31
0.0
  0
LINE
  5
126
100
AcDbEntity
  8
0
 62
5
100
AcDbLine
 10
1.027146
 20
78.532800
 30
0.0
 11
1.200012
 21
78.382600
 31
0.0
  0
LINE
  5
127
100
AcDbEntity
  8
0
 62
5
100
AcDbLine
 10
1.200012
 20
78.382600
 30
0.0
 11
1.383310
 21
78.243730
 31
0.0
  0
LINE
  5
128
100
AcDbEntity
  8
0
 62
5
100
AcDbLine
 10
1.383310
 20
78.243730
 30
0.0
 11
1.578529
 21
78.120450
 31
0.0
  0
LINE
  5
129
100
AcDbEntity
  8
0
 62
5
100
AcDbLine
 10
1.578529
 20
78.120450
 30
0.0
 11
1.782689
 21
78.011340
 31
0.0
  0
LINE
  5
12a
100
AcDbEntity
  8
0
 62
5
100
AcDbLine
 10
1.782689
 20
78.011340
 30
0.0
 11
1.994301
 21
77.919240
 31
0.0
  0
LINE
  5
12b
100
AcDbEntity
  8
0
 62
5
100
AcDbLine
 10
1.994301
 20
77.919240
 30
0.0
 11
2.213364
 21
77.841340
 31
0.0
  0
LINE
  5
12c
100
AcDbEntity
  8
0
 62
5
100
AcDbLine
 10
2.213364
 20
77.841340
 30
0.0
 11
2.439878
 21
77.781840
 31
0.0
  0
LINE
  5
12d
100
AcDbEntity
  8
0
 62
5
100
AcDbLine
 10
2.439878
 20
77.781840
 30
0.0
 11
2.669372
 21
77.737940
 31
0.0
  0
LINE
  5
12e
100
AcDbEntity
  8
0
 62
5
100
AcDbLine
 10
2.669372
 20
77.737940
 30
0.0
 11
2.901847
 21
77.712440
 31
0.0
  0
LINE
  5
12f
100
AcDbEntity
  8
0
 62
5
100
AcDbLine
 10
2.901847
 20
77.712440
 30
0.0
 11
3.135812
 21
77.702440
 31
0.0
  0
LINE
  5
130
100
AcDbEntity
  8
0
 62
5
100
AcDbLine
 10
3.135812
 20
77.702440
 30
0.0
 11
170.489320
 21
77.703440
 31
0.0
  0
LINE
  5
131
100
AcDbEntity
  8
0
 62
5
100
AcDbLine
 10
170.489320
 20
77.703440
 30
0.0
 11
170.721800
 21
77.711440
 31
0.0
  0
LINE
  5
132
100
AcDbEntity
  8
0
 62
5
100
AcDbLine
 10
170.721800
 20
77.711440
 30
0.0
 11
170.954270
 21
77.736940
 31
0.0
  0
LINE
  5
133
100
AcDbEntity
  8
0
 62
5
100
AcDbLine
 10
170.954270
 20
77.736940
 30
0.0
 11
171.183770
 21
77.780840
 31
0.0
  0
LINE
  5
134
100
AcDbEntity
  8
0
 62
5
100
AcDbLine
 10
171.183770
 20
77.780840
 30
0.0
 11
171.410280
 21
77.840340
 31
0.0
  0
LINE
  5
135
100
AcDbEntity
  8
0
 62
5
100
AcDbLine
 10
171.410280
 20
77.840340
 30
0.0
 11
171.629340
 21
77.918240
 31
0.0
  0
LINE
  5
136
100
AcDbEntity
  8
0
 62
5
100
AcDbLine
 10
171.629340
 20
77.918240
 30
0.0
 11
171.840950
 21
78.010340
 31
0.0
  0
LINE
  5
137
100
AcDbEntity
  8
0
 62
5
100
AcDbLine
 10
171.840950
 20
78.010340
 30
0.0
 11
172.045110
 21
78.119450
 31
0.0
  0
LINE
  5
138
100
AcDbEntity
  8
0
 62
5
100
AcDbLine
 10
172.045110
 20
78.119450
 30
0.0
 11
172.240330
 21
78.242730
 31
0.0
  0
LINE
  5
139
100
AcDbEntity
  8
0
 62
5
100
AcDbLine
 10
172.240330
 20
78.242730
 30
0.0
 11
172.423630
 21
78.381600
 31
0.0
  0
LINE
  5
13a
100
AcDbEntity
  8
0
 62
5
100
AcDbLine
 10
172.423630
 20
78.381600
 30
0.0
 11
172.596500
 21
78.531800
 31
0.0
  0
LINE
  5
13b
100
AcDbEntity
  8
0
 62
5
100
AcDbLine
 10
172.596500
 20
78.531800
 30
0.0
 11
172.754460
 21
78.696180
 31
0.0
  0
LINE
  5
13c
100
AcDbEntity
  8
0
 62
5
100
AcDbLine
 10
172.754460
 20
78.696180
 30
0.0
 11
172.900500
 21
78.870480
 31
0.0
  0
LINE
  5
13d
100
AcDbEntity
  8
0
 62
5
100
AcDbLine
 10
172.900500
 20
78.870480
 30
0.0
 11
173.030150
 21
79.056110
 31
0.0
  0
LINE
  5
13e
100
AcDbEntity
  8
0
 62
5
100
AcDbLine
 10
173.030150
 20
79.056110
 30
0.0
 11
173.144900
 21
79.250240
 31
0.0
  0
LINE
  5
13f
100
AcDbEntity
  8
0
 62
5
100
AcDbLine
 10
173.144900
 20
79.250240
 30
0.0
 11
173.241800
 21
79.451460
 31
0.0
  0
LINE
  5
140
100
AcDbEntity
  8
0
 62
5
100
AcDbLine
 10
173.241800
 20
79.451460
 30
0.0
 11
173.323800
 21
79.659760
 31
0.0
  0
LINE
  5
141
100
AcDbEntity
  8
0
 62
5
100
AcDbLine
 10
173.323800
 20
79.659760
 30
0.0
 11
173.386400
 21
79.875150
 31
0.0
  0
LINE
  5
142
100
AcDbEntity
  8
0
 62
5
100
AcDbLine
 10
173.386400
 20
79.875150
 30
0.0
 11
173.432600
 21
80.093380
 31
0.0
  0
LINE
  5
143
100
AcDbEntity
  8
0
 62
5
100
AcDbLine
 10
173.432600
 20
80.093380
 30
0.0
 11
173.459400
 21
80.314430
 31
0.0
  0
LINE
  5
144
100
AcDbEntity
  8
0
 62
5
100
AcDbLine
 10
173.459400
 20
80.314430
 30
0.0
 11
173.468400
 21
80.535490
 31
0.0
  0
LINE
  5
145
100
AcDbEntity
  8
0
 62
5
100
AcDbLine
 10
173.468400
 20
80.535490
 30
0.0
 11
173.468400
 21
197.018195
 31
0.0
  0
LINE
  5
146
100
AcDbEntity
  8
0
 62
5
100
AcDbLine
 10
173.468400
 20
197.018195
 30
0.0
 11
173.459400
 21
197.240669
 31
0.0
  0
LINE
  5
147
100
AcDbEntity
  8
0
 62
5
100
AcDbLine
 10
173.459400
 20
197.240669
 30
0.0
 11
173.432600
 21
197.461727
 31
0.0
  0
LINE
  5
148
100
AcDbEntity
  8
0
 62
5
100
AcDbLine
 10
173.432600
 20
197.461727
 30
0.0
 11
173.386400
 21
197.679950
 31
0.0
  0
LINE
  5
149
100
AcDbEntity
  8
0
 62
5
100
AcDbLine
 10
173.386400
 20
197.679950
 30
0.0
 11
173.323800
 21
197.895339
 31
0.0
  0
LINE
  5
14a
100
AcDbEntity
  8
0
 62
5
100
AcDbLine
 10
173.323800
 20
197.895339
 30
0.0
 11
173.241800
 21
198.103644
 31
0.0
  0
LINE
  5
14b
100
AcDbEntity
  8
0
 62
5
100
AcDbLine
 10
173.241800
 20
198.103644
 30
0.0
 11
173.144900
 21
198.304863
 31
0.0
  0
LINE
  5
14c
100
AcDbEntity
  8
0
 62
5
100
AcDbLine
 10
173.144900
 20
198.304863
 30
0.0
 11
173.030150
 21
198.498996
 31
0.0
  0
LINE
  5
14d
100
AcDbEntity
  8
0
 62
5
100
AcDbLine
 10
173.030150
 20
198.498996
 30
0.0
 11
172.900500
 21
198.684628
 31
0.0
  0
LINE
  5
14e
100
AcDbEntity
  8
0
 62
5
100
AcDbLine
 10
172.900500
 20
198.684628
 30
0.0
 11
172.754460
 21
198.858923
 31
0.0
  0
LINE
  5
14f
100
AcDbEntity
  8
0
 62
5
100
AcDbLine
 10
172.754460
 20
198.858923
 30
0.0
 11
172.596500
 21
199.023299
 31
0.0
  0
LINE
  5
150
100
AcDbEntity
  8
0
 62
5
100
AcDbLine
 10
172.596500
 20
199.023299
 30
0.0
 11
172.423630
 21
199.173505
 31
0.0
  0
LINE
  5
151
100
AcDbEntity
  8
0
 62
5
100
AcDbLine
 10
172.423630
 20
199.173505
 30
0.0
 11
172.240330
 21
199.312375
 31
0.0
  0
LINE
  5
152
100
AcDbEntity
  8
0
 62
5
100
AcDbLine
 10
172.240330
 20
199.312375
 30
0.0
 11
172.045110
 21
199.435657
 31
0.0
  0
LINE
  5
153
100
AcDbEntity
  8
0
 62
5
100
AcDbLine
 10
172.045110
 20
199.435657
 30
0.0
 11
171.840950
 21
199.544768
 31
0.0
  0
LINE
  5
154
100
AcDbEntity
  8
0
 62
5
100
AcDbLine
 10
171.840950
 20
199.544768
 30
0.0
 11
171.629340
 21
199.636876
 31
0.0
  0
LINE
  5
155
100
AcDbEntity
  8
0
 62
5
100
AcDbLine
 10
171.629340
 20
199.636876
 30
0.0
 11
171.410280
 21
199.714812
 31
0.0
  0
LINE
  5
156
100
AcDbEntity
  8
0
 62
5
100
AcDbLine
 10
171.410280
 20
199.714812
 30
0.0
 11
171.183770
 21
199.774328
 31
0.0
  0
LINE
  5
157
100
AcDbEntity
  8
0
 62
5
100
AcDbLine
 10
171.183770
 20
199.774328
 30
0.0
 11
170.954270
 21
199.818256
 31
0.0
  0
LINE
  5
158
100
AcDbEntity
  8
0
 62
5
100
AcDbLine
 10
170.954270
 20
199.818256
 30
0.0
 11
170.721800
 21
199.843763
 31
0.0
  0
LINE
  5
159
100
AcDbEntity
  8
0
 62
5
100
AcDbLine
 10
170.721800
 20
199.843763
 30
0.0
 11
153.156530
 21
199.843633
 31
0.0
  0
LINE
  5
15a
100
AcDbEntity
  8
0
 62
5
100
AcDbLine
 10
153.156530
 20
199.843633
 30
0.0
 11
153.165530
 21
175.791481
 31
0.0
  0
LINE
  5
15b
100
AcDbEntity
  8
0
 62
5
100
AcDbLine
 10
153.165530
 20
175.791481
 30
0.0
 11
153.165880
 21
164.066237
 31
0.0
  0
LINE
  5
15c
100
AcDbEntity
  8
0
 62
5
100
AcDbLine
 10
153.165880
 20
164.066237
 30
0.0
 11
132.322340
 21
164.066237
 31
0.0
  0
LINE
  5
15d
100
AcDbEntity
  8
0
 62
5
100
AcDbLine
 10
132.322340
 20
164.066237
 30
0.0
 11
132.322340
 21
185.000000
 31
0.0
  0
LINE
  5
15e
100
AcDbEntity
  8
0
 62
5
100
AcDbLine
 10
132.322340
 20
185.000000
 30
0.0
 11
110.832690
 21
185.000000
 31
0.0
  0
LINE
  5
15f
100
AcDbEntity
  8
0
 62
5
100
AcDbLine
 10
110.832690
 20
185.000000
 30
0.0
 11
110.882990
 21
199.853194
 31
0.0
  0
LINE
  5
160
100
AcDbEntity
  8
0
 62
5
100
AcDbLine
 10
110.882990
 20
199.853194
 30
0.0
 11
60.734159
 21
199.853194
 31
0.0
  0
SPLINE
  5
161
100
AcDbEntity
  8
0
 62
5
100
AcDbSpline
 70
8
 71
3
 72
8
 73
4
 74
0
 40
0
 40
0
 40
0
 40
0
 40
1
 40
1
 40
1
 40
1
 10
20.762730
 20
98.480050
 30
0.0
 10
20.763245
 20
99.010334
 30
0.0
 10
20.480638
 20
99.500558
 30
0.0
 10
20.021484
 20
99.765849
 30
0.0
  0
SPLINE
  5
162
100
AcDbEntity
  8
0
 62
5
100
AcDbSpline
 70
8
 71
3
 72
8
 73
4
 74
0
 40
0
 40
0
 40
0
 40
0
 40
1
 40
1
 40
1
 40
1
 10
20.021484
 20
99.765849
 30
0.0
 10
19.562330
 20
100.031139
 30
0.0
 10
18.996480
 20
100.031139
 30
0.0
 10
18.537326
 20
99.765849
 30
0.0
  0
SPLINE
  5
163
100
AcDbEntity
  8
0
 62
5
100
AcDbSpline
 70
8
 71
3
 72
8
 73
4
 74
0
 40
0
 40
0
 40
0
 40
0
 40
1
 40
1
 40
1
 40
1
 10
18.537326
 20
99.765849
 30
0.0
 10
18.078172
 20
99.500558
 30
0.0
 10
17.795565
 20
99.010334
 30
0.0
 10
17.796080
 20
98.480050
 30
0.0
  0
SPLINE
  5
164
100
AcDbEntity
  8
0
 62
5
100
AcDbSpline
 70
8
 71
3
 72
8
 73
4
 74
0
 40
0
 40
0
 40
0
 40
0
 40
1
 40
1
 40
1
 40
1
 10
17.796080
 20
98.480050
 30
0.0
 10
17.795565
 20
97.949766
 30
0.0
 10
18.078172
 20
97.459542
 30
0.0
 10
18.537326
 20
97.194251
 30
0.0
  0
SPLINE
  5
165
100
AcDbEntity
  8
0
 62
5
100
AcDbSpline
 70
8
 71
3
 72
8
 73
4
 74
0
 40
0
 40
0
 40
0
 40
0
 40
1
 40
1
 40
1
 40
1
 10
18.537326
 20
97.194251
 30
0.0
 10
18.996480
 20
96.928961
 30
0.0
 10
19.562330
 20
96.928961
 30
0.0
 10
20.021484
 20
97.194251
 30
0.0
  0
SPLINE
  5
166
100
AcDbEntity
  8
0
 62
5
100
AcDbSpline
 70
8
 71
3
 72
8
 73
4
 74
0
 40
0
 40
0
 40
0
 40
0
 40
1
 40
1
 40
1
 40
1
 10
20.021484
 20
97.194251
 30
0.0
 10
20.480638
 20
97.459542
 30
0.0
 10
20.763245
 20
97.949766
 30
0.0
 10
20.762730
 20
98.480050
 30
0.0
  0
LINE
  5
167
100
AcDbEntity
  8
0
 62
5
100
AcDbLine
 10
20.762730
 20
98.480050
 30
0.0
 11
20.762730
 21
98.480050
 31
0.0
  0
SPLINE
  5
168
100
AcDbEntity
  8
0
 62
5
100
AcDbSpline
 70
8
 71
3
 72
8
 73
4
 74
0
 40
0
 40
0
 40
0
 40
0
 40
1
 40
1
 40
1
 40
1
 10
154.057810
 20
98.480050
 30
0.0
 10
154.058564
 20
99.010493
 30
0.0
 10
153.776009
 20
99.500966
 30
0.0
 10
153.316757
 20
99.766406
 30
0.0
  0
SPLINE
  5
169
100
AcDbEntity
  8
0
 62
5
100
AcDbSpline
 70
8
 71
3
 72
8
 73
4
 74
0
 40
0
 40
0
 40
0
 40
0
 40
1
 40
1
 40
1
 40
1
 10
153.316757
 20
99.766406
 30
0.0
 10
152.857505
 20
100.031846
 30
0.0
 10
152.291465
 20
100.031846
 30
0.0
 10
151.832213
 20
99.766406
 30
0.0
  0
SPLINE
  5
16a
100
AcDbEntity
  8
0
 62
5
100
AcDbSpline
 70
8
 71
3
 72
8
 73
4
 74
0
 40
0
 40
0
 40
0
 40
0
 40
1
 40
1
 40
1
 40
1
 10
151.832213
 20
99.766406
 30
0.0
 10
151.372961
 20
99.500966
 30
0.0
 10
151.090406
 20
99.010493
 30
0.0
 10
151.091160
 20
98.480050
 30
0.0
  0
SPLINE
  5
16b
100
AcDbEntity
  8
0
 62
5
100
AcDbSpline
 70
8
 71
3
 72
8
 73
4
 74
0
 40
0
 40
0
 40
0
 40
0
 40
1
 40
1
 40
1
 40
1
 10
151.091160
 20
98.480050
 30
0.0
 10
151.090406
 20
97.949607
 30
0.0
 10
151.372961
 20
97.459134
 30
0.0
 10
151.832213
 20
97.193694
 30
0.0
  0
SPLINE
  5
16c
100
AcDbEntity
  8
0
 62
5
100
AcDbSpline
 70
8
 71
3
 72
8
 73
4
 74
0
 40
0
 40
0
 40
0
 40
0
 40
1
 40
1
 40
1
 40
1
 10
151.832213
 20
97.193694
 30
0.0
 10
152.291465
 20
96.928254
 30
0.0
 10
152.857505
 20
96.928254
 30
0.0
 10
153.316757
 20
97.193694
 30
0.0
  0
SPLINE
  5
16d
100
AcDbEntity
  8
0
 62
5
100
AcDbSpline
 70
8
 71
3
 72
8
 73
4
 74
0
 40
0
 40
0
 40
0
 40
0
 40
1
 40
1
 40
1
 40
1
 10
153.316757
 20
97.193694
 30
0.0
 10
153.776009
 20
97.459134
 30
0.0
 10
154.058564
 20
97.949607
 30
0.0
 10
154.057810
 20
98.480050
 30
0.0
  0
LINE
  5
16e
100
AcDbEntity
  8
0
 62
5
100
AcDbLine
 10
154.057810
 20
98.480050
 30
0.0
 11
154.057810
 21
98.480050
 31
0.0
  0
SPLINE
  5
16f
100
AcDbEntity
  8
0
 62
5
100
AcDbSpline
 70
8
 71
3
 72
8
 73
4
 74
0
 40
0
 40
0
 40
0
 40
0
 40
1
 40
1
 40
1
 40
1
 10
20.563169
 20
155.602050
 30
0.0
 10
20.563646
 20
156.132309
 30
0.0
 10
20.281030
 20
156.622492
 30
0.0
 10
19.821892
 20
156.887759
 30
0.0
  0
SPLINE
  5
170
100
AcDbEntity
  8
0
 62
5
100
AcDbSpline
 70
8
 71
3
 72
8
 73
4
 74
0
 40
0
 40
0
 40
0
 40
0
 40
1
 40
1
 40
1
 40
1
 10
19.821892
 20
156.887759
 30
0.0
 10
19.362754
 20
157.153027
 30
0.0
 10
18.796934
 20
157.153027
 30
0.0
 10
18.337796
 20
156.887759
 30
0.0
  0
SPLINE
  5
171
100
AcDbEntity
  8
0
 62
5
100
AcDbSpline
 70
8
 71
3
 72
8
 73
4
 74
0
 40
0
 40
0
 40
0
 40
0
 40
1
 40
1
 40
1
 40
1
 10
18.337796
 20
156.887759
 30
0.0
 10
17.878658
 20
156.622492
 30
0.0
 10
17.596042
 20
156.132309
 30
0.0
 10
17.596519
 20
155.602050
 30
0.0
  0
SPLINE
  5
172
100
AcDbEntity
  8
0
 62
5
100
AcDbSpline
 70
8
 71
3
 72
8
 73
4
 74
0
 40
0
 40
0
 40
0
 40
0
 40
1
 40
1
 40
1
 40
1
 10
17.596519
 20
155.602050
 30
0.0
 10
17.596042
 20
155.071791
 30
0.0
 10
17.878658
 20
154.581608
 30
0.0
 10
18.337796
 20
154.316341
 30
0.0
  0
SPLINE
  5
173
100
AcDbEntity
  8
0
 62
5
100
AcDbSpline
 70
8
 71
3
 72
8
 73
4
 74
0
 40
0
 40
0
 40
0
 40
0
 40
1
 40
1
 40
1
 40
1
 10
18.337796
 20
154.316341
 30
0.0
 10
18.796934
 20
154.051073
 30
0.0
 10
19.362754
 20
154.051073
 30
0.0
 10
19.821892
 20
154.316341
 30
0.0
  0
SPLINE
  5
174
100
AcDbEntity
  8
0
 62
5
100
AcDbSpline
 70
8
 71
3
 72
8
 73
4
 74
0
 40
0
 40
0
 40
0
 40
0
 40
1
 40
1
 40
1
 40
1
 10
19.821892
 20
154.316341
 30
0.0
 10
20.281030
 20
154.581608
 30
0.0
 10
20.563646
 20
155.071791
 30
0.0
 10
20.563169
 20
155.602050
 30
0.0
  0
LINE
  5
175
100
AcDbEntity
  8
0
 62
5
100
AcDbLine
 10
20.563169
 20
155.602050
 30
0.0
 11
20.563169
 21
155.602050
 31
0.0
  0
SPLINE
  5
176
100
AcDbEntity
  8
0
 62
5
100
AcDbSpline
 70
8
 71
3
 72
8
 73
4
 74
0
 40
0
 40
0
 40
0
 40
0
 40
1
 40
1
 40
1
 40
1
 10
58.663169
 20
98.453040
 30
0.0
 10
58.663646
 20
98.983299
 30
0.0
 10
58.381030
 20
99.473482
 30
0.0
 10
57.921892
 20
99.738749
 30
0.0
  0
SPLINE
  5
177
100
AcDbEntity
  8
0
 62
5
100
AcDbSpline
 70
8
 71
3
 72
8
 73
4
 74
0
 40
0
 40
0
 40
0
 40
0
 40
1
 40
1
 40
1
 40
1
 10
57.921892
 20
99.738749
 30
0.0
 10
57.462754
 20
100.004017
 30
0.0
 10
56.896934
 20
100.004017
 30
0.0
 10
56.437796
 20
99.738749
 30
0.0
  0
SPLINE
  5
178
100
AcDbEntity
  8
0
 62
5
100
AcDbSpline
 70
8
 71
3
 72
8
 73
4
 74
0
 40
0
 40
0
 40
0
 40
0
 40
1
 40
1
 40
1
 40
1
 10
56.437796
 20
99.738749
 30
0.0
 10
55.978658
 20
99.473482
 30
0.0
 10
55.696042
 20
98.983299
 30
0.0
 10
55.696519
 20
98.453040
 30
0.0
  0
SPLINE
  5
179
100
AcDbEntity
  8
0
 62
5
100
AcDbSpline
 70
8
 71
3
 72
8
 73
4
 74
0
 40
0
 40
0
 40
0
 40
0
 40
1
 40
1
 40
1
 40
1
 10
55.696519
 20
98.453040
 30
0.0
 10
55.696042
 20
97.922781
 30
0.0
 10
55.978658
 20
97.432598
 30
0.0
 10
56.437796
 20
97.167331
 30
0.0
  0
SPLINE
  5
17a
100
AcDbEntity
  8
0
 62
5
100
AcDbSpline
 70
8
 71
3
 72
8
 73
4
 74
0
 40
0
 40
0
 40
0
 40
0
 40
1
 40
1
 40
1
 40
1
 10
56.437796
 20
97.167331
 30
0.0
 10
56.896934
 20
96.902063
 30
0.0
 10
57.462754
 20
96.902063
 30
0.0
 10
57.921892
 20
97.167331
 30
0.0
  0
SPLINE
  5
17b
100
AcDbEntity
  8
0
 62
5
100
AcDbSpline
 70
8
 71
3
 72
8
 73
4
 74
0
 40
0
 40
0
 40
0
 40
0
 40
1
 40
1
 40
1
 40
1
 10
57.921892
 20
97.167331
 30
0.0
 10
58.381030
 20
97.432598
 30
0.0
 10
58.663646
 20
97.922781
 30
0.0
 10
58.663169
 20
98.453040
 30
0.0
  0
LINE
  5
17c
100
AcDbEntity
  8
0
 62
5
100
AcDbLine
 10
58.663169
 20
98.453040
 30
0.0
 11
58.663169
 21
98.453040
 31
0.0
  0
SPLINE
  5
17d
100
AcDbEntity
  8
0
 62
5
100
AcDbSpline
 70
8
 71
3
 72
8
 73
4
 74
0
 40
0
 40
0
 40
0
 40
0
 40
1
 40
1
 40
1
 40
1
 10
115.812170
 20
98.453050
 30
0.0
 10
115.812647
 20
98.983309
 30
0.0
 10
115.530031
 20
99.473492
 30
0.0
 10
115.070893
 20
99.738759
 30
0.0
  0
SPLINE
  5
17e
100
AcDbEntity
  8
0
 62
5
100
AcDbSpline
 70
8
 71
3
 72
8
 73
4
 74
0
 40
0
 40
0
 40
0
 40
0
 40
1
 40
1
 40
1
 40
1
 10
115.070893
 20
99.738759
 30
0.0
 10
114.611755
 20
100.004027
 30
0.0
 10
114.045935
 20
100.004027
 30
0.0
 10
113.586797
 20
99.738759
 30
0.0
  0
SPLINE
  5
17f
100
AcDbEntity
  8
0
 62
5
100
AcDbSpline
 70
8
 71
3
 72
8
 73
4
 74
0
 40
0
 40
0
 40
0
 40
0
 40
1
 40
1
 40
1
 40
1
 10
113.586797
 20
99.738759
 30
0.0
 10
113.127659
 20
99.473492
 30
0.0
 10
112.845043
 20
98.983309
 30
0.0
 10
112.845520
 20
98.453050
 30
0.0
  0
SPLINE
  5
180
100
AcDbEntity
  8
0
 62
5
100
AcDbSpline
 70
8
 71
3
 72
8
 73
4
 74
0
 40
0
 40
0
 40
0
 40
0
 40
1
 40
1
 40
1
 40
1
 10
112.845520
 20
98.453050
 30
0.0
 10
112.845043
 20
97.922791
 30
0.0
 10
113.127659
 20
97.432608
 30
0.0
 10
113.586797
 20
97.167341
 30
0.0
  0
SPLINE
  5
181
100
AcDbEntity
  8
0
 62
5
100
AcDbSpline
 70
8
 71
3
 72
8
 73
4
 74
0
 40
0
 40
0
 40
0
 40
0
 40
1
 40
1
 40
1
 40
1
 10
113.586797
 20
97.167341
 30
0.0
 10
114.045935
 20
96.902073
 30
0.0
 10
114.611755
 20
96.902073
 30
0.0
 10
115.070893
 20
97.167341
 30
0.0
  0
SPLINE
  5
182
100
AcDbEntity
  8
0
 62
5
100
AcDbSpline
 70
8
 71
3
 72
8
 73
4
 74
0
 40
0
 40
0
 40
0
 40
0
 40
1
 40
1
 40
1
 40
1
 10
115.070893
 20
97.167341
 30
0.0
 10
115.530031
 20
97.432608
 30
0.0
 10
115.812647
 20
97.922791
 30
0.0
 10
115.812170
 20
98.453050
 30
0.0
  0
LINE
  5
183
100
AcDbEntity
  8
0
 62
5
100
AcDbLine
 10
115.812170
 20
98.453050
 30
0.0
 11
115.812170
 21
98.453050
 31
0.0
  0
SPLINE
  5
184
100
AcDbEntity
  8
0
 62
5
100
AcDbSpline
 70
8
 71
3
 72
8
 73
4
 74
0
 40
0
 40
0
 40
0
 40
0
 40
1
 40
1
 40
1
 40
1
 10
58.463608
 20
174.625045
 30
0.0
 10
58.464085
 20
175.155304
 30
0.0
 10
58.181469
 20
175.645487
 30
0.0
 10
57.722331
 20
175.910754
 30
0.0
  0
SPLINE
  5
185
100
AcDbEntity
  8
0
 62
5
100
AcDbSpline
 70
8
 71
3
 72
8
 73
4
 74
0
 40
0
 40
0
 40
0
 40
0
 40
1
 40
1
 40
1
 40
1
 10
57.722331
 20
175.910754
 30
0.0
 10
57.263193
 20
176.176022
 30
0.0
 10
56.697373
 20
176.176022
 30
0.0
 10
56.238235
 20
175.910754
 30
0.0
  0
SPLINE
  5
186
100
AcDbEntity
  8
0
 62
5
100
AcDbSpline
 70
8
 71
3
 72
8
 73
4
 74
0
 40
0
 40
0
 40
0
 40
0
 40
1
 40
1
 40
1
 40
1
 10
56.238235
 20
175.910754
 30
0.0
 10
55.779097
 20
175.645487
 30
0.0
 10
55.496481
 20
175.155304
 30
0.0
 10
55.496958
 20
174.625045
 30
0.0
  0
SPLINE
  5
187
100
AcDbEntity
  8
0
 62
5
100
AcDbSpline
 70
8
 71
3
 72
8
 73
4
 74
0
 40
0
 40
0
 40
0
 40
0
 40
1
 40
1
 40
1
 40
1
 10
55.496958
 20
174.625045
 30
0.0
 10
55.496481
 20
174.094786
 30
0.0
 10
55.779097
 20
173.604603
 30
0.0
 10
56.238235
 20
173.339336
 30
0.0
  0
SPLINE
  5
188
100
AcDbEntity
  8
0
 62
5
100
AcDbSpline
 70
8
 71
3
 72
8
 73
4
 74
0
 40
0
 40
0
 40
0
 40
0
 40
1
 40
1
 40
1
 40
1
 10
56.238235
 20
173.339336
 30
0.0
 10
56.697373
 20
173.074068
 30
0.0
 10
57.263193
 20
173.074068
 30
0.0
 10
57.722331
 20
173.339336
 30
0.0
  0
SPLINE
  5
189
100
AcDbEntity
  8
0
 62
5
100
AcDbSpline
 70
8
 71
3
 72
8
 73
4
 74
0
 40
0
 40
0
 40
0
 40
0
 40
1
 40
1
 40
1
 40
1
 10
57.722331
 20
173.339336
 30
0.0
 10
58.181469
 20
173.604603
 30
0.0
 10
58.464085
 20
174.094786
 30
0.0
 10
58.463608
 20
174.625045
 30
0.0
  0
LINE
  5
18a
100
AcDbEntity
  8
0
 62
5
100
AcDbLine
 10
58.463608
 20
174.625045
 30
0.0
 11
58.463608
 21
174.625045
 31
0.0
  0
SPLINE
  5
18b
100
AcDbEntity
  8
0
 62
5
100
AcDbSpline
 70
8
 71
3
 72
8
 73
4
 74
0
 40
0
 40
0
 40
0
 40
0
 40
1
 40
1
 40
1
 40
1
 10
58.663172
 20
136.552054
 30
0.0
 10
58.663687
 20
137.082338
 30
0.0
 10
58.381080
 20
137.572562
 30
0.0
 10
57.921926
 20
137.837853
 30
0.0
  0
SPLINE
  5
18c
100
AcDbEntity
  8
0
 62
5
100
AcDbSpline
 70
8
 71
3
 72
8
 73
4
 74
0
 40
0
 40
0
 40
0
 40
0
 40
1
 40
1
 40
1
 40
1
 10
57.921926
 20
137.837853
 30
0.0
 10
57.462772
 20
138.103143
 30
0.0
 10
56.896922
 20
138.103143
 30
0.0
 10
56.437768
 20
137.837853
 30
0.0
  0
SPLINE
  5
18d
100
AcDbEntity
  8
0
 62
5
100
AcDbSpline
 70
8
 71
3
 72
8
 73
4
 74
0
 40
0
 40
0
 40
0
 40
0
 40
1
 40
1
 40
1
 40
1
 10
56.437768
 20
137.837853
 30
0.0
 10
55.978614
 20
137.572562
 30
0.0
 10
55.696007
 20
137.082338
 30
0.0
 10
55.696522
 20
136.552054
 30
0.0
  0
SPLINE
  5
18e
100
AcDbEntity
  8
0
 62
5
100
AcDbSpline
 70
8
 71
3
 72
8
 73
4
 74
0
 40
0
 40
0
 40
0
 40
0
 40
1
 40
1
 40
1
 40
1
 10
55.696522
 20
136.552054
 30
0.0
 10
55.696007
 20
136.021770
 30
0.0
 10
55.978614
 20
135.531546
 30
0.0
 10
56.437768
 20
135.266255
 30
0.0
  0
SPLINE
  5
18f
100
AcDbEntity
  8
0
 62
5
100
AcDbSpline
 70
8
 71
3
 72
8
 73
4
 74
0
 40
0
 40
0
 40
0
 40
0
 40
1
 40
1
 40
1
 40
1
 10
56.437768
 20
135.266255
 30
0.0
 10
56.896922
 20
135.000965
 30
0.0
 10
57.462772
 20
135.000965
 30
0.0
 10
57.921926
 20
135.266255
 30
0.0
  0
SPLINE
  5
190
100
AcDbEntity
  8
0
 62
5
100
AcDbSpline
 70
8
 71
3
 72
8
 73
4
 74
0
 40
0
 40
0
 40
0
 40
0
 40
1
 40
1
 40
1
 40
1
 10
57.921926
 20
135.266255
 30
0.0
 10
58.381080
 20
135.531546
 30
0.0
 10
58.663687
 20
136.021770
 30
0.0
 10
58.663172
 20
136.552054
 30
0.0
  0
LINE
  5
191
100
AcDbEntity
  8
0
 62
5
100
AcDbLine
 10
58.663172
 20
136.552054
 30
0.0
 11
58.663172
 21
136.552054
 31
0.0
  0
SPLINE
  5
192
100
AcDbEntity
  8
0
 62
5
100
AcDbSpline
 70
8
 71
3
 72
8
 73
4
 74
0
 40
0
 40
0
 40
0
 40
0
 40
1
 40
1
 40
1
 40
1
 10
115.612610
 20
174.625048
 30
0.0
 10
115.613087
 20
175.155307
 30
0.0
 10
115.330471
 20
175.645490
 30
0.0
 10
114.871333
 20
175.910757
 30
0.0
  0
SPLINE
  5
193
100
AcDbEntity
  8
0
 62
5
100
AcDbSpline
 70
8
 71
3
 72
8
 73
4
 74
0
 40
0
 40
0
 40
0
 40
0
 40
1
 40
1
 40
1
 40
1
 10
114.871333
 20
175.910757
 30
0.0
 10
114.412195
 20
176.176025
 30
0.0
 10
113.846375
 20
176.176025
 30
0.0
 10
113.387237
 20
175.910757
 30
0.0
  0
SPLINE
  5
194
100
AcDbEntity
  8
0
 62
5
100
AcDbSpline
 70
8
 71
3
 72
8
 73
4
 74
0
 40
0
 40
0
 40
0
 40
0
 40
1
 40
1
 40
1
 40
1
 10
113.387237
 20
175.910757
 30
0.0
 10
112.928099
 20
175.645490
 30
0.0
 10
112.645483
 20
175.155307
 30
0.0
 10
112.645960
 20
174.625048
 30
0.0
  0
SPLINE
  5
195
100
AcDbEntity
  8
0
 62
5
100
AcDbSpline
 70
8
 71
3
 72
8
 73
4
 74
0
 40
0
 40
0
 40
0
 40
0
 40
1
 40
1
 40
1
 40
1
 10
112.645960
 20
174.625048
 30
0.0
 10
112.645483
 20
174.094789
 30
0.0
 10
112.928099
 20
173.604606
 30
0.0
 10
113.387237
 20
173.339339
 30
0.0
  0
SPLINE
  5
196
100
AcDbEntity
  8
0
 62
5
100
AcDbSpline
 70
8
 71
3
 72
8
 73
4
 74
0
 40
0
 40
0
 40
0
 40
0
 40
1
 40
1
 40
1
 40
1
 10
113.387237
 20
173.339339
 30
0.0
 10
113.846375
 20
173.074071
 30
0.0
 10
114.412195
 20
173.074071
 30
0.0
 10
114.871333
 20
173.339339
 30
0.0
  0
SPLINE
  5
197
100
AcDbEntity
  8
0
 62
5
100
AcDbSpline
 70
8
 71
3
 72
8
 73
4
 74
0
 40
0
 40
0
 40
0
 40
0
 40
1
 40
1
 40
1
 40
1
 10
114.871333
 20
173.339339
 30
0.0
 10
115.330471
 20
173.604606
 30
0.0
 10
115.613087
 20
174.094789
 30
0.0
 10
115.612610
 20
174.625048
 30
0.0
  0
LINE
  5
198
100
AcDbEntity
  8
0
 62
5
100
AcDbLine
 10
115.612610
 20
174.625048
 30
0.0
 11
115.612610
 21
174.625048
 31
0.0
  0
SPLINE
  5
199
100
AcDbEntity
  8
0
 62
5
100
AcDbSpline
 70
8
 71
3
 72
8
 73
4
 74
0
 40
0
 40
0
 40
0
 40
0
 40
1
 40
1
 40
1
 40
1
 10
115.812170
 20
136.552054
 30
0.0
 10
115.812685
 20
137.082338
 30
0.0
 10
115.530078
 20
137.572562
 30
0.0
 10
115.070924
 20
137.837853
 30
0.0
  0
SPLINE
  5
19a
100
AcDbEntity
  8
0
 62
5
100
AcDbSpline
 70
8
 71
3
 72
8
 73
4
 74
0
 40
0
 40
0
 40
0
 40
0
 40
1
 40
1
 40
1
 40
1
 10
115.070924
 20
137.837853
 30
0.0
 10
114.611770
 20
138.103143
 30
0.0
 10
114.045920
 20
138.103143
 30
0.0
 10
113.586766
 20
137.837853
 30
0.0
  0
SPLINE
  5
19b
100
AcDbEntity
  8
0
 62
5
100
AcDbSpline
 70
8
 71
3
 72
8
 73
4
 74
0
 40
0
 40
0
 40
0
 40
0
 40
1
 40
1
 40
1
 40
1
 10
113.586766
 20
137.837853
 30
0.0
 10
113.127612
 20
137.572562
 30
0.0
 10
112.845005
 20
137.082338
 30
0.0
 10
112.845520
 20
136.552054
 30
0.0
  0
SPLINE
  5
19c
100
AcDbEntity
  8
0
 62
5
100
AcDbSpline
 70
8
 71
3
 72
8
 73
4
 74
0
 40
0
 40
0
 40
0
 40
0
 40
1
 40
1
 40
1
 40
1
 10
112.845520
 20
136.552054
 30
0.0
 10
112.845005
 20
136.021770
 30
0.0
 10
113.127612
 20
135.531546
 30
0.0
 10
113.586766
 20
135.266255
 30
0.0
  0
SPLINE
  5
19d
100
AcDbEntity
  8
0
 62
5
100
AcDbSpline
 70
8
 71
3
 72
8
 73
4
 74
0
 40
0
 40
0
 40
0
 40
0
 40
1
 40
1
 40
1
 40
1
 10
113.586766
 20
135.266255
 30
0.0
 10
114.045920
 20
135.000965
 30
0.0
 10
114.611770
 20
135.000965
 30
0.0
 10
115.070924
 20
135.266255
 30
0.0
  0
SPLINE
  5
19e
100
AcDbEntity
  8
0
 62
5
100
AcDbSpline
 70
8
 71
3
 72
8
 73
4
 74
0
 40
0
 40
0
 40
0
 40
0
 40
1
 40
1
 40
1
 40
1
 10
115.070924
 20
135.266255
 30
0.0
 10
115.530078
 20
135.531546
 30
0.0
 10
115.812685
 20
136.021770
 30
0.0
 10
115.812170
 20
136.552054
 30
0.0
  0
LINE
  5
19f
100
AcDbEntity
  8
0
 62
5
100
AcDbLine
 10
115.812170
 20
136.552054
 30
0.0
 11
115.812170
 21
136.552054
 31
0.0
  0
SPLINE
  5
1a0
100
AcDbEntity
  8
0
 62
5
100
AcDbSpline
 70
8
 71
3
 72
8
 73
4
 74
0
 40
0
 40
0
 40
0
 40
0
 40
1
 40
1
 40
1
 40
1
 10
153.858250
 20
155.602054
 30
0.0
 10
153.858727
 20
156.132313
 30
0.0
 10
153.576111
 20
156.622496
 30
0.0
 10
153.116973
 20
156.887763
 30
0.0
  0
SPLINE
  5
1a1
100
AcDbEntity
  8
0
 62
5
100
AcDbSpline
 70
8
 71
3
 72
8
 73
4
 74
0
 40
0
 40
0
 40
0
 40
0
 40
1
 40
1
 40
1
 40
1
 10
153.116973
 20
156.887763
 30
0.0
 10
152.657835
 20
157.153031
 30
0.0
 10
152.092015
 20
157.153031
 30
0.0
 10
151.632877
 20
156.887763
 30
0.0
  0
SPLINE
  5
1a2
100
AcDbEntity
  8
0
 62
5
100
AcDbSpline
 70
8
 71
3
 72
8
 73
4
 74
0
 40
0
 40
0
 40
0
 40
0
 40
1
 40
1
 40
1
 40
1
 10
151.632877
 20
156.887763
 30
0.0
 10
151.173739
 20
156.622496
 30
0.0
 10
150.891123
 20
156.132313
 30
0.0
 10
150.891600
 20
155.602054
 30
0.0
  0
SPLINE
  5
1a3
100
AcDbEntity
  8
0
 62
5
100
AcDbSpline
 70
8
 71
3
 72
8
 73
4
 74
0
 40
0
 40
0
 40
0
 40
0
 40
1
 40
1
 40
1
 40
1
 10
150.891600
 20
155.602054
 30
0.0
 10
150.891123
 20
155.071795
 30
0.0
 10
151.173739
 20
154.581612
 30
0.0
 10
151.632877
 20
154.316345
 30
0.0
  0
SPLINE
  5
1a4
100
AcDbEntity
  8
0
 62
5
100
AcDbSpline
 70
8
 71
3
 72
8
 73
4
 74
0
 40
0
 40
0
 40
0
 40
0
 40
1
 40
1
 40
1
 40
1
 10
151.632877
 20
154.316345
 30
0.0
 10
152.092015
 20
154.051077
 30
0.0
 10
152.657835
 20
154.051077
 30
0.0
 10
153.116973
 20
154.316345
 30
0.0
  0
SPLINE
  5
1a5
100
AcDbEntity
  8
0
 62
5
100
AcDbSpline
 70
8
 71
3
 72
8
 73
4
 74
0
 40
0
 40
0
 40
0
 40
0
 40
1
 40
1
 40
1
 40
1
 10
153.116973
 20
154.316345
 30
0.0
 10
153.576111
 20
154.581612
 30
0.0
 10
153.858727
 20
155.071795
 30
0.0
 10
153.858250
 20
155.602054
 30
0.0
  0
LINE
  5
1a6
100
AcDbEntity
  8
0
 62
5
100
AcDbLine
 10
153.858250
 20
155.602054
 30
0.0
 11
153.858250
 21
155.602054
 31
0.0
  0
SPLINE
  5
1a7
100
AcDbEntity
  8
0
 62
5
100
AcDbSpline
 70
8
 71
3
 72
8
 73
4
 74
0
 40
0
 40
0
 40
0
 40
0
 40
1
 40
1
 40
1
 40
1
 10
155.411720
 20
195.396051
 30
0.0
 10
155.411243
 20
195.926310
 30
0.0
 10
155.693859
 20
196.416493
 30
0.0
 10
156.152997
 20
196.681760
 30
0.0
  0
SPLINE
  5
1a8
100
AcDbEntity
  8
0
 62
5
100
AcDbSpline
 70
8
 71
3
 72
8
 73
4
 74
0
 40
0
 40
0
 40
0
 40
0
 40
1
 40
1
 40
1
 40
1
 10
156.152997
 20
196.681760
 30
0.0
 10
156.612135
 20
196.947028
 30
0.0
 10
157.177955
 20
196.947028
 30
0.0
 10
157.637093
 20
196.681760
 30
0.0
  0
SPLINE
  5
1a9
100
AcDbEntity
  8
0
 62
5
100
AcDbSpline
 70
8
 71
3
 72
8
 73
4
 74
0
 40
0
 40
0
 40
0
 40
0
 40
1
 40
1
 40
1
 40
1
 10
157.637093
 20
196.681760
 30
0.0
 10
158.096231
 20
196.416493
 30
0.0
 10
158.378847
 20
195.926310
 30
0.0
 10
158.378370
 20
195.396051
 30
0.0
  0
SPLINE
  5
1aa
100
AcDbEntity
  8
0
 62
5
100
AcDbSpline
 70
8
 71
3
 72
8
 73
4
 74
0
 40
0
 40
0
 40
0
 40
0
 40
1
 40
1
 40
1
 40
1
 10
158.378370
 20
195.396051
 30
0.0
 10
158.378847
 20
194.865792
 30
0.0
 10
158.096231
 20
194.375609
 30
0.0
 10
157.637093
 20
194.110342
 30
0.0
  0
SPLINE
  5
1ab
100
AcDbEntity
  8
0
 62
5
100
AcDbSpline
 70
8
 71
3
 72
8
 73
4
 74
0
 40
0
 40
0
 40
0
 40
0
 40
1
 40
1
 40
1
 40
1
 10
157.637093
 20
194.110342
 30
0.0
 10
157.177955
 20
193.845074
 30
0.0
 10
156.612135
 20
193.845074
 30
0.0
 10
156.152997
 20
194.110342
 30
0.0
  0
SPLINE
  5
1ac
100
AcDbEntity
  8
0
 62
5
100
AcDbSpline
 70
8
 71
3
 72
8
 73
4
 74
0
 40
0
 40
0
 40
0
 40
0
 40
1
 40
1
 40
1
 40
1
 10
156.152997
 20
194.110342
 30
0.0
 10
155.693859
 20
194.375609
 30
0.0
 10
155.411243
 20
194.865792
 30
0.0
 10
155.411720
 20
195.396051
 30
0.0
  0
LINE
  5
1ad
100
AcDbEntity
  8
0
 62
5
100
AcDbLine
 10
155.411720
 20
195.396051
 30
0.0
 11
155.411720
 21
195.396051
 31
0.0
  0
SPLINE
  5
1ae
100
AcDbEntity
  8
0
 62
5
100
AcDbSpline
 70
8
 71
3
 72
8
 73
4
 74
0
 40
0
 40
0
 40
0
 40
0
 40
1
 40
1
 40
1
 40
1
 10
16.205470
 20
195.396051
 30
0.0
 10
16.205947
 20
195.926310
 30
0.0
 10
15.923331
 20
196.416493
 30
0.0
 10
15.464193
 20
196.681760
 30
0.0
  0
SPLINE
  5
1af
100
AcDbEntity
  8
0
 62
5
100
AcDbSpline
 70
8
 71
3
 72
8
 73
4
 74
0
 40
0
 40
0
 40
0
 40
0
 40
1
 40
1
 40
1
 40
1
 10
15.464193
 20
196.681760
 30
0.0
 10
15.005055
 20
196.947028
 30
0.0
 10
14.439235
 20
196.947028
 30
0.0
 10
13.980097
 20
196.681760
 30
0.0
  0
SPLINE
  5
1b0
100
AcDbEntity
  8
0
 62
5
100
AcDbSpline
 70
8
 71
3
 72
8
 73
4
 74
0
 40
0
 40
0
 40
0
 40
0
 40
1
 40
1
 40
1
 40
1
 10
13.980097
 20
196.681760
 30
0.0
 10
13.520959
 20
196.416493
 30
0.0
 10
13.238343
 20
195.926310
 30
0.0
 10
13.238820
 20
195.396051
 30
0.0
  0
SPLINE
  5
1b1
100
AcDbEntity
  8
0
 62
5
100
AcDbSpline
 70
8
 71
3
 72
8
 73
4
 74
0
 40
0
 40
0
 40
0
 40
0
 40
1
 40
1
 40
1
 40
1
 10
13.238820
 20
195.396051
 30
0.0
 10
13.238343
 20
194.865792
 30
0.0
 10
13.520959
 20
194.375609
 30
0.0
 10
13.980097
 20
194.110342
 30
0.0
  0
SPLINE
  5
1b2
100
AcDbEntity
  8
0
 62
5
100
AcDbSpline
 70
8
 71
3
 72
8
 73
4
 74
0
 40
0
 40
0
 40
0
 40
0
 40
1
 40
1
 40
1
 40
1
 10
13.980097
 20
194.110342
 30
0.0
 10
14.439235
 20
193.845075
 30
0.0
 10
15.005055
 20
193.845075
 30
0.0
 10
15.464193
 20
194.110342
 30
0.0
  0
SPLINE
  5
1b3
100
AcDbEntity
  8
0
 62
5
100
AcDbSpline
 70
8
 71
3
 72
8
 73
4
 74
0
 40
0
 40
0
 40
0
 40
0
 40
1
 40
1
 40
1
 40
1
 10
15.464193
 20
194.110342
 30
0.0
 10
15.923331
 20
194.375609
 30
0.0
 10
16.205947
 20
194.865792
 30
0.0
 10
16.205470
 20
195.396051
 30
0.0
  0
LINE
  5
1b4
100
AcDbEntity
  8
0
 62
5
100
AcDbLine
 10
16.205470
 20
195.396051
 30
0.0
 11
16.205470
 21
195.396051
 31
0.0
  0
LINE
  5
1b5
100
AcDbEntity
  8
0
 62
5
100
AcDbLine
 10
18.451174
 20
161.701655
 30
0.0
 11
18.451174
 21
161.701655
 31
0.0
  0
LINE
  5
1b6
100
AcDbEntity
  8
0
 62
5
100
AcDbLine
 10
18.451174
 20
161.701655
 30
0.0
 11
18.451174
 21
161.701655
 31
0.0
  0
LINE
  5
1b7
100
AcDbEntity
  8
0
 62
5
100
AcDbLine
 10
18.451174
 20
161.701655
 30
0.0
 11
18.451174
 21
161.701655
 31
0.0
  0
LINE
  5
1b8
100
AcDbEntity
  8
0
 62
5
100
AcDbLine
 10
18.451174
 20
161.701655
 30
0.0
 11
18.451174
 21
161.701655
 31
0.0
  0
SPLINE
  5
1b9
100
AcDbEntity
  8
0
 62
5
100
AcDbSpline
 70
8
 71
3
 72
8
 73
4
 74
0
 40
0
 40
0
 40
0
 40
0
 40
1
 40
1
 40
1
 40
1
 10
87.305043
 20
195.396534
 30
0.0
 10
87.305520
 20
195.927148
 30
0.0
 10
87.022904
 20
196.417661
 30
0.0
 10
86.563766
 20
196.683106
 30
0.0
  0
SPLINE
  5
1ba
100
AcDbEntity
  8
0
 62
5
100
AcDbSpline
 70
8
 71
3
 72
8
 73
4
 74
0
 40
0
 40
0
 40
0
 40
0
 40
1
 40
1
 40
1
 40
1
 10
86.563766
 20
196.683106
 30
0.0
 10
86.104628
 20
196.948551
 30
0.0
 10
85.538808
 20
196.948551
 30
0.0
 10
85.079670
 20
196.683106
 30
0.0
  0
SPLINE
  5
1bb
100
AcDbEntity
  8
0
 62
5
100
AcDbSpline
 70
8
 71
3
 72
8
 73
4
 74
0
 40
0
 40
0
 40
0
 40
0
 40
1
 40
1
 40
1
 40
1
 10
85.079670
 20
196.683106
 30
0.0
 10
84.620532
 20
196.417661
 30
0.0
 10
84.337916
 20
195.927148
 30
0.0
 10
84.338393
 20
195.396534
 30
0.0
  0
SPLINE
  5
1bc
100
AcDbEntity
  8
0
 62
5
100
AcDbSpline
 70
8
 71
3
 72
8
 73
4
 74
0
 40
0
 40
0
 40
0
 40
0
 40
1
 40
1
 40
1
 40
1
 10
84.338393
 20
195.396534
 30
0.0
 10
84.337916
 20
194.865919
 30
0.0
 10
84.620532
 20
194.375407
 30
0.0
 10
85.079670
 20
194.109962
 30
0.0
  0
SPLINE
  5
1bd
100
AcDbEntity
  8
0
 62
5
100
AcDbSpline
 70
8
 71
3
 72
8
 73
4
 74
0
 40
0
 40
0
 40
0
 40
0
 40
1
 40
1
 40
1
 40
1
 10
85.079670
 20
194.109962
 30
0.0
 10
85.538808
 20
193.844516
 30
0.0
 10
86.104628
 20
193.844516
 30
0.0
 10
86.563766
 20
194.109962
 30
0.0
  0
SPLINE
  5
1be
100
AcDbEntity
  8
0
 62
5
100
AcDbSpline
 70
8
 71
3
 72
8
 73
4
 74
0
 40
0
 40
0
 40
0
 40
0
 40
1
 40
1
 40
1
 40
1
 10
86.563766
 20
194.109962
 30
0.0
 10
87.022904
 20
194.375407
 30
0.0
 10
87.305520
 20
194.865919
 30
0.0
 10
87.305043
 20
195.396534
 30
0.0
  0
LINE
  5
1bf
100
AcDbEntity
  8
0
 62
5
100
AcDbLine
 10
87.305043
 20
195.396534
 30
0.0
 11
87.305043
 21
195.396534
 31
0.0
  0
LINE
  5
1c0
100
AcDbEntity
  8
0
 62
5
100
AcDbLine
 10
0.153877
 20
35.732890
 30
0.0
 11
0.154312
 21
69.738190
 31
0.0
  0
LINE
  5
1c1
100
AcDbEntity
  8
0
 62
5
100
AcDbLine
 10
0.154312
 20
69.738190
 30
0.0
 11
0.163253
 21
69.960670
 31
0.0
  0
LINE
  5
1c2
100
AcDbEntity
  8
0
 62
5
100
AcDbLine
 10
0.163253
 20
69.960670
 30
0.0
 11
0.190077
 21
70.181730
 31
0.0
  0
LINE
  5
1c3
100
AcDbEntity
  8
0
 62
5
100
AcDbLine
 10
0.190077
 20
70.181730
 30
0.0
 11
0.236274
 21
70.399950
 31
0.0
  0
LINE
  5
1c4
100
AcDbEntity
  8
0
 62
5
100
AcDbLine
 10
0.236274
 20
70.399950
 30
0.0
 11
0.298863
 21
70.615340
 31
0.0
  0
LINE
  5
1c5
100
AcDbEntity
  8
0
 62
5
100
AcDbLine
 10
0.298863
 20
70.615340
 30
0.0
 11
0.380826
 21
70.823640
 31
0.0
  0
LINE
  5
1c6
100
AcDbEntity
  8
0
 62
5
100
AcDbLine
 10
0.380826
 20
70.823640
 30
0.0
 11
0.477690
 21
71.024860
 31
0.0
  0
LINE
  5
1c7
100
AcDbEntity
  8
0
 62
5
100
AcDbLine
 10
0.477690
 20
71.024860
 30
0.0
 11
0.592437
 21
71.219000
 31
0.0
  0
LINE
  5
1c8
100
AcDbEntity
  8
0
 62
5
100
AcDbLine
 10
0.592437
 20
71.219000
 30
0.0
 11
0.722087
 21
71.404630
 31
0.0
  0
LINE
  5
1c9
100
AcDbEntity
  8
0
 62
5
100
AcDbLine
 10
0.722087
 20
71.404630
 30
0.0
 11
0.868129
 21
71.578920
 31
0.0
  0
LINE
  5
1ca
100
AcDbEntity
  8
0
 62
5
100
AcDbLine
 10
0.868129
 20
71.578920
 30
0.0
 11
1.026092
 21
71.743300
 31
0.0
  0
LINE
  5
1cb
100
AcDbEntity
  8
0
 62
5
100
AcDbLine
 10
1.026092
 20
71.743300
 30
0.0
 11
1.198958
 21
71.893500
 31
0.0
  0
LINE
  5
1cc
100
AcDbEntity
  8
0
 62
5
100
AcDbLine
 10
1.198958
 20
71.893500
 30
0.0
 11
1.382255
 21
72.032370
 31
0.0
  0
LINE
  5
1cd
100
AcDbEntity
  8
0
 62
5
100
AcDbLine
 10
1.382255
 20
72.032370
 30
0.0
 11
1.577475
 21
72.155660
 31
0.0
  0
LINE
  5
1ce
100
AcDbEntity
  8
0
 62
5
100
AcDbLine
 10
1.577475
 20
72.155660
 30
0.0
 11
1.781635
 21
72.264770
 31
0.0
  0
LINE
  5
1cf
100
AcDbEntity
  8
0
 62
5
100
AcDbLine
 10
1.781635
 20
72.264770
 30
0.0
 11
1.993247
 21
72.356870
 31
0.0
  0
LINE
  5
1d0
100
AcDbEntity
  8
0
 62
5
100
AcDbLine
 10
1.993247
 20
72.356870
 30
0.0
 11
2.212310
 21
72.434770
 31
0.0
  0
LINE
  5
1d1
100
AcDbEntity
  8
0
 62
5
100
AcDbLine
 10
2.212310
 20
72.434770
 30
0.0
 11
2.438823
 21
72.494270
 31
0.0
  0
LINE
  5
1d2
100
AcDbEntity
  8
0
 62
5
100
AcDbLine
 10
2.438823
 20
72.494270
 30
0.0
 11
2.668318
 21
72.538170
 31
0.0
  0
LINE
  5
1d3
100
AcDbEntity
  8
0
 62
5
100
AcDbLine
 10
2.668318
 20
72.538170
 30
0.0
 11
2.900792
 21
72.563670
 31
0.0
  0
LINE
  5
1d4
100
AcDbEntity
  8
0
 62
5
100
AcDbLine
 10
2.900792
 20
72.563670
 30
0.0
 11
3.134757
 21
72.573670
 31
0.0
  0
LINE
  5
1d5
100
AcDbEntity
  8
0
 62
5
100
AcDbLine
 10
3.134757
 20
72.573670
 30
0.0
 11
170.486780
 21
72.572670
 31
0.0
  0
LINE
  5
1d6
100
AcDbEntity
  8
0
 62
5
100
AcDbLine
 10
170.486780
 20
72.572670
 30
0.0
 11
170.720740
 21
72.564670
 31
0.0
  0
LINE
  5
1d7
100
AcDbEntity
  8
0
 62
5
100
AcDbLine
 10
170.720740
 20
72.564670
 30
0.0
 11
170.953220
 21
72.539170
 31
0.0
  0
LINE
  5
1d8
100
AcDbEntity
  8
0
 62
5
100
AcDbLine
 10
170.953220
 20
72.539170
 30
0.0
 11
171.182710
 21
72.495270
 31
0.0
  0
LINE
  5
1d9
100
AcDbEntity
  8
0
 62
5
100
AcDbLine
 10
171.182710
 20
72.495270
 30
0.0
 11
171.409230
 21
72.435770
 31
0.0
  0
LINE
  5
1da
100
AcDbEntity
  8
0
 62
5
100
AcDbLine
 10
171.409230
 20
72.435770
 30
0.0
 11
171.628290
 21
72.357870
 31
0.0
  0
LINE
  5
1db
100
AcDbEntity
  8
0
 62
5
100
AcDbLine
 10
171.628290
 20
72.357870
 30
0.0
 11
171.839900
 21
72.265770
 31
0.0
  0
LINE
  5
1dc
100
AcDbEntity
  8
0
 62
5
100
AcDbLine
 10
171.839900
 20
72.265770
 30
0.0
 11
172.044060
 21
72.156660
 31
0.0
  0
LINE
  5
1dd
100
AcDbEntity
  8
0
 62
5
100
AcDbLine
 10
172.044060
 20
72.156660
 30
0.0
 11
172.239280
 21
72.033370
 31
0.0
  0
LINE
  5
1de
100
AcDbEntity
  8
0
 62
5
100
AcDbLine
 10
172.239280
 20
72.033370
 30
0.0
 11
172.422580
 21
71.894500
 31
0.0
  0
LINE
  5
1df
100
AcDbEntity
  8
0
 62
5
100
AcDbLine
 10
172.422580
 20
71.894500
 30
0.0
 11
172.595440
 21
71.744300
 31
0.0
  0
LINE
  5
1e0
100
AcDbEntity
  8
0
 62
5
100
AcDbLine
 10
172.595440
 20
71.744300
 30
0.0
 11
172.753410
 21
71.579920
 31
0.0
  0
LINE
  5
1e1
100
AcDbEntity
  8
0
 62
5
100
AcDbLine
 10
172.753410
 20
71.579920
 30
0.0
 11
172.899450
 21
71.405630
 31
0.0
  0
LINE
  5
1e2
100
AcDbEntity
  8
0
 62
5
100
AcDbLine
 10
172.899450
 20
71.405630
 30
0.0
 11
173.029100
 21
71.220000
 31
0.0
  0
LINE
  5
1e3
100
AcDbEntity
  8
0
 62
5
100
AcDbLine
 10
173.029100
 20
71.220000
 30
0.0
 11
173.143850
 21
71.025860
 31
0.0
  0
LINE
  5
1e4
100
AcDbEntity
  8
0
 62
5
100
AcDbLine
 10
173.143850
 20
71.025860
 30
0.0
 11
173.240750
 21
70.824640
 31
0.0
  0
LINE
  5
1e5
100
AcDbEntity
  8
0
 62
5
100
AcDbLine
 10
173.240750
 20
70.824640
 30
0.0
 11
173.322750
 21
70.616340
 31
0.0
  0
LINE
  5
1e6
100
AcDbEntity
  8
0
 62
5
100
AcDbLine
 10
173.322750
 20
70.616340
 30
0.0
 11
173.385350
 21
70.400950
 31
0.0
  0
LINE
  5
1e7
100
AcDbEntity
  8
0
 62
5
100
AcDbLine
 10
173.385350
 20
70.400950
 30
0.0
 11
173.431550
 21
70.182730
 31
0.0
  0
LINE
  5
1e8
100
AcDbEntity
  8
0
 62
5
100
AcDbLine
 10
173.431550
 20
70.182730
 30
0.0
 11
173.458350
 21
69.961670
 31
0.0
  0
LINE
  5
1e9
100
AcDbEntity
  8
0
 62
5
100
AcDbLine
 10
173.458350
 20
69.961670
 30
0.0
 11
173.467350
 21
69.739190
 31
0.0
  0
LINE
  5
1ea
100
AcDbEntity
  8
0
 62
5
100
AcDbLine
 10
173.467350
 20
69.739190
 30
0.0
 11
173.467350
 21
35.868070
 31
0.0
  0
LINE
  5
1eb
100
AcDbEntity
  8
0
 62
5
100
AcDbLine
 10
173.467350
 20
35.868070
 30
0.0
 11
0.153877
 21
35.732890
 31
0.0
  0
SPLINE
  5
1ec
100
AcDbEntity
  8
0
 62
5
100
AcDbSpline
 70
8
 71
3
 72
8
 73
4
 74
0
 40
0
 40
0
 40
0
 40
0
 40
1
 40
1
 40
1
 40
1
 10
58.462551
 20
47.345040
 30
0.0
 10
58.463197
 20
47.875411
 30
0.0
 10
58.180618
 20
48.365771
 30
0.0
 10
57.721411
 20
48.631143
 30
0.0
  0
SPLINE
  5
1ed
100
AcDbEntity
  8
0
 62
5
100
AcDbSpline
 70
8
 71
3
 72
8
 73
4
 74
0
 40
0
 40
0
 40
0
 40
0
 40
1
 40
1
 40
1
 40
1
 10
57.721411
 20
48.631143
 30
0.0
 10
57.262203
 20
48.896515
 30
0.0
 10
56.696250
 20
48.896515
 30
0.0
 10
56.237042
 20
48.631143
 30
0.0
  0
SPLINE
  5
1ee
100
AcDbEntity
  8
0
 62
5
100
AcDbSpline
 70
8
 71
3
 72
8
 73
4
 74
0
 40
0
 40
0
 40
0
 40
0
 40
1
 40
1
 40
1
 40
1
 10
56.237042
 20
48.631143
 30
0.0
 10
55.777835
 20
48.365771
 30
0.0
 10
55.495256
 20
47.875411
 30
0.0
 10
55.495902
 20
47.345040
 30
0.0
  0
SPLINE
  5
1ef
100
AcDbEntity
  8
0
 62
5
100
AcDbSpline
 70
8
 71
3
 72
8
 73
4
 74
0
 40
0
 40
0
 40
0
 40
0
 40
1
 40
1
 40
1
 40
1
 10
55.495902
 20
47.345040
 30
0.0
 10
55.495256
 20
46.814669
 30
0.0
 10
55.777835
 20
46.324309
 30
0.0
 10
56.237042
 20
46.058937
 30
0.0
  0
SPLINE
  5
1f0
100
AcDbEntity
  8
0
 62
5
100
AcDbSpline
 70
8
 71
3
 72
8
 73
4
 74
0
 40
0
 40
0
 40
0
 40
0
 40
1
 40
1
 40
1
 40
1
 10
56.237042
 20
46.058937
 30
0.0
 10
56.696250
 20
45.793565
 30
0.0
 10
57.262203
 20
45.793565
 30
0.0
 10
57.721411
 20
46.058937
 30
0.0
  0
SPLINE
  5
1f1
100
AcDbEntity
  8
0
 62
5
100
AcDbSpline
 70
8
 71
3
 72
8
 73
4
 74
0
 40
0
 40
0
 40
0
 40
0
 40
1
 40
1
 40
1
 40
1
 10
57.721411
 20
46.058937
 30
0.0
 10
58.180618
 20
46.324309
 30
0.0
 10
58.463197
 20
46.814669
 30
0.0
 10
58.462551
 20
47.345040
 30
0.0
  0
LINE
  5
1f2
100
AcDbEntity
  8
0
 62
5
100
AcDbLine
 10
58.462551
 20
47.345040
 30
0.0
 11
58.462551
 21
47.345040
 31
0.0
  0
SPLINE
  5
1f3
100
AcDbEntity
  8
0
 62
5
100
AcDbSpline
 70
8
 71
3
 72
8
 73
4
 74
0
 40
0
 40
0
 40
0
 40
0
 40
1
 40
1
 40
1
 40
1
 10
115.611560
 20
47.345040
 30
0.0
 10
115.612037
 20
47.875299
 30
0.0
 10
115.329421
 20
48.365482
 30
0.0
 10
114.870283
 20
48.630749
 30
0.0
  0
SPLINE
  5
1f4
100
AcDbEntity
  8
0
 62
5
100
AcDbSpline
 70
8
 71
3
 72
8
 73
4
 74
0
 40
0
 40
0
 40
0
 40
0
 40
1
 40
1
 40
1
 40
1
 10
114.870283
 20
48.630749
 30
0.0
 10
114.411145
 20
48.896017
 30
0.0
 10
113.845325
 20
48.896017
 30
0.0
 10
113.386187
 20
48.630749
 30
0.0
  0
SPLINE
  5
1f5
100
AcDbEntity
  8
0
 62
5
100
AcDbSpline
 70
8
 71
3
 72
8
 73
4
 74
0
 40
0
 40
0
 40
0
 40
0
 40
1
 40
1
 40
1
 40
1
 10
113.386187
 20
48.630749
 30
0.0
 10
112.927049
 20
48.365482
 30
0.0
 10
112.644433
 20
47.875299
 30
0.0
 10
112.644910
 20
47.345040
 30
0.0
  0
SPLINE
  5
1f6
100
AcDbEntity
  8
0
 62
5
100
AcDbSpline
 70
8
 71
3
 72
8
 73
4
 74
0
 40
0
 40
0
 40
0
 40
0
 40
1
 40
1
 40
1
 40
1
 10
112.644910
 20
47.345040
 30
0.0
 10
112.644433
 20
46.814781
 30
0.0
 10
112.927049
 20
46.324598
 30
0.0
 10
113.386187
 20
46.059331
 30
0.0
  0
SPLINE
  5
1f7
100
AcDbEntity
  8
0
 62
5
100
AcDbSpline
 70
8
 71
3
 72
8
 73
4
 74
0
 40
0
 40
0
 40
0
 40
0
 40
1
 40
1
 40
1
 40
1
 10
113.386187
 20
46.059331
 30
0.0
 10
113.845325
 20
45.794063
 30
0.0
 10
114.411145
 20
45.794063
 30
0.0
 10
114.870283
 20
46.059331
 30
0.0
  0
SPLINE
  5
1f8
100
AcDbEntity
  8
0
 62
5
100
AcDbSpline
 70
8
 71
3
 72
8
 73
4
 74
0
 40
0
 40
0
 40
0
 40
0
 40
1
 40
1
 40
1
 40
1
 10
114.870283
 20
46.059331
 30
0.0
 10
115.329421
 20
46.324598
 30
0.0
 10
115.612037
 20
46.814781
 30
0.0
 10
115.611560
 20
47.345040
 30
0.0
  0
LINE
  5
1f9
100
AcDbEntity
  8
0
 62
5
100
AcDbLine
 10
115.611560
 20
47.345040
 30
0.0
 11
115.611560
 21
47.345040
 31
0.0
  0
SPLINE
  5
1fa
100
AcDbEntity
  8
0
 62
5
100
AcDbSpline
 70
8
 71
3
 72
8
 73
4
 74
0
 40
0
 40
0
 40
0
 40
0
 40
1
 40
1
 40
1
 40
1
 10
155.410670
 20
68.116040
 30
0.0
 10
155.410193
 20
68.646299
 30
0.0
 10
155.692809
 20
69.136482
 30
0.0
 10
156.151947
 20
69.401749
 30
0.0
  0
SPLINE
  5
1fb
100
AcDbEntity
  8
0
 62
5
100
AcDbSpline
 70
8
 71
3
 72
8
 73
4
 74
0
 40
0
 40
0
 40
0
 40
0
 40
1
 40
1
 40
1
 40
1
 10
156.151947
 20
69.401749
 30
0.0
 10
156.611085
 20
69.667017
 30
0.0
 10
157.176905
 20
69.667017
 30
0.0
 10
157.636043
 20
69.401749
 30
0.0
  0
SPLINE
  5
1fc
100
AcDbEntity
  8
0
 62
5
100
AcDbSpline
 70
8
 71
3
 72
8
 73
4
 74
0
 40
0
 40
0
 40
0
 40
0
 40
1
 40
1
 40
1
 40
1
 10
157.636043
 20
69.401749
 30
0.0
 10
158.095181
 20
69.136482
 30
0.0
 10
158.377797
 20
68.646299
 30
0.0
 10
158.377320
 20
68.116040
 30
0.0
  0
SPLINE
  5
1fd
100
AcDbEntity
  8
0
 62
5
100
AcDbSpline
 70
8
 71
3
 72
8
 73
4
 74
0
 40
0
 40
0
 40
0
 40
0
 40
1
 40
1
 40
1
 40
1
 10
158.377320
 20
68.116040
 30
0.0
 10
158.377797
 20
67.585781
 30
0.0
 10
158.095181
 20
67.095598
 30
0.0
 10
157.636043
 20
66.830331
 30
0.0
  0
SPLINE
  5
1fe
100
AcDbEntity
  8
0
 62
5
100
AcDbSpline
 70
8
 71
3
 72
8
 73
4
 74
0
 40
0
 40
0
 40
0
 40
0
 40
1
 40
1
 40
1
 40
1
 10
157.636043
 20
66.830331
 30
0.0
 10
157.176905
 20
66.565063
 30
0.0
 10
156.611085
 20
66.565063
 30
0.0
 10
156.151947
 20
66.830331
 30
0.0
  0
SPLINE
  5
1ff
100
AcDbEntity
  8
0
 62
5
100
AcDbSpline
 70
8
 71
3
 72
8
 73
4
 74
0
 40
0
 40
0
 40
0
 40
0
 40
1
 40
1
 40
1
 40
1
 10
156.151947
 20
66.830331
 30
0.0
 10
155.692809
 20
67.095598
 30
0.0
 10
155.410193
 20
67.585781
 30
0.0
 10
155.410670
 20
68.116040
 30
0.0
  0
LINE
  5
200
100
AcDbEntity
  8
0
 62
5
100
AcDbLine
 10
155.410670
 20
68.116040
 30
0.0
 11
155.410670
 21
68.116040
 31
0.0
  0
SPLINE
  5
201
100
AcDbEntity
  8
0
 62
5
100
AcDbSpline
 70
8
 71
3
 72
8
 73
4
 74
0
 40
0
 40
0
 40
0
 40
0
 40
1
 40
1
 40
1
 40
1
 10
16.204417
 20
68.116040
 30
0.0
 10
16.204612
 20
68.646111
 30
0.0
 10
15.921934
 20
69.136000
 30
0.0
 10
15.462912
 20
69.401092
 30
0.0
  0
SPLINE
  5
202
100
AcDbEntity
  8
0
 62
5
100
AcDbSpline
 70
8
 71
3
 72
8
 73
4
 74
0
 40
0
 40
0
 40
0
 40
0
 40
1
 40
1
 40
1
 40
1
 10
15.462912
 20
69.401092
 30
0.0
 10
15.003889
 20
69.666183
 30
0.0
 10
14.438294
 20
69.666183
 30
0.0
 10
13.979271
 20
69.401092
 30
0.0
  0
SPLINE
  5
203
100
AcDbEntity
  8
0
 62
5
100
AcDbSpline
 70
8
 71
3
 72
8
 73
4
 74
0
 40
0
 40
0
 40
0
 40
0
 40
1
 40
1
 40
1
 40
1
 10
13.979271
 20
69.401092
 30
0.0
 10
13.520249
 20
69.136000
 30
0.0
 10
13.237571
 20
68.646111
 30
0.0
 10
13.237766
 20
68.116040
 30
0.0
  0
SPLINE
  5
204
100
AcDbEntity
  8
0
 62
5
100
AcDbSpline
 70
8
 71
3
 72
8
 73
4
 74
0
 40
0
 40
0
 40
0
 40
0
 40
1
 40
1
 40
1
 40
1
 10
13.237766
 20
68.116040
 30
0.0
 10
13.237571
 20
67.585969
 30
0.0
 10
13.520249
 20
67.096080
 30
0.0
 10
13.979271
 20
66.830988
 30
0.0
  0
SPLINE
  5
205
100
AcDbEntity
  8
0
 62
5
100
AcDbSpline
 70
8
 71
3
 72
8
 73
4
 74
0
 40
0
 40
0
 40
0
 40
0
 40
1
 40
1
 40
1
 40
1
 10
13.979271
 20
66.830988
 30
0.0
 10
14.438294
 20
66.565897
 30
0.0
 10
15.003889
 20
66.565897
 30
0.0
 10
15.462912
 20
66.830988
 30
0.0
  0
SPLINE
  5
206
100
AcDbEntity
  8
0
 62
5
100
AcDbSpline
 70
8
 71
3
 72
8
 73
4
 74
0
 40
0
 40
0
 40
0
 40
0
 40
1
 40
1
 40
1
 40
1
 10
15.462912
 20
66.830988
 30
0.0
 10
15.921934
 20
67.096080
 30
0.0
 10
16.204612
 20
67.585969
 30
0.0
 10
16.204417
 20
68.116040
 30
0.0
  0
LINE
  5
207
100
AcDbEntity
  8
0
 62
5
100
AcDbLine
 10
16.204417
 20
68.116040
 30
0.0
 11
16.204417
 21
68.116040
 31
0.0
  0
SPLINE
  5
208
100
AcDbEntity
  8
0
 62
5
100
AcDbSpline
 70
8
 71
3
 72
8
 73
4
 74
0
 40
0
 40
0
 40
0
 40
0
 40
1
 40
1
 40
1
 40
1
 10
87.374700
 20
68.050300
 30
0.0
 10
87.375177
 20
68.580915
 30
0.0
 10
87.092561
 20
69.071427
 30
0.0
 10
86.633423
 20
69.336872
 30
0.0
  0
SPLINE
  5
209
100
AcDbEntity
  8
0
 62
5
100
AcDbSpline
 70
8
 71
3
 72
8
 73
4
 74
0
 40
0
 40
0
 40
0
 40
0
 40
1
 40
1
 40
1
 40
1
 10
86.633423
 20
69.336872
 30
0.0
 10
86.174285
 20
69.602317
 30
0.0
 10
85.608465
 20
69.602317
 30
0.0
 10
85.149327
 20
69.336872
 30
0.0
  0
SPLINE
  5
20a
100
AcDbEntity
  8
0
 62
5
100
AcDbSpline
 70
8
 71
3
 72
8
 73
4
 74
0
 40
0
 40
0
 40
0
 40
0
 40
1
 40
1
 40
1
 40
1
 10
85.149327
 20
69.336872
 30
0.0
 10
84.690189
 20
69.071427
 30
0.0
 10
84.407573
 20
68.580915
 30
0.0
 10
84.408050
 20
68.050300
 30
0.0
  0
SPLINE
  5
20b
100
AcDbEntity
  8
0
 62
5
100
AcDbSpline
 70
8
 71
3
 72
8
 73
4
 74
0
 40
0
 40
0
 40
0
 40
0
 40
1
 40
1
 40
1
 40
1
 10
84.408050
 20
68.050300
 30
0.0
 10
84.407573
 20
67.519685
 30
0.0
 10
84.690189
 20
67.029173
 30
0.0
 10
85.149327
 20
66.763728
 30
0.0
  0
SPLINE
  5
20c
100
AcDbEntity
  8
0
 62
5
100
AcDbSpline
 70
8
 71
3
 72
8
 73
4
 74
0
 40
0
 40
0
 40
0
 40
0
 40
1
 40
1
 40
1
 40
1
 10
85.149327
 20
66.763728
 30
0.0
 10
85.608465
 20
66.498283
 30
0.0
 10
86.174285
 20
66.498283
 30
0.0
 10
86.633423
 20
66.763728
 30
0.0
  0
SPLINE
  5
20d
100
AcDbEntity
  8
0
 62
5
100
AcDbSpline
 70
8
 71
3
 72
8
 73
4
 74
0
 40
0
 40
0
 40
0
 40
0
 40
1
 40
1
 40
1
 40
1
 10
86.633423
 20
66.763728
 30
0.0
 10
87.092561
 20
67.029173
 30
0.0
 10
87.375177
 20
67.519685
 30
0.0
 10
87.374700
 20
68.050300
 30
0.0
  0
LINE
  5
20e
100
AcDbEntity
  8
0
 62
5
100
AcDbLine
 10
87.374700
 20
68.050300
 30
0.0
 11
87.374700
 21
68.050300
 31
0.0
  0
SPLINE
  5
20f
100
AcDbEntity
  8
0
 62
5
100
AcDbSpline
 70
8
 71
3
 72
8
 73
4
 74
0
 40
0
 40
0
 40
0
 40
0
 40
1
 40
1
 40
1
 40
1
 10
180.751670
 20
151.706070
 30
0.0
 10
180.753670
 20
151.410440
 30
0.0
 10
180.802470
 20
150.774380
 30
0.0
 10
180.944990
 20
150.426190
 30
0.0
  0
SPLINE
  5
210
100
AcDbEntity
  8
0
 62
5
100
AcDbSpline
 70
8
 71
3
 72
8
 73
4
 74
0
 40
0
 40
0
 40
0
 40
0
 40
1
 40
1
 40
1
 40
1
 10
180.944990
 20
150.426190
 30
0.0
 10
181.060350
 20
150.144670
 30
0.0
 10
181.206400
 20
150.052950
 30
0.0
 10
181.394080
 20
149.931590
 30
0.0
  0
SPLINE
  5
211
100
AcDbEntity
  8
0
 62
5
100
AcDbSpline
 70
8
 71
3
 72
8
 73
4
 74
0
 40
0
 40
0
 40
0
 40
0
 40
1
 40
1
 40
1
 40
1
 10
181.394080
 20
149.931590
 30
0.0
 10
181.422680
 20
149.913290
 30
0.0
 10
181.452280
 20
149.893790
 30
0.0
 10
181.482580
 20
149.873390
 30
0.0
  0
LINE
  5
212
100
AcDbEntity
  8
0
 62
5
100
AcDbLine
 10
180.751670
 20
199.360700
 30
0.0
 11
180.751670
 21
151.706070
 31
0.0
  0
SPLINE
  5
213
100
AcDbEntity
  8
0
 62
5
100
AcDbSpline
 70
8
 71
3
 72
8
 73
4
 74
0
 40
0
 40
0
 40
0
 40
0
 40
1
 40
1
 40
1
 40
1
 10
198.757440
 20
139.784650
 30
0.0
 10
199.161730
 20
139.614610
 30
0.0
 10
199.627390
 20
139.804050
 30
0.0
 10
199.797430
 20
140.209040
 30
0.0
  0
SPLINE
  5
214
100
AcDbEntity
  8
0
 62
5
100
AcDbSpline
 70
8
 71
3
 72
8
 73
4
 74
0
 40
0
 40
0
 40
0
 40
0
 40
1
 40
1
 40
1
 40
1
 10
199.797430
 20
140.209040
 30
0.0
 10
199.822830
 20
140.268640
 30
0.0
 10
199.840430
 20
140.331100
 30
0.0
 10
199.850730
 20
140.395310
 30
0.0
  0
LINE
  5
215
100
AcDbEntity
  8
0
 62
5
100
AcDbLine
 10
181.482620
 20
149.873390
 30
0.0
 11
198.756390
 21
139.784290
 31
0.0
  0
SPLINE
  5
216
100
AcDbEntity
  8
0
 62
5
100
AcDbSpline
 70
8
 71
3
 72
8
 73
4
 74
0
 40
0
 40
0
 40
0
 40
0
 40
1
 40
1
 40
1
 40
1
 10
199.850000
 20
199.349760
 30
0.0
 10
199.850000
 20
199.625990
 30
0.0
 10
199.626690
 20
199.850000
 30
0.0
 10
199.350110
 20
199.850000
 30
0.0
  0
LINE
  5
217
100
AcDbEntity
  8
0
 62
5
100
AcDbLine
 10
199.850000
 20
140.394600
 30
0.0
 11
199.850000
 21
199.349760
 31
0.0
  0
SPLINE
  5
218
100
AcDbEntity
  8
0
 62
5
100
AcDbSpline
 70
8
 71
3
 72
8
 73
4
 74
0
 40
0
 40
0
 40
0
 40
0
 40
1
 40
1
 40
1
 40
1
 10
181.251550
 20
199.849650
 30
0.0
 10
180.975680
 20
199.849650
 30
0.0
 10
180.752730
 20
199.625280
 30
0.0
 10
180.752730
 20
199.349410
 30
0.0
  0
LINE
  5
219
100
AcDbEntity
  8
0
 62
5
100
AcDbLine
 10
199.349410
 20
199.849300
 30
0.0
 11
183.259560
 21
199.849300
 31
0.0
  0
LINE
  5
21a
100
AcDbEntity
  8
0
 62
5
100
AcDbLine
 10
183.259560
 20
199.849300
 30
0.0
 11
181.252610
 21
199.849300
 31
0.0
  0
SPLINE
  5
21b
100
AcDbEntity
  8
0
 62
5
100
AcDbSpline
 70
8
 71
3
 72
8
 73
4
 74
0
 40
0
 40
0
 40
0
 40
0
 40
1
 40
1
 40
1
 40
1
 10
181.757790
 20
152.104350
 30
0.0
 10
181.757080
 20
151.496870
 30
0.0
 10
182.249560
 20
151.005100
 30
0.0
 10
182.857050
 20
151.005100
 30
0.0
  0
SPLINE
  5
21c
100
AcDbEntity
  8
0
 62
5
100
AcDbSpline
 70
8
 71
3
 72
8
 73
4
 74
0
 40
0
 40
0
 40
0
 40
0
 40
1
 40
1
 40
1
 40
1
 10
182.857050
 20
151.005100
 30
0.0
 10
183.464530
 20
151.005100
 30
0.0
 10
183.957710
 20
151.496870
 30
0.0
 10
183.957710
 20
152.104350
 30
0.0
  0
SPLINE
  5
21d
100
AcDbEntity
  8
0
 62
5
100
AcDbSpline
 70
8
 71
3
 72
8
 73
4
 74
0
 40
0
 40
0
 40
0
 40
0
 40
1
 40
1
 40
1
 40
1
 10
183.957710
 20
152.104350
 30
0.0
 10
183.957710
 20
152.712540
 30
0.0
 10
183.464530
 20
153.204310
 30
0.0
 10
182.857050
 20
153.204310
 30
0.0
  0
SPLINE
  5
21e
100
AcDbEntity
  8
0
 62
5
100
AcDbSpline
 70
8
 71
3
 72
8
 73
4
 74
0
 40
0
 40
0
 40
0
 40
0
 40
1
 40
1
 40
1
 40
1
 10
182.857050
 20
153.204310
 30
0.0
 10
182.249560
 20
153.204310
 30
0.0
 10
181.757080
 20
152.712540
 30
0.0
 10
181.757080
 20
152.104350
 30
0.0
  0
SPLINE
  5
21f
100
AcDbEntity
  8
0
 62
5
100
AcDbSpline
 70
8
 71
3
 72
8
 73
4
 74
0
 40
0
 40
0
 40
0
 40
0
 40
1
 40
1
 40
1
 40
1
 10
196.256960
 20
143.604530
 30
0.0
 10
196.256960
 20
142.997390
 30
0.0
 10
196.748730
 20
142.505270
 30
0.0
 10
197.356210
 20
142.505270
 30
0.0
  0
SPLINE
  5
220
100
AcDbEntity
  8
0
 62
5
100
AcDbSpline
 70
8
 71
3
 72
8
 73
4
 74
0
 40
0
 40
0
 40
0
 40
0
 40
1
 40
1
 40
1
 40
1
 10
197.356210
 20
142.505270
 30
0.0
 10
197.964400
 20
142.505270
 30
0.0
 10
198.456880
 20
142.997390
 30
0.0
 10
198.456880
 20
143.604530
 30
0.0
  0
SPLINE
  5
221
100
AcDbEntity
  8
0
 62
5
100
AcDbSpline
 70
8
 71
3
 72
8
 73
4
 74
0
 40
0
 40
0
 40
0
 40
0
 40
1
 40
1
 40
1
 40
1
 10
198.456880
 20
143.604530
 30
0.0
 10
198.456880
 20
144.212010
 30
0.0
 10
197.964400
 20
144.704840
 30
0.0
 10
197.356210
 20
144.704840
 30
0.0
  0
SPLINE
  5
222
100
AcDbEntity
  8
0
 62
5
100
AcDbSpline
 70
8
 71
3
 72
8
 73
4
 74
0
 40
0
 40
0
 40
0
 40
0
 40
1
 40
1
 40
1
 40
1
 10
197.356210
 20
144.704840
 30
0.0
 10
196.748730
 20
144.704840
 30
0.0
 10
196.256960
 20
144.212010
 30
0.0
 10
196.256960
 20
143.604530
 30
0.0
  0
SPLINE
  5
223
100
AcDbEntity
  8
0
 62
5
100
AcDbSpline
 70
8
 71
3
 72
8
 73
4
 74
0
 40
0
 40
0
 40
0
 40
0
 40
1
 40
1
 40
1
 40
1
 10
151.706070
 20
19.248330
 30
0.0
 10
151.410440
 20
19.246330
 30
0.0
 10
150.774380
 20
19.197530
 30
0.0
 10
150.426190
 20
19.055010
 30
0.0
  0
SPLINE
  5
224
100
AcDbEntity
  8
0
 62
5
100
AcDbSpline
 70
8
 71
3
 72
8
 73
4
 74
0
 40
0
 40
0
 40
0
 40
0
 40
1
 40
1
 40
1
 40
1
 10
150.426190
 20
19.055010
 30
0.0
 10
150.144670
 20
18.939650
 30
0.0
 10
150.052950
 20
18.793600
 30
0.0
 10
149.931590
 20
18.605920
 30
0.0
  0
SPLINE
  5
225
100
AcDbEntity
  8
0
 62
5
100
AcDbSpline
 70
8
 71
3
 72
8
 73
4
 74
0
 40
0
 40
0
 40
0
 40
0
 40
1
 40
1
 40
1
 40
1
 10
149.931590
 20
18.605920
 30
0.0
 10
149.913290
 20
18.577320
 30
0.0
 10
149.893790
 20
18.547720
 30
0.0
 10
149.873390
 20
18.517420
 30
0.0
  0
LINE
  5
226
100
AcDbEntity
  8
0
 62
5
100
AcDbLine
 10
199.360700
 20
19.248330
 30
0.0
 11
151.706070
 21
19.248330
 31
0.0
  0
SPLINE
  5
227
100
AcDbEntity
  8
0
 62
5
100
AcDbSpline
 70
8
 71
3
 72
8
 73
4
 74
0
 40
0
 40
0
 40
0
 40
0
 40
1
 40
1
 40
1
 40
1
 10
139.784650
 20
1.242560
 30
0.0
 10
139.614610
 20
0.838270
 30
0.0
 10
139.804050
 20
0.372610
 30
0.0
 10
140.209040
 20
0.202570
 30
0.0
  0
SPLINE
  5
228
100
AcDbEntity
  8
0
 62
5
100
AcDbSpline
 70
8
 71
3
 72
8
 73
4
 74
0
 40
0
 40
0
 40
0
 40
0
 40
1
 40
1
 40
1
 40
1
 10
140.209040
 20
0.202570
 30
0.0
 10
140.268640
 20
0.177170
 30
0.0
 10
140.331100
 20
0.159570
 30
0.0
 10
140.395310
 20
0.149270
 30
0.0
  0
LINE
  5
229
100
AcDbEntity
  8
0
 62
5
100
AcDbLine
 10
149.873390
 20
18.517380
 30
0.0
 11
139.784290
 21
1.243610
 31
0.0
  0
SPLINE
  5
22a
100
AcDbEntity
  8
0
 62
5
100
AcDbSpline
 70
8
 71
3
 72
8
 73
4
 74
0
 40
0
 40
0
 40
0
 40
0
 40
1
 40
1
 40
1
 40
1
 10
199.349760
 20
0.150000
 30
0.0
 10
199.625990
 20
0.150000
 30
0.0
 10
199.850000
 20
0.373310
 30
0.0
 10
199.850000
 20
0.649890
 30
0.0
  0
LINE
  5
22b
100
AcDbEntity
  8
0
 62
5
100
AcDbLine
 10
140.394600
 20
0.150000
 30
0.0
 11
199.349760
 21
0.150000
 31
0.0
  0
SPLINE
  5
22c
100
AcDbEntity
  8
0
 62
5
100
AcDbSpline
 70
8
 71
3
 72
8
 73
4
 74
0
 40
0
 40
0
 40
0
 40
0
 40
1
 40
1
 40
1
 40
1
 10
199.849650
 20
18.748450
 30
0.0
 10
199.849650
 20
19.024320
 30
0.0
 10
199.625280
 20
19.247270
 30
0.0
 10
199.349410
 20
19.247270
 30
0.0
  0
LINE
  5
22d
100
AcDbEntity
  8
0
 62
5
100
AcDbLine
 10
199.849300
 20
0.650590
 30
0.0
 11
199.849300
 21
16.740440
 31
0.0
  0
LINE
  5
22e
100
AcDbEntity
  8
0
 62
5
100
AcDbLine
 10
199.849300
 20
16.740440
 30
0.0
 11
199.849300
 21
18.747390
 31
0.0
  0
SPLINE
  5
22f
100
AcDbEntity
  8
0
 62
5
100
AcDbSpline
 70
8
 71
3
 72
8
 73
4
 74
0
 40
0
 40
0
 40
0
 40
0
 40
1
 40
1
 40
1
 40
1
 10
152.104350
 20
18.242210
 30
0.0
 10
151.496870
 20
18.242920
 30
0.0
 10
151.005100
 20
17.750440
 30
0.0
 10
151.005100
 20
17.142950
 30
0.0
  0
SPLINE
  5
230
100
AcDbEntity
  8
0
 62
5
100
AcDbSpline
 70
8
 71
3
 72
8
 73
4
 74
0
 40
0
 40
0
 40
0
 40
0
 40
1
 40
1
 40
1
 40
1
 10
151.005100
 20
17.142950
 30
0.0
 10
151.005100
 20
16.535470
 30
0.0
 10
151.496870
 20
16.042290
 30
0.0
 10
152.104350
 20
16.042290
 30
0.0
  0
SPLINE
  5
231
100
AcDbEntity
  8
0
 62
5
100
AcDbSpline
 70
8
 71
3
 72
8
 73
4
 74
0
 40
0
 40
0
 40
0
 40
0
 40
1
 40
1
 40
1
 40
1
 10
152.104350
 20
16.042290
 30
0.0
 10
152.712540
 20
16.042290
 30
0.0
 10
153.204310
 20
16.535470
 30
0.0
 10
153.204310
 20
17.142950
 30
0.0
  0
SPLINE
  5
232
100
AcDbEntity
  8
0
 62
5
100
AcDbSpline
 70
8
 71
3
 72
8
 73
4
 74
0
 40
0
 40
0
 40
0
 40
0
 40
1
 40
1
 40
1
 40
1
 10
153.204310
 20
17.142950
 30
0.0
 10
153.204310
 20
17.750440
 30
0.0
 10
152.712540
 20
18.242920
 30
0.0
 10
152.104350
 20
18.242920
 30
0.0
  0
SPLINE
  5
233
100
AcDbEntity
  8
0
 62
5
100
AcDbSpline
 70
8
 71
3
 72
8
 73
4
 74
0
 40
0
 40
0
 40
0
 40
0
 40
1
 40
1
 40
1
 40
1
 10
143.604530
 20
3.743040
 30
0.0
 10
142.997390
 20
3.743040
 30
0.0
 10
142.505270
 20
3.251270
 30
0.0
 10
142.505270
 20
2.643790
 30
0.0
  0
SPLINE
  5
234
100
AcDbEntity
  8
0
 62
5
100
AcDbSpline
 70
8
 71
3
 72
8
 73
4
 74
0
 40
0
 40
0
 40
0
 40
0
 40
1
 40
1
 40
1
 40
1
 10
142.505270
 20
2.643790
 30
0.0
 10
142.505270
 20
2.035600
 30
0.0
 10
142.997390
 20
1.543120
 30
0.0
 10
143.604530
 20
1.543120
 30
0.0
  0
SPLINE
  5
235
100
AcDbEntity
  8
0
 62
5
100
AcDbSpline
 70
8
 71
3
 72
8
 73
4
 74
0
 40
0
 40
0
 40
0
 40
0
 40
1
 40
1
 40
1
 40
1
 10
143.604530
 20
1.543120
 30
0.0
 10
144.212010
 20
1.543120
 30
0.0
 10
144.704840
 20
2.035600
 30
0.0
 10
144.704840
 20
2.643790
 30
0.0
  0
SPLINE
  5
236
100
AcDbEntity
  8
0
 62
5
100
AcDbSpline
 70
8
 71
3
 72
8
 73
4
 74
0
 40
0
 40
0
 40
0
 40
0
 40
1
 40
1
 40
1
 40
1
 10
144.704840
 20
2.643790
 30
0.0
 10
144.704840
 20
3.251270
 30
0.0
 10
144.212010
 20
3.743040
 30
0.0
 10
143.604530
 20
3.743040
 30
0.0
  0
SPLINE
  5
237
100
AcDbEntity
  8
0
 62
5
100
AcDbSpline
 70
8
 71
3
 72
8
 73
4
 74
0
 40
0
 40
0
 40
0
 40
0
 40
1
 40
1
 40
1
 40
1
 10
0.150670
 20
20.817130
 30
0.0
 10
0.150670
 20
21.093710
 30
0.0
 10
0.374050
 20
21.317020
 30
0.0
 10
0.649920
 20
21.317020
 30
0.0
  0
SPLINE
  5
238
100
AcDbEntity
  8
0
 62
5
100
AcDbSpline
 70
8
 71
3
 72
8
 73
4
 74
0
 40
0
 40
0
 40
0
 40
0
 40
1
 40
1
 40
1
 40
1
 10
36.649490
 20
21.317370
 30
0.0
 10
36.925360
 20
21.317370
 30
0.0
 10
37.149370
 20
21.541030
 30
0.0
 10
37.149370
 20
21.816910
 30
0.0
  0
LINE
  5
239
100
AcDbEntity
  8
0
 62
5
100
AcDbLine
 10
0.649920
 20
21.316670
 30
0.0
 11
36.647720
 21
21.316670
 31
0.0
  0
SPLINE
  5
23a
100
AcDbEntity
  8
0
 62
5
100
AcDbSpline
 70
8
 71
3
 72
8
 73
4
 74
0
 40
0
 40
0
 40
0
 40
0
 40
1
 40
1
 40
1
 40
1
 10
37.148670
 20
25.566930
 30
0.0
 10
37.148670
 20
25.843160
 30
0.0
 10
37.373040
 20
26.067170
 30
0.0
 10
37.648910
 20
26.067170
 30
0.0
  0
LINE
  5
23b
100
AcDbEntity
  8
0
 62
5
100
AcDbLine
 10
37.149020
 20
21.816910
 30
0.0
 11
37.149020
 21
25.566930
 31
0.0
  0
SPLINE
  5
23c
100
AcDbEntity
  8
0
 62
5
100
AcDbSpline
 70
8
 71
3
 72
8
 73
4
 74
0
 40
0
 40
0
 40
0
 40
0
 40
1
 40
1
 40
1
 40
1
 10
55.649040
 20
26.067170
 30
0.0
 10
55.924910
 20
26.067170
 30
0.0
 10
56.147870
 20
26.291190
 30
0.0
 10
56.147870
 20
26.567060
 30
0.0
  0
LINE
  5
23d
100
AcDbEntity
  8
0
 62
5
100
AcDbLine
 10
37.648910
 20
26.066470
 30
0.0
 11
55.647980
 21
26.066470
 31
0.0
  0
SPLINE
  5
23e
100
AcDbEntity
  8
0
 62
5
100
AcDbSpline
 70
8
 71
3
 72
8
 73
4
 74
0
 40
0
 40
0
 40
0
 40
0
 40
1
 40
1
 40
1
 40
1
 10
56.147870
 20
27.816950
 30
0.0
 10
56.147870
 20
28.092820
 30
0.0
 10
56.372940
 20
28.316840
 30
0.0
 10
56.648810
 20
28.316840
 30
0.0
  0
LINE
  5
23f
100
AcDbEntity
  8
0
 62
5
100
AcDbLine
 10
56.147870
 20
26.566710
 30
0.0
 11
56.147870
 21
27.816250
 31
0.0
  0
SPLINE
  5
240
100
AcDbEntity
  8
0
 62
5
100
AcDbSpline
 70
8
 71
3
 72
8
 73
4
 74
0
 40
0
 40
0
 40
0
 40
0
 40
1
 40
1
 40
1
 40
1
 10
77.647910
 20
28.317190
 30
0.0
 10
77.923790
 20
28.317190
 30
0.0
 10
78.147800
 20
28.092820
 30
0.0
 10
78.147800
 20
27.816950
 30
0.0
  0
LINE
  5
241
100
AcDbEntity
  8
0
 62
5
100
AcDbLine
 10
56.647760
 20
28.316490
 30
0.0
 11
77.647910
 21
28.316490
 31
0.0
  0
SPLINE
  5
242
100
AcDbEntity
  8
0
 62
5
100
AcDbSpline
 70
8
 71
3
 72
8
 73
4
 74
0
 40
0
 40
0
 40
0
 40
0
 40
1
 40
1
 40
1
 40
1
 10
78.147800
 20
26.566710
 30
0.0
 10
78.147800
 20
26.290830
 30
0.0
 10
78.371460
 20
26.067170
 30
0.0
 10
78.648040
 20
26.067170
 30
0.0
  0
LINE
  5
243
100
AcDbEntity
  8
0
 62
5
100
AcDbLine
 10
78.147800
 20
27.816250
 30
0.0
 11
78.147800
 21
26.566710
 31
0.0
  0
SPLINE
  5
244
100
AcDbEntity
  8
0
 62
5
100
AcDbSpline
 70
8
 71
3
 72
8
 73
4
 74
0
 40
0
 40
0
 40
0
 40
0
 40
1
 40
1
 40
1
 40
1
 10
96.646760
 20
26.067170
 30
0.0
 10
96.923340
 20
26.067170
 30
0.0
 10
97.147000
 20
25.842810
 30
0.0
 10
97.147000
 20
25.566930
 30
0.0
  0
LINE
  5
245
100
AcDbEntity
  8
0
 62
5
100
AcDbLine
 10
78.648040
 20
26.066470
 30
0.0
 11
96.646760
 21
26.066470
 31
0.0
  0
SPLINE
  5
246
100
AcDbEntity
  8
0
 62
5
100
AcDbSpline
 70
8
 71
3
 72
8
 73
4
 74
0
 40
0
 40
0
 40
0
 40
0
 40
1
 40
1
 40
1
 40
1
 10
97.147000
 20
24.066920
 30
0.0
 10
97.147000
 20
23.791050
 30
0.0
 10
97.370310
 20
23.567040
 30
0.0
 10
97.646890
 20
23.567040
 30
0.0
  0
LINE
  5
247
100
AcDbEntity
  8
0
 62
5
100
AcDbLine
 10
97.147000
 20
25.566930
 30
0.0
 11
97.147000
 21
24.066920
 31
0.0
  0
LINE
  5
248
100
AcDbEntity
  8
0
 62
5
100
AcDbLine
 10
97.646890
 20
23.566680
 30
0.0
 11
105.127180
 21
23.566680
 31
0.0
  0
LINE
  5
249
100
AcDbEntity
  8
0
 62
5
100
AcDbLine
 10
105.127180
 20
23.566680
 30
0.0
 11
124.654070
 21
23.566680
 31
0.0
  0
LINE
  5
24a
100
AcDbEntity
  8
0
 62
5
100
AcDbLine
 10
124.654070
 20
23.566680
 30
0.0
 11
133.872870
 21
23.566680
 31
0.0
  0
SPLINE
  5
24b
100
AcDbEntity
  8
0
 62
5
100
AcDbSpline
 70
8
 71
3
 72
8
 73
4
 74
0
 40
0
 40
0
 40
0
 40
0
 40
1
 40
1
 40
1
 40
1
 10
133.872870
 20
23.567390
 30
0.0
 10
134.149440
 20
23.567390
 30
0.0
 10
134.373810
 20
23.342670
 30
0.0
 10
134.373810
 20
23.066800
 30
0.0
  0
LINE
  5
24c
100
AcDbEntity
  8
0
 62
5
100
AcDbLine
 10
134.373810
 20
23.066090
 30
0.0
 11
134.373810
 21
0.150000
 31
0.0
  0
LINE
  5
24d
100
AcDbEntity
  8
0
 62
5
100
AcDbLine
 10
134.373810
 20
0.150000
 30
0.0
 11
124.106210
 21
0.150000
 31
0.0
  0
LINE
  5
24e
100
AcDbEntity
  8
0
 62
5
100
AcDbLine
 10
124.106210
 20
0.150000
 30
0.0
 11
104.579320
 21
0.150000
 31
0.0
  0
LINE
  5
24f
100
AcDbEntity
  8
0
 62
5
100
AcDbLine
 10
104.579320
 20
0.150000
 30
0.0
 11
0.150000
 21
0.150000
 31
0.0
  0
LINE
  5
250
100
AcDbEntity
  8
0
 62
5
100
AcDbLine
 10
0.150000
 20
0.150000
 30
0.0
 11
0.150000
 21
20.817490
 31
0.0
  0
SPLINE
  5
251
100
AcDbEntity
  8
0
 62
5
100
AcDbSpline
 70
8
 71
3
 72
8
 73
4
 74
0
 40
0
 40
0
 40
0
 40
0
 40
1
 40
1
 40
1
 40
1
 10
94.566080
 20
6.317960
 30
0.0
 10
94.566780
 20
5.710480
 30
0.0
 10
95.058560
 20
5.218000
 30
0.0
 10
95.666040
 20
5.218000
 30
0.0
  0
SPLINE
  5
252
100
AcDbEntity
  8
0
 62
5
100
AcDbSpline
 70
8
 71
3
 72
8
 73
4
 74
0
 40
0
 40
0
 40
0
 40
0
 40
1
 40
1
 40
1
 40
1
 10
95.666040
 20
5.218000
 30
0.0
 10
96.273520
 20
5.218000
 30
0.0
 10
96.766710
 20
5.710480
 30
0.0
 10
96.766710
 20
6.317960
 30
0.0
  0
SPLINE
  5
253
100
AcDbEntity
  8
0
 62
5
100
AcDbSpline
 70
8
 71
3
 72
8
 73
4
 74
0
 40
0
 40
0
 40
0
 40
0
 40
1
 40
1
 40
1
 40
1
 10
96.766710
 20
6.317960
 30
0.0
 10
96.766710
 20
6.925450
 30
0.0
 10
96.273520
 20
7.417930
 30
0.0
 10
95.666040
 20
7.417930
 30
0.0
  0
SPLINE
  5
254
100
AcDbEntity
  8
0
 62
5
100
AcDbSpline
 70
8
 71
3
 72
8
 73
4
 74
0
 40
0
 40
0
 40
0
 40
0
 40
1
 40
1
 40
1
 40
1
 10
95.666040
 20
7.417930
 30
0.0
 10
95.058560
 20
7.417930
 30
0.0
 10
94.566780
 20
6.925450
 30
0.0
 10
94.566780
 20
6.317960
 30
0.0
  0
SPLINE
  5
255
100
AcDbEntity
  8
0
 62
5
100
AcDbSpline
 70
8
 71
3
 72
8
 73
4
 74
0
 40
0
 40
0
 40
0
 40
0
 40
1
 40
1
 40
1
 40
1
 10
18.552730
 20
2.695640
 30
0.0
 10
18.552730
 20
2.088160
 30
0.0
 10
19.045240
 20
1.595680
 30
0.0
 10
19.652690
 20
1.595680
 30
0.0
  0
SPLINE
  5
256
100
AcDbEntity
  8
0
 62
5
100
AcDbSpline
 70
8
 71
3
 72
8
 73
4
 74
0
 40
0
 40
0
 40
0
 40
0
 40
1
 40
1
 40
1
 40
1
 10
19.652690
 20
1.595680
 30
0.0
 10
20.260100
 20
1.595680
 30
0.0
 10
20.752610
 20
2.088160
 30
0.0
 10
20.752610
 20
2.695640
 30
0.0
  0
SPLINE
  5
257
100
AcDbEntity
  8
0
 62
5
100
AcDbSpline
 70
8
 71
3
 72
8
 73
4
 74
0
 40
0
 40
0
 40
0
 40
0
 40
1
 40
1
 40
1
 40
1
 10
20.752610
 20
2.695640
 30
0.0
 10
20.752610
 20
3.303130
 30
0.0
 10
20.260100
 20
3.795600
 30
0.0
 10
19.652690
 20
3.795600
 30
0.0
  0
SPLINE
  5
258
100
AcDbEntity
  8
0
 62
5
100
AcDbSpline
 70
8
 71
3
 72
8
 73
4
 74
0
 40
0
 40
0
 40
0
 40
0
 40
1
 40
1
 40
1
 40
1
 10
19.652690
 20
3.795600
 30
0.0
 10
19.045240
 20
3.795600
 30
0.0
 10
18.552730
 20
3.303130
 30
0.0
 10
18.552730
 20
2.695640
 30
0.0
  0
SPLINE
  5
259
100
AcDbEntity
  8
0
 62
5
100
AcDbSpline
 70
8
 71
3
 72
8
 73
4
 74
0
 40
0
 40
0
 40
0
 40
0
 40
1
 40
1
 40
1
 40
1
 10
180.751670
 20
69.960670
 30
0.0
 10
180.753670
 20
69.665040
 30
0.0
 10
180.802470
 20
69.028980
 30
0.0
 10
180.944990
 20
68.680790
 30
0.0
  0
SPLINE
  5
25a
100
AcDbEntity
  8
0
 62
5
100
AcDbSpline
 70
8
 71
3
 72
8
 73
4
 74
0
 40
0
 40
0
 40
0
 40
0
 40
1
 40
1
 40
1
 40
1
 10
180.944990
 20
68.680790
 30
0.0
 10
181.060350
 20
68.399270
 30
0.0
 10
181.206400
 20
68.307550
 30
0.0
 10
181.394080
 20
68.186190
 30
0.0
  0
SPLINE
  5
25b
100
AcDbEntity
  8
0
 62
5
100
AcDbSpline
 70
8
 71
3
 72
8
 73
4
 74
0
 40
0
 40
0
 40
0
 40
0
 40
1
 40
1
 40
1
 40
1
 10
181.394080
 20
68.186190
 30
0.0
 10
181.422680
 20
68.167890
 30
0.0
 10
181.452280
 20
68.148390
 30
0.0
 10
181.482580
 20
68.127990
 30
0.0
  0
LINE
  5
25c
100
AcDbEntity
  8
0
 62
5
100
AcDbLine
 10
180.751670
 20
117.615299
 30
0.0
 11
180.751670
 21
69.960670
 31
0.0
  0
SPLINE
  5
25d
100
AcDbEntity
  8
0
 62
5
100
AcDbSpline
 70
8
 71
3
 72
8
 73
4
 74
0
 40
0
 40
0
 40
0
 40
0
 40
1
 40
1
 40
1
 40
1
 10
198.757440
 20
58.039250
 30
0.0
 10
199.161730
 20
57.869210
 30
0.0
 10
199.627390
 20
58.058650
 30
0.0
 10
199.797430
 20
58.463640
 30
0.0
  0
SPLINE
  5
25e
100
AcDbEntity
  8
0
 62
5
100
AcDbSpline
 70
8
 71
3
 72
8
 73
4
 74
0
 40
0
 40
0
 40
0
 40
0
 40
1
 40
1
 40
1
 40
1
 10
199.797430
 20
58.463640
 30
0.0
 10
199.822830
 20
58.523240
 30
0.0
 10
199.840430
 20
58.585700
 30
0.0
 10
199.850730
 20
58.649910
 30
0.0
  0
LINE
  5
25f
100
AcDbEntity
  8
0
 62
5
100
AcDbLine
 10
181.482620
 20
68.127990
 30
0.0
 11
198.756390
 21
58.038890
 31
0.0
  0
SPLINE
  5
260
100
AcDbEntity
  8
0
 62
5
100
AcDbSpline
 70
8
 71
3
 72
8
 73
4
 74
0
 40
0
 40
0
 40
0
 40
0
 40
1
 40
1
 40
1
 40
1
 10
199.850000
 20
117.604359
 30
0.0
 10
199.850000
 20
117.880589
 30
0.0
 10
199.626690
 20
118.104599
 30
0.0
 10
199.350110
 20
118.104599
 30
0.0
  0
LINE
  5
261
100
AcDbEntity
  8
0
 62
5
100
AcDbLine
 10
199.850000
 20
58.649200
 30
0.0
 11
199.850000
 21
117.604359
 31
0.0
  0
SPLINE
  5
262
100
AcDbEntity
  8
0
 62
5
100
AcDbSpline
 70
8
 71
3
 72
8
 73
4
 74
0
 40
0
 40
0
 40
0
 40
0
 40
1
 40
1
 40
1
 40
1
 10
181.251550
 20
118.104249
 30
0.0
 10
180.975680
 20
118.104249
 30
0.0
 10
180.752730
 20
117.879879
 30
0.0
 10
180.752730
 20
117.604009
 30
0.0
  0
LINE
  5
263
100
AcDbEntity
  8
0
 62
5
100
AcDbLine
 10
199.349410
 20
118.103899
 30
0.0
 11
183.259560
 21
118.103899
 31
0.0
  0
LINE
  5
264
100
AcDbEntity
  8
0
 62
5
100
AcDbLine
 10
183.259560
 20
118.103899
 30
0.0
 11
181.252610
 21
118.103899
 31
0.0
  0
SPLINE
  5
265
100
AcDbEntity
  8
0
 62
5
100
AcDbSpline
 70
8
 71
3
 72
8
 73
4
 74
0
 40
0
 40
0
 40
0
 40
0
 40
1
 40
1
 40
1
 40
1
 10
181.757790
 20
70.358950
 30
0.0
 10
181.757080
 20
69.751470
 30
0.0
 10
182.249560
 20
69.259700
 30
0.0
 10
182.857050
 20
69.259700
 30
0.0
  0
SPLINE
  5
266
100
AcDbEntity
  8
0
 62
5
100
AcDbSpline
 70
8
 71
3
 72
8
 73
4
 74
0
 40
0
 40
0
 40
0
 40
0
 40
1
 40
1
 40
1
 40
1
 10
182.857050
 20
69.259700
 30
0.0
 10
183.464530
 20
69.259700
 30
0.0
 10
183.957710
 20
69.751470
 30
0.0
 10
183.957710
 20
70.358950
 30
0.0
  0
SPLINE
  5
267
100
AcDbEntity
  8
0
 62
5
100
AcDbSpline
 70
8
 71
3
 72
8
 73
4
 74
0
 40
0
 40
0
 40
0
 40
0
 40
1
 40
1
 40
1
 40
1
 10
183.957710
 20
70.358950
 30
0.0
 10
183.957710
 20
70.967140
 30
0.0
 10
183.464530
 20
71.458910
 30
0.0
 10
182.857050
 20
71.458910
 30
0.0
  0
SPLINE
  5
268
100
AcDbEntity
  8
0
 62
5
100
AcDbSpline
 70
8
 71
3
 72
8
 73
4
 74
0
 40
0
 40
0
 40
0
 40
0
 40
1
 40
1
 40
1
 40
1
 10
182.857050
 20
71.458910
 30
0.0
 10
182.249560
 20
71.458910
 30
0.0
 10
181.757080
 20
70.967140
 30
0.0
 10
181.757080
 20
70.358950
 30
0.0
  0
SPLINE
  5
269
100
AcDbEntity
  8
0
 62
5
100
AcDbSpline
 70
8
 71
3
 72
8
 73
4
 74
0
 40
0
 40
0
 40
0
 40
0
 40
1
 40
1
 40
1
 40
1
 10
196.256960
 20
61.859130
 30
0.0
 10
196.256960
 20
61.251990
 30
0.0
 10
196.748730
 20
60.759870
 30
0.0
 10
197.356210
 20
60.759870
 30
0.0
  0
SPLINE
  5
26a
100
AcDbEntity
  8
0
 62
5
100
AcDbSpline
 70
8
 71
3
 72
8
 73
4
 74
0
 40
0
 40
0
 40
0
 40
0
 40
1
 40
1
 40
1
 40
1
 10
197.356210
 20
60.759870
 30
0.0
 10
197.964400
 20
60.759870
 30
0.0
 10
198.456880
 20
61.251990
 30
0.0
 10
198.456880
 20
61.859130
 30
0.0
  0
SPLINE
  5
26b
100
AcDbEntity
  8
0
 62
5
100
AcDbSpline
 70
8
 71
3
 72
8
 73
4
 74
0
 40
0
 40
0
 40
0
 40
0
 40
1
 40
1
 40
1
 40
1
 10
198.456880
 20
61.859130
 30
0.0
 10
198.456880
 20
62.466610
 30
0.0
 10
197.964400
 20
62.959440
 30
0.0
 10
197.356210
 20
62.959440
 30
0.0
  0
SPLINE
  5
26c
100
AcDbEntity
  8
0
 62
5
100
AcDbSpline
 70
8
 71
3
 72
8
 73
4
 74
0
 40
0
 40
0
 40
0
 40
0
 40
1
 40
1
 40
1
 40
1
 10
197.356210
 20
62.959440
 30
0.0
 10
196.748730
 20
62.959440
 30
0.0
 10
196.256960
 20
62.466610
 30
0.0
 10
196.256960
 20
61.859130
 30
0.0
  0
ENDSEC
  0
SECTION
  2
OBJECTS
  0
DICTIONARY
  5
C
330
0
100
AcDbDictionary
  3
ACAD_GROUP
350
D
  3
ACAD_MLINESTYLE
350
17
  0
DICTIONARY
  5
D
330
C
100
AcDbDictionary
  0
DICTIONARY
  5
1A
330
C
100
AcDbDictionary
  0
DICTIONARY
  5
17
330
C
100
AcDbDictionary
  3
STANDARD
350
18
  0
DICTIONARY
  5
19
330
C
100
AcDbDictionary
  0
ENDSEC
  0
EOF
