  0
SECTION
  2
HEADER
  9
$ACADVER
  1
AC1014
  9
$HANDSEED
  5
FFFF
  9
$MEASUREMENT
 70
     1
  0
ENDSEC
  0
SECTION
  2
TABLES
  0
TABLE
  2
VPORT
  5
8
330
0
100
AcDbSymbolTable
 70
     4
  0
VPORT
  5
2E
330
8
100
AcDbSymbolTableRecord
100
AcDbViewportTableRecord
  2
*ACTIVE
 70
     0
 10
0.0
 20
0.0
 11
1.0
 21
1.0
 12
210.0
 22
148.5
 13
0.0
 23
0.0
 14
10.0
 24
10.0
 15
10.0
 25
10.0
 16
0.0
 26
0.0
 36
1.0
 17
0.0
 27
0.0
 37
0.0
 40
341.0
 41
1.24
 42
50.0
 43
0.0
 44
0.0
 50
0.0
 51
0.0
 71
     0
 72
   100
 73
     1
 74
     3
 75
     0
 76
     0
 77
     0
 78
     0
  0
ENDTAB
  0
TABLE
  2
LTYPE
  5
5
330
0
100
AcDbSymbolTable
 70
     1
  0
LTYPE
  5
14
330
5
100
AcDbSymbolTableRecord
100
AcDbLinetypeTableRecord
  2
BYBLOCK
 70
     0
  3

 72
    65
 73
     0
 40
0.0
  0
LTYPE
  5
15
330
5
100
AcDbSymbolTableRecord
100
AcDbLinetypeTableRecord
  2
BYLAYER
 70
     0
  3

 72
    65
 73
     0
 40
0.0
  0
LTYPE
  5
16
330
5
100
AcDbSymbolTableRecord
100
AcDbLinetypeTableRecord
  2
CONTINUOUS
 70
     0
  3
Solid line
 72
    65
 73
     0
 40
0.0
  0
ENDTAB
  0
TABLE
  2
LAYER
  5
2
100
AcDbSymbolTable
 70
2
  0
LAYER
  5
50
100
AcDbSymbolTableRecord
100
AcDbLayerTableRecord
  2
0
 70
0
  6
CONTINUOUS
  0
LAYER
  5
51
100
AcDbSymbolTableRecord
100
AcDbLayerTableRecord
  2
top-bottom
 70
0
  6
CONTINUOUS
  0
ENDTAB
  0
TABLE
  2
STYLE
  5
3
330
0
100
AcDbSymbolTable
 70
     1
  0
STYLE
  5
11
330
3
100
AcDbSymbolTableRecord
100
AcDbTextStyleTableRecord
  2
STANDARD
 70
     0
 40
0.0
 41
1.0
 50
0.0
 71
     0
 42
2.5
  3
txt
  4

  0
ENDTAB
  0
TABLE
  2
VIEW
  5
6
330
0
100
AcDbSymbolTable
 70
     0
  0
ENDTAB
  0
TABLE
  2
UCS
  5
7
330
0
100
AcDbSymbolTable
 70
     0
  0
ENDTAB
  0
TABLE
  2
APPID
  5
9
330
0
100
AcDbSymbolTable
 70
     2
  0
APPID
  5
12
330
9
100
AcDbSymbolTableRecord
100
AcDbRegAppTableRecord
  2
ACAD
 70
     0
  0
ENDTAB
  0
TABLE
  2
DIMSTYLE
  5
A
330
0
100
AcDbSymbolTable
 70
     1
  0
DIMSTYLE
105
27
330
A
100
AcDbSymbolTableRecord
100
AcDbDimStyleTableRecord
  2
ISO-25
 70
     0
  3

  4

  5

  6

  7

 40
1.0
 41
2.5
 42
0.625
 43
3.75
 44
1.25
 45
0.0
 46
0.0
 47
0.0
 48
0.0
140
2.5
141
2.5
142
0.0
143
0.03937007874016
144
1.0
145
0.0
146
1.0
147
0.625
 71
     0
 72
     0
 73
     0
 74
     0
 75
     0
 76
     0
 77
     1
 78
     8
170
     0
171
     3
172
     1
173
     0
174
     0
175
     0
176
     0
177
     0
178
     0
270
     2
271
     2
272
     2
273
     2
274
     3
340
11
275
     0
280
     0
281
     0
282
     0
283
     0
284
     8
285
     0
286
     0
287
     3
288
     0
  0
ENDTAB
  0
TABLE
  2
BLOCK_RECORD
  5
1
330
0
100
AcDbSymbolTable
 70
     1
  0
BLOCK_RECORD
  5
1F
330
1
100
AcDbSymbolTableRecord
100
AcDbBlockTableRecord
  2
*MODEL_SPACE
  0
BLOCK_RECORD
  5
1B
330
1
100
AcDbSymbolTableRecord
100
AcDbBlockTableRecord
  2
*PAPER_SPACE
  0
ENDTAB
  0
ENDSEC
  0
SECTION
  2
BLOCKS
  0
BLOCK
  5
20
330
1F
100
AcDbEntity
  8
0
100
AcDbBlockBegin
  2
*MODEL_SPACE
 70
     0
 10
0.0
 20
0.0
 30
0.0
  3
*MODEL_SPACE
  1

  0
ENDBLK
  5
21
330
1F
100
AcDbEntity
  8
0
100
AcDbBlockEnd
  0
BLOCK
  5
1C
330
1B
100
AcDbEntity
 67
     1
  8
0
100
AcDbBlockBegin
  2
*PAPER_SPACE
  1

  0
ENDBLK
  5
1D
330
1B
100
AcDbEntity
 67
     1
  8
0
100
AcDbBlockEnd
  0
ENDSEC
  0
SECTION
  2
ENTITIES
  0
SPLINE
  5
100
100
AcDbEntity
  8
top-bottom
 62
5
100
AcDbSpline
 70
8
 71
3
 72
8
 73
4
 74
0
 40
0
 40
0
 40
0
 40
0
 40
1
 40
1
 40
1
 40
1
 10
77.952531
 20
36.548914
 30
0.0
 10
78.046370
 20
36.642753
 30
0.0
 10
78.173369
 20
36.695317
 30
0.0
 10
78.306013
 20
36.695317
 30
0.0
  0
LINE
  5
101
100
AcDbEntity
  8
top-bottom
 62
5
100
AcDbLine
 10
78.306013
 20
36.695317
 30
0.0
 11
114.308636
 21
36.695317
 31
0.0
  0
LINE
  5
102
100
AcDbEntity
  8
top-bottom
 62
5
100
AcDbLine
 10
114.308636
 20
36.695317
 30
0.0
 11
116.308880
 21
36.695317
 31
0.0
  0
LINE
  5
103
100
AcDbEntity
  8
top-bottom
 62
5
100
AcDbLine
 10
116.308880
 20
36.695317
 30
0.0
 11
133.309893
 21
36.695317
 31
0.0
  0
SPLINE
  5
104
100
AcDbEntity
  8
top-bottom
 62
5
100
AcDbSpline
 70
8
 71
3
 72
8
 73
4
 74
0
 40
0
 40
0
 40
0
 40
0
 40
1
 40
1
 40
1
 40
1
 10
133.309893
 20
36.695317
 30
0.0
 10
133.586117
 20
36.695317
 30
0.0
 10
133.809778
 20
36.919330
 30
0.0
 10
133.809778
 20
37.195554
 30
0.0
  0
LINE
  5
105
100
AcDbEntity
  8
top-bottom
 62
5
100
AcDbLine
 10
133.809778
 20
37.195554
 30
0.0
 11
133.809778
 21
92.449200
 31
0.0
  0
SPLINE
  5
106
100
AcDbEntity
  8
top-bottom
 62
5
100
AcDbSpline
 70
8
 71
3
 72
8
 73
4
 74
0
 40
0
 40
0
 40
0
 40
0
 40
1
 40
1
 40
1
 40
1
 10
133.809778
 20
92.449200
 30
0.0
 10
133.809778
 20
92.725424
 30
0.0
 10
133.586117
 20
92.949084
 30
0.0
 10
133.309893
 20
92.949084
 30
0.0
  0
LINE
  5
107
100
AcDbEntity
  8
top-bottom
 62
5
100
AcDbLine
 10
133.309893
 20
92.949084
 30
0.0
 11
116.308880
 21
92.949084
 31
0.0
  0
LINE
  5
108
100
AcDbEntity
  8
top-bottom
 62
5
100
AcDbLine
 10
116.308880
 20
92.949084
 30
0.0
 11
114.308636
 21
92.949084
 31
0.0
  0
LINE
  5
109
100
AcDbEntity
  8
top-bottom
 62
5
100
AcDbLine
 10
114.308636
 20
92.949084
 30
0.0
 11
96.307148
 21
92.949084
 31
0.0
  0
SPLINE
  5
10a
100
AcDbEntity
  8
top-bottom
 62
5
100
AcDbSpline
 70
8
 71
3
 72
8
 73
4
 74
0
 40
0
 40
0
 40
0
 40
0
 40
1
 40
1
 40
1
 40
1
 10
96.307148
 20
92.949084
 30
0.0
 10
96.031277
 20
92.949084
 30
0.0
 10
95.807264
 20
93.173097
 30
0.0
 10
95.807264
 20
93.449321
 30
0.0
  0
LINE
  5
10b
100
AcDbEntity
  8
top-bottom
 62
5
100
AcDbLine
 10
95.807264
 20
93.449321
 30
0.0
 11
95.807264
 21
97.199690
 31
0.0
  0
SPLINE
  5
10c
100
AcDbEntity
  8
top-bottom
 62
5
100
AcDbSpline
 70
8
 71
3
 72
8
 73
4
 74
0
 40
0
 40
0
 40
0
 40
0
 40
1
 40
1
 40
1
 40
1
 10
95.807264
 20
97.199690
 30
0.0
 10
95.807264
 20
97.475561
 30
0.0
 10
95.583603
 20
97.699575
 30
0.0
 10
95.307379
 20
97.699575
 30
0.0
  0
LINE
  5
10d
100
AcDbEntity
  8
top-bottom
 62
5
100
AcDbLine
 10
95.307379
 20
97.699575
 30
0.0
 11
77.305892
 21
97.699575
 31
0.0
  0
SPLINE
  5
10e
100
AcDbEntity
  8
top-bottom
 62
5
100
AcDbSpline
 70
8
 71
3
 72
8
 73
4
 74
0
 40
0
 40
0
 40
0
 40
0
 40
1
 40
1
 40
1
 40
1
 10
77.305892
 20
97.699575
 30
0.0
 10
77.030020
 20
97.699575
 30
0.0
 10
76.806007
 20
97.923588
 30
0.0
 10
76.806007
 20
98.199812
 30
0.0
  0
LINE
  5
10f
100
AcDbEntity
  8
top-bottom
 62
5
100
AcDbLine
 10
76.806007
 20
98.199812
 30
0.0
 11
76.806007
 21
99.449700
 31
0.0
  0
SPLINE
  5
110
100
AcDbEntity
  8
top-bottom
 62
5
100
AcDbSpline
 70
8
 71
3
 72
8
 73
4
 74
0
 40
0
 40
0
 40
0
 40
0
 40
1
 40
1
 40
1
 40
1
 10
76.806007
 20
99.449700
 30
0.0
 10
76.806007
 20
99.725924
 30
0.0
 10
76.581994
 20
99.949584
 30
0.0
 10
76.306122
 20
99.949584
 30
0.0
  0
LINE
  5
111
100
AcDbEntity
  8
top-bottom
 62
5
100
AcDbLine
 10
76.306122
 20
99.949584
 30
0.0
 11
59.304756
 21
99.949584
 31
0.0
  0
SPLINE
  5
112
100
AcDbEntity
  8
top-bottom
 62
5
100
AcDbSpline
 70
8
 71
3
 72
8
 73
4
 74
0
 40
0
 40
0
 40
0
 40
0
 40
1
 40
1
 40
1
 40
1
 10
59.304756
 20
99.949584
 30
0.0
 10
59.028532
 20
99.949584
 30
0.0
 10
58.804872
 20
99.725924
 30
0.0
 10
58.804872
 20
99.449700
 30
0.0
  0
LINE
  5
113
100
AcDbEntity
  8
top-bottom
 62
5
100
AcDbLine
 10
58.804872
 20
99.449700
 30
0.0
 11
58.804872
 21
98.199812
 31
0.0
  0
SPLINE
  5
114
100
AcDbEntity
  8
top-bottom
 62
5
100
AcDbSpline
 70
8
 71
3
 72
8
 73
4
 74
0
 40
0
 40
0
 40
0
 40
0
 40
1
 40
1
 40
1
 40
1
 10
58.804872
 20
98.199812
 30
0.0
 10
58.804872
 20
97.923588
 30
0.0
 10
58.580859
 20
97.699575
 30
0.0
 10
58.304635
 20
97.699575
 30
0.0
  0
LINE
  5
115
100
AcDbEntity
  8
top-bottom
 62
5
100
AcDbLine
 10
58.304635
 20
97.699575
 30
0.0
 11
40.303500
 21
97.699575
 31
0.0
  0
SPLINE
  5
116
100
AcDbEntity
  8
top-bottom
 62
5
100
AcDbSpline
 70
8
 71
3
 72
8
 73
4
 74
0
 40
0
 40
0
 40
0
 40
0
 40
1
 40
1
 40
1
 40
1
 10
40.303500
 20
97.699575
 30
0.0
 10
40.027275
 20
97.699575
 30
0.0
 10
39.803615
 20
97.475561
 30
0.0
 10
39.803615
 20
97.199690
 30
0.0
  0
LINE
  5
117
100
AcDbEntity
  8
top-bottom
 62
5
100
AcDbLine
 10
39.803615
 20
97.199690
 30
0.0
 11
39.803615
 21
95.699331
 31
0.0
  0
SPLINE
  5
118
100
AcDbEntity
  8
top-bottom
 62
5
100
AcDbSpline
 70
8
 71
3
 72
8
 73
4
 74
0
 40
0
 40
0
 40
0
 40
0
 40
1
 40
1
 40
1
 40
1
 10
39.803615
 20
95.699331
 30
0.0
 10
39.803615
 20
95.423460
 30
0.0
 10
39.579602
 20
95.199446
 30
0.0
 10
39.303378
 20
95.199446
 30
0.0
  0
LINE
  5
119
100
AcDbEntity
  8
top-bottom
 62
5
100
AcDbLine
 10
39.303378
 20
95.199446
 30
0.0
 11
21.302243
 21
95.199446
 31
0.0
  0
SPLINE
  5
11a
100
AcDbEntity
  8
top-bottom
 62
5
100
AcDbSpline
 70
8
 71
3
 72
8
 73
4
 74
0
 40
0
 40
0
 40
0
 40
0
 40
1
 40
1
 40
1
 40
1
 10
21.302243
 20
95.199446
 30
0.0
 10
21.026019
 20
95.199446
 30
0.0
 10
20.802358
 20
94.975433
 30
0.0
 10
20.802358
 20
94.699209
 30
0.0
  0
LINE
  5
11b
100
AcDbEntity
  8
top-bottom
 62
5
100
AcDbLine
 10
20.802358
 20
94.699209
 30
0.0
 11
20.802358
 21
93.464844
 31
0.0
  0
SPLINE
  5
11c
100
AcDbEntity
  8
top-bottom
 62
5
100
AcDbSpline
 70
8
 71
3
 72
8
 73
4
 74
0
 40
0
 40
0
 40
0
 40
0
 40
1
 40
1
 40
1
 40
1
 10
20.802358
 20
93.464844
 30
0.0
 10
20.773783
 20
93.196733
 30
0.0
 10
20.567762
 20
92.981539
 30
0.0
 10
20.301415
 20
92.941323
 30
0.0
  0
LINE
  5
11d
100
AcDbEntity
  8
top-bottom
 62
5
100
AcDbLine
 10
20.301415
 20
92.941323
 30
0.0
 11
0.550155
 21
92.941323
 31
0.0
  0
SPLINE
  5
11e
100
AcDbEntity
  8
top-bottom
 62
5
100
AcDbSpline
 70
8
 71
3
 72
8
 73
4
 74
0
 40
0
 40
0
 40
0
 40
0
 40
1
 40
1
 40
1
 40
1
 10
0.550155
 20
92.941323
 30
0.0
 10
0.273931
 20
92.941323
 30
0.0
 10
0.049918
 20
92.717310
 30
0.0
 10
0.049918
 20
92.441438
 30
0.0
  0
LINE
  5
11f
100
AcDbEntity
  8
top-bottom
 62
5
100
AcDbLine
 10
0.049918
 20
92.441438
 30
0.0
 11
0.049918
 21
33.480816
 31
0.0
  0
SPLINE
  5
120
100
AcDbEntity
  8
top-bottom
 62
5
100
AcDbSpline
 70
8
 71
3
 72
8
 73
4
 74
0
 40
0
 40
0
 40
0
 40
0
 40
1
 40
1
 40
1
 40
1
 10
0.049918
 20
33.480816
 30
0.0
 10
0.093309
 20
32.667313
 30
0.0
 10
0.338842
 20
31.877798
 30
0.0
 10
0.764643
 20
31.183181
 30
0.0
  0
LINE
  5
121
100
AcDbEntity
  8
top-bottom
 62
5
100
AcDbLine
 10
0.764643
 20
31.183181
 30
0.0
 11
14.001882
 21
8.143337
 31
0.0
  0
SPLINE
  5
122
100
AcDbEntity
  8
top-bottom
 62
5
100
AcDbSpline
 70
8
 71
3
 72
8
 73
4
 74
0
 40
0
 40
0
 40
0
 40
0
 40
1
 40
1
 40
1
 40
1
 10
14.001882
 20
8.143337
 30
0.0
 10
14.006468
 20
8.136281
 30
0.0
 10
14.011407
 20
8.129226
 30
0.0
 10
14.016346
 20
8.122170
 30
0.0
  0
SPLINE
  5
123
100
AcDbEntity
  8
top-bottom
 62
5
100
AcDbSpline
 70
8
 71
3
 72
8
 73
4
 74
0
 40
0
 40
0
 40
0
 40
0
 40
1
 40
1
 40
1
 40
1
 10
14.016346
 20
8.122170
 30
0.0
 10
14.294334
 20
7.729177
 30
0.0
 10
14.838669
 20
7.635339
 30
0.0
 10
15.231662
 20
7.913327
 30
0.0
  0
LINE
  5
124
100
AcDbEntity
  8
top-bottom
 62
5
100
AcDbLine
 10
15.231662
 20
7.913327
 30
0.0
 11
29.981607
 21
16.403250
 31
0.0
  0
SPLINE
  5
125
100
AcDbEntity
  8
top-bottom
 62
5
100
AcDbSpline
 70
8
 71
3
 72
8
 73
4
 74
0
 40
0
 40
0
 40
0
 40
0
 40
1
 40
1
 40
1
 40
1
 10
29.981607
 20
16.403250
 30
0.0
 10
30.072623
 20
16.434647
 30
0.0
 10
30.166462
 20
16.458989
 30
0.0
 10
30.261712
 20
16.475216
 30
0.0
  0
LINE
  5
126
100
AcDbEntity
  8
top-bottom
 62
5
100
AcDbLine
 10
30.261712
 20
16.475216
 30
0.0
 11
67.055260
 21
21.944666
 31
0.0
  0
SPLINE
  5
127
100
AcDbEntity
  8
top-bottom
 62
5
100
AcDbSpline
 70
8
 71
3
 72
8
 73
4
 74
0
 40
0
 40
0
 40
0
 40
0
 40
1
 40
1
 40
1
 40
1
 10
67.055260
 20
21.944666
 30
0.0
 10
67.184729
 20
21.957718
 30
0.0
 10
67.306790
 20
22.009929
 30
0.0
 10
67.405567
 20
22.094243
 30
0.0
  0
SPLINE
  5
128
100
AcDbEntity
  8
top-bottom
 62
5
100
AcDbSpline
 70
8
 71
3
 72
8
 73
4
 74
0
 40
0
 40
0
 40
0
 40
0
 40
1
 40
1
 40
1
 40
1
 10
67.405567
 20
22.094243
 30
0.0
 10
67.405567
 20
22.094243
 30
0.0
 10
77.956059
 20
36.553853
 30
0.0
 10
77.952531
 20
36.548914
 30
0.0
  0
LINE
  5
129
100
AcDbEntity
  8
top-bottom
 62
5
100
AcDbLine
 10
77.952531
 20
36.548914
 30
0.0
 11
77.952531
 21
36.548914
 31
0.0
  0
SPLINE
  5
12a
100
AcDbEntity
  8
top-bottom
 62
5
100
AcDbSpline
 70
8
 71
3
 72
8
 73
4
 74
0
 40
0
 40
0
 40
0
 40
0
 40
1
 40
1
 40
1
 40
1
 10
73.162459
 20
38.199803
 30
0.0
 10
73.162459
 20
38.807285
 30
0.0
 10
72.669983
 20
39.299761
 30
0.0
 10
72.062149
 20
39.299761
 30
0.0
  0
SPLINE
  5
12b
100
AcDbEntity
  8
top-bottom
 62
5
100
AcDbSpline
 70
8
 71
3
 72
8
 73
4
 74
0
 40
0
 40
0
 40
0
 40
0
 40
1
 40
1
 40
1
 40
1
 10
72.062149
 20
39.299761
 30
0.0
 10
71.454667
 20
39.299761
 30
0.0
 10
70.962191
 20
38.807285
 30
0.0
 10
70.962191
 20
38.199803
 30
0.0
  0
SPLINE
  5
12c
100
AcDbEntity
  8
top-bottom
 62
5
100
AcDbSpline
 70
8
 71
3
 72
8
 73
4
 74
0
 40
0
 40
0
 40
0
 40
0
 40
1
 40
1
 40
1
 40
1
 10
70.962191
 20
38.199803
 30
0.0
 10
70.962191
 20
37.591969
 30
0.0
 10
71.454667
 20
37.099846
 30
0.0
 10
72.062149
 20
37.099846
 30
0.0
  0
SPLINE
  5
12d
100
AcDbEntity
  8
top-bottom
 62
5
100
AcDbSpline
 70
8
 71
3
 72
8
 73
4
 74
0
 40
0
 40
0
 40
0
 40
0
 40
1
 40
1
 40
1
 40
1
 10
72.062149
 20
37.099846
 30
0.0
 10
72.669983
 20
37.099846
 30
0.0
 10
73.162459
 20
37.591969
 30
0.0
 10
73.162459
 20
38.199803
 30
0.0
  0
LINE
  5
12e
100
AcDbEntity
  8
top-bottom
 62
5
100
AcDbLine
 10
73.162459
 20
38.199803
 30
0.0
 11
73.162459
 21
38.199803
 31
0.0
  0
SPLINE
  5
12f
100
AcDbEntity
  8
top-bottom
 62
5
100
AcDbSpline
 70
8
 71
3
 72
8
 73
4
 74
0
 40
0
 40
0
 40
0
 40
0
 40
1
 40
1
 40
1
 40
1
 10
40.384215
 20
77.946762
 30
0.0
 10
40.384215
 20
78.554597
 30
0.0
 10
39.891739
 20
79.047073
 30
0.0
 10
39.284257
 20
79.047073
 30
0.0
  0
SPLINE
  5
130
100
AcDbEntity
  8
top-bottom
 62
5
100
AcDbSpline
 70
8
 71
3
 72
8
 73
4
 74
0
 40
0
 40
0
 40
0
 40
0
 40
1
 40
1
 40
1
 40
1
 10
39.284257
 20
79.047073
 30
0.0
 10
38.676776
 20
79.047073
 30
0.0
 10
38.183947
 20
78.554597
 30
0.0
 10
38.183947
 20
77.946762
 30
0.0
  0
SPLINE
  5
131
100
AcDbEntity
  8
top-bottom
 62
5
100
AcDbSpline
 70
8
 71
3
 72
8
 73
4
 74
0
 40
0
 40
0
 40
0
 40
0
 40
1
 40
1
 40
1
 40
1
 10
38.183947
 20
77.946762
 30
0.0
 10
38.183947
 20
77.339281
 30
0.0
 10
38.676776
 20
76.846805
 30
0.0
 10
39.284257
 20
76.846805
 30
0.0
  0
SPLINE
  5
132
100
AcDbEntity
  8
top-bottom
 62
5
100
AcDbSpline
 70
8
 71
3
 72
8
 73
4
 74
0
 40
0
 40
0
 40
0
 40
0
 40
1
 40
1
 40
1
 40
1
 10
39.284257
 20
76.846805
 30
0.0
 10
39.891739
 20
76.846805
 30
0.0
 10
40.384215
 20
77.339281
 30
0.0
 10
40.384215
 20
77.946762
 30
0.0
  0
LINE
  5
133
100
AcDbEntity
  8
top-bottom
 62
5
100
AcDbLine
 10
40.384215
 20
77.946762
 30
0.0
 11
40.384215
 21
77.946762
 31
0.0
  0
SPLINE
  5
134
100
AcDbEntity
  8
top-bottom
 62
5
100
AcDbSpline
 70
8
 71
3
 72
8
 73
4
 74
0
 40
0
 40
0
 40
0
 40
0
 40
1
 40
1
 40
1
 40
1
 10
116.405858
 20
74.324593
 30
0.0
 10
116.405858
 20
74.932074
 30
0.0
 10
115.913382
 20
75.424550
 30
0.0
 10
115.305548
 20
75.424550
 30
0.0
  0
SPLINE
  5
135
100
AcDbEntity
  8
top-bottom
 62
5
100
AcDbSpline
 70
8
 71
3
 72
8
 73
4
 74
0
 40
0
 40
0
 40
0
 40
0
 40
1
 40
1
 40
1
 40
1
 10
115.305548
 20
75.424550
 30
0.0
 10
114.698066
 20
75.424550
 30
0.0
 10
114.205590
 20
74.932074
 30
0.0
 10
114.205590
 20
74.324593
 30
0.0
  0
SPLINE
  5
136
100
AcDbEntity
  8
top-bottom
 62
5
100
AcDbSpline
 70
8
 71
3
 72
8
 73
4
 74
0
 40
0
 40
0
 40
0
 40
0
 40
1
 40
1
 40
1
 40
1
 10
114.205590
 20
74.324593
 30
0.0
 10
114.205590
 20
73.716758
 30
0.0
 10
114.698066
 20
73.224635
 30
0.0
 10
115.305548
 20
73.224635
 30
0.0
  0
SPLINE
  5
137
100
AcDbEntity
  8
top-bottom
 62
5
100
AcDbSpline
 70
8
 71
3
 72
8
 73
4
 74
0
 40
0
 40
0
 40
0
 40
0
 40
1
 40
1
 40
1
 40
1
 10
115.305548
 20
73.224635
 30
0.0
 10
115.913382
 20
73.224635
 30
0.0
 10
116.405858
 20
73.716758
 30
0.0
 10
116.405858
 20
74.324593
 30
0.0
  0
LINE
  5
138
100
AcDbEntity
  8
top-bottom
 62
5
100
AcDbLine
 10
116.405858
 20
74.324593
 30
0.0
 11
116.405858
 21
74.324593
 31
0.0
  0
SPLINE
  5
139
100
AcDbEntity
  8
top-bottom
 62
5
100
AcDbSpline
 70
8
 71
3
 72
8
 73
4
 74
0
 40
0
 40
0
 40
0
 40
0
 40
1
 40
1
 40
1
 40
1
 10
116.414642
 20
55.309472
 30
0.0
 10
116.414642
 20
55.917306
 30
0.0
 10
115.922166
 20
56.409429
 30
0.0
 10
115.314332
 20
56.409429
 30
0.0
  0
SPLINE
  5
13a
100
AcDbEntity
  8
top-bottom
 62
5
100
AcDbSpline
 70
8
 71
3
 72
8
 73
4
 74
0
 40
0
 40
0
 40
0
 40
0
 40
1
 40
1
 40
1
 40
1
 10
115.314332
 20
56.409429
 30
0.0
 10
114.706851
 20
56.409429
 30
0.0
 10
114.214374
 20
55.917306
 30
0.0
 10
114.214374
 20
55.309472
 30
0.0
  0
SPLINE
  5
13b
100
AcDbEntity
  8
top-bottom
 62
5
100
AcDbSpline
 70
8
 71
3
 72
8
 73
4
 74
0
 40
0
 40
0
 40
0
 40
0
 40
1
 40
1
 40
1
 40
1
 10
114.214374
 20
55.309472
 30
0.0
 10
114.214374
 20
54.701637
 30
0.0
 10
114.706851
 20
54.209514
 30
0.0
 10
115.314332
 20
54.209514
 30
0.0
  0
SPLINE
  5
13c
100
AcDbEntity
  8
top-bottom
 62
5
100
AcDbSpline
 70
8
 71
3
 72
8
 73
4
 74
0
 40
0
 40
0
 40
0
 40
0
 40
1
 40
1
 40
1
 40
1
 10
115.314332
 20
54.209514
 30
0.0
 10
115.922166
 20
54.209514
 30
0.0
 10
116.414642
 20
54.701637
 30
0.0
 10
116.414642
 20
55.309472
 30
0.0
  0
LINE
  5
13d
100
AcDbEntity
  8
top-bottom
 62
5
100
AcDbLine
 10
116.414642
 20
55.309472
 30
0.0
 11
116.414642
 21
55.309472
 31
0.0
  0
SPLINE
  5
13e
100
AcDbEntity
  8
top-bottom
 62
5
100
AcDbSpline
 70
8
 71
3
 72
8
 73
4
 74
0
 40
0
 40
0
 40
0
 40
0
 40
1
 40
1
 40
1
 40
1
 10
26.642646
 20
30.445243
 30
0.0
 10
26.642646
 20
31.053077
 30
0.0
 10
26.150170
 20
31.545201
 30
0.0
 10
25.542336
 20
31.545201
 30
0.0
  0
SPLINE
  5
13f
100
AcDbEntity
  8
top-bottom
 62
5
100
AcDbSpline
 70
8
 71
3
 72
8
 73
4
 74
0
 40
0
 40
0
 40
0
 40
0
 40
1
 40
1
 40
1
 40
1
 10
25.542336
 20
31.545201
 30
0.0
 10
24.934855
 20
31.545201
 30
0.0
 10
24.442378
 20
31.053077
 30
0.0
 10
24.442378
 20
30.445243
 30
0.0
  0
SPLINE
  5
140
100
AcDbEntity
  8
top-bottom
 62
5
100
AcDbSpline
 70
8
 71
3
 72
8
 73
4
 74
0
 40
0
 40
0
 40
0
 40
0
 40
1
 40
1
 40
1
 40
1
 10
24.442378
 20
30.445243
 30
0.0
 10
24.442378
 20
29.837761
 30
0.0
 10
24.934855
 20
29.345285
 30
0.0
 10
25.542336
 20
29.345285
 30
0.0
  0
SPLINE
  5
141
100
AcDbEntity
  8
top-bottom
 62
5
100
AcDbSpline
 70
8
 71
3
 72
8
 73
4
 74
0
 40
0
 40
0
 40
0
 40
0
 40
1
 40
1
 40
1
 40
1
 10
25.542336
 20
29.345285
 30
0.0
 10
26.150170
 20
29.345285
 30
0.0
 10
26.642646
 20
29.837761
 30
0.0
 10
26.642646
 20
30.445243
 30
0.0
  0
LINE
  5
142
100
AcDbEntity
  8
top-bottom
 62
5
100
AcDbLine
 10
26.642646
 20
30.445243
 30
0.0
 11
26.642646
 21
30.445243
 31
0.0
  0
LINE
  5
143
100
AcDbEntity
  8
top-bottom
 62
5
100
AcDbLine
 10
149.322599
 20
20.747980
 30
0.0
 11
101.966212
 21
20.747980
 31
0.0
  0
SPLINE
  5
144
100
AcDbEntity
  8
top-bottom
 62
5
100
AcDbSpline
 70
8
 71
3
 72
8
 73
4
 74
0
 40
0
 40
0
 40
0
 40
0
 40
1
 40
1
 40
1
 40
1
 10
101.966212
 20
20.747980
 30
0.0
 10
101.443044
 20
20.688361
 30
0.0
 10
101.184811
 20
20.453765
 30
0.0
 10
100.884246
 20
20.109102
 30
0.0
  0
LINE
  5
145
100
AcDbEntity
  8
top-bottom
 62
5
100
AcDbLine
 10
100.884246
 20
20.109102
 30
0.0
 11
90.027897
 21
1.269417
 31
0.0
  0
SPLINE
  5
146
100
AcDbEntity
  8
top-bottom
 62
5
100
AcDbSpline
 70
8
 71
3
 72
8
 73
4
 74
0
 40
0
 40
0
 40
0
 40
0
 40
1
 40
1
 40
1
 40
1
 10
90.027897
 20
1.269417
 30
0.0
 10
89.857858
 20
0.864782
 30
0.0
 10
90.048005
 20
0.398764
 30
0.0
 10
90.452640
 20
0.228373
 30
0.0
  0
SPLINE
  5
147
100
AcDbEntity
  8
top-bottom
 62
5
100
AcDbSpline
 70
8
 71
3
 72
8
 73
4
 74
0
 40
0
 40
0
 40
0
 40
0
 40
1
 40
1
 40
1
 40
1
 10
90.452640
 20
0.228373
 30
0.0
 10
90.512259
 20
0.203678
 30
0.0
 10
90.574700
 20
0.185687
 30
0.0
 10
90.638553
 20
0.176162
 30
0.0
  0
LINE
  5
148
100
AcDbEntity
  8
top-bottom
 62
5
100
AcDbLine
 10
90.638553
 20
0.176162
 30
0.0
 11
149.312368
 21
0.176867
 31
0.0
  0
SPLINE
  5
149
100
AcDbEntity
  8
top-bottom
 62
5
100
AcDbSpline
 70
8
 71
3
 72
8
 73
4
 74
0
 40
0
 40
0
 40
0
 40
0
 40
1
 40
1
 40
1
 40
1
 10
149.312368
 20
0.176867
 30
0.0
 10
149.588240
 20
0.176867
 30
0.0
 10
149.812253
 20
0.400880
 30
0.0
 10
149.812253
 20
0.677105
 30
0.0
  0
LINE
  5
14a
100
AcDbEntity
  8
top-bottom
 62
5
100
AcDbLine
 10
149.812253
 20
0.677105
 30
0.0
 11
149.823189
 21
20.247743
 31
0.0
  0
SPLINE
  5
14b
100
AcDbEntity
  8
top-bottom
 62
5
100
AcDbSpline
 70
8
 71
3
 72
8
 73
4
 74
0
 40
0
 40
0
 40
0
 40
0
 40
1
 40
1
 40
1
 40
1
 10
149.823189
 20
20.247743
 30
0.0
 10
149.822483
 20
20.523967
 30
0.0
 10
149.598470
 20
20.747980
 30
0.0
 10
149.322599
 20
20.747980
 30
0.0
  0
SPLINE
  5
14c
100
AcDbEntity
  8
top-bottom
 62
5
100
AcDbSpline
 70
8
 71
3
 72
8
 73
4
 74
0
 40
0
 40
0
 40
0
 40
0
 40
1
 40
1
 40
1
 40
1
 10
102.349221
 20
18.270818
 30
0.0
 10
102.957056
 20
18.270818
 30
0.0
 10
103.449179
 20
17.778342
 30
0.0
 10
103.449179
 20
17.170860
 30
0.0
  0
SPLINE
  5
14d
100
AcDbEntity
  8
top-bottom
 62
5
100
AcDbSpline
 70
8
 71
3
 72
8
 73
4
 74
0
 40
0
 40
0
 40
0
 40
0
 40
1
 40
1
 40
1
 40
1
 10
103.449179
 20
17.170860
 30
0.0
 10
103.449179
 20
16.563379
 30
0.0
 10
102.957056
 20
16.070550
 30
0.0
 10
102.349221
 20
16.070550
 30
0.0
  0
SPLINE
  5
14e
100
AcDbEntity
  8
top-bottom
 62
5
100
AcDbSpline
 70
8
 71
3
 72
8
 73
4
 74
0
 40
0
 40
0
 40
0
 40
0
 40
1
 40
1
 40
1
 40
1
 10
102.349221
 20
16.070550
 30
0.0
 10
101.741740
 20
16.070550
 30
0.0
 10
101.249264
 20
16.563379
 30
0.0
 10
101.249264
 20
17.170860
 30
0.0
  0
SPLINE
  5
14f
100
AcDbEntity
  8
top-bottom
 62
5
100
AcDbSpline
 70
8
 71
3
 72
8
 73
4
 74
0
 40
0
 40
0
 40
0
 40
0
 40
1
 40
1
 40
1
 40
1
 10
101.249264
 20
17.170860
 30
0.0
 10
101.249264
 20
17.778342
 30
0.0
 10
101.741740
 20
18.270818
 30
0.0
 10
102.349221
 20
18.270818
 30
0.0
  0
LINE
  5
150
100
AcDbEntity
  8
top-bottom
 62
5
100
AcDbLine
 10
102.349221
 20
18.270818
 30
0.0
 11
102.349221
 21
18.270818
 31
0.0
  0
SPLINE
  5
151
100
AcDbEntity
  8
top-bottom
 62
5
100
AcDbSpline
 70
8
 71
3
 72
8
 73
4
 74
0
 40
0
 40
0
 40
0
 40
0
 40
1
 40
1
 40
1
 40
1
 10
93.848821
 20
3.769933
 30
0.0
 10
94.456302
 20
3.769933
 30
0.0
 10
94.948778
 20
3.277457
 30
0.0
 10
94.948778
 20
2.669622
 30
0.0
  0
SPLINE
  5
152
100
AcDbEntity
  8
top-bottom
 62
5
100
AcDbSpline
 70
8
 71
3
 72
8
 73
4
 74
0
 40
0
 40
0
 40
0
 40
0
 40
1
 40
1
 40
1
 40
1
 10
94.948778
 20
2.669622
 30
0.0
 10
94.948778
 20
2.062141
 30
0.0
 10
94.456302
 20
1.569665
 30
0.0
 10
93.848821
 20
1.569665
 30
0.0
  0
SPLINE
  5
153
100
AcDbEntity
  8
top-bottom
 62
5
100
AcDbSpline
 70
8
 71
3
 72
8
 73
4
 74
0
 40
0
 40
0
 40
0
 40
0
 40
1
 40
1
 40
1
 40
1
 10
93.848821
 20
1.569665
 30
0.0
 10
93.240986
 20
1.569665
 30
0.0
 10
92.748510
 20
2.062141
 30
0.0
 10
92.748510
 20
2.669622
 30
0.0
  0
SPLINE
  5
154
100
AcDbEntity
  8
top-bottom
 62
5
100
AcDbSpline
 70
8
 71
3
 72
8
 73
4
 74
0
 40
0
 40
0
 40
0
 40
0
 40
1
 40
1
 40
1
 40
1
 10
92.748510
 20
2.669622
 30
0.0
 10
92.748510
 20
3.277457
 30
0.0
 10
93.240986
 20
3.769933
 30
0.0
 10
93.848821
 20
3.769933
 30
0.0
  0
LINE
  5
155
100
AcDbEntity
  8
top-bottom
 62
5
100
AcDbLine
 10
93.848821
 20
3.769933
 30
0.0
 11
93.848821
 21
3.769933
 31
0.0
  0
ENDSEC
  0
SECTION
  2
OBJECTS
  0
DICTIONARY
  5
C
330
0
100
AcDbDictionary
  3
ACAD_GROUP
350
D
  3
ACAD_MLINESTYLE
350
17
  0
DICTIONARY
  5
D
330
C
100
AcDbDictionary
  0
DICTIONARY
  5
1A
330
C
100
AcDbDictionary
  0
DICTIONARY
  5
17
330
C
100
AcDbDictionary
  3
STANDARD
350
18
  0
DICTIONARY
  5
19
330
C
100
AcDbDictionary
  0
ENDSEC
  0
EOF
