999
"DXF R12 Output" (www.mydxf.blogspot.com)
 0 
SECTION
 2 
HEADER
 9 
$ACADVER
 1 
AC1009
 9 
$EXTMIN
 10 
 0 
 20 
 0 
 9 
$EXTMAX
 10 
 8.5 
 20 
 11 
 0 
ENDSEC
 0 
SECTION
 2 
ENTITIES
0
LINE
8
Layer 1
10
3.000000
20
-3.000000
11
-3.000000
21
3.000000
0
LINE
8
Layer 1
10
0.000000
20
-5.000000
11
0.000000
21
5.000000
0
LINE
8
Layer 1
10
8.000000
20
4.000000
11
4.000000
21
8.000000
0
LINE
8
Layer 1
10
6.000000
20
2.000000
11
2.000000
21
6.000000
0
LINE
8
Layer 1
10
4.000000
20
0.000000
11
0.000000
21
4.000000
0
LINE
8
Layer 1
10
209.649000
20
980.773000
11
209.449339
21
982.753288
0
LINE
8
Layer 1
10
209.449339
20
982.753288
11
208.876708
21
984.597794
0
LINE
8
Layer 1
10
208.876708
20
984.597794
11
207.970640
21
986.266987
0
LINE
8
Layer 1
10
207.970640
20
986.266987
11
206.770665
21
987.721336
0
LINE
8
Layer 1
10
206.770665
20
987.721336
11
205.316314
21
988.921310
0
LINE
8
Layer 1
10
205.316314
20
988.921310
11
203.647119
21
989.827378
0
LINE
8
Layer 1
10
203.647119
20
989.827378
11
201.802611
21
990.400009
0
LINE
8
Layer 1
10
201.802611
20
990.400009
11
199.822320
21
990.599670
0
LINE
8
Layer 1
10
199.823000
20
990.599000
11
197.842716
21
990.399339
0
LINE
8
Layer 1
10
197.842716
20
990.399339
11
195.998212
21
989.826708
0
LINE
8
Layer 1
10
195.998212
20
989.826708
11
194.329021
21
988.920640
0
LINE
8
Layer 1
10
194.329021
20
988.920640
11
192.874673
21
987.720666
0
LINE
8
Layer 1
10
192.874673
20
987.720666
11
191.674699
21
986.266317
0
LINE
8
Layer 1
10
191.674699
20
986.266317
11
190.768632
21
984.597124
0
LINE
8
Layer 1
10
190.768632
20
984.597124
11
190.196001
21
982.752618
0
LINE
8
Layer 1
10
190.196001
20
982.752618
11
189.996340
21
980.772330
0
LINE
8
Layer 1
10
189.996000
20
980.773000
11
190.195661
21
978.792712
0
LINE
8
Layer 1
10
190.195661
20
978.792712
11
190.768292
21
976.948206
0
LINE
8
Layer 1
10
190.768292
20
976.948206
11
191.674359
21
975.279013
0
LINE
8
Layer 1
10
191.674359
20
975.279013
11
192.874333
21
973.824664
0
LINE
8
Layer 1
10
192.874333
20
973.824664
11
194.328681
21
972.624690
0
LINE
8
Layer 1
10
194.328681
20
972.624690
11
195.997872
21
971.718622
0
LINE
8
Layer 1
10
195.997872
20
971.718622
11
197.842376
21
971.145991
0
LINE
8
Layer 1
10
197.842376
20
971.145991
11
199.822660
21
970.946330
0
LINE
8
Layer 1
10
199.823000
20
970.946000
11
201.803291
21
971.145661
0
LINE
8
Layer 1
10
201.803291
20
971.145661
11
203.647799
21
971.718292
0
LINE
8
Layer 1
10
203.647799
20
971.718292
11
205.316994
21
972.624360
0
LINE
8
Layer 1
10
205.316994
20
972.624360
11
206.771345
21
973.824334
0
LINE
8
Layer 1
10
206.771345
20
973.824334
11
207.971320
21
975.278683
0
LINE
8
Layer 1
10
207.971320
20
975.278683
11
208.877388
21
976.947876
0
LINE
8
Layer 1
10
208.877388
20
976.947876
11
209.450019
21
978.792382
0
LINE
8
Layer 1
10
209.450019
20
978.792382
11
209.649680
21
980.772670
0
LINE
8
Layer 1
10
209.649000
20
980.773000
11
209.649000
21
980.773000
0
LINE
8
Layer 1
10
611.364000
20
910.282000
11
613.344291
21
910.481607
0
LINE
8
Layer 1
10
613.344291
20
910.481607
11
615.188799
21
911.054105
0
LINE
8
Layer 1
10
615.188799
20
911.054105
11
616.857994
21
911.960009
0
LINE
8
Layer 1
10
616.857994
20
911.960009
11
618.312345
21
913.159836
0
LINE
8
Layer 1
10
618.312345
20
913.159836
11
619.512320
21
914.614101
0
LINE
8
Layer 1
10
619.512320
20
914.614101
11
620.418388
21
916.283320
0
LINE
8
Layer 1
10
620.418388
20
916.283320
11
620.991019
21
918.128007
0
LINE
8
Layer 1
10
620.991019
20
918.128007
11
621.190680
21
920.108680
0
LINE
8
Layer 1
10
621.191000
20
920.108000
11
620.991339
21
922.088288
0
LINE
8
Layer 1
10
620.991339
20
922.088288
11
620.418708
21
923.932794
0
LINE
8
Layer 1
10
620.418708
20
923.932794
11
619.512640
21
925.601987
0
LINE
8
Layer 1
10
619.512640
20
925.601987
11
618.312665
21
927.056336
0
LINE
8
Layer 1
10
618.312665
20
927.056336
11
616.858314
21
928.256310
0
LINE
8
Layer 1
10
616.858314
20
928.256310
11
615.189119
21
929.162378
0
LINE
8
Layer 1
10
615.189119
20
929.162378
11
613.344611
21
929.735009
0
LINE
8
Layer 1
10
613.344611
20
929.735009
11
611.364320
21
929.934670
0
LINE
8
Layer 1
10
611.364000
20
929.935000
11
609.383716
21
929.735339
0
LINE
8
Layer 1
10
609.383716
20
929.735339
11
607.539212
21
929.162708
0
LINE
8
Layer 1
10
607.539212
20
929.162708
11
605.870021
21
928.256640
0
LINE
8
Layer 1
10
605.870021
20
928.256640
11
604.415673
21
927.056666
0
LINE
8
Layer 1
10
604.415673
20
927.056666
11
603.215699
21
925.602317
0
LINE
8
Layer 1
10
603.215699
20
925.602317
11
602.309632
21
923.933124
0
LINE
8
Layer 1
10
602.309632
20
923.933124
11
601.737001
21
922.088618
0
LINE
8
Layer 1
10
601.737001
20
922.088618
11
601.537340
21
920.108330
0
LINE
8
Layer 1
10
601.538000
20
920.108000
11
601.737661
21
918.127327
0
LINE
8
Layer 1
10
601.737661
20
918.127327
11
602.310292
21
916.282640
0
LINE
8
Layer 1
10
602.310292
20
916.282640
11
603.216359
21
914.613421
0
LINE
8
Layer 1
10
603.216359
20
914.613421
11
604.416332
21
913.159156
0
LINE
8
Layer 1
10
604.416332
20
913.159156
11
605.870681
21
911.959329
0
LINE
8
Layer 1
10
605.870681
20
911.959329
11
607.539872
21
911.053425
0
LINE
8
Layer 1
10
607.539872
20
911.053425
11
609.384376
21
910.480927
0
LINE
8
Layer 1
10
609.384376
20
910.480927
11
611.364660
21
910.281320
0
LINE
8
Layer 1
10
611.364000
20
910.282000
11
611.364000
21
910.282000
0
LINE
8
Layer 1
10
94.551600
20
675.399000
11
92.936383
21
674.235746
0
LINE
8
Layer 1
10
92.936383
20
674.235746
11
91.625355
21
672.817469
0
LINE
8
Layer 1
10
91.625355
20
672.817469
11
90.632953
21
671.198145
0
LINE
8
Layer 1
10
90.632953
20
671.198145
11
89.973613
21
669.431750
0
LINE
8
Layer 1
10
89.973613
20
669.431750
11
89.661771
21
667.572262
0
LINE
8
Layer 1
10
89.661771
20
667.572262
11
89.711864
21
665.673656
0
LINE
8
Layer 1
10
89.711864
20
665.673656
11
90.138328
21
663.789910
0
LINE
8
Layer 1
10
90.138328
20
663.789910
11
90.955600
21
661.975000
0
LINE
8
Layer 1
10
90.955600
20
661.975000
11
92.118597
21
660.359724
0
LINE
8
Layer 1
10
92.118597
20
660.359724
11
93.536634
21
659.048541
0
LINE
8
Layer 1
10
93.536634
20
659.048541
11
95.155739
21
658.055921
0
LINE
8
Layer 1
10
95.155739
20
658.055921
11
96.921941
21
657.396331
0
LINE
8
Layer 1
10
96.921941
20
657.396331
11
98.781269
21
657.084242
0
LINE
8
Layer 1
10
98.781269
20
657.084242
11
100.679753
21
657.134121
0
LINE
8
Layer 1
10
100.679753
20
657.134121
11
102.563420
21
657.560437
0
LINE
8
Layer 1
10
102.563420
20
657.560437
11
104.378300
21
658.377660
0
LINE
8
Layer 1
10
104.378000
20
658.377000
11
105.993644
21
659.540446
0
LINE
8
Layer 1
10
105.993644
20
659.540446
11
107.304978
21
660.958814
0
LINE
8
Layer 1
10
107.304978
20
660.958814
11
108.297564
21
662.578150
0
LINE
8
Layer 1
10
108.297564
20
662.578150
11
108.956966
21
664.344501
0
LINE
8
Layer 1
10
108.956966
20
664.344501
11
109.268748
21
666.203915
0
LINE
8
Layer 1
10
109.268748
20
666.203915
11
109.218471
21
668.102438
0
LINE
8
Layer 1
10
109.218471
20
668.102438
11
108.791701
21
669.986117
0
LINE
8
Layer 1
10
108.791701
20
669.986117
11
107.974000
21
671.801000
0
LINE
8
Layer 1
10
107.974000
20
671.801000
11
106.810974
21
673.416276
0
LINE
8
Layer 1
10
106.810974
20
673.416276
11
105.392925
21
674.727459
0
LINE
8
Layer 1
10
105.392925
20
674.727459
11
103.773820
21
675.720079
0
LINE
8
Layer 1
10
103.773820
20
675.720079
11
102.007625
21
676.379669
0
LINE
8
Layer 1
10
102.007625
20
676.379669
11
100.148309
21
676.691758
0
LINE
8
Layer 1
10
100.148309
20
676.691758
11
98.249837
21
676.641879
0
LINE
8
Layer 1
10
98.249837
20
676.641879
11
96.366179
21
676.215563
0
LINE
8
Layer 1
10
96.366179
20
676.215563
11
94.551300
21
675.398340
0
LINE
8
Layer 1
10
94.551600
20
675.399000
11
94.551600
21
675.399000
0
LINE
8
Layer 1
10
363.696000
20
746.887000
11
363.611536
21
747.724838
0
LINE
8
Layer 1
10
363.611536
20
747.724838
11
363.369291
21
748.505208
0
LINE
8
Layer 1
10
363.369291
20
748.505208
11
362.985983
21
749.211390
0
LINE
8
Layer 1
10
362.985983
20
749.211390
11
362.478331
21
749.826665
0
LINE
8
Layer 1
10
362.478331
20
749.826665
11
361.863055
21
750.334315
0
LINE
8
Layer 1
10
361.863055
20
750.334315
11
361.156874
21
750.717622
0
LINE
8
Layer 1
10
361.156874
20
750.717622
11
360.376506
21
750.959867
0
LINE
8
Layer 1
10
360.376506
20
750.959867
11
359.538670
21
751.044330
0
LINE
8
Layer 1
10
359.539000
20
751.044000
11
358.701158
21
750.959537
0
LINE
8
Layer 1
10
358.701158
20
750.959537
11
357.920785
21
750.717292
0
LINE
8
Layer 1
10
357.920785
20
750.717292
11
357.214600
21
750.333985
0
LINE
8
Layer 1
10
357.214600
20
750.333985
11
356.599321
21
749.826335
0
LINE
8
Layer 1
10
356.599321
20
749.826335
11
356.091668
21
749.211060
0
LINE
8
Layer 1
10
356.091668
20
749.211060
11
355.708360
21
748.504878
0
LINE
8
Layer 1
10
355.708360
20
748.504878
11
355.466114
21
747.724508
0
LINE
8
Layer 1
10
355.466114
20
747.724508
11
355.381650
21
746.886670
0
LINE
8
Layer 1
10
355.382000
20
746.887000
11
355.466464
21
746.048780
0
LINE
8
Layer 1
10
355.466464
20
746.048780
11
355.708710
21
745.268231
0
LINE
8
Layer 1
10
355.708710
20
745.268231
11
356.092018
21
744.562026
0
LINE
8
Layer 1
10
356.092018
20
744.562026
11
356.599671
21
743.946836
0
LINE
8
Layer 1
10
356.599671
20
743.946836
11
357.214950
21
743.439334
0
LINE
8
Layer 1
10
357.214950
20
743.439334
11
357.921135
21
743.056191
0
LINE
8
Layer 1
10
357.921135
20
743.056191
11
358.701508
21
742.814079
0
LINE
8
Layer 1
10
358.701508
20
742.814079
11
359.539350
21
742.729670
0
LINE
8
Layer 1
10
359.539000
20
742.730000
11
360.376836
21
742.814409
0
LINE
8
Layer 1
10
360.376836
20
742.814409
11
361.157204
21
743.056521
0
LINE
8
Layer 1
10
361.157204
20
743.056521
11
361.863385
21
743.439664
0
LINE
8
Layer 1
10
361.863385
20
743.439664
11
362.478661
21
743.947166
0
LINE
8
Layer 1
10
362.478661
20
743.947166
11
362.986313
21
744.562356
0
LINE
8
Layer 1
10
362.986313
20
744.562356
11
363.369621
21
745.268561
0
LINE
8
Layer 1
10
363.369621
20
745.268561
11
363.611866
21
746.049110
0
LINE
8
Layer 1
10
363.611866
20
746.049110
11
363.696330
21
746.887330
0
LINE
8
Layer 1
10
363.696000
20
746.887000
11
363.696000
21
746.887000
0
LINE
8
Layer 1
10
239.811000
20
897.112000
11
239.726534
21
897.950220
0
LINE
8
Layer 1
10
239.726534
20
897.950220
11
239.484270
21
898.730769
0
LINE
8
Layer 1
10
239.484270
20
898.730769
11
239.100912
21
899.436974
0
LINE
8
Layer 1
10
239.100912
20
899.436974
11
238.593164
21
900.052164
0
LINE
8
Layer 1
10
238.593164
20
900.052164
11
237.977728
21
900.559666
0
LINE
8
Layer 1
10
237.977728
20
900.559666
11
237.271308
21
900.942809
0
LINE
8
Layer 1
10
237.271308
20
900.942809
11
236.490608
21
901.184921
0
LINE
8
Layer 1
10
236.490608
20
901.184921
11
235.652330
21
901.269330
0
LINE
8
Layer 1
10
235.652000
20
901.270000
11
234.814162
21
901.185591
0
LINE
8
Layer 1
10
234.814162
20
901.185591
11
234.033792
21
900.943479
0
LINE
8
Layer 1
10
234.033792
20
900.943479
11
233.327610
21
900.560336
0
LINE
8
Layer 1
10
233.327610
20
900.560336
11
232.712335
21
900.052834
0
LINE
8
Layer 1
10
232.712335
20
900.052834
11
232.204685
21
899.437644
0
LINE
8
Layer 1
10
232.204685
20
899.437644
11
231.821378
21
898.731439
0
LINE
8
Layer 1
10
231.821378
20
898.731439
11
231.579133
21
897.950890
0
LINE
8
Layer 1
10
231.579133
20
897.950890
11
231.494670
21
897.112670
0
LINE
8
Layer 1
10
231.495000
20
897.112000
11
231.579463
21
896.274162
0
LINE
8
Layer 1
10
231.579463
20
896.274162
11
231.821708
21
895.493792
0
LINE
8
Layer 1
10
231.821708
20
895.493792
11
232.205015
21
894.787610
0
LINE
8
Layer 1
10
232.205015
20
894.787610
11
232.712665
21
894.172335
0
LINE
8
Layer 1
10
232.712665
20
894.172335
11
233.327940
21
893.664685
0
LINE
8
Layer 1
10
233.327940
20
893.664685
11
234.034122
21
893.281378
0
LINE
8
Layer 1
10
234.034122
20
893.281378
11
234.814492
21
893.039133
0
LINE
8
Layer 1
10
234.814492
20
893.039133
11
235.652330
21
892.954670
0
LINE
8
Layer 1
10
235.652000
20
892.955000
11
236.490278
21
893.039463
0
LINE
8
Layer 1
10
236.490278
20
893.039463
11
237.270978
21
893.281708
0
LINE
8
Layer 1
10
237.270978
20
893.281708
11
237.977398
21
893.665015
0
LINE
8
Layer 1
10
237.977398
20
893.665015
11
238.592834
21
894.172665
0
LINE
8
Layer 1
10
238.592834
20
894.172665
11
239.100582
21
894.787940
0
LINE
8
Layer 1
10
239.100582
20
894.787940
11
239.483940
21
895.494122
0
LINE
8
Layer 1
10
239.483940
20
895.494122
11
239.726204
21
896.274492
0
LINE
8
Layer 1
10
239.726204
20
896.274492
11
239.810670
21
897.112330
0
LINE
8
Layer 1
10
239.811000
20
897.112000
11
239.811000
21
897.112000
0
LINE
8
Layer 1
10
527.137000
20
883.422000
11
527.052534
21
884.259838
0
LINE
8
Layer 1
10
527.052534
20
884.259838
11
526.810270
21
885.040208
0
LINE
8
Layer 1
10
526.810270
20
885.040208
11
526.426912
21
885.746390
0
LINE
8
Layer 1
10
526.426912
20
885.746390
11
525.919162
21
886.361665
0
LINE
8
Layer 1
10
525.919162
20
886.361665
11
525.303726
21
886.869315
0
LINE
8
Layer 1
10
525.303726
20
886.869315
11
524.597304
21
887.252622
0
LINE
8
Layer 1
10
524.597304
20
887.252622
11
523.816601
21
887.494867
0
LINE
8
Layer 1
10
523.816601
20
887.494867
11
522.978320
21
887.579330
0
LINE
8
Layer 1
10
522.979000
20
887.580000
11
522.141162
21
887.495537
0
LINE
8
Layer 1
10
522.141162
20
887.495537
11
521.360792
21
887.253292
0
LINE
8
Layer 1
10
521.360792
20
887.253292
11
520.654610
21
886.869985
0
LINE
8
Layer 1
10
520.654610
20
886.869985
11
520.039335
21
886.362335
0
LINE
8
Layer 1
10
520.039335
20
886.362335
11
519.531685
21
885.747060
0
LINE
8
Layer 1
10
519.531685
20
885.747060
11
519.148378
21
885.040878
0
LINE
8
Layer 1
10
519.148378
20
885.040878
11
518.906133
21
884.260508
0
LINE
8
Layer 1
10
518.906133
20
884.260508
11
518.821670
21
883.422670
0
LINE
8
Layer 1
10
518.821000
20
883.422000
11
518.905463
21
882.583719
0
LINE
8
Layer 1
10
518.905463
20
882.583719
11
519.147708
21
881.803018
0
LINE
8
Layer 1
10
519.147708
20
881.803018
11
519.531015
21
881.096598
0
LINE
8
Layer 1
10
519.531015
20
881.096598
11
520.038665
21
880.481162
0
LINE
8
Layer 1
10
520.038665
20
880.481162
11
520.653940
21
879.973415
0
LINE
8
Layer 1
10
520.653940
20
879.973415
11
521.360122
21
879.590059
0
LINE
8
Layer 1
10
521.360122
20
879.590059
11
522.140492
21
879.347796
0
LINE
8
Layer 1
10
522.140492
20
879.347796
11
522.978330
21
879.263330
0
LINE
8
Layer 1
10
522.979000
20
879.264000
11
523.817281
21
879.348466
0
LINE
8
Layer 1
10
523.817281
20
879.348466
11
524.597984
21
879.590729
0
LINE
8
Layer 1
10
524.597984
20
879.590729
11
525.304406
21
879.974085
0
LINE
8
Layer 1
10
525.304406
20
879.974085
11
525.919843
21
880.481832
0
LINE
8
Layer 1
10
525.919843
20
880.481832
11
526.427592
21
881.097268
0
LINE
8
Layer 1
10
526.427592
20
881.097268
11
526.810950
21
881.803688
0
LINE
8
Layer 1
10
526.810950
20
881.803688
11
527.053214
21
882.584389
0
LINE
8
Layer 1
10
527.053214
20
882.584389
11
527.137680
21
883.422670
0
LINE
8
Layer 1
10
527.137000
20
883.422000
11
527.137000
21
883.422000
0
LINE
8
Layer 1
10
527.170000
20
811.554000
11
527.085534
21
812.391838
0
LINE
8
Layer 1
10
527.085534
20
812.391838
11
526.843270
21
813.172208
0
LINE
8
Layer 1
10
526.843270
20
813.172208
11
526.459912
21
813.878390
0
LINE
8
Layer 1
10
526.459912
20
813.878390
11
525.952162
21
814.493665
0
LINE
8
Layer 1
10
525.952162
20
814.493665
11
525.336726
21
815.001315
0
LINE
8
Layer 1
10
525.336726
20
815.001315
11
524.630304
21
815.384622
0
LINE
8
Layer 1
10
524.630304
20
815.384622
11
523.849601
21
815.626867
0
LINE
8
Layer 1
10
523.849601
20
815.626867
11
523.011320
21
815.711330
0
LINE
8
Layer 1
10
523.012000
20
815.711000
11
522.174162
21
815.626537
0
LINE
8
Layer 1
10
522.174162
20
815.626537
11
521.393792
21
815.384292
0
LINE
8
Layer 1
10
521.393792
20
815.384292
11
520.687610
21
815.000985
0
LINE
8
Layer 1
10
520.687610
20
815.000985
11
520.072335
21
814.493335
0
LINE
8
Layer 1
10
520.072335
20
814.493335
11
519.564685
21
813.878060
0
LINE
8
Layer 1
10
519.564685
20
813.878060
11
519.181378
21
813.171878
0
LINE
8
Layer 1
10
519.181378
20
813.171878
11
518.939133
21
812.391508
0
LINE
8
Layer 1
10
518.939133
20
812.391508
11
518.854670
21
811.553670
0
LINE
8
Layer 1
10
518.854000
20
811.554000
11
518.938463
21
810.715776
0
LINE
8
Layer 1
10
518.938463
20
810.715776
11
519.180708
21
809.935225
0
LINE
8
Layer 1
10
519.180708
20
809.935225
11
519.564015
21
809.229018
0
LINE
8
Layer 1
10
519.564015
20
809.229018
11
520.071665
21
808.613828
0
LINE
8
Layer 1
10
520.071665
20
808.613828
11
520.686940
21
808.106324
0
LINE
8
Layer 1
10
520.686940
20
808.106324
11
521.393122
21
807.723181
0
LINE
8
Layer 1
10
521.393122
20
807.723181
11
522.173492
21
807.481069
0
LINE
8
Layer 1
10
522.173492
20
807.481069
11
523.011330
21
807.396660
0
LINE
8
Layer 1
10
523.012000
20
807.396000
11
523.850281
21
807.480409
0
LINE
8
Layer 1
10
523.850281
20
807.480409
11
524.630984
21
807.722521
0
LINE
8
Layer 1
10
524.630984
20
807.722521
11
525.337406
21
808.105664
0
LINE
8
Layer 1
10
525.337406
20
808.105664
11
525.952842
21
808.613167
0
LINE
8
Layer 1
10
525.952842
20
808.613167
11
526.460592
21
809.228358
0
LINE
8
Layer 1
10
526.460592
20
809.228358
11
526.843950
21
809.934565
0
LINE
8
Layer 1
10
526.843950
20
809.934565
11
527.086214
21
810.715116
0
LINE
8
Layer 1
10
527.086214
20
810.715116
11
527.170680
21
811.553340
0
LINE
8
Layer 1
10
527.170000
20
811.554000
11
527.170000
21
811.554000
0
LINE
8
Layer 1
10
187.873000
20
717.578000
11
187.788537
21
718.415838
0
LINE
8
Layer 1
10
187.788537
20
718.415838
11
187.546292
21
719.196208
0
LINE
8
Layer 1
10
187.546292
20
719.196208
11
187.162985
21
719.902390
0
LINE
8
Layer 1
10
187.162985
20
719.902390
11
186.655334
21
720.517665
0
LINE
8
Layer 1
10
186.655334
20
720.517665
11
186.040057
21
721.025315
0
LINE
8
Layer 1
10
186.040057
20
721.025315
11
185.333874
21
721.408622
0
LINE
8
Layer 1
10
185.333874
20
721.408622
11
184.553502
21
721.650867
0
LINE
8
Layer 1
10
184.553502
20
721.650867
11
183.715660
21
721.735330
0
LINE
8
Layer 1
10
183.716000
20
721.736000
11
182.877714
21
721.651537
0
LINE
8
Layer 1
10
182.877714
20
721.651537
11
182.097011
21
721.409292
0
LINE
8
Layer 1
10
182.097011
20
721.409292
11
181.390592
21
721.025985
0
LINE
8
Layer 1
10
181.390592
20
721.025985
11
180.775160
21
720.518335
0
LINE
8
Layer 1
10
180.775160
20
720.518335
11
180.267417
21
719.903060
0
LINE
8
Layer 1
10
180.267417
20
719.903060
11
179.884064
21
719.196878
0
LINE
8
Layer 1
10
179.884064
20
719.196878
11
179.641805
21
718.416508
0
LINE
8
Layer 1
10
179.641805
20
718.416508
11
179.557340
21
717.578670
0
LINE
8
Layer 1
10
179.557000
20
717.578000
11
179.641465
21
716.739780
0
LINE
8
Layer 1
10
179.641465
20
716.739780
11
179.883724
21
715.959231
0
LINE
8
Layer 1
10
179.883724
20
715.959231
11
180.267077
21
715.253026
0
LINE
8
Layer 1
10
180.267077
20
715.253026
11
180.774820
21
714.637836
0
LINE
8
Layer 1
10
180.774820
20
714.637836
11
181.390252
21
714.130334
0
LINE
8
Layer 1
10
181.390252
20
714.130334
11
182.096671
21
713.747191
0
LINE
8
Layer 1
10
182.096671
20
713.747191
11
182.877374
21
713.505079
0
LINE
8
Layer 1
10
182.877374
20
713.505079
11
183.715660
21
713.420670
0
LINE
8
Layer 1
10
183.716000
20
713.421000
11
184.553842
21
713.505409
0
LINE
8
Layer 1
10
184.553842
20
713.505409
11
185.334214
21
713.747521
0
LINE
8
Layer 1
10
185.334214
20
713.747521
11
186.040397
21
714.130664
0
LINE
8
Layer 1
10
186.040397
20
714.130664
11
186.655674
21
714.638166
0
LINE
8
Layer 1
10
186.655674
20
714.638166
11
187.163325
21
715.253356
0
LINE
8
Layer 1
10
187.163325
20
715.253356
11
187.546632
21
715.959561
0
LINE
8
Layer 1
10
187.546632
20
715.959561
11
187.788877
21
716.740110
0
LINE
8
Layer 1
10
187.788877
20
716.740110
11
187.873340
21
717.578330
0
LINE
8
Layer 1
10
187.873000
20
717.578000
11
187.873000
21
717.578000
0
LINE
8
Layer 1
10
527.157000
20
811.550000
11
527.157000
21
811.550000
0
LINE
8
Layer 1
10
611.400000
20
766.567000
11
613.380672
21
766.766662
0
LINE
8
Layer 1
10
613.380672
20
766.766662
11
615.225359
21
767.339293
0
LINE
8
Layer 1
10
615.225359
20
767.339293
11
616.894576
21
768.245363
0
LINE
8
Layer 1
10
616.894576
20
768.245363
11
618.348839
21
769.445339
0
LINE
8
Layer 1
10
618.348839
20
769.445339
11
619.548664
21
770.899690
0
LINE
8
Layer 1
10
619.548664
20
770.899690
11
620.454567
21
772.568885
0
LINE
8
Layer 1
10
620.454567
20
772.568885
11
621.027063
21
774.413392
0
LINE
8
Layer 1
10
621.027063
20
774.413392
11
621.226670
21
776.393680
0
LINE
8
Layer 1
10
621.227000
20
776.393000
11
621.027393
21
778.373288
0
LINE
8
Layer 1
10
621.027393
20
778.373288
11
620.454897
21
780.217794
0
LINE
8
Layer 1
10
620.454897
20
780.217794
11
619.548994
21
781.886987
0
LINE
8
Layer 1
10
619.548994
20
781.886987
11
618.349169
21
783.341336
0
LINE
8
Layer 1
10
618.349169
20
783.341336
11
616.894906
21
784.541310
0
LINE
8
Layer 1
10
616.894906
20
784.541310
11
615.225689
21
785.447378
0
LINE
8
Layer 1
10
615.225689
20
785.447378
11
613.381002
21
786.020009
0
LINE
8
Layer 1
10
613.381002
20
786.020009
11
611.400330
21
786.219670
0
LINE
8
Layer 1
10
611.400000
20
786.220000
11
609.419712
21
786.020339
0
LINE
8
Layer 1
10
609.419712
20
786.020339
11
607.575206
21
785.447708
0
LINE
8
Layer 1
10
607.575206
20
785.447708
11
605.906013
21
784.541640
0
LINE
8
Layer 1
10
605.906013
20
784.541640
11
604.451664
21
783.341666
0
LINE
8
Layer 1
10
604.451664
20
783.341666
11
603.251690
21
781.887317
0
LINE
8
Layer 1
10
603.251690
20
781.887317
11
602.345622
21
780.218124
0
LINE
8
Layer 1
10
602.345622
20
780.218124
11
601.772991
21
778.373618
0
LINE
8
Layer 1
10
601.772991
20
778.373618
11
601.573330
21
776.393330
0
LINE
8
Layer 1
10
601.574000
20
776.393000
11
601.773661
21
774.412712
0
LINE
8
Layer 1
10
601.773661
20
774.412712
11
602.346292
21
772.568205
0
LINE
8
Layer 1
10
602.346292
20
772.568205
11
603.252360
21
770.899010
0
LINE
8
Layer 1
10
603.252360
20
770.899010
11
604.452334
21
769.444659
0
LINE
8
Layer 1
10
604.452334
20
769.444659
11
605.906683
21
768.244683
0
LINE
8
Layer 1
10
605.906683
20
768.244683
11
607.575876
21
767.338613
0
LINE
8
Layer 1
10
607.575876
20
767.338613
11
609.420382
21
766.765982
0
LINE
8
Layer 1
10
609.420382
20
766.765982
11
611.400670
21
766.566320
0
LINE
8
Layer 1
10
611.400000
20
766.567000
11
611.400000
21
766.567000
0
LINE
8
Layer 1
10
90.051600
20
720.358000
11
100.366000
21
702.328000
0
LINE
8
Layer 1
10
100.366000
20
702.328000
11
101.295689
21
700.245861
0
LINE
8
Layer 1
10
101.295689
20
700.245861
11
101.780638
21
698.086128
0
LINE
8
Layer 1
10
101.780638
20
698.086128
11
101.837092
21
695.909831
0
LINE
8
Layer 1
10
101.837092
20
695.909831
11
101.481300
21
693.778002
0
LINE
8
Layer 1
10
101.481300
20
693.778002
11
100.729508
21
691.751674
0
LINE
8
Layer 1
10
100.729508
20
691.751674
11
99.597962
21
689.891876
0
LINE
8
Layer 1
10
99.597962
20
689.891876
11
98.102911
21
688.259641
0
LINE
8
Layer 1
10
98.102911
20
688.259641
11
96.260600
21
686.916000
0
LINE
8
Layer 1
10
96.260900
20
686.916000
11
90.016900
21
683.254660
0
LINE
8
Layer 1
10
90.016900
20
683.254000
11
88.392133
21
682.203381
0
LINE
8
Layer 1
10
88.392133
20
682.203381
11
86.910152
21
681.017173
0
LINE
8
Layer 1
10
86.910152
20
681.017173
11
85.574430
21
679.708353
0
LINE
8
Layer 1
10
85.574430
20
679.708353
11
84.388438
21
678.289894
0
LINE
8
Layer 1
10
84.388438
20
678.289894
11
83.355650
21
676.774771
0
LINE
8
Layer 1
10
83.355650
20
676.774771
11
82.479537
21
675.175958
0
LINE
8
Layer 1
10
82.479537
20
675.175958
11
81.763574
21
673.506430
0
LINE
8
Layer 1
10
81.763574
20
673.506430
11
81.211233
21
671.779161
0
LINE
8
Layer 1
10
81.211233
20
671.779161
11
80.825985
21
670.007127
0
LINE
8
Layer 1
10
80.825985
20
670.007127
11
80.611304
21
668.203301
0
LINE
8
Layer 1
10
80.611304
20
668.203301
11
80.570663
21
666.380658
0
LINE
8
Layer 1
10
80.570663
20
666.380658
11
80.707533
21
664.552173
0
LINE
8
Layer 1
10
80.707533
20
664.552173
11
81.025389
21
662.730820
0
LINE
8
Layer 1
10
81.025389
20
662.730820
11
81.527702
21
660.929574
0
LINE
8
Layer 1
10
81.527702
20
660.929574
11
82.217945
21
659.161409
0
LINE
8
Layer 1
10
82.217945
20
659.161409
11
83.099590
21
657.439300
0
LINE
8
Layer 1
10
83.099600
20
657.440000
11
84.149993
21
655.815454
0
LINE
8
Layer 1
10
84.149993
20
655.815454
11
85.336030
21
654.333637
0
LINE
8
Layer 1
10
85.336030
20
654.333637
11
86.644729
21
652.998027
0
LINE
8
Layer 1
10
86.644729
20
652.998027
11
88.063106
21
651.812103
0
LINE
8
Layer 1
10
88.063106
20
651.812103
11
89.578180
21
650.779342
0
LINE
8
Layer 1
10
89.578180
20
650.779342
11
91.176966
21
649.903225
0
LINE
8
Layer 1
10
91.176966
20
649.903225
11
92.846484
21
649.187228
0
LINE
8
Layer 1
10
92.846484
20
649.187228
11
94.573750
21
648.634831
0
LINE
8
Layer 1
10
94.573750
20
648.634831
11
96.345782
21
648.249512
0
LINE
8
Layer 1
10
96.345782
20
648.249512
11
98.149596
21
648.034750
0
LINE
8
Layer 1
10
98.149596
20
648.034750
11
99.972211
21
647.994023
0
LINE
8
Layer 1
10
99.972211
20
647.994023
11
101.800644
21
648.130809
0
LINE
8
Layer 1
10
101.800644
20
648.130809
11
103.621912
21
648.448588
0
LINE
8
Layer 1
10
103.621912
20
648.448588
11
105.423032
21
648.950837
0
LINE
8
Layer 1
10
105.423032
20
648.950837
11
107.191022
21
649.641035
0
LINE
8
Layer 1
10
107.191022
20
649.641035
11
108.912900
21
650.522660
0
LINE
8
Layer 1
10
108.913000
20
650.522000
11
114.991710
21
654.068670
0
LINE
8
Layer 1
10
114.992000
20
654.069000
11
117.092344
21
655.025370
0
LINE
8
Layer 1
10
117.092344
20
655.025370
11
119.274250
21
655.526692
0
LINE
8
Layer 1
10
119.274250
20
655.526692
11
121.474531
21
655.589794
0
LINE
8
Layer 1
10
121.474531
20
655.589794
11
123.630000
21
655.231505
0
LINE
8
Layer 1
10
123.630000
20
655.231505
11
125.677469
21
654.468653
0
LINE
8
Layer 1
10
125.677469
20
654.468653
11
127.553750
21
653.318065
0
LINE
8
Layer 1
10
127.553750
20
653.318065
11
129.195656
21
651.796572
0
LINE
8
Layer 1
10
129.195656
20
651.796572
11
130.540000
21
649.921000
0
LINE
8
Layer 1
10
130.540000
20
649.921000
11
140.137300
21
633.198300
0
LINE
8
Layer 1
10
140.137000
20
633.198000
11
141.089870
21
632.300293
0
LINE
8
Layer 1
10
141.089870
20
632.300293
11
142.271871
21
631.852335
0
LINE
8
Layer 1
10
142.271871
20
631.852335
11
143.535115
21
631.879877
0
LINE
8
Layer 1
10
143.535115
20
631.879877
11
144.731710
21
632.408670
0
LINE
8
Layer 1
10
144.732000
20
632.409000
11
200.478700
21
664.497000
0
LINE
8
Layer 1
10
200.478000
20
664.497000
11
201.536660
21
664.769000
0
LINE
8
Layer 1
10
201.537000
20
664.769000
11
340.601000
21
685.441000
0
LINE
8
Layer 1
10
340.601000
20
685.441000
11
341.305332
21
685.622651
0
LINE
8
Layer 1
10
341.305332
20
685.622651
11
341.923670
21
686.006330
0
LINE
8
Layer 1
10
341.924000
20
686.006000
11
381.788000
21
740.638000
0
LINE
8
Layer 1
10
381.788000
20
740.638000
11
382.400496
21
741.047663
0
LINE
8
Layer 1
10
382.400496
20
741.047663
11
383.124000
21
741.191330
0
LINE
8
Layer 1
10
383.124000
20
741.192000
11
519.196000
21
741.192000
0
LINE
8
Layer 1
10
519.196000
20
741.192000
11
526.756010
21
741.192000
0
LINE
8
Layer 1
10
526.756000
20
741.192000
11
594.692700
21
741.192000
0
LINE
8
Layer 1
10
594.693000
20
741.192000
11
595.428855
21
741.340605
0
LINE
8
Layer 1
10
595.428855
20
741.340605
11
596.029835
21
741.745835
0
LINE
8
Layer 1
10
596.029835
20
741.745835
11
596.435065
21
742.346815
0
LINE
8
Layer 1
10
596.435065
20
742.346815
11
596.583670
21
743.082670
0
LINE
8
Layer 1
10
596.583000
20
743.082000
11
596.628300
21
746.159330
0
LINE
8
Layer 1
10
596.629000
20
746.160000
11
596.701186
21
748.444836
0
LINE
8
Layer 1
10
596.701186
20
748.444836
11
596.944870
21
750.572952
0
LINE
8
Layer 1
10
596.944870
20
750.572952
11
597.400740
21
752.498754
0
LINE
8
Layer 1
10
597.400740
20
752.498754
11
598.109485
21
754.176649
0
LINE
8
Layer 1
10
598.109485
20
754.176649
11
599.111793
21
755.561044
0
LINE
8
Layer 1
10
599.111793
20
755.561044
11
600.448352
21
756.606346
0
LINE
8
Layer 1
10
600.448352
20
756.606346
11
602.159852
21
757.266963
0
LINE
8
Layer 1
10
602.159852
20
757.266963
11
604.286980
21
757.497300
0
LINE
8
Layer 1
10
604.287000
20
757.497000
11
611.400330
21
757.497000
0
LINE
8
Layer 1
10
611.400000
20
757.497000
11
613.387509
21
757.600259
0
LINE
8
Layer 1
10
613.387509
20
757.600259
11
615.315633
21
757.903138
0
LINE
8
Layer 1
10
615.315633
20
757.903138
11
617.174019
21
758.395287
0
LINE
8
Layer 1
10
617.174019
20
758.395287
11
618.952312
21
759.066355
0
LINE
8
Layer 1
10
618.952312
20
759.066355
11
620.640161
21
759.905994
0
LINE
8
Layer 1
10
620.640161
20
759.905994
11
622.227211
21
760.903854
0
LINE
8
Layer 1
10
622.227211
20
760.903854
11
623.703108
21
762.049586
0
LINE
8
Layer 1
10
623.703108
20
762.049586
11
625.057500
21
763.332839
0
LINE
8
Layer 1
10
625.057500
20
763.332839
11
626.280032
21
764.743264
0
LINE
8
Layer 1
10
626.280032
20
764.743264
11
627.360352
21
766.270512
0
LINE
8
Layer 1
10
627.360352
20
766.270512
11
628.288104
21
767.904233
0
LINE
8
Layer 1
10
628.288104
20
767.904233
11
629.052937
21
769.634078
0
LINE
8
Layer 1
10
629.052937
20
769.634078
11
629.644497
21
771.449697
0
LINE
8
Layer 1
10
629.644497
20
771.449697
11
630.052430
21
773.340739
0
LINE
8
Layer 1
10
630.052430
20
773.340739
11
630.266382
21
775.296857
0
LINE
8
Layer 1
10
630.266382
20
775.296857
11
630.276000
21
777.307700
0
LINE
8
Layer 1
10
630.276000
20
777.308000
11
630.091159
21
779.184944
0
LINE
8
Layer 1
10
630.091159
20
779.184944
11
629.722334
21
780.998930
0
LINE
8
Layer 1
10
629.722334
20
780.998930
11
629.179571
21
782.741935
0
LINE
8
Layer 1
10
629.179571
20
782.741935
11
628.472918
21
784.405937
0
LINE
8
Layer 1
10
628.472918
20
784.405937
11
627.612420
21
785.982917
0
LINE
8
Layer 1
10
627.612420
20
785.982917
11
626.608126
21
787.464852
0
LINE
8
Layer 1
10
626.608126
20
787.464852
11
625.470083
21
788.843720
0
LINE
8
Layer 1
10
625.470083
20
788.843720
11
624.208336
21
790.111500
0
LINE
8
Layer 1
10
624.208336
20
790.111500
11
622.832934
21
791.260171
0
LINE
8
Layer 1
10
622.832934
20
791.260171
11
621.353923
21
792.281711
0
LINE
8
Layer 1
10
621.353923
20
792.281711
11
619.781350
21
793.168099
0
LINE
8
Layer 1
10
619.781350
20
793.168099
11
618.125262
21
793.911312
0
LINE
8
Layer 1
10
618.125262
20
793.911312
11
616.395706
21
794.503331
0
LINE
8
Layer 1
10
616.395706
20
794.503331
11
614.602729
21
794.936133
0
LINE
8
Layer 1
10
614.602729
20
794.936133
11
612.756378
21
795.201696
0
LINE
8
Layer 1
10
612.756378
20
795.201696
11
610.866700
21
795.292000
0
LINE
8
Layer 1
10
610.867000
20
795.292000
11
605.278000
21
795.292000
0
LINE
8
Layer 1
10
605.278000
20
795.292000
11
603.108852
21
795.522396
0
LINE
8
Layer 1
10
603.108852
20
795.522396
11
601.286574
21
796.183167
0
LINE
8
Layer 1
10
601.286574
20
796.183167
11
599.793396
21
797.228688
0
LINE
8
Layer 1
10
599.793396
20
797.228688
11
598.611550
21
798.613336
0
LINE
8
Layer 1
10
598.611550
20
798.613336
11
597.723267
21
800.291486
0
LINE
8
Layer 1
10
597.723267
20
800.291486
11
597.110778
21
802.217513
0
LINE
8
Layer 1
10
597.110778
20
802.217513
11
596.756316
21
804.345792
0
LINE
8
Layer 1
10
596.756316
20
804.345792
11
596.642110
21
806.630700
0
LINE
8
Layer 1
10
596.642000
20
806.630000
11
596.615300
21
889.872700
0
LINE
8
Layer 1
10
596.615000
20
889.873000
11
596.728629
21
892.157836
0
LINE
8
Layer 1
10
596.728629
20
892.157836
11
597.082805
21
894.285952
0
LINE
8
Layer 1
10
597.082805
20
894.285952
11
597.695211
21
896.211754
0
LINE
8
Layer 1
10
597.695211
20
896.211754
11
598.583527
21
897.889649
0
LINE
8
Layer 1
10
598.583527
20
897.889649
11
599.765438
21
899.274044
0
LINE
8
Layer 1
10
599.765438
20
899.274044
11
601.258626
21
900.319346
0
LINE
8
Layer 1
10
601.258626
20
900.319346
11
603.080772
21
900.979963
0
LINE
8
Layer 1
10
603.080772
20
900.979963
11
605.249560
21
901.210300
0
LINE
8
Layer 1
10
605.249000
20
901.210000
11
611.363410
21
901.210000
0
LINE
8
Layer 1
10
611.364000
20
901.210000
11
613.351509
21
901.313260
0
LINE
8
Layer 1
10
613.351509
20
901.313260
11
615.279635
21
901.616139
0
LINE
8
Layer 1
10
615.279635
20
901.616139
11
617.138027
21
902.108287
0
LINE
8
Layer 1
10
617.138027
20
902.108287
11
618.916333
21
902.779357
0
LINE
8
Layer 1
10
618.916333
20
902.779357
11
620.604201
21
903.618996
0
LINE
8
Layer 1
10
620.604201
20
903.618996
11
622.191279
21
904.616857
0
LINE
8
Layer 1
10
622.191279
20
904.616857
11
623.667217
21
905.762589
0
LINE
8
Layer 1
10
623.667217
20
905.762589
11
625.021663
21
907.045842
0
LINE
8
Layer 1
10
625.021663
20
907.045842
11
626.244264
21
908.456268
0
LINE
8
Layer 1
10
626.244264
20
908.456268
11
627.324669
21
909.983517
0
LINE
8
Layer 1
10
627.324669
20
909.983517
11
628.252527
21
911.617238
0
LINE
8
Layer 1
10
628.252527
20
911.617238
11
629.017486
21
913.347082
0
LINE
8
Layer 1
10
629.017486
20
913.347082
11
629.609194
21
915.162700
0
LINE
8
Layer 1
10
629.609194
20
915.162700
11
630.017301
21
917.053742
0
LINE
8
Layer 1
10
630.017301
20
917.053742
11
630.231453
21
919.009859
0
LINE
8
Layer 1
10
630.231453
20
919.009859
11
630.241300
21
921.020700
0
LINE
8
Layer 1
10
630.241000
20
921.021000
11
630.055925
21
922.897944
0
LINE
8
Layer 1
10
630.055925
20
922.897944
11
629.686895
21
924.711930
0
LINE
8
Layer 1
10
629.686895
20
924.711930
11
629.143954
21
926.454935
0
LINE
8
Layer 1
10
629.143954
20
926.454935
11
628.437148
21
928.118937
0
LINE
8
Layer 1
10
628.437148
20
928.118937
11
627.576520
21
929.695917
0
LINE
8
Layer 1
10
627.576520
20
929.695917
11
626.572117
21
931.177852
0
LINE
8
Layer 1
10
626.572117
20
931.177852
11
625.433984
21
932.556720
0
LINE
8
Layer 1
10
625.433984
20
932.556720
11
624.172164
21
933.824500
0
LINE
8
Layer 1
10
624.172164
20
933.824500
11
622.796703
21
934.973171
0
LINE
8
Layer 1
10
622.796703
20
934.973171
11
621.317646
21
935.994711
0
LINE
8
Layer 1
10
621.317646
20
935.994711
11
619.745038
21
936.881099
0
LINE
8
Layer 1
10
619.745038
20
936.881099
11
618.088923
21
937.624312
0
LINE
8
Layer 1
10
618.088923
20
937.624312
11
616.359347
21
938.216331
0
LINE
8
Layer 1
10
616.359347
20
938.216331
11
614.566355
21
938.649133
0
LINE
8
Layer 1
10
614.566355
20
938.649133
11
612.719991
21
938.914696
0
LINE
8
Layer 1
10
612.719991
20
938.914696
11
610.830300
21
939.005000
0
LINE
8
Layer 1
10
610.831000
20
939.005000
11
604.241660
21
939.005000
0
LINE
8
Layer 1
10
604.241000
20
939.005000
11
602.119960
21
939.235396
0
LINE
8
Layer 1
10
602.119960
20
939.235396
11
600.424500
21
939.896167
0
LINE
8
Layer 1
10
600.424500
20
939.896167
11
599.110612
21
940.941688
0
LINE
8
Layer 1
10
599.110612
20
940.941688
11
598.134293
21
942.326336
0
LINE
8
Layer 1
10
598.134293
20
942.326336
11
597.451535
21
944.004486
0
LINE
8
Layer 1
10
597.451535
20
944.004486
11
597.018334
21
945.930513
0
LINE
8
Layer 1
10
597.018334
20
945.930513
11
596.790684
21
948.058792
0
LINE
8
Layer 1
10
596.790684
20
948.058792
11
596.724580
21
950.343700
0
LINE
8
Layer 1
10
596.725000
20
950.344000
11
596.725000
21
951.916010
0
LINE
8
Layer 1
10
596.725000
20
951.916000
11
596.575560
21
952.651645
0
LINE
8
Layer 1
10
596.575560
20
952.651645
11
596.169459
21
953.252165
0
LINE
8
Layer 1
10
596.169459
20
953.252165
11
595.567793
21
953.656935
0
LINE
8
Layer 1
10
595.567793
20
953.656935
11
594.831660
21
953.805330
0
LINE
8
Layer 1
10
594.831000
20
953.805000
11
526.756000
21
953.805000
0
LINE
8
Layer 1
10
526.756000
20
953.805000
11
519.196000
21
953.805000
0
LINE
8
Layer 1
10
519.196000
20
953.805000
11
457.641000
21
953.805000
0
LINE
8
Layer 1
10
457.641000
20
953.805000
11
457.061541
21
953.953605
0
LINE
8
Layer 1
10
457.061541
20
953.953605
11
456.804630
21
954.358835
0
LINE
8
Layer 1
10
456.804630
20
954.358835
11
456.751260
21
955.695670
0
LINE
8
Layer 1
10
456.752000
20
955.696000
11
456.752000
21
969.870700
0
LINE
8
Layer 1
10
456.752000
20
969.871000
11
456.603395
21
970.606086
0
LINE
8
Layer 1
10
456.603395
20
970.606086
11
456.198165
21
971.206671
0
LINE
8
Layer 1
10
456.198165
20
971.206671
11
455.597185
21
971.611756
0
LINE
8
Layer 1
10
455.597185
20
971.611756
11
454.861330
21
971.760340
0
LINE
8
Layer 1
10
454.861000
20
971.760000
11
387.670000
21
971.760000
0
LINE
8
Layer 1
10
387.670000
20
971.760000
11
386.778734
21
971.908603
0
LINE
8
Layer 1
10
386.778734
20
971.908603
11
385.834542
21
972.313830
0
LINE
8
Layer 1
10
385.834542
20
972.313830
11
385.085850
21
972.914807
0
LINE
8
Layer 1
10
385.085850
20
972.914807
11
384.781080
21
973.650660
0
LINE
8
Layer 1
10
384.781000
20
973.651000
11
384.781000
21
978.375010
0
LINE
8
Layer 1
10
384.781000
20
978.375000
11
384.632397
21
979.110855
0
LINE
8
Layer 1
10
384.632397
20
979.110855
11
384.227170
21
979.711835
0
LINE
8
Layer 1
10
384.227170
20
979.711835
11
383.626193
21
980.117065
0
LINE
8
Layer 1
10
383.626193
20
980.117065
11
382.890340
21
980.265670
0
LINE
8
Layer 1
10
382.891000
20
980.265000
11
303.838000
21
980.265000
0
LINE
8
Layer 1
10
303.838000
20
980.265000
11
303.102914
21
980.116395
0
LINE
8
Layer 1
10
303.102914
20
980.116395
11
302.502329
21
979.711165
0
LINE
8
Layer 1
10
302.502329
20
979.711165
11
302.097244
21
979.110185
0
LINE
8
Layer 1
10
302.097244
20
979.110185
11
301.948660
21
978.374330
0
LINE
8
Layer 1
10
301.949000
20
978.375000
11
301.949000
21
973.650990
0
LINE
8
Layer 1
10
301.949000
20
973.651000
11
301.800603
21
972.915147
0
LINE
8
Layer 1
10
301.800603
20
972.915147
11
301.395830
21
972.314170
0
LINE
8
Layer 1
10
301.395830
20
972.314170
11
300.795307
21
971.908943
0
LINE
8
Layer 1
10
300.795307
20
971.908943
11
300.059660
21
971.760340
0
LINE
8
Layer 1
10
300.060000
20
971.760000
11
232.024000
21
971.760000
0
LINE
8
Layer 1
10
232.024000
20
971.760000
11
231.288145
21
971.611416
0
LINE
8
Layer 1
10
231.288145
20
971.611416
11
230.687165
21
971.206331
0
LINE
8
Layer 1
10
230.687165
20
971.206331
11
230.281935
21
970.605746
0
LINE
8
Layer 1
10
230.281935
20
970.605746
11
230.133330
21
969.870660
0
LINE
8
Layer 1
10
230.133000
20
969.871000
11
230.133000
21
964.201660
0
LINE
8
Layer 1
10
230.133000
20
964.201000
11
229.984376
21
963.464958
0
LINE
8
Layer 1
10
229.984376
20
963.464958
11
229.579001
21
962.863666
0
LINE
8
Layer 1
10
229.579001
20
962.863666
11
228.977624
21
962.458374
0
LINE
8
Layer 1
10
228.977624
20
962.458374
11
228.240990
21
962.310330
0
LINE
8
Layer 1
10
228.241000
20
962.311000
11
228.241000
21
962.311000
0
LINE
8
Layer 1
10
228.241000
20
962.311000
11
226.034955
21
962.542718
0
LINE
8
Layer 1
10
226.034955
20
962.542718
11
224.112906
21
963.204486
0
LINE
8
Layer 1
10
224.112906
20
963.204486
11
222.477981
21
964.250725
0
LINE
8
Layer 1
10
222.477981
20
964.250725
11
221.133304
21
965.635855
0
LINE
8
Layer 1
10
221.133304
20
965.635855
11
220.082002
21
967.314297
0
LINE
8
Layer 1
10
220.082002
20
967.314297
11
219.327202
21
969.240471
0
LINE
8
Layer 1
10
219.327202
20
969.240471
11
218.872029
21
971.368799
0
LINE
8
Layer 1
10
218.872029
20
971.368799
11
218.719610
21
973.653700
0
LINE
8
Layer 1
10
218.720000
20
973.653000
11
218.720000
21
980.238350
0
LINE
8
Layer 1
10
218.720000
20
980.239000
11
218.629711
21
982.128671
0
LINE
8
Layer 1
10
218.629711
20
982.128671
11
218.364189
21
983.974988
0
LINE
8
Layer 1
10
218.364189
20
983.974988
11
217.931453
21
985.767912
0
LINE
8
Layer 1
10
217.931453
20
985.767912
11
217.339518
21
987.497400
0
LINE
8
Layer 1
10
217.339518
20
987.497400
11
216.596404
21
989.153412
0
LINE
8
Layer 1
10
216.596404
20
989.153412
11
215.710128
21
990.725905
0
LINE
8
Layer 1
10
215.710128
20
990.725905
11
214.688706
21
992.204840
0
LINE
8
Layer 1
10
214.688706
20
992.204840
11
213.540157
21
993.580175
0
LINE
8
Layer 1
10
213.540157
20
993.580175
11
212.272499
21
994.841868
0
LINE
8
Layer 1
10
212.272499
20
994.841868
11
210.893749
21
995.979879
0
LINE
8
Layer 1
10
210.893749
20
995.979879
11
209.411924
21
996.984166
0
LINE
8
Layer 1
10
209.411924
20
996.984166
11
207.835043
21
997.844688
0
LINE
8
Layer 1
10
207.835043
20
997.844688
11
206.171122
21
998.551403
0
LINE
8
Layer 1
10
206.171122
20
998.551403
11
204.428180
21
999.094271
0
LINE
8
Layer 1
10
204.428180
20
999.094271
11
202.614233
21
999.463250
0
LINE
8
Layer 1
10
202.614233
20
999.463250
11
200.737300
21
999.648300
0
LINE
8
Layer 1
10
200.737000
20
999.648000
11
198.725932
21
999.638379
0
LINE
8
Layer 1
10
198.725932
20
999.638379
11
196.769615
21
999.424426
0
LINE
8
Layer 1
10
196.769615
20
999.424426
11
194.878396
21
999.016497
0
LINE
8
Layer 1
10
194.878396
20
999.016497
11
193.062623
21
998.424948
0
LINE
8
Layer 1
10
193.062623
20
998.424948
11
191.332646
21
997.660133
0
LINE
8
Layer 1
10
191.332646
20
997.660133
11
189.698811
21
996.732409
0
LINE
8
Layer 1
10
189.698811
20
996.732409
11
188.171467
21
995.652130
0
LINE
8
Layer 1
10
188.171467
20
995.652130
11
186.760963
21
994.429651
0
LINE
8
Layer 1
10
186.760963
20
994.429651
11
185.477645
21
993.075329
0
LINE
8
Layer 1
10
185.477645
20
993.075329
11
184.331862
21
991.599519
0
LINE
8
Layer 1
10
184.331862
20
991.599519
11
183.333963
21
990.012575
0
LINE
8
Layer 1
10
183.333963
20
990.012575
11
182.494295
21
988.324854
0
LINE
8
Layer 1
10
182.494295
20
988.324854
11
181.823207
21
986.546710
0
LINE
8
Layer 1
10
181.823207
20
986.546710
11
181.331046
21
984.688500
0
LINE
8
Layer 1
10
181.331046
20
984.688500
11
181.028161
21
982.760578
0
LINE
8
Layer 1
10
181.028161
20
982.760578
11
180.924900
21
980.773300
0
LINE
8
Layer 1
10
180.925000
20
980.773000
11
180.925000
21
973.650330
0
LINE
8
Layer 1
10
180.925000
20
973.651000
11
180.694896
21
971.366707
0
LINE
8
Layer 1
10
180.694896
20
971.366707
11
180.034906
21
969.239150
0
LINE
8
Layer 1
10
180.034906
20
969.239150
11
178.990513
21
967.313812
0
LINE
8
Layer 1
10
178.990513
20
967.313812
11
177.607200
21
965.636175
0
LINE
8
Layer 1
10
177.607200
20
965.636175
11
175.930449
21
964.251723
0
LINE
8
Layer 1
10
175.930449
20
964.251723
11
174.005744
21
963.205937
0
LINE
8
Layer 1
10
174.005744
20
963.205937
11
171.878566
21
962.544302
0
LINE
8
Layer 1
10
171.878566
20
962.544302
11
169.594400
21
962.312300
0
LINE
8
Layer 1
10
169.594000
20
962.312000
11
164.955000
21
962.311000
0
LINE
8
Layer 1
10
164.955000
20
962.311000
11
164.219908
21
962.161978
0
LINE
8
Layer 1
10
164.219908
20
962.161978
11
163.619338
21
961.756794
0
LINE
8
Layer 1
10
163.619338
20
961.756794
11
163.214273
21
961.156045
0
LINE
8
Layer 1
10
163.214273
20
961.156045
11
163.065700
21
960.420330
0
LINE
8
Layer 1
10
163.066000
20
960.420000
11
163.081000
21
955.764000
0
LINE
8
Layer 1
10
163.081000
20
955.764000
11
162.881177
21
955.048129
0
LINE
8
Layer 1
10
162.881177
20
955.048129
11
162.471362
21
954.451005
0
LINE
8
Layer 1
10
162.471362
20
954.451005
11
161.893042
21
954.015379
0
LINE
8
Layer 1
10
161.893042
20
954.015379
11
161.187700
21
953.784000
0
LINE
8
Layer 1
10
161.188000
20
953.784000
11
89.254600
21
953.784000
0
LINE
8
Layer 1
10
89.254600
20
953.784000
11
88.519492
21
953.635605
0
LINE
8
Layer 1
10
88.519492
20
953.635605
11
87.918887
21
953.230835
0
LINE
8
Layer 1
10
87.918887
20
953.230835
11
87.513789
21
952.630315
0
LINE
8
Layer 1
10
87.513789
20
952.630315
11
87.365200
21
951.894670
0
LINE
8
Layer 1
10
87.365200
20
951.895000
11
87.365200
21
729.051000
0
LINE
8
Layer 1
10
87.365200
20
729.051000
11
87.629611
21
726.766959
0
LINE
8
Layer 1
10
87.629611
20
726.766959
11
88.173388
21
724.541664
0
LINE
8
Layer 1
10
88.173388
20
724.541664
11
88.988420
21
722.400367
0
LINE
8
Layer 1
10
88.988420
20
722.400367
11
90.066600
21
720.368320
0
LINE
8
Layer 1
10
556.402000
20
369.073000
11
556.402000
21
548.058000
0
LINE
8
Layer 1
10
556.402000
20
548.058000
11
556.691751
21
549.370647
0
LINE
8
Layer 1
10
556.691751
20
549.370647
11
557.206001
21
550.417171
0
LINE
8
Layer 1
10
557.206001
20
550.417171
11
557.922250
21
551.306445
0
LINE
8
Layer 1
10
557.922250
20
551.306445
11
558.818000
21
552.147340
0
LINE
8
Layer 1
10
558.818000
20
552.147000
11
630.022000
21
593.179000
0
LINE
8
Layer 1
10
630.022000
20
593.179000
11
631.191609
21
593.414177
0
LINE
8
Layer 1
10
631.191609
20
593.414177
11
632.321841
21
593.190351
0
LINE
8
Layer 1
10
632.321841
20
593.190351
11
633.285823
21
592.559517
0
LINE
8
Layer 1
10
633.285823
20
592.559517
11
633.956680
21
591.573670
0
LINE
8
Layer 1
10
633.957000
20
591.574000
11
634.154330
21
590.871330
0
LINE
8
Layer 1
10
634.154000
20
590.871000
11
634.151000
21
369.111000
0
LINE
8
Layer 1
10
634.151000
20
369.111000
11
634.002418
21
368.375145
0
LINE
8
Layer 1
10
634.002418
20
368.375145
11
633.597336
21
367.774165
0
LINE
8
Layer 1
10
633.597336
20
367.774165
11
632.996754
21
367.368935
0
LINE
8
Layer 1
10
632.996754
20
367.368935
11
632.261670
21
367.220330
0
LINE
8
Layer 1
10
632.262000
20
367.221000
11
558.292600
21
367.181000
0
LINE
8
Layer 1
10
558.293000
20
367.181000
11
557.557332
21
367.330234
0
LINE
8
Layer 1
10
557.557332
20
367.330234
11
556.956664
21
367.735875
0
LINE
8
Layer 1
10
556.956664
20
367.735875
11
556.551496
21
368.337078
0
LINE
8
Layer 1
10
556.551496
20
368.337078
11
556.402330
21
369.073000
0
LINE
8
Layer 1
10
565.766000
20
546.611000
11
565.850464
21
545.772719
0
LINE
8
Layer 1
10
565.850464
20
545.772719
11
566.092711
21
544.992017
0
LINE
8
Layer 1
10
566.092711
20
544.992017
11
566.476020
21
544.285598
0
LINE
8
Layer 1
10
566.476020
20
544.285598
11
566.983674
21
543.670163
0
LINE
8
Layer 1
10
566.983674
20
543.670163
11
567.598952
21
543.162415
0
LINE
8
Layer 1
10
567.598952
20
543.162415
11
568.305135
21
542.779059
0
LINE
8
Layer 1
10
568.305135
20
542.779059
11
569.085504
21
542.536796
0
LINE
8
Layer 1
10
569.085504
20
542.536796
11
569.923340
21
542.452330
0
LINE
8
Layer 1
10
569.923000
20
542.452000
11
570.760842
21
542.536466
0
LINE
8
Layer 1
10
570.760842
20
542.536466
11
571.541214
21
542.778729
0
LINE
8
Layer 1
10
571.541214
20
542.778729
11
572.247397
21
543.162085
0
LINE
8
Layer 1
10
572.247397
20
543.162085
11
572.862674
21
543.669832
0
LINE
8
Layer 1
10
572.862674
20
543.669832
11
573.370325
21
544.285268
0
LINE
8
Layer 1
10
573.370325
20
544.285268
11
573.753632
21
544.991688
0
LINE
8
Layer 1
10
573.753632
20
544.991688
11
573.995877
21
545.772389
0
LINE
8
Layer 1
10
573.995877
20
545.772389
11
574.080340
21
546.610670
0
LINE
8
Layer 1
10
574.080000
20
546.611000
11
573.995537
21
547.448836
0
LINE
8
Layer 1
10
573.995537
20
547.448836
11
573.753292
21
548.229205
0
LINE
8
Layer 1
10
573.753292
20
548.229205
11
573.369985
21
548.935388
0
LINE
8
Layer 1
10
573.369985
20
548.935388
11
572.862334
21
549.550666
0
LINE
8
Layer 1
10
572.862334
20
549.550666
11
572.247057
21
550.058320
0
LINE
8
Layer 1
10
572.247057
20
550.058320
11
571.540874
21
550.441629
0
LINE
8
Layer 1
10
571.540874
20
550.441629
11
570.760502
21
550.683876
0
LINE
8
Layer 1
10
570.760502
20
550.683876
11
569.922660
21
550.768340
0
LINE
8
Layer 1
10
569.923000
20
550.768000
11
569.085164
21
550.683536
0
LINE
8
Layer 1
10
569.085164
20
550.683536
11
568.304795
21
550.441289
0
LINE
8
Layer 1
10
568.304795
20
550.441289
11
567.598612
21
550.057980
0
LINE
8
Layer 1
10
567.598612
20
550.057980
11
566.983334
21
549.550326
0
LINE
8
Layer 1
10
566.983334
20
549.550326
11
566.475680
21
548.935048
0
LINE
8
Layer 1
10
566.475680
20
548.935048
11
566.092371
21
548.228865
0
LINE
8
Layer 1
10
566.092371
20
548.228865
11
565.850124
21
547.448496
0
LINE
8
Layer 1
10
565.850124
20
547.448496
11
565.765660
21
546.610660
0
LINE
8
Layer 1
10
565.766000
20
546.611000
11
565.766000
21
546.611000
0
LINE
8
Layer 1
10
620.572000
20
578.738000
11
620.656466
21
577.900158
0
LINE
8
Layer 1
10
620.656466
20
577.900158
11
620.898730
21
577.119786
0
LINE
8
Layer 1
10
620.898730
20
577.119786
11
621.282088
21
576.413603
0
LINE
8
Layer 1
10
621.282088
20
576.413603
11
621.789836
21
575.798326
0
LINE
8
Layer 1
10
621.789836
20
575.798326
11
622.405272
21
575.290675
0
LINE
8
Layer 1
10
622.405272
20
575.290675
11
623.111692
21
574.907368
0
LINE
8
Layer 1
10
623.111692
20
574.907368
11
623.892392
21
574.665123
0
LINE
8
Layer 1
10
623.892392
20
574.665123
11
624.730670
21
574.580660
0
LINE
8
Layer 1
10
624.730000
20
574.581000
11
625.567838
21
574.665463
0
LINE
8
Layer 1
10
625.567838
20
574.665463
11
626.348208
21
574.907708
0
LINE
8
Layer 1
10
626.348208
20
574.907708
11
627.054390
21
575.291015
0
LINE
8
Layer 1
10
627.054390
20
575.291015
11
627.669665
21
575.798666
0
LINE
8
Layer 1
10
627.669665
20
575.798666
11
628.177315
21
576.413943
0
LINE
8
Layer 1
10
628.177315
20
576.413943
11
628.560622
21
577.120126
0
LINE
8
Layer 1
10
628.560622
20
577.120126
11
628.802867
21
577.900498
0
LINE
8
Layer 1
10
628.802867
20
577.900498
11
628.887330
21
578.738340
0
LINE
8
Layer 1
10
628.888000
20
578.738000
11
628.803537
21
579.576217
0
LINE
8
Layer 1
10
628.803537
20
579.576217
11
628.561292
21
580.356765
0
LINE
8
Layer 1
10
628.561292
20
580.356765
11
628.177985
21
581.062970
0
LINE
8
Layer 1
10
628.177985
20
581.062970
11
627.670335
21
581.678160
0
LINE
8
Layer 1
10
627.670335
20
581.678160
11
627.055060
21
582.185663
0
LINE
8
Layer 1
10
627.055060
20
582.185663
11
626.348878
21
582.568808
0
LINE
8
Layer 1
10
626.348878
20
582.568808
11
625.568508
21
582.810921
0
LINE
8
Layer 1
10
625.568508
20
582.810921
11
624.730670
21
582.895330
0
LINE
8
Layer 1
10
624.730000
20
582.896000
11
623.891722
21
582.811591
0
LINE
8
Layer 1
10
623.891722
20
582.811591
11
623.111022
21
582.569478
0
LINE
8
Layer 1
10
623.111022
20
582.569478
11
622.404602
21
582.186333
0
LINE
8
Layer 1
10
622.404602
20
582.186333
11
621.789166
21
581.678830
0
LINE
8
Layer 1
10
621.789166
20
581.678830
11
621.281418
21
581.063640
0
LINE
8
Layer 1
10
621.281418
20
581.063640
11
620.898060
21
580.357435
0
LINE
8
Layer 1
10
620.898060
20
580.357435
11
620.655796
21
579.576887
0
LINE
8
Layer 1
10
620.655796
20
579.576887
11
620.571330
21
578.738670
0
LINE
8
Layer 1
10
620.572000
20
578.738000
11
620.572000
21
578.738000
0
LINE
8
Layer 1
10
523.005000
20
649.276000
11
523.089466
21
648.438161
0
LINE
8
Layer 1
10
523.089466
20
648.438161
11
523.331729
21
647.657791
0
LINE
8
Layer 1
10
523.331729
20
647.657791
11
523.715086
21
646.951607
0
LINE
8
Layer 1
10
523.715086
20
646.951607
11
524.222834
21
646.336330
0
LINE
8
Layer 1
10
524.222834
20
646.336330
11
524.838270
21
645.828678
0
LINE
8
Layer 1
10
524.838270
20
645.828678
11
525.544692
21
645.445369
0
LINE
8
Layer 1
10
525.544692
20
645.445369
11
526.325396
21
645.203124
0
LINE
8
Layer 1
10
526.325396
20
645.203124
11
527.163680
21
645.118660
0
LINE
8
Layer 1
10
527.164000
20
645.118000
11
528.001838
21
645.202464
0
LINE
8
Layer 1
10
528.001838
20
645.202464
11
528.782208
21
645.444709
0
LINE
8
Layer 1
10
528.782208
20
645.444709
11
529.488390
21
645.828018
0
LINE
8
Layer 1
10
529.488390
20
645.828018
11
530.103665
21
646.335670
0
LINE
8
Layer 1
10
530.103665
20
646.335670
11
530.611315
21
646.950947
0
LINE
8
Layer 1
10
530.611315
20
646.950947
11
530.994622
21
647.657131
0
LINE
8
Layer 1
10
530.994622
20
647.657131
11
531.236867
21
648.437501
0
LINE
8
Layer 1
10
531.236867
20
648.437501
11
531.321330
21
649.275340
0
LINE
8
Layer 1
10
531.321000
20
649.276000
11
531.236537
21
650.114220
0
LINE
8
Layer 1
10
531.236537
20
650.114220
11
530.994292
21
650.894769
0
LINE
8
Layer 1
10
530.994292
20
650.894769
11
530.610985
21
651.600974
0
LINE
8
Layer 1
10
530.610985
20
651.600974
11
530.103335
21
652.216164
0
LINE
8
Layer 1
10
530.103335
20
652.216164
11
529.488060
21
652.723666
0
LINE
8
Layer 1
10
529.488060
20
652.723666
11
528.781878
21
653.106809
0
LINE
8
Layer 1
10
528.781878
20
653.106809
11
528.001508
21
653.348921
0
LINE
8
Layer 1
10
528.001508
20
653.348921
11
527.163670
21
653.433330
0
LINE
8
Layer 1
10
527.164000
20
653.433000
11
526.325716
21
653.348591
0
LINE
8
Layer 1
10
526.325716
20
653.348591
11
525.545012
21
653.106479
0
LINE
8
Layer 1
10
525.545012
20
653.106479
11
524.838590
21
652.723336
0
LINE
8
Layer 1
10
524.838590
20
652.723336
11
524.223154
21
652.215834
0
LINE
8
Layer 1
10
524.223154
20
652.215834
11
523.715406
21
651.600644
0
LINE
8
Layer 1
10
523.715406
20
651.600644
11
523.332049
21
650.894439
0
LINE
8
Layer 1
10
523.332049
20
650.894439
11
523.089786
21
650.113890
0
LINE
8
Layer 1
10
523.089786
20
650.113890
11
523.005320
21
649.275670
0
LINE
8
Layer 1
10
523.005000
20
649.276000
11
523.005000
21
649.276000
0
LINE
8
Layer 1
10
501.215000
20
386.077000
11
501.414607
21
384.096712
0
LINE
8
Layer 1
10
501.414607
20
384.096712
11
501.987103
21
382.252206
0
LINE
8
Layer 1
10
501.987103
20
382.252206
11
502.893006
21
380.583013
0
LINE
8
Layer 1
10
502.893006
20
380.583013
11
504.092831
21
379.128664
0
LINE
8
Layer 1
10
504.092831
20
379.128664
11
505.547094
21
377.928690
0
LINE
8
Layer 1
10
505.547094
20
377.928690
11
507.216311
21
377.022622
0
LINE
8
Layer 1
10
507.216311
20
377.022622
11
509.060998
21
376.449991
0
LINE
8
Layer 1
10
509.060998
20
376.449991
11
511.041670
21
376.250330
0
LINE
8
Layer 1
10
511.042000
20
376.251000
11
513.022288
21
376.450661
0
LINE
8
Layer 1
10
513.022288
20
376.450661
11
514.866794
21
377.023292
0
LINE
8
Layer 1
10
514.866794
20
377.023292
11
516.535987
21
377.929360
0
LINE
8
Layer 1
10
516.535987
20
377.929360
11
517.990336
21
379.129334
0
LINE
8
Layer 1
10
517.990336
20
379.129334
11
519.190310
21
380.583683
0
LINE
8
Layer 1
10
519.190310
20
380.583683
11
520.096378
21
382.252876
0
LINE
8
Layer 1
10
520.096378
20
382.252876
11
520.669009
21
384.097382
0
LINE
8
Layer 1
10
520.669009
20
384.097382
11
520.868670
21
386.077670
0
LINE
8
Layer 1
10
520.869000
20
386.077000
11
520.669339
21
388.057669
0
LINE
8
Layer 1
10
520.669339
20
388.057669
11
520.096708
21
389.902355
0
LINE
8
Layer 1
10
520.096708
20
389.902355
11
519.190640
21
391.571571
0
LINE
8
Layer 1
10
519.190640
20
391.571571
11
517.990666
21
393.025835
0
LINE
8
Layer 1
10
517.990666
20
393.025835
11
516.536317
21
394.225661
0
LINE
8
Layer 1
10
516.536317
20
394.225661
11
514.867124
21
395.131565
0
LINE
8
Layer 1
10
514.867124
20
395.131565
11
513.022618
21
395.704063
0
LINE
8
Layer 1
10
513.022618
20
395.704063
11
511.042330
21
395.903670
0
LINE
8
Layer 1
10
511.042000
20
395.904000
11
509.061328
21
395.704393
0
LINE
8
Layer 1
10
509.061328
20
395.704393
11
507.216641
21
395.131895
0
LINE
8
Layer 1
10
507.216641
20
395.131895
11
505.547424
21
394.225991
0
LINE
8
Layer 1
10
505.547424
20
394.225991
11
504.093161
21
393.026165
0
LINE
8
Layer 1
10
504.093161
20
393.026165
11
502.893336
21
391.571901
0
LINE
8
Layer 1
10
502.893336
20
391.571901
11
501.987433
21
389.902685
0
LINE
8
Layer 1
10
501.987433
20
389.902685
11
501.414937
21
388.057999
0
LINE
8
Layer 1
10
501.414937
20
388.057999
11
501.215330
21
386.077330
0
LINE
8
Layer 1
10
501.215000
20
386.077000
11
501.215000
21
386.077000
0
LINE
8
Layer 1
10
99.500200
20
456.570000
11
97.519531
21
456.370338
0
LINE
8
Layer 1
10
97.519531
20
456.370338
11
95.674845
21
455.797707
0
LINE
8
Layer 1
10
95.674845
20
455.797707
11
94.005629
21
454.891637
0
LINE
8
Layer 1
10
94.005629
20
454.891637
11
92.551365
21
453.691661
0
LINE
8
Layer 1
10
92.551365
20
453.691661
11
91.351539
21
452.237310
0
LINE
8
Layer 1
10
91.351539
20
452.237310
11
90.445635
21
450.568115
0
LINE
8
Layer 1
10
90.445635
20
450.568115
11
89.873137
21
448.723608
0
LINE
8
Layer 1
10
89.873137
20
448.723608
11
89.673530
21
446.743320
0
LINE
8
Layer 1
10
89.673500
20
446.743000
11
89.873107
21
444.762331
0
LINE
8
Layer 1
10
89.873107
20
444.762331
11
90.445605
21
442.917645
0
LINE
8
Layer 1
10
90.445605
20
442.917645
11
91.351509
21
441.248429
0
LINE
8
Layer 1
10
91.351509
20
441.248429
11
92.551335
21
439.794165
0
LINE
8
Layer 1
10
92.551335
20
439.794165
11
94.005599
21
438.594339
0
LINE
8
Layer 1
10
94.005599
20
438.594339
11
95.674815
21
437.688435
0
LINE
8
Layer 1
10
95.674815
20
437.688435
11
97.519501
21
437.115937
0
LINE
8
Layer 1
10
97.519501
20
437.115937
11
99.500170
21
436.916330
0
LINE
8
Layer 1
10
99.500200
20
436.916000
11
101.480488
21
437.115607
0
LINE
8
Layer 1
10
101.480488
20
437.115607
11
103.324994
21
437.688105
0
LINE
8
Layer 1
10
103.324994
20
437.688105
11
104.994187
21
438.594009
0
LINE
8
Layer 1
10
104.994187
20
438.594009
11
106.448536
21
439.793835
0
LINE
8
Layer 1
10
106.448536
20
439.793835
11
107.648510
21
441.248099
0
LINE
8
Layer 1
10
107.648510
20
441.248099
11
108.554578
21
442.917315
0
LINE
8
Layer 1
10
108.554578
20
442.917315
11
109.127209
21
444.762001
0
LINE
8
Layer 1
10
109.127209
20
444.762001
11
109.326870
21
446.742670
0
LINE
8
Layer 1
10
109.327000
20
446.743000
11
109.127339
21
448.723288
0
LINE
8
Layer 1
10
109.127339
20
448.723288
11
108.554708
21
450.567795
0
LINE
8
Layer 1
10
108.554708
20
450.567795
11
107.648640
21
452.236990
0
LINE
8
Layer 1
10
107.648640
20
452.236990
11
106.448666
21
453.691341
0
LINE
8
Layer 1
10
106.448666
20
453.691341
11
104.994317
21
454.891317
0
LINE
8
Layer 1
10
104.994317
20
454.891317
11
103.325124
21
455.797387
0
LINE
8
Layer 1
10
103.325124
20
455.797387
11
101.480618
21
456.370018
0
LINE
8
Layer 1
10
101.480618
20
456.370018
11
99.500330
21
456.569680
0
LINE
8
Layer 1
10
99.500200
20
456.570000
11
99.500200
21
456.570000
0
LINE
8
Layer 1
10
616.313000
20
691.451000
11
617.928219
21
692.614062
0
LINE
8
Layer 1
10
617.928219
20
692.614062
11
619.239250
21
694.032250
0
LINE
8
Layer 1
10
619.239250
20
694.032250
11
620.231655
21
695.651564
0
LINE
8
Layer 1
10
620.231655
20
695.651564
11
620.890999
21
697.418003
0
LINE
8
Layer 1
10
620.890999
20
697.418003
11
621.202842
21
699.277566
0
LINE
8
Layer 1
10
621.202842
20
699.277566
11
621.152749
21
701.176254
0
LINE
8
Layer 1
10
621.152749
20
701.176254
11
620.726280
21
703.060065
0
LINE
8
Layer 1
10
620.726280
20
703.060065
11
619.909000
21
704.875000
0
LINE
8
Layer 1
10
619.909000
20
704.875000
11
618.745992
21
706.490276
0
LINE
8
Layer 1
10
618.745992
20
706.490276
11
617.327953
21
707.801459
0
LINE
8
Layer 1
10
617.327953
20
707.801459
11
615.708851
21
708.794079
0
LINE
8
Layer 1
10
615.708851
20
708.794079
11
613.942655
21
709.453668
0
LINE
8
Layer 1
10
613.942655
20
709.453668
11
612.083333
21
709.765756
0
LINE
8
Layer 1
10
612.083333
20
709.765756
11
610.184854
21
709.715875
0
LINE
8
Layer 1
10
610.184854
20
709.715875
11
608.301187
21
709.289556
0
LINE
8
Layer 1
10
608.301187
20
709.289556
11
606.486300
21
708.472330
0
LINE
8
Layer 1
10
606.486000
20
708.473000
11
604.870342
21
707.309557
0
LINE
8
Layer 1
10
604.870342
20
707.309557
11
603.558980
21
705.891190
0
LINE
8
Layer 1
10
603.558980
20
705.891190
11
602.566337
21
704.271854
0
LINE
8
Layer 1
10
602.566337
20
704.271854
11
601.906834
21
702.505502
0
LINE
8
Layer 1
10
601.906834
20
702.505502
11
601.594893
21
700.646088
0
LINE
8
Layer 1
10
601.594893
20
700.646088
11
601.644938
21
698.747563
0
LINE
8
Layer 1
10
601.644938
20
698.747563
11
602.071389
21
696.863883
0
LINE
8
Layer 1
10
602.071389
20
696.863883
11
602.888670
21
695.049000
0
LINE
8
Layer 1
10
602.889000
20
695.049000
11
604.052062
21
693.433724
0
LINE
8
Layer 1
10
604.052062
20
693.433724
11
605.470249
21
692.122543
0
LINE
8
Layer 1
10
605.470249
20
692.122543
11
607.089561
21
691.129924
0
LINE
8
Layer 1
10
607.089561
20
691.129924
11
608.855999
21
690.470336
0
LINE
8
Layer 1
10
608.855999
20
690.470336
11
610.715562
21
690.158249
0
LINE
8
Layer 1
10
610.715562
20
690.158249
11
612.614250
21
690.208129
0
LINE
8
Layer 1
10
612.614250
20
690.208129
11
614.498062
21
690.634447
0
LINE
8
Layer 1
10
614.498062
20
690.634447
11
616.313000
21
691.451670
0
LINE
8
Layer 1
10
616.313000
20
691.451000
11
616.313000
21
691.451000
0
LINE
8
Layer 1
10
99.463600
20
600.283000
11
97.483312
21
600.083339
0
LINE
8
Layer 1
10
97.483312
20
600.083339
11
95.638806
21
599.510708
0
LINE
8
Layer 1
10
95.638806
20
599.510708
11
93.969613
21
598.604640
0
LINE
8
Layer 1
10
93.969613
20
598.604640
11
92.515264
21
597.404666
0
LINE
8
Layer 1
10
92.515264
20
597.404666
11
91.315290
21
595.950317
0
LINE
8
Layer 1
10
91.315290
20
595.950317
11
90.409222
21
594.281124
0
LINE
8
Layer 1
10
90.409222
20
594.281124
11
89.836591
21
592.436618
0
LINE
8
Layer 1
10
89.836591
20
592.436618
11
89.636930
21
590.456330
0
LINE
8
Layer 1
10
89.637000
20
590.457000
11
89.836661
21
588.476712
0
LINE
8
Layer 1
10
89.836661
20
588.476712
11
90.409292
21
586.632206
0
LINE
8
Layer 1
10
90.409292
20
586.632206
11
91.315360
21
584.963013
0
LINE
8
Layer 1
10
91.315360
20
584.963013
11
92.515334
21
583.508664
0
LINE
8
Layer 1
10
92.515334
20
583.508664
11
93.969683
21
582.308690
0
LINE
8
Layer 1
10
93.969683
20
582.308690
11
95.638876
21
581.402622
0
LINE
8
Layer 1
10
95.638876
20
581.402622
11
97.483382
21
580.829991
0
LINE
8
Layer 1
10
97.483382
20
580.829991
11
99.463670
21
580.630330
0
LINE
8
Layer 1
10
99.463600
20
580.630000
11
101.443885
21
580.829661
0
LINE
8
Layer 1
10
101.443885
20
580.829661
11
103.288389
21
581.402292
0
LINE
8
Layer 1
10
103.288389
20
581.402292
11
104.957582
21
582.308360
0
LINE
8
Layer 1
10
104.957582
20
582.308360
11
106.411932
21
583.508334
0
LINE
8
Layer 1
10
106.411932
20
583.508334
11
107.611908
21
584.962683
0
LINE
8
Layer 1
10
107.611908
20
584.962683
11
108.517977
21
586.631876
0
LINE
8
Layer 1
10
108.517977
20
586.631876
11
109.090608
21
588.476382
0
LINE
8
Layer 1
10
109.090608
20
588.476382
11
109.290270
21
590.456670
0
LINE
8
Layer 1
10
109.290000
20
590.457000
11
109.090338
21
592.437288
0
LINE
8
Layer 1
10
109.090338
20
592.437288
11
108.517707
21
594.281794
0
LINE
8
Layer 1
10
108.517707
20
594.281794
11
107.611638
21
595.950987
0
LINE
8
Layer 1
10
107.611638
20
595.950987
11
106.411663
21
597.405336
0
LINE
8
Layer 1
10
106.411663
20
597.405336
11
104.957313
21
598.605310
0
LINE
8
Layer 1
10
104.957313
20
598.605310
11
103.288119
21
599.511378
0
LINE
8
Layer 1
10
103.288119
20
599.511378
11
101.443615
21
600.084009
0
LINE
8
Layer 1
10
101.443615
20
600.084009
11
99.463330
21
600.283670
0
LINE
8
Layer 1
10
99.463600
20
600.283000
11
99.463600
21
600.283000
0
LINE
8
Layer 1
10
114.256000
20
560.220000
11
114.140327
21
562.505284
0
LINE
8
Layer 1
10
114.140327
20
562.505284
11
113.782009
21
564.633740
0
LINE
8
Layer 1
10
113.782009
20
564.633740
11
113.164093
21
566.559790
0
LINE
8
Layer 1
10
113.164093
20
566.559790
11
112.269627
21
568.237855
0
LINE
8
Layer 1
10
112.269627
20
568.237855
11
111.081662
21
569.622357
0
LINE
8
Layer 1
10
111.081662
20
569.622357
11
109.583245
21
570.667717
0
LINE
8
Layer 1
10
109.583245
20
570.667717
11
107.757425
21
571.328358
0
LINE
8
Layer 1
10
107.757425
20
571.328358
11
105.587250
21
571.558700
0
LINE
8
Layer 1
10
105.587000
20
571.558000
11
99.997900
21
571.558000
0
LINE
8
Layer 1
10
99.997900
20
571.558000
11
98.108215
21
571.648304
0
LINE
8
Layer 1
10
98.108215
20
571.648304
11
96.261858
21
571.913867
0
LINE
8
Layer 1
10
96.261858
20
571.913867
11
94.468877
21
572.346669
0
LINE
8
Layer 1
10
94.468877
20
572.346669
11
92.739317
21
572.938688
0
LINE
8
Layer 1
10
92.739317
20
572.938688
11
91.083227
21
573.681901
0
LINE
8
Layer 1
10
91.083227
20
573.681901
11
89.510652
21
574.568289
0
LINE
8
Layer 1
10
89.510652
20
574.568289
11
88.031640
21
575.589829
0
LINE
8
Layer 1
10
88.031640
20
575.589829
11
86.656237
21
576.738500
0
LINE
8
Layer 1
10
86.656237
20
576.738500
11
85.394492
21
578.006280
0
LINE
8
Layer 1
10
85.394492
20
578.006280
11
84.256450
21
579.385148
0
LINE
8
Layer 1
10
84.256450
20
579.385148
11
83.252158
21
580.867083
0
LINE
8
Layer 1
10
83.252158
20
580.867083
11
82.391664
21
582.444062
0
LINE
8
Layer 1
10
82.391664
20
582.444062
11
81.685014
21
584.108065
0
LINE
8
Layer 1
10
81.685014
20
584.108065
11
81.142256
21
585.851070
0
LINE
8
Layer 1
10
81.142256
20
585.851070
11
80.773435
21
587.665056
0
LINE
8
Layer 1
10
80.773435
20
587.665056
11
80.588600
21
589.542000
0
LINE
8
Layer 1
10
80.588600
20
589.542000
11
80.598218
21
591.553067
0
LINE
8
Layer 1
10
80.598218
20
591.553067
11
80.812167
21
593.509381
0
LINE
8
Layer 1
10
80.812167
20
593.509381
11
81.220094
21
595.400595
0
LINE
8
Layer 1
10
81.220094
20
595.400595
11
81.811642
21
597.216361
0
LINE
8
Layer 1
10
81.811642
20
597.216361
11
82.576455
21
598.946331
0
LINE
8
Layer 1
10
82.576455
20
598.946331
11
83.504179
21
600.580157
0
LINE
8
Layer 1
10
83.504179
20
600.580157
11
84.584458
21
602.107492
0
LINE
8
Layer 1
10
84.584458
20
602.107492
11
85.806937
21
603.517988
0
LINE
8
Layer 1
10
85.806937
20
603.517988
11
87.161260
21
604.801296
0
LINE
8
Layer 1
10
87.161260
20
604.801296
11
88.637071
21
605.947069
0
LINE
8
Layer 1
10
88.637071
20
605.947069
11
90.224016
21
606.944960
0
LINE
8
Layer 1
10
90.224016
20
606.944960
11
91.911739
21
607.784620
0
LINE
8
Layer 1
10
91.911739
20
607.784620
11
93.689884
21
608.455702
0
LINE
8
Layer 1
10
93.689884
20
608.455702
11
95.548096
21
608.947858
0
LINE
8
Layer 1
10
95.548096
20
608.947858
11
97.476020
21
609.250740
0
LINE
8
Layer 1
10
97.476020
20
609.250740
11
99.463300
21
609.354000
0
LINE
8
Layer 1
10
99.463200
20
609.354000
11
106.577860
21
609.354000
0
LINE
8
Layer 1
10
106.578000
20
609.354000
11
108.704939
21
609.584284
0
LINE
8
Layer 1
10
108.704939
20
609.584284
11
110.415940
21
610.244771
0
LINE
8
Layer 1
10
110.415940
20
610.244771
11
111.751795
21
611.289913
0
LINE
8
Layer 1
10
111.751795
20
611.289913
11
112.753295
21
612.674164
0
LINE
8
Layer 1
10
112.753295
20
612.674164
11
113.461232
21
614.351975
0
LINE
8
Layer 1
10
113.461232
20
614.351975
11
113.916398
21
616.277800
0
LINE
8
Layer 1
10
113.916398
20
616.277800
11
114.159583
21
618.406091
0
LINE
8
Layer 1
10
114.159583
20
618.406091
11
114.231580
21
620.691300
0
LINE
8
Layer 1
10
114.231000
20
620.692000
11
114.276300
21
623.768010
0
LINE
8
Layer 1
10
114.277000
20
623.768000
11
114.425582
21
624.503855
0
LINE
8
Layer 1
10
114.425582
20
624.503855
11
114.830664
21
625.104835
0
LINE
8
Layer 1
10
114.830664
20
625.104835
11
115.431246
21
625.510065
0
LINE
8
Layer 1
10
115.431246
20
625.510065
11
116.166330
21
625.658670
0
LINE
8
Layer 1
10
116.166000
20
625.658000
11
184.109000
21
625.658000
0
LINE
8
Layer 1
10
184.109000
20
625.658000
11
191.669010
21
625.658000
0
LINE
8
Layer 1
10
191.669000
20
625.658000
11
327.741000
21
625.658000
0
LINE
8
Layer 1
10
327.741000
20
625.658000
11
328.464500
21
625.802166
0
LINE
8
Layer 1
10
328.464500
20
625.802166
11
329.077000
21
626.211330
0
LINE
8
Layer 1
10
329.077000
20
626.212000
11
368.941000
21
680.844000
0
LINE
8
Layer 1
10
368.941000
20
680.844000
11
369.559334
21
681.227838
0
LINE
8
Layer 1
10
369.559334
20
681.227838
11
370.263670
21
681.410660
0
LINE
8
Layer 1
10
370.263000
20
681.410000
11
509.327000
21
702.080700
0
LINE
8
Layer 1
10
509.327000
20
702.081000
11
510.385680
21
702.355670
0
LINE
8
Layer 1
10
510.386000
20
702.356000
11
566.132700
21
734.441300
0
LINE
8
Layer 1
10
566.133000
20
734.441000
11
567.330170
21
734.969980
0
LINE
8
Layer 1
10
567.330170
20
734.969980
11
568.593341
21
734.997834
0
LINE
8
Layer 1
10
568.593341
20
734.997834
11
569.775012
21
734.549938
0
LINE
8
Layer 1
10
569.775012
20
734.549938
11
570.727680
21
733.651670
0
LINE
8
Layer 1
10
570.728000
20
733.652000
11
580.324000
21
716.930600
0
LINE
8
Layer 1
10
580.324000
20
716.930000
11
581.668784
21
715.053989
0
LINE
8
Layer 1
10
581.668784
20
715.053989
11
583.311018
21
713.532166
0
LINE
8
Layer 1
10
583.311018
20
713.532166
11
585.187531
21
712.381342
0
LINE
8
Layer 1
10
585.187531
20
712.381342
11
587.235152
21
711.618330
0
LINE
8
Layer 1
10
587.235152
20
711.618330
11
589.390711
21
711.259943
0
LINE
8
Layer 1
10
589.390711
20
711.259943
11
591.591035
21
711.322994
0
LINE
8
Layer 1
10
591.591035
20
711.322994
11
593.772955
21
711.824296
0
LINE
8
Layer 1
10
593.772955
20
711.824296
11
595.873300
21
712.780660
0
LINE
8
Layer 1
10
595.873000
20
712.781000
11
601.950350
21
716.327680
0
LINE
8
Layer 1
10
601.950000
20
716.328000
11
603.672102
21
717.209640
0
LINE
8
Layer 1
10
603.672102
20
717.209640
11
605.440261
21
717.899881
0
LINE
8
Layer 1
10
605.440261
20
717.899881
11
607.241503
21
718.402195
0
LINE
8
Layer 1
10
607.241503
20
718.402195
11
609.062852
21
718.720059
0
LINE
8
Layer 1
10
609.062852
20
718.720059
11
610.891334
21
718.856946
0
LINE
8
Layer 1
10
610.891334
20
718.856946
11
612.713975
21
718.816331
0
LINE
8
Layer 1
10
612.713975
20
718.816331
11
614.517800
21
718.601689
0
LINE
8
Layer 1
10
614.517800
20
718.601689
11
616.289835
21
718.216494
0
LINE
8
Layer 1
10
616.289835
20
718.216494
11
618.017104
21
717.664221
0
LINE
8
Layer 1
10
618.017104
20
717.664221
11
619.686634
21
716.948344
0
LINE
8
Layer 1
10
619.686634
20
716.948344
11
621.285449
21
716.072339
0
LINE
8
Layer 1
10
621.285449
20
716.072339
11
622.800576
21
715.039680
0
LINE
8
Layer 1
10
622.800576
20
715.039680
11
624.219038
21
713.853840
0
LINE
8
Layer 1
10
624.219038
20
713.853840
11
625.527863
21
712.518296
0
LINE
8
Layer 1
10
625.527863
20
712.518296
11
626.714075
21
711.036521
0
LINE
8
Layer 1
10
626.714075
20
711.036521
11
627.764700
21
709.411990
0
LINE
8
Layer 1
10
627.765000
20
709.412000
11
628.646627
21
707.689662
0
LINE
8
Layer 1
10
628.646627
20
707.689662
11
629.336826
21
705.921298
0
LINE
8
Layer 1
10
629.336826
20
705.921298
11
629.839076
21
704.119880
0
LINE
8
Layer 1
10
629.839076
20
704.119880
11
630.156855
21
702.298380
0
LINE
8
Layer 1
10
630.156855
20
702.298380
11
630.293642
21
700.469770
0
LINE
8
Layer 1
10
630.293642
20
700.469770
11
630.252914
21
698.647024
0
LINE
8
Layer 1
10
630.252914
20
698.647024
11
630.038152
21
696.843114
0
LINE
8
Layer 1
10
630.038152
20
696.843114
11
629.652832
21
695.071013
0
LINE
8
Layer 1
10
629.652832
20
695.071013
11
629.100435
21
693.343692
0
LINE
8
Layer 1
10
629.100435
20
693.343692
11
628.384438
21
691.674124
0
LINE
8
Layer 1
10
628.384438
20
691.674124
11
627.508320
21
690.075282
0
LINE
8
Layer 1
10
627.508320
20
690.075282
11
626.475559
21
688.560139
0
LINE
8
Layer 1
10
626.475559
20
688.560139
11
625.289634
21
687.141667
0
LINE
8
Layer 1
10
625.289634
20
687.141667
11
623.954023
21
685.832838
0
LINE
8
Layer 1
10
623.954023
20
685.832838
11
622.472206
21
684.646625
0
LINE
8
Layer 1
10
622.472206
20
684.646625
11
620.847660
21
683.596000
0
LINE
8
Layer 1
10
620.848000
20
683.596000
11
614.604000
21
679.934660
0
LINE
8
Layer 1
10
614.604000
20
679.934000
11
612.761703
21
678.590748
0
LINE
8
Layer 1
10
612.761703
20
678.590748
11
611.266641
21
676.958715
0
LINE
8
Layer 1
10
611.266641
20
676.958715
11
610.135048
21
675.098994
0
LINE
8
Layer 1
10
610.135048
20
675.098994
11
609.383159
21
673.072678
0
LINE
8
Layer 1
10
609.383159
20
673.072678
11
609.027207
21
670.940857
0
LINE
8
Layer 1
10
609.027207
20
670.940857
11
609.083427
21
668.764626
0
LINE
8
Layer 1
10
609.083427
20
668.764626
11
609.568053
21
666.605076
0
LINE
8
Layer 1
10
609.568053
20
666.605076
11
610.497320
21
664.523300
0
LINE
8
Layer 1
10
610.497000
20
664.524000
11
620.813000
21
646.492000
0
LINE
8
Layer 1
10
620.813000
20
646.492000
11
621.165262
21
645.643710
0
LINE
8
Layer 1
10
621.165262
20
645.643710
11
621.356085
21
644.767435
0
LINE
8
Layer 1
10
621.356085
20
644.767435
11
621.390034
21
643.883567
0
LINE
8
Layer 1
10
621.390034
20
643.883567
11
621.271670
21
643.012496
0
LINE
8
Layer 1
10
621.271670
20
643.012496
11
621.005556
21
642.174613
0
LINE
8
Layer 1
10
621.005556
20
642.174613
11
620.596255
21
641.390309
0
LINE
8
Layer 1
10
620.596255
20
641.390309
11
620.048328
21
640.679975
0
LINE
8
Layer 1
10
620.048328
20
640.679975
11
619.366340
21
640.064000
0
LINE
8
Layer 1
10
619.366000
20
640.064000
11
549.962000
21
598.348000
0
LINE
8
Layer 1
10
549.962000
20
598.348000
11
549.196018
21
597.553044
0
LINE
8
Layer 1
10
549.196018
20
597.553044
11
548.569164
21
596.652336
0
LINE
8
Layer 1
10
548.569164
20
596.652336
11
548.092060
21
595.664128
0
LINE
8
Layer 1
10
548.092060
20
595.664128
11
547.775330
21
594.606670
0
LINE
8
Layer 1
10
547.776000
20
594.606000
11
547.776000
21
472.554000
0
LINE
8
Layer 1
10
547.776000
20
472.554000
11
547.779000
21
411.095300
0
LINE
8
Layer 1
10
547.779000
20
411.096000
11
547.779000
21
406.430670
0
LINE
8
Layer 1
10
547.779000
20
406.430000
11
547.630605
21
405.694893
0
LINE
8
Layer 1
10
547.630605
20
405.694893
11
547.225835
21
405.094162
0
LINE
8
Layer 1
10
547.225835
20
405.094162
11
546.625315
21
404.688683
0
LINE
8
Layer 1
10
546.625315
20
404.688683
11
545.889670
21
404.539330
0
LINE
8
Layer 1
10
545.889000
20
404.539000
11
541.268970
21
404.538000
0
LINE
8
Layer 1
10
541.269000
20
404.538000
11
538.985268
21
404.306114
0
LINE
8
Layer 1
10
538.985268
20
404.306114
11
536.858416
21
403.644535
0
LINE
8
Layer 1
10
536.858416
20
403.644535
11
534.933942
21
402.598761
0
LINE
8
Layer 1
10
534.933942
20
402.598761
11
533.257345
21
401.214286
0
LINE
8
Layer 1
10
533.257345
20
401.214286
11
531.874123
21
399.536607
0
LINE
8
Layer 1
10
531.874123
20
399.536607
11
530.829776
21
397.611219
0
LINE
8
Layer 1
10
530.829776
20
397.611219
11
530.169802
21
395.483618
0
LINE
8
Layer 1
10
530.169802
20
395.483618
11
529.939700
21
393.199300
0
LINE
8
Layer 1
10
529.940000
20
393.200000
11
529.940000
21
386.078670
0
LINE
8
Layer 1
10
529.940000
20
386.078000
11
529.836740
21
384.090491
0
LINE
8
Layer 1
10
529.836740
20
384.090491
11
529.533859
21
382.162367
0
LINE
8
Layer 1
10
529.533859
20
382.162367
11
529.041705
21
380.303981
0
LINE
8
Layer 1
10
529.041705
20
380.303981
11
528.370625
21
378.525688
0
LINE
8
Layer 1
10
528.370625
20
378.525688
11
527.530966
21
376.837839
0
LINE
8
Layer 1
10
527.530966
20
376.837839
11
526.533077
21
375.250789
0
LINE
8
Layer 1
10
526.533077
20
375.250789
11
525.387306
21
373.774892
0
LINE
8
Layer 1
10
525.387306
20
373.774892
11
524.103999
21
372.420500
0
LINE
8
Layer 1
10
524.103999
20
372.420500
11
522.693504
21
371.197968
0
LINE
8
Layer 1
10
522.693504
20
371.197968
11
521.166170
21
370.117648
0
LINE
8
Layer 1
10
521.166170
20
370.117648
11
519.532344
21
369.189896
0
LINE
8
Layer 1
10
519.532344
20
369.189896
11
517.802374
21
368.425063
0
LINE
8
Layer 1
10
517.802374
20
368.425063
11
515.986606
21
367.833503
0
LINE
8
Layer 1
10
515.986606
20
367.833503
11
514.095390
21
367.425570
0
LINE
8
Layer 1
10
514.095390
20
367.425570
11
512.139072
21
367.211618
0
LINE
8
Layer 1
10
512.139072
20
367.211618
11
510.128000
21
367.202000
0
LINE
8
Layer 1
10
510.128000
20
367.202000
11
508.251017
21
367.387071
0
LINE
8
Layer 1
10
508.251017
20
367.387071
11
506.437027
21
367.756095
0
LINE
8
Layer 1
10
506.437027
20
367.756095
11
504.694046
21
368.299027
0
LINE
8
Layer 1
10
504.694046
20
368.299027
11
503.030092
21
369.005818
0
LINE
8
Layer 1
10
503.030092
20
369.005818
11
501.453182
21
369.866422
0
LINE
8
Layer 1
10
501.453182
20
369.866422
11
499.971333
21
370.870792
0
LINE
8
Layer 1
10
499.971333
20
370.870792
11
498.592562
21
372.008881
0
LINE
8
Layer 1
10
498.592562
20
372.008881
11
497.324887
21
373.270643
0
LINE
8
Layer 1
10
497.324887
20
373.270643
11
496.176325
21
374.646029
0
LINE
8
Layer 1
10
496.176325
20
374.646029
11
495.154894
21
376.124994
0
LINE
8
Layer 1
10
495.154894
20
376.124994
11
494.268609
21
377.697490
0
LINE
8
Layer 1
10
494.268609
20
377.697490
11
493.525489
21
379.353471
0
LINE
8
Layer 1
10
493.525489
20
379.353471
11
492.933551
21
381.082889
0
LINE
8
Layer 1
10
492.933551
20
381.082889
11
492.500812
21
382.875698
0
LINE
8
Layer 1
10
492.500812
20
382.875698
11
492.235289
21
384.721851
0
LINE
8
Layer 1
10
492.235289
20
384.721851
11
492.145000
21
386.611300
0
LINE
8
Layer 1
10
492.145000
20
386.611000
11
492.145000
21
393.197670
0
LINE
8
Layer 1
10
492.145000
20
393.198000
11
492.005852
21
395.482350
0
LINE
8
Layer 1
10
492.005852
20
395.482350
11
491.585665
21
397.610047
0
LINE
8
Layer 1
10
491.585665
20
397.610047
11
490.880327
21
399.535557
0
LINE
8
Layer 1
10
490.880327
20
399.535557
11
489.885727
21
401.213350
0
LINE
8
Layer 1
10
489.885727
20
401.213350
11
488.597753
21
402.597893
0
LINE
8
Layer 1
10
488.597753
20
402.597893
11
487.012292
21
403.643653
0
LINE
8
Layer 1
10
487.012292
20
403.643653
11
485.125231
21
404.305100
0
LINE
8
Layer 1
10
485.125231
20
404.305100
11
482.932460
21
404.536700
0
LINE
8
Layer 1
10
482.932000
20
404.537000
11
482.710220
21
404.540000
0
LINE
8
Layer 1
10
482.711000
20
404.540000
11
481.974938
21
404.392006
0
LINE
8
Layer 1
10
481.974938
20
404.392006
11
481.373500
21
403.987044
0
LINE
8
Layer 1
10
481.373500
20
403.987044
11
480.967813
21
403.385895
0
LINE
8
Layer 1
10
480.967813
20
403.385895
11
480.819000
21
402.649340
0
LINE
8
Layer 1
10
480.819000
20
402.649000
11
480.819000
21
396.979660
0
LINE
8
Layer 1
10
480.819000
20
396.980000
11
480.670605
21
396.244914
0
LINE
8
Layer 1
10
480.670605
20
396.244914
11
480.265834
21
395.644329
0
LINE
8
Layer 1
10
480.265834
20
395.644329
11
479.665311
21
395.239244
0
LINE
8
Layer 1
10
479.665311
20
395.239244
11
478.929660
21
395.090660
0
LINE
8
Layer 1
10
478.929000
20
395.090000
11
410.893000
21
395.090000
0
LINE
8
Layer 1
10
410.893000
20
395.090000
11
410.157355
21
394.941605
0
LINE
8
Layer 1
10
410.157355
20
394.941605
11
409.556835
21
394.536835
0
LINE
8
Layer 1
10
409.556835
20
394.536835
11
409.152065
21
393.936315
0
LINE
8
Layer 1
10
409.152065
20
393.936315
11
409.003670
21
393.200670
0
LINE
8
Layer 1
10
409.004000
20
393.201000
11
409.004000
21
388.475660
0
LINE
8
Layer 1
10
409.004000
20
388.476000
11
408.855395
21
387.740355
0
LINE
8
Layer 1
10
408.855395
20
387.740355
11
408.450165
21
387.139835
0
LINE
8
Layer 1
10
408.450165
20
387.139835
11
407.849185
21
386.735065
0
LINE
8
Layer 1
10
407.849185
20
386.735065
11
407.113330
21
386.586670
0
LINE
8
Layer 1
10
407.113000
20
386.586000
11
327.929000
21
386.586000
0
LINE
8
Layer 1
10
327.929000
20
386.586000
11
327.193145
21
386.734395
0
LINE
8
Layer 1
10
327.193145
20
386.734395
11
326.592165
21
387.139165
0
LINE
8
Layer 1
10
326.592165
20
387.139165
11
326.186935
21
387.739685
0
LINE
8
Layer 1
10
326.186935
20
387.739685
11
326.038330
21
388.475330
0
LINE
8
Layer 1
10
326.038000
20
388.476000
11
326.038000
21
393.201340
0
LINE
8
Layer 1
10
326.038000
20
393.201000
11
325.889605
21
393.936645
0
LINE
8
Layer 1
10
325.889605
20
393.936645
11
325.484835
21
394.537165
0
LINE
8
Layer 1
10
325.484835
20
394.537165
11
324.884315
21
394.941935
0
LINE
8
Layer 1
10
324.884315
20
394.941935
11
324.148670
21
395.090330
0
LINE
8
Layer 1
10
324.149000
20
395.090000
11
255.941000
21
395.090000
0
LINE
8
Layer 1
10
255.941000
20
395.090000
11
255.205914
21
395.238584
0
LINE
8
Layer 1
10
255.205914
20
395.238584
11
254.605329
21
395.643669
0
LINE
8
Layer 1
10
254.605329
20
395.643669
11
254.200244
21
396.244254
0
LINE
8
Layer 1
10
254.200244
20
396.244254
11
254.051660
21
396.979340
0
LINE
8
Layer 1
10
254.052000
20
396.980000
11
254.052000
21
411.154000
0
LINE
8
Layer 1
10
254.052000
20
411.154000
11
253.903584
21
411.889855
0
LINE
8
Layer 1
10
253.903584
20
411.889855
11
253.498669
21
412.490835
0
LINE
8
Layer 1
10
253.498669
20
412.490835
11
252.897754
21
412.896065
0
LINE
8
Layer 1
10
252.897754
20
412.896065
11
252.161340
21
413.044670
0
LINE
8
Layer 1
10
252.161000
20
413.045000
11
191.669000
21
413.045000
0
LINE
8
Layer 1
10
191.669000
20
413.045000
11
184.108990
21
413.045000
0
LINE
8
Layer 1
10
184.109000
20
413.045000
11
115.979000
21
413.045000
0
LINE
8
Layer 1
10
115.979000
20
413.045000
11
115.243126
21
413.193395
0
LINE
8
Layer 1
10
115.243126
20
413.193395
11
114.642003
21
413.598166
0
LINE
8
Layer 1
10
114.642003
20
413.598166
11
114.236378
21
414.198689
0
LINE
8
Layer 1
10
114.236378
20
414.198689
11
114.087000
21
414.934340
0
LINE
8
Layer 1
10
114.087000
20
414.934000
11
114.087000
21
416.506000
0
LINE
8
Layer 1
10
114.087000
20
416.506000
11
114.023163
21
418.790896
0
LINE
8
Layer 1
10
114.023163
20
418.790896
11
113.801491
21
420.919170
0
LINE
8
Layer 1
10
113.801491
20
420.919170
11
113.376741
21
422.845197
0
LINE
8
Layer 1
10
113.376741
20
422.845197
11
112.703670
21
424.523349
0
LINE
8
Layer 1
10
112.703670
20
424.523349
11
111.737036
21
425.908001
0
LINE
8
Layer 1
10
111.737036
20
425.908001
11
110.431597
21
426.953528
0
LINE
8
Layer 1
10
110.431597
20
426.953528
11
108.742109
21
427.614303
0
LINE
8
Layer 1
10
108.742109
20
427.614303
11
106.623330
21
427.844700
0
LINE
8
Layer 1
10
106.623000
20
427.845000
11
100.033670
21
427.845000
0
LINE
8
Layer 1
10
100.034000
20
427.845000
11
98.144315
21
427.935304
0
LINE
8
Layer 1
10
98.144315
20
427.935304
11
96.297956
21
428.200868
0
LINE
8
Layer 1
10
96.297956
20
428.200868
11
94.504968
21
428.633670
0
LINE
8
Layer 1
10
94.504968
20
428.633670
11
92.775395
21
429.225689
0
LINE
8
Layer 1
10
92.775395
20
429.225689
11
91.119284
21
429.968903
0
LINE
8
Layer 1
10
91.119284
20
429.968903
11
89.546678
21
430.855292
0
LINE
8
Layer 1
10
89.546678
20
430.855292
11
88.067623
21
431.876832
0
LINE
8
Layer 1
10
88.067623
20
431.876832
11
86.692162
21
433.025504
0
LINE
8
Layer 1
10
86.692162
20
433.025504
11
85.430343
21
434.293284
0
LINE
8
Layer 1
10
85.430343
20
434.293284
11
84.292208
21
435.672153
0
LINE
8
Layer 1
10
84.292208
20
435.672153
11
83.287803
21
437.154087
0
LINE
8
Layer 1
10
83.287803
20
437.154087
11
82.427173
21
438.731067
0
LINE
8
Layer 1
10
82.427173
20
438.731067
11
81.720363
21
440.395069
0
LINE
8
Layer 1
10
81.720363
20
440.395069
11
81.177418
21
442.138073
0
LINE
8
Layer 1
10
81.177418
20
442.138073
11
80.808382
21
443.952057
0
LINE
8
Layer 1
10
80.808382
20
443.952057
11
80.623300
21
445.829000
0
LINE
8
Layer 1
10
80.623200
20
445.829000
11
80.633038
21
447.839837
0
LINE
8
Layer 1
10
80.633038
20
447.839837
11
80.847156
21
449.795948
0
LINE
8
Layer 1
10
80.847156
20
449.795948
11
81.255206
21
451.686983
0
LINE
8
Layer 1
10
81.255206
20
451.686983
11
81.846845
21
453.502594
0
LINE
8
Layer 1
10
81.846845
20
453.502594
11
82.611726
21
455.232430
0
LINE
8
Layer 1
10
82.611726
20
455.232430
11
83.539503
21
456.866143
0
LINE
8
Layer 1
10
83.539503
20
456.866143
11
84.619830
21
458.393383
0
LINE
8
Layer 1
10
84.619830
20
458.393383
11
85.842362
21
459.803800
0
LINE
8
Layer 1
10
85.842362
20
459.803800
11
87.196754
21
461.087045
0
LINE
8
Layer 1
10
87.196754
20
461.087045
11
88.672658
21
462.232770
0
LINE
8
Layer 1
10
88.672658
20
462.232770
11
90.259730
21
463.230623
0
LINE
8
Layer 1
10
90.259730
20
463.230623
11
91.947623
21
464.070256
0
LINE
8
Layer 1
10
91.947623
20
464.070256
11
93.725993
21
464.741320
0
LINE
8
Layer 1
10
93.725993
20
464.741320
11
95.584493
21
465.233465
0
LINE
8
Layer 1
10
95.584493
20
465.233465
11
97.512777
21
465.536341
0
LINE
8
Layer 1
10
97.512777
20
465.536341
11
99.500500
21
465.639600
0
LINE
8
Layer 1
10
99.500600
20
465.640000
11
105.613540
21
465.640000
0
LINE
8
Layer 1
10
105.614000
20
465.640000
11
107.784556
21
465.870338
0
LINE
8
Layer 1
10
107.784556
20
465.870338
11
109.610555
21
466.530958
0
LINE
8
Layer 1
10
109.610555
20
466.530958
11
111.108993
21
467.576264
0
LINE
8
Layer 1
10
111.108993
20
467.576264
11
112.296871
21
468.960663
0
LINE
8
Layer 1
10
112.296871
20
468.960663
11
113.191186
21
470.638560
0
LINE
8
Layer 1
10
113.191186
20
470.638560
11
113.808937
21
472.564361
0
LINE
8
Layer 1
10
113.808937
20
472.564361
11
114.167122
21
474.692472
0
LINE
8
Layer 1
10
114.167122
20
474.692472
11
114.282740
21
476.977300
0
LINE
8
Layer 1
10
114.282000
20
476.977000
11
114.255300
21
560.219700
0
LINE
8
Layer 1
10
471.072000
20
469.758000
11
471.157326
21
470.595833
0
LINE
8
Layer 1
10
471.157326
20
470.595833
11
471.399976
21
471.376199
0
LINE
8
Layer 1
10
471.399976
20
471.376199
11
471.783338
21
472.082381
0
LINE
8
Layer 1
10
471.783338
20
472.082381
11
472.290797
21
472.697657
0
LINE
8
Layer 1
10
472.290797
20
472.697657
11
472.905740
21
473.205310
0
LINE
8
Layer 1
10
472.905740
20
473.205310
11
473.611553
21
473.588619
0
LINE
8
Layer 1
10
473.611553
20
473.588619
11
474.391620
21
473.830866
0
LINE
8
Layer 1
10
474.391620
20
473.830866
11
475.229330
21
473.915330
0
LINE
8
Layer 1
10
475.229000
20
473.916000
11
476.066952
21
473.831536
0
LINE
8
Layer 1
10
476.066952
20
473.831536
11
476.847625
21
473.589289
0
LINE
8
Layer 1
10
476.847625
20
473.589289
11
477.554239
21
473.205980
0
LINE
8
Layer 1
10
477.554239
20
473.205980
11
478.170011
21
472.698328
0
LINE
8
Layer 1
10
478.170011
20
472.698328
11
478.678158
21
472.083051
0
LINE
8
Layer 1
10
478.678158
20
472.083051
11
479.061899
21
471.376869
0
LINE
8
Layer 1
10
479.061899
20
471.376869
11
479.304450
21
470.596503
0
LINE
8
Layer 1
10
479.304450
20
470.596503
11
479.389030
21
469.758670
0
LINE
8
Layer 1
10
479.389000
20
469.758000
11
479.304420
21
468.920151
0
LINE
8
Layer 1
10
479.304420
20
468.920151
11
479.061869
21
468.139773
0
LINE
8
Layer 1
10
479.061869
20
468.139773
11
478.678128
21
467.433585
0
LINE
8
Layer 1
10
478.678128
20
467.433585
11
478.169981
21
466.818304
0
LINE
8
Layer 1
10
478.169981
20
466.818304
11
477.554209
21
466.310649
0
LINE
8
Layer 1
10
477.554209
20
466.310649
11
476.847595
21
465.927340
0
LINE
8
Layer 1
10
476.847595
20
465.927340
11
476.066922
21
465.685094
0
LINE
8
Layer 1
10
476.066922
20
465.685094
11
475.228970
21
465.600630
0
LINE
8
Layer 1
10
475.229000
20
465.601000
11
474.391281
21
465.685464
0
LINE
8
Layer 1
10
474.391281
20
465.685464
11
473.611213
21
465.927710
0
LINE
8
Layer 1
10
473.611213
20
465.927710
11
472.905455
21
466.311019
0
LINE
8
Layer 1
10
472.905455
20
466.311019
11
472.290662
21
466.818674
0
LINE
8
Layer 1
10
472.290662
20
466.818674
11
471.783495
21
467.433955
0
LINE
8
Layer 1
10
471.783495
20
467.433955
11
471.400608
21
468.140143
0
LINE
8
Layer 1
10
471.400608
20
468.140143
11
471.158661
21
468.920521
0
LINE
8
Layer 1
10
471.158661
20
468.920521
11
471.074310
21
469.758370
0
LINE
8
Layer 1
10
183.777000
20
483.449000
11
183.861469
21
484.286835
0
LINE
8
Layer 1
10
183.861469
20
484.286835
11
184.103728
21
485.067202
0
LINE
8
Layer 1
10
184.103728
20
485.067202
11
184.487052
21
485.773382
0
LINE
8
Layer 1
10
184.487052
20
485.773382
11
184.994719
21
486.388656
0
LINE
8
Layer 1
10
184.994719
20
486.388656
11
185.610004
21
486.896306
0
LINE
8
Layer 1
10
185.610004
20
486.896306
11
186.316185
21
487.279612
0
LINE
8
Layer 1
10
186.316185
20
487.279612
11
187.096538
21
487.521857
0
LINE
8
Layer 1
10
187.096538
20
487.521857
11
187.934340
21
487.606320
0
LINE
8
Layer 1
10
187.934000
20
487.606000
11
188.771754
21
487.521537
0
LINE
8
Layer 1
10
188.771754
20
487.521537
11
189.552070
21
487.279292
0
LINE
8
Layer 1
10
189.552070
20
487.279292
11
190.258223
21
486.895986
0
LINE
8
Layer 1
10
190.258223
20
486.895986
11
190.873489
21
486.388336
0
LINE
8
Layer 1
10
190.873489
20
486.388336
11
191.381142
21
485.773062
0
LINE
8
Layer 1
10
191.381142
20
485.773062
11
191.764458
21
485.066882
0
LINE
8
Layer 1
10
191.764458
20
485.066882
11
192.006712
21
484.286515
0
LINE
8
Layer 1
10
192.006712
20
484.286515
11
192.091180
21
483.448680
0
LINE
8
Layer 1
10
192.091000
20
483.449000
11
192.006532
21
482.611156
0
LINE
8
Layer 1
10
192.006532
20
482.611156
11
191.764278
21
481.830784
0
LINE
8
Layer 1
10
191.764278
20
481.830784
11
191.380962
21
481.124602
0
LINE
8
Layer 1
10
191.380962
20
481.124602
11
190.873309
21
480.509328
0
LINE
8
Layer 1
10
190.873309
20
480.509328
11
190.258043
21
480.001679
0
LINE
8
Layer 1
10
190.258043
20
480.001679
11
189.551890
21
479.618375
0
LINE
8
Layer 1
10
189.551890
20
479.618375
11
188.771574
21
479.376133
0
LINE
8
Layer 1
10
188.771574
20
479.376133
11
187.933820
21
479.291670
0
LINE
8
Layer 1
10
187.934000
20
479.292000
11
187.096198
21
479.376463
0
LINE
8
Layer 1
10
187.096198
20
479.376463
11
186.315845
21
479.618705
0
LINE
8
Layer 1
10
186.315845
20
479.618705
11
185.609664
21
480.002009
0
LINE
8
Layer 1
10
185.609664
20
480.002009
11
184.994379
21
480.509658
0
LINE
8
Layer 1
10
184.994379
20
480.509658
11
184.486712
21
481.124932
0
LINE
8
Layer 1
10
184.486712
20
481.124932
11
184.103388
21
481.831114
0
LINE
8
Layer 1
10
184.103388
20
481.831114
11
183.861129
21
482.611486
0
LINE
8
Layer 1
10
183.861129
20
482.611486
11
183.776660
21
483.449330
0
LINE
8
Layer 1
10
183.744000
20
555.312000
11
183.828468
21
556.148964
0
LINE
8
Layer 1
10
183.828468
20
556.148964
11
184.070725
21
556.928676
0
LINE
8
Layer 1
10
184.070725
20
556.928676
11
184.454047
21
557.634387
0
LINE
8
Layer 1
10
184.454047
20
557.634387
11
184.961711
21
558.249346
0
LINE
8
Layer 1
10
184.961711
20
558.249346
11
185.576996
21
558.756805
0
LINE
8
Layer 1
10
185.576996
20
558.756805
11
186.283177
21
559.140014
0
LINE
8
Layer 1
10
186.283177
20
559.140014
11
187.063533
21
559.382222
0
LINE
8
Layer 1
10
187.063533
20
559.382222
11
187.901340
21
559.466680
0
LINE
8
Layer 1
10
187.901000
20
559.466000
11
188.738753
21
559.381542
0
LINE
8
Layer 1
10
188.738753
20
559.381542
11
189.519071
21
559.139334
0
LINE
8
Layer 1
10
189.519071
20
559.139334
11
190.225229
21
558.756125
0
LINE
8
Layer 1
10
190.225229
20
558.756125
11
190.840500
21
558.248666
0
LINE
8
Layer 1
10
190.840500
20
558.248666
11
191.348160
21
557.633707
0
LINE
8
Layer 1
10
191.348160
20
557.633707
11
191.731482
21
556.927996
0
LINE
8
Layer 1
10
191.731482
20
556.927996
11
191.973740
21
556.148284
0
LINE
8
Layer 1
10
191.973740
20
556.148284
11
192.058210
21
555.311320
0
LINE
8
Layer 1
10
192.058000
20
555.312000
11
191.973530
21
554.473284
0
LINE
8
Layer 1
10
191.973530
20
554.473284
11
191.731272
21
553.692257
0
LINE
8
Layer 1
10
191.731272
20
553.692257
11
191.347950
21
552.985606
0
LINE
8
Layer 1
10
191.347950
20
552.985606
11
190.840290
21
552.370018
0
LINE
8
Layer 1
10
190.840290
20
552.370018
11
190.225019
21
551.862179
0
LINE
8
Layer 1
10
190.225019
20
551.862179
11
189.518861
21
551.478776
0
LINE
8
Layer 1
10
189.518861
20
551.478776
11
188.738543
21
551.236498
0
LINE
8
Layer 1
10
188.738543
20
551.236498
11
187.900790
21
551.152030
0
LINE
8
Layer 1
10
187.901000
20
551.152000
11
187.063193
21
551.236468
0
LINE
8
Layer 1
10
187.063193
20
551.236468
11
186.282837
21
551.478746
0
LINE
8
Layer 1
10
186.282837
20
551.478746
11
185.576656
21
551.862149
0
LINE
8
Layer 1
10
185.576656
20
551.862149
11
184.961371
21
552.369988
0
LINE
8
Layer 1
10
184.961371
20
552.369988
11
184.453707
21
552.985576
0
LINE
8
Layer 1
10
184.453707
20
552.985576
11
184.070385
21
553.692228
0
LINE
8
Layer 1
10
184.070385
20
553.692228
11
183.828128
21
554.473254
0
LINE
8
Layer 1
10
183.828128
20
554.473254
11
183.743660
21
555.311970
0
LINE
8
Layer 1
10
523.005000
20
649.276000
11
523.089465
21
650.113794
0
LINE
8
Layer 1
10
523.089465
20
650.113794
11
523.331712
21
650.894020
0
LINE
8
Layer 1
10
523.331712
20
650.894020
11
523.715023
21
651.599993
0
LINE
8
Layer 1
10
523.715023
20
651.599993
11
524.222678
21
652.215025
0
LINE
8
Layer 1
10
524.222678
20
652.215025
11
524.837956
21
652.722430
0
LINE
8
Layer 1
10
524.837956
20
652.722430
11
525.544139
21
653.105522
0
LINE
8
Layer 1
10
525.544139
20
653.105522
11
526.324507
21
653.347615
0
LINE
8
Layer 1
10
526.324507
20
653.347615
11
527.162340
21
653.432020
0
LINE
8
Layer 1
10
527.162000
20
653.432000
11
527.999848
21
653.347592
0
LINE
8
Layer 1
10
527.999848
20
653.347592
11
528.780225
21
653.105482
0
LINE
8
Layer 1
10
528.780225
20
653.105482
11
529.486412
21
652.722341
0
LINE
8
Layer 1
10
529.486412
20
652.722341
11
530.101691
21
652.214840
0
LINE
8
Layer 1
10
530.101691
20
652.214840
11
530.609344
21
651.599650
0
LINE
8
Layer 1
10
530.609344
20
651.599650
11
530.992652
21
650.893443
0
LINE
8
Layer 1
10
530.992652
20
650.893443
11
531.234897
21
650.112889
0
LINE
8
Layer 1
10
531.234897
20
650.112889
11
531.319360
21
649.274660
0
LINE
8
Layer 1
10
531.320000
20
649.274000
11
531.235537
21
648.436224
0
LINE
8
Layer 1
10
531.235537
20
648.436224
11
530.993292
21
647.656008
0
LINE
8
Layer 1
10
530.993292
20
647.656008
11
530.609984
21
646.950040
0
LINE
8
Layer 1
10
530.609984
20
646.950040
11
530.102331
21
646.335007
0
LINE
8
Layer 1
10
530.102331
20
646.335007
11
529.487052
21
645.827599
0
LINE
8
Layer 1
10
529.487052
20
645.827599
11
528.780865
21
645.444503
0
LINE
8
Layer 1
10
528.780865
20
645.444503
11
528.000488
21
645.202407
0
LINE
8
Layer 1
10
528.000488
20
645.202407
11
527.162640
21
645.118000
0
LINE
8
Layer 1
10
527.162000
20
645.118000
11
526.324167
21
645.202407
0
LINE
8
Layer 1
10
526.324167
20
645.202407
11
525.543799
21
645.444503
0
LINE
8
Layer 1
10
525.543799
20
645.444503
11
524.837616
21
645.827599
0
LINE
8
Layer 1
10
524.837616
20
645.827599
11
524.222338
21
646.335007
0
LINE
8
Layer 1
10
524.222338
20
646.335007
11
523.714683
21
646.950040
0
LINE
8
Layer 1
10
523.714683
20
646.950040
11
523.331372
21
647.656008
0
LINE
8
Layer 1
10
523.331372
20
647.656008
11
523.089125
21
648.436224
0
LINE
8
Layer 1
10
523.089125
20
648.436224
11
523.004660
21
649.274000
0
LINE
8
Layer 1
10
347.198000
20
619.968000
11
347.282463
21
620.806604
0
LINE
8
Layer 1
10
347.282463
20
620.806604
11
347.524705
21
621.587336
0
LINE
8
Layer 1
10
347.524705
20
621.587336
11
347.908010
21
622.293571
0
LINE
8
Layer 1
10
347.908010
20
622.293571
11
348.415659
21
622.908682
0
LINE
8
Layer 1
10
348.415659
20
622.908682
11
349.030934
21
623.416044
0
LINE
8
Layer 1
10
349.030934
20
623.416044
11
349.737118
21
623.799030
0
LINE
8
Layer 1
10
349.737118
20
623.799030
11
350.517493
21
624.041014
0
LINE
8
Layer 1
10
350.517493
20
624.041014
11
351.355340
21
624.125370
0
LINE
8
Layer 1
10
351.356000
20
624.125000
11
352.193836
21
624.040649
0
LINE
8
Layer 1
10
352.193836
20
624.040649
11
352.974204
21
623.798702
0
LINE
8
Layer 1
10
352.974204
20
623.798702
11
353.680385
21
623.415815
0
LINE
8
Layer 1
10
353.680385
20
623.415815
11
354.295661
21
622.908648
0
LINE
8
Layer 1
10
354.295661
20
622.908648
11
354.803313
21
622.293855
0
LINE
8
Layer 1
10
354.803313
20
622.293855
11
355.186621
21
621.588097
0
LINE
8
Layer 1
10
355.186621
20
621.588097
11
355.428866
21
620.808029
0
LINE
8
Layer 1
10
355.428866
20
620.808029
11
355.513330
21
619.970310
0
LINE
8
Layer 1
10
355.513000
20
619.970000
11
355.428536
21
619.132164
0
LINE
8
Layer 1
10
355.428536
20
619.132164
11
355.186291
21
618.351795
0
LINE
8
Layer 1
10
355.186291
20
618.351795
11
354.802983
21
617.645612
0
LINE
8
Layer 1
10
354.802983
20
617.645612
11
354.295331
21
617.030334
0
LINE
8
Layer 1
10
354.295331
20
617.030334
11
353.680055
21
616.522680
0
LINE
8
Layer 1
10
353.680055
20
616.522680
11
352.973874
21
616.139371
0
LINE
8
Layer 1
10
352.973874
20
616.139371
11
352.193506
21
615.897124
0
LINE
8
Layer 1
10
352.193506
20
615.897124
11
351.355670
21
615.812660
0
LINE
8
Layer 1
10
351.356000
20
615.813000
11
350.518153
21
615.897464
0
LINE
8
Layer 1
10
350.518153
20
615.897464
11
349.737778
21
616.139711
0
LINE
8
Layer 1
10
349.737778
20
616.139711
11
349.031594
21
616.523020
0
LINE
8
Layer 1
10
349.031594
20
616.523020
11
348.416319
21
617.030674
0
LINE
8
Layer 1
10
348.416319
20
617.030674
11
347.908670
21
617.645952
0
LINE
8
Layer 1
10
347.908670
20
617.645952
11
347.525365
21
618.352135
0
LINE
8
Layer 1
10
347.525365
20
618.352135
11
347.283123
21
619.132504
0
LINE
8
Layer 1
10
347.283123
20
619.132504
11
347.198660
21
619.970340
0
LINE
8
Layer 1
10
181.287000
20
423.331000
11
122.703000
21
423.331000
0
LINE
8
Layer 1
10
122.703000
20
423.331000
11
122.703000
21
471.709700
0
LINE
8
Layer 1
10
122.703000
20
471.710000
11
181.286900
21
471.710000
0
LINE
8
Layer 1
10
181.287000
20
471.710000
11
181.287000
21
423.331000
0
LINE
8
Layer 1
10
324.909000
20
405.379000
11
266.326000
21
405.379000
0
LINE
8
Layer 1
10
266.326000
20
405.379000
11
266.326000
21
453.756400
0
LINE
8
Layer 1
10
266.326000
20
453.757000
11
324.908700
21
453.757000
0
LINE
8
Layer 1
10
324.909000
20
453.757000
11
324.909000
21
405.379000
0
LINE
8
Layer 1
10
324.909000
20
477.186000
11
266.326000
21
477.186000
0
LINE
8
Layer 1
10
266.326000
20
477.186000
11
266.326000
21
525.564700
0
LINE
8
Layer 1
10
266.326000
20
525.565000
11
324.908700
21
525.565000
0
LINE
8
Layer 1
10
324.909000
20
525.565000
11
324.909000
21
477.186300
0
LINE
8
Layer 1
10
324.909000
20
548.997000
11
266.326000
21
548.997000
0
LINE
8
Layer 1
10
266.326000
20
548.997000
11
266.326000
21
597.375700
0
LINE
8
Layer 1
10
266.326000
20
597.376000
11
324.908700
21
597.376000
0
LINE
8
Layer 1
10
324.909000
20
597.376000
11
324.909000
21
548.997000
0
LINE
8
Layer 1
10
396.716000
20
396.402000
11
338.133000
21
396.402000
0
LINE
8
Layer 1
10
338.133000
20
396.402000
11
338.133000
21
444.780700
0
LINE
8
Layer 1
10
338.133000
20
444.781000
11
396.715700
21
444.781000
0
LINE
8
Layer 1
10
396.716000
20
444.781000
11
396.716000
21
396.402000
0
LINE
8
Layer 1
10
396.716000
20
468.214000
11
338.133000
21
468.214000
0
LINE
8
Layer 1
10
338.133000
20
468.214000
11
338.133000
21
516.591400
0
LINE
8
Layer 1
10
338.133000
20
516.592000
11
396.715700
21
516.592000
0
LINE
8
Layer 1
10
396.716000
20
516.592000
11
396.716000
21
468.214000
0
LINE
8
Layer 1
10
396.716000
20
540.021000
11
338.133000
21
540.021000
0
LINE
8
Layer 1
10
338.133000
20
540.021000
11
338.133000
21
588.399700
0
LINE
8
Layer 1
10
338.133000
20
588.400000
11
396.715700
21
588.400000
0
LINE
8
Layer 1
10
396.716000
20
588.400000
11
396.716000
21
540.021000
0
LINE
8
Layer 1
10
468.528000
20
548.997000
11
409.945000
21
548.997000
0
LINE
8
Layer 1
10
409.945000
20
548.997000
11
409.945000
21
597.375700
0
LINE
8
Layer 1
10
409.945000
20
597.376000
11
468.527700
21
597.376000
0
LINE
8
Layer 1
10
468.528000
20
597.376000
11
468.528000
21
548.997000
0
LINE
8
Layer 1
10
432.622000
20
623.168000
11
374.040000
21
623.168000
0
LINE
8
Layer 1
10
374.040000
20
623.168000
11
374.040000
21
671.545400
0
LINE
8
Layer 1
10
374.040000
20
671.545000
11
432.622700
21
671.545000
0
LINE
8
Layer 1
10
432.622000
20
671.545000
11
432.622000
21
623.168000
0
LINE
8
Layer 1
10
540.334000
20
414.351000
11
481.752000
21
414.351000
0
LINE
8
Layer 1
10
481.752000
20
414.351000
11
481.752000
21
462.729700
0
LINE
8
Layer 1
10
481.752000
20
462.730000
11
540.334700
21
462.730000
0
LINE
8
Layer 1
10
540.334000
20
462.730000
11
540.334000
21
414.351000
0
LINE
8
Layer 1
10
540.334000
20
486.162000
11
481.752000
21
486.162000
0
LINE
8
Layer 1
10
481.752000
20
486.162000
11
481.752000
21
534.541000
0
LINE
8
Layer 1
10
481.752000
20
534.541000
11
540.334700
21
534.541000
0
LINE
8
Layer 1
10
540.334000
20
534.541000
11
540.334000
21
486.162000
0
LINE
8
Layer 1
10
540.334000
20
557.974000
11
481.752000
21
557.974000
0
LINE
8
Layer 1
10
481.752000
20
557.974000
11
481.752000
21
606.351400
0
LINE
8
Layer 1
10
481.752000
20
606.352000
11
540.334700
21
606.352000
0
LINE
8
Layer 1
10
540.334000
20
606.352000
11
540.334000
21
557.974000
0
LINE
8
Layer 1
10
468.528000
20
477.186000
11
409.945000
21
477.186000
0
LINE
8
Layer 1
10
409.945000
20
477.186000
11
409.945000
21
525.564700
0
LINE
8
Layer 1
10
409.945000
20
525.565000
11
468.527700
21
525.565000
0
LINE
8
Layer 1
10
468.528000
20
525.565000
11
468.528000
21
477.186300
0
LINE
8
Layer 1
10
468.528000
20
405.379000
11
409.945000
21
405.379000
0
LINE
8
Layer 1
10
409.945000
20
405.379000
11
409.945000
21
453.756400
0
LINE
8
Layer 1
10
409.945000
20
453.757000
11
468.527700
21
453.757000
0
LINE
8
Layer 1
10
468.528000
20
453.757000
11
468.528000
21
405.379000
0
LINE
8
Layer 1
10
253.098000
20
495.144000
11
194.515000
21
495.144000
0
LINE
8
Layer 1
10
194.515000
20
495.144000
11
194.515000
21
543.521400
0
LINE
8
Layer 1
10
194.515000
20
543.521000
11
253.097700
21
543.521000
0
LINE
8
Layer 1
10
253.098000
20
543.521000
11
253.098000
21
495.144000
0
LINE
8
Layer 1
10
181.287000
20
495.144000
11
122.703000
21
495.144000
0
LINE
8
Layer 1
10
122.703000
20
495.144000
11
122.703000
21
543.521400
0
LINE
8
Layer 1
10
122.703000
20
543.521000
11
181.286900
21
543.521000
0
LINE
8
Layer 1
10
181.287000
20
543.521000
11
181.287000
21
495.144000
0
LINE
8
Layer 1
10
181.287000
20
566.946000
11
122.703000
21
566.946000
0
LINE
8
Layer 1
10
122.703000
20
566.946000
11
122.703000
21
615.324700
0
LINE
8
Layer 1
10
122.703000
20
615.325000
11
181.286900
21
615.325000
0
LINE
8
Layer 1
10
181.287000
20
615.325000
11
181.287000
21
566.946000
0
LINE
8
Layer 1
10
253.098000
20
566.946000
11
194.515000
21
566.946000
0
LINE
8
Layer 1
10
194.515000
20
566.946000
11
194.515000
21
615.324700
0
LINE
8
Layer 1
10
194.515000
20
615.325000
11
253.097700
21
615.325000
0
LINE
8
Layer 1
10
253.098000
20
615.325000
11
253.098000
21
566.946000
0
LINE
8
Layer 1
10
253.098000
20
423.331000
11
194.515000
21
423.331000
0
LINE
8
Layer 1
10
194.515000
20
423.331000
11
194.515000
21
471.709700
0
LINE
8
Layer 1
10
194.515000
20
471.710000
11
253.097700
21
471.710000
0
LINE
8
Layer 1
10
253.098000
20
471.710000
11
253.098000
21
423.331000
0
LINE
8
Layer 1
10
531.242000
20
685.253000
11
560.498000
21
634.498300
0
LINE
8
Layer 1
10
560.498000
20
634.498000
11
602.411400
21
658.658000
0
LINE
8
Layer 1
10
602.412000
20
658.658000
11
573.155900
21
709.411400
0
LINE
8
Layer 1
10
573.156000
20
709.412000
11
531.242000
21
685.253000
0
LINE
8
Layer 1
10
448.140000
20
673.554000
11
460.661300
21
626.824700
0
LINE
8
Layer 1
10
460.661000
20
626.825000
11
517.247700
21
641.987700
0
LINE
8
Layer 1
10
517.248000
20
641.988000
11
504.726000
21
688.717000
0
LINE
8
Layer 1
10
504.726000
20
688.717000
11
448.140000
21
673.554000
0
LINE
8
Layer 1
10
439.407000
20
1007.310000
11
439.610052
21
1005.313211
0
LINE
8
Layer 1
10
439.610052
20
1005.313211
11
440.192167
21
1003.454872
0
LINE
8
Layer 1
10
440.192167
20
1003.454872
11
441.112782
21
1001.775562
0
LINE
8
Layer 1
10
441.112782
20
1001.775562
11
442.331335
21
1000.315859
0
LINE
8
Layer 1
10
442.331335
20
1000.315859
11
443.807264
21
999.116341
0
LINE
8
Layer 1
10
443.807264
20
999.116341
11
445.500006
21
998.217588
0
LINE
8
Layer 1
10
445.500006
20
998.217588
11
447.368999
21
997.660178
0
LINE
8
Layer 1
10
447.368999
20
997.660178
11
449.373680
21
997.484690
0
LINE
8
Layer 1
10
449.374000
20
997.486000
11
451.285530
21
997.708736
0
LINE
8
Layer 1
10
451.285530
20
997.708736
11
453.078832
21
998.295642
0
LINE
8
Layer 1
10
453.078832
20
998.295642
11
454.712919
21
999.205766
0
LINE
8
Layer 1
10
454.712919
20
999.205766
11
456.146805
21
1000.398155
0
LINE
8
Layer 1
10
456.146805
20
1000.398155
11
457.339504
21
1001.831856
0
LINE
8
Layer 1
10
457.339504
20
1001.831856
11
458.250031
21
1003.465918
0
LINE
8
Layer 1
10
458.250031
20
1003.465918
11
458.837398
21
1005.259387
0
LINE
8
Layer 1
10
458.837398
20
1005.259387
11
459.060620
21
1007.171310
0
LINE
8
Layer 1
10
459.060000
20
1007.170000
11
458.884128
21
1009.175061
0
LINE
8
Layer 1
10
458.884128
20
1009.175061
11
458.326521
21
1011.044234
0
LINE
8
Layer 1
10
458.326521
20
1011.044234
11
457.427697
21
1012.737003
0
LINE
8
Layer 1
10
457.427697
20
1012.737003
11
456.228171
21
1014.212850
0
LINE
8
Layer 1
10
456.228171
20
1014.212850
11
454.768459
21
1015.431260
0
LINE
8
Layer 1
10
454.768459
20
1015.431260
11
453.089078
21
1016.351716
0
LINE
8
Layer 1
10
453.089078
20
1016.351716
11
451.230543
21
1016.933701
0
LINE
8
Layer 1
10
451.230543
20
1016.933701
11
449.233370
21
1017.136700
0
LINE
8
Layer 1
10
449.234000
20
1017.140000
11
447.253712
21
1016.940338
0
LINE
8
Layer 1
10
447.253712
20
1016.940338
11
445.409206
21
1016.367708
0
LINE
8
Layer 1
10
445.409206
20
1016.367708
11
443.740013
21
1015.461639
0
LINE
8
Layer 1
10
443.740013
20
1015.461639
11
442.285664
21
1014.261663
0
LINE
8
Layer 1
10
442.285664
20
1014.261663
11
441.085690
21
1012.807310
0
LINE
8
Layer 1
10
441.085690
20
1012.807310
11
440.179622
21
1011.138111
0
LINE
8
Layer 1
10
440.179622
20
1011.138111
11
439.606991
21
1009.293597
0
LINE
8
Layer 1
10
439.606991
20
1009.293597
11
439.407330
21
1007.313300
0
LINE
8
Layer 1
10
439.407000
20
1007.310000
11
439.407000
21
1007.310000
0
LINE
8
Layer 1
10
468.541000
20
1023.680000
11
469.076877
21
1023.604549
0
LINE
8
Layer 1
10
469.076877
20
1023.604549
11
469.544888
21
1023.395145
0
LINE
8
Layer 1
10
469.544888
20
1023.395145
11
470.219300
21
1022.676162
0
LINE
8
Layer 1
10
470.219300
20
1022.676162
11
470.448212
21
1021.726423
0
LINE
8
Layer 1
10
470.448212
20
1021.726423
11
470.359348
21
1021.228574
0
LINE
8
Layer 1
10
470.359348
20
1021.228574
11
470.115600
21
1020.749300
0
LINE
8
Layer 1
10
470.115000
20
1020.750000
11
469.292362
21
1019.385662
0
LINE
8
Layer 1
10
469.292362
20
1019.385662
11
468.641700
21
1017.803300
0
LINE
8
Layer 1
10
468.642000
20
1017.810000
11
468.234663
21
1016.009025
0
LINE
8
Layer 1
10
468.234663
20
1016.009025
11
468.131300
21
1014.438000
0
LINE
8
Layer 1
10
468.131000
20
1014.440000
11
468.131000
21
1007.812000
0
LINE
8
Layer 1
10
468.131000
20
1007.810000
11
468.048850
21
1006.006499
0
LINE
8
Layer 1
10
468.048850
20
1006.006499
11
467.806860
21
1004.240094
0
LINE
8
Layer 1
10
467.806860
20
1004.240094
11
467.411723
21
1002.519945
0
LINE
8
Layer 1
10
467.411723
20
1002.519945
11
466.870128
21
1000.855213
0
LINE
8
Layer 1
10
466.870128
20
1000.855213
11
466.188768
21
999.255058
0
LINE
8
Layer 1
10
466.188768
20
999.255058
11
465.374334
21
997.728640
0
LINE
8
Layer 1
10
465.374334
20
997.728640
11
464.433517
21
996.285120
0
LINE
8
Layer 1
10
464.433517
20
996.285120
11
463.373009
21
994.933659
0
LINE
8
Layer 1
10
463.373009
20
994.933659
11
462.199500
21
993.683415
0
LINE
8
Layer 1
10
462.199500
20
993.683415
11
460.919682
21
992.543551
0
LINE
8
Layer 1
10
460.919682
20
992.543551
11
459.540247
21
991.523226
0
LINE
8
Layer 1
10
459.540247
20
991.523226
11
458.067885
21
990.631600
0
LINE
8
Layer 1
10
458.067885
20
990.631600
11
456.509288
21
989.877834
0
LINE
8
Layer 1
10
456.509288
20
989.877834
11
454.871147
21
989.271089
0
LINE
8
Layer 1
10
454.871147
20
989.271089
11
453.160154
21
988.820524
0
LINE
8
Layer 1
10
453.160154
20
988.820524
11
451.383000
21
988.535300
0
LINE
8
Layer 1
10
451.383000
20
988.533000
11
449.268188
21
988.414010
0
LINE
8
Layer 1
10
449.268188
20
988.414010
11
447.205976
21
988.521333
0
LINE
8
Layer 1
10
447.205976
20
988.521333
11
445.207933
21
988.843405
0
LINE
8
Layer 1
10
445.207933
20
988.843405
11
443.285627
21
989.368666
0
LINE
8
Layer 1
10
443.285627
20
989.368666
11
441.450626
21
990.085551
0
LINE
8
Layer 1
10
441.450626
20
990.085551
11
439.714498
21
990.982498
0
LINE
8
Layer 1
10
439.714498
20
990.982498
11
438.088813
21
992.047944
0
LINE
8
Layer 1
10
438.088813
20
992.047944
11
436.585137
21
993.270328
0
LINE
8
Layer 1
10
436.585137
20
993.270328
11
435.215041
21
994.638085
0
LINE
8
Layer 1
10
435.215041
20
994.638085
11
433.990091
21
996.139654
0
LINE
8
Layer 1
10
433.990091
20
996.139654
11
432.921856
21
997.763472
0
LINE
8
Layer 1
10
432.921856
20
997.763472
11
432.021905
21
999.497976
0
LINE
8
Layer 1
10
432.021905
20
999.497976
11
431.301805
21
1001.331603
0
LINE
8
Layer 1
10
431.301805
20
1001.331603
11
430.773126
21
1003.252791
0
LINE
8
Layer 1
10
430.773126
20
1003.252791
11
430.447434
21
1005.249978
0
LINE
8
Layer 1
10
430.447434
20
1005.249978
11
430.336300
21
1007.311600
0
LINE
8
Layer 1
10
430.337000
20
1007.310000
11
430.337000
21
1014.424700
0
LINE
8
Layer 1
10
430.337000
20
1014.430000
11
430.284000
21
1015.497495
0
LINE
8
Layer 1
10
430.284000
20
1015.497495
11
430.007999
21
1017.115987
0
LINE
8
Layer 1
10
430.007999
20
1017.115987
11
429.333499
21
1019.087486
0
LINE
8
Layer 1
10
429.333499
20
1019.087486
11
428.085000
21
1021.214000
0
LINE
8
Layer 1
10
428.085000
20
1021.210000
11
427.777819
21
1022.022064
0
LINE
8
Layer 1
10
427.777819
20
1022.022064
11
427.939514
21
1022.820638
0
LINE
8
Layer 1
10
427.939514
20
1022.820638
11
428.481952
21
1023.429217
0
LINE
8
Layer 1
10
428.481952
20
1023.429217
11
429.317000
21
1023.671300
0
LINE
8
Layer 1
10
429.317000
20
1023.670000
11
468.541000
21
1023.683000
0
LINE
8
Layer 1
10
493.009000
20
1007.310000
11
493.212053
21
1005.313211
0
LINE
8
Layer 1
10
493.212053
20
1005.313211
11
493.794169
21
1003.454872
0
LINE
8
Layer 1
10
493.794169
20
1003.454872
11
494.714786
21
1001.775562
0
LINE
8
Layer 1
10
494.714786
20
1001.775562
11
495.933342
21
1000.315859
0
LINE
8
Layer 1
10
495.933342
20
1000.315859
11
497.409275
21
999.116341
0
LINE
8
Layer 1
10
497.409275
20
999.116341
11
499.102022
21
998.217588
0
LINE
8
Layer 1
10
499.102022
20
998.217588
11
500.971021
21
997.660178
0
LINE
8
Layer 1
10
500.971021
20
997.660178
11
502.975710
21
997.484690
0
LINE
8
Layer 1
10
502.976000
20
997.486000
11
504.887524
21
997.708736
0
LINE
8
Layer 1
10
504.887524
20
997.708736
11
506.680822
21
998.295642
0
LINE
8
Layer 1
10
506.680822
20
998.295642
11
508.314907
21
999.205766
0
LINE
8
Layer 1
10
508.314907
20
999.205766
11
509.748792
21
1000.398155
0
LINE
8
Layer 1
10
509.748792
20
1000.398155
11
510.941492
21
1001.831856
0
LINE
8
Layer 1
10
510.941492
20
1001.831856
11
511.852019
21
1003.465918
0
LINE
8
Layer 1
10
511.852019
20
1003.465918
11
512.439388
21
1005.259387
0
LINE
8
Layer 1
10
512.439388
20
1005.259387
11
512.662610
21
1007.171310
0
LINE
8
Layer 1
10
512.662000
20
1007.170000
11
512.486127
21
1009.175061
0
LINE
8
Layer 1
10
512.486127
20
1009.175061
11
511.928520
21
1011.044234
0
LINE
8
Layer 1
10
511.928520
20
1011.044234
11
511.029696
21
1012.737003
0
LINE
8
Layer 1
10
511.029696
20
1012.737003
11
509.830170
21
1014.212850
0
LINE
8
Layer 1
10
509.830170
20
1014.212850
11
508.370460
21
1015.431260
0
LINE
8
Layer 1
10
508.370460
20
1015.431260
11
506.691082
21
1016.351716
0
LINE
8
Layer 1
10
506.691082
20
1016.351716
11
504.832553
21
1016.933701
0
LINE
8
Layer 1
10
504.832553
20
1016.933701
11
502.835390
21
1017.136700
0
LINE
8
Layer 1
10
502.836000
20
1017.140000
11
500.855702
21
1016.940338
0
LINE
8
Layer 1
10
500.855702
20
1016.940338
11
499.011188
21
1016.367708
0
LINE
8
Layer 1
10
499.011188
20
1016.367708
11
497.341987
21
1015.461639
0
LINE
8
Layer 1
10
497.341987
20
1015.461639
11
495.887632
21
1014.261663
0
LINE
8
Layer 1
10
495.887632
20
1014.261663
11
494.687654
21
1012.807310
0
LINE
8
Layer 1
10
494.687654
20
1012.807310
11
493.781584
21
1011.138111
0
LINE
8
Layer 1
10
493.781584
20
1011.138111
11
493.208952
21
1009.293597
0
LINE
8
Layer 1
10
493.208952
20
1009.293597
11
493.009290
21
1007.313300
0
LINE
8
Layer 1
10
493.009000
20
1007.310000
11
493.009000
21
1007.310000
0
LINE
8
Layer 1
10
522.142000
20
1023.680000
11
522.677877
21
1023.604549
0
LINE
8
Layer 1
10
522.677877
20
1023.604549
11
523.145889
21
1023.395145
0
LINE
8
Layer 1
10
523.145889
20
1023.395145
11
523.820305
21
1022.676162
0
LINE
8
Layer 1
10
523.820305
20
1022.676162
11
524.049221
21
1021.726423
0
LINE
8
Layer 1
10
524.049221
20
1021.726423
11
523.960358
21
1021.228574
0
LINE
8
Layer 1
10
523.960358
20
1021.228574
11
523.716610
21
1020.749300
0
LINE
8
Layer 1
10
523.717000
20
1020.750000
11
522.894357
21
1019.385662
0
LINE
8
Layer 1
10
522.894357
20
1019.385662
11
522.243690
21
1017.803300
0
LINE
8
Layer 1
10
522.244000
20
1017.810000
11
521.836662
21
1016.009025
0
LINE
8
Layer 1
10
521.836662
20
1016.009025
11
521.733300
21
1014.438000
0
LINE
8
Layer 1
10
521.733000
20
1014.440000
11
521.733000
21
1007.812000
0
LINE
8
Layer 1
10
521.733000
20
1007.810000
11
521.650850
21
1006.006499
0
LINE
8
Layer 1
10
521.650850
20
1006.006499
11
521.408861
21
1004.240094
0
LINE
8
Layer 1
10
521.408861
20
1004.240094
11
521.013724
21
1002.519945
0
LINE
8
Layer 1
10
521.013724
20
1002.519945
11
520.472130
21
1000.855213
0
LINE
8
Layer 1
10
520.472130
20
1000.855213
11
519.790770
21
999.255058
0
LINE
8
Layer 1
10
519.790770
20
999.255058
11
518.976337
21
997.728640
0
LINE
8
Layer 1
10
518.976337
20
997.728640
11
518.035521
21
996.285120
0
LINE
8
Layer 1
10
518.035521
20
996.285120
11
516.975012
21
994.933659
0
LINE
8
Layer 1
10
516.975012
20
994.933659
11
515.801504
21
993.683415
0
LINE
8
Layer 1
10
515.801504
20
993.683415
11
514.521687
21
992.543551
0
LINE
8
Layer 1
10
514.521687
20
992.543551
11
513.142251
21
991.523226
0
LINE
8
Layer 1
10
513.142251
20
991.523226
11
511.669889
21
990.631600
0
LINE
8
Layer 1
10
511.669889
20
990.631600
11
510.111292
21
989.877834
0
LINE
8
Layer 1
10
510.111292
20
989.877834
11
508.473150
21
989.271089
0
LINE
8
Layer 1
10
508.473150
20
989.271089
11
506.762156
21
988.820524
0
LINE
8
Layer 1
10
506.762156
20
988.820524
11
504.985000
21
988.535300
0
LINE
8
Layer 1
10
504.985000
20
988.533000
11
502.870205
21
988.414025
0
LINE
8
Layer 1
10
502.870205
20
988.414025
11
500.808009
21
988.521387
0
LINE
8
Layer 1
10
500.808009
20
988.521387
11
498.809979
21
988.843519
0
LINE
8
Layer 1
10
498.809979
20
988.843519
11
496.887684
21
989.368853
0
LINE
8
Layer 1
10
496.887684
20
989.368853
11
495.052693
21
990.085818
0
LINE
8
Layer 1
10
495.052693
20
990.085818
11
493.316574
21
990.982848
0
LINE
8
Layer 1
10
493.316574
20
990.982848
11
491.690895
21
992.048374
0
LINE
8
Layer 1
10
491.690895
20
992.048374
11
490.187225
21
993.270826
0
LINE
8
Layer 1
10
490.187225
20
993.270826
11
488.817132
21
994.638637
0
LINE
8
Layer 1
10
488.817132
20
994.638637
11
487.592186
21
996.140238
0
LINE
8
Layer 1
10
487.592186
20
996.140238
11
486.523953
21
997.764061
0
LINE
8
Layer 1
10
486.523953
20
997.764061
11
485.624003
21
999.498537
0
LINE
8
Layer 1
10
485.624003
20
999.498537
11
484.903904
21
1001.332097
0
LINE
8
Layer 1
10
484.903904
20
1001.332097
11
484.375225
21
1003.253173
0
LINE
8
Layer 1
10
484.375225
20
1003.253173
11
484.049534
21
1005.250197
0
LINE
8
Layer 1
10
484.049534
20
1005.250197
11
483.938400
21
1007.311600
0
LINE
8
Layer 1
10
483.938000
20
1007.310000
11
483.938000
21
1014.424700
0
LINE
8
Layer 1
10
483.938000
20
1014.430000
11
483.884995
21
1015.497495
0
LINE
8
Layer 1
10
483.884995
20
1015.497495
11
483.608988
21
1017.115987
0
LINE
8
Layer 1
10
483.608988
20
1017.115987
11
482.934486
21
1019.087486
0
LINE
8
Layer 1
10
482.934486
20
1019.087486
11
481.686000
21
1021.214000
0
LINE
8
Layer 1
10
481.686000
20
1021.210000
11
481.378831
21
1022.022064
0
LINE
8
Layer 1
10
481.378831
20
1022.022064
11
481.540600
21
1022.820638
0
LINE
8
Layer 1
10
481.540600
20
1022.820638
11
482.083069
21
1023.429217
0
LINE
8
Layer 1
10
482.083069
20
1023.429217
11
482.918000
21
1023.671300
0
LINE
8
Layer 1
10
482.918000
20
1023.670000
11
522.142000
21
1023.683000
0
LINE
8
Layer 1
10
546.611000
20
1007.310000
11
546.813999
21
1005.313211
0
LINE
8
Layer 1
10
546.813999
20
1005.313211
11
547.395985
21
1003.454872
0
LINE
8
Layer 1
10
547.395985
20
1003.454872
11
548.316441
21
1001.775562
0
LINE
8
Layer 1
10
548.316441
20
1001.775562
11
549.534851
21
1000.315859
0
LINE
8
Layer 1
10
549.534851
20
1000.315859
11
551.010700
21
999.116341
0
LINE
8
Layer 1
10
551.010700
20
999.116341
11
552.703470
21
998.217588
0
LINE
8
Layer 1
10
552.703470
20
998.217588
11
554.572645
21
997.660178
0
LINE
8
Layer 1
10
554.572645
20
997.660178
11
556.577710
21
997.484690
0
LINE
8
Layer 1
10
556.577000
20
997.485000
11
558.488550
21
997.708169
0
LINE
8
Layer 1
10
558.488550
20
997.708169
11
560.281842
21
998.295409
0
LINE
8
Layer 1
10
560.281842
20
998.295409
11
561.915879
21
999.205780
0
LINE
8
Layer 1
10
561.915879
20
999.205780
11
563.349663
21
1000.398343
0
LINE
8
Layer 1
10
563.349663
20
1000.398343
11
564.542194
21
1001.832156
0
LINE
8
Layer 1
10
564.542194
20
1001.832156
11
565.452477
21
1003.466282
0
LINE
8
Layer 1
10
565.452477
20
1003.466282
11
566.039511
21
1005.259780
0
LINE
8
Layer 1
10
566.039511
20
1005.259780
11
566.262300
21
1007.171710
0
LINE
8
Layer 1
10
566.263000
20
1007.170000
11
566.087475
21
1009.174599
0
LINE
8
Layer 1
10
566.087475
20
1009.174599
11
565.530161
21
1011.043425
0
LINE
8
Layer 1
10
565.530161
20
1011.043425
11
564.631575
21
1012.735945
0
LINE
8
Layer 1
10
564.631575
20
1012.735945
11
563.432236
21
1014.211625
0
LINE
8
Layer 1
10
563.432236
20
1014.211625
11
561.972661
21
1015.429934
0
LINE
8
Layer 1
10
561.972661
20
1015.429934
11
560.293366
21
1016.350338
0
LINE
8
Layer 1
10
560.293366
20
1016.350338
11
558.434870
21
1016.932304
0
LINE
8
Layer 1
10
558.434870
20
1016.932304
11
556.437690
21
1017.135300
0
LINE
8
Layer 1
10
556.437000
20
1017.140000
11
554.456703
21
1016.940338
0
LINE
8
Layer 1
10
554.456703
20
1016.940338
11
552.612189
21
1016.367708
0
LINE
8
Layer 1
10
552.612189
20
1016.367708
11
550.942990
21
1015.461639
0
LINE
8
Layer 1
10
550.942990
20
1015.461639
11
549.488638
21
1014.261663
0
LINE
8
Layer 1
10
549.488638
20
1014.261663
11
548.288661
21
1012.807310
0
LINE
8
Layer 1
10
548.288661
20
1012.807310
11
547.382592
21
1011.138111
0
LINE
8
Layer 1
10
547.382592
20
1011.138111
11
546.809962
21
1009.293597
0
LINE
8
Layer 1
10
546.809962
20
1009.293597
11
546.610300
21
1007.313300
0
LINE
8
Layer 1
10
546.611000
20
1007.310000
11
546.611000
21
1007.310000
0
LINE
8
Layer 1
10
575.744000
20
1023.680000
11
576.279905
21
1023.604547
0
LINE
8
Layer 1
10
576.279905
20
1023.604547
11
576.747931
21
1023.395125
0
LINE
8
Layer 1
10
576.747931
20
1023.395125
11
577.422350
21
1022.676000
0
LINE
8
Layer 1
10
577.422350
20
1022.676000
11
577.651269
21
1021.725875
0
LINE
8
Layer 1
10
577.651269
20
1021.725875
11
577.562420
21
1021.227703
0
LINE
8
Layer 1
10
577.562420
20
1021.227703
11
577.318700
21
1020.748000
0
LINE
8
Layer 1
10
577.319000
20
1020.750000
11
576.496313
21
1019.386638
0
LINE
8
Layer 1
10
576.496313
20
1019.386638
11
575.845600
21
1017.803300
0
LINE
8
Layer 1
10
575.845000
20
1017.810000
11
575.437713
21
1016.009513
0
LINE
8
Layer 1
10
575.437713
20
1016.009513
11
575.334400
21
1014.438000
0
LINE
8
Layer 1
10
575.335000
20
1014.430000
11
575.335000
21
1007.803300
0
LINE
8
Layer 1
10
575.335000
20
1007.810000
11
575.252835
21
1006.006484
0
LINE
8
Layer 1
10
575.252835
20
1006.006484
11
575.010803
21
1004.240038
0
LINE
8
Layer 1
10
575.010803
20
1004.240038
11
574.615604
21
1002.519825
0
LINE
8
Layer 1
10
574.615604
20
1002.519825
11
574.073933
21
1000.855010
0
LINE
8
Layer 1
10
574.073933
20
1000.855010
11
573.392488
21
999.254756
0
LINE
8
Layer 1
10
573.392488
20
999.254756
11
572.577968
21
997.728229
0
LINE
8
Layer 1
10
572.577968
20
997.728229
11
571.637068
21
996.284592
0
LINE
8
Layer 1
10
571.637068
20
996.284592
11
570.576487
21
994.933009
0
LINE
8
Layer 1
10
570.576487
20
994.933009
11
569.402923
21
993.682644
0
LINE
8
Layer 1
10
569.402923
20
993.682644
11
568.123071
21
992.542662
0
LINE
8
Layer 1
10
568.123071
20
992.542662
11
566.743631
21
991.522227
0
LINE
8
Layer 1
10
566.743631
20
991.522227
11
565.271298
21
990.630503
0
LINE
8
Layer 1
10
565.271298
20
990.630503
11
563.712772
21
989.876654
0
LINE
8
Layer 1
10
563.712772
20
989.876654
11
562.074748
21
989.269845
0
LINE
8
Layer 1
10
562.074748
20
989.269845
11
560.363925
21
988.819239
0
LINE
8
Layer 1
10
560.363925
20
988.819239
11
558.587000
21
988.534000
0
LINE
8
Layer 1
10
558.587000
20
988.532000
11
556.472188
21
988.413026
0
LINE
8
Layer 1
10
556.472188
20
988.413026
11
554.409976
21
988.520391
0
LINE
8
Layer 1
10
554.409976
20
988.520391
11
552.411933
21
988.842525
0
LINE
8
Layer 1
10
552.411933
20
988.842525
11
550.489627
21
989.367860
0
LINE
8
Layer 1
10
550.489627
20
989.367860
11
548.654626
21
990.084828
0
LINE
8
Layer 1
10
548.654626
20
990.084828
11
546.918498
21
990.981861
0
LINE
8
Layer 1
10
546.918498
20
990.981861
11
545.292813
21
992.047390
0
LINE
8
Layer 1
10
545.292813
20
992.047390
11
543.789137
21
993.269846
0
LINE
8
Layer 1
10
543.789137
20
993.269846
11
542.419041
21
994.637662
0
LINE
8
Layer 1
10
542.419041
20
994.637662
11
541.194091
21
996.139270
0
LINE
8
Layer 1
10
541.194091
20
996.139270
11
540.125856
21
997.763100
0
LINE
8
Layer 1
10
540.125856
20
997.763100
11
539.225905
21
999.497585
0
LINE
8
Layer 1
10
539.225905
20
999.497585
11
538.505805
21
1001.331155
0
LINE
8
Layer 1
10
538.505805
20
1001.331155
11
537.977126
21
1003.252244
0
LINE
8
Layer 1
10
537.977126
20
1003.252244
11
537.651434
21
1005.249281
0
LINE
8
Layer 1
10
537.651434
20
1005.249281
11
537.540300
21
1007.310700
0
LINE
8
Layer 1
10
537.540000
20
1007.310000
11
537.540000
21
1014.424700
0
LINE
8
Layer 1
10
537.540000
20
1014.420000
11
537.486573
21
1015.487678
0
LINE
8
Layer 1
10
537.486573
20
1015.487678
11
537.210612
21
1017.106475
0
LINE
8
Layer 1
10
537.210612
20
1017.106475
11
536.536345
21
1019.078034
0
LINE
8
Layer 1
10
536.536345
20
1019.078034
11
535.288000
21
1021.204000
0
LINE
8
Layer 1
10
535.288000
20
1021.210000
11
534.980873
21
1022.022633
0
LINE
8
Layer 1
10
534.980873
20
1022.022633
11
535.142638
21
1022.821288
0
LINE
8
Layer 1
10
535.142638
20
1022.821288
11
535.685083
21
1023.429948
0
LINE
8
Layer 1
10
535.685083
20
1023.429948
11
536.520000
21
1023.672600
0
LINE
8
Layer 1
10
536.520000
20
1023.670000
11
575.744000
21
1023.683000
0
LINE
8
Layer 1
10
600.212000
20
1007.310000
11
600.414999
21
1005.313210
0
LINE
8
Layer 1
10
600.414999
20
1005.313210
11
600.996984
21
1003.454868
0
LINE
8
Layer 1
10
600.996984
20
1003.454868
11
601.917440
21
1001.775552
0
LINE
8
Layer 1
10
601.917440
20
1001.775552
11
603.135850
21
1000.315844
0
LINE
8
Layer 1
10
603.135850
20
1000.315844
11
604.611697
21
999.116321
0
LINE
8
Layer 1
10
604.611697
20
999.116321
11
606.304466
21
998.217563
0
LINE
8
Layer 1
10
606.304466
20
998.217563
11
608.173639
21
997.660150
0
LINE
8
Layer 1
10
608.173639
20
997.660150
11
610.178700
21
997.484660
0
LINE
8
Layer 1
10
610.179000
20
997.485000
11
612.090553
21
997.708166
0
LINE
8
Layer 1
10
612.090553
20
997.708166
11
613.883848
21
998.295398
0
LINE
8
Layer 1
10
613.883848
20
998.295398
11
615.517887
21
999.205758
0
LINE
8
Layer 1
10
615.517887
20
999.205758
11
616.951671
21
1000.398307
0
LINE
8
Layer 1
10
616.951671
20
1000.398307
11
618.144204
21
1001.832108
0
LINE
8
Layer 1
10
618.144204
20
1001.832108
11
619.054486
21
1003.466223
0
LINE
8
Layer 1
10
619.054486
20
1003.466223
11
619.641521
21
1005.259713
0
LINE
8
Layer 1
10
619.641521
20
1005.259713
11
619.864310
21
1007.171640
0
LINE
8
Layer 1
10
619.864000
20
1007.170000
11
619.688475
21
1009.174632
0
LINE
8
Layer 1
10
619.688475
20
1009.174632
11
619.131161
21
1011.043483
0
LINE
8
Layer 1
10
619.131161
20
1011.043483
11
618.232575
21
1012.736020
0
LINE
8
Layer 1
10
618.232575
20
1012.736020
11
617.033236
21
1014.211712
0
LINE
8
Layer 1
10
617.033236
20
1014.211712
11
615.573661
21
1015.430028
0
LINE
8
Layer 1
10
615.573661
20
1015.430028
11
613.894366
21
1016.350436
0
LINE
8
Layer 1
10
613.894366
20
1016.350436
11
612.035870
21
1016.932404
0
LINE
8
Layer 1
10
612.035870
20
1016.932404
11
610.038690
21
1017.135400
0
LINE
8
Layer 1
10
610.039000
20
1017.140000
11
608.058703
21
1016.940338
0
LINE
8
Layer 1
10
608.058703
20
1016.940338
11
606.214189
21
1016.367708
0
LINE
8
Layer 1
10
606.214189
20
1016.367708
11
604.544990
21
1015.461639
0
LINE
8
Layer 1
10
604.544990
20
1015.461639
11
603.090637
21
1014.261663
0
LINE
8
Layer 1
10
603.090637
20
1014.261663
11
601.890661
21
1012.807310
0
LINE
8
Layer 1
10
601.890661
20
1012.807310
11
600.984592
21
1011.138111
0
LINE
8
Layer 1
10
600.984592
20
1011.138111
11
600.411962
21
1009.293597
0
LINE
8
Layer 1
10
600.411962
20
1009.293597
11
600.212300
21
1007.313300
0
LINE
8
Layer 1
10
600.212000
20
1007.310000
11
600.212000
21
1007.310000
0
LINE
8
Layer 1
10
629.346000
20
1023.680000
11
629.881905
21
1023.604547
0
LINE
8
Layer 1
10
629.881905
20
1023.604547
11
630.349931
21
1023.395125
0
LINE
8
Layer 1
10
630.349931
20
1023.395125
11
631.024350
21
1022.676000
0
LINE
8
Layer 1
10
631.024350
20
1022.676000
11
631.253269
21
1021.725875
0
LINE
8
Layer 1
10
631.253269
20
1021.725875
11
631.164420
21
1021.227703
0
LINE
8
Layer 1
10
631.164420
20
1021.227703
11
630.920700
21
1020.748000
0
LINE
8
Layer 1
10
630.921000
20
1020.750000
11
630.098309
21
1019.386638
0
LINE
8
Layer 1
10
630.098309
20
1019.386638
11
629.447600
21
1017.803300
0
LINE
8
Layer 1
10
629.447000
20
1017.810000
11
629.039709
21
1016.009513
0
LINE
8
Layer 1
10
629.039709
20
1016.009513
11
628.936400
21
1014.438000
0
LINE
8
Layer 1
10
628.937000
20
1014.430000
11
628.937000
21
1007.803300
0
LINE
8
Layer 1
10
628.937000
20
1007.810000
11
628.854834
21
1006.006484
0
LINE
8
Layer 1
10
628.854834
20
1006.006484
11
628.612803
21
1004.240038
0
LINE
8
Layer 1
10
628.612803
20
1004.240038
11
628.217603
21
1002.519825
0
LINE
8
Layer 1
10
628.217603
20
1002.519825
11
627.675931
21
1000.855010
0
LINE
8
Layer 1
10
627.675931
20
1000.855010
11
626.994486
21
999.254756
0
LINE
8
Layer 1
10
626.994486
20
999.254756
11
626.179965
21
997.728229
0
LINE
8
Layer 1
10
626.179965
20
997.728229
11
625.239065
21
996.284592
0
LINE
8
Layer 1
10
625.239065
20
996.284592
11
624.178484
21
994.933009
0
LINE
8
Layer 1
10
624.178484
20
994.933009
11
623.004919
21
993.682644
0
LINE
8
Layer 1
10
623.004919
20
993.682644
11
621.725067
21
992.542662
0
LINE
8
Layer 1
10
621.725067
20
992.542662
11
620.345626
21
991.522227
0
LINE
8
Layer 1
10
620.345626
20
991.522227
11
618.873294
21
990.630503
0
LINE
8
Layer 1
10
618.873294
20
990.630503
11
617.314768
21
989.876654
0
LINE
8
Layer 1
10
617.314768
20
989.876654
11
615.676745
21
989.269845
0
LINE
8
Layer 1
10
615.676745
20
989.269845
11
613.965924
21
988.819239
0
LINE
8
Layer 1
10
613.965924
20
988.819239
11
612.189000
21
988.534000
0
LINE
8
Layer 1
10
612.189000
20
988.532000
11
610.074188
21
988.413025
0
LINE
8
Layer 1
10
610.074188
20
988.413025
11
608.011976
21
988.520387
0
LINE
8
Layer 1
10
608.011976
20
988.520387
11
606.013933
21
988.842520
0
LINE
8
Layer 1
10
606.013933
20
988.842520
11
604.091627
21
989.367854
0
LINE
8
Layer 1
10
604.091627
20
989.367854
11
602.256626
21
990.084822
0
LINE
8
Layer 1
10
602.256626
20
990.084822
11
600.520498
21
990.981854
0
LINE
8
Layer 1
10
600.520498
20
990.981854
11
598.894813
21
992.047382
0
LINE
8
Layer 1
10
598.894813
20
992.047382
11
597.391138
21
993.269839
0
LINE
8
Layer 1
10
597.391138
20
993.269839
11
596.021041
21
994.637655
0
LINE
8
Layer 1
10
596.021041
20
994.637655
11
594.796091
21
996.139263
0
LINE
8
Layer 1
10
594.796091
20
996.139263
11
593.727856
21
997.763094
0
LINE
8
Layer 1
10
593.727856
20
997.763094
11
592.827905
21
999.497579
0
LINE
8
Layer 1
10
592.827905
20
999.497579
11
592.107805
21
1001.331151
0
LINE
8
Layer 1
10
592.107805
20
1001.331151
11
591.579126
21
1003.252240
0
LINE
8
Layer 1
10
591.579126
20
1003.252240
11
591.253434
21
1005.249280
0
LINE
8
Layer 1
10
591.253434
20
1005.249280
11
591.142300
21
1007.310700
0
LINE
8
Layer 1
10
591.142000
20
1007.310000
11
591.142000
21
1014.424700
0
LINE
8
Layer 1
10
591.142000
20
1014.420000
11
591.088573
21
1015.487678
0
LINE
8
Layer 1
10
591.088573
20
1015.487678
11
590.812613
21
1017.106475
0
LINE
8
Layer 1
10
590.812613
20
1017.106475
11
590.138345
21
1019.078034
0
LINE
8
Layer 1
10
590.138345
20
1019.078034
11
588.890000
21
1021.204000
0
LINE
8
Layer 1
10
588.890000
20
1021.210000
11
588.582873
21
1022.022633
0
LINE
8
Layer 1
10
588.582873
20
1022.022633
11
588.744637
21
1022.821288
0
LINE
8
Layer 1
10
588.744637
20
1022.821288
11
589.287083
21
1023.429948
0
LINE
8
Layer 1
10
589.287083
20
1023.429948
11
590.122000
21
1023.672600
0
LINE
8
Layer 1
10
590.122000
20
1023.670000
11
629.346000
21
1023.683000
0
LINE
8
Layer 1
10
225.000000
20
1007.310000
11
225.203052
21
1005.313211
0
LINE
8
Layer 1
10
225.203052
20
1005.313211
11
225.785167
21
1003.454872
0
LINE
8
Layer 1
10
225.785167
20
1003.454872
11
226.705782
21
1001.775562
0
LINE
8
Layer 1
10
226.705782
20
1001.775562
11
227.924335
21
1000.315859
0
LINE
8
Layer 1
10
227.924335
20
1000.315859
11
229.400264
21
999.116341
0
LINE
8
Layer 1
10
229.400264
20
999.116341
11
231.093006
21
998.217588
0
LINE
8
Layer 1
10
231.093006
20
998.217588
11
232.961999
21
997.660178
0
LINE
8
Layer 1
10
232.961999
20
997.660178
11
234.966680
21
997.484690
0
LINE
8
Layer 1
10
234.967000
20
997.486000
11
236.878531
21
997.708736
0
LINE
8
Layer 1
10
236.878531
20
997.708736
11
238.671833
21
998.295642
0
LINE
8
Layer 1
10
238.671833
20
998.295642
11
240.305922
21
999.205766
0
LINE
8
Layer 1
10
240.305922
20
999.205766
11
241.739810
21
1000.398155
0
LINE
8
Layer 1
10
241.739810
20
1000.398155
11
242.932511
21
1001.831856
0
LINE
8
Layer 1
10
242.932511
20
1001.831856
11
243.843039
21
1003.465918
0
LINE
8
Layer 1
10
243.843039
20
1003.465918
11
244.430407
21
1005.259387
0
LINE
8
Layer 1
10
244.430407
20
1005.259387
11
244.653630
21
1007.171310
0
LINE
8
Layer 1
10
244.653000
20
1007.170000
11
244.477127
21
1009.175061
0
LINE
8
Layer 1
10
244.477127
20
1009.175061
11
243.919520
21
1011.044234
0
LINE
8
Layer 1
10
243.919520
20
1011.044234
11
243.020695
21
1012.737003
0
LINE
8
Layer 1
10
243.020695
20
1012.737003
11
241.821168
21
1014.212850
0
LINE
8
Layer 1
10
241.821168
20
1014.212850
11
240.361455
21
1015.431260
0
LINE
8
Layer 1
10
240.361455
20
1015.431260
11
238.682074
21
1016.351716
0
LINE
8
Layer 1
10
238.682074
20
1016.351716
11
236.823540
21
1016.933701
0
LINE
8
Layer 1
10
236.823540
20
1016.933701
11
234.826370
21
1017.136700
0
LINE
8
Layer 1
10
234.827000
20
1017.140000
11
232.846712
21
1016.940338
0
LINE
8
Layer 1
10
232.846712
20
1016.940338
11
231.002205
21
1016.367708
0
LINE
8
Layer 1
10
231.002205
20
1016.367708
11
229.333010
21
1015.461639
0
LINE
8
Layer 1
10
229.333010
20
1015.461639
11
227.878659
21
1014.261663
0
LINE
8
Layer 1
10
227.878659
20
1014.261663
11
226.678683
21
1012.807310
0
LINE
8
Layer 1
10
226.678683
20
1012.807310
11
225.772613
21
1011.138111
0
LINE
8
Layer 1
10
225.772613
20
1011.138111
11
225.199982
21
1009.293597
0
LINE
8
Layer 1
10
225.199982
20
1009.293597
11
225.000320
21
1007.313300
0
LINE
8
Layer 1
10
225.000000
20
1007.310000
11
225.000000
21
1007.310000
0
LINE
8
Layer 1
10
254.134000
20
1023.680000
11
254.669877
21
1023.604549
0
LINE
8
Layer 1
10
254.669877
20
1023.604549
11
255.137889
21
1023.395145
0
LINE
8
Layer 1
10
255.137889
20
1023.395145
11
255.812304
21
1022.676162
0
LINE
8
Layer 1
10
255.812304
20
1022.676162
11
256.041217
21
1021.726423
0
LINE
8
Layer 1
10
256.041217
20
1021.726423
11
255.952351
21
1021.228574
0
LINE
8
Layer 1
10
255.952351
20
1021.228574
11
255.708600
21
1020.749300
0
LINE
8
Layer 1
10
255.708000
20
1020.750000
11
254.885362
21
1019.385662
0
LINE
8
Layer 1
10
254.885362
20
1019.385662
11
254.234700
21
1017.803300
0
LINE
8
Layer 1
10
254.235000
20
1017.810000
11
253.827663
21
1016.009025
0
LINE
8
Layer 1
10
253.827663
20
1016.009025
11
253.724300
21
1014.438000
0
LINE
8
Layer 1
10
253.724000
20
1014.440000
11
253.724000
21
1007.812000
0
LINE
8
Layer 1
10
253.724000
20
1007.810000
11
253.641850
21
1006.006499
0
LINE
8
Layer 1
10
253.641850
20
1006.006499
11
253.399861
21
1004.240094
0
LINE
8
Layer 1
10
253.399861
20
1004.240094
11
253.004724
21
1002.519945
0
LINE
8
Layer 1
10
253.004724
20
1002.519945
11
252.463130
21
1000.855213
0
LINE
8
Layer 1
10
252.463130
20
1000.855213
11
251.781770
21
999.255058
0
LINE
8
Layer 1
10
251.781770
20
999.255058
11
250.967337
21
997.728640
0
LINE
8
Layer 1
10
250.967337
20
997.728640
11
250.026521
21
996.285120
0
LINE
8
Layer 1
10
250.026521
20
996.285120
11
248.966013
21
994.933659
0
LINE
8
Layer 1
10
248.966013
20
994.933659
11
247.792504
21
993.683415
0
LINE
8
Layer 1
10
247.792504
20
993.683415
11
246.512687
21
992.543551
0
LINE
8
Layer 1
10
246.512687
20
992.543551
11
245.133251
21
991.523226
0
LINE
8
Layer 1
10
245.133251
20
991.523226
11
243.660889
21
990.631600
0
LINE
8
Layer 1
10
243.660889
20
990.631600
11
242.102292
21
989.877834
0
LINE
8
Layer 1
10
242.102292
20
989.877834
11
240.464150
21
989.271089
0
LINE
8
Layer 1
10
240.464150
20
989.271089
11
238.753156
21
988.820524
0
LINE
8
Layer 1
10
238.753156
20
988.820524
11
236.976000
21
988.535300
0
LINE
8
Layer 1
10
236.976000
20
988.533000
11
234.861188
21
988.414010
0
LINE
8
Layer 1
10
234.861188
20
988.414010
11
232.798976
21
988.521333
0
LINE
8
Layer 1
10
232.798976
20
988.521333
11
230.800933
21
988.843405
0
LINE
8
Layer 1
10
230.800933
20
988.843405
11
228.878627
21
989.368666
0
LINE
8
Layer 1
10
228.878627
20
989.368666
11
227.043626
21
990.085551
0
LINE
8
Layer 1
10
227.043626
20
990.085551
11
225.307498
21
990.982498
0
LINE
8
Layer 1
10
225.307498
20
990.982498
11
223.681813
21
992.047944
0
LINE
8
Layer 1
10
223.681813
20
992.047944
11
222.178138
21
993.270328
0
LINE
8
Layer 1
10
222.178138
20
993.270328
11
220.808041
21
994.638085
0
LINE
8
Layer 1
10
220.808041
20
994.638085
11
219.583091
21
996.139654
0
LINE
8
Layer 1
10
219.583091
20
996.139654
11
218.514856
21
997.763472
0
LINE
8
Layer 1
10
218.514856
20
997.763472
11
217.614905
21
999.497976
0
LINE
8
Layer 1
10
217.614905
20
999.497976
11
216.894805
21
1001.331603
0
LINE
8
Layer 1
10
216.894805
20
1001.331603
11
216.366126
21
1003.252791
0
LINE
8
Layer 1
10
216.366126
20
1003.252791
11
216.040434
21
1005.249978
0
LINE
8
Layer 1
10
216.040434
20
1005.249978
11
215.929300
21
1007.311600
0
LINE
8
Layer 1
10
215.930000
20
1007.310000
11
215.930000
21
1014.424700
0
LINE
8
Layer 1
10
215.930000
20
1014.430000
11
215.877000
21
1015.497495
0
LINE
8
Layer 1
10
215.877000
20
1015.497495
11
215.600999
21
1017.115987
0
LINE
8
Layer 1
10
215.600999
20
1017.115987
11
214.926499
21
1019.087486
0
LINE
8
Layer 1
10
214.926499
20
1019.087486
11
213.678000
21
1021.214000
0
LINE
8
Layer 1
10
213.678000
20
1021.210000
11
213.370814
21
1022.022064
0
LINE
8
Layer 1
10
213.370814
20
1022.022064
11
213.532509
21
1022.820638
0
LINE
8
Layer 1
10
213.532509
20
1022.820638
11
214.074946
21
1023.429217
0
LINE
8
Layer 1
10
214.074946
20
1023.429217
11
214.909990
21
1023.671300
0
LINE
8
Layer 1
10
214.910000
20
1023.670000
11
254.134000
21
1023.683000
0
LINE
8
Layer 1
10
278.602000
20
1007.310000
11
278.805052
21
1005.313211
0
LINE
8
Layer 1
10
278.805052
20
1005.313211
11
279.387167
21
1003.454872
0
LINE
8
Layer 1
10
279.387167
20
1003.454872
11
280.307782
21
1001.775562
0
LINE
8
Layer 1
10
280.307782
20
1001.775562
11
281.526335
21
1000.315859
0
LINE
8
Layer 1
10
281.526335
20
1000.315859
11
283.002264
21
999.116341
0
LINE
8
Layer 1
10
283.002264
20
999.116341
11
284.695006
21
998.217588
0
LINE
8
Layer 1
10
284.695006
20
998.217588
11
286.563999
21
997.660178
0
LINE
8
Layer 1
10
286.563999
20
997.660178
11
288.568680
21
997.484690
0
LINE
8
Layer 1
10
288.569000
20
997.486000
11
290.480530
21
997.708736
0
LINE
8
Layer 1
10
290.480530
20
997.708736
11
292.273832
21
998.295642
0
LINE
8
Layer 1
10
292.273832
20
998.295642
11
293.907919
21
999.205766
0
LINE
8
Layer 1
10
293.907919
20
999.205766
11
295.341805
21
1000.398155
0
LINE
8
Layer 1
10
295.341805
20
1000.398155
11
296.534504
21
1001.831856
0
LINE
8
Layer 1
10
296.534504
20
1001.831856
11
297.445031
21
1003.465918
0
LINE
8
Layer 1
10
297.445031
20
1003.465918
11
298.032398
21
1005.259387
0
LINE
8
Layer 1
10
298.032398
20
1005.259387
11
298.255620
21
1007.171310
0
LINE
8
Layer 1
10
298.255000
20
1007.170000
11
298.079128
21
1009.175061
0
LINE
8
Layer 1
10
298.079128
20
1009.175061
11
297.521521
21
1011.044234
0
LINE
8
Layer 1
10
297.521521
20
1011.044234
11
296.622697
21
1012.737003
0
LINE
8
Layer 1
10
296.622697
20
1012.737003
11
295.423171
21
1014.212850
0
LINE
8
Layer 1
10
295.423171
20
1014.212850
11
293.963459
21
1015.431260
0
LINE
8
Layer 1
10
293.963459
20
1015.431260
11
292.284078
21
1016.351716
0
LINE
8
Layer 1
10
292.284078
20
1016.351716
11
290.425543
21
1016.933701
0
LINE
8
Layer 1
10
290.425543
20
1016.933701
11
288.428370
21
1017.136700
0
LINE
8
Layer 1
10
288.429000
20
1017.140000
11
286.448712
21
1016.940338
0
LINE
8
Layer 1
10
286.448712
20
1016.940338
11
284.604206
21
1016.367708
0
LINE
8
Layer 1
10
284.604206
20
1016.367708
11
282.935013
21
1015.461639
0
LINE
8
Layer 1
10
282.935013
20
1015.461639
11
281.480664
21
1014.261663
0
LINE
8
Layer 1
10
281.480664
20
1014.261663
11
280.280690
21
1012.807310
0
LINE
8
Layer 1
10
280.280690
20
1012.807310
11
279.374622
21
1011.138111
0
LINE
8
Layer 1
10
279.374622
20
1011.138111
11
278.801991
21
1009.293597
0
LINE
8
Layer 1
10
278.801991
20
1009.293597
11
278.602330
21
1007.313300
0
LINE
8
Layer 1
10
278.602000
20
1007.310000
11
278.602000
21
1007.310000
0
LINE
8
Layer 1
10
307.735000
20
1023.680000
11
308.270877
21
1023.604549
0
LINE
8
Layer 1
10
308.270877
20
1023.604549
11
308.738887
21
1023.395145
0
LINE
8
Layer 1
10
308.738887
20
1023.395145
11
309.413300
21
1022.676162
0
LINE
8
Layer 1
10
309.413300
20
1022.676162
11
309.642213
21
1021.726423
0
LINE
8
Layer 1
10
309.642213
20
1021.726423
11
309.553348
21
1021.228574
0
LINE
8
Layer 1
10
309.553348
20
1021.228574
11
309.309600
21
1020.749300
0
LINE
8
Layer 1
10
309.310000
20
1020.750000
11
308.487363
21
1019.385662
0
LINE
8
Layer 1
10
308.487363
20
1019.385662
11
307.836700
21
1017.803300
0
LINE
8
Layer 1
10
307.837000
20
1017.810000
11
307.429663
21
1016.009025
0
LINE
8
Layer 1
10
307.429663
20
1016.009025
11
307.326300
21
1014.438000
0
LINE
8
Layer 1
10
307.326000
20
1014.440000
11
307.326000
21
1007.812000
0
LINE
8
Layer 1
10
307.326000
20
1007.810000
11
307.243850
21
1006.006499
0
LINE
8
Layer 1
10
307.243850
20
1006.006499
11
307.001860
21
1004.240094
0
LINE
8
Layer 1
10
307.001860
20
1004.240094
11
306.606723
21
1002.519945
0
LINE
8
Layer 1
10
306.606723
20
1002.519945
11
306.065128
21
1000.855213
0
LINE
8
Layer 1
10
306.065128
20
1000.855213
11
305.383768
21
999.255058
0
LINE
8
Layer 1
10
305.383768
20
999.255058
11
304.569334
21
997.728640
0
LINE
8
Layer 1
10
304.569334
20
997.728640
11
303.628517
21
996.285120
0
LINE
8
Layer 1
10
303.628517
20
996.285120
11
302.568009
21
994.933659
0
LINE
8
Layer 1
10
302.568009
20
994.933659
11
301.394500
21
993.683415
0
LINE
8
Layer 1
10
301.394500
20
993.683415
11
300.114682
21
992.543551
0
LINE
8
Layer 1
10
300.114682
20
992.543551
11
298.735247
21
991.523226
0
LINE
8
Layer 1
10
298.735247
20
991.523226
11
297.262885
21
990.631600
0
LINE
8
Layer 1
10
297.262885
20
990.631600
11
295.704288
21
989.877834
0
LINE
8
Layer 1
10
295.704288
20
989.877834
11
294.066147
21
989.271089
0
LINE
8
Layer 1
10
294.066147
20
989.271089
11
292.355154
21
988.820524
0
LINE
8
Layer 1
10
292.355154
20
988.820524
11
290.578000
21
988.535300
0
LINE
8
Layer 1
10
290.578000
20
988.533000
11
288.463188
21
988.414010
0
LINE
8
Layer 1
10
288.463188
20
988.414010
11
286.400976
21
988.521333
0
LINE
8
Layer 1
10
286.400976
20
988.521333
11
284.402933
21
988.843405
0
LINE
8
Layer 1
10
284.402933
20
988.843405
11
282.480627
21
989.368666
0
LINE
8
Layer 1
10
282.480627
20
989.368666
11
280.645626
21
990.085551
0
LINE
8
Layer 1
10
280.645626
20
990.085551
11
278.909498
21
990.982498
0
LINE
8
Layer 1
10
278.909498
20
990.982498
11
277.283813
21
992.047944
0
LINE
8
Layer 1
10
277.283813
20
992.047944
11
275.780137
21
993.270328
0
LINE
8
Layer 1
10
275.780137
20
993.270328
11
274.410041
21
994.638085
0
LINE
8
Layer 1
10
274.410041
20
994.638085
11
273.185091
21
996.139654
0
LINE
8
Layer 1
10
273.185091
20
996.139654
11
272.116856
21
997.763472
0
LINE
8
Layer 1
10
272.116856
20
997.763472
11
271.216905
21
999.497976
0
LINE
8
Layer 1
10
271.216905
20
999.497976
11
270.496805
21
1001.331603
0
LINE
8
Layer 1
10
270.496805
20
1001.331603
11
269.968126
21
1003.252791
0
LINE
8
Layer 1
10
269.968126
20
1003.252791
11
269.642434
21
1005.249978
0
LINE
8
Layer 1
10
269.642434
20
1005.249978
11
269.531300
21
1007.311600
0
LINE
8
Layer 1
10
269.531000
20
1007.310000
11
269.531000
21
1014.424700
0
LINE
8
Layer 1
10
269.531000
20
1014.430000
11
269.478000
21
1015.497495
0
LINE
8
Layer 1
10
269.478000
20
1015.497495
11
269.201999
21
1017.115987
0
LINE
8
Layer 1
10
269.201999
20
1017.115987
11
268.527499
21
1019.087486
0
LINE
8
Layer 1
10
268.527499
20
1019.087486
11
267.279000
21
1021.214000
0
LINE
8
Layer 1
10
267.279000
20
1021.210000
11
266.971819
21
1022.022064
0
LINE
8
Layer 1
10
266.971819
20
1022.022064
11
267.133514
21
1022.820638
0
LINE
8
Layer 1
10
267.133514
20
1022.820638
11
267.675952
21
1023.429217
0
LINE
8
Layer 1
10
267.675952
20
1023.429217
11
268.511000
21
1023.671300
0
LINE
8
Layer 1
10
268.511000
20
1023.670000
11
307.735000
21
1023.683000
0
LINE
8
Layer 1
10
332.204000
20
1007.310000
11
332.407053
21
1005.313211
0
LINE
8
Layer 1
10
332.407053
20
1005.313211
11
332.989168
21
1003.454872
0
LINE
8
Layer 1
10
332.989168
20
1003.454872
11
333.909785
21
1001.775562
0
LINE
8
Layer 1
10
333.909785
20
1001.775562
11
335.128339
21
1000.315859
0
LINE
8
Layer 1
10
335.128339
20
1000.315859
11
336.604268
21
999.116341
0
LINE
8
Layer 1
10
336.604268
20
999.116341
11
338.297010
21
998.217588
0
LINE
8
Layer 1
10
338.297010
20
998.217588
11
340.166001
21
997.660178
0
LINE
8
Layer 1
10
340.166001
20
997.660178
11
342.170680
21
997.484690
0
LINE
8
Layer 1
10
342.170000
20
997.486000
11
344.081534
21
997.708736
0
LINE
8
Layer 1
10
344.081534
20
997.708736
11
345.874838
21
998.295642
0
LINE
8
Layer 1
10
345.874838
20
998.295642
11
347.508926
21
999.205766
0
LINE
8
Layer 1
10
347.508926
20
999.205766
11
348.942814
21
1000.398155
0
LINE
8
Layer 1
10
348.942814
20
1000.398155
11
350.135514
21
1001.831856
0
LINE
8
Layer 1
10
350.135514
20
1001.831856
11
351.046040
21
1003.465918
0
LINE
8
Layer 1
10
351.046040
20
1003.465918
11
351.633408
21
1005.259387
0
LINE
8
Layer 1
10
351.633408
20
1005.259387
11
351.856630
21
1007.171310
0
LINE
8
Layer 1
10
351.857000
20
1007.170000
11
351.681127
21
1009.175061
0
LINE
8
Layer 1
10
351.681127
20
1009.175061
11
351.123520
21
1011.044234
0
LINE
8
Layer 1
10
351.123520
20
1011.044234
11
350.224695
21
1012.737003
0
LINE
8
Layer 1
10
350.224695
20
1012.737003
11
349.025168
21
1014.212850
0
LINE
8
Layer 1
10
349.025168
20
1014.212850
11
347.565455
21
1015.431260
0
LINE
8
Layer 1
10
347.565455
20
1015.431260
11
345.886074
21
1016.351716
0
LINE
8
Layer 1
10
345.886074
20
1016.351716
11
344.027540
21
1016.933701
0
LINE
8
Layer 1
10
344.027540
20
1016.933701
11
342.030370
21
1017.136700
0
LINE
8
Layer 1
10
342.030000
20
1017.140000
11
340.049712
21
1016.940338
0
LINE
8
Layer 1
10
340.049712
20
1016.940338
11
338.205205
21
1016.367708
0
LINE
8
Layer 1
10
338.205205
20
1016.367708
11
336.536010
21
1015.461639
0
LINE
8
Layer 1
10
336.536010
20
1015.461639
11
335.081659
21
1014.261663
0
LINE
8
Layer 1
10
335.081659
20
1014.261663
11
333.881683
21
1012.807310
0
LINE
8
Layer 1
10
333.881683
20
1012.807310
11
332.975613
21
1011.138111
0
LINE
8
Layer 1
10
332.975613
20
1011.138111
11
332.402982
21
1009.293597
0
LINE
8
Layer 1
10
332.402982
20
1009.293597
11
332.203320
21
1007.313300
0
LINE
8
Layer 1
10
332.204000
20
1007.310000
11
332.204000
21
1007.310000
0
LINE
8
Layer 1
10
361.337000
20
1023.680000
11
361.872880
21
1023.604549
0
LINE
8
Layer 1
10
361.872880
20
1023.604549
11
362.340893
21
1023.395145
0
LINE
8
Layer 1
10
362.340893
20
1023.395145
11
363.015309
21
1022.676162
0
LINE
8
Layer 1
10
363.015309
20
1022.676162
11
363.244222
21
1021.726423
0
LINE
8
Layer 1
10
363.244222
20
1021.726423
11
363.155358
21
1021.228574
0
LINE
8
Layer 1
10
363.155358
20
1021.228574
11
362.911610
21
1020.749300
0
LINE
8
Layer 1
10
362.912000
20
1020.750000
11
362.089362
21
1019.385662
0
LINE
8
Layer 1
10
362.089362
20
1019.385662
11
361.438700
21
1017.803300
0
LINE
8
Layer 1
10
361.438000
20
1017.810000
11
361.030657
21
1016.009025
0
LINE
8
Layer 1
10
361.030657
20
1016.009025
11
360.927290
21
1014.438000
0
LINE
8
Layer 1
10
360.928000
20
1014.440000
11
360.928000
21
1007.812000
0
LINE
8
Layer 1
10
360.928000
20
1007.810000
11
360.845850
21
1006.006499
0
LINE
8
Layer 1
10
360.845850
20
1006.006499
11
360.603861
21
1004.240094
0
LINE
8
Layer 1
10
360.603861
20
1004.240094
11
360.208724
21
1002.519945
0
LINE
8
Layer 1
10
360.208724
20
1002.519945
11
359.667130
21
1000.855213
0
LINE
8
Layer 1
10
359.667130
20
1000.855213
11
358.985770
21
999.255058
0
LINE
8
Layer 1
10
358.985770
20
999.255058
11
358.171337
21
997.728640
0
LINE
8
Layer 1
10
358.171337
20
997.728640
11
357.230521
21
996.285120
0
LINE
8
Layer 1
10
357.230521
20
996.285120
11
356.170012
21
994.933659
0
LINE
8
Layer 1
10
356.170012
20
994.933659
11
354.996504
21
993.683415
0
LINE
8
Layer 1
10
354.996504
20
993.683415
11
353.716687
21
992.543551
0
LINE
8
Layer 1
10
353.716687
20
992.543551
11
352.337251
21
991.523226
0
LINE
8
Layer 1
10
352.337251
20
991.523226
11
350.864889
21
990.631600
0
LINE
8
Layer 1
10
350.864889
20
990.631600
11
349.306292
21
989.877834
0
LINE
8
Layer 1
10
349.306292
20
989.877834
11
347.668150
21
989.271089
0
LINE
8
Layer 1
10
347.668150
20
989.271089
11
345.957156
21
988.820524
0
LINE
8
Layer 1
10
345.957156
20
988.820524
11
344.180000
21
988.535300
0
LINE
8
Layer 1
10
344.180000
20
988.533000
11
342.065188
21
988.414010
0
LINE
8
Layer 1
10
342.065188
20
988.414010
11
340.002976
21
988.521333
0
LINE
8
Layer 1
10
340.002976
20
988.521333
11
338.004933
21
988.843405
0
LINE
8
Layer 1
10
338.004933
20
988.843405
11
336.082627
21
989.368666
0
LINE
8
Layer 1
10
336.082627
20
989.368666
11
334.247626
21
990.085551
0
LINE
8
Layer 1
10
334.247626
20
990.085551
11
332.511498
21
990.982498
0
LINE
8
Layer 1
10
332.511498
20
990.982498
11
330.885813
21
992.047944
0
LINE
8
Layer 1
10
330.885813
20
992.047944
11
329.382137
21
993.270328
0
LINE
8
Layer 1
10
329.382137
20
993.270328
11
328.012041
21
994.638085
0
LINE
8
Layer 1
10
328.012041
20
994.638085
11
326.787091
21
996.139654
0
LINE
8
Layer 1
10
326.787091
20
996.139654
11
325.718856
21
997.763472
0
LINE
8
Layer 1
10
325.718856
20
997.763472
11
324.818905
21
999.497976
0
LINE
8
Layer 1
10
324.818905
20
999.497976
11
324.098805
21
1001.331603
0
LINE
8
Layer 1
10
324.098805
20
1001.331603
11
323.570126
21
1003.252791
0
LINE
8
Layer 1
10
323.570126
20
1003.252791
11
323.244434
21
1005.249978
0
LINE
8
Layer 1
10
323.244434
20
1005.249978
11
323.133300
21
1007.311600
0
LINE
8
Layer 1
10
323.133000
20
1007.310000
11
323.133000
21
1014.424700
0
LINE
8
Layer 1
10
323.133000
20
1014.430000
11
323.080000
21
1015.497495
0
LINE
8
Layer 1
10
323.080000
20
1015.497495
11
322.803999
21
1017.115987
0
LINE
8
Layer 1
10
322.803999
20
1017.115987
11
322.129499
21
1019.087486
0
LINE
8
Layer 1
10
322.129499
20
1019.087486
11
320.881000
21
1021.214000
0
LINE
8
Layer 1
10
320.881000
20
1021.210000
11
320.573819
21
1022.022064
0
LINE
8
Layer 1
10
320.573819
20
1022.022064
11
320.735514
21
1022.820638
0
LINE
8
Layer 1
10
320.735514
20
1022.820638
11
321.277952
21
1023.429217
0
LINE
8
Layer 1
10
321.277952
20
1023.429217
11
322.113000
21
1023.671300
0
LINE
8
Layer 1
10
322.113000
20
1023.670000
11
361.337000
21
1023.683000
0
LINE
8
Layer 1
10
385.805000
20
1007.310000
11
386.008052
21
1005.313211
0
LINE
8
Layer 1
10
386.008052
20
1005.313211
11
386.590167
21
1003.454872
0
LINE
8
Layer 1
10
386.590167
20
1003.454872
11
387.510782
21
1001.775562
0
LINE
8
Layer 1
10
387.510782
20
1001.775562
11
388.729335
21
1000.315859
0
LINE
8
Layer 1
10
388.729335
20
1000.315859
11
390.205264
21
999.116341
0
LINE
8
Layer 1
10
390.205264
20
999.116341
11
391.898006
21
998.217588
0
LINE
8
Layer 1
10
391.898006
20
998.217588
11
393.766999
21
997.660178
0
LINE
8
Layer 1
10
393.766999
20
997.660178
11
395.771680
21
997.484690
0
LINE
8
Layer 1
10
395.772000
20
997.486000
11
397.683530
21
997.708736
0
LINE
8
Layer 1
10
397.683530
20
997.708736
11
399.476832
21
998.295642
0
LINE
8
Layer 1
10
399.476832
20
998.295642
11
401.110919
21
999.205766
0
LINE
8
Layer 1
10
401.110919
20
999.205766
11
402.544805
21
1000.398155
0
LINE
8
Layer 1
10
402.544805
20
1000.398155
11
403.737504
21
1001.831856
0
LINE
8
Layer 1
10
403.737504
20
1001.831856
11
404.648031
21
1003.465918
0
LINE
8
Layer 1
10
404.648031
20
1003.465918
11
405.235398
21
1005.259387
0
LINE
8
Layer 1
10
405.235398
20
1005.259387
11
405.458620
21
1007.171310
0
LINE
8
Layer 1
10
405.459000
20
1007.170000
11
405.283128
21
1009.175061
0
LINE
8
Layer 1
10
405.283128
20
1009.175061
11
404.725522
21
1011.044234
0
LINE
8
Layer 1
10
404.725522
20
1011.044234
11
403.826698
21
1012.737003
0
LINE
8
Layer 1
10
403.826698
20
1012.737003
11
402.627173
21
1014.212850
0
LINE
8
Layer 1
10
402.627173
20
1014.212850
11
401.167462
21
1015.431260
0
LINE
8
Layer 1
10
401.167462
20
1015.431260
11
399.488082
21
1016.351716
0
LINE
8
Layer 1
10
399.488082
20
1016.351716
11
397.629549
21
1016.933701
0
LINE
8
Layer 1
10
397.629549
20
1016.933701
11
395.632380
21
1017.136700
0
LINE
8
Layer 1
10
395.632000
20
1017.140000
11
393.651709
21
1016.940338
0
LINE
8
Layer 1
10
393.651709
20
1016.940338
11
391.807201
21
1016.367708
0
LINE
8
Layer 1
10
391.807201
20
1016.367708
11
390.138006
21
1015.461639
0
LINE
8
Layer 1
10
390.138006
20
1015.461639
11
388.683655
21
1014.261663
0
LINE
8
Layer 1
10
388.683655
20
1014.261663
11
387.483680
21
1012.807310
0
LINE
8
Layer 1
10
387.483680
20
1012.807310
11
386.577612
21
1011.138111
0
LINE
8
Layer 1
10
386.577612
20
1011.138111
11
386.004981
21
1009.293597
0
LINE
8
Layer 1
10
386.004981
20
1009.293597
11
385.805320
21
1007.313300
0
LINE
8
Layer 1
10
385.805000
20
1007.310000
11
385.805000
21
1007.310000
0
LINE
8
Layer 1
10
414.939000
20
1023.680000
11
415.474877
21
1023.604549
0
LINE
8
Layer 1
10
415.474877
20
1023.604549
11
415.942888
21
1023.395145
0
LINE
8
Layer 1
10
415.942888
20
1023.395145
11
416.617300
21
1022.676162
0
LINE
8
Layer 1
10
416.617300
20
1022.676162
11
416.846212
21
1021.726423
0
LINE
8
Layer 1
10
416.846212
20
1021.726423
11
416.757348
21
1021.228574
0
LINE
8
Layer 1
10
416.757348
20
1021.228574
11
416.513600
21
1020.749300
0
LINE
8
Layer 1
10
416.514000
20
1020.750000
11
415.691362
21
1019.385662
0
LINE
8
Layer 1
10
415.691362
20
1019.385662
11
415.040700
21
1017.803300
0
LINE
8
Layer 1
10
415.040000
20
1017.810000
11
414.632663
21
1016.009025
0
LINE
8
Layer 1
10
414.632663
20
1016.009025
11
414.529300
21
1014.438000
0
LINE
8
Layer 1
10
414.530000
20
1014.440000
11
414.530000
21
1007.812000
0
LINE
8
Layer 1
10
414.530000
20
1007.810000
11
414.447850
21
1006.006499
0
LINE
8
Layer 1
10
414.447850
20
1006.006499
11
414.205861
21
1004.240094
0
LINE
8
Layer 1
10
414.205861
20
1004.240094
11
413.810724
21
1002.519945
0
LINE
8
Layer 1
10
413.810724
20
1002.519945
11
413.269130
21
1000.855213
0
LINE
8
Layer 1
10
413.269130
20
1000.855213
11
412.587770
21
999.255058
0
LINE
8
Layer 1
10
412.587770
20
999.255058
11
411.773337
21
997.728640
0
LINE
8
Layer 1
10
411.773337
20
997.728640
11
410.832521
21
996.285120
0
LINE
8
Layer 1
10
410.832521
20
996.285120
11
409.772012
21
994.933659
0
LINE
8
Layer 1
10
409.772012
20
994.933659
11
408.598504
21
993.683415
0
LINE
8
Layer 1
10
408.598504
20
993.683415
11
407.318687
21
992.543551
0
LINE
8
Layer 1
10
407.318687
20
992.543551
11
405.939251
21
991.523226
0
LINE
8
Layer 1
10
405.939251
20
991.523226
11
404.466889
21
990.631600
0
LINE
8
Layer 1
10
404.466889
20
990.631600
11
402.908292
21
989.877834
0
LINE
8
Layer 1
10
402.908292
20
989.877834
11
401.270150
21
989.271089
0
LINE
8
Layer 1
10
401.270150
20
989.271089
11
399.559156
21
988.820524
0
LINE
8
Layer 1
10
399.559156
20
988.820524
11
397.782000
21
988.535300
0
LINE
8
Layer 1
10
397.782000
20
988.533000
11
395.667188
21
988.414010
0
LINE
8
Layer 1
10
395.667188
20
988.414010
11
393.604976
21
988.521333
0
LINE
8
Layer 1
10
393.604976
20
988.521333
11
391.606933
21
988.843405
0
LINE
8
Layer 1
10
391.606933
20
988.843405
11
389.684627
21
989.368666
0
LINE
8
Layer 1
10
389.684627
20
989.368666
11
387.849626
21
990.085551
0
LINE
8
Layer 1
10
387.849626
20
990.085551
11
386.113498
21
990.982498
0
LINE
8
Layer 1
10
386.113498
20
990.982498
11
384.487813
21
992.047944
0
LINE
8
Layer 1
10
384.487813
20
992.047944
11
382.984137
21
993.270328
0
LINE
8
Layer 1
10
382.984137
20
993.270328
11
381.614041
21
994.638085
0
LINE
8
Layer 1
10
381.614041
20
994.638085
11
380.389091
21
996.139654
0
LINE
8
Layer 1
10
380.389091
20
996.139654
11
379.320856
21
997.763472
0
LINE
8
Layer 1
10
379.320856
20
997.763472
11
378.420905
21
999.497976
0
LINE
8
Layer 1
10
378.420905
20
999.497976
11
377.700805
21
1001.331603
0
LINE
8
Layer 1
10
377.700805
20
1001.331603
11
377.172126
21
1003.252791
0
LINE
8
Layer 1
10
377.172126
20
1003.252791
11
376.846434
21
1005.249978
0
LINE
8
Layer 1
10
376.846434
20
1005.249978
11
376.735300
21
1007.311600
0
LINE
8
Layer 1
10
376.735000
20
1007.310000
11
376.735000
21
1014.424700
0
LINE
8
Layer 1
10
376.735000
20
1014.430000
11
376.681998
21
1015.497495
0
LINE
8
Layer 1
10
376.681998
20
1015.497495
11
376.405994
21
1017.115987
0
LINE
8
Layer 1
10
376.405994
20
1017.115987
11
375.731490
21
1019.087486
0
LINE
8
Layer 1
10
375.731490
20
1019.087486
11
374.482990
21
1021.214000
0
LINE
8
Layer 1
10
374.483000
20
1021.210000
11
374.175819
21
1022.022064
0
LINE
8
Layer 1
10
374.175819
20
1022.022064
11
374.337514
21
1022.820638
0
LINE
8
Layer 1
10
374.337514
20
1022.820638
11
374.879952
21
1023.429217
0
LINE
8
Layer 1
10
374.879952
20
1023.429217
11
375.715000
21
1023.671300
0
LINE
8
Layer 1
10
375.715000
20
1023.670000
11
414.939000
21
1023.683000
0
LINE
8
Layer 1
10
92.186000
20
1007.310000
11
92.389052
21
1005.313211
0
LINE
8
Layer 1
10
92.389052
20
1005.313211
11
92.971167
21
1003.454872
0
LINE
8
Layer 1
10
92.971167
20
1003.454872
11
93.891782
21
1001.775562
0
LINE
8
Layer 1
10
93.891782
20
1001.775562
11
95.110335
21
1000.315859
0
LINE
8
Layer 1
10
95.110335
20
1000.315859
11
96.586264
21
999.116341
0
LINE
8
Layer 1
10
96.586264
20
999.116341
11
98.279006
21
998.217588
0
LINE
8
Layer 1
10
98.279006
20
998.217588
11
100.147999
21
997.660178
0
LINE
8
Layer 1
10
100.147999
20
997.660178
11
102.152680
21
997.484690
0
LINE
8
Layer 1
10
102.153000
20
997.486000
11
104.064531
21
997.708736
0
LINE
8
Layer 1
10
104.064531
20
997.708736
11
105.857833
21
998.295642
0
LINE
8
Layer 1
10
105.857833
20
998.295642
11
107.491922
21
999.205766
0
LINE
8
Layer 1
10
107.491922
20
999.205766
11
108.925810
21
1000.398155
0
LINE
8
Layer 1
10
108.925810
20
1000.398155
11
110.118511
21
1001.831856
0
LINE
8
Layer 1
10
110.118511
20
1001.831856
11
111.029039
21
1003.465918
0
LINE
8
Layer 1
10
111.029039
20
1003.465918
11
111.616407
21
1005.259387
0
LINE
8
Layer 1
10
111.616407
20
1005.259387
11
111.839630
21
1007.171310
0
LINE
8
Layer 1
10
111.839000
20
1007.170000
11
111.663127
21
1009.175061
0
LINE
8
Layer 1
10
111.663127
20
1009.175061
11
111.105520
21
1011.044234
0
LINE
8
Layer 1
10
111.105520
20
1011.044234
11
110.206695
21
1012.737003
0
LINE
8
Layer 1
10
110.206695
20
1012.737003
11
109.007167
21
1014.212850
0
LINE
8
Layer 1
10
109.007167
20
1014.212850
11
107.547455
21
1015.431260
0
LINE
8
Layer 1
10
107.547455
20
1015.431260
11
105.868074
21
1016.351716
0
LINE
8
Layer 1
10
105.868074
20
1016.351716
11
104.009540
21
1016.933701
0
LINE
8
Layer 1
10
104.009540
20
1016.933701
11
102.012370
21
1017.136700
0
LINE
8
Layer 1
10
102.013000
20
1017.140000
11
100.032709
21
1016.940338
0
LINE
8
Layer 1
10
100.032709
20
1016.940338
11
98.188201
21
1016.367708
0
LINE
8
Layer 1
10
98.188201
20
1016.367708
11
96.519006
21
1015.461639
0
LINE
8
Layer 1
10
96.519006
20
1015.461639
11
95.064655
21
1014.261663
0
LINE
8
Layer 1
10
95.064655
20
1014.261663
11
93.864680
21
1012.807310
0
LINE
8
Layer 1
10
93.864680
20
1012.807310
11
92.958612
21
1011.138111
0
LINE
8
Layer 1
10
92.958612
20
1011.138111
11
92.385981
21
1009.293597
0
LINE
8
Layer 1
10
92.385981
20
1009.293597
11
92.186320
21
1007.313300
0
LINE
8
Layer 1
10
92.186000
20
1007.310000
11
92.186000
21
1007.310000
0
LINE
8
Layer 1
10
121.320000
20
1023.680000
11
121.855877
21
1023.604549
0
LINE
8
Layer 1
10
121.855877
20
1023.604549
11
122.323887
21
1023.395145
0
LINE
8
Layer 1
10
122.323887
20
1023.395145
11
122.998300
21
1022.676162
0
LINE
8
Layer 1
10
122.998300
20
1022.676162
11
123.227212
21
1021.726423
0
LINE
8
Layer 1
10
123.227212
20
1021.726423
11
123.138348
21
1021.228574
0
LINE
8
Layer 1
10
123.138348
20
1021.228574
11
122.894600
21
1020.749300
0
LINE
8
Layer 1
10
122.894000
20
1020.750000
11
122.071363
21
1019.385662
0
LINE
8
Layer 1
10
122.071363
20
1019.385662
11
121.420700
21
1017.803300
0
LINE
8
Layer 1
10
121.421000
20
1017.810000
11
121.013662
21
1016.009025
0
LINE
8
Layer 1
10
121.013662
20
1016.009025
11
120.910300
21
1014.438000
0
LINE
8
Layer 1
10
120.910000
20
1014.440000
11
120.910000
21
1007.812000
0
LINE
8
Layer 1
10
120.910000
20
1007.810000
11
120.827850
21
1006.006499
0
LINE
8
Layer 1
10
120.827850
20
1006.006499
11
120.585861
21
1004.240094
0
LINE
8
Layer 1
10
120.585861
20
1004.240094
11
120.190724
21
1002.519945
0
LINE
8
Layer 1
10
120.190724
20
1002.519945
11
119.649130
21
1000.855213
0
LINE
8
Layer 1
10
119.649130
20
1000.855213
11
118.967770
21
999.255058
0
LINE
8
Layer 1
10
118.967770
20
999.255058
11
118.153337
21
997.728640
0
LINE
8
Layer 1
10
118.153337
20
997.728640
11
117.212521
21
996.285120
0
LINE
8
Layer 1
10
117.212521
20
996.285120
11
116.152012
21
994.933659
0
LINE
8
Layer 1
10
116.152012
20
994.933659
11
114.978504
21
993.683415
0
LINE
8
Layer 1
10
114.978504
20
993.683415
11
113.698687
21
992.543551
0
LINE
8
Layer 1
10
113.698687
20
992.543551
11
112.319251
21
991.523226
0
LINE
8
Layer 1
10
112.319251
20
991.523226
11
110.846889
21
990.631600
0
LINE
8
Layer 1
10
110.846889
20
990.631600
11
109.288292
21
989.877834
0
LINE
8
Layer 1
10
109.288292
20
989.877834
11
107.650150
21
989.271089
0
LINE
8
Layer 1
10
107.650150
20
989.271089
11
105.939156
21
988.820524
0
LINE
8
Layer 1
10
105.939156
20
988.820524
11
104.162000
21
988.535300
0
LINE
8
Layer 1
10
104.162000
20
988.533000
11
102.047188
21
988.414010
0
LINE
8
Layer 1
10
102.047188
20
988.414010
11
99.984976
21
988.521333
0
LINE
8
Layer 1
10
99.984976
20
988.521333
11
97.986933
21
988.843405
0
LINE
8
Layer 1
10
97.986933
20
988.843405
11
96.064627
21
989.368666
0
LINE
8
Layer 1
10
96.064627
20
989.368666
11
94.229626
21
990.085551
0
LINE
8
Layer 1
10
94.229626
20
990.085551
11
92.493498
21
990.982498
0
LINE
8
Layer 1
10
92.493498
20
990.982498
11
90.867813
21
992.047944
0
LINE
8
Layer 1
10
90.867813
20
992.047944
11
89.364137
21
993.270328
0
LINE
8
Layer 1
10
89.364137
20
993.270328
11
87.994041
21
994.638085
0
LINE
8
Layer 1
10
87.994041
20
994.638085
11
86.769091
21
996.139654
0
LINE
8
Layer 1
10
86.769091
20
996.139654
11
85.700856
21
997.763472
0
LINE
8
Layer 1
10
85.700856
20
997.763472
11
84.800905
21
999.497976
0
LINE
8
Layer 1
10
84.800905
20
999.497976
11
84.080805
21
1001.331603
0
LINE
8
Layer 1
10
84.080805
20
1001.331603
11
83.552126
21
1003.252791
0
LINE
8
Layer 1
10
83.552126
20
1003.252791
11
83.226434
21
1005.249978
0
LINE
8
Layer 1
10
83.226434
20
1005.249978
11
83.115300
21
1007.311600
0
LINE
8
Layer 1
10
83.115500
20
1007.310000
11
83.115500
21
1014.424700
0
LINE
8
Layer 1
10
83.115500
20
1014.430000
11
83.062500
21
1015.497495
0
LINE
8
Layer 1
10
83.062500
20
1015.497495
11
82.786499
21
1017.115987
0
LINE
8
Layer 1
10
82.786499
20
1017.115987
11
82.111999
21
1019.087486
0
LINE
8
Layer 1
10
82.111999
20
1019.087486
11
80.863500
21
1021.214000
0
LINE
8
Layer 1
10
80.863500
20
1021.210000
11
80.556319
21
1022.022064
0
LINE
8
Layer 1
10
80.556319
20
1022.022064
11
80.718014
21
1022.820638
0
LINE
8
Layer 1
10
80.718014
20
1022.820638
11
81.260452
21
1023.429217
0
LINE
8
Layer 1
10
81.260452
20
1023.429217
11
82.095500
21
1023.671300
0
LINE
8
Layer 1
10
82.095500
20
1023.670000
11
121.319500
21
1023.683000
0
LINE
8
Layer 1
10
150.000000
20
1007.310000
11
150.203053
21
1005.313211
0
LINE
8
Layer 1
10
150.203053
20
1005.313211
11
150.785168
21
1003.454872
0
LINE
8
Layer 1
10
150.785168
20
1003.454872
11
151.705785
21
1001.775562
0
LINE
8
Layer 1
10
151.705785
20
1001.775562
11
152.924339
21
1000.315859
0
LINE
8
Layer 1
10
152.924339
20
1000.315859
11
154.400268
21
999.116341
0
LINE
8
Layer 1
10
154.400268
20
999.116341
11
156.093010
21
998.217588
0
LINE
8
Layer 1
10
156.093010
20
998.217588
11
157.962001
21
997.660178
0
LINE
8
Layer 1
10
157.962001
20
997.660178
11
159.966680
21
997.484690
0
LINE
8
Layer 1
10
159.967000
20
997.486000
11
161.878530
21
997.708736
0
LINE
8
Layer 1
10
161.878530
20
997.708736
11
163.671832
21
998.295642
0
LINE
8
Layer 1
10
163.671832
20
998.295642
11
165.305919
21
999.205766
0
LINE
8
Layer 1
10
165.305919
20
999.205766
11
166.739805
21
1000.398155
0
LINE
8
Layer 1
10
166.739805
20
1000.398155
11
167.932504
21
1001.831856
0
LINE
8
Layer 1
10
167.932504
20
1001.831856
11
168.843031
21
1003.465918
0
LINE
8
Layer 1
10
168.843031
20
1003.465918
11
169.430398
21
1005.259387
0
LINE
8
Layer 1
10
169.430398
20
1005.259387
11
169.653620
21
1007.171310
0
LINE
8
Layer 1
10
169.653000
20
1007.170000
11
169.477128
21
1009.175061
0
LINE
8
Layer 1
10
169.477128
20
1009.175061
11
168.919522
21
1011.044234
0
LINE
8
Layer 1
10
168.919522
20
1011.044234
11
168.020698
21
1012.737003
0
LINE
8
Layer 1
10
168.020698
20
1012.737003
11
166.821172
21
1014.212850
0
LINE
8
Layer 1
10
166.821172
20
1014.212850
11
165.361462
21
1015.431260
0
LINE
8
Layer 1
10
165.361462
20
1015.431260
11
163.682082
21
1016.351716
0
LINE
8
Layer 1
10
163.682082
20
1016.351716
11
161.823549
21
1016.933701
0
LINE
8
Layer 1
10
161.823549
20
1016.933701
11
159.826380
21
1017.136700
0
LINE
8
Layer 1
10
159.827000
20
1017.140000
11
157.846709
21
1016.940338
0
LINE
8
Layer 1
10
157.846709
20
1016.940338
11
156.002201
21
1016.367708
0
LINE
8
Layer 1
10
156.002201
20
1016.367708
11
154.333006
21
1015.461639
0
LINE
8
Layer 1
10
154.333006
20
1015.461639
11
152.878655
21
1014.261663
0
LINE
8
Layer 1
10
152.878655
20
1014.261663
11
151.678680
21
1012.807310
0
LINE
8
Layer 1
10
151.678680
20
1012.807310
11
150.772612
21
1011.138111
0
LINE
8
Layer 1
10
150.772612
20
1011.138111
11
150.199981
21
1009.293597
0
LINE
8
Layer 1
10
150.199981
20
1009.293597
11
150.000320
21
1007.313300
0
LINE
8
Layer 1
10
150.000000
20
1007.310000
11
150.000000
21
1007.310000
0
LINE
8
Layer 1
10
179.134000
20
1023.680000
11
179.669877
21
1023.604549
0
LINE
8
Layer 1
10
179.669877
20
1023.604549
11
180.137887
21
1023.395145
0
LINE
8
Layer 1
10
180.137887
20
1023.395145
11
180.812300
21
1022.676162
0
LINE
8
Layer 1
10
180.812300
20
1022.676162
11
181.041212
21
1021.726423
0
LINE
8
Layer 1
10
181.041212
20
1021.726423
11
180.952348
21
1021.228574
0
LINE
8
Layer 1
10
180.952348
20
1021.228574
11
180.708600
21
1020.749300
0
LINE
8
Layer 1
10
180.708000
20
1020.750000
11
179.885362
21
1019.385662
0
LINE
8
Layer 1
10
179.885362
20
1019.385662
11
179.234700
21
1017.803300
0
LINE
8
Layer 1
10
179.235000
20
1017.810000
11
178.827663
21
1016.009025
0
LINE
8
Layer 1
10
178.827663
20
1016.009025
11
178.724300
21
1014.438000
0
LINE
8
Layer 1
10
178.724000
20
1014.440000
11
178.724000
21
1007.812000
0
LINE
8
Layer 1
10
178.724000
20
1007.810000
11
178.641850
21
1006.006499
0
LINE
8
Layer 1
10
178.641850
20
1006.006499
11
178.399860
21
1004.240094
0
LINE
8
Layer 1
10
178.399860
20
1004.240094
11
178.004723
21
1002.519945
0
LINE
8
Layer 1
10
178.004723
20
1002.519945
11
177.463128
21
1000.855213
0
LINE
8
Layer 1
10
177.463128
20
1000.855213
11
176.781768
21
999.255058
0
LINE
8
Layer 1
10
176.781768
20
999.255058
11
175.967334
21
997.728640
0
LINE
8
Layer 1
10
175.967334
20
997.728640
11
175.026517
21
996.285120
0
LINE
8
Layer 1
10
175.026517
20
996.285120
11
173.966009
21
994.933659
0
LINE
8
Layer 1
10
173.966009
20
994.933659
11
172.792500
21
993.683415
0
LINE
8
Layer 1
10
172.792500
20
993.683415
11
171.512682
21
992.543551
0
LINE
8
Layer 1
10
171.512682
20
992.543551
11
170.133247
21
991.523226
0
LINE
8
Layer 1
10
170.133247
20
991.523226
11
168.660885
21
990.631600
0
LINE
8
Layer 1
10
168.660885
20
990.631600
11
167.102288
21
989.877834
0
LINE
8
Layer 1
10
167.102288
20
989.877834
11
165.464147
21
989.271089
0
LINE
8
Layer 1
10
165.464147
20
989.271089
11
163.753154
21
988.820524
0
LINE
8
Layer 1
10
163.753154
20
988.820524
11
161.976000
21
988.535300
0
LINE
8
Layer 1
10
161.976000
20
988.533000
11
159.861188
21
988.414010
0
LINE
8
Layer 1
10
159.861188
20
988.414010
11
157.798976
21
988.521333
0
LINE
8
Layer 1
10
157.798976
20
988.521333
11
155.800933
21
988.843405
0
LINE
8
Layer 1
10
155.800933
20
988.843405
11
153.878627
21
989.368666
0
LINE
8
Layer 1
10
153.878627
20
989.368666
11
152.043626
21
990.085551
0
LINE
8
Layer 1
10
152.043626
20
990.085551
11
150.307498
21
990.982498
0
LINE
8
Layer 1
10
150.307498
20
990.982498
11
148.681813
21
992.047944
0
LINE
8
Layer 1
10
148.681813
20
992.047944
11
147.178138
21
993.270328
0
LINE
8
Layer 1
10
147.178138
20
993.270328
11
145.808041
21
994.638085
0
LINE
8
Layer 1
10
145.808041
20
994.638085
11
144.583091
21
996.139654
0
LINE
8
Layer 1
10
144.583091
20
996.139654
11
143.514856
21
997.763472
0
LINE
8
Layer 1
10
143.514856
20
997.763472
11
142.614905
21
999.497976
0
LINE
8
Layer 1
10
142.614905
20
999.497976
11
141.894805
21
1001.331603
0
LINE
8
Layer 1
10
141.894805
20
1001.331603
11
141.366126
21
1003.252791
0
LINE
8
Layer 1
10
141.366126
20
1003.252791
11
141.040434
21
1005.249978
0
LINE
8
Layer 1
10
141.040434
20
1005.249978
11
140.929300
21
1007.311600
0
LINE
8
Layer 1
10
140.930000
20
1007.310000
11
140.930000
21
1014.424700
0
LINE
8
Layer 1
10
140.930000
20
1014.430000
11
140.877000
21
1015.497495
0
LINE
8
Layer 1
10
140.877000
20
1015.497495
11
140.600999
21
1017.115987
0
LINE
8
Layer 1
10
140.600999
20
1017.115987
11
139.926499
21
1019.087486
0
LINE
8
Layer 1
10
139.926499
20
1019.087486
11
138.678000
21
1021.214000
0
LINE
8
Layer 1
10
138.678000
20
1021.210000
11
138.370819
21
1022.022064
0
LINE
8
Layer 1
10
138.370819
20
1022.022064
11
138.532514
21
1022.820638
0
LINE
8
Layer 1
10
138.532514
20
1022.820638
11
139.074952
21
1023.429217
0
LINE
8
Layer 1
10
139.074952
20
1023.429217
11
139.910000
21
1023.671300
0
LINE
8
Layer 1
10
139.910000
20
1023.670000
11
179.134000
21
1023.683000
0
LINE
8
Layer 1
10
677.227000
20
874.481000
11
676.490788
21
874.332791
0
LINE
8
Layer 1
10
676.490788
20
874.332791
11
675.890328
21
873.928531
0
LINE
8
Layer 1
10
675.890328
20
873.928531
11
675.485868
21
873.328771
0
LINE
8
Layer 1
10
675.485868
20
873.328771
11
675.337660
21
872.594060
0
LINE
8
Layer 1
10
675.336000
20
736.533000
11
675.187624
21
735.797923
0
LINE
8
Layer 1
10
675.187624
20
735.797923
11
674.782998
21
735.197347
0
LINE
8
Layer 1
10
674.782998
20
735.197347
11
674.182872
21
734.792271
0
LINE
8
Layer 1
10
674.182872
20
734.792271
11
673.448000
21
734.643690
0
LINE
8
Layer 1
10
675.339000
20
872.594000
11
675.339000
21
736.539000
0
LINE
8
Layer 1
10
659.275000
20
734.646000
11
658.539145
21
734.497205
0
LINE
8
Layer 1
10
658.539145
20
734.497205
11
657.938165
21
734.091659
0
LINE
8
Layer 1
10
657.938165
20
734.091659
11
657.532935
21
733.490615
0
LINE
8
Layer 1
10
657.532935
20
733.490615
11
657.384330
21
732.755330
0
LINE
8
Layer 1
10
673.448000
20
734.645000
11
659.275000
21
734.645000
0
LINE
8
Layer 1
10
657.384000
20
664.723000
11
657.235416
21
663.988543
0
LINE
8
Layer 1
10
657.235416
20
663.988543
11
656.830331
21
663.389332
0
LINE
8
Layer 1
10
656.830331
20
663.389332
11
656.229746
21
662.985620
0
LINE
8
Layer 1
10
656.229746
20
662.985620
11
655.494660
21
662.837660
0
LINE
8
Layer 1
10
657.387000
20
732.755000
11
657.387000
21
664.727000
0
LINE
8
Layer 1
10
650.771000
20
662.838000
11
650.035914
21
662.688793
0
LINE
8
Layer 1
10
650.035914
20
662.688793
11
649.435329
21
662.282337
0
LINE
8
Layer 1
10
649.435329
20
662.282337
11
649.030244
21
661.680383
0
LINE
8
Layer 1
10
649.030244
20
661.680383
11
648.881660
21
660.944680
0
LINE
8
Layer 1
10
655.496000
20
662.838000
11
650.773330
21
662.838000
0
LINE
8
Layer 1
10
648.880000
20
581.578000
11
649.028792
21
580.842904
0
LINE
8
Layer 1
10
649.028792
20
580.842904
11
649.434334
21
580.242316
0
LINE
8
Layer 1
10
649.434334
20
580.242316
11
650.035376
21
579.837233
0
LINE
8
Layer 1
10
650.035376
20
579.837233
11
650.770670
21
579.688650
0
LINE
8
Layer 1
10
648.883000
20
660.949000
11
648.883000
21
581.578300
0
LINE
8
Layer 1
10
655.496000
20
579.688000
11
656.230878
21
579.539584
0
LINE
8
Layer 1
10
656.230878
20
579.539584
11
656.831006
21
579.134666
0
LINE
8
Layer 1
10
656.831006
20
579.134666
11
657.235634
21
578.533746
0
LINE
8
Layer 1
10
657.235634
20
578.533746
11
657.384010
21
577.797320
0
LINE
8
Layer 1
10
650.774000
20
579.688000
11
655.496670
21
579.688000
0
LINE
8
Layer 1
10
657.384000
20
509.771000
11
657.532790
21
509.034580
0
LINE
8
Layer 1
10
657.532790
20
509.034580
11
657.938330
21
508.433662
0
LINE
8
Layer 1
10
657.938330
20
508.433662
11
658.539372
21
508.028746
0
LINE
8
Layer 1
10
658.539372
20
508.028746
11
659.274670
21
507.880330
0
LINE
8
Layer 1
10
657.387000
20
577.798000
11
657.387000
21
509.771300
0
LINE
8
Layer 1
10
664.944000
20
507.880000
11
665.679084
21
507.731791
0
LINE
8
Layer 1
10
665.679084
20
507.731791
11
666.279666
21
507.327331
0
LINE
8
Layer 1
10
666.279666
20
507.327331
11
666.684748
21
506.726868
0
LINE
8
Layer 1
10
666.684748
20
506.726868
11
666.833330
21
505.990650
0
LINE
8
Layer 1
10
659.275000
20
507.880000
11
664.944330
21
507.880000
0
LINE
8
Layer 1
10
666.835000
20
505.991000
11
666.835000
21
477.719000
0
LINE
8
Layer 1
10
666.835000
20
477.719000
11
666.835000
21
403.917000
0
LINE
8
Layer 1
10
666.835000
20
403.917000
11
666.835000
21
369.074000
0
LINE
8
Layer 1
10
666.832000
20
369.074000
11
666.981000
21
368.337179
0
LINE
8
Layer 1
10
666.981000
20
368.337179
11
667.386999
21
367.735349
0
LINE
8
Layer 1
10
667.386999
20
367.735349
11
667.988499
21
367.329515
0
LINE
8
Layer 1
10
667.988499
20
367.329515
11
668.724000
21
367.180680
0
LINE
8
Layer 1
10
668.727000
20
367.181000
11
755.339000
21
367.181000
0
LINE
8
Layer 1
10
755.339000
20
367.181000
11
755.339000
21
405.987700
0
LINE
8
Layer 1
10
755.339000
20
405.987000
11
755.339000
21
479.789500
0
LINE
8
Layer 1
10
755.339000
20
479.790000
11
755.339000
21
874.484000
0
LINE
8
Layer 1
10
755.339000
20
874.484000
11
677.226000
21
874.484000
0
LINE
8
Layer 1
10
732.027000
20
517.635000
11
732.864836
21
517.549675
0
LINE
8
Layer 1
10
732.864836
20
517.549675
11
733.645204
21
517.307025
0
LINE
8
Layer 1
10
733.645204
20
517.307025
11
734.351385
21
516.923664
0
LINE
8
Layer 1
10
734.351385
20
516.923664
11
734.966661
21
516.416206
0
LINE
8
Layer 1
10
734.966661
20
516.416206
11
735.474313
21
515.801264
0
LINE
8
Layer 1
10
735.474313
20
515.801264
11
735.857621
21
515.095452
0
LINE
8
Layer 1
10
735.857621
20
515.095452
11
736.099866
21
514.315382
0
LINE
8
Layer 1
10
736.099866
20
514.315382
11
736.184330
21
513.477670
0
LINE
8
Layer 1
10
736.184000
20
513.478000
11
736.099536
21
512.640049
0
LINE
8
Layer 1
10
736.099536
20
512.640049
11
735.857291
21
511.859378
0
LINE
8
Layer 1
10
735.857291
20
511.859378
11
735.473983
21
511.152767
0
LINE
8
Layer 1
10
735.473983
20
511.152767
11
734.966331
21
510.536999
0
LINE
8
Layer 1
10
734.966331
20
510.536999
11
734.351055
21
510.028855
0
LINE
8
Layer 1
10
734.351055
20
510.028855
11
733.644874
21
509.645118
0
LINE
8
Layer 1
10
733.644874
20
509.645118
11
732.864506
21
509.402569
0
LINE
8
Layer 1
10
732.864506
20
509.402569
11
732.026670
21
509.317990
0
LINE
8
Layer 1
10
732.027000
20
509.318000
11
731.189148
21
509.402579
0
LINE
8
Layer 1
10
731.189148
20
509.402579
11
730.408768
21
509.645128
0
LINE
8
Layer 1
10
730.408768
20
509.645128
11
729.702577
21
510.028865
0
LINE
8
Layer 1
10
729.702577
20
510.028865
11
729.087295
21
510.537009
0
LINE
8
Layer 1
10
729.087295
20
510.537009
11
728.579640
21
511.152777
0
LINE
8
Layer 1
10
728.579640
20
511.152777
11
728.196330
21
511.859388
0
LINE
8
Layer 1
10
728.196330
20
511.859388
11
727.954084
21
512.640059
0
LINE
8
Layer 1
10
727.954084
20
512.640059
11
727.869620
21
513.478010
0
LINE
8
Layer 1
10
727.870000
20
513.478000
11
727.954464
21
514.315722
0
LINE
8
Layer 1
10
727.954464
20
514.315722
11
728.196710
21
515.095791
0
LINE
8
Layer 1
10
728.196710
20
515.095791
11
728.580020
21
515.801550
0
LINE
8
Layer 1
10
728.580020
20
515.801550
11
729.087675
21
516.416341
0
LINE
8
Layer 1
10
729.087675
20
516.416341
11
729.702957
21
516.923508
0
LINE
8
Layer 1
10
729.702957
20
516.923508
11
730.409148
21
517.306393
0
LINE
8
Layer 1
10
730.409148
20
517.306393
11
731.189528
21
517.548340
0
LINE
8
Layer 1
10
731.189528
20
517.548340
11
732.027380
21
517.632690
0
LINE
8
Layer 1
10
745.718000
20
804.930000
11
746.555833
21
804.845531
0
LINE
8
Layer 1
10
746.555833
20
804.845531
11
747.336199
21
804.603272
0
LINE
8
Layer 1
10
747.336199
20
804.603272
11
748.042381
21
804.219949
0
LINE
8
Layer 1
10
748.042381
20
804.219949
11
748.657658
21
803.712282
0
LINE
8
Layer 1
10
748.657658
20
803.712282
11
749.165310
21
803.096998
0
LINE
8
Layer 1
10
749.165310
20
803.096998
11
749.548619
21
802.390819
0
LINE
8
Layer 1
10
749.548619
20
802.390819
11
749.790866
21
801.610468
0
LINE
8
Layer 1
10
749.790866
20
801.610468
11
749.875330
21
800.772670
0
LINE
8
Layer 1
10
749.875000
20
800.773000
11
749.790536
21
799.935242
0
LINE
8
Layer 1
10
749.790536
20
799.935242
11
749.548289
21
799.154924
0
LINE
8
Layer 1
10
749.548289
20
799.154924
11
749.164980
21
798.448769
0
LINE
8
Layer 1
10
749.164980
20
798.448769
11
748.657327
21
797.833502
0
LINE
8
Layer 1
10
748.657327
20
797.833502
11
748.042051
21
797.325849
0
LINE
8
Layer 1
10
748.042051
20
797.325849
11
747.335869
21
796.942532
0
LINE
8
Layer 1
10
747.335869
20
796.942532
11
746.555503
21
796.700278
0
LINE
8
Layer 1
10
746.555503
20
796.700278
11
745.717670
21
796.615810
0
LINE
8
Layer 1
10
745.718000
20
796.615000
11
744.880150
21
796.699468
0
LINE
8
Layer 1
10
744.880150
20
796.699468
11
744.099774
21
796.941722
0
LINE
8
Layer 1
10
744.099774
20
796.941722
11
743.393590
21
797.325039
0
LINE
8
Layer 1
10
743.393590
20
797.325039
11
742.778315
21
797.832692
0
LINE
8
Layer 1
10
742.778315
20
797.832692
11
742.270667
21
798.447959
0
LINE
8
Layer 1
10
742.270667
20
798.447959
11
741.887364
21
799.154114
0
LINE
8
Layer 1
10
741.887364
20
799.154114
11
741.645122
21
799.934432
0
LINE
8
Layer 1
10
741.645122
20
799.934432
11
741.560660
21
800.772190
0
LINE
8
Layer 1
10
741.560000
20
800.773000
11
741.644462
21
801.610798
0
LINE
8
Layer 1
10
741.644462
20
801.610798
11
741.886704
21
802.391149
0
LINE
8
Layer 1
10
741.886704
20
802.391149
11
742.270007
21
803.097328
0
LINE
8
Layer 1
10
742.270007
20
803.097328
11
742.777655
21
803.712612
0
LINE
8
Layer 1
10
742.777655
20
803.712612
11
743.392930
21
804.220279
0
LINE
8
Layer 1
10
743.392930
20
804.220279
11
744.099114
21
804.603602
0
LINE
8
Layer 1
10
744.099114
20
804.603602
11
744.879490
21
804.845861
0
LINE
8
Layer 1
10
744.879490
20
804.845861
11
745.717340
21
804.930330
 0 
ENDSEC
 0 
EOF