  0
SECTION
  2
HEADER
  9
$ACADVER
  1
AC1014
  9
$HANDSEED
  5
FFFF
  9
$MEASUREMENT
 70
     1
  0
ENDSEC
  0
SECTION
  2
TABLES
  0
TABLE
  2
VPORT
  5
8
330
0
100
AcDbSymbolTable
 70
     4
  0
VPORT
  5
2E
330
8
100
AcDbSymbolTableRecord
100
AcDbViewportTableRecord
  2
*ACTIVE
 70
     0
 10
0.0
 20
0.0
 11
1.0
 21
1.0
 12
210.0
 22
148.5
 13
0.0
 23
0.0
 14
10.0
 24
10.0
 15
10.0
 25
10.0
 16
0.0
 26
0.0
 36
1.0
 17
0.0
 27
0.0
 37
0.0
 40
341.0
 41
1.24
 42
50.0
 43
0.0
 44
0.0
 50
0.0
 51
0.0
 71
     0
 72
   100
 73
     1
 74
     3
 75
     0
 76
     0
 77
     0
 78
     0
  0
ENDTAB
  0
TABLE
  2
LTYPE
  5
5
330
0
100
AcDbSymbolTable
 70
     1
  0
LTYPE
  5
14
330
5
100
AcDbSymbolTableRecord
100
AcDbLinetypeTableRecord
  2
BYBLOCK
 70
     0
  3

 72
    65
 73
     0
 40
0.0
  0
LTYPE
  5
15
330
5
100
AcDbSymbolTableRecord
100
AcDbLinetypeTableRecord
  2
BYLAYER
 70
     0
  3

 72
    65
 73
     0
 40
0.0
  0
LTYPE
  5
16
330
5
100
AcDbSymbolTableRecord
100
AcDbLinetypeTableRecord
  2
CONTINUOUS
 70
     0
  3
Solid line
 72
    65
 73
     0
 40
0.0
  0
ENDTAB
  0
TABLE
  2
LAYER
  5
2
100
AcDbSymbolTable
 70
1
  0
LAYER
  5
50
100
AcDbSymbolTableRecord
100
AcDbLayerTableRecord
  2
0
 70
0
  6
CONTINUOUS
  0
ENDTAB
  0
TABLE
  2
STYLE
  5
3
330
0
100
AcDbSymbolTable
 70
     1
  0
STYLE
  5
11
330
3
100
AcDbSymbolTableRecord
100
AcDbTextStyleTableRecord
  2
STANDARD
 70
     0
 40
0.0
 41
1.0
 50
0.0
 71
     0
 42
2.5
  3
txt
  4

  0
ENDTAB
  0
TABLE
  2
VIEW
  5
6
330
0
100
AcDbSymbolTable
 70
     0
  0
ENDTAB
  0
TABLE
  2
UCS
  5
7
330
0
100
AcDbSymbolTable
 70
     0
  0
ENDTAB
  0
TABLE
  2
APPID
  5
9
330
0
100
AcDbSymbolTable
 70
     2
  0
APPID
  5
12
330
9
100
AcDbSymbolTableRecord
100
AcDbRegAppTableRecord
  2
ACAD
 70
     0
  0
ENDTAB
  0
TABLE
  2
DIMSTYLE
  5
A
330
0
100
AcDbSymbolTable
 70
     1
  0
DIMSTYLE
105
27
330
A
100
AcDbSymbolTableRecord
100
AcDbDimStyleTableRecord
  2
ISO-25
 70
     0
  3

  4

  5

  6

  7

 40
1.0
 41
2.5
 42
0.625
 43
3.75
 44
1.25
 45
0.0
 46
0.0
 47
0.0
 48
0.0
140
2.5
141
2.5
142
0.0
143
0.03937007874016
144
1.0
145
0.0
146
1.0
147
0.625
 71
     0
 72
     0
 73
     0
 74
     0
 75
     0
 76
     0
 77
     1
 78
     8
170
     0
171
     3
172
     1
173
     0
174
     0
175
     0
176
     0
177
     0
178
     0
270
     2
271
     2
272
     2
273
     2
274
     3
340
11
275
     0
280
     0
281
     0
282
     0
283
     0
284
     8
285
     0
286
     0
287
     3
288
     0
  0
ENDTAB
  0
TABLE
  2
BLOCK_RECORD
  5
1
330
0
100
AcDbSymbolTable
 70
     1
  0
BLOCK_RECORD
  5
1F
330
1
100
AcDbSymbolTableRecord
100
AcDbBlockTableRecord
  2
*MODEL_SPACE
  0
BLOCK_RECORD
  5
1B
330
1
100
AcDbSymbolTableRecord
100
AcDbBlockTableRecord
  2
*PAPER_SPACE
  0
ENDTAB
  0
ENDSEC
  0
SECTION
  2
BLOCKS
  0
BLOCK
  5
20
330
1F
100
AcDbEntity
  8
0
100
AcDbBlockBegin
  2
*MODEL_SPACE
 70
     0
 10
0.0
 20
0.0
 30
0.0
  3
*MODEL_SPACE
  1

  0
ENDBLK
  5
21
330
1F
100
AcDbEntity
  8
0
100
AcDbBlockEnd
  0
BLOCK
  5
1C
330
1B
100
AcDbEntity
 67
     1
  8
0
100
AcDbBlockBegin
  2
*PAPER_SPACE
  1

  0
ENDBLK
  5
1D
330
1B
100
AcDbEntity
 67
     1
  8
0
100
AcDbBlockEnd
  0
ENDSEC
  0
SECTION
  2
ENTITIES
  0
SPLINE
  5
100
100
AcDbEntity
  8
0
 62
5
100
AcDbSpline
 70
8
 71
3
 72
8
 73
4
 74
0
 40
0
 40
0
 40
0
 40
0
 40
1
 40
1
 40
1
 40
1
 10
63.898280
 20
19.248330
 30
0.0
 10
64.193910
 20
19.246330
 30
0.0
 10
64.829970
 20
19.197530
 30
0.0
 10
65.178160
 20
19.055010
 30
0.0
  0
SPLINE
  5
101
100
AcDbEntity
  8
0
 62
5
100
AcDbSpline
 70
8
 71
3
 72
8
 73
4
 74
0
 40
0
 40
0
 40
0
 40
0
 40
1
 40
1
 40
1
 40
1
 10
65.178160
 20
19.055010
 30
0.0
 10
65.459680
 20
18.939650
 30
0.0
 10
65.551400
 20
18.793600
 30
0.0
 10
65.672760
 20
18.605920
 30
0.0
  0
SPLINE
  5
102
100
AcDbEntity
  8
0
 62
5
100
AcDbSpline
 70
8
 71
3
 72
8
 73
4
 74
0
 40
0
 40
0
 40
0
 40
0
 40
1
 40
1
 40
1
 40
1
 10
65.672760
 20
18.605920
 30
0.0
 10
65.691060
 20
18.577320
 30
0.0
 10
65.710560
 20
18.547720
 30
0.0
 10
65.730960
 20
18.517420
 30
0.0
  0
LINE
  5
103
100
AcDbEntity
  8
0
 62
5
100
AcDbLine
 10
16.243650
 20
19.248330
 30
0.0
 11
63.898280
 21
19.248330
 31
0.0
  0
SPLINE
  5
104
100
AcDbEntity
  8
0
 62
5
100
AcDbSpline
 70
8
 71
3
 72
8
 73
4
 74
0
 40
0
 40
0
 40
0
 40
0
 40
1
 40
1
 40
1
 40
1
 10
75.819700
 20
1.242560
 30
0.0
 10
75.989740
 20
0.838270
 30
0.0
 10
75.800300
 20
0.372610
 30
0.0
 10
75.395310
 20
0.202570
 30
0.0
  0
SPLINE
  5
105
100
AcDbEntity
  8
0
 62
5
100
AcDbSpline
 70
8
 71
3
 72
8
 73
4
 74
0
 40
0
 40
0
 40
0
 40
0
 40
1
 40
1
 40
1
 40
1
 10
75.395310
 20
0.202570
 30
0.0
 10
75.335710
 20
0.177170
 30
0.0
 10
75.273250
 20
0.159570
 30
0.0
 10
75.209040
 20
0.149270
 30
0.0
  0
LINE
  5
106
100
AcDbEntity
  8
0
 62
5
100
AcDbLine
 10
65.730960
 20
18.517380
 30
0.0
 11
75.820060
 21
1.243610
 31
0.0
  0
SPLINE
  5
107
100
AcDbEntity
  8
0
 62
5
100
AcDbSpline
 70
8
 71
3
 72
8
 73
4
 74
0
 40
0
 40
0
 40
0
 40
0
 40
1
 40
1
 40
1
 40
1
 10
16.254590
 20
0.150000
 30
0.0
 10
15.978360
 20
0.150000
 30
0.0
 10
15.754350
 20
0.373310
 30
0.0
 10
15.754350
 20
0.649890
 30
0.0
  0
LINE
  5
108
100
AcDbEntity
  8
0
 62
5
100
AcDbLine
 10
75.209750
 20
0.150000
 30
0.0
 11
16.254590
 21
0.150000
 31
0.0
  0
SPLINE
  5
109
100
AcDbEntity
  8
0
 62
5
100
AcDbSpline
 70
8
 71
3
 72
8
 73
4
 74
0
 40
0
 40
0
 40
0
 40
0
 40
1
 40
1
 40
1
 40
1
 10
15.754700
 20
18.748450
 30
0.0
 10
15.754700
 20
19.024320
 30
0.0
 10
15.979070
 20
19.247270
 30
0.0
 10
16.254940
 20
19.247270
 30
0.0
  0
LINE
  5
10a
100
AcDbEntity
  8
0
 62
5
100
AcDbLine
 10
15.755050
 20
0.650590
 30
0.0
 11
15.755050
 21
16.740440
 31
0.0
  0
LINE
  5
10b
100
AcDbEntity
  8
0
 62
5
100
AcDbLine
 10
15.755050
 20
16.740440
 30
0.0
 11
15.755050
 21
18.747390
 31
0.0
  0
SPLINE
  5
10c
100
AcDbEntity
  8
0
 62
5
100
AcDbSpline
 70
8
 71
3
 72
8
 73
4
 74
0
 40
0
 40
0
 40
0
 40
0
 40
1
 40
1
 40
1
 40
1
 10
63.500000
 20
18.242210
 30
0.0
 10
64.107480
 20
18.242920
 30
0.0
 10
64.599250
 20
17.750440
 30
0.0
 10
64.599250
 20
17.142950
 30
0.0
  0
SPLINE
  5
10d
100
AcDbEntity
  8
0
 62
5
100
AcDbSpline
 70
8
 71
3
 72
8
 73
4
 74
0
 40
0
 40
0
 40
0
 40
0
 40
1
 40
1
 40
1
 40
1
 10
64.599250
 20
17.142950
 30
0.0
 10
64.599250
 20
16.535470
 30
0.0
 10
64.107480
 20
16.042290
 30
0.0
 10
63.500000
 20
16.042290
 30
0.0
  0
SPLINE
  5
10e
100
AcDbEntity
  8
0
 62
5
100
AcDbSpline
 70
8
 71
3
 72
8
 73
4
 74
0
 40
0
 40
0
 40
0
 40
0
 40
1
 40
1
 40
1
 40
1
 10
63.500000
 20
16.042290
 30
0.0
 10
62.891810
 20
16.042290
 30
0.0
 10
62.400040
 20
16.535470
 30
0.0
 10
62.400040
 20
17.142950
 30
0.0
  0
SPLINE
  5
10f
100
AcDbEntity
  8
0
 62
5
100
AcDbSpline
 70
8
 71
3
 72
8
 73
4
 74
0
 40
0
 40
0
 40
0
 40
0
 40
1
 40
1
 40
1
 40
1
 10
62.400040
 20
17.142950
 30
0.0
 10
62.400040
 20
17.750440
 30
0.0
 10
62.891810
 20
18.242920
 30
0.0
 10
63.500000
 20
18.242920
 30
0.0
  0
SPLINE
  5
110
100
AcDbEntity
  8
0
 62
5
100
AcDbSpline
 70
8
 71
3
 72
8
 73
4
 74
0
 40
0
 40
0
 40
0
 40
0
 40
1
 40
1
 40
1
 40
1
 10
71.999820
 20
3.743040
 30
0.0
 10
72.606960
 20
3.743040
 30
0.0
 10
73.099080
 20
3.251270
 30
0.0
 10
73.099080
 20
2.643790
 30
0.0
  0
SPLINE
  5
111
100
AcDbEntity
  8
0
 62
5
100
AcDbSpline
 70
8
 71
3
 72
8
 73
4
 74
0
 40
0
 40
0
 40
0
 40
0
 40
1
 40
1
 40
1
 40
1
 10
73.099080
 20
2.643790
 30
0.0
 10
73.099080
 20
2.035600
 30
0.0
 10
72.606960
 20
1.543120
 30
0.0
 10
71.999820
 20
1.543120
 30
0.0
  0
SPLINE
  5
112
100
AcDbEntity
  8
0
 62
5
100
AcDbSpline
 70
8
 71
3
 72
8
 73
4
 74
0
 40
0
 40
0
 40
0
 40
0
 40
1
 40
1
 40
1
 40
1
 10
71.999820
 20
1.543120
 30
0.0
 10
71.392340
 20
1.543120
 30
0.0
 10
70.899510
 20
2.035600
 30
0.0
 10
70.899510
 20
2.643790
 30
0.0
  0
SPLINE
  5
113
100
AcDbEntity
  8
0
 62
5
100
AcDbSpline
 70
8
 71
3
 72
8
 73
4
 74
0
 40
0
 40
0
 40
0
 40
0
 40
1
 40
1
 40
1
 40
1
 10
70.899510
 20
2.643790
 30
0.0
 10
70.899510
 20
3.251270
 30
0.0
 10
71.392340
 20
3.743040
 30
0.0
 10
71.999820
 20
3.743040
 30
0.0
  0
SPLINE
  5
114
100
AcDbEntity
  8
0
 62
5
100
AcDbSpline
 70
8
 71
3
 72
8
 73
4
 74
0
 40
0
 40
0
 40
0
 40
0
 40
1
 40
1
 40
1
 40
1
 10
72.440560
 20
28.941631
 30
0.0
 10
72.346360
 20
29.035431
 30
0.0
 10
72.219370
 20
29.088031
 30
0.0
 10
72.086720
 20
29.088031
 30
0.0
  0
SPLINE
  5
115
100
AcDbEntity
  8
0
 62
5
100
AcDbSpline
 70
8
 71
3
 72
8
 73
4
 74
0
 40
0
 40
0
 40
0
 40
0
 40
1
 40
1
 40
1
 40
1
 10
16.088180
 20
29.088391
 30
0.0
 10
15.812310
 20
29.088391
 30
0.0
 10
15.588260
 20
29.312051
 30
0.0
 10
15.588260
 20
29.587921
 30
0.0
  0
LINE
  5
116
100
AcDbEntity
  8
0
 62
5
100
AcDbLine
 10
72.107180
 20
29.087681
 30
0.0
 11
16.088180
 21
29.087681
 31
0.0
  0
SPLINE
  5
117
100
AcDbEntity
  8
0
 62
5
100
AcDbSpline
 70
8
 71
3
 72
8
 73
4
 74
0
 40
0
 40
0
 40
0
 40
0
 40
1
 40
1
 40
1
 40
1
 10
15.588930
 20
84.836451
 30
0.0
 10
15.588930
 20
85.113029
 30
0.0
 10
15.812310
 20
85.336337
 30
0.0
 10
16.088180
 20
85.336337
 30
0.0
  0
LINE
  5
118
100
AcDbEntity
  8
0
 62
5
100
AcDbLine
 10
15.588260
 20
29.588271
 30
0.0
 11
15.588260
 21
84.836804
 31
0.0
  0
SPLINE
  5
119
100
AcDbEntity
  8
0
 62
5
100
AcDbSpline
 70
8
 71
3
 72
8
 73
4
 74
0
 40
0
 40
0
 40
0
 40
0
 40
1
 40
1
 40
1
 40
1
 10
52.087750
 20
85.336690
 30
0.0
 10
52.363620
 20
85.336690
 30
0.0
 10
52.587630
 20
85.560351
 30
0.0
 10
52.587630
 20
85.836223
 30
0.0
  0
LINE
  5
11a
100
AcDbEntity
  8
0
 62
5
100
AcDbLine
 10
16.088180
 20
85.335984
 30
0.0
 11
52.085980
 21
85.335984
 31
0.0
  0
SPLINE
  5
11b
100
AcDbEntity
  8
0
 62
5
100
AcDbSpline
 70
8
 71
3
 72
8
 73
4
 74
0
 40
0
 40
0
 40
0
 40
0
 40
1
 40
1
 40
1
 40
1
 10
52.586930
 20
89.586251
 30
0.0
 10
52.586930
 20
89.862476
 30
0.0
 10
52.811300
 20
90.086490
 30
0.0
 10
53.087170
 20
90.086490
 30
0.0
  0
LINE
  5
11c
100
AcDbEntity
  8
0
 62
5
100
AcDbLine
 10
52.587280
 20
85.836223
 30
0.0
 11
52.587280
 21
89.586251
 31
0.0
  0
SPLINE
  5
11d
100
AcDbEntity
  8
0
 62
5
100
AcDbSpline
 70
8
 71
3
 72
8
 73
4
 74
0
 40
0
 40
0
 40
0
 40
0
 40
1
 40
1
 40
1
 40
1
 10
71.087300
 20
90.086490
 30
0.0
 10
71.363170
 20
90.086490
 30
0.0
 10
71.586130
 20
90.310504
 30
0.0
 10
71.586130
 20
90.586376
 30
0.0
  0
LINE
  5
11e
100
AcDbEntity
  8
0
 62
5
100
AcDbLine
 10
53.087170
 20
90.085785
 30
0.0
 11
71.086240
 21
90.085785
 31
0.0
  0
SPLINE
  5
11f
100
AcDbEntity
  8
0
 62
5
100
AcDbSpline
 70
8
 71
3
 72
8
 73
4
 74
0
 40
0
 40
0
 40
0
 40
0
 40
1
 40
1
 40
1
 40
1
 10
71.586130
 20
91.836268
 30
0.0
 10
71.586130
 20
92.112140
 30
0.0
 10
71.811200
 20
92.336154
 30
0.0
 10
72.087070
 20
92.336154
 30
0.0
  0
LINE
  5
120
100
AcDbEntity
  8
0
 62
5
100
AcDbLine
 10
71.586130
 20
90.586024
 30
0.0
 11
71.586130
 21
91.835563
 31
0.0
  0
SPLINE
  5
121
100
AcDbEntity
  8
0
 62
5
100
AcDbSpline
 70
8
 71
3
 72
8
 73
4
 74
0
 40
0
 40
0
 40
0
 40
0
 40
1
 40
1
 40
1
 40
1
 10
93.086170
 20
92.336507
 30
0.0
 10
93.362050
 20
92.336507
 30
0.0
 10
93.586060
 20
92.112140
 30
0.0
 10
93.586060
 20
91.836268
 30
0.0
  0
LINE
  5
122
100
AcDbEntity
  8
0
 62
5
100
AcDbLine
 10
72.086020
 20
92.335802
 30
0.0
 11
93.086170
 21
92.335802
 31
0.0
  0
SPLINE
  5
123
100
AcDbEntity
  8
0
 62
5
100
AcDbSpline
 70
8
 71
3
 72
8
 73
4
 74
0
 40
0
 40
0
 40
0
 40
0
 40
1
 40
1
 40
1
 40
1
 10
93.586060
 20
90.586024
 30
0.0
 10
93.586060
 20
90.310151
 30
0.0
 10
93.809720
 20
90.086490
 30
0.0
 10
94.086300
 20
90.086490
 30
0.0
  0
LINE
  5
124
100
AcDbEntity
  8
0
 62
5
100
AcDbLine
 10
93.586060
 20
91.835563
 30
0.0
 11
93.586060
 21
90.586024
 31
0.0
  0
SPLINE
  5
125
100
AcDbEntity
  8
0
 62
5
100
AcDbSpline
 70
8
 71
3
 72
8
 73
4
 74
0
 40
0
 40
0
 40
0
 40
0
 40
1
 40
1
 40
1
 40
1
 10
112.085020
 20
90.086490
 30
0.0
 10
112.361600
 20
90.086490
 30
0.0
 10
112.585260
 20
89.862124
 30
0.0
 10
112.585260
 20
89.586251
 30
0.0
  0
LINE
  5
126
100
AcDbEntity
  8
0
 62
5
100
AcDbLine
 10
94.086300
 20
90.085785
 30
0.0
 11
112.085020
 21
90.085785
 31
0.0
  0
SPLINE
  5
127
100
AcDbEntity
  8
0
 62
5
100
AcDbSpline
 70
8
 71
3
 72
8
 73
4
 74
0
 40
0
 40
0
 40
0
 40
0
 40
1
 40
1
 40
1
 40
1
 10
112.585260
 20
88.086240
 30
0.0
 10
112.585260
 20
87.810368
 30
0.0
 10
112.808570
 20
87.586354
 30
0.0
 10
113.085150
 20
87.586354
 30
0.0
  0
LINE
  5
128
100
AcDbEntity
  8
0
 62
5
100
AcDbLine
 10
112.585260
 20
89.586251
 30
0.0
 11
112.585260
 21
88.086240
 31
0.0
  0
SPLINE
  5
129
100
AcDbEntity
  8
0
 62
5
100
AcDbSpline
 70
8
 71
3
 72
8
 73
4
 74
0
 40
0
 40
0
 40
0
 40
0
 40
1
 40
1
 40
1
 40
1
 10
113.085150
 20
87.586001
 30
0.0
 10
125.514150
 20
87.586001
 30
0.0
 10
137.721330
 20
87.586001
 30
0.0
 10
149.274250
 20
87.586001
 30
0.0
  0
SPLINE
  5
12a
100
AcDbEntity
  8
0
 62
5
100
AcDbSpline
 70
8
 71
3
 72
8
 73
4
 74
0
 40
0
 40
0
 40
0
 40
0
 40
1
 40
1
 40
1
 40
1
 10
149.620930
 20
23.576231
 30
0.0
 10
149.927540
 20
24.160081
 30
0.0
 10
149.837340
 20
24.350591
 30
0.0
 10
149.837340
 20
24.879751
 30
0.0
  0
LINE
  5
12b
100
AcDbEntity
  8
0
 62
5
100
AcDbLine
 10
149.837340
 20
24.879751
 30
0.0
 11
149.774840
 21
28.131301
 31
0.0
  0
LINE
  5
12c
100
AcDbEntity
  8
0
 62
5
100
AcDbLine
 10
149.774840
 20
28.131301
 30
0.0
 11
149.774840
 21
87.086461
 31
0.0
  0
SPLINE
  5
12d
100
AcDbEntity
  8
0
 62
5
100
AcDbSpline
 70
8
 71
3
 72
8
 73
4
 74
0
 40
0
 40
0
 40
0
 40
0
 40
1
 40
1
 40
1
 40
1
 10
136.384000
 20
0.539491
 30
0.0
 10
136.118710
 20
0.138381
 30
0.0
 10
135.577200
 20
0.027961
 30
0.0
 10
135.175740
 20
0.295021
 30
0.0
  0
LINE
  5
12e
100
AcDbEntity
  8
0
 62
5
100
AcDbLine
 10
135.175740
 20
0.295021
 30
0.0
 11
135.154540
 21
0.308721
 31
0.0
  0
LINE
  5
12f
100
AcDbEntity
  8
0
 62
5
100
AcDbLine
 10
149.620230
 20
23.576231
 30
0.0
 11
136.384000
 21
0.539491
 31
0.0
  0
SPLINE
  5
130
100
AcDbEntity
  8
0
 62
5
100
AcDbSpline
 70
8
 71
3
 72
8
 73
4
 74
0
 40
0
 40
0
 40
0
 40
0
 40
1
 40
1
 40
1
 40
1
 10
120.406700
 20
8.798021
 30
0.0
 10
120.315700
 20
8.830121
 30
0.0
 10
120.221490
 20
8.853721
 30
0.0
 10
120.126590
 20
8.870021
 30
0.0
  0
LINE
  5
131
100
AcDbEntity
  8
0
 62
5
100
AcDbLine
 10
135.154570
 20
0.308771
 30
0.0
 11
120.405990
 21
8.796961
 31
0.0
  0
SPLINE
  5
132
100
AcDbEntity
  8
0
 62
5
100
AcDbSpline
 70
8
 71
3
 72
8
 73
4
 74
0
 40
0
 40
0
 40
0
 40
0
 40
1
 40
1
 40
1
 40
1
 10
83.336450
 20
14.338391
 30
0.0
 10
83.206980
 20
14.351791
 30
0.0
 10
83.084920
 20
14.403691
 30
0.0
 10
82.986140
 20
14.488681
 30
0.0
  0
LINE
  5
133
100
AcDbEntity
  8
0
 62
5
100
AcDbLine
 10
120.125890
 20
8.869991
 30
0.0
 11
83.336100
 21
14.338391
 31
0.0
  0
LINE
  5
134
100
AcDbEntity
  8
0
 62
5
100
AcDbLine
 10
82.985790
 20
14.487971
 30
0.0
 11
72.436320
 21
28.946221
 31
0.0
  0
LINE
  5
135
100
AcDbEntity
  8
0
 62
5
100
AcDbLine
 10
72.436320
 20
28.946221
 30
0.0
 11
72.440320
 21
28.942221
 31
0.0
  0
SPLINE
  5
136
100
AcDbEntity
  8
0
 62
5
100
AcDbSpline
 70
8
 71
3
 72
8
 73
4
 74
0
 40
0
 40
0
 40
0
 40
0
 40
1
 40
1
 40
1
 40
1
 10
110.004340
 20
70.337279
 30
0.0
 10
110.005130
 20
69.729799
 30
0.0
 10
110.496820
 20
69.237319
 30
0.0
 10
111.104300
 20
69.237319
 30
0.0
  0
SPLINE
  5
137
100
AcDbEntity
  8
0
 62
5
100
AcDbSpline
 70
8
 71
3
 72
8
 73
4
 74
0
 40
0
 40
0
 40
0
 40
0
 40
1
 40
1
 40
1
 40
1
 10
111.104300
 20
69.237319
 30
0.0
 10
111.711780
 20
69.237319
 30
0.0
 10
112.204970
 20
69.729799
 30
0.0
 10
112.204970
 20
70.337279
 30
0.0
  0
SPLINE
  5
138
100
AcDbEntity
  8
0
 62
5
100
AcDbSpline
 70
8
 71
3
 72
8
 73
4
 74
0
 40
0
 40
0
 40
0
 40
0
 40
1
 40
1
 40
1
 40
1
 10
112.204970
 20
70.337279
 30
0.0
 10
112.204970
 20
70.944769
 30
0.0
 10
111.711780
 20
71.437249
 30
0.0
 10
111.104300
 20
71.437249
 30
0.0
  0
SPLINE
  5
139
100
AcDbEntity
  8
0
 62
5
100
AcDbSpline
 70
8
 71
3
 72
8
 73
4
 74
0
 40
0
 40
0
 40
0
 40
0
 40
1
 40
1
 40
1
 40
1
 10
111.104300
 20
71.437249
 30
0.0
 10
110.496820
 20
71.437249
 30
0.0
 10
110.005040
 20
70.944769
 30
0.0
 10
110.005040
 20
70.337279
 30
0.0
  0
SPLINE
  5
13a
100
AcDbEntity
  8
0
 62
5
100
AcDbSpline
 70
8
 71
3
 72
8
 73
4
 74
0
 40
0
 40
0
 40
0
 40
0
 40
1
 40
1
 40
1
 40
1
 10
33.990990
 20
66.714959
 30
0.0
 10
33.990990
 20
66.107479
 30
0.0
 10
34.483500
 20
65.614998
 30
0.0
 10
35.090950
 20
65.614998
 30
0.0
  0
SPLINE
  5
13b
100
AcDbEntity
  8
0
 62
5
100
AcDbSpline
 70
8
 71
3
 72
8
 73
4
 74
0
 40
0
 40
0
 40
0
 40
0
 40
1
 40
1
 40
1
 40
1
 10
35.090950
 20
65.614998
 30
0.0
 10
35.698360
 20
65.614998
 30
0.0
 10
36.190870
 20
66.107479
 30
0.0
 10
36.190870
 20
66.714959
 30
0.0
  0
SPLINE
  5
13c
100
AcDbEntity
  8
0
 62
5
100
AcDbSpline
 70
8
 71
3
 72
8
 73
4
 74
0
 40
0
 40
0
 40
0
 40
0
 40
1
 40
1
 40
1
 40
1
 10
36.190870
 20
66.714959
 30
0.0
 10
36.190870
 20
67.322449
 30
0.0
 10
35.698360
 20
67.814919
 30
0.0
 10
35.090950
 20
67.814919
 30
0.0
  0
SPLINE
  5
13d
100
AcDbEntity
  8
0
 62
5
100
AcDbSpline
 70
8
 71
3
 72
8
 73
4
 74
0
 40
0
 40
0
 40
0
 40
0
 40
1
 40
1
 40
1
 40
1
 10
35.090950
 20
67.814919
 30
0.0
 10
34.483500
 20
67.814919
 30
0.0
 10
33.990990
 20
67.322449
 30
0.0
 10
33.990990
 20
66.714959
 30
0.0
  0
SPLINE
  5
13e
100
AcDbEntity
  8
0
 62
5
100
AcDbSpline
 70
8
 71
3
 72
8
 73
4
 74
0
 40
0
 40
0
 40
0
 40
0
 40
1
 40
1
 40
1
 40
1
 10
33.982170
 20
47.701298
 30
0.0
 10
33.982170
 20
47.094519
 30
0.0
 10
34.474680
 20
46.602039
 30
0.0
 10
35.082130
 20
46.602039
 30
0.0
  0
SPLINE
  5
13f
100
AcDbEntity
  8
0
 62
5
100
AcDbSpline
 70
8
 71
3
 72
8
 73
4
 74
0
 40
0
 40
0
 40
0
 40
0
 40
1
 40
1
 40
1
 40
1
 10
35.082130
 20
46.602039
 30
0.0
 10
35.689540
 20
46.602039
 30
0.0
 10
36.182060
 20
47.094519
 30
0.0
 10
36.182060
 20
47.701298
 30
0.0
  0
SPLINE
  5
140
100
AcDbEntity
  8
0
 62
5
100
AcDbSpline
 70
8
 71
3
 72
8
 73
4
 74
0
 40
0
 40
0
 40
0
 40
0
 40
1
 40
1
 40
1
 40
1
 10
36.182060
 20
47.701298
 30
0.0
 10
36.182060
 20
48.309488
 30
0.0
 10
35.689540
 20
48.801960
 30
0.0
 10
35.082130
 20
48.801960
 30
0.0
  0
SPLINE
  5
141
100
AcDbEntity
  8
0
 62
5
100
AcDbSpline
 70
8
 71
3
 72
8
 73
4
 74
0
 40
0
 40
0
 40
0
 40
0
 40
1
 40
1
 40
1
 40
1
 10
35.082130
 20
48.801960
 30
0.0
 10
34.474680
 20
48.801960
 30
0.0
 10
33.982170
 20
48.309488
 30
0.0
 10
33.982170
 20
47.701298
 30
0.0
  0
SPLINE
  5
142
100
AcDbEntity
  8
0
 62
5
100
AcDbSpline
 70
8
 71
3
 72
8
 73
4
 74
0
 40
0
 40
0
 40
0
 40
0
 40
1
 40
1
 40
1
 40
1
 10
123.745030
 20
22.839991
 30
0.0
 10
123.745030
 20
22.232501
 30
0.0
 10
124.237510
 20
21.740381
 30
0.0
 10
124.844990
 20
21.740381
 30
0.0
  0
SPLINE
  5
143
100
AcDbEntity
  8
0
 62
5
100
AcDbSpline
 70
8
 71
3
 72
8
 73
4
 74
0
 40
0
 40
0
 40
0
 40
0
 40
1
 40
1
 40
1
 40
1
 10
124.844990
 20
21.740381
 30
0.0
 10
125.452480
 20
21.740381
 30
0.0
 10
125.944960
 20
22.232501
 30
0.0
 10
125.944960
 20
22.840341
 30
0.0
  0
SPLINE
  5
144
100
AcDbEntity
  8
0
 62
5
100
AcDbSpline
 70
8
 71
3
 72
8
 73
4
 74
0
 40
0
 40
0
 40
0
 40
0
 40
1
 40
1
 40
1
 40
1
 10
125.944960
 20
22.840341
 30
0.0
 10
125.944960
 20
23.447821
 30
0.0
 10
125.452480
 20
23.939951
 30
0.0
 10
124.844990
 20
23.939951
 30
0.0
  0
SPLINE
  5
145
100
AcDbEntity
  8
0
 62
5
100
AcDbSpline
 70
8
 71
3
 72
8
 73
4
 74
0
 40
0
 40
0
 40
0
 40
0
 40
1
 40
1
 40
1
 40
1
 10
124.844990
 20
23.939951
 30
0.0
 10
124.237510
 20
23.939951
 30
0.0
 10
123.745030
 20
23.447821
 30
0.0
 10
123.745030
 20
22.840341
 30
0.0
  0
SPLINE
  5
146
100
AcDbEntity
  8
0
 62
5
100
AcDbSpline
 70
8
 71
3
 72
8
 73
4
 74
0
 40
0
 40
0
 40
0
 40
0
 40
1
 40
1
 40
1
 40
1
 10
77.229520
 20
30.594401
 30
0.0
 10
77.229520
 20
29.986211
 30
0.0
 10
77.721990
 20
29.494431
 30
0.0
 10
78.329480
 20
29.494431
 30
0.0
  0
SPLINE
  5
147
100
AcDbEntity
  8
0
 62
5
100
AcDbSpline
 70
8
 71
3
 72
8
 73
4
 74
0
 40
0
 40
0
 40
0
 40
0
 40
1
 40
1
 40
1
 40
1
 10
78.329480
 20
29.494431
 30
0.0
 10
78.936960
 20
29.494431
 30
0.0
 10
79.429440
 20
29.986211
 30
0.0
 10
79.429440
 20
30.593691
 30
0.0
  0
SPLINE
  5
148
100
AcDbEntity
  8
0
 62
5
100
AcDbSpline
 70
8
 71
3
 72
8
 73
4
 74
0
 40
0
 40
0
 40
0
 40
0
 40
1
 40
1
 40
1
 40
1
 10
79.429440
 20
30.593691
 30
0.0
 10
79.429440
 20
31.201171
 30
0.0
 10
78.936960
 20
31.693651
 30
0.0
 10
78.329480
 20
31.693651
 30
0.0
  0
SPLINE
  5
149
100
AcDbEntity
  8
0
 62
5
100
AcDbSpline
 70
8
 71
3
 72
8
 73
4
 74
0
 40
0
 40
0
 40
0
 40
0
 40
1
 40
1
 40
1
 40
1
 10
78.329480
 20
31.693651
 30
0.0
 10
77.721990
 20
31.693651
 30
0.0
 10
77.229520
 20
31.201171
 30
0.0
 10
77.229520
 20
30.593691
 30
0.0
  0
SPLINE
  5
14a
100
AcDbEntity
  8
0
 62
5
100
AcDbSpline
 70
8
 71
3
 72
8
 73
4
 74
0
 40
0
 40
0
 40
0
 40
0
 40
1
 40
1
 40
1
 40
1
 10
149.774840
 20
87.086462
 30
0.0
 10
149.774840
 20
87.362692
 30
0.0
 10
149.551530
 20
87.586702
 30
0.0
 10
149.274950
 20
87.586702
 30
0.0
  0
ENDSEC
  0
SECTION
  2
OBJECTS
  0
DICTIONARY
  5
C
330
0
100
AcDbDictionary
  3
ACAD_GROUP
350
D
  3
ACAD_MLINESTYLE
350
17
  0
DICTIONARY
  5
D
330
C
100
AcDbDictionary
  0
DICTIONARY
  5
1A
330
C
100
AcDbDictionary
  0
DICTIONARY
  5
17
330
C
100
AcDbDictionary
  3
STANDARD
350
18
  0
DICTIONARY
  5
19
330
C
100
AcDbDictionary
  0
ENDSEC
  0
EOF
