  0
SECTION
  2
HEADER
  9
$ACADVER
  1
AC1014
  9
$HANDSEED
  5
FFFF
  9
$MEASUREMENT
 70
     1
  0
ENDSEC
  0
SECTION
  2
TABLES
  0
TABLE
  2
VPORT
  5
8
330
0
100
AcDbSymbolTable
 70
     4
  0
VPORT
  5
2E
330
8
100
AcDbSymbolTableRecord
100
AcDbViewportTableRecord
  2
*ACTIVE
 70
     0
 10
0.0
 20
0.0
 11
1.0
 21
1.0
 12
210.0
 22
148.5
 13
0.0
 23
0.0
 14
10.0
 24
10.0
 15
10.0
 25
10.0
 16
0.0
 26
0.0
 36
1.0
 17
0.0
 27
0.0
 37
0.0
 40
341.0
 41
1.24
 42
50.0
 43
0.0
 44
0.0
 50
0.0
 51
0.0
 71
     0
 72
   100
 73
     1
 74
     3
 75
     0
 76
     0
 77
     0
 78
     0
  0
ENDTAB
  0
TABLE
  2
LTYPE
  5
5
330
0
100
AcDbSymbolTable
 70
     1
  0
LTYPE
  5
14
330
5
100
AcDbSymbolTableRecord
100
AcDbLinetypeTableRecord
  2
BYBLOCK
 70
     0
  3

 72
    65
 73
     0
 40
0.0
  0
LTYPE
  5
15
330
5
100
AcDbSymbolTableRecord
100
AcDbLinetypeTableRecord
  2
BYLAYER
 70
     0
  3

 72
    65
 73
     0
 40
0.0
  0
LTYPE
  5
16
330
5
100
AcDbSymbolTableRecord
100
AcDbLinetypeTableRecord
  2
CONTINUOUS
 70
     0
  3
Solid line
 72
    65
 73
     0
 40
0.0
  0
ENDTAB
  0
TABLE
  2
LAYER
  5
2
100
AcDbSymbolTable
 70
2
  0
LAYER
  5
50
100
AcDbSymbolTableRecord
100
AcDbLayerTableRecord
  2
0
 70
0
  6
CONTINUOUS
  0
LAYER
  5
51
100
AcDbSymbolTableRecord
100
AcDbLayerTableRecord
  2
top-bottom
 70
0
  6
CONTINUOUS
  0
ENDTAB
  0
TABLE
  2
STYLE
  5
3
330
0
100
AcDbSymbolTable
 70
     1
  0
STYLE
  5
11
330
3
100
AcDbSymbolTableRecord
100
AcDbTextStyleTableRecord
  2
STANDARD
 70
     0
 40
0.0
 41
1.0
 50
0.0
 71
     0
 42
2.5
  3
txt
  4

  0
ENDTAB
  0
TABLE
  2
VIEW
  5
6
330
0
100
AcDbSymbolTable
 70
     0
  0
ENDTAB
  0
TABLE
  2
UCS
  5
7
330
0
100
AcDbSymbolTable
 70
     0
  0
ENDTAB
  0
TABLE
  2
APPID
  5
9
330
0
100
AcDbSymbolTable
 70
     2
  0
APPID
  5
12
330
9
100
AcDbSymbolTableRecord
100
AcDbRegAppTableRecord
  2
ACAD
 70
     0
  0
ENDTAB
  0
TABLE
  2
DIMSTYLE
  5
A
330
0
100
AcDbSymbolTable
 70
     1
  0
DIMSTYLE
105
27
330
A
100
AcDbSymbolTableRecord
100
AcDbDimStyleTableRecord
  2
ISO-25
 70
     0
  3

  4

  5

  6

  7

 40
1.0
 41
2.5
 42
0.625
 43
3.75
 44
1.25
 45
0.0
 46
0.0
 47
0.0
 48
0.0
140
2.5
141
2.5
142
0.0
143
0.03937007874016
144
1.0
145
0.0
146
1.0
147
0.625
 71
     0
 72
     0
 73
     0
 74
     0
 75
     0
 76
     0
 77
     1
 78
     8
170
     0
171
     3
172
     1
173
     0
174
     0
175
     0
176
     0
177
     0
178
     0
270
     2
271
     2
272
     2
273
     2
274
     3
340
11
275
     0
280
     0
281
     0
282
     0
283
     0
284
     8
285
     0
286
     0
287
     3
288
     0
  0
ENDTAB
  0
TABLE
  2
BLOCK_RECORD
  5
1
330
0
100
AcDbSymbolTable
 70
     1
  0
BLOCK_RECORD
  5
1F
330
1
100
AcDbSymbolTableRecord
100
AcDbBlockTableRecord
  2
*MODEL_SPACE
  0
BLOCK_RECORD
  5
1B
330
1
100
AcDbSymbolTableRecord
100
AcDbBlockTableRecord
  2
*PAPER_SPACE
  0
ENDTAB
  0
ENDSEC
  0
SECTION
  2
BLOCKS
  0
BLOCK
  5
20
330
1F
100
AcDbEntity
  8
0
100
AcDbBlockBegin
  2
*MODEL_SPACE
 70
     0
 10
0.0
 20
0.0
 30
0.0
  3
*MODEL_SPACE
  1

  0
ENDBLK
  5
21
330
1F
100
AcDbEntity
  8
0
100
AcDbBlockEnd
  0
BLOCK
  5
1C
330
1B
100
AcDbEntity
 67
     1
  8
0
100
AcDbBlockBegin
  2
*PAPER_SPACE
  1

  0
ENDBLK
  5
1D
330
1B
100
AcDbEntity
 67
     1
  8
0
100
AcDbBlockEnd
  0
ENDSEC
  0
SECTION
  2
ENTITIES
  0
LINE
  5
100
100
AcDbEntity
  8
top-bottom
 62
5
100
AcDbLine
 10
17.159473
 20
33.792504
 30
0.0
 11
24.076719
 21
21.792453
 31
0.0
  0
LINE
  5
101
100
AcDbEntity
  8
top-bottom
 62
5
100
AcDbLine
 10
24.076719
 20
21.792453
 30
0.0
 11
12.076667
 21
14.875208
 31
0.0
  0
LINE
  5
102
100
AcDbEntity
  8
top-bottom
 62
5
100
AcDbLine
 10
12.076667
 20
14.875208
 30
0.0
 11
5.159422
 21
26.875259
 31
0.0
  0
LINE
  5
103
100
AcDbEntity
  8
top-bottom
 62
5
100
AcDbLine
 10
5.159422
 20
26.875259
 30
0.0
 11
17.159473
 21
33.792504
 31
0.0
  0
LINE
  5
104
100
AcDbEntity
  8
top-bottom
 62
5
100
AcDbLine
 10
149.322599
 20
20.747980
 30
0.0
 11
101.966212
 21
20.747980
 31
0.0
  0
SPLINE
  5
105
100
AcDbEntity
  8
top-bottom
 62
5
100
AcDbSpline
 70
8
 71
3
 72
8
 73
4
 74
0
 40
0
 40
0
 40
0
 40
0
 40
1
 40
1
 40
1
 40
1
 10
101.966212
 20
20.747980
 30
0.0
 10
101.443044
 20
20.688361
 30
0.0
 10
101.184811
 20
20.453765
 30
0.0
 10
100.884246
 20
20.109102
 30
0.0
  0
LINE
  5
106
100
AcDbEntity
  8
top-bottom
 62
5
100
AcDbLine
 10
100.884246
 20
20.109102
 30
0.0
 11
90.027897
 21
1.269417
 31
0.0
  0
SPLINE
  5
107
100
AcDbEntity
  8
top-bottom
 62
5
100
AcDbSpline
 70
8
 71
3
 72
8
 73
4
 74
0
 40
0
 40
0
 40
0
 40
0
 40
1
 40
1
 40
1
 40
1
 10
90.027897
 20
1.269417
 30
0.0
 10
89.857858
 20
0.864782
 30
0.0
 10
90.048005
 20
0.398764
 30
0.0
 10
90.452640
 20
0.228373
 30
0.0
  0
SPLINE
  5
108
100
AcDbEntity
  8
top-bottom
 62
5
100
AcDbSpline
 70
8
 71
3
 72
8
 73
4
 74
0
 40
0
 40
0
 40
0
 40
0
 40
1
 40
1
 40
1
 40
1
 10
90.452640
 20
0.228373
 30
0.0
 10
90.512259
 20
0.203678
 30
0.0
 10
90.574700
 20
0.185687
 30
0.0
 10
90.638553
 20
0.176162
 30
0.0
  0
LINE
  5
109
100
AcDbEntity
  8
top-bottom
 62
5
100
AcDbLine
 10
90.638553
 20
0.176162
 30
0.0
 11
149.312368
 21
0.176867
 31
0.0
  0
SPLINE
  5
10a
100
AcDbEntity
  8
top-bottom
 62
5
100
AcDbSpline
 70
8
 71
3
 72
8
 73
4
 74
0
 40
0
 40
0
 40
0
 40
0
 40
1
 40
1
 40
1
 40
1
 10
149.312368
 20
0.176867
 30
0.0
 10
149.588240
 20
0.176867
 30
0.0
 10
149.812253
 20
0.400880
 30
0.0
 10
149.812253
 20
0.677105
 30
0.0
  0
LINE
  5
10b
100
AcDbEntity
  8
top-bottom
 62
5
100
AcDbLine
 10
149.812253
 20
0.677105
 30
0.0
 11
149.823189
 21
20.247743
 31
0.0
  0
SPLINE
  5
10c
100
AcDbEntity
  8
top-bottom
 62
5
100
AcDbSpline
 70
8
 71
3
 72
8
 73
4
 74
0
 40
0
 40
0
 40
0
 40
0
 40
1
 40
1
 40
1
 40
1
 10
149.823189
 20
20.247743
 30
0.0
 10
149.822483
 20
20.523967
 30
0.0
 10
149.598470
 20
20.747980
 30
0.0
 10
149.322599
 20
20.747980
 30
0.0
  0
SPLINE
  5
10d
100
AcDbEntity
  8
top-bottom
 62
5
100
AcDbSpline
 70
8
 71
3
 72
8
 73
4
 74
0
 40
0
 40
0
 40
0
 40
0
 40
1
 40
1
 40
1
 40
1
 10
102.349221
 20
18.270818
 30
0.0
 10
102.957056
 20
18.270818
 30
0.0
 10
103.449179
 20
17.778342
 30
0.0
 10
103.449179
 20
17.170860
 30
0.0
  0
SPLINE
  5
10e
100
AcDbEntity
  8
top-bottom
 62
5
100
AcDbSpline
 70
8
 71
3
 72
8
 73
4
 74
0
 40
0
 40
0
 40
0
 40
0
 40
1
 40
1
 40
1
 40
1
 10
103.449179
 20
17.170860
 30
0.0
 10
103.449179
 20
16.563379
 30
0.0
 10
102.957056
 20
16.070550
 30
0.0
 10
102.349221
 20
16.070550
 30
0.0
  0
SPLINE
  5
10f
100
AcDbEntity
  8
top-bottom
 62
5
100
AcDbSpline
 70
8
 71
3
 72
8
 73
4
 74
0
 40
0
 40
0
 40
0
 40
0
 40
1
 40
1
 40
1
 40
1
 10
102.349221
 20
16.070550
 30
0.0
 10
101.741740
 20
16.070550
 30
0.0
 10
101.249264
 20
16.563379
 30
0.0
 10
101.249264
 20
17.170860
 30
0.0
  0
SPLINE
  5
110
100
AcDbEntity
  8
top-bottom
 62
5
100
AcDbSpline
 70
8
 71
3
 72
8
 73
4
 74
0
 40
0
 40
0
 40
0
 40
0
 40
1
 40
1
 40
1
 40
1
 10
101.249264
 20
17.170860
 30
0.0
 10
101.249264
 20
17.778342
 30
0.0
 10
101.741740
 20
18.270818
 30
0.0
 10
102.349221
 20
18.270818
 30
0.0
  0
LINE
  5
111
100
AcDbEntity
  8
top-bottom
 62
5
100
AcDbLine
 10
102.349221
 20
18.270818
 30
0.0
 11
102.349221
 21
18.270818
 31
0.0
  0
SPLINE
  5
112
100
AcDbEntity
  8
top-bottom
 62
5
100
AcDbSpline
 70
8
 71
3
 72
8
 73
4
 74
0
 40
0
 40
0
 40
0
 40
0
 40
1
 40
1
 40
1
 40
1
 10
93.848821
 20
3.769933
 30
0.0
 10
94.456302
 20
3.769933
 30
0.0
 10
94.948778
 20
3.277457
 30
0.0
 10
94.948778
 20
2.669622
 30
0.0
  0
SPLINE
  5
113
100
AcDbEntity
  8
top-bottom
 62
5
100
AcDbSpline
 70
8
 71
3
 72
8
 73
4
 74
0
 40
0
 40
0
 40
0
 40
0
 40
1
 40
1
 40
1
 40
1
 10
94.948778
 20
2.669622
 30
0.0
 10
94.948778
 20
2.062141
 30
0.0
 10
94.456302
 20
1.569665
 30
0.0
 10
93.848821
 20
1.569665
 30
0.0
  0
SPLINE
  5
114
100
AcDbEntity
  8
top-bottom
 62
5
100
AcDbSpline
 70
8
 71
3
 72
8
 73
4
 74
0
 40
0
 40
0
 40
0
 40
0
 40
1
 40
1
 40
1
 40
1
 10
93.848821
 20
1.569665
 30
0.0
 10
93.240986
 20
1.569665
 30
0.0
 10
92.748510
 20
2.062141
 30
0.0
 10
92.748510
 20
2.669622
 30
0.0
  0
SPLINE
  5
115
100
AcDbEntity
  8
top-bottom
 62
5
100
AcDbSpline
 70
8
 71
3
 72
8
 73
4
 74
0
 40
0
 40
0
 40
0
 40
0
 40
1
 40
1
 40
1
 40
1
 10
92.748510
 20
2.669622
 30
0.0
 10
92.748510
 20
3.277457
 30
0.0
 10
93.240986
 20
3.769933
 30
0.0
 10
93.848821
 20
3.769933
 30
0.0
  0
LINE
  5
116
100
AcDbEntity
  8
top-bottom
 62
5
100
AcDbLine
 10
93.848821
 20
3.769933
 30
0.0
 11
93.848821
 21
3.769933
 31
0.0
  0
SPLINE
  5
117
100
AcDbEntity
  8
top-bottom
 62
5
100
AcDbSpline
 70
8
 71
3
 72
8
 73
4
 74
0
 40
0
 40
0
 40
0
 40
0
 40
1
 40
1
 40
1
 40
1
 10
77.518397
 20
36.422490
 30
0.0
 10
77.612236
 20
36.516328
 30
0.0
 10
77.739235
 20
36.568892
 30
0.0
 10
77.871879
 20
36.568892
 30
0.0
  0
LINE
  5
118
100
AcDbEntity
  8
top-bottom
 62
5
100
AcDbLine
 10
77.871879
 20
36.568892
 30
0.0
 11
113.874502
 21
36.568892
 31
0.0
  0
LINE
  5
119
100
AcDbEntity
  8
top-bottom
 62
5
100
AcDbLine
 10
113.874502
 20
36.568892
 30
0.0
 11
115.874393
 21
36.568892
 31
0.0
  0
LINE
  5
11a
100
AcDbEntity
  8
top-bottom
 62
5
100
AcDbLine
 10
115.874393
 20
36.568892
 30
0.0
 11
132.875406
 21
36.568892
 31
0.0
  0
SPLINE
  5
11b
100
AcDbEntity
  8
top-bottom
 62
5
100
AcDbSpline
 70
8
 71
3
 72
8
 73
4
 74
0
 40
0
 40
0
 40
0
 40
0
 40
1
 40
1
 40
1
 40
1
 10
132.875406
 20
36.568892
 30
0.0
 10
133.151983
 20
36.568892
 30
0.0
 10
133.375644
 20
36.792905
 30
0.0
 10
133.375644
 20
37.068777
 30
0.0
  0
LINE
  5
11c
100
AcDbEntity
  8
top-bottom
 62
5
100
AcDbLine
 10
133.375644
 20
37.068777
 30
0.0
 11
133.375644
 21
92.322775
 31
0.0
  0
SPLINE
  5
11d
100
AcDbEntity
  8
top-bottom
 62
5
100
AcDbSpline
 70
8
 71
3
 72
8
 73
4
 74
0
 40
0
 40
0
 40
0
 40
0
 40
1
 40
1
 40
1
 40
1
 10
133.375644
 20
92.322775
 30
0.0
 10
133.375644
 20
92.598646
 30
0.0
 10
133.151983
 20
92.822659
 30
0.0
 10
132.875406
 20
92.822659
 30
0.0
  0
LINE
  5
11e
100
AcDbEntity
  8
top-bottom
 62
5
100
AcDbLine
 10
132.875406
 20
92.822659
 30
0.0
 11
115.874393
 21
92.822659
 31
0.0
  0
LINE
  5
11f
100
AcDbEntity
  8
top-bottom
 62
5
100
AcDbLine
 10
115.874393
 20
92.822659
 30
0.0
 11
113.874502
 21
92.822659
 31
0.0
  0
LINE
  5
120
100
AcDbEntity
  8
top-bottom
 62
5
100
AcDbLine
 10
113.874502
 20
92.822659
 30
0.0
 11
95.873014
 21
92.822659
 31
0.0
  0
SPLINE
  5
121
100
AcDbEntity
  8
top-bottom
 62
5
100
AcDbSpline
 70
8
 71
3
 72
8
 73
4
 74
0
 40
0
 40
0
 40
0
 40
0
 40
1
 40
1
 40
1
 40
1
 10
95.873014
 20
92.822659
 30
0.0
 10
95.597143
 20
92.822659
 30
0.0
 10
95.373130
 20
93.046673
 30
0.0
 10
95.373130
 20
93.322544
 30
0.0
  0
LINE
  5
122
100
AcDbEntity
  8
top-bottom
 62
5
100
AcDbLine
 10
95.373130
 20
93.322544
 30
0.0
 11
95.373130
 21
97.072913
 31
0.0
  0
SPLINE
  5
123
100
AcDbEntity
  8
top-bottom
 62
5
100
AcDbSpline
 70
8
 71
3
 72
8
 73
4
 74
0
 40
0
 40
0
 40
0
 40
0
 40
1
 40
1
 40
1
 40
1
 10
95.373130
 20
97.072913
 30
0.0
 10
95.373130
 20
97.349137
 30
0.0
 10
95.149117
 20
97.573150
 30
0.0
 10
94.872893
 20
97.573150
 30
0.0
  0
LINE
  5
124
100
AcDbEntity
  8
top-bottom
 62
5
100
AcDbLine
 10
94.872893
 20
97.573150
 30
0.0
 11
76.871758
 21
97.573150
 31
0.0
  0
SPLINE
  5
125
100
AcDbEntity
  8
top-bottom
 62
5
100
AcDbSpline
 70
8
 71
3
 72
8
 73
4
 74
0
 40
0
 40
0
 40
0
 40
0
 40
1
 40
1
 40
1
 40
1
 10
76.871758
 20
97.573150
 30
0.0
 10
76.595533
 20
97.573150
 30
0.0
 10
76.371873
 20
97.797163
 30
0.0
 10
76.371873
 20
98.073035
 30
0.0
  0
LINE
  5
126
100
AcDbEntity
  8
top-bottom
 62
5
100
AcDbLine
 10
76.371873
 20
98.073035
 30
0.0
 11
76.371873
 21
99.323275
 31
0.0
  0
SPLINE
  5
127
100
AcDbEntity
  8
top-bottom
 62
5
100
AcDbSpline
 70
8
 71
3
 72
8
 73
4
 74
0
 40
0
 40
0
 40
0
 40
0
 40
1
 40
1
 40
1
 40
1
 10
76.371873
 20
99.323275
 30
0.0
 10
76.371873
 20
99.599146
 30
0.0
 10
76.147860
 20
99.823160
 30
0.0
 10
75.871988
 20
99.823160
 30
0.0
  0
LINE
  5
128
100
AcDbEntity
  8
top-bottom
 62
5
100
AcDbLine
 10
75.871988
 20
99.823160
 30
0.0
 11
58.870622
 21
99.823160
 31
0.0
  0
SPLINE
  5
129
100
AcDbEntity
  8
top-bottom
 62
5
100
AcDbSpline
 70
8
 71
3
 72
8
 73
4
 74
0
 40
0
 40
0
 40
0
 40
0
 40
1
 40
1
 40
1
 40
1
 10
58.870622
 20
99.823160
 30
0.0
 10
58.594398
 20
99.823160
 30
0.0
 10
58.370738
 20
99.599146
 30
0.0
 10
58.370738
 20
99.323275
 30
0.0
  0
LINE
  5
12a
100
AcDbEntity
  8
top-bottom
 62
5
100
AcDbLine
 10
58.370738
 20
99.323275
 30
0.0
 11
58.370738
 21
98.073035
 31
0.0
  0
SPLINE
  5
12b
100
AcDbEntity
  8
top-bottom
 62
5
100
AcDbSpline
 70
8
 71
3
 72
8
 73
4
 74
0
 40
0
 40
0
 40
0
 40
0
 40
1
 40
1
 40
1
 40
1
 10
58.370738
 20
98.073035
 30
0.0
 10
58.370738
 20
97.797163
 30
0.0
 10
58.146725
 20
97.573150
 30
0.0
 10
57.870501
 20
97.573150
 30
0.0
  0
LINE
  5
12c
100
AcDbEntity
  8
top-bottom
 62
5
100
AcDbLine
 10
57.870501
 20
97.573150
 30
0.0
 11
39.869366
 21
97.573150
 31
0.0
  0
SPLINE
  5
12d
100
AcDbEntity
  8
top-bottom
 62
5
100
AcDbSpline
 70
8
 71
3
 72
8
 73
4
 74
0
 40
0
 40
0
 40
0
 40
0
 40
1
 40
1
 40
1
 40
1
 10
39.869366
 20
97.573150
 30
0.0
 10
39.593141
 20
97.573150
 30
0.0
 10
39.369128
 20
97.349137
 30
0.0
 10
39.369128
 20
97.072913
 30
0.0
  0
LINE
  5
12e
100
AcDbEntity
  8
top-bottom
 62
5
100
AcDbLine
 10
39.369128
 20
97.072913
 30
0.0
 11
39.369128
 21
95.572906
 31
0.0
  0
SPLINE
  5
12f
100
AcDbEntity
  8
top-bottom
 62
5
100
AcDbSpline
 70
8
 71
3
 72
8
 73
4
 74
0
 40
0
 40
0
 40
0
 40
0
 40
1
 40
1
 40
1
 40
1
 10
39.369128
 20
95.572906
 30
0.0
 10
39.369128
 20
95.296682
 30
0.0
 10
39.145468
 20
95.073022
 30
0.0
 10
38.869244
 20
95.073022
 30
0.0
  0
LINE
  5
130
100
AcDbEntity
  8
top-bottom
 62
5
100
AcDbLine
 10
38.869244
 20
95.073022
 30
0.0
 11
20.868109
 21
95.073022
 31
0.0
  0
SPLINE
  5
131
100
AcDbEntity
  8
top-bottom
 62
5
100
AcDbSpline
 70
8
 71
3
 72
8
 73
4
 74
0
 40
0
 40
0
 40
0
 40
0
 40
1
 40
1
 40
1
 40
1
 10
20.868109
 20
95.073022
 30
0.0
 10
20.591885
 20
95.073022
 30
0.0
 10
20.368225
 20
94.849009
 30
0.0
 10
20.368225
 20
94.572785
 30
0.0
  0
LINE
  5
132
100
AcDbEntity
  8
top-bottom
 62
5
100
AcDbLine
 10
20.368225
 20
94.572785
 30
0.0
 11
20.368225
 21
93.338066
 31
0.0
  0
LINE
  5
133
100
AcDbEntity
  8
top-bottom
 62
5
100
AcDbLine
 10
20.368225
 20
93.338066
 30
0.0
 11
20.368578
 21
77.077531
 31
0.0
  0
LINE
  5
134
100
AcDbEntity
  8
top-bottom
 62
5
100
AcDbLine
 10
20.368578
 20
77.077531
 30
0.0
 11
20.368578
 21
44.784708
 31
0.0
  0
SPLINE
  5
135
100
AcDbEntity
  8
top-bottom
 62
5
100
AcDbSpline
 70
8
 71
3
 72
8
 73
4
 74
0
 40
0
 40
0
 40
0
 40
0
 40
1
 40
1
 40
1
 40
1
 10
20.368578
 20
44.784708
 30
0.0
 10
20.286381
 20
44.401240
 30
0.0
 10
20.083534
 20
44.054460
 30
0.0
 10
19.789671
 20
43.794816
 30
0.0
  0
LINE
  5
136
100
AcDbEntity
  8
top-bottom
 62
5
100
AcDbLine
 10
19.789671
 20
43.794816
 30
0.0
 11
0.712920
 21
32.757493
 31
0.0
  0
SPLINE
  5
137
100
AcDbEntity
  8
top-bottom
 62
5
100
AcDbSpline
 70
8
 71
3
 72
8
 73
4
 74
0
 40
0
 40
0
 40
0
 40
0
 40
1
 40
1
 40
1
 40
1
 10
0.712920
 20
32.757493
 30
0.0
 10
0.185519
 20
32.360972
 30
0.0
 10
0.023594
 20
31.640602
 30
0.0
 10
0.330157
 20
31.056757
 30
0.0
  0
LINE
  5
138
100
AcDbEntity
  8
top-bottom
 62
5
100
AcDbLine
 10
0.330157
 20
31.056757
 30
0.0
 11
13.567396
 21
8.016912
 31
0.0
  0
SPLINE
  5
139
100
AcDbEntity
  8
top-bottom
 62
5
100
AcDbSpline
 70
8
 71
3
 72
8
 73
4
 74
0
 40
0
 40
0
 40
0
 40
0
 40
1
 40
1
 40
1
 40
1
 10
13.567396
 20
8.016912
 30
0.0
 10
13.572335
 20
8.009857
 30
0.0
 10
13.577274
 20
8.002449
 30
0.0
 10
13.582213
 20
7.995746
 30
0.0
  0
SPLINE
  5
13a
100
AcDbEntity
  8
top-bottom
 62
5
100
AcDbSpline
 70
8
 71
3
 72
8
 73
4
 74
0
 40
0
 40
0
 40
0
 40
0
 40
1
 40
1
 40
1
 40
1
 10
13.582213
 20
7.995746
 30
0.0
 10
13.860201
 20
7.602400
 30
0.0
 10
14.404183
 20
7.508914
 30
0.0
 10
14.797528
 20
7.786902
 30
0.0
  0
LINE
  5
13b
100
AcDbEntity
  8
top-bottom
 62
5
100
AcDbLine
 10
14.797528
 20
7.786902
 30
0.0
 11
29.547474
 21
16.276472
 31
0.0
  0
SPLINE
  5
13c
100
AcDbEntity
  8
top-bottom
 62
5
100
AcDbSpline
 70
8
 71
3
 72
8
 73
4
 74
0
 40
0
 40
0
 40
0
 40
0
 40
1
 40
1
 40
1
 40
1
 10
29.547474
 20
16.276472
 30
0.0
 10
29.638490
 20
16.307870
 30
0.0
 10
29.731976
 20
16.332211
 30
0.0
 10
29.827578
 20
16.348792
 30
0.0
  0
LINE
  5
13d
100
AcDbEntity
  8
top-bottom
 62
5
100
AcDbLine
 10
29.827578
 20
16.348792
 30
0.0
 11
66.621126
 21
21.817888
 31
0.0
  0
SPLINE
  5
13e
100
AcDbEntity
  8
top-bottom
 62
5
100
AcDbSpline
 70
8
 71
3
 72
8
 73
4
 74
0
 40
0
 40
0
 40
0
 40
0
 40
1
 40
1
 40
1
 40
1
 10
66.621126
 20
21.817888
 30
0.0
 10
66.750595
 20
21.830941
 30
0.0
 10
66.872656
 20
21.883152
 30
0.0
 10
66.971080
 20
21.967818
 30
0.0
  0
SPLINE
  5
13f
100
AcDbEntity
  8
top-bottom
 62
5
100
AcDbSpline
 70
8
 71
3
 72
8
 73
4
 74
0
 40
0
 40
0
 40
0
 40
0
 40
1
 40
1
 40
1
 40
1
 10
66.971080
 20
21.967818
 30
0.0
 10
66.971080
 20
21.967818
 30
0.0
 10
77.521925
 20
36.427076
 30
0.0
 10
77.518397
 20
36.422490
 30
0.0
  0
LINE
  5
140
100
AcDbEntity
  8
top-bottom
 62
5
100
AcDbLine
 10
77.518397
 20
36.422490
 30
0.0
 11
77.518397
 21
36.422490
 31
0.0
  0
SPLINE
  5
141
100
AcDbEntity
  8
top-bottom
 62
5
100
AcDbSpline
 70
8
 71
3
 72
8
 73
4
 74
0
 40
0
 40
0
 40
0
 40
0
 40
1
 40
1
 40
1
 40
1
 10
39.950081
 20
77.821749
 30
0.0
 10
39.950081
 20
78.429583
 30
0.0
 10
39.457605
 20
78.921707
 30
0.0
 10
38.849770
 20
78.921707
 30
0.0
  0
SPLINE
  5
142
100
AcDbEntity
  8
top-bottom
 62
5
100
AcDbSpline
 70
8
 71
3
 72
8
 73
4
 74
0
 40
0
 40
0
 40
0
 40
0
 40
1
 40
1
 40
1
 40
1
 10
38.849770
 20
78.921707
 30
0.0
 10
38.242289
 20
78.921707
 30
0.0
 10
37.749813
 20
78.429583
 30
0.0
 10
37.749813
 20
77.821749
 30
0.0
  0
SPLINE
  5
143
100
AcDbEntity
  8
top-bottom
 62
5
100
AcDbSpline
 70
8
 71
3
 72
8
 73
4
 74
0
 40
0
 40
0
 40
0
 40
0
 40
1
 40
1
 40
1
 40
1
 10
37.749813
 20
77.821749
 30
0.0
 10
37.749813
 20
77.213915
 30
0.0
 10
38.242289
 20
76.721791
 30
0.0
 10
38.849770
 20
76.721791
 30
0.0
  0
SPLINE
  5
144
100
AcDbEntity
  8
top-bottom
 62
5
100
AcDbSpline
 70
8
 71
3
 72
8
 73
4
 74
0
 40
0
 40
0
 40
0
 40
0
 40
1
 40
1
 40
1
 40
1
 10
38.849770
 20
76.721791
 30
0.0
 10
39.457605
 20
76.721791
 30
0.0
 10
39.950081
 20
77.213915
 30
0.0
 10
39.950081
 20
77.821749
 30
0.0
  0
LINE
  5
145
100
AcDbEntity
  8
top-bottom
 62
5
100
AcDbLine
 10
39.950081
 20
77.821749
 30
0.0
 11
39.950081
 21
77.821749
 31
0.0
  0
SPLINE
  5
146
100
AcDbEntity
  8
top-bottom
 62
5
100
AcDbSpline
 70
8
 71
3
 72
8
 73
4
 74
0
 40
0
 40
0
 40
0
 40
0
 40
1
 40
1
 40
1
 40
1
 10
115.971583
 20
74.199226
 30
0.0
 10
115.971583
 20
74.807061
 30
0.0
 10
115.479107
 20
75.299537
 30
0.0
 10
114.871625
 20
75.299537
 30
0.0
  0
SPLINE
  5
147
100
AcDbEntity
  8
top-bottom
 62
5
100
AcDbSpline
 70
8
 71
3
 72
8
 73
4
 74
0
 40
0
 40
0
 40
0
 40
0
 40
1
 40
1
 40
1
 40
1
 10
114.871625
 20
75.299537
 30
0.0
 10
114.264144
 20
75.299537
 30
0.0
 10
113.771668
 20
74.807061
 30
0.0
 10
113.771668
 20
74.199226
 30
0.0
  0
SPLINE
  5
148
100
AcDbEntity
  8
top-bottom
 62
5
100
AcDbSpline
 70
8
 71
3
 72
8
 73
4
 74
0
 40
0
 40
0
 40
0
 40
0
 40
1
 40
1
 40
1
 40
1
 10
113.771668
 20
74.199226
 30
0.0
 10
113.771668
 20
73.591745
 30
0.0
 10
114.264144
 20
73.099269
 30
0.0
 10
114.871625
 20
73.099269
 30
0.0
  0
SPLINE
  5
149
100
AcDbEntity
  8
top-bottom
 62
5
100
AcDbSpline
 70
8
 71
3
 72
8
 73
4
 74
0
 40
0
 40
0
 40
0
 40
0
 40
1
 40
1
 40
1
 40
1
 10
114.871625
 20
73.099269
 30
0.0
 10
115.479107
 20
73.099269
 30
0.0
 10
115.971583
 20
73.591745
 30
0.0
 10
115.971583
 20
74.199226
 30
0.0
  0
LINE
  5
14a
100
AcDbEntity
  8
top-bottom
 62
5
100
AcDbLine
 10
115.971583
 20
74.199226
 30
0.0
 11
115.971583
 21
74.199226
 31
0.0
  0
SPLINE
  5
14b
100
AcDbEntity
  8
top-bottom
 62
5
100
AcDbSpline
 70
8
 71
3
 72
8
 73
4
 74
0
 40
0
 40
0
 40
0
 40
0
 40
1
 40
1
 40
1
 40
1
 10
115.980367
 20
55.184423
 30
0.0
 10
115.980367
 20
55.791904
 30
0.0
 10
115.487891
 20
56.284381
 30
0.0
 10
114.880410
 20
56.284381
 30
0.0
  0
SPLINE
  5
14c
100
AcDbEntity
  8
top-bottom
 62
5
100
AcDbSpline
 70
8
 71
3
 72
8
 73
4
 74
0
 40
0
 40
0
 40
0
 40
0
 40
1
 40
1
 40
1
 40
1
 10
114.880410
 20
56.284381
 30
0.0
 10
114.272928
 20
56.284381
 30
0.0
 10
113.780452
 20
55.791904
 30
0.0
 10
113.780452
 20
55.184423
 30
0.0
  0
SPLINE
  5
14d
100
AcDbEntity
  8
top-bottom
 62
5
100
AcDbSpline
 70
8
 71
3
 72
8
 73
4
 74
0
 40
0
 40
0
 40
0
 40
0
 40
1
 40
1
 40
1
 40
1
 10
113.780452
 20
55.184423
 30
0.0
 10
113.780452
 20
54.576589
 30
0.0
 10
114.272928
 20
54.084112
 30
0.0
 10
114.880410
 20
54.084112
 30
0.0
  0
SPLINE
  5
14e
100
AcDbEntity
  8
top-bottom
 62
5
100
AcDbSpline
 70
8
 71
3
 72
8
 73
4
 74
0
 40
0
 40
0
 40
0
 40
0
 40
1
 40
1
 40
1
 40
1
 10
114.880410
 20
54.084112
 30
0.0
 10
115.487891
 20
54.084112
 30
0.0
 10
115.980367
 20
54.576589
 30
0.0
 10
115.980367
 20
55.184423
 30
0.0
  0
LINE
  5
14f
100
AcDbEntity
  8
top-bottom
 62
5
100
AcDbLine
 10
115.980367
 20
55.184423
 30
0.0
 11
115.980367
 21
55.184423
 31
0.0
  0
SPLINE
  5
150
100
AcDbEntity
  8
top-bottom
 62
5
100
AcDbSpline
 70
8
 71
3
 72
8
 73
4
 74
0
 40
0
 40
0
 40
0
 40
0
 40
1
 40
1
 40
1
 40
1
 10
26.208337
 20
30.320229
 30
0.0
 10
26.208337
 20
30.927711
 30
0.0
 10
25.715861
 20
31.420187
 30
0.0
 10
25.108379
 20
31.420187
 30
0.0
  0
SPLINE
  5
151
100
AcDbEntity
  8
top-bottom
 62
5
100
AcDbSpline
 70
8
 71
3
 72
8
 73
4
 74
0
 40
0
 40
0
 40
0
 40
0
 40
1
 40
1
 40
1
 40
1
 10
25.108379
 20
31.420187
 30
0.0
 10
24.500898
 20
31.420187
 30
0.0
 10
24.008421
 20
30.927711
 30
0.0
 10
24.008421
 20
30.320229
 30
0.0
  0
SPLINE
  5
152
100
AcDbEntity
  8
top-bottom
 62
5
100
AcDbSpline
 70
8
 71
3
 72
8
 73
4
 74
0
 40
0
 40
0
 40
0
 40
0
 40
1
 40
1
 40
1
 40
1
 10
24.008421
 20
30.320229
 30
0.0
 10
24.008421
 20
29.712392
 30
0.0
 10
24.500898
 20
29.220272
 30
0.0
 10
25.108379
 20
29.220272
 30
0.0
  0
SPLINE
  5
153
100
AcDbEntity
  8
top-bottom
 62
5
100
AcDbSpline
 70
8
 71
3
 72
8
 73
4
 74
0
 40
0
 40
0
 40
0
 40
0
 40
1
 40
1
 40
1
 40
1
 10
25.108379
 20
29.220272
 30
0.0
 10
25.715861
 20
29.220272
 30
0.0
 10
26.208337
 20
29.712392
 30
0.0
 10
26.208337
 20
30.320229
 30
0.0
  0
LINE
  5
154
100
AcDbEntity
  8
top-bottom
 62
5
100
AcDbLine
 10
26.208337
 20
30.320229
 30
0.0
 11
26.208337
 21
30.320229
 31
0.0
  0
SPLINE
  5
155
100
AcDbEntity
  8
top-bottom
 62
5
100
AcDbSpline
 70
8
 71
3
 72
8
 73
4
 74
0
 40
0
 40
0
 40
0
 40
0
 40
1
 40
1
 40
1
 40
1
 10
72.728184
 20
38.074754
 30
0.0
 10
72.728184
 20
38.682236
 30
0.0
 10
72.235708
 20
39.174712
 30
0.0
 10
71.628226
 20
39.174712
 30
0.0
  0
SPLINE
  5
156
100
AcDbEntity
  8
top-bottom
 62
5
100
AcDbSpline
 70
8
 71
3
 72
8
 73
4
 74
0
 40
0
 40
0
 40
0
 40
0
 40
1
 40
1
 40
1
 40
1
 10
71.628226
 20
39.174712
 30
0.0
 10
71.020745
 20
39.174712
 30
0.0
 10
70.528269
 20
38.682236
 30
0.0
 10
70.528269
 20
38.074754
 30
0.0
  0
SPLINE
  5
157
100
AcDbEntity
  8
top-bottom
 62
5
100
AcDbSpline
 70
8
 71
3
 72
8
 73
4
 74
0
 40
0
 40
0
 40
0
 40
0
 40
1
 40
1
 40
1
 40
1
 10
70.528269
 20
38.074754
 30
0.0
 10
70.528269
 20
37.466920
 30
0.0
 10
71.020745
 20
36.974444
 30
0.0
 10
71.628226
 20
36.974444
 30
0.0
  0
SPLINE
  5
158
100
AcDbEntity
  8
top-bottom
 62
5
100
AcDbSpline
 70
8
 71
3
 72
8
 73
4
 74
0
 40
0
 40
0
 40
0
 40
0
 40
1
 40
1
 40
1
 40
1
 10
71.628226
 20
36.974444
 30
0.0
 10
72.235708
 20
36.974444
 30
0.0
 10
72.728184
 20
37.466920
 30
0.0
 10
72.728184
 20
38.074754
 30
0.0
  0
LINE
  5
159
100
AcDbEntity
  8
top-bottom
 62
5
100
AcDbLine
 10
72.728184
 20
38.074754
 30
0.0
 11
72.728184
 21
38.074754
 31
0.0
  0
LINE
  5
15a
100
AcDbEntity
  8
top-bottom
 62
5
100
AcDbLine
 10
131.306009
 20
76.781375
 30
0.0
 11
117.454938
 21
76.781375
 31
0.0
  0
LINE
  5
15b
100
AcDbEntity
  8
top-bottom
 62
5
100
AcDbLine
 10
117.454938
 20
76.781375
 30
0.0
 11
117.454938
 21
90.632446
 31
0.0
  0
LINE
  5
15c
100
AcDbEntity
  8
top-bottom
 62
5
100
AcDbLine
 10
117.454938
 20
90.632446
 30
0.0
 11
131.306009
 21
90.632446
 31
0.0
  0
LINE
  5
15d
100
AcDbEntity
  8
top-bottom
 62
5
100
AcDbLine
 10
131.306009
 20
90.632446
 30
0.0
 11
131.306009
 21
76.781375
 31
0.0
  0
LINE
  5
15e
100
AcDbEntity
  8
top-bottom
 62
5
100
AcDbLine
 10
131.306009
 20
57.780118
 30
0.0
 11
117.454938
 21
57.780118
 31
0.0
  0
LINE
  5
15f
100
AcDbEntity
  8
top-bottom
 62
5
100
AcDbLine
 10
117.454938
 20
57.780118
 30
0.0
 11
117.454938
 21
71.631189
 31
0.0
  0
LINE
  5
160
100
AcDbEntity
  8
top-bottom
 62
5
100
AcDbLine
 10
117.454938
 20
71.631189
 30
0.0
 11
131.306009
 21
71.631189
 31
0.0
  0
LINE
  5
161
100
AcDbEntity
  8
top-bottom
 62
5
100
AcDbLine
 10
131.306009
 20
71.631189
 30
0.0
 11
131.306009
 21
57.780118
 31
0.0
  0
LINE
  5
162
100
AcDbEntity
  8
top-bottom
 62
5
100
AcDbLine
 10
131.306009
 20
38.778861
 30
0.0
 11
117.454938
 21
38.778861
 31
0.0
  0
LINE
  5
163
100
AcDbEntity
  8
top-bottom
 62
5
100
AcDbLine
 10
117.454938
 20
38.778861
 30
0.0
 11
117.454938
 21
52.629932
 31
0.0
  0
LINE
  5
164
100
AcDbEntity
  8
top-bottom
 62
5
100
AcDbLine
 10
117.454938
 20
52.629932
 30
0.0
 11
131.306009
 21
52.629932
 31
0.0
  0
LINE
  5
165
100
AcDbEntity
  8
top-bottom
 62
5
100
AcDbLine
 10
131.306009
 20
52.629932
 30
0.0
 11
131.306009
 21
38.778861
 31
0.0
  0
LINE
  5
166
100
AcDbEntity
  8
top-bottom
 62
5
100
AcDbLine
 10
112.304399
 20
76.781375
 30
0.0
 11
98.453329
 21
76.781375
 31
0.0
  0
LINE
  5
167
100
AcDbEntity
  8
top-bottom
 62
5
100
AcDbLine
 10
98.453329
 20
76.781375
 30
0.0
 11
98.453329
 21
90.632446
 31
0.0
  0
LINE
  5
168
100
AcDbEntity
  8
top-bottom
 62
5
100
AcDbLine
 10
98.453329
 20
90.632446
 30
0.0
 11
112.304399
 21
90.632446
 31
0.0
  0
LINE
  5
169
100
AcDbEntity
  8
top-bottom
 62
5
100
AcDbLine
 10
112.304399
 20
90.632446
 30
0.0
 11
112.304399
 21
76.781375
 31
0.0
  0
LINE
  5
16a
100
AcDbEntity
  8
top-bottom
 62
5
100
AcDbLine
 10
112.304399
 20
57.780118
 30
0.0
 11
98.453329
 21
57.780118
 31
0.0
  0
LINE
  5
16b
100
AcDbEntity
  8
top-bottom
 62
5
100
AcDbLine
 10
98.453329
 20
57.780118
 30
0.0
 11
98.453329
 21
71.631189
 31
0.0
  0
LINE
  5
16c
100
AcDbEntity
  8
top-bottom
 62
5
100
AcDbLine
 10
98.453329
 20
71.631189
 30
0.0
 11
112.304399
 21
71.631189
 31
0.0
  0
LINE
  5
16d
100
AcDbEntity
  8
top-bottom
 62
5
100
AcDbLine
 10
112.304399
 20
71.631189
 30
0.0
 11
112.304399
 21
57.780118
 31
0.0
  0
LINE
  5
16e
100
AcDbEntity
  8
top-bottom
 62
5
100
AcDbLine
 10
112.304399
 20
38.778861
 30
0.0
 11
98.453329
 21
38.778861
 31
0.0
  0
LINE
  5
16f
100
AcDbEntity
  8
top-bottom
 62
5
100
AcDbLine
 10
98.453329
 20
38.778861
 30
0.0
 11
98.453329
 21
52.629932
 31
0.0
  0
LINE
  5
170
100
AcDbEntity
  8
top-bottom
 62
5
100
AcDbLine
 10
98.453329
 20
52.629932
 30
0.0
 11
112.304399
 21
52.629932
 31
0.0
  0
LINE
  5
171
100
AcDbEntity
  8
top-bottom
 62
5
100
AcDbLine
 10
112.304399
 20
52.629932
 30
0.0
 11
112.304399
 21
38.778861
 31
0.0
  0
LINE
  5
172
100
AcDbEntity
  8
top-bottom
 62
5
100
AcDbLine
 10
93.302789
 20
81.531866
 30
0.0
 11
79.452072
 21
81.531866
 31
0.0
  0
LINE
  5
173
100
AcDbEntity
  8
top-bottom
 62
5
100
AcDbLine
 10
79.452072
 20
81.531866
 30
0.0
 11
79.452072
 21
95.382936
 31
0.0
  0
LINE
  5
174
100
AcDbEntity
  8
top-bottom
 62
5
100
AcDbLine
 10
79.452072
 20
95.382936
 30
0.0
 11
93.302789
 21
95.382936
 31
0.0
  0
LINE
  5
175
100
AcDbEntity
  8
top-bottom
 62
5
100
AcDbLine
 10
93.302789
 20
95.382936
 30
0.0
 11
93.302789
 21
81.531866
 31
0.0
  0
LINE
  5
176
100
AcDbEntity
  8
top-bottom
 62
5
100
AcDbLine
 10
93.302789
 20
62.530256
 30
0.0
 11
79.452072
 21
62.530256
 31
0.0
  0
LINE
  5
177
100
AcDbEntity
  8
top-bottom
 62
5
100
AcDbLine
 10
79.452072
 20
62.530256
 30
0.0
 11
79.452072
 21
76.381326
 31
0.0
  0
LINE
  5
178
100
AcDbEntity
  8
top-bottom
 62
5
100
AcDbLine
 10
79.452072
 20
76.381326
 30
0.0
 11
93.302789
 21
76.381326
 31
0.0
  0
LINE
  5
179
100
AcDbEntity
  8
top-bottom
 62
5
100
AcDbLine
 10
93.302789
 20
76.381326
 30
0.0
 11
93.302789
 21
62.530256
 31
0.0
  0
LINE
  5
17a
100
AcDbEntity
  8
top-bottom
 62
5
100
AcDbLine
 10
93.302789
 20
43.528999
 30
0.0
 11
79.452072
 21
43.528999
 31
0.0
  0
LINE
  5
17b
100
AcDbEntity
  8
top-bottom
 62
5
100
AcDbLine
 10
79.452072
 20
43.528999
 30
0.0
 11
79.452072
 21
57.380070
 31
0.0
  0
LINE
  5
17c
100
AcDbEntity
  8
top-bottom
 62
5
100
AcDbLine
 10
79.452072
 20
57.380070
 30
0.0
 11
93.302789
 21
57.380070
 31
0.0
  0
LINE
  5
17d
100
AcDbEntity
  8
top-bottom
 62
5
100
AcDbLine
 10
93.302789
 20
57.380070
 30
0.0
 11
93.302789
 21
43.528999
 31
0.0
  0
LINE
  5
17e
100
AcDbEntity
  8
top-bottom
 62
5
100
AcDbLine
 10
74.301885
 20
83.906758
 30
0.0
 11
60.450815
 21
83.906758
 31
0.0
  0
LINE
  5
17f
100
AcDbEntity
  8
top-bottom
 62
5
100
AcDbLine
 10
60.450815
 20
83.906758
 30
0.0
 11
60.450815
 21
97.757829
 31
0.0
  0
LINE
  5
180
100
AcDbEntity
  8
top-bottom
 62
5
100
AcDbLine
 10
60.450815
 20
97.757829
 30
0.0
 11
74.301885
 21
97.757829
 31
0.0
  0
LINE
  5
181
100
AcDbEntity
  8
top-bottom
 62
5
100
AcDbLine
 10
74.301885
 20
97.757829
 30
0.0
 11
74.301885
 21
83.906758
 31
0.0
  0
LINE
  5
182
100
AcDbEntity
  8
top-bottom
 62
5
100
AcDbLine
 10
74.301885
 20
64.905501
 30
0.0
 11
60.450815
 21
64.905501
 31
0.0
  0
LINE
  5
183
100
AcDbEntity
  8
top-bottom
 62
5
100
AcDbLine
 10
60.450815
 20
64.905501
 30
0.0
 11
60.450815
 21
78.756572
 31
0.0
  0
LINE
  5
184
100
AcDbEntity
  8
top-bottom
 62
5
100
AcDbLine
 10
60.450815
 20
78.756572
 30
0.0
 11
74.301885
 21
78.756572
 31
0.0
  0
LINE
  5
185
100
AcDbEntity
  8
top-bottom
 62
5
100
AcDbLine
 10
74.301885
 20
78.756572
 30
0.0
 11
74.301885
 21
64.905501
 31
0.0
  0
LINE
  5
186
100
AcDbEntity
  8
top-bottom
 62
5
100
AcDbLine
 10
74.301885
 20
45.904245
 30
0.0
 11
60.450815
 21
45.904245
 31
0.0
  0
LINE
  5
187
100
AcDbEntity
  8
top-bottom
 62
5
100
AcDbLine
 10
60.450815
 20
45.904245
 30
0.0
 11
60.450815
 21
59.755315
 31
0.0
  0
LINE
  5
188
100
AcDbEntity
  8
top-bottom
 62
5
100
AcDbLine
 10
60.450815
 20
59.755315
 30
0.0
 11
74.301885
 21
59.755315
 31
0.0
  0
LINE
  5
189
100
AcDbEntity
  8
top-bottom
 62
5
100
AcDbLine
 10
74.301885
 20
59.755315
 30
0.0
 11
74.301885
 21
45.904245
 31
0.0
  0
LINE
  5
18a
100
AcDbEntity
  8
top-bottom
 62
5
100
AcDbLine
 10
55.300276
 20
81.531866
 30
0.0
 11
41.449558
 21
81.531866
 31
0.0
  0
LINE
  5
18b
100
AcDbEntity
  8
top-bottom
 62
5
100
AcDbLine
 10
41.449558
 20
81.531866
 30
0.0
 11
41.449558
 21
95.382936
 31
0.0
  0
LINE
  5
18c
100
AcDbEntity
  8
top-bottom
 62
5
100
AcDbLine
 10
41.449558
 20
95.382936
 30
0.0
 11
55.300276
 21
95.382936
 31
0.0
  0
LINE
  5
18d
100
AcDbEntity
  8
top-bottom
 62
5
100
AcDbLine
 10
55.300276
 20
95.382936
 30
0.0
 11
55.300276
 21
81.531866
 31
0.0
  0
LINE
  5
18e
100
AcDbEntity
  8
top-bottom
 62
5
100
AcDbLine
 10
55.300276
 20
62.530256
 30
0.0
 11
41.449558
 21
62.530256
 31
0.0
  0
LINE
  5
18f
100
AcDbEntity
  8
top-bottom
 62
5
100
AcDbLine
 10
41.449558
 20
62.530256
 30
0.0
 11
41.449558
 21
76.381326
 31
0.0
  0
LINE
  5
190
100
AcDbEntity
  8
top-bottom
 62
5
100
AcDbLine
 10
41.449558
 20
76.381326
 30
0.0
 11
55.300276
 21
76.381326
 31
0.0
  0
LINE
  5
191
100
AcDbEntity
  8
top-bottom
 62
5
100
AcDbLine
 10
55.300276
 20
76.381326
 30
0.0
 11
55.300276
 21
62.530256
 31
0.0
  0
LINE
  5
192
100
AcDbEntity
  8
top-bottom
 62
5
100
AcDbLine
 10
55.300276
 20
43.528999
 30
0.0
 11
41.449558
 21
43.528999
 31
0.0
  0
LINE
  5
193
100
AcDbEntity
  8
top-bottom
 62
5
100
AcDbLine
 10
41.449558
 20
43.528999
 30
0.0
 11
41.449558
 21
57.380070
 31
0.0
  0
LINE
  5
194
100
AcDbEntity
  8
top-bottom
 62
5
100
AcDbLine
 10
41.449558
 20
57.380070
 30
0.0
 11
55.300276
 21
57.380070
 31
0.0
  0
LINE
  5
195
100
AcDbEntity
  8
top-bottom
 62
5
100
AcDbLine
 10
55.300276
 20
57.380070
 30
0.0
 11
55.300276
 21
43.528999
 31
0.0
  0
LINE
  5
196
100
AcDbEntity
  8
top-bottom
 62
5
100
AcDbLine
 10
36.299019
 20
79.156621
 30
0.0
 11
22.447948
 21
79.156621
 31
0.0
  0
LINE
  5
197
100
AcDbEntity
  8
top-bottom
 62
5
100
AcDbLine
 10
22.447948
 20
79.156621
 30
0.0
 11
22.447948
 21
93.007338
 31
0.0
  0
LINE
  5
198
100
AcDbEntity
  8
top-bottom
 62
5
100
AcDbLine
 10
22.447948
 20
93.007338
 30
0.0
 11
36.299019
 21
93.007338
 31
0.0
  0
LINE
  5
199
100
AcDbEntity
  8
top-bottom
 62
5
100
AcDbLine
 10
36.299019
 20
93.007338
 30
0.0
 11
36.299019
 21
79.156621
 31
0.0
  0
LINE
  5
19a
100
AcDbEntity
  8
top-bottom
 62
5
100
AcDbLine
 10
36.299019
 20
60.155364
 30
0.0
 11
22.447948
 21
60.155364
 31
0.0
  0
LINE
  5
19b
100
AcDbEntity
  8
top-bottom
 62
5
100
AcDbLine
 10
22.447948
 20
60.155364
 30
0.0
 11
22.447948
 21
74.006434
 31
0.0
  0
LINE
  5
19c
100
AcDbEntity
  8
top-bottom
 62
5
100
AcDbLine
 10
22.447948
 20
74.006434
 30
0.0
 11
36.299019
 21
74.006434
 31
0.0
  0
LINE
  5
19d
100
AcDbEntity
  8
top-bottom
 62
5
100
AcDbLine
 10
36.299019
 20
74.006434
 30
0.0
 11
36.299019
 21
60.155364
 31
0.0
  0
LINE
  5
19e
100
AcDbEntity
  8
top-bottom
 62
5
100
AcDbLine
 10
36.299019
 20
41.154107
 30
0.0
 11
22.447948
 21
41.154107
 31
0.0
  0
LINE
  5
19f
100
AcDbEntity
  8
top-bottom
 62
5
100
AcDbLine
 10
22.447948
 20
41.154107
 30
0.0
 11
22.447948
 21
55.005177
 31
0.0
  0
LINE
  5
1a0
100
AcDbEntity
  8
top-bottom
 62
5
100
AcDbLine
 10
22.447948
 20
55.005177
 30
0.0
 11
36.299019
 21
55.005177
 31
0.0
  0
LINE
  5
1a1
100
AcDbEntity
  8
top-bottom
 62
5
100
AcDbLine
 10
36.299019
 20
55.005177
 30
0.0
 11
36.299019
 21
41.154107
 31
0.0
  0
LINE
  5
1a2
100
AcDbEntity
  8
top-bottom
 62
5
100
AcDbLine
 10
64.800904
 20
23.902619
 30
0.0
 11
50.949834
 21
23.902619
 31
0.0
  0
LINE
  5
1a3
100
AcDbEntity
  8
top-bottom
 62
5
100
AcDbLine
 10
50.949834
 20
23.902619
 30
0.0
 11
50.949834
 21
37.753692
 31
0.0
  0
LINE
  5
1a4
100
AcDbEntity
  8
top-bottom
 62
5
100
AcDbLine
 10
50.949834
 20
37.753692
 30
0.0
 11
64.800904
 21
37.753692
 31
0.0
  0
LINE
  5
1a5
100
AcDbEntity
  8
top-bottom
 62
5
100
AcDbLine
 10
64.800904
 20
37.753692
 30
0.0
 11
64.800904
 21
23.902619
 31
0.0
  0
LINE
  5
1a6
100
AcDbEntity
  8
top-bottom
 62
5
100
AcDbLine
 10
41.772031
 20
36.554111
 30
0.0
 11
45.343542
 21
23.171528
 31
0.0
  0
LINE
  5
1a7
100
AcDbEntity
  8
top-bottom
 62
5
100
AcDbLine
 10
45.343542
 20
23.171528
 30
0.0
 11
31.960607
 21
19.600017
 31
0.0
  0
LINE
  5
1a8
100
AcDbEntity
  8
top-bottom
 62
5
100
AcDbLine
 10
31.960607
 20
19.600017
 30
0.0
 11
28.389449
 21
32.982952
 31
0.0
  0
LINE
  5
1a9
100
AcDbEntity
  8
top-bottom
 62
5
100
AcDbLine
 10
28.389449
 20
32.982952
 30
0.0
 11
41.772031
 21
36.554111
 31
0.0
  0
ENDSEC
  0
SECTION
  2
OBJECTS
  0
DICTIONARY
  5
C
330
0
100
AcDbDictionary
  3
ACAD_GROUP
350
D
  3
ACAD_MLINESTYLE
350
17
  0
DICTIONARY
  5
D
330
C
100
AcDbDictionary
  0
DICTIONARY
  5
1A
330
C
100
AcDbDictionary
  0
DICTIONARY
  5
17
330
C
100
AcDbDictionary
  3
STANDARD
350
18
  0
DICTIONARY
  5
19
330
C
100
AcDbDictionary
  0
ENDSEC
  0
EOF
