  0
SECTION
  2
HEADER
  9
$ACADVER
  1
AC1014
  9
$HANDSEED
  5
FFFF
  9
$MEASUREMENT
 70
     1
  0
ENDSEC
  0
SECTION
  2
TABLES
  0
TABLE
  2
VPORT
  5
8
330
0
100
AcDbSymbolTable
 70
     4
  0
VPORT
  5
2E
330
8
100
AcDbSymbolTableRecord
100
AcDbViewportTableRecord
  2
*ACTIVE
 70
     0
 10
0.0
 20
0.0
 11
1.0
 21
1.0
 12
210.0
 22
148.5
 13
0.0
 23
0.0
 14
10.0
 24
10.0
 15
10.0
 25
10.0
 16
0.0
 26
0.0
 36
1.0
 17
0.0
 27
0.0
 37
0.0
 40
341.0
 41
1.24
 42
50.0
 43
0.0
 44
0.0
 50
0.0
 51
0.0
 71
     0
 72
   100
 73
     1
 74
     3
 75
     0
 76
     0
 77
     0
 78
     0
  0
ENDTAB
  0
TABLE
  2
LTYPE
  5
5
330
0
100
AcDbSymbolTable
 70
     1
  0
LTYPE
  5
14
330
5
100
AcDbSymbolTableRecord
100
AcDbLinetypeTableRecord
  2
BYBLOCK
 70
     0
  3

 72
    65
 73
     0
 40
0.0
  0
LTYPE
  5
15
330
5
100
AcDbSymbolTableRecord
100
AcDbLinetypeTableRecord
  2
BYLAYER
 70
     0
  3

 72
    65
 73
     0
 40
0.0
  0
LTYPE
  5
16
330
5
100
AcDbSymbolTableRecord
100
AcDbLinetypeTableRecord
  2
CONTINUOUS
 70
     0
  3
Solid line
 72
    65
 73
     0
 40
0.0
  0
ENDTAB
  0
TABLE
  2
LAYER
  5
2
100
AcDbSymbolTable
 70
2
  0
LAYER
  5
50
100
AcDbSymbolTableRecord
100
AcDbLayerTableRecord
  2
0
 70
0
  6
CONTINUOUS
  0
LAYER
  5
51
100
AcDbSymbolTableRecord
100
AcDbLayerTableRecord
  2
top-bottom
 70
0
  6
CONTINUOUS
  0
ENDTAB
  0
TABLE
  2
STYLE
  5
3
330
0
100
AcDbSymbolTable
 70
     1
  0
STYLE
  5
11
330
3
100
AcDbSymbolTableRecord
100
AcDbTextStyleTableRecord
  2
STANDARD
 70
     0
 40
0.0
 41
1.0
 50
0.0
 71
     0
 42
2.5
  3
txt
  4

  0
ENDTAB
  0
TABLE
  2
VIEW
  5
6
330
0
100
AcDbSymbolTable
 70
     0
  0
ENDTAB
  0
TABLE
  2
UCS
  5
7
330
0
100
AcDbSymbolTable
 70
     0
  0
ENDTAB
  0
TABLE
  2
APPID
  5
9
330
0
100
AcDbSymbolTable
 70
     2
  0
APPID
  5
12
330
9
100
AcDbSymbolTableRecord
100
AcDbRegAppTableRecord
  2
ACAD
 70
     0
  0
ENDTAB
  0
TABLE
  2
DIMSTYLE
  5
A
330
0
100
AcDbSymbolTable
 70
     1
  0
DIMSTYLE
105
27
330
A
100
AcDbSymbolTableRecord
100
AcDbDimStyleTableRecord
  2
ISO-25
 70
     0
  3

  4

  5

  6

  7

 40
1.0
 41
2.5
 42
0.625
 43
3.75
 44
1.25
 45
0.0
 46
0.0
 47
0.0
 48
0.0
140
2.5
141
2.5
142
0.0
143
0.03937007874016
144
1.0
145
0.0
146
1.0
147
0.625
 71
     0
 72
     0
 73
     0
 74
     0
 75
     0
 76
     0
 77
     1
 78
     8
170
     0
171
     3
172
     1
173
     0
174
     0
175
     0
176
     0
177
     0
178
     0
270
     2
271
     2
272
     2
273
     2
274
     3
340
11
275
     0
280
     0
281
     0
282
     0
283
     0
284
     8
285
     0
286
     0
287
     3
288
     0
  0
ENDTAB
  0
TABLE
  2
BLOCK_RECORD
  5
1
330
0
100
AcDbSymbolTable
 70
     1
  0
BLOCK_RECORD
  5
1F
330
1
100
AcDbSymbolTableRecord
100
AcDbBlockTableRecord
  2
*MODEL_SPACE
  0
BLOCK_RECORD
  5
1B
330
1
100
AcDbSymbolTableRecord
100
AcDbBlockTableRecord
  2
*PAPER_SPACE
  0
ENDTAB
  0
ENDSEC
  0
SECTION
  2
BLOCKS
  0
BLOCK
  5
20
330
1F
100
AcDbEntity
  8
0
100
AcDbBlockBegin
  2
*MODEL_SPACE
 70
     0
 10
0.0
 20
0.0
 30
0.0
  3
*MODEL_SPACE
  1

  0
ENDBLK
  5
21
330
1F
100
AcDbEntity
  8
0
100
AcDbBlockEnd
  0
BLOCK
  5
1C
330
1B
100
AcDbEntity
 67
     1
  8
0
100
AcDbBlockBegin
  2
*PAPER_SPACE
  1

  0
ENDBLK
  5
1D
330
1B
100
AcDbEntity
 67
     1
  8
0
100
AcDbBlockEnd
  0
ENDSEC
  0
SECTION
  2
ENTITIES
  0
SPLINE
  5
100
100
AcDbEntity
  8
top-bottom
 62
5
100
AcDbSpline
 70
8
 71
3
 72
8
 73
4
 74
0
 40
0
 40
0
 40
0
 40
0
 40
1
 40
1
 40
1
 40
1
 10
77.952634
 20
136.549030
 30
0.0
 10
78.046473
 20
136.642869
 30
0.0
 10
78.173473
 20
136.695433
 30
0.0
 10
78.306117
 20
136.695433
 30
0.0
  0
LINE
  5
101
100
AcDbEntity
  8
top-bottom
 62
5
100
AcDbLine
 10
78.306117
 20
136.695433
 30
0.0
 11
114.308787
 21
136.695433
 31
0.0
  0
LINE
  5
102
100
AcDbEntity
  8
top-bottom
 62
5
100
AcDbLine
 10
114.308787
 20
136.695433
 30
0.0
 11
116.309034
 21
136.695433
 31
0.0
  0
LINE
  5
103
100
AcDbEntity
  8
top-bottom
 62
5
100
AcDbLine
 10
116.309034
 20
136.695433
 30
0.0
 11
133.310069
 21
136.695433
 31
0.0
  0
SPLINE
  5
104
100
AcDbEntity
  8
top-bottom
 62
5
100
AcDbSpline
 70
8
 71
3
 72
8
 73
4
 74
0
 40
0
 40
0
 40
0
 40
0
 40
1
 40
1
 40
1
 40
1
 10
133.310069
 20
136.695433
 30
0.0
 10
133.586294
 20
136.695433
 30
0.0
 10
133.809955
 20
136.919446
 30
0.0
 10
133.809955
 20
137.195671
 30
0.0
  0
LINE
  5
105
100
AcDbEntity
  8
top-bottom
 62
5
100
AcDbLine
 10
133.809955
 20
137.195671
 30
0.0
 11
133.809955
 21
192.449390
 31
0.0
  0
SPLINE
  5
106
100
AcDbEntity
  8
top-bottom
 62
5
100
AcDbSpline
 70
8
 71
3
 72
8
 73
4
 74
0
 40
0
 40
0
 40
0
 40
0
 40
1
 40
1
 40
1
 40
1
 10
133.809955
 20
192.449390
 30
0.0
 10
133.809955
 20
192.725614
 30
0.0
 10
133.586294
 20
192.949275
 30
0.0
 10
133.310069
 20
192.949275
 30
0.0
  0
LINE
  5
107
100
AcDbEntity
  8
top-bottom
 62
5
100
AcDbLine
 10
133.310069
 20
192.949275
 30
0.0
 11
116.309034
 21
192.949275
 31
0.0
  0
LINE
  5
108
100
AcDbEntity
  8
top-bottom
 62
5
100
AcDbLine
 10
116.309034
 20
192.949275
 30
0.0
 11
114.308787
 21
192.949275
 31
0.0
  0
LINE
  5
109
100
AcDbEntity
  8
top-bottom
 62
5
100
AcDbLine
 10
114.308787
 20
192.949275
 30
0.0
 11
96.307276
 21
192.949275
 31
0.0
  0
SPLINE
  5
10a
100
AcDbEntity
  8
top-bottom
 62
5
100
AcDbSpline
 70
8
 71
3
 72
8
 73
4
 74
0
 40
0
 40
0
 40
0
 40
0
 40
1
 40
1
 40
1
 40
1
 10
96.307276
 20
192.949275
 30
0.0
 10
96.031404
 20
192.949275
 30
0.0
 10
95.807391
 20
193.173288
 30
0.0
 10
95.807391
 20
193.449513
 30
0.0
  0
LINE
  5
10b
100
AcDbEntity
  8
top-bottom
 62
5
100
AcDbLine
 10
95.807391
 20
193.449513
 30
0.0
 11
95.807391
 21
197.199886
 31
0.0
  0
SPLINE
  5
10c
100
AcDbEntity
  8
top-bottom
 62
5
100
AcDbSpline
 70
8
 71
3
 72
8
 73
4
 74
0
 40
0
 40
0
 40
0
 40
0
 40
1
 40
1
 40
1
 40
1
 10
95.807391
 20
197.199886
 30
0.0
 10
95.807391
 20
197.475758
 30
0.0
 10
95.583730
 20
197.699772
 30
0.0
 10
95.307505
 20
197.699772
 30
0.0
  0
LINE
  5
10d
100
AcDbEntity
  8
top-bottom
 62
5
100
AcDbLine
 10
95.307505
 20
197.699772
 30
0.0
 11
77.305994
 21
197.699772
 31
0.0
  0
SPLINE
  5
10e
100
AcDbEntity
  8
top-bottom
 62
5
100
AcDbSpline
 70
8
 71
3
 72
8
 73
4
 74
0
 40
0
 40
0
 40
0
 40
0
 40
1
 40
1
 40
1
 40
1
 10
77.305994
 20
197.699772
 30
0.0
 10
77.030122
 20
197.699772
 30
0.0
 10
76.806109
 20
197.923785
 30
0.0
 10
76.806109
 20
198.200010
 30
0.0
  0
LINE
  5
10f
100
AcDbEntity
  8
top-bottom
 62
5
100
AcDbLine
 10
76.806109
 20
198.200010
 30
0.0
 11
76.806109
 21
199.449899
 31
0.0
  0
SPLINE
  5
110
100
AcDbEntity
  8
top-bottom
 62
5
100
AcDbSpline
 70
8
 71
3
 72
8
 73
4
 74
0
 40
0
 40
0
 40
0
 40
0
 40
1
 40
1
 40
1
 40
1
 10
76.806109
 20
199.449899
 30
0.0
 10
76.806109
 20
199.726123
 30
0.0
 10
76.582095
 20
199.949784
 30
0.0
 10
76.306223
 20
199.949784
 30
0.0
  0
LINE
  5
111
100
AcDbEntity
  8
top-bottom
 62
5
100
AcDbLine
 10
76.306223
 20
199.949784
 30
0.0
 11
59.304835
 21
199.949784
 31
0.0
  0
SPLINE
  5
112
100
AcDbEntity
  8
top-bottom
 62
5
100
AcDbSpline
 70
8
 71
3
 72
8
 73
4
 74
0
 40
0
 40
0
 40
0
 40
0
 40
1
 40
1
 40
1
 40
1
 10
59.304835
 20
199.949784
 30
0.0
 10
59.028610
 20
199.949784
 30
0.0
 10
58.804950
 20
199.726123
 30
0.0
 10
58.804950
 20
199.449899
 30
0.0
  0
LINE
  5
113
100
AcDbEntity
  8
top-bottom
 62
5
100
AcDbLine
 10
58.804950
 20
199.449899
 30
0.0
 11
58.804950
 21
198.200010
 31
0.0
  0
SPLINE
  5
114
100
AcDbEntity
  8
top-bottom
 62
5
100
AcDbSpline
 70
8
 71
3
 72
8
 73
4
 74
0
 40
0
 40
0
 40
0
 40
0
 40
1
 40
1
 40
1
 40
1
 10
58.804950
 20
198.200010
 30
0.0
 10
58.804950
 20
197.923785
 30
0.0
 10
58.580936
 20
197.699772
 30
0.0
 10
58.304712
 20
197.699772
 30
0.0
  0
LINE
  5
115
100
AcDbEntity
  8
top-bottom
 62
5
100
AcDbLine
 10
58.304712
 20
197.699772
 30
0.0
 11
40.303553
 21
197.699772
 31
0.0
  0
SPLINE
  5
116
100
AcDbEntity
  8
top-bottom
 62
5
100
AcDbSpline
 70
8
 71
3
 72
8
 73
4
 74
0
 40
0
 40
0
 40
0
 40
0
 40
1
 40
1
 40
1
 40
1
 10
40.303553
 20
197.699772
 30
0.0
 10
40.027328
 20
197.699772
 30
0.0
 10
39.803668
 20
197.475758
 30
0.0
 10
39.803668
 20
197.199886
 30
0.0
  0
LINE
  5
117
100
AcDbEntity
  8
top-bottom
 62
5
100
AcDbLine
 10
39.803668
 20
197.199886
 30
0.0
 11
39.803668
 21
195.699525
 31
0.0
  0
SPLINE
  5
118
100
AcDbEntity
  8
top-bottom
 62
5
100
AcDbSpline
 70
8
 71
3
 72
8
 73
4
 74
0
 40
0
 40
0
 40
0
 40
0
 40
1
 40
1
 40
1
 40
1
 10
39.803668
 20
195.699525
 30
0.0
 10
39.803668
 20
195.423654
 30
0.0
 10
39.579654
 20
195.199640
 30
0.0
 10
39.303430
 20
195.199640
 30
0.0
  0
LINE
  5
119
100
AcDbEntity
  8
top-bottom
 62
5
100
AcDbLine
 10
39.303430
 20
195.199640
 30
0.0
 11
21.302271
 21
195.199640
 31
0.0
  0
SPLINE
  5
11a
100
AcDbEntity
  8
top-bottom
 62
5
100
AcDbSpline
 70
8
 71
3
 72
8
 73
4
 74
0
 40
0
 40
0
 40
0
 40
0
 40
1
 40
1
 40
1
 40
1
 10
21.302271
 20
195.199640
 30
0.0
 10
21.026046
 20
195.199640
 30
0.0
 10
20.802386
 20
194.975627
 30
0.0
 10
20.802386
 20
194.699402
 30
0.0
  0
LINE
  5
11b
100
AcDbEntity
  8
top-bottom
 62
5
100
AcDbLine
 10
20.802386
 20
194.699402
 30
0.0
 11
20.802386
 21
193.465035
 31
0.0
  0
SPLINE
  5
11c
100
AcDbEntity
  8
top-bottom
 62
5
100
AcDbSpline
 70
8
 71
3
 72
8
 73
4
 74
0
 40
0
 40
0
 40
0
 40
0
 40
1
 40
1
 40
1
 40
1
 10
20.802386
 20
193.465035
 30
0.0
 10
20.773811
 20
193.196924
 30
0.0
 10
20.567789
 20
192.981730
 30
0.0
 10
20.301442
 20
192.941514
 30
0.0
  0
LINE
  5
11d
100
AcDbEntity
  8
top-bottom
 62
5
100
AcDbLine
 10
20.301442
 20
192.941514
 30
0.0
 11
0.550156
 21
192.941514
 31
0.0
  0
SPLINE
  5
11e
100
AcDbEntity
  8
top-bottom
 62
5
100
AcDbSpline
 70
8
 71
3
 72
8
 73
4
 74
0
 40
0
 40
0
 40
0
 40
0
 40
1
 40
1
 40
1
 40
1
 10
0.550156
 20
192.941514
 30
0.0
 10
0.273931
 20
192.941514
 30
0.0
 10
0.049918
 20
192.717500
 30
0.0
 10
0.049918
 20
192.441628
 30
0.0
  0
LINE
  5
11f
100
AcDbEntity
  8
top-bottom
 62
5
100
AcDbLine
 10
0.049918
 20
192.441628
 30
0.0
 11
0.049918
 21
133.480928
 31
0.0
  0
SPLINE
  5
120
100
AcDbEntity
  8
top-bottom
 62
5
100
AcDbSpline
 70
8
 71
3
 72
8
 73
4
 74
0
 40
0
 40
0
 40
0
 40
0
 40
1
 40
1
 40
1
 40
1
 10
0.049918
 20
133.480928
 30
0.0
 10
0.093310
 20
132.667423
 30
0.0
 10
0.338842
 20
131.877908
 30
0.0
 10
0.764644
 20
131.183290
 30
0.0
  0
LINE
  5
121
100
AcDbEntity
  8
top-bottom
 62
5
100
AcDbLine
 10
0.764644
 20
131.183290
 30
0.0
 11
14.001901
 21
108.143415
 31
0.0
  0
SPLINE
  5
122
100
AcDbEntity
  8
top-bottom
 62
5
100
AcDbSpline
 70
8
 71
3
 72
8
 73
4
 74
0
 40
0
 40
0
 40
0
 40
0
 40
1
 40
1
 40
1
 40
1
 10
14.001901
 20
108.143415
 30
0.0
 10
14.006487
 20
108.136360
 30
0.0
 10
14.011426
 20
108.129304
 30
0.0
 10
14.016365
 20
108.122249
 30
0.0
  0
SPLINE
  5
123
100
AcDbEntity
  8
top-bottom
 62
5
100
AcDbSpline
 70
8
 71
3
 72
8
 73
4
 74
0
 40
0
 40
0
 40
0
 40
0
 40
1
 40
1
 40
1
 40
1
 10
14.016365
 20
108.122249
 30
0.0
 10
14.294353
 20
107.729255
 30
0.0
 10
14.838688
 20
107.635416
 30
0.0
 10
15.231682
 20
107.913405
 30
0.0
  0
LINE
  5
124
100
AcDbEntity
  8
top-bottom
 62
5
100
AcDbLine
 10
15.231682
 20
107.913405
 30
0.0
 11
29.981647
 21
116.403339
 31
0.0
  0
SPLINE
  5
125
100
AcDbEntity
  8
top-bottom
 62
5
100
AcDbSpline
 70
8
 71
3
 72
8
 73
4
 74
0
 40
0
 40
0
 40
0
 40
0
 40
1
 40
1
 40
1
 40
1
 10
29.981647
 20
116.403339
 30
0.0
 10
30.072663
 20
116.434736
 30
0.0
 10
30.166502
 20
116.459078
 30
0.0
 10
30.261752
 20
116.475306
 30
0.0
  0
LINE
  5
126
100
AcDbEntity
  8
top-bottom
 62
5
100
AcDbLine
 10
30.261752
 20
116.475306
 30
0.0
 11
67.055349
 21
121.944762
 31
0.0
  0
SPLINE
  5
127
100
AcDbEntity
  8
top-bottom
 62
5
100
AcDbSpline
 70
8
 71
3
 72
8
 73
4
 74
0
 40
0
 40
0
 40
0
 40
0
 40
1
 40
1
 40
1
 40
1
 10
67.055349
 20
121.944762
 30
0.0
 10
67.184818
 20
121.957815
 30
0.0
 10
67.306879
 20
122.010026
 30
0.0
 10
67.405656
 20
122.094340
 30
0.0
  0
SPLINE
  5
128
100
AcDbEntity
  8
top-bottom
 62
5
100
AcDbSpline
 70
8
 71
3
 72
8
 73
4
 74
0
 40
0
 40
0
 40
0
 40
0
 40
1
 40
1
 40
1
 40
1
 10
67.405656
 20
122.094340
 30
0.0
 10
67.405656
 20
122.094340
 30
0.0
 10
77.956162
 20
136.553969
 30
0.0
 10
77.952634
 20
136.549030
 30
0.0
  0
LINE
  5
129
100
AcDbEntity
  8
top-bottom
 62
5
100
AcDbLine
 10
77.952634
 20
136.549030
 30
0.0
 11
77.952634
 21
136.549030
 31
0.0
  0
SPLINE
  5
12a
100
AcDbEntity
  8
top-bottom
 62
5
100
AcDbSpline
 70
8
 71
3
 72
8
 73
4
 74
0
 40
0
 40
0
 40
0
 40
0
 40
1
 40
1
 40
1
 40
1
 10
73.162556
 20
138.199921
 30
0.0
 10
73.162556
 20
138.807404
 30
0.0
 10
72.670079
 20
139.299881
 30
0.0
 10
72.062244
 20
139.299881
 30
0.0
  0
SPLINE
  5
12b
100
AcDbEntity
  8
top-bottom
 62
5
100
AcDbSpline
 70
8
 71
3
 72
8
 73
4
 74
0
 40
0
 40
0
 40
0
 40
0
 40
1
 40
1
 40
1
 40
1
 10
72.062244
 20
139.299881
 30
0.0
 10
71.454762
 20
139.299881
 30
0.0
 10
70.962285
 20
138.807404
 30
0.0
 10
70.962285
 20
138.199921
 30
0.0
  0
SPLINE
  5
12c
100
AcDbEntity
  8
top-bottom
 62
5
100
AcDbSpline
 70
8
 71
3
 72
8
 73
4
 74
0
 40
0
 40
0
 40
0
 40
0
 40
1
 40
1
 40
1
 40
1
 10
70.962285
 20
138.199921
 30
0.0
 10
70.962285
 20
137.592086
 30
0.0
 10
71.454762
 20
137.099962
 30
0.0
 10
72.062244
 20
137.099962
 30
0.0
  0
SPLINE
  5
12d
100
AcDbEntity
  8
top-bottom
 62
5
100
AcDbSpline
 70
8
 71
3
 72
8
 73
4
 74
0
 40
0
 40
0
 40
0
 40
0
 40
1
 40
1
 40
1
 40
1
 10
72.062244
 20
137.099962
 30
0.0
 10
72.670079
 20
137.099962
 30
0.0
 10
73.162556
 20
137.592086
 30
0.0
 10
73.162556
 20
138.199921
 30
0.0
  0
LINE
  5
12e
100
AcDbEntity
  8
top-bottom
 62
5
100
AcDbLine
 10
73.162556
 20
138.199921
 30
0.0
 11
73.162556
 21
138.199921
 31
0.0
  0
SPLINE
  5
12f
100
AcDbEntity
  8
top-bottom
 62
5
100
AcDbSpline
 70
8
 71
3
 72
8
 73
4
 74
0
 40
0
 40
0
 40
0
 40
0
 40
1
 40
1
 40
1
 40
1
 10
40.384268
 20
177.946933
 30
0.0
 10
40.384268
 20
178.554768
 30
0.0
 10
39.891791
 20
179.047245
 30
0.0
 10
39.284309
 20
179.047245
 30
0.0
  0
SPLINE
  5
130
100
AcDbEntity
  8
top-bottom
 62
5
100
AcDbSpline
 70
8
 71
3
 72
8
 73
4
 74
0
 40
0
 40
0
 40
0
 40
0
 40
1
 40
1
 40
1
 40
1
 10
39.284309
 20
179.047245
 30
0.0
 10
38.676827
 20
179.047245
 30
0.0
 10
38.183997
 20
178.554768
 30
0.0
 10
38.183997
 20
177.946933
 30
0.0
  0
SPLINE
  5
131
100
AcDbEntity
  8
top-bottom
 62
5
100
AcDbSpline
 70
8
 71
3
 72
8
 73
4
 74
0
 40
0
 40
0
 40
0
 40
0
 40
1
 40
1
 40
1
 40
1
 10
38.183997
 20
177.946933
 30
0.0
 10
38.183997
 20
177.339451
 30
0.0
 10
38.676827
 20
176.846974
 30
0.0
 10
39.284309
 20
176.846974
 30
0.0
  0
SPLINE
  5
132
100
AcDbEntity
  8
top-bottom
 62
5
100
AcDbSpline
 70
8
 71
3
 72
8
 73
4
 74
0
 40
0
 40
0
 40
0
 40
0
 40
1
 40
1
 40
1
 40
1
 10
39.284309
 20
176.846974
 30
0.0
 10
39.891791
 20
176.846974
 30
0.0
 10
40.384268
 20
177.339451
 30
0.0
 10
40.384268
 20
177.946933
 30
0.0
  0
LINE
  5
133
100
AcDbEntity
  8
top-bottom
 62
5
100
AcDbLine
 10
40.384268
 20
177.946933
 30
0.0
 11
40.384268
 21
177.946933
 31
0.0
  0
SPLINE
  5
134
100
AcDbEntity
  8
top-bottom
 62
5
100
AcDbSpline
 70
8
 71
3
 72
8
 73
4
 74
0
 40
0
 40
0
 40
0
 40
0
 40
1
 40
1
 40
1
 40
1
 10
116.406012
 20
174.324759
 30
0.0
 10
116.406012
 20
174.932241
 30
0.0
 10
115.913535
 20
175.424718
 30
0.0
 10
115.305700
 20
175.424718
 30
0.0
  0
SPLINE
  5
135
100
AcDbEntity
  8
top-bottom
 62
5
100
AcDbSpline
 70
8
 71
3
 72
8
 73
4
 74
0
 40
0
 40
0
 40
0
 40
0
 40
1
 40
1
 40
1
 40
1
 10
115.305700
 20
175.424718
 30
0.0
 10
114.698218
 20
175.424718
 30
0.0
 10
114.205741
 20
174.932241
 30
0.0
 10
114.205741
 20
174.324759
 30
0.0
  0
SPLINE
  5
136
100
AcDbEntity
  8
top-bottom
 62
5
100
AcDbSpline
 70
8
 71
3
 72
8
 73
4
 74
0
 40
0
 40
0
 40
0
 40
0
 40
1
 40
1
 40
1
 40
1
 10
114.205741
 20
174.324759
 30
0.0
 10
114.205741
 20
173.716924
 30
0.0
 10
114.698218
 20
173.224800
 30
0.0
 10
115.305700
 20
173.224800
 30
0.0
  0
SPLINE
  5
137
100
AcDbEntity
  8
top-bottom
 62
5
100
AcDbSpline
 70
8
 71
3
 72
8
 73
4
 74
0
 40
0
 40
0
 40
0
 40
0
 40
1
 40
1
 40
1
 40
1
 10
115.305700
 20
173.224800
 30
0.0
 10
115.913535
 20
173.224800
 30
0.0
 10
116.406012
 20
173.716924
 30
0.0
 10
116.406012
 20
174.324759
 30
0.0
  0
LINE
  5
138
100
AcDbEntity
  8
top-bottom
 62
5
100
AcDbLine
 10
116.406012
 20
174.324759
 30
0.0
 11
116.406012
 21
174.324759
 31
0.0
  0
SPLINE
  5
139
100
AcDbEntity
  8
top-bottom
 62
5
100
AcDbSpline
 70
8
 71
3
 72
8
 73
4
 74
0
 40
0
 40
0
 40
0
 40
0
 40
1
 40
1
 40
1
 40
1
 10
116.414796
 20
155.309612
 30
0.0
 10
116.414796
 20
155.917447
 30
0.0
 10
115.922320
 20
156.409572
 30
0.0
 10
115.314485
 20
156.409572
 30
0.0
  0
SPLINE
  5
13a
100
AcDbEntity
  8
top-bottom
 62
5
100
AcDbSpline
 70
8
 71
3
 72
8
 73
4
 74
0
 40
0
 40
0
 40
0
 40
0
 40
1
 40
1
 40
1
 40
1
 10
115.314485
 20
156.409572
 30
0.0
 10
114.707002
 20
156.409572
 30
0.0
 10
114.214525
 20
155.917447
 30
0.0
 10
114.214525
 20
155.309612
 30
0.0
  0
SPLINE
  5
13b
100
AcDbEntity
  8
top-bottom
 62
5
100
AcDbSpline
 70
8
 71
3
 72
8
 73
4
 74
0
 40
0
 40
0
 40
0
 40
0
 40
1
 40
1
 40
1
 40
1
 10
114.214525
 20
155.309612
 30
0.0
 10
114.214525
 20
154.701777
 30
0.0
 10
114.707002
 20
154.209653
 30
0.0
 10
115.314485
 20
154.209653
 30
0.0
  0
SPLINE
  5
13c
100
AcDbEntity
  8
top-bottom
 62
5
100
AcDbSpline
 70
8
 71
3
 72
8
 73
4
 74
0
 40
0
 40
0
 40
0
 40
0
 40
1
 40
1
 40
1
 40
1
 10
115.314485
 20
154.209653
 30
0.0
 10
115.922320
 20
154.209653
 30
0.0
 10
116.414796
 20
154.701777
 30
0.0
 10
116.414796
 20
155.309612
 30
0.0
  0
LINE
  5
13d
100
AcDbEntity
  8
top-bottom
 62
5
100
AcDbLine
 10
116.414796
 20
155.309612
 30
0.0
 11
116.414796
 21
155.309612
 31
0.0
  0
SPLINE
  5
13e
100
AcDbEntity
  8
top-bottom
 62
5
100
AcDbSpline
 70
8
 71
3
 72
8
 73
4
 74
0
 40
0
 40
0
 40
0
 40
0
 40
1
 40
1
 40
1
 40
1
 10
26.642682
 20
130.445351
 30
0.0
 10
26.642682
 20
131.053186
 30
0.0
 10
26.150205
 20
131.545310
 30
0.0
 10
25.542370
 20
131.545310
 30
0.0
  0
SPLINE
  5
13f
100
AcDbEntity
  8
top-bottom
 62
5
100
AcDbSpline
 70
8
 71
3
 72
8
 73
4
 74
0
 40
0
 40
0
 40
0
 40
0
 40
1
 40
1
 40
1
 40
1
 10
25.542370
 20
131.545310
 30
0.0
 10
24.934888
 20
131.545310
 30
0.0
 10
24.442411
 20
131.053186
 30
0.0
 10
24.442411
 20
130.445351
 30
0.0
  0
SPLINE
  5
140
100
AcDbEntity
  8
top-bottom
 62
5
100
AcDbSpline
 70
8
 71
3
 72
8
 73
4
 74
0
 40
0
 40
0
 40
0
 40
0
 40
1
 40
1
 40
1
 40
1
 10
24.442411
 20
130.445351
 30
0.0
 10
24.442411
 20
129.837869
 30
0.0
 10
24.934888
 20
129.345392
 30
0.0
 10
25.542370
 20
129.345392
 30
0.0
  0
SPLINE
  5
141
100
AcDbEntity
  8
top-bottom
 62
5
100
AcDbSpline
 70
8
 71
3
 72
8
 73
4
 74
0
 40
0
 40
0
 40
0
 40
0
 40
1
 40
1
 40
1
 40
1
 10
25.542370
 20
129.345392
 30
0.0
 10
26.150205
 20
129.345392
 30
0.0
 10
26.642682
 20
129.837869
 30
0.0
 10
26.642682
 20
130.445351
 30
0.0
  0
LINE
  5
142
100
AcDbEntity
  8
top-bottom
 62
5
100
AcDbLine
 10
26.642682
 20
130.445351
 30
0.0
 11
26.642682
 21
130.445351
 31
0.0
  0
SPLINE
  5
143
100
AcDbEntity
  8
top-bottom
 62
5
100
AcDbSpline
 70
8
 71
3
 72
8
 73
4
 74
0
 40
0
 40
0
 40
0
 40
0
 40
1
 40
1
 40
1
 40
1
 10
86.566570
 20
55.907299
 30
0.0
 10
86.472731
 20
55.813461
 30
0.0
 10
86.420167
 20
55.686461
 30
0.0
 10
86.420167
 20
55.553817
 30
0.0
  0
LINE
  5
144
100
AcDbEntity
  8
top-bottom
 62
5
100
AcDbLine
 10
86.420167
 20
55.553817
 30
0.0
 11
86.420167
 21
19.551146
 31
0.0
  0
LINE
  5
145
100
AcDbEntity
  8
top-bottom
 62
5
100
AcDbLine
 10
86.420167
 20
19.551146
 30
0.0
 11
86.420167
 21
17.551253
 31
0.0
  0
LINE
  5
146
100
AcDbEntity
  8
top-bottom
 62
5
100
AcDbLine
 10
86.420167
 20
17.551253
 30
0.0
 11
86.420167
 21
0.550217
 31
0.0
  0
SPLINE
  5
147
100
AcDbEntity
  8
top-bottom
 62
5
100
AcDbSpline
 70
8
 71
3
 72
8
 73
4
 74
0
 40
0
 40
0
 40
0
 40
0
 40
1
 40
1
 40
1
 40
1
 10
86.420167
 20
0.550217
 30
0.0
 10
86.420167
 20
0.273640
 30
0.0
 10
86.196154
 20
0.049979
 30
0.0
 10
85.920282
 20
0.049979
 30
0.0
  0
LINE
  5
148
100
AcDbEntity
  8
top-bottom
 62
5
100
AcDbLine
 10
85.920282
 20
0.049979
 30
0.0
 11
30.666211
 21
0.049979
 31
0.0
  0
SPLINE
  5
149
100
AcDbEntity
  8
top-bottom
 62
5
100
AcDbSpline
 70
8
 71
3
 72
8
 73
4
 74
0
 40
0
 40
0
 40
0
 40
0
 40
1
 40
1
 40
1
 40
1
 10
30.666211
 20
0.049979
 30
0.0
 10
30.390339
 20
0.049979
 30
0.0
 10
30.166326
 20
0.273640
 30
0.0
 10
30.166326
 20
0.550217
 30
0.0
  0
LINE
  5
14a
100
AcDbEntity
  8
top-bottom
 62
5
100
AcDbLine
 10
30.166326
 20
0.550217
 30
0.0
 11
30.166326
 21
17.551253
 31
0.0
  0
LINE
  5
14b
100
AcDbEntity
  8
top-bottom
 62
5
100
AcDbLine
 10
30.166326
 20
17.551253
 30
0.0
 11
30.166326
 21
19.551146
 31
0.0
  0
LINE
  5
14c
100
AcDbEntity
  8
top-bottom
 62
5
100
AcDbLine
 10
30.166326
 20
19.551146
 30
0.0
 11
30.166326
 21
37.552658
 31
0.0
  0
SPLINE
  5
14d
100
AcDbEntity
  8
top-bottom
 62
5
100
AcDbSpline
 70
8
 71
3
 72
8
 73
4
 74
0
 40
0
 40
0
 40
0
 40
0
 40
1
 40
1
 40
1
 40
1
 10
30.166326
 20
37.552658
 30
0.0
 10
30.166326
 20
37.828530
 30
0.0
 10
29.942312
 20
38.052543
 30
0.0
 10
29.666440
 20
38.052543
 30
0.0
  0
LINE
  5
14e
100
AcDbEntity
  8
top-bottom
 62
5
100
AcDbLine
 10
29.666440
 20
38.052543
 30
0.0
 11
25.916067
 21
38.052543
 31
0.0
  0
SPLINE
  5
14f
100
AcDbEntity
  8
top-bottom
 62
5
100
AcDbSpline
 70
8
 71
3
 72
8
 73
4
 74
0
 40
0
 40
0
 40
0
 40
0
 40
1
 40
1
 40
1
 40
1
 10
25.916067
 20
38.052543
 30
0.0
 10
25.639842
 20
38.052543
 30
0.0
 10
25.415829
 20
38.276557
 30
0.0
 10
25.415829
 20
38.552781
 30
0.0
  0
LINE
  5
150
100
AcDbEntity
  8
top-bottom
 62
5
100
AcDbLine
 10
25.415829
 20
38.552781
 30
0.0
 11
25.415829
 21
56.553940
 31
0.0
  0
SPLINE
  5
151
100
AcDbEntity
  8
top-bottom
 62
5
100
AcDbSpline
 70
8
 71
3
 72
8
 73
4
 74
0
 40
0
 40
0
 40
0
 40
0
 40
1
 40
1
 40
1
 40
1
 10
25.415829
 20
56.553940
 30
0.0
 10
25.415829
 20
56.830164
 30
0.0
 10
25.191815
 20
57.053825
 30
0.0
 10
24.915943
 20
57.053825
 30
0.0
  0
LINE
  5
152
100
AcDbEntity
  8
top-bottom
 62
5
100
AcDbLine
 10
24.915943
 20
57.053825
 30
0.0
 11
23.665701
 21
57.053825
 31
0.0
  0
SPLINE
  5
153
100
AcDbEntity
  8
top-bottom
 62
5
100
AcDbSpline
 70
8
 71
3
 72
8
 73
4
 74
0
 40
0
 40
0
 40
0
 40
0
 40
1
 40
1
 40
1
 40
1
 10
23.665701
 20
57.053825
 30
0.0
 10
23.389830
 20
57.053825
 30
0.0
 10
23.165816
 20
57.277839
 30
0.0
 10
23.165816
 20
57.553710
 30
0.0
  0
LINE
  5
154
100
AcDbEntity
  8
top-bottom
 62
5
100
AcDbLine
 10
23.165816
 20
57.553710
 30
0.0
 11
23.165816
 21
74.555099
 31
0.0
  0
SPLINE
  5
155
100
AcDbEntity
  8
top-bottom
 62
5
100
AcDbSpline
 70
8
 71
3
 72
8
 73
4
 74
0
 40
0
 40
0
 40
0
 40
0
 40
1
 40
1
 40
1
 40
1
 10
23.165816
 20
74.555099
 30
0.0
 10
23.165816
 20
74.831323
 30
0.0
 10
23.389830
 20
75.054984
 30
0.0
 10
23.665701
 20
75.054984
 30
0.0
  0
LINE
  5
156
100
AcDbEntity
  8
top-bottom
 62
5
100
AcDbLine
 10
23.665701
 20
75.054984
 30
0.0
 11
24.915943
 21
75.054984
 31
0.0
  0
SPLINE
  5
157
100
AcDbEntity
  8
top-bottom
 62
5
100
AcDbSpline
 70
8
 71
3
 72
8
 73
4
 74
0
 40
0
 40
0
 40
0
 40
0
 40
1
 40
1
 40
1
 40
1
 10
24.915943
 20
75.054984
 30
0.0
 10
25.191815
 20
75.054984
 30
0.0
 10
25.415829
 20
75.278997
 30
0.0
 10
25.415829
 20
75.555222
 30
0.0
  0
LINE
  5
158
100
AcDbEntity
  8
top-bottom
 62
5
100
AcDbLine
 10
25.415829
 20
75.555222
 30
0.0
 11
25.415829
 21
93.556381
 31
0.0
  0
SPLINE
  5
159
100
AcDbEntity
  8
top-bottom
 62
5
100
AcDbSpline
 70
8
 71
3
 72
8
 73
4
 74
0
 40
0
 40
0
 40
0
 40
0
 40
1
 40
1
 40
1
 40
1
 10
25.415829
 20
93.556381
 30
0.0
 10
25.415829
 20
93.832605
 30
0.0
 10
25.639842
 20
94.056619
 30
0.0
 10
25.916067
 20
94.056619
 30
0.0
  0
LINE
  5
15a
100
AcDbEntity
  8
top-bottom
 62
5
100
AcDbLine
 10
25.916067
 20
94.056619
 30
0.0
 11
27.416075
 21
94.056619
 31
0.0
  0
SPLINE
  5
15b
100
AcDbEntity
  8
top-bottom
 62
5
100
AcDbSpline
 70
8
 71
3
 72
8
 73
4
 74
0
 40
0
 40
0
 40
0
 40
0
 40
1
 40
1
 40
1
 40
1
 10
27.416075
 20
94.056619
 30
0.0
 10
27.692300
 20
94.056619
 30
0.0
 10
27.915960
 20
94.280279
 30
0.0
 10
27.915960
 20
94.556504
 30
0.0
  0
LINE
  5
15c
100
AcDbEntity
  8
top-bottom
 62
5
100
AcDbLine
 10
27.915960
 20
94.556504
 30
0.0
 11
27.915960
 21
112.557663
 31
0.0
  0
SPLINE
  5
15d
100
AcDbEntity
  8
top-bottom
 62
5
100
AcDbSpline
 70
8
 71
3
 72
8
 73
4
 74
0
 40
0
 40
0
 40
0
 40
0
 40
1
 40
1
 40
1
 40
1
 10
27.915960
 20
112.557663
 30
0.0
 10
27.915960
 20
112.833887
 30
0.0
 10
28.139974
 20
113.057548
 30
0.0
 10
28.416198
 20
113.057548
 30
0.0
  0
LINE
  5
15e
100
AcDbEntity
  8
top-bottom
 62
5
100
AcDbLine
 10
28.416198
 20
113.057548
 30
0.0
 11
29.650918
 21
113.057548
 31
0.0
  0
LINE
  5
15f
100
AcDbEntity
  8
top-bottom
 62
5
100
AcDbLine
 10
29.650918
 20
113.057548
 30
0.0
 11
45.911475
 21
113.057195
 31
0.0
  0
LINE
  5
160
100
AcDbEntity
  8
top-bottom
 62
5
100
AcDbLine
 10
45.911475
 20
113.057195
 30
0.0
 11
78.204341
 21
113.057195
 31
0.0
  0
SPLINE
  5
161
100
AcDbEntity
  8
top-bottom
 62
5
100
AcDbSpline
 70
8
 71
3
 72
8
 73
4
 74
0
 40
0
 40
0
 40
0
 40
0
 40
1
 40
1
 40
1
 40
1
 10
78.204341
 20
113.057195
 30
0.0
 10
78.587810
 20
113.139392
 30
0.0
 10
78.934589
 20
113.342239
 30
0.0
 10
79.194233
 20
113.636102
 30
0.0
  0
LINE
  5
162
100
AcDbEntity
  8
top-bottom
 62
5
100
AcDbLine
 10
79.194233
 20
113.636102
 30
0.0
 11
90.231572
 21
132.712879
 31
0.0
  0
SPLINE
  5
163
100
AcDbEntity
  8
top-bottom
 62
5
100
AcDbSpline
 70
8
 71
3
 72
8
 73
4
 74
0
 40
0
 40
0
 40
0
 40
0
 40
1
 40
1
 40
1
 40
1
 10
90.231572
 20
132.712879
 30
0.0
 10
90.628093
 20
133.240281
 30
0.0
 10
91.348464
 20
133.402205
 30
0.0
 10
91.932310
 20
133.095642
 30
0.0
  0
LINE
  5
164
100
AcDbEntity
  8
top-bottom
 62
5
100
AcDbLine
 10
91.932310
 20
133.095642
 30
0.0
 11
114.972185
 21
119.858386
 31
0.0
  0
SPLINE
  5
165
100
AcDbEntity
  8
top-bottom
 62
5
100
AcDbSpline
 70
8
 71
3
 72
8
 73
4
 74
0
 40
0
 40
0
 40
0
 40
0
 40
1
 40
1
 40
1
 40
1
 10
114.972185
 20
119.858386
 30
0.0
 10
114.979240
 20
119.853447
 30
0.0
 10
114.986649
 20
119.848508
 30
0.0
 10
114.993351
 20
119.843569
 30
0.0
  0
SPLINE
  5
166
100
AcDbEntity
  8
top-bottom
 62
5
100
AcDbSpline
 70
8
 71
3
 72
8
 73
4
 74
0
 40
0
 40
0
 40
0
 40
0
 40
1
 40
1
 40
1
 40
1
 10
114.993351
 20
119.843569
 30
0.0
 10
115.386698
 20
119.565581
 30
0.0
 10
115.480184
 20
119.021598
 30
0.0
 10
115.202196
 20
118.628252
 30
0.0
  0
LINE
  5
167
100
AcDbEntity
  8
top-bottom
 62
5
100
AcDbLine
 10
115.202196
 20
118.628252
 30
0.0
 11
106.712614
 21
103.878287
 31
0.0
  0
SPLINE
  5
168
100
AcDbEntity
  8
top-bottom
 62
5
100
AcDbSpline
 70
8
 71
3
 72
8
 73
4
 74
0
 40
0
 40
0
 40
0
 40
0
 40
1
 40
1
 40
1
 40
1
 10
106.712614
 20
103.878287
 30
0.0
 10
106.681217
 20
103.787270
 30
0.0
 10
106.656875
 20
103.693785
 30
0.0
 10
106.640294
 20
103.598182
 30
0.0
  0
LINE
  5
169
100
AcDbEntity
  8
top-bottom
 62
5
100
AcDbLine
 10
106.640294
 20
103.598182
 30
0.0
 11
101.171191
 21
66.804585
 31
0.0
  0
SPLINE
  5
16a
100
AcDbEntity
  8
top-bottom
 62
5
100
AcDbSpline
 70
8
 71
3
 72
8
 73
4
 74
0
 40
0
 40
0
 40
0
 40
0
 40
1
 40
1
 40
1
 40
1
 10
101.171191
 20
66.804585
 30
0.0
 10
101.158138
 20
66.675116
 30
0.0
 10
101.105927
 20
66.553055
 30
0.0
 10
101.021260
 20
66.454630
 30
0.0
  0
SPLINE
  5
16b
100
AcDbEntity
  8
top-bottom
 62
5
100
AcDbSpline
 70
8
 71
3
 72
8
 73
4
 74
0
 40
0
 40
0
 40
0
 40
0
 40
1
 40
1
 40
1
 40
1
 10
101.021260
 20
66.454630
 30
0.0
 10
101.021260
 20
66.454630
 30
0.0
 10
86.561984
 20
55.903772
 30
0.0
 10
86.566570
 20
55.907299
 30
0.0
  0
LINE
  5
16c
100
AcDbEntity
  8
top-bottom
 62
5
100
AcDbLine
 10
86.566570
 20
55.907299
 30
0.0
 11
86.566570
 21
55.907299
 31
0.0
  0
SPLINE
  5
16d
100
AcDbEntity
  8
top-bottom
 62
5
100
AcDbSpline
 70
8
 71
3
 72
8
 73
4
 74
0
 40
0
 40
0
 40
0
 40
0
 40
1
 40
1
 40
1
 40
1
 10
45.167256
 20
93.475665
 30
0.0
 10
44.559421
 20
93.475665
 30
0.0
 10
44.067297
 20
93.968142
 30
0.0
 10
44.067297
 20
94.575977
 30
0.0
  0
SPLINE
  5
16e
100
AcDbEntity
  8
top-bottom
 62
5
100
AcDbSpline
 70
8
 71
3
 72
8
 73
4
 74
0
 40
0
 40
0
 40
0
 40
0
 40
1
 40
1
 40
1
 40
1
 10
44.067297
 20
94.575977
 30
0.0
 10
44.067297
 20
95.183459
 30
0.0
 10
44.559421
 20
95.675936
 30
0.0
 10
45.167256
 20
95.675936
 30
0.0
  0
SPLINE
  5
16f
100
AcDbEntity
  8
top-bottom
 62
5
100
AcDbSpline
 70
8
 71
3
 72
8
 73
4
 74
0
 40
0
 40
0
 40
0
 40
0
 40
1
 40
1
 40
1
 40
1
 10
45.167256
 20
95.675936
 30
0.0
 10
45.775091
 20
95.675936
 30
0.0
 10
46.267215
 20
95.183459
 30
0.0
 10
46.267215
 20
94.575977
 30
0.0
  0
SPLINE
  5
170
100
AcDbEntity
  8
top-bottom
 62
5
100
AcDbSpline
 70
8
 71
3
 72
8
 73
4
 74
0
 40
0
 40
0
 40
0
 40
0
 40
1
 40
1
 40
1
 40
1
 10
46.267215
 20
94.575977
 30
0.0
 10
46.267215
 20
93.968142
 30
0.0
 10
45.775091
 20
93.475665
 30
0.0
 10
45.167256
 20
93.475665
 30
0.0
  0
LINE
  5
171
100
AcDbEntity
  8
top-bottom
 62
5
100
AcDbLine
 10
45.167256
 20
93.475665
 30
0.0
 11
45.167256
 21
93.475665
 31
0.0
  0
SPLINE
  5
172
100
AcDbEntity
  8
top-bottom
 62
5
100
AcDbSpline
 70
8
 71
3
 72
8
 73
4
 74
0
 40
0
 40
0
 40
0
 40
0
 40
1
 40
1
 40
1
 40
1
 10
48.789783
 20
17.454063
 30
0.0
 10
48.181948
 20
17.454063
 30
0.0
 10
47.689471
 20
17.946539
 30
0.0
 10
47.689471
 20
18.554022
 30
0.0
  0
SPLINE
  5
173
100
AcDbEntity
  8
top-bottom
 62
5
100
AcDbSpline
 70
8
 71
3
 72
8
 73
4
 74
0
 40
0
 40
0
 40
0
 40
0
 40
1
 40
1
 40
1
 40
1
 10
47.689471
 20
18.554022
 30
0.0
 10
47.689471
 20
19.161504
 30
0.0
 10
48.181948
 20
19.653981
 30
0.0
 10
48.789783
 20
19.653981
 30
0.0
  0
SPLINE
  5
174
100
AcDbEntity
  8
top-bottom
 62
5
100
AcDbSpline
 70
8
 71
3
 72
8
 73
4
 74
0
 40
0
 40
0
 40
0
 40
0
 40
1
 40
1
 40
1
 40
1
 10
48.789783
 20
19.653981
 30
0.0
 10
49.397266
 20
19.653981
 30
0.0
 10
49.889742
 20
19.161504
 30
0.0
 10
49.889742
 20
18.554022
 30
0.0
  0
SPLINE
  5
175
100
AcDbEntity
  8
top-bottom
 62
5
100
AcDbSpline
 70
8
 71
3
 72
8
 73
4
 74
0
 40
0
 40
0
 40
0
 40
0
 40
1
 40
1
 40
1
 40
1
 10
49.889742
 20
18.554022
 30
0.0
 10
49.889742
 20
17.946539
 30
0.0
 10
49.397266
 20
17.454063
 30
0.0
 10
48.789783
 20
17.454063
 30
0.0
  0
LINE
  5
176
100
AcDbEntity
  8
top-bottom
 62
5
100
AcDbLine
 10
48.789783
 20
17.454063
 30
0.0
 11
48.789783
 21
17.454063
 31
0.0
  0
SPLINE
  5
177
100
AcDbEntity
  8
top-bottom
 62
5
100
AcDbSpline
 70
8
 71
3
 72
8
 73
4
 74
0
 40
0
 40
0
 40
0
 40
0
 40
1
 40
1
 40
1
 40
1
 10
67.804612
 20
17.445278
 30
0.0
 10
67.197130
 20
17.445278
 30
0.0
 10
66.704653
 20
17.937755
 30
0.0
 10
66.704653
 20
18.545237
 30
0.0
  0
SPLINE
  5
178
100
AcDbEntity
  8
top-bottom
 62
5
100
AcDbSpline
 70
8
 71
3
 72
8
 73
4
 74
0
 40
0
 40
0
 40
0
 40
0
 40
1
 40
1
 40
1
 40
1
 10
66.704653
 20
18.545237
 30
0.0
 10
66.704653
 20
19.152720
 30
0.0
 10
67.197130
 20
19.645197
 30
0.0
 10
67.804612
 20
19.645197
 30
0.0
  0
SPLINE
  5
179
100
AcDbEntity
  8
top-bottom
 62
5
100
AcDbSpline
 70
8
 71
3
 72
8
 73
4
 74
0
 40
0
 40
0
 40
0
 40
0
 40
1
 40
1
 40
1
 40
1
 10
67.804612
 20
19.645197
 30
0.0
 10
68.412447
 20
19.645197
 30
0.0
 10
68.904924
 20
19.152720
 30
0.0
 10
68.904924
 20
18.545237
 30
0.0
  0
SPLINE
  5
17a
100
AcDbEntity
  8
top-bottom
 62
5
100
AcDbSpline
 70
8
 71
3
 72
8
 73
4
 74
0
 40
0
 40
0
 40
0
 40
0
 40
1
 40
1
 40
1
 40
1
 10
68.904924
 20
18.545237
 30
0.0
 10
68.904924
 20
17.937755
 30
0.0
 10
68.412447
 20
17.445278
 30
0.0
 10
67.804612
 20
17.445278
 30
0.0
  0
LINE
  5
17b
100
AcDbEntity
  8
top-bottom
 62
5
100
AcDbLine
 10
67.804612
 20
17.445278
 30
0.0
 11
67.804612
 21
17.445278
 31
0.0
  0
SPLINE
  5
17c
100
AcDbEntity
  8
top-bottom
 62
5
100
AcDbSpline
 70
8
 71
3
 72
8
 73
4
 74
0
 40
0
 40
0
 40
0
 40
0
 40
1
 40
1
 40
1
 40
1
 10
92.668838
 20
107.217428
 30
0.0
 10
92.061356
 20
107.217428
 30
0.0
 10
91.568879
 20
107.709905
 30
0.0
 10
91.568879
 20
108.317387
 30
0.0
  0
SPLINE
  5
17d
100
AcDbEntity
  8
top-bottom
 62
5
100
AcDbSpline
 70
8
 71
3
 72
8
 73
4
 74
0
 40
0
 40
0
 40
0
 40
0
 40
1
 40
1
 40
1
 40
1
 10
91.568879
 20
108.317387
 30
0.0
 10
91.568879
 20
108.924870
 30
0.0
 10
92.061356
 20
109.417347
 30
0.0
 10
92.668838
 20
109.417347
 30
0.0
  0
SPLINE
  5
17e
100
AcDbEntity
  8
top-bottom
 62
5
100
AcDbSpline
 70
8
 71
3
 72
8
 73
4
 74
0
 40
0
 40
0
 40
0
 40
0
 40
1
 40
1
 40
1
 40
1
 10
92.668838
 20
109.417347
 30
0.0
 10
93.276677
 20
109.417347
 30
0.0
 10
93.768797
 20
108.924870
 30
0.0
 10
93.768797
 20
108.317387
 30
0.0
  0
SPLINE
  5
17f
100
AcDbEntity
  8
top-bottom
 62
5
100
AcDbSpline
 70
8
 71
3
 72
8
 73
4
 74
0
 40
0
 40
0
 40
0
 40
0
 40
1
 40
1
 40
1
 40
1
 10
93.768797
 20
108.317387
 30
0.0
 10
93.768797
 20
107.709905
 30
0.0
 10
93.276677
 20
107.217428
 30
0.0
 10
92.668838
 20
107.217428
 30
0.0
  0
LINE
  5
180
100
AcDbEntity
  8
top-bottom
 62
5
100
AcDbLine
 10
92.668838
 20
107.217428
 30
0.0
 11
92.668838
 21
107.217428
 31
0.0
  0
SPLINE
  5
181
100
AcDbEntity
  8
top-bottom
 62
5
100
AcDbSpline
 70
8
 71
3
 72
8
 73
4
 74
0
 40
0
 40
0
 40
0
 40
0
 40
1
 40
1
 40
1
 40
1
 10
84.914303
 20
60.697519
 30
0.0
 10
84.306821
 20
60.697519
 30
0.0
 10
83.814344
 20
61.189996
 30
0.0
 10
83.814344
 20
61.797478
 30
0.0
  0
SPLINE
  5
182
100
AcDbEntity
  8
top-bottom
 62
5
100
AcDbSpline
 70
8
 71
3
 72
8
 73
4
 74
0
 40
0
 40
0
 40
0
 40
0
 40
1
 40
1
 40
1
 40
1
 10
83.814344
 20
61.797478
 30
0.0
 10
83.814344
 20
62.404960
 30
0.0
 10
84.306821
 20
62.897437
 30
0.0
 10
84.914303
 20
62.897437
 30
0.0
  0
SPLINE
  5
183
100
AcDbEntity
  8
top-bottom
 62
5
100
AcDbSpline
 70
8
 71
3
 72
8
 73
4
 74
0
 40
0
 40
0
 40
0
 40
0
 40
1
 40
1
 40
1
 40
1
 10
84.914303
 20
62.897437
 30
0.0
 10
85.522138
 20
62.897437
 30
0.0
 10
86.014615
 20
62.404960
 30
0.0
 10
86.014615
 20
61.797478
 30
0.0
  0
SPLINE
  5
184
100
AcDbEntity
  8
top-bottom
 62
5
100
AcDbSpline
 70
8
 71
3
 72
8
 73
4
 74
0
 40
0
 40
0
 40
0
 40
0
 40
1
 40
1
 40
1
 40
1
 10
86.014615
 20
61.797478
 30
0.0
 10
86.014615
 20
61.189996
 30
0.0
 10
85.522138
 20
60.697519
 30
0.0
 10
84.914303
 20
60.697519
 30
0.0
  0
LINE
  5
185
100
AcDbEntity
  8
top-bottom
 62
5
100
AcDbLine
 10
84.914303
 20
60.697519
 30
0.0
 11
84.914303
 21
60.697519
 31
0.0
  0
LINE
  5
186
100
AcDbEntity
  8
top-bottom
 62
5
100
AcDbLine
 10
46.207631
 20
2.119617
 30
0.0
 11
46.207631
 21
15.970705
 31
0.0
  0
LINE
  5
187
100
AcDbEntity
  8
top-bottom
 62
5
100
AcDbLine
 10
46.207631
 20
15.970705
 30
0.0
 11
32.356542
 21
15.970705
 31
0.0
  0
LINE
  5
188
100
AcDbEntity
  8
top-bottom
 62
5
100
AcDbLine
 10
32.356542
 20
15.970705
 30
0.0
 11
32.356542
 21
2.119617
 31
0.0
  0
LINE
  5
189
100
AcDbEntity
  8
top-bottom
 62
5
100
AcDbLine
 10
32.356542
 20
2.119617
 30
0.0
 11
46.207631
 21
2.119617
 31
0.0
  0
LINE
  5
18a
100
AcDbEntity
  8
top-bottom
 62
5
100
AcDbLine
 10
65.208913
 20
2.119617
 30
0.0
 11
65.208913
 21
15.970705
 31
0.0
  0
LINE
  5
18b
100
AcDbEntity
  8
top-bottom
 62
5
100
AcDbLine
 10
65.208913
 20
15.970705
 30
0.0
 11
51.357824
 21
15.970705
 31
0.0
  0
LINE
  5
18c
100
AcDbEntity
  8
top-bottom
 62
5
100
AcDbLine
 10
51.357824
 20
15.970705
 30
0.0
 11
51.357824
 21
2.119617
 31
0.0
  0
LINE
  5
18d
100
AcDbEntity
  8
top-bottom
 62
5
100
AcDbLine
 10
51.357824
 20
2.119617
 30
0.0
 11
65.208913
 21
2.119617
 31
0.0
  0
LINE
  5
18e
100
AcDbEntity
  8
top-bottom
 62
5
100
AcDbLine
 10
84.210195
 20
2.119617
 30
0.0
 11
84.210195
 21
15.970705
 31
0.0
  0
LINE
  5
18f
100
AcDbEntity
  8
top-bottom
 62
5
100
AcDbLine
 10
84.210195
 20
15.970705
 30
0.0
 11
70.359106
 21
15.970705
 31
0.0
  0
LINE
  5
190
100
AcDbEntity
  8
top-bottom
 62
5
100
AcDbLine
 10
70.359106
 20
15.970705
 30
0.0
 11
70.359106
 21
2.119617
 31
0.0
  0
LINE
  5
191
100
AcDbEntity
  8
top-bottom
 62
5
100
AcDbLine
 10
70.359106
 20
2.119617
 30
0.0
 11
84.210195
 21
2.119617
 31
0.0
  0
LINE
  5
192
100
AcDbEntity
  8
top-bottom
 62
5
100
AcDbLine
 10
46.207631
 20
21.121251
 30
0.0
 11
46.207631
 21
34.972340
 31
0.0
  0
LINE
  5
193
100
AcDbEntity
  8
top-bottom
 62
5
100
AcDbLine
 10
46.207631
 20
34.972340
 30
0.0
 11
32.356542
 21
34.972340
 31
0.0
  0
LINE
  5
194
100
AcDbEntity
  8
top-bottom
 62
5
100
AcDbLine
 10
32.356542
 20
34.972340
 30
0.0
 11
32.356542
 21
21.121251
 31
0.0
  0
LINE
  5
195
100
AcDbEntity
  8
top-bottom
 62
5
100
AcDbLine
 10
32.356542
 20
21.121251
 30
0.0
 11
46.207631
 21
21.121251
 31
0.0
  0
LINE
  5
196
100
AcDbEntity
  8
top-bottom
 62
5
100
AcDbLine
 10
65.208913
 20
21.121251
 30
0.0
 11
65.208913
 21
34.972340
 31
0.0
  0
LINE
  5
197
100
AcDbEntity
  8
top-bottom
 62
5
100
AcDbLine
 10
65.208913
 20
34.972340
 30
0.0
 11
51.357824
 21
34.972340
 31
0.0
  0
LINE
  5
198
100
AcDbEntity
  8
top-bottom
 62
5
100
AcDbLine
 10
51.357824
 20
34.972340
 30
0.0
 11
51.357824
 21
21.121251
 31
0.0
  0
LINE
  5
199
100
AcDbEntity
  8
top-bottom
 62
5
100
AcDbLine
 10
51.357824
 20
21.121251
 30
0.0
 11
65.208913
 21
21.121251
 31
0.0
  0
LINE
  5
19a
100
AcDbEntity
  8
top-bottom
 62
5
100
AcDbLine
 10
84.210195
 20
21.121251
 30
0.0
 11
84.210195
 21
34.972340
 31
0.0
  0
LINE
  5
19b
100
AcDbEntity
  8
top-bottom
 62
5
100
AcDbLine
 10
84.210195
 20
34.972340
 30
0.0
 11
70.359106
 21
34.972340
 31
0.0
  0
LINE
  5
19c
100
AcDbEntity
  8
top-bottom
 62
5
100
AcDbLine
 10
70.359106
 20
34.972340
 30
0.0
 11
70.359106
 21
21.121251
 31
0.0
  0
LINE
  5
19d
100
AcDbEntity
  8
top-bottom
 62
5
100
AcDbLine
 10
70.359106
 20
21.121251
 30
0.0
 11
84.210195
 21
21.121251
 31
0.0
  0
LINE
  5
19e
100
AcDbEntity
  8
top-bottom
 62
5
100
AcDbLine
 10
41.457134
 20
40.122886
 30
0.0
 11
41.457134
 21
53.973622
 31
0.0
  0
LINE
  5
19f
100
AcDbEntity
  8
top-bottom
 62
5
100
AcDbLine
 10
41.457134
 20
53.973622
 30
0.0
 11
27.606046
 21
53.973622
 31
0.0
  0
LINE
  5
1a0
100
AcDbEntity
  8
top-bottom
 62
5
100
AcDbLine
 10
27.606046
 20
53.973622
 30
0.0
 11
27.606046
 21
40.122886
 31
0.0
  0
LINE
  5
1a1
100
AcDbEntity
  8
top-bottom
 62
5
100
AcDbLine
 10
27.606046
 20
40.122886
 30
0.0
 11
41.457134
 21
40.122886
 31
0.0
  0
LINE
  5
1a2
100
AcDbEntity
  8
top-bottom
 62
5
100
AcDbLine
 10
60.458769
 20
40.122886
 30
0.0
 11
60.458769
 21
53.973622
 31
0.0
  0
LINE
  5
1a3
100
AcDbEntity
  8
top-bottom
 62
5
100
AcDbLine
 10
60.458769
 20
53.973622
 30
0.0
 11
46.607680
 21
53.973622
 31
0.0
  0
LINE
  5
1a4
100
AcDbEntity
  8
top-bottom
 62
5
100
AcDbLine
 10
46.607680
 20
53.973622
 30
0.0
 11
46.607680
 21
40.122886
 31
0.0
  0
LINE
  5
1a5
100
AcDbEntity
  8
top-bottom
 62
5
100
AcDbLine
 10
46.607680
 20
40.122886
 30
0.0
 11
60.458769
 21
40.122886
 31
0.0
  0
LINE
  5
1a6
100
AcDbEntity
  8
top-bottom
 62
5
100
AcDbLine
 10
79.460051
 20
40.122886
 30
0.0
 11
79.460051
 21
53.973622
 31
0.0
  0
LINE
  5
1a7
100
AcDbEntity
  8
top-bottom
 62
5
100
AcDbLine
 10
79.460051
 20
53.973622
 30
0.0
 11
65.608962
 21
53.973622
 31
0.0
  0
LINE
  5
1a8
100
AcDbEntity
  8
top-bottom
 62
5
100
AcDbLine
 10
65.608962
 20
53.973622
 30
0.0
 11
65.608962
 21
40.122886
 31
0.0
  0
LINE
  5
1a9
100
AcDbEntity
  8
top-bottom
 62
5
100
AcDbLine
 10
65.608962
 20
40.122886
 30
0.0
 11
79.460051
 21
40.122886
 31
0.0
  0
LINE
  5
1aa
100
AcDbEntity
  8
top-bottom
 62
5
100
AcDbLine
 10
39.082238
 20
59.123815
 30
0.0
 11
39.082238
 21
72.974904
 31
0.0
  0
LINE
  5
1ab
100
AcDbEntity
  8
top-bottom
 62
5
100
AcDbLine
 10
39.082238
 20
72.974904
 30
0.0
 11
25.231150
 21
72.974904
 31
0.0
  0
LINE
  5
1ac
100
AcDbEntity
  8
top-bottom
 62
5
100
AcDbLine
 10
25.231150
 20
72.974904
 30
0.0
 11
25.231150
 21
59.123815
 31
0.0
  0
LINE
  5
1ad
100
AcDbEntity
  8
top-bottom
 62
5
100
AcDbLine
 10
25.231150
 20
59.123815
 30
0.0
 11
39.082238
 21
59.123815
 31
0.0
  0
LINE
  5
1ae
100
AcDbEntity
  8
top-bottom
 62
5
100
AcDbLine
 10
58.083521
 20
59.123815
 30
0.0
 11
58.083521
 21
72.974904
 31
0.0
  0
LINE
  5
1af
100
AcDbEntity
  8
top-bottom
 62
5
100
AcDbLine
 10
58.083521
 20
72.974904
 30
0.0
 11
44.232432
 21
72.974904
 31
0.0
  0
LINE
  5
1b0
100
AcDbEntity
  8
top-bottom
 62
5
100
AcDbLine
 10
44.232432
 20
72.974904
 30
0.0
 11
44.232432
 21
59.123815
 31
0.0
  0
LINE
  5
1b1
100
AcDbEntity
  8
top-bottom
 62
5
100
AcDbLine
 10
44.232432
 20
59.123815
 30
0.0
 11
58.083521
 21
59.123815
 31
0.0
  0
LINE
  5
1b2
100
AcDbEntity
  8
top-bottom
 62
5
100
AcDbLine
 10
77.084803
 20
59.123815
 30
0.0
 11
77.084803
 21
72.974904
 31
0.0
  0
LINE
  5
1b3
100
AcDbEntity
  8
top-bottom
 62
5
100
AcDbLine
 10
77.084803
 20
72.974904
 30
0.0
 11
63.233714
 21
72.974904
 31
0.0
  0
LINE
  5
1b4
100
AcDbEntity
  8
top-bottom
 62
5
100
AcDbLine
 10
63.233714
 20
72.974904
 30
0.0
 11
63.233714
 21
59.123815
 31
0.0
  0
LINE
  5
1b5
100
AcDbEntity
  8
top-bottom
 62
5
100
AcDbLine
 10
63.233714
 20
59.123815
 30
0.0
 11
77.084803
 21
59.123815
 31
0.0
  0
LINE
  5
1b6
100
AcDbEntity
  8
top-bottom
 62
5
100
AcDbLine
 10
41.457134
 20
78.125450
 30
0.0
 11
41.457134
 21
91.976186
 31
0.0
  0
LINE
  5
1b7
100
AcDbEntity
  8
top-bottom
 62
5
100
AcDbLine
 10
41.457134
 20
91.976186
 30
0.0
 11
27.606046
 21
91.976186
 31
0.0
  0
LINE
  5
1b8
100
AcDbEntity
  8
top-bottom
 62
5
100
AcDbLine
 10
27.606046
 20
91.976186
 30
0.0
 11
27.606046
 21
78.125450
 31
0.0
  0
LINE
  5
1b9
100
AcDbEntity
  8
top-bottom
 62
5
100
AcDbLine
 10
27.606046
 20
78.125450
 30
0.0
 11
41.457134
 21
78.125450
 31
0.0
  0
LINE
  5
1ba
100
AcDbEntity
  8
top-bottom
 62
5
100
AcDbLine
 10
60.458769
 20
78.125450
 30
0.0
 11
60.458769
 21
91.976186
 31
0.0
  0
LINE
  5
1bb
100
AcDbEntity
  8
top-bottom
 62
5
100
AcDbLine
 10
60.458769
 20
91.976186
 30
0.0
 11
46.607680
 21
91.976186
 31
0.0
  0
LINE
  5
1bc
100
AcDbEntity
  8
top-bottom
 62
5
100
AcDbLine
 10
46.607680
 20
91.976186
 30
0.0
 11
46.607680
 21
78.125450
 31
0.0
  0
LINE
  5
1bd
100
AcDbEntity
  8
top-bottom
 62
5
100
AcDbLine
 10
46.607680
 20
78.125450
 30
0.0
 11
60.458769
 21
78.125450
 31
0.0
  0
LINE
  5
1be
100
AcDbEntity
  8
top-bottom
 62
5
100
AcDbLine
 10
79.460051
 20
78.125450
 30
0.0
 11
79.460051
 21
91.976186
 31
0.0
  0
LINE
  5
1bf
100
AcDbEntity
  8
top-bottom
 62
5
100
AcDbLine
 10
79.460051
 20
91.976186
 30
0.0
 11
65.608962
 21
91.976186
 31
0.0
  0
LINE
  5
1c0
100
AcDbEntity
  8
top-bottom
 62
5
100
AcDbLine
 10
65.608962
 20
91.976186
 30
0.0
 11
65.608962
 21
78.125450
 31
0.0
  0
LINE
  5
1c1
100
AcDbEntity
  8
top-bottom
 62
5
100
AcDbLine
 10
65.608962
 20
78.125450
 30
0.0
 11
79.460051
 21
78.125450
 31
0.0
  0
LINE
  5
1c2
100
AcDbEntity
  8
top-bottom
 62
5
100
AcDbLine
 10
43.832383
 20
97.126732
 30
0.0
 11
43.832383
 21
110.977821
 31
0.0
  0
LINE
  5
1c3
100
AcDbEntity
  8
top-bottom
 62
5
100
AcDbLine
 10
43.832383
 20
110.977821
 30
0.0
 11
29.981647
 21
110.977821
 31
0.0
  0
LINE
  5
1c4
100
AcDbEntity
  8
top-bottom
 62
5
100
AcDbLine
 10
29.981647
 20
110.977821
 30
0.0
 11
29.981647
 21
97.126732
 31
0.0
  0
LINE
  5
1c5
100
AcDbEntity
  8
top-bottom
 62
5
100
AcDbLine
 10
29.981647
 20
97.126732
 30
0.0
 11
43.832383
 21
97.126732
 31
0.0
  0
LINE
  5
1c6
100
AcDbEntity
  8
top-bottom
 62
5
100
AcDbLine
 10
62.833665
 20
97.126732
 30
0.0
 11
62.833665
 21
110.977821
 31
0.0
  0
LINE
  5
1c7
100
AcDbEntity
  8
top-bottom
 62
5
100
AcDbLine
 10
62.833665
 20
110.977821
 30
0.0
 11
48.982576
 21
110.977821
 31
0.0
  0
LINE
  5
1c8
100
AcDbEntity
  8
top-bottom
 62
5
100
AcDbLine
 10
48.982576
 20
110.977821
 30
0.0
 11
48.982576
 21
97.126732
 31
0.0
  0
LINE
  5
1c9
100
AcDbEntity
  8
top-bottom
 62
5
100
AcDbLine
 10
48.982576
 20
97.126732
 30
0.0
 11
62.833665
 21
97.126732
 31
0.0
  0
LINE
  5
1ca
100
AcDbEntity
  8
top-bottom
 62
5
100
AcDbLine
 10
81.834947
 20
97.126732
 30
0.0
 11
81.834947
 21
110.977821
 31
0.0
  0
LINE
  5
1cb
100
AcDbEntity
  8
top-bottom
 62
5
100
AcDbLine
 10
81.834947
 20
110.977821
 30
0.0
 11
67.983858
 21
110.977821
 31
0.0
  0
LINE
  5
1cc
100
AcDbEntity
  8
top-bottom
 62
5
100
AcDbLine
 10
67.983858
 20
110.977821
 30
0.0
 11
67.983858
 21
97.126732
 31
0.0
  0
LINE
  5
1cd
100
AcDbEntity
  8
top-bottom
 62
5
100
AcDbLine
 10
67.983858
 20
97.126732
 30
0.0
 11
81.834947
 21
97.126732
 31
0.0
  0
LINE
  5
1ce
100
AcDbEntity
  8
top-bottom
 62
5
100
AcDbLine
 10
99.086458
 20
68.624809
 30
0.0
 11
99.086458
 21
82.475898
 31
0.0
  0
LINE
  5
1cf
100
AcDbEntity
  8
top-bottom
 62
5
100
AcDbLine
 10
99.086458
 20
82.475898
 30
0.0
 11
85.235365
 21
82.475898
 31
0.0
  0
LINE
  5
1d0
100
AcDbEntity
  8
top-bottom
 62
5
100
AcDbLine
 10
85.235365
 20
82.475898
 30
0.0
 11
85.235365
 21
68.624809
 31
0.0
  0
LINE
  5
1d1
100
AcDbEntity
  8
top-bottom
 62
5
100
AcDbLine
 10
85.235365
 20
68.624809
 30
0.0
 11
99.086458
 21
68.624809
 31
0.0
  0
LINE
  5
1d2
100
AcDbEntity
  8
top-bottom
 62
5
100
AcDbLine
 10
86.434949
 20
91.653713
 30
0.0
 11
99.817549
 21
88.082197
 31
0.0
  0
LINE
  5
1d3
100
AcDbEntity
  8
top-bottom
 62
5
100
AcDbLine
 10
99.817549
 20
88.082197
 30
0.0
 11
103.389065
 21
101.465150
 31
0.0
  0
LINE
  5
1d4
100
AcDbEntity
  8
top-bottom
 62
5
100
AcDbLine
 10
103.389065
 20
101.465150
 30
0.0
 11
90.006112
 21
105.036313
 31
0.0
  0
LINE
  5
1d5
100
AcDbEntity
  8
top-bottom
 62
5
100
AcDbLine
 10
90.006112
 20
105.036313
 30
0.0
 11
86.434949
 21
91.653713
 31
0.0
  0
LINE
  5
1d6
100
AcDbEntity
  8
top-bottom
 62
5
100
AcDbLine
 10
89.196559
 20
116.266303
 30
0.0
 11
101.196626
 21
109.349049
 31
0.0
  0
LINE
  5
1d7
100
AcDbEntity
  8
top-bottom
 62
5
100
AcDbLine
 10
101.196626
 20
109.349049
 30
0.0
 11
108.113880
 21
121.349116
 31
0.0
  0
LINE
  5
1d8
100
AcDbEntity
  8
top-bottom
 62
5
100
AcDbLine
 10
108.113880
 20
121.349116
 30
0.0
 11
96.113813
 21
128.266370
 31
0.0
  0
LINE
  5
1d9
100
AcDbEntity
  8
top-bottom
 62
5
100
AcDbLine
 10
96.113813
 20
128.266370
 30
0.0
 11
89.196559
 21
116.266303
 31
0.0
  0
LINE
  5
1da
100
AcDbEntity
  8
top-bottom
 62
5
100
AcDbLine
 10
102.120722
 20
28.194250
 30
0.0
 11
149.477172
 21
28.194250
 31
0.0
  0
SPLINE
  5
1db
100
AcDbEntity
  8
top-bottom
 62
5
100
AcDbSpline
 70
8
 71
3
 72
8
 73
4
 74
0
 40
0
 40
0
 40
0
 40
0
 40
1
 40
1
 40
1
 40
1
 10
149.477172
 20
28.194250
 30
0.0
 10
150.000340
 20
28.253869
 30
0.0
 10
150.258573
 20
28.488466
 30
0.0
 10
150.559139
 20
28.833129
 30
0.0
  0
LINE
  5
1dc
100
AcDbEntity
  8
top-bottom
 62
5
100
AcDbLine
 10
150.559139
 20
28.833129
 30
0.0
 11
161.415503
 21
47.672839
 31
0.0
  0
SPLINE
  5
1dd
100
AcDbEntity
  8
top-bottom
 62
5
100
AcDbSpline
 70
8
 71
3
 72
8
 73
4
 74
0
 40
0
 40
0
 40
0
 40
0
 40
1
 40
1
 40
1
 40
1
 10
161.415503
 20
47.672839
 30
0.0
 10
161.585541
 20
48.077474
 30
0.0
 10
161.395394
 20
48.543493
 30
0.0
 10
160.990759
 20
48.713884
 30
0.0
  0
SPLINE
  5
1de
100
AcDbEntity
  8
top-bottom
 62
5
100
AcDbSpline
 70
8
 71
3
 72
8
 73
4
 74
0
 40
0
 40
0
 40
0
 40
0
 40
1
 40
1
 40
1
 40
1
 10
160.990759
 20
48.713884
 30
0.0
 10
160.931140
 20
48.738579
 30
0.0
 10
160.868698
 20
48.756570
 30
0.0
 10
160.804846
 20
48.766095
 30
0.0
  0
LINE
  5
1df
100
AcDbEntity
  8
top-bottom
 62
5
100
AcDbLine
 10
160.804846
 20
48.766095
 30
0.0
 11
102.130953
 21
48.765390
 31
0.0
  0
SPLINE
  5
1e0
100
AcDbEntity
  8
top-bottom
 62
5
100
AcDbSpline
 70
8
 71
3
 72
8
 73
4
 74
0
 40
0
 40
0
 40
0
 40
0
 40
1
 40
1
 40
1
 40
1
 10
102.130953
 20
48.765390
 30
0.0
 10
101.855081
 20
48.765390
 30
0.0
 10
101.631067
 20
48.541376
 30
0.0
 10
101.631067
 20
48.265152
 30
0.0
  0
LINE
  5
1e1
100
AcDbEntity
  8
top-bottom
 62
5
100
AcDbLine
 10
101.631067
 20
48.265152
 30
0.0
 11
101.620131
 21
28.694487
 31
0.0
  0
SPLINE
  5
1e2
100
AcDbEntity
  8
top-bottom
 62
5
100
AcDbSpline
 70
8
 71
3
 72
8
 73
4
 74
0
 40
0
 40
0
 40
0
 40
0
 40
1
 40
1
 40
1
 40
1
 10
101.620131
 20
28.694487
 30
0.0
 10
101.620837
 20
28.418263
 30
0.0
 10
101.844850
 20
28.194250
 30
0.0
 10
102.120722
 20
28.194250
 30
0.0
  0
SPLINE
  5
1e3
100
AcDbEntity
  8
top-bottom
 62
5
100
AcDbSpline
 70
8
 71
3
 72
8
 73
4
 74
0
 40
0
 40
0
 40
0
 40
0
 40
1
 40
1
 40
1
 40
1
 10
149.094162
 20
30.671415
 30
0.0
 10
148.486327
 20
30.671415
 30
0.0
 10
147.994203
 20
31.163892
 30
0.0
 10
147.994203
 20
31.771374
 30
0.0
  0
SPLINE
  5
1e4
100
AcDbEntity
  8
top-bottom
 62
5
100
AcDbSpline
 70
8
 71
3
 72
8
 73
4
 74
0
 40
0
 40
0
 40
0
 40
0
 40
1
 40
1
 40
1
 40
1
 10
147.994203
 20
31.771374
 30
0.0
 10
147.994203
 20
32.378857
 30
0.0
 10
148.486327
 20
32.871686
 30
0.0
 10
149.094162
 20
32.871686
 30
0.0
  0
SPLINE
  5
1e5
100
AcDbEntity
  8
top-bottom
 62
5
100
AcDbSpline
 70
8
 71
3
 72
8
 73
4
 74
0
 40
0
 40
0
 40
0
 40
0
 40
1
 40
1
 40
1
 40
1
 10
149.094162
 20
32.871686
 30
0.0
 10
149.701644
 20
32.871686
 30
0.0
 10
150.194121
 20
32.378857
 30
0.0
 10
150.194121
 20
31.771374
 30
0.0
  0
SPLINE
  5
1e6
100
AcDbEntity
  8
top-bottom
 62
5
100
AcDbSpline
 70
8
 71
3
 72
8
 73
4
 74
0
 40
0
 40
0
 40
0
 40
0
 40
1
 40
1
 40
1
 40
1
 10
150.194121
 20
31.771374
 30
0.0
 10
150.194121
 20
31.163892
 30
0.0
 10
149.701644
 20
30.671415
 30
0.0
 10
149.094162
 20
30.671415
 30
0.0
  0
LINE
  5
1e7
100
AcDbEntity
  8
top-bottom
 62
5
100
AcDbLine
 10
149.094162
 20
30.671415
 30
0.0
 11
149.094162
 21
30.671415
 31
0.0
  0
SPLINE
  5
1e8
100
AcDbEntity
  8
top-bottom
 62
5
100
AcDbSpline
 70
8
 71
3
 72
8
 73
4
 74
0
 40
0
 40
0
 40
0
 40
0
 40
1
 40
1
 40
1
 40
1
 10
157.594574
 20
45.172319
 30
0.0
 10
156.987091
 20
45.172319
 30
0.0
 10
156.494615
 20
45.664796
 30
0.0
 10
156.494615
 20
46.272631
 30
0.0
  0
SPLINE
  5
1e9
100
AcDbEntity
  8
top-bottom
 62
5
100
AcDbSpline
 70
8
 71
3
 72
8
 73
4
 74
0
 40
0
 40
0
 40
0
 40
0
 40
1
 40
1
 40
1
 40
1
 10
156.494615
 20
46.272631
 30
0.0
 10
156.494615
 20
46.880114
 30
0.0
 10
156.987091
 20
47.372590
 30
0.0
 10
157.594574
 20
47.372590
 30
0.0
  0
SPLINE
  5
1ea
100
AcDbEntity
  8
top-bottom
 62
5
100
AcDbSpline
 70
8
 71
3
 72
8
 73
4
 74
0
 40
0
 40
0
 40
0
 40
0
 40
1
 40
1
 40
1
 40
1
 10
157.594574
 20
47.372590
 30
0.0
 10
158.202409
 20
47.372590
 30
0.0
 10
158.694886
 20
46.880114
 30
0.0
 10
158.694886
 20
46.272631
 30
0.0
  0
SPLINE
  5
1eb
100
AcDbEntity
  8
top-bottom
 62
5
100
AcDbSpline
 70
8
 71
3
 72
8
 73
4
 74
0
 40
0
 40
0
 40
0
 40
0
 40
1
 40
1
 40
1
 40
1
 10
158.694886
 20
46.272631
 30
0.0
 10
158.694886
 20
45.664796
 30
0.0
 10
158.202409
 20
45.172319
 30
0.0
 10
157.594574
 20
45.172319
 30
0.0
  0
LINE
  5
1ec
100
AcDbEntity
  8
top-bottom
 62
5
100
AcDbLine
 10
157.594574
 20
45.172319
 30
0.0
 11
157.594574
 21
45.172319
 31
0.0
  0
SPLINE
  5
1ed
100
AcDbEntity
  8
top-bottom
 62
5
100
AcDbSpline
 70
8
 71
3
 72
8
 73
4
 74
0
 40
0
 40
0
 40
0
 40
0
 40
1
 40
1
 40
1
 40
1
 10
136.548966
 20
135.542638
 30
0.0
 10
136.642804
 20
135.636477
 30
0.0
 10
136.695368
 20
135.763477
 30
0.0
 10
136.695368
 20
135.896121
 30
0.0
  0
LINE
  5
1ee
100
AcDbEntity
  8
top-bottom
 62
5
100
AcDbLine
 10
136.695368
 20
135.896121
 30
0.0
 11
136.695368
 21
171.898791
 31
0.0
  0
LINE
  5
1ef
100
AcDbEntity
  8
top-bottom
 62
5
100
AcDbLine
 10
136.695368
 20
171.898791
 30
0.0
 11
136.695368
 21
173.899038
 31
0.0
  0
LINE
  5
1f0
100
AcDbEntity
  8
top-bottom
 62
5
100
AcDbLine
 10
136.695368
 20
173.899038
 30
0.0
 11
136.695368
 21
190.900073
 31
0.0
  0
SPLINE
  5
1f1
100
AcDbEntity
  8
top-bottom
 62
5
100
AcDbSpline
 70
8
 71
3
 72
8
 73
4
 74
0
 40
0
 40
0
 40
0
 40
0
 40
1
 40
1
 40
1
 40
1
 10
136.695368
 20
190.900073
 30
0.0
 10
136.695368
 20
191.176298
 30
0.0
 10
136.919382
 20
191.399959
 30
0.0
 10
137.195606
 20
191.399959
 30
0.0
  0
LINE
  5
1f2
100
AcDbEntity
  8
top-bottom
 62
5
100
AcDbLine
 10
137.195606
 20
191.399959
 30
0.0
 11
192.449325
 21
191.399959
 31
0.0
  0
SPLINE
  5
1f3
100
AcDbEntity
  8
top-bottom
 62
5
100
AcDbSpline
 70
8
 71
3
 72
8
 73
4
 74
0
 40
0
 40
0
 40
0
 40
0
 40
1
 40
1
 40
1
 40
1
 10
192.449325
 20
191.399959
 30
0.0
 10
192.725549
 20
191.399959
 30
0.0
 10
192.949210
 20
191.176298
 30
0.0
 10
192.949210
 20
190.900073
 30
0.0
  0
LINE
  5
1f4
100
AcDbEntity
  8
top-bottom
 62
5
100
AcDbLine
 10
192.949210
 20
190.900073
 30
0.0
 11
192.949210
 21
173.899038
 31
0.0
  0
LINE
  5
1f5
100
AcDbEntity
  8
top-bottom
 62
5
100
AcDbLine
 10
192.949210
 20
173.899038
 30
0.0
 11
192.949210
 21
171.898791
 31
0.0
  0
LINE
  5
1f6
100
AcDbEntity
  8
top-bottom
 62
5
100
AcDbLine
 10
192.949210
 20
171.898791
 30
0.0
 11
192.949210
 21
153.897280
 31
0.0
  0
SPLINE
  5
1f7
100
AcDbEntity
  8
top-bottom
 62
5
100
AcDbSpline
 70
8
 71
3
 72
8
 73
4
 74
0
 40
0
 40
0
 40
0
 40
0
 40
1
 40
1
 40
1
 40
1
 10
192.949210
 20
153.897280
 30
0.0
 10
192.949210
 20
153.621408
 30
0.0
 10
193.173224
 20
153.397395
 30
0.0
 10
193.449448
 20
153.397395
 30
0.0
  0
LINE
  5
1f8
100
AcDbEntity
  8
top-bottom
 62
5
100
AcDbLine
 10
193.449448
 20
153.397395
 30
0.0
 11
197.199822
 21
153.397395
 31
0.0
  0
SPLINE
  5
1f9
100
AcDbEntity
  8
top-bottom
 62
5
100
AcDbSpline
 70
8
 71
3
 72
8
 73
4
 74
0
 40
0
 40
0
 40
0
 40
0
 40
1
 40
1
 40
1
 40
1
 10
197.199822
 20
153.397395
 30
0.0
 10
197.475694
 20
153.397395
 30
0.0
 10
197.699707
 20
153.173734
 30
0.0
 10
197.699707
 20
152.897509
 30
0.0
  0
LINE
  5
1fa
100
AcDbEntity
  8
top-bottom
 62
5
100
AcDbLine
 10
197.699707
 20
152.897509
 30
0.0
 11
197.699707
 21
134.895998
 31
0.0
  0
SPLINE
  5
1fb
100
AcDbEntity
  8
top-bottom
 62
5
100
AcDbSpline
 70
8
 71
3
 72
8
 73
4
 74
0
 40
0
 40
0
 40
0
 40
0
 40
1
 40
1
 40
1
 40
1
 10
197.699707
 20
134.895998
 30
0.0
 10
197.699707
 20
134.620126
 30
0.0
 10
197.923721
 20
134.396113
 30
0.0
 10
198.199945
 20
134.396113
 30
0.0
  0
LINE
  5
1fc
100
AcDbEntity
  8
top-bottom
 62
5
100
AcDbLine
 10
198.199945
 20
134.396113
 30
0.0
 11
199.449834
 21
134.396113
 31
0.0
  0
SPLINE
  5
1fd
100
AcDbEntity
  8
top-bottom
 62
5
100
AcDbSpline
 70
8
 71
3
 72
8
 73
4
 74
0
 40
0
 40
0
 40
0
 40
0
 40
1
 40
1
 40
1
 40
1
 10
199.449834
 20
134.396113
 30
0.0
 10
199.726059
 20
134.396113
 30
0.0
 10
199.949720
 20
134.172099
 30
0.0
 10
199.949720
 20
133.896227
 30
0.0
  0
LINE
  5
1fe
100
AcDbEntity
  8
top-bottom
 62
5
100
AcDbLine
 10
199.949720
 20
133.896227
 30
0.0
 11
199.949720
 21
116.894839
 31
0.0
  0
SPLINE
  5
1ff
100
AcDbEntity
  8
top-bottom
 62
5
100
AcDbSpline
 70
8
 71
3
 72
8
 73
4
 74
0
 40
0
 40
0
 40
0
 40
0
 40
1
 40
1
 40
1
 40
1
 10
199.949720
 20
116.894839
 30
0.0
 10
199.949720
 20
116.618614
 30
0.0
 10
199.726059
 20
116.394954
 30
0.0
 10
199.449834
 20
116.394954
 30
0.0
  0
LINE
  5
200
100
AcDbEntity
  8
top-bottom
 62
5
100
AcDbLine
 10
199.449834
 20
116.394954
 30
0.0
 11
198.199945
 21
116.394954
 31
0.0
  0
SPLINE
  5
201
100
AcDbEntity
  8
top-bottom
 62
5
100
AcDbSpline
 70
8
 71
3
 72
8
 73
4
 74
0
 40
0
 40
0
 40
0
 40
0
 40
1
 40
1
 40
1
 40
1
 10
198.199945
 20
116.394954
 30
0.0
 10
197.923721
 20
116.394954
 30
0.0
 10
197.699707
 20
116.170940
 30
0.0
 10
197.699707
 20
115.894716
 30
0.0
  0
LINE
  5
202
100
AcDbEntity
  8
top-bottom
 62
5
100
AcDbLine
 10
197.699707
 20
115.894716
 30
0.0
 11
197.699707
 21
97.893557
 31
0.0
  0
SPLINE
  5
203
100
AcDbEntity
  8
top-bottom
 62
5
100
AcDbSpline
 70
8
 71
3
 72
8
 73
4
 74
0
 40
0
 40
0
 40
0
 40
0
 40
1
 40
1
 40
1
 40
1
 10
197.699707
 20
97.893557
 30
0.0
 10
197.699707
 20
97.617332
 30
0.0
 10
197.475694
 20
97.393672
 30
0.0
 10
197.199822
 20
97.393672
 30
0.0
  0
LINE
  5
204
100
AcDbEntity
  8
top-bottom
 62
5
100
AcDbLine
 10
197.199822
 20
97.393672
 30
0.0
 11
195.699461
 21
97.393672
 31
0.0
  0
SPLINE
  5
205
100
AcDbEntity
  8
top-bottom
 62
5
100
AcDbSpline
 70
8
 71
3
 72
8
 73
4
 74
0
 40
0
 40
0
 40
0
 40
0
 40
1
 40
1
 40
1
 40
1
 10
195.699461
 20
97.393672
 30
0.0
 10
195.423589
 20
97.393672
 30
0.0
 10
195.199575
 20
97.169658
 30
0.0
 10
195.199575
 20
96.893434
 30
0.0
  0
LINE
  5
206
100
AcDbEntity
  8
top-bottom
 62
5
100
AcDbLine
 10
195.199575
 20
96.893434
 30
0.0
 11
195.199575
 21
78.892275
 31
0.0
  0
SPLINE
  5
207
100
AcDbEntity
  8
top-bottom
 62
5
100
AcDbSpline
 70
8
 71
3
 72
8
 73
4
 74
0
 40
0
 40
0
 40
0
 40
0
 40
1
 40
1
 40
1
 40
1
 10
195.199575
 20
78.892275
 30
0.0
 10
195.199575
 20
78.616050
 30
0.0
 10
194.975562
 20
78.392390
 30
0.0
 10
194.699338
 20
78.392390
 30
0.0
  0
LINE
  5
208
100
AcDbEntity
  8
top-bottom
 62
5
100
AcDbLine
 10
194.699338
 20
78.392390
 30
0.0
 11
193.464970
 21
78.392390
 31
0.0
  0
SPLINE
  5
209
100
AcDbEntity
  8
top-bottom
 62
5
100
AcDbSpline
 70
8
 71
3
 72
8
 73
4
 74
0
 40
0
 40
0
 40
0
 40
0
 40
1
 40
1
 40
1
 40
1
 10
193.464970
 20
78.392390
 30
0.0
 10
193.196860
 20
78.363815
 30
0.0
 10
192.981666
 20
78.157793
 30
0.0
 10
192.941449
 20
77.891446
 30
0.0
  0
LINE
  5
20a
100
AcDbEntity
  8
top-bottom
 62
5
100
AcDbLine
 10
192.941449
 20
77.891446
 30
0.0
 11
192.941449
 21
58.140160
 31
0.0
  0
SPLINE
  5
20b
100
AcDbEntity
  8
top-bottom
 62
5
100
AcDbSpline
 70
8
 71
3
 72
8
 73
4
 74
0
 40
0
 40
0
 40
0
 40
0
 40
1
 40
1
 40
1
 40
1
 10
192.941449
 20
58.140160
 30
0.0
 10
192.941449
 20
57.863935
 30
0.0
 10
192.717436
 20
57.639922
 30
0.0
 10
192.441564
 20
57.639922
 30
0.0
  0
LINE
  5
20c
100
AcDbEntity
  8
top-bottom
 62
5
100
AcDbLine
 10
192.441564
 20
57.639922
 30
0.0
 11
133.480863
 21
57.639922
 31
0.0
  0
SPLINE
  5
20d
100
AcDbEntity
  8
top-bottom
 62
5
100
AcDbSpline
 70
8
 71
3
 72
8
 73
4
 74
0
 40
0
 40
0
 40
0
 40
0
 40
1
 40
1
 40
1
 40
1
 10
133.480863
 20
57.639922
 30
0.0
 10
132.667359
 20
57.683314
 30
0.0
 10
131.877844
 20
57.928846
 30
0.0
 10
131.183226
 20
58.354648
 30
0.0
  0
LINE
  5
20e
100
AcDbEntity
  8
top-bottom
 62
5
100
AcDbLine
 10
131.183226
 20
58.354648
 30
0.0
 11
108.143351
 21
71.591905
 31
0.0
  0
SPLINE
  5
20f
100
AcDbEntity
  8
top-bottom
 62
5
100
AcDbSpline
 70
8
 71
3
 72
8
 73
4
 74
0
 40
0
 40
0
 40
0
 40
0
 40
1
 40
1
 40
1
 40
1
 10
108.143351
 20
71.591905
 30
0.0
 10
108.136295
 20
71.596491
 30
0.0
 10
108.129240
 20
71.601430
 30
0.0
 10
108.122184
 20
71.606369
 30
0.0
  0
SPLINE
  5
210
100
AcDbEntity
  8
top-bottom
 62
5
100
AcDbSpline
 70
8
 71
3
 72
8
 73
4
 74
0
 40
0
 40
0
 40
0
 40
0
 40
1
 40
1
 40
1
 40
1
 10
108.122184
 20
71.606369
 30
0.0
 10
107.729191
 20
71.884357
 30
0.0
 10
107.635352
 20
72.428692
 30
0.0
 10
107.913340
 20
72.821686
 30
0.0
  0
LINE
  5
211
100
AcDbEntity
  8
top-bottom
 62
5
100
AcDbLine
 10
107.913340
 20
72.821686
 30
0.0
 11
116.403275
 21
87.571651
 31
0.0
  0
SPLINE
  5
212
100
AcDbEntity
  8
top-bottom
 62
5
100
AcDbSpline
 70
8
 71
3
 72
8
 73
4
 74
0
 40
0
 40
0
 40
0
 40
0
 40
1
 40
1
 40
1
 40
1
 10
116.403275
 20
87.571651
 30
0.0
 10
116.434672
 20
87.662667
 30
0.0
 10
116.459013
 20
87.756506
 30
0.0
 10
116.475241
 20
87.851756
 30
0.0
  0
LINE
  5
213
100
AcDbEntity
  8
top-bottom
 62
5
100
AcDbLine
 10
116.475241
 20
87.851756
 30
0.0
 11
121.944698
 21
124.645353
 31
0.0
  0
SPLINE
  5
214
100
AcDbEntity
  8
top-bottom
 62
5
100
AcDbSpline
 70
8
 71
3
 72
8
 73
4
 74
0
 40
0
 40
0
 40
0
 40
0
 40
1
 40
1
 40
1
 40
1
 10
121.944698
 20
124.645353
 30
0.0
 10
121.957751
 20
124.774822
 30
0.0
 10
122.009962
 20
124.896883
 30
0.0
 10
122.094275
 20
124.995660
 30
0.0
  0
SPLINE
  5
215
100
AcDbEntity
  8
top-bottom
 62
5
100
AcDbSpline
 70
8
 71
3
 72
8
 73
4
 74
0
 40
0
 40
0
 40
0
 40
0
 40
1
 40
1
 40
1
 40
1
 10
122.094275
 20
124.995660
 30
0.0
 10
122.094275
 20
124.995660
 30
0.0
 10
136.553905
 20
135.546166
 30
0.0
 10
136.548966
 20
135.542638
 30
0.0
  0
LINE
  5
216
100
AcDbEntity
  8
top-bottom
 62
5
100
AcDbLine
 10
136.548966
 20
135.542638
 30
0.0
 11
136.548966
 21
135.542638
 31
0.0
  0
SPLINE
  5
217
100
AcDbEntity
  8
top-bottom
 62
5
100
AcDbSpline
 70
8
 71
3
 72
8
 73
4
 74
0
 40
0
 40
0
 40
0
 40
0
 40
1
 40
1
 40
1
 40
1
 10
138.199857
 20
130.752560
 30
0.0
 10
138.807339
 20
130.752560
 30
0.0
 10
139.299816
 20
130.260083
 30
0.0
 10
139.299816
 20
129.652248
 30
0.0
  0
SPLINE
  5
218
100
AcDbEntity
  8
top-bottom
 62
5
100
AcDbSpline
 70
8
 71
3
 72
8
 73
4
 74
0
 40
0
 40
0
 40
0
 40
0
 40
1
 40
1
 40
1
 40
1
 10
139.299816
 20
129.652248
 30
0.0
 10
139.299816
 20
129.044766
 30
0.0
 10
138.807339
 20
128.552289
 30
0.0
 10
138.199857
 20
128.552289
 30
0.0
  0
SPLINE
  5
219
100
AcDbEntity
  8
top-bottom
 62
5
100
AcDbSpline
 70
8
 71
3
 72
8
 73
4
 74
0
 40
0
 40
0
 40
0
 40
0
 40
1
 40
1
 40
1
 40
1
 10
138.199857
 20
128.552289
 30
0.0
 10
137.592022
 20
128.552289
 30
0.0
 10
137.099898
 20
129.044766
 30
0.0
 10
137.099898
 20
129.652248
 30
0.0
  0
SPLINE
  5
21a
100
AcDbEntity
  8
top-bottom
 62
5
100
AcDbSpline
 70
8
 71
3
 72
8
 73
4
 74
0
 40
0
 40
0
 40
0
 40
0
 40
1
 40
1
 40
1
 40
1
 10
137.099898
 20
129.652248
 30
0.0
 10
137.099898
 20
130.260083
 30
0.0
 10
137.592022
 20
130.752560
 30
0.0
 10
138.199857
 20
130.752560
 30
0.0
  0
LINE
  5
21b
100
AcDbEntity
  8
top-bottom
 62
5
100
AcDbLine
 10
138.199857
 20
130.752560
 30
0.0
 11
138.199857
 21
130.752560
 31
0.0
  0
SPLINE
  5
21c
100
AcDbEntity
  8
top-bottom
 62
5
100
AcDbSpline
 70
8
 71
3
 72
8
 73
4
 74
0
 40
0
 40
0
 40
0
 40
0
 40
1
 40
1
 40
1
 40
1
 10
177.946869
 20
97.974272
 30
0.0
 10
178.554704
 20
97.974272
 30
0.0
 10
179.047180
 20
97.481795
 30
0.0
 10
179.047180
 20
96.874313
 30
0.0
  0
SPLINE
  5
21d
100
AcDbEntity
  8
top-bottom
 62
5
100
AcDbSpline
 70
8
 71
3
 72
8
 73
4
 74
0
 40
0
 40
0
 40
0
 40
0
 40
1
 40
1
 40
1
 40
1
 10
179.047180
 20
96.874313
 30
0.0
 10
179.047180
 20
96.266831
 30
0.0
 10
178.554704
 20
95.774001
 30
0.0
 10
177.946869
 20
95.774001
 30
0.0
  0
SPLINE
  5
21e
100
AcDbEntity
  8
top-bottom
 62
5
100
AcDbSpline
 70
8
 71
3
 72
8
 73
4
 74
0
 40
0
 40
0
 40
0
 40
0
 40
1
 40
1
 40
1
 40
1
 10
177.946869
 20
95.774001
 30
0.0
 10
177.339386
 20
95.774001
 30
0.0
 10
176.846910
 20
96.266831
 30
0.0
 10
176.846910
 20
96.874313
 30
0.0
  0
SPLINE
  5
21f
100
AcDbEntity
  8
top-bottom
 62
5
100
AcDbSpline
 70
8
 71
3
 72
8
 73
4
 74
0
 40
0
 40
0
 40
0
 40
0
 40
1
 40
1
 40
1
 40
1
 10
176.846910
 20
96.874313
 30
0.0
 10
176.846910
 20
97.481795
 30
0.0
 10
177.339386
 20
97.974272
 30
0.0
 10
177.946869
 20
97.974272
 30
0.0
  0
LINE
  5
220
100
AcDbEntity
  8
top-bottom
 62
5
100
AcDbLine
 10
177.946869
 20
97.974272
 30
0.0
 11
177.946869
 21
97.974272
 31
0.0
  0
SPLINE
  5
221
100
AcDbEntity
  8
top-bottom
 62
5
100
AcDbSpline
 70
8
 71
3
 72
8
 73
4
 74
0
 40
0
 40
0
 40
0
 40
0
 40
1
 40
1
 40
1
 40
1
 10
174.324694
 20
173.996016
 30
0.0
 10
174.932176
 20
173.996016
 30
0.0
 10
175.424653
 20
173.503539
 30
0.0
 10
175.424653
 20
172.895704
 30
0.0
  0
SPLINE
  5
222
100
AcDbEntity
  8
top-bottom
 62
5
100
AcDbSpline
 70
8
 71
3
 72
8
 73
4
 74
0
 40
0
 40
0
 40
0
 40
0
 40
1
 40
1
 40
1
 40
1
 10
175.424653
 20
172.895704
 30
0.0
 10
175.424653
 20
172.288222
 30
0.0
 10
174.932176
 20
171.795745
 30
0.0
 10
174.324694
 20
171.795745
 30
0.0
  0
SPLINE
  5
223
100
AcDbEntity
  8
top-bottom
 62
5
100
AcDbSpline
 70
8
 71
3
 72
8
 73
4
 74
0
 40
0
 40
0
 40
0
 40
0
 40
1
 40
1
 40
1
 40
1
 10
174.324694
 20
171.795745
 30
0.0
 10
173.716859
 20
171.795745
 30
0.0
 10
173.224735
 20
172.288222
 30
0.0
 10
173.224735
 20
172.895704
 30
0.0
  0
SPLINE
  5
224
100
AcDbEntity
  8
top-bottom
 62
5
100
AcDbSpline
 70
8
 71
3
 72
8
 73
4
 74
0
 40
0
 40
0
 40
0
 40
0
 40
1
 40
1
 40
1
 40
1
 10
173.224735
 20
172.895704
 30
0.0
 10
173.224735
 20
173.503539
 30
0.0
 10
173.716859
 20
173.996016
 30
0.0
 10
174.324694
 20
173.996016
 30
0.0
  0
LINE
  5
225
100
AcDbEntity
  8
top-bottom
 62
5
100
AcDbLine
 10
174.324694
 20
173.996016
 30
0.0
 11
174.324694
 21
173.996016
 31
0.0
  0
SPLINE
  5
226
100
AcDbEntity
  8
top-bottom
 62
5
100
AcDbSpline
 70
8
 71
3
 72
8
 73
4
 74
0
 40
0
 40
0
 40
0
 40
0
 40
1
 40
1
 40
1
 40
1
 10
155.309548
 20
174.004800
 30
0.0
 10
155.917383
 20
174.004800
 30
0.0
 10
156.409507
 20
173.512324
 30
0.0
 10
156.409507
 20
172.904489
 30
0.0
  0
SPLINE
  5
227
100
AcDbEntity
  8
top-bottom
 62
5
100
AcDbSpline
 70
8
 71
3
 72
8
 73
4
 74
0
 40
0
 40
0
 40
0
 40
0
 40
1
 40
1
 40
1
 40
1
 10
156.409507
 20
172.904489
 30
0.0
 10
156.409507
 20
172.297006
 30
0.0
 10
155.917383
 20
171.804529
 30
0.0
 10
155.309548
 20
171.804529
 30
0.0
  0
SPLINE
  5
228
100
AcDbEntity
  8
top-bottom
 62
5
100
AcDbSpline
 70
8
 71
3
 72
8
 73
4
 74
0
 40
0
 40
0
 40
0
 40
0
 40
1
 40
1
 40
1
 40
1
 10
155.309548
 20
171.804529
 30
0.0
 10
154.701713
 20
171.804529
 30
0.0
 10
154.209589
 20
172.297006
 30
0.0
 10
154.209589
 20
172.904489
 30
0.0
  0
SPLINE
  5
229
100
AcDbEntity
  8
top-bottom
 62
5
100
AcDbSpline
 70
8
 71
3
 72
8
 73
4
 74
0
 40
0
 40
0
 40
0
 40
0
 40
1
 40
1
 40
1
 40
1
 10
154.209589
 20
172.904489
 30
0.0
 10
154.209589
 20
173.512324
 30
0.0
 10
154.701713
 20
174.004800
 30
0.0
 10
155.309548
 20
174.004800
 30
0.0
  0
LINE
  5
22a
100
AcDbEntity
  8
top-bottom
 62
5
100
AcDbLine
 10
155.309548
 20
174.004800
 30
0.0
 11
155.309548
 21
174.004800
 31
0.0
  0
SPLINE
  5
22b
100
AcDbEntity
  8
top-bottom
 62
5
100
AcDbSpline
 70
8
 71
3
 72
8
 73
4
 74
0
 40
0
 40
0
 40
0
 40
0
 40
1
 40
1
 40
1
 40
1
 10
130.445286
 20
84.232686
 30
0.0
 10
131.053121
 20
84.232686
 30
0.0
 10
131.545245
 20
83.740209
 30
0.0
 10
131.545245
 20
83.132374
 30
0.0
  0
SPLINE
  5
22c
100
AcDbEntity
  8
top-bottom
 62
5
100
AcDbSpline
 70
8
 71
3
 72
8
 73
4
 74
0
 40
0
 40
0
 40
0
 40
0
 40
1
 40
1
 40
1
 40
1
 10
131.545245
 20
83.132374
 30
0.0
 10
131.545245
 20
82.524892
 30
0.0
 10
131.053121
 20
82.032415
 30
0.0
 10
130.445286
 20
82.032415
 30
0.0
  0
SPLINE
  5
22d
100
AcDbEntity
  8
top-bottom
 62
5
100
AcDbSpline
 70
8
 71
3
 72
8
 73
4
 74
0
 40
0
 40
0
 40
0
 40
0
 40
1
 40
1
 40
1
 40
1
 10
130.445286
 20
82.032415
 30
0.0
 10
129.837804
 20
82.032415
 30
0.0
 10
129.345327
 20
82.524892
 30
0.0
 10
129.345327
 20
83.132374
 30
0.0
  0
SPLINE
  5
22e
100
AcDbEntity
  8
top-bottom
 62
5
100
AcDbSpline
 70
8
 71
3
 72
8
 73
4
 74
0
 40
0
 40
0
 40
0
 40
0
 40
1
 40
1
 40
1
 40
1
 10
129.345327
 20
83.132374
 30
0.0
 10
129.345327
 20
83.740209
 30
0.0
 10
129.837804
 20
84.232686
 30
0.0
 10
130.445286
 20
84.232686
 30
0.0
  0
LINE
  5
22f
100
AcDbEntity
  8
top-bottom
 62
5
100
AcDbLine
 10
130.445286
 20
84.232686
 30
0.0
 11
130.445286
 21
84.232686
 31
0.0
  0
LINE
  5
230
100
AcDbEntity
  8
top-bottom
 62
5
100
AcDbLine
 10
199.449132
 20
20.621826
 30
0.0
 11
152.092683
 21
20.621826
 31
0.0
  0
SPLINE
  5
231
100
AcDbEntity
  8
top-bottom
 62
5
100
AcDbSpline
 70
8
 71
3
 72
8
 73
4
 74
0
 40
0
 40
0
 40
0
 40
0
 40
1
 40
1
 40
1
 40
1
 10
152.092683
 20
20.621826
 30
0.0
 10
151.569514
 20
20.562207
 30
0.0
 10
151.311281
 20
20.327610
 30
0.0
 10
151.010715
 20
19.982947
 30
0.0
  0
LINE
  5
232
100
AcDbEntity
  8
top-bottom
 62
5
100
AcDbLine
 10
151.010715
 20
19.982947
 30
0.0
 11
140.154352
 21
1.143237
 31
0.0
  0
SPLINE
  5
233
100
AcDbEntity
  8
top-bottom
 62
5
100
AcDbSpline
 70
8
 71
3
 72
8
 73
4
 74
0
 40
0
 40
0
 40
0
 40
0
 40
1
 40
1
 40
1
 40
1
 10
140.154352
 20
1.143237
 30
0.0
 10
139.984313
 20
0.738601
 30
0.0
 10
140.174460
 20
0.272583
 30
0.0
 10
140.579095
 20
0.102191
 30
0.0
  0
SPLINE
  5
234
100
AcDbEntity
  8
top-bottom
 62
5
100
AcDbSpline
 70
8
 71
3
 72
8
 73
4
 74
0
 40
0
 40
0
 40
0
 40
0
 40
1
 40
1
 40
1
 40
1
 10
140.579095
 20
0.102191
 30
0.0
 10
140.638715
 20
0.077497
 30
0.0
 10
140.701156
 20
0.059505
 30
0.0
 10
140.765009
 20
0.049980
 30
0.0
  0
LINE
  5
235
100
AcDbEntity
  8
top-bottom
 62
5
100
AcDbLine
 10
140.765009
 20
0.049980
 30
0.0
 11
199.438902
 21
0.050686
 31
0.0
  0
SPLINE
  5
236
100
AcDbEntity
  8
top-bottom
 62
5
100
AcDbSpline
 70
8
 71
3
 72
8
 73
4
 74
0
 40
0
 40
0
 40
0
 40
0
 40
1
 40
1
 40
1
 40
1
 10
199.438902
 20
0.050686
 30
0.0
 10
199.714774
 20
0.050686
 30
0.0
 10
199.938787
 20
0.274699
 30
0.0
 10
199.938787
 20
0.550924
 30
0.0
  0
LINE
  5
237
100
AcDbEntity
  8
top-bottom
 62
5
100
AcDbLine
 10
199.938787
 20
0.550924
 30
0.0
 11
199.949723
 21
20.121588
 31
0.0
  0
SPLINE
  5
238
100
AcDbEntity
  8
top-bottom
 62
5
100
AcDbSpline
 70
8
 71
3
 72
8
 73
4
 74
0
 40
0
 40
0
 40
0
 40
0
 40
1
 40
1
 40
1
 40
1
 10
199.949723
 20
20.121588
 30
0.0
 10
199.949018
 20
20.397813
 30
0.0
 10
199.725004
 20
20.621826
 30
0.0
 10
199.449132
 20
20.621826
 30
0.0
  0
SPLINE
  5
239
100
AcDbEntity
  8
top-bottom
 62
5
100
AcDbSpline
 70
8
 71
3
 72
8
 73
4
 74
0
 40
0
 40
0
 40
0
 40
0
 40
1
 40
1
 40
1
 40
1
 10
152.475693
 20
18.144660
 30
0.0
 10
153.083528
 20
18.144660
 30
0.0
 10
153.575652
 20
17.652184
 30
0.0
 10
153.575652
 20
17.044701
 30
0.0
  0
SPLINE
  5
23a
100
AcDbEntity
  8
top-bottom
 62
5
100
AcDbSpline
 70
8
 71
3
 72
8
 73
4
 74
0
 40
0
 40
0
 40
0
 40
0
 40
1
 40
1
 40
1
 40
1
 10
153.575652
 20
17.044701
 30
0.0
 10
153.575652
 20
16.437219
 30
0.0
 10
153.083528
 20
15.944389
 30
0.0
 10
152.475693
 20
15.944389
 30
0.0
  0
SPLINE
  5
23b
100
AcDbEntity
  8
top-bottom
 62
5
100
AcDbSpline
 70
8
 71
3
 72
8
 73
4
 74
0
 40
0
 40
0
 40
0
 40
0
 40
1
 40
1
 40
1
 40
1
 10
152.475693
 20
15.944389
 30
0.0
 10
151.868211
 20
15.944389
 30
0.0
 10
151.375734
 20
16.437219
 30
0.0
 10
151.375734
 20
17.044701
 30
0.0
  0
SPLINE
  5
23c
100
AcDbEntity
  8
top-bottom
 62
5
100
AcDbSpline
 70
8
 71
3
 72
8
 73
4
 74
0
 40
0
 40
0
 40
0
 40
0
 40
1
 40
1
 40
1
 40
1
 10
151.375734
 20
17.044701
 30
0.0
 10
151.375734
 20
17.652184
 30
0.0
 10
151.868211
 20
18.144660
 30
0.0
 10
152.475693
 20
18.144660
 30
0.0
  0
LINE
  5
23d
100
AcDbEntity
  8
top-bottom
 62
5
100
AcDbLine
 10
152.475693
 20
18.144660
 30
0.0
 11
152.475693
 21
18.144660
 31
0.0
  0
SPLINE
  5
23e
100
AcDbEntity
  8
top-bottom
 62
5
100
AcDbSpline
 70
8
 71
3
 72
8
 73
4
 74
0
 40
0
 40
0
 40
0
 40
0
 40
1
 40
1
 40
1
 40
1
 10
143.975281
 20
3.643756
 30
0.0
 10
144.582763
 20
3.643756
 30
0.0
 10
145.075240
 20
3.151279
 30
0.0
 10
145.075240
 20
2.543444
 30
0.0
  0
SPLINE
  5
23f
100
AcDbEntity
  8
top-bottom
 62
5
100
AcDbSpline
 70
8
 71
3
 72
8
 73
4
 74
0
 40
0
 40
0
 40
0
 40
0
 40
1
 40
1
 40
1
 40
1
 10
145.075240
 20
2.543444
 30
0.0
 10
145.075240
 20
1.935962
 30
0.0
 10
144.582763
 20
1.443485
 30
0.0
 10
143.975281
 20
1.443485
 30
0.0
  0
SPLINE
  5
240
100
AcDbEntity
  8
top-bottom
 62
5
100
AcDbSpline
 70
8
 71
3
 72
8
 73
4
 74
0
 40
0
 40
0
 40
0
 40
0
 40
1
 40
1
 40
1
 40
1
 10
143.975281
 20
1.443485
 30
0.0
 10
143.367446
 20
1.443485
 30
0.0
 10
142.874969
 20
1.935962
 30
0.0
 10
142.874969
 20
2.543444
 30
0.0
  0
SPLINE
  5
241
100
AcDbEntity
  8
top-bottom
 62
5
100
AcDbSpline
 70
8
 71
3
 72
8
 73
4
 74
0
 40
0
 40
0
 40
0
 40
0
 40
1
 40
1
 40
1
 40
1
 10
142.874969
 20
2.543444
 30
0.0
 10
142.874969
 20
3.151279
 30
0.0
 10
143.367446
 20
3.643756
 30
0.0
 10
143.975281
 20
3.643756
 30
0.0
  0
LINE
  5
242
100
AcDbEntity
  8
top-bottom
 62
5
100
AcDbLine
 10
143.975281
 20
3.643756
 30
0.0
 11
143.975281
 21
3.643756
 31
0.0
  0
ENDSEC
  0
SECTION
  2
OBJECTS
  0
DICTIONARY
  5
C
330
0
100
AcDbDictionary
  3
ACAD_GROUP
350
D
  3
ACAD_MLINESTYLE
350
17
  0
DICTIONARY
  5
D
330
C
100
AcDbDictionary
  0
DICTIONARY
  5
1A
330
C
100
AcDbDictionary
  0
DICTIONARY
  5
17
330
C
100
AcDbDictionary
  3
STANDARD
350
18
  0
DICTIONARY
  5
19
330
C
100
AcDbDictionary
  0
ENDSEC
  0
EOF
