  0
SECTION
  2
HEADER
  9
$ACADVER
  1
AC1014
  9
$HANDSEED
  5
FFFF
  9
$MEASUREMENT
 70
     1
  0
ENDSEC
  0
SECTION
  2
TABLES
  0
TABLE
  2
VPORT
  5
8
330
0
100
AcDbSymbolTable
 70
     4
  0
VPORT
  5
2E
330
8
100
AcDbSymbolTableRecord
100
AcDbViewportTableRecord
  2
*ACTIVE
 70
     0
 10
0.0
 20
0.0
 11
1.0
 21
1.0
 12
210.0
 22
148.5
 13
0.0
 23
0.0
 14
10.0
 24
10.0
 15
10.0
 25
10.0
 16
0.0
 26
0.0
 36
1.0
 17
0.0
 27
0.0
 37
0.0
 40
341.0
 41
1.24
 42
50.0
 43
0.0
 44
0.0
 50
0.0
 51
0.0
 71
     0
 72
   100
 73
     1
 74
     3
 75
     0
 76
     0
 77
     0
 78
     0
  0
ENDTAB
  0
TABLE
  2
LTYPE
  5
5
330
0
100
AcDbSymbolTable
 70
     1
  0
LTYPE
  5
14
330
5
100
AcDbSymbolTableRecord
100
AcDbLinetypeTableRecord
  2
BYBLOCK
 70
     0
  3

 72
    65
 73
     0
 40
0.0
  0
LTYPE
  5
15
330
5
100
AcDbSymbolTableRecord
100
AcDbLinetypeTableRecord
  2
BYLAYER
 70
     0
  3

 72
    65
 73
     0
 40
0.0
  0
LTYPE
  5
16
330
5
100
AcDbSymbolTableRecord
100
AcDbLinetypeTableRecord
  2
CONTINUOUS
 70
     0
  3
Solid line
 72
    65
 73
     0
 40
0.0
  0
ENDTAB
  0
TABLE
  2
LAYER
  5
2
100
AcDbSymbolTable
 70
1
  0
LAYER
  5
50
100
AcDbSymbolTableRecord
100
AcDbLayerTableRecord
  2
0
 70
0
  6
CONTINUOUS
  0
ENDTAB
  0
TABLE
  2
STYLE
  5
3
330
0
100
AcDbSymbolTable
 70
     1
  0
STYLE
  5
11
330
3
100
AcDbSymbolTableRecord
100
AcDbTextStyleTableRecord
  2
STANDARD
 70
     0
 40
0.0
 41
1.0
 50
0.0
 71
     0
 42
2.5
  3
txt
  4

  0
ENDTAB
  0
TABLE
  2
VIEW
  5
6
330
0
100
AcDbSymbolTable
 70
     0
  0
ENDTAB
  0
TABLE
  2
UCS
  5
7
330
0
100
AcDbSymbolTable
 70
     0
  0
ENDTAB
  0
TABLE
  2
APPID
  5
9
330
0
100
AcDbSymbolTable
 70
     2
  0
APPID
  5
12
330
9
100
AcDbSymbolTableRecord
100
AcDbRegAppTableRecord
  2
ACAD
 70
     0
  0
ENDTAB
  0
TABLE
  2
DIMSTYLE
  5
A
330
0
100
AcDbSymbolTable
 70
     1
  0
DIMSTYLE
105
27
330
A
100
AcDbSymbolTableRecord
100
AcDbDimStyleTableRecord
  2
ISO-25
 70
     0
  3

  4

  5

  6

  7

 40
1.0
 41
2.5
 42
0.625
 43
3.75
 44
1.25
 45
0.0
 46
0.0
 47
0.0
 48
0.0
140
2.5
141
2.5
142
0.0
143
0.03937007874016
144
1.0
145
0.0
146
1.0
147
0.625
 71
     0
 72
     0
 73
     0
 74
     0
 75
     0
 76
     0
 77
     1
 78
     8
170
     0
171
     3
172
     1
173
     0
174
     0
175
     0
176
     0
177
     0
178
     0
270
     2
271
     2
272
     2
273
     2
274
     3
340
11
275
     0
280
     0
281
     0
282
     0
283
     0
284
     8
285
     0
286
     0
287
     3
288
     0
  0
ENDTAB
  0
TABLE
  2
BLOCK_RECORD
  5
1
330
0
100
AcDbSymbolTable
 70
     1
  0
BLOCK_RECORD
  5
1F
330
1
100
AcDbSymbolTableRecord
100
AcDbBlockTableRecord
  2
*MODEL_SPACE
  0
BLOCK_RECORD
  5
1B
330
1
100
AcDbSymbolTableRecord
100
AcDbBlockTableRecord
  2
*PAPER_SPACE
  0
ENDTAB
  0
ENDSEC
  0
SECTION
  2
BLOCKS
  0
BLOCK
  5
20
330
1F
100
AcDbEntity
  8
0
100
AcDbBlockBegin
  2
*MODEL_SPACE
 70
     0
 10
0.0
 20
0.0
 30
0.0
  3
*MODEL_SPACE
  1

  0
ENDBLK
  5
21
330
1F
100
AcDbEntity
  8
0
100
AcDbBlockEnd
  0
BLOCK
  5
1C
330
1B
100
AcDbEntity
 67
     1
  8
0
100
AcDbBlockBegin
  2
*PAPER_SPACE
  1

  0
ENDBLK
  5
1D
330
1B
100
AcDbEntity
 67
     1
  8
0
100
AcDbBlockEnd
  0
ENDSEC
  0
SECTION
  2
ENTITIES
  0
LINE
  5
100
100
AcDbEntity
  8
0
 62
5
100
AcDbLine
 10
17.159525
 20
33.792772
 30
0.0
 11
24.076787
 21
21.792690
 31
0.0
  0
LINE
  5
101
100
AcDbEntity
  8
0
 62
5
100
AcDbLine
 10
24.076787
 20
21.792690
 30
0.0
 11
12.076706
 21
14.875428
 31
0.0
  0
LINE
  5
102
100
AcDbEntity
  8
0
 62
5
100
AcDbLine
 10
12.076706
 20
14.875428
 30
0.0
 11
5.159444
 21
26.875510
 31
0.0
  0
LINE
  5
103
100
AcDbEntity
  8
0
 62
5
100
AcDbLine
 10
5.159444
 20
26.875510
 30
0.0
 11
17.159525
 21
33.792772
 31
0.0
  0
SPLINE
  5
104
100
AcDbEntity
  8
0
 62
5
100
AcDbSpline
 70
8
 71
3
 72
8
 73
4
 74
0
 40
0
 40
0
 40
0
 40
0
 40
1
 40
1
 40
1
 40
1
 10
77.518596
 20
36.422763
 30
0.0
 10
77.612436
 20
36.516603
 30
0.0
 10
77.739436
 20
36.569168
 30
0.0
 10
77.872079
 20
36.569168
 30
0.0
  0
LINE
  5
105
100
AcDbEntity
  8
0
 62
5
100
AcDbLine
 10
77.872079
 20
36.569168
 30
0.0
 11
113.874791
 21
36.569168
 31
0.0
  0
LINE
  5
106
100
AcDbEntity
  8
0
 62
5
100
AcDbLine
 10
113.874791
 20
36.569168
 30
0.0
 11
115.874688
 21
36.569168
 31
0.0
  0
LINE
  5
107
100
AcDbEntity
  8
0
 62
5
100
AcDbLine
 10
115.874688
 20
36.569168
 30
0.0
 11
132.875744
 21
36.569168
 31
0.0
  0
SPLINE
  5
108
100
AcDbEntity
  8
0
 62
5
100
AcDbSpline
 70
8
 71
3
 72
8
 73
4
 74
0
 40
0
 40
0
 40
0
 40
0
 40
1
 40
1
 40
1
 40
1
 10
132.875744
 20
36.569168
 30
0.0
 10
133.152321
 20
36.569168
 30
0.0
 10
133.375981
 20
36.793180
 30
0.0
 10
133.375981
 20
37.069052
 30
0.0
  0
LINE
  5
109
100
AcDbEntity
  8
0
 62
5
100
AcDbLine
 10
133.375981
 20
37.069052
 30
0.0
 11
133.375981
 21
92.323188
 31
0.0
  0
SPLINE
  5
10a
100
AcDbEntity
  8
0
 62
5
100
AcDbSpline
 70
8
 71
3
 72
8
 73
4
 74
0
 40
0
 40
0
 40
0
 40
0
 40
1
 40
1
 40
1
 40
1
 10
133.375981
 20
92.323188
 30
0.0
 10
133.375981
 20
92.599059
 30
0.0
 10
133.152321
 20
92.823073
 30
0.0
 10
132.875744
 20
92.823073
 30
0.0
  0
LINE
  5
10b
100
AcDbEntity
  8
0
 62
5
100
AcDbLine
 10
132.875744
 20
92.823073
 30
0.0
 11
115.874688
 21
92.823073
 31
0.0
  0
LINE
  5
10c
100
AcDbEntity
  8
0
 62
5
100
AcDbLine
 10
115.874688
 20
92.823073
 30
0.0
 11
113.874791
 21
92.823073
 31
0.0
  0
LINE
  5
10d
100
AcDbEntity
  8
0
 62
5
100
AcDbLine
 10
113.874791
 20
92.823073
 30
0.0
 11
95.873259
 21
92.823073
 31
0.0
  0
SPLINE
  5
10e
100
AcDbEntity
  8
0
 62
5
100
AcDbSpline
 70
8
 71
3
 72
8
 73
4
 74
0
 40
0
 40
0
 40
0
 40
0
 40
1
 40
1
 40
1
 40
1
 10
95.873259
 20
92.823073
 30
0.0
 10
95.597386
 20
92.823073
 30
0.0
 10
95.373374
 20
93.047087
 30
0.0
 10
95.373374
 20
93.322959
 30
0.0
  0
LINE
  5
10f
100
AcDbEntity
  8
0
 62
5
100
AcDbLine
 10
95.373374
 20
93.322959
 30
0.0
 11
95.373374
 21
97.073337
 31
0.0
  0
SPLINE
  5
110
100
AcDbEntity
  8
0
 62
5
100
AcDbSpline
 70
8
 71
3
 72
8
 73
4
 74
0
 40
0
 40
0
 40
0
 40
0
 40
1
 40
1
 40
1
 40
1
 10
95.373374
 20
97.073337
 30
0.0
 10
95.373374
 20
97.349562
 30
0.0
 10
95.149360
 20
97.573576
 30
0.0
 10
94.873135
 20
97.573576
 30
0.0
  0
LINE
  5
111
100
AcDbEntity
  8
0
 62
5
100
AcDbLine
 10
94.873135
 20
97.573576
 30
0.0
 11
76.871955
 21
97.573576
 31
0.0
  0
SPLINE
  5
112
100
AcDbEntity
  8
0
 62
5
100
AcDbSpline
 70
8
 71
3
 72
8
 73
4
 74
0
 40
0
 40
0
 40
0
 40
0
 40
1
 40
1
 40
1
 40
1
 10
76.871955
 20
97.573576
 30
0.0
 10
76.595730
 20
97.573576
 30
0.0
 10
76.372070
 20
97.797589
 30
0.0
 10
76.372070
 20
98.073461
 30
0.0
  0
LINE
  5
113
100
AcDbEntity
  8
0
 62
5
100
AcDbLine
 10
76.372070
 20
98.073461
 30
0.0
 11
76.372070
 21
99.323705
 31
0.0
  0
SPLINE
  5
114
100
AcDbEntity
  8
0
 62
5
100
AcDbSpline
 70
8
 71
3
 72
8
 73
4
 74
0
 40
0
 40
0
 40
0
 40
0
 40
1
 40
1
 40
1
 40
1
 10
76.372070
 20
99.323705
 30
0.0
 10
76.372070
 20
99.599577
 30
0.0
 10
76.148055
 20
99.823591
 30
0.0
 10
75.872185
 20
99.823591
 30
0.0
  0
LINE
  5
115
100
AcDbEntity
  8
0
 62
5
100
AcDbLine
 10
75.872185
 20
99.823591
 30
0.0
 11
58.870775
 21
99.823591
 31
0.0
  0
SPLINE
  5
116
100
AcDbEntity
  8
0
 62
5
100
AcDbSpline
 70
8
 71
3
 72
8
 73
4
 74
0
 40
0
 40
0
 40
0
 40
0
 40
1
 40
1
 40
1
 40
1
 10
58.870775
 20
99.823591
 30
0.0
 10
58.594550
 20
99.823591
 30
0.0
 10
58.370890
 20
99.599577
 30
0.0
 10
58.370890
 20
99.323705
 30
0.0
  0
LINE
  5
117
100
AcDbEntity
  8
0
 62
5
100
AcDbLine
 10
58.370890
 20
99.323705
 30
0.0
 11
58.370890
 21
98.073461
 31
0.0
  0
SPLINE
  5
118
100
AcDbEntity
  8
0
 62
5
100
AcDbSpline
 70
8
 71
3
 72
8
 73
4
 74
0
 40
0
 40
0
 40
0
 40
0
 40
1
 40
1
 40
1
 40
1
 10
58.370890
 20
98.073461
 30
0.0
 10
58.370890
 20
97.797589
 30
0.0
 10
58.146875
 20
97.573576
 30
0.0
 10
57.870651
 20
97.573576
 30
0.0
  0
LINE
  5
119
100
AcDbEntity
  8
0
 62
5
100
AcDbLine
 10
57.870651
 20
97.573576
 30
0.0
 11
39.869473
 21
97.573576
 31
0.0
  0
SPLINE
  5
11a
100
AcDbEntity
  8
0
 62
5
100
AcDbSpline
 70
8
 71
3
 72
8
 73
4
 74
0
 40
0
 40
0
 40
0
 40
0
 40
1
 40
1
 40
1
 40
1
 10
39.869473
 20
97.573576
 30
0.0
 10
39.593248
 20
97.573576
 30
0.0
 10
39.369234
 20
97.349562
 30
0.0
 10
39.369234
 20
97.073337
 30
0.0
  0
LINE
  5
11b
100
AcDbEntity
  8
0
 62
5
100
AcDbLine
 10
39.369234
 20
97.073337
 30
0.0
 11
39.369234
 21
95.573327
 31
0.0
  0
SPLINE
  5
11c
100
AcDbEntity
  8
0
 62
5
100
AcDbSpline
 70
8
 71
3
 72
8
 73
4
 74
0
 40
0
 40
0
 40
0
 40
0
 40
1
 40
1
 40
1
 40
1
 10
39.369234
 20
95.573327
 30
0.0
 10
39.369234
 20
95.297102
 30
0.0
 10
39.145574
 20
95.073441
 30
0.0
 10
38.869349
 20
95.073441
 30
0.0
  0
LINE
  5
11d
100
AcDbEntity
  8
0
 62
5
100
AcDbLine
 10
38.869349
 20
95.073441
 30
0.0
 11
20.868170
 21
95.073441
 31
0.0
  0
SPLINE
  5
11e
100
AcDbEntity
  8
0
 62
5
100
AcDbSpline
 70
8
 71
3
 72
8
 73
4
 74
0
 40
0
 40
0
 40
0
 40
0
 40
1
 40
1
 40
1
 40
1
 10
20.868170
 20
95.073441
 30
0.0
 10
20.591945
 20
95.073441
 30
0.0
 10
20.368284
 20
94.849427
 30
0.0
 10
20.368284
 20
94.573203
 30
0.0
  0
LINE
  5
11f
100
AcDbEntity
  8
0
 62
5
100
AcDbLine
 10
20.368284
 20
94.573203
 30
0.0
 11
20.368284
 21
93.338481
 31
0.0
  0
LINE
  5
120
100
AcDbEntity
  8
0
 62
5
100
AcDbLine
 10
20.368284
 20
93.338481
 30
0.0
 11
20.368628
 21
77.077906
 31
0.0
  0
LINE
  5
121
100
AcDbEntity
  8
0
 62
5
100
AcDbLine
 10
20.368628
 20
77.077906
 30
0.0
 11
20.368628
 21
44.785004
 31
0.0
  0
SPLINE
  5
122
100
AcDbEntity
  8
0
 62
5
100
AcDbSpline
 70
8
 71
3
 72
8
 73
4
 74
0
 40
0
 40
0
 40
0
 40
0
 40
1
 40
1
 40
1
 40
1
 10
20.368628
 20
44.785004
 30
0.0
 10
20.286431
 20
44.401533
 30
0.0
 10
20.083584
 20
44.054754
 30
0.0
 10
19.789720
 20
43.795108
 30
0.0
  0
LINE
  5
123
100
AcDbEntity
  8
0
 62
5
100
AcDbLine
 10
19.789720
 20
43.795108
 30
0.0
 11
0.712922
 21
32.757757
 31
0.0
  0
SPLINE
  5
124
100
AcDbEntity
  8
0
 62
5
100
AcDbSpline
 70
8
 71
3
 72
8
 73
4
 74
0
 40
0
 40
0
 40
0
 40
0
 40
1
 40
1
 40
1
 40
1
 10
0.712922
 20
32.757757
 30
0.0
 10
0.185519
 20
32.361237
 30
0.0
 10
0.023594
 20
31.640864
 30
0.0
 10
0.330158
 20
31.057017
 30
0.0
  0
LINE
  5
125
100
AcDbEntity
  8
0
 62
5
100
AcDbLine
 10
0.330158
 20
31.057017
 30
0.0
 11
13.567430
 21
8.017117
 31
0.0
  0
SPLINE
  5
126
100
AcDbEntity
  8
0
 62
5
100
AcDbSpline
 70
8
 71
3
 72
8
 73
4
 74
0
 40
0
 40
0
 40
0
 40
0
 40
1
 40
1
 40
1
 40
1
 10
13.567430
 20
8.017117
 30
0.0
 10
13.572370
 20
8.010053
 30
0.0
 10
13.577307
 20
8.002645
 30
0.0
 10
13.582246
 20
7.995951
 30
0.0
  0
SPLINE
  5
127
100
AcDbEntity
  8
0
 62
5
100
AcDbSpline
 70
8
 71
3
 72
8
 73
4
 74
0
 40
0
 40
0
 40
0
 40
0
 40
1
 40
1
 40
1
 40
1
 10
13.582246
 20
7.995951
 30
0.0
 10
13.860235
 20
7.602603
 30
0.0
 10
14.404218
 20
7.509118
 30
0.0
 10
14.797565
 20
7.787105
 30
0.0
  0
LINE
  5
128
100
AcDbEntity
  8
0
 62
5
100
AcDbLine
 10
14.797565
 20
7.787105
 30
0.0
 11
29.547547
 21
16.276697
 31
0.0
  0
SPLINE
  5
129
100
AcDbEntity
  8
0
 62
5
100
AcDbSpline
 70
8
 71
3
 72
8
 73
4
 74
0
 40
0
 40
0
 40
0
 40
0
 40
1
 40
1
 40
1
 40
1
 10
29.547547
 20
16.276697
 30
0.0
 10
29.638564
 20
16.308093
 30
0.0
 10
29.732049
 20
16.332434
 30
0.0
 10
29.827653
 20
16.349016
 30
0.0
  0
LINE
  5
12a
100
AcDbEntity
  8
0
 62
5
100
AcDbLine
 10
29.827653
 20
16.349016
 30
0.0
 11
66.621292
 21
21.818127
 31
0.0
  0
SPLINE
  5
12b
100
AcDbEntity
  8
0
 62
5
100
AcDbSpline
 70
8
 71
3
 72
8
 73
4
 74
0
 40
0
 40
0
 40
0
 40
0
 40
1
 40
1
 40
1
 40
1
 10
66.621292
 20
21.818127
 30
0.0
 10
66.750760
 20
21.831171
 30
0.0
 10
66.872820
 20
21.883389
 30
0.0
 10
66.971245
 20
21.968056
 30
0.0
  0
SPLINE
  5
12c
100
AcDbEntity
  8
0
 62
5
100
AcDbSpline
 70
8
 71
3
 72
8
 73
4
 74
0
 40
0
 40
0
 40
0
 40
0
 40
1
 40
1
 40
1
 40
1
 10
66.971245
 20
21.968056
 30
0.0
 10
66.971245
 20
21.968056
 30
0.0
 10
77.522118
 20
36.427351
 30
0.0
 10
77.518588
 20
36.422763
 30
0.0
  0
LINE
  5
12d
100
AcDbEntity
  8
0
 62
5
100
AcDbLine
 10
77.518588
 20
36.422763
 30
0.0
 11
77.518596
 21
36.422763
 31
0.0
  0
SPLINE
  5
12e
100
AcDbEntity
  8
0
 62
5
100
AcDbSpline
 70
8
 71
3
 72
8
 73
4
 74
0
 40
0
 40
0
 40
0
 40
0
 40
1
 40
1
 40
1
 40
1
 10
39.950187
 20
77.822125
 30
0.0
 10
39.950187
 20
78.429961
 30
0.0
 10
39.457710
 20
78.922086
 30
0.0
 10
38.849876
 20
78.922086
 30
0.0
  0
SPLINE
  5
12f
100
AcDbEntity
  8
0
 62
5
100
AcDbSpline
 70
8
 71
3
 72
8
 73
4
 74
0
 40
0
 40
0
 40
0
 40
0
 40
1
 40
1
 40
1
 40
1
 10
38.849876
 20
78.922086
 30
0.0
 10
38.242393
 20
78.922086
 30
0.0
 10
37.749913
 20
78.429961
 30
0.0
 10
37.749913
 20
77.822125
 30
0.0
  0
SPLINE
  5
130
100
AcDbEntity
  8
0
 62
5
100
AcDbSpline
 70
8
 71
3
 72
8
 73
4
 74
0
 40
0
 40
0
 40
0
 40
0
 40
1
 40
1
 40
1
 40
1
 10
37.749913
 20
77.822125
 30
0.0
 10
37.749913
 20
77.214290
 30
0.0
 10
38.242393
 20
76.722165
 30
0.0
 10
38.849876
 20
76.722165
 30
0.0
  0
SPLINE
  5
131
100
AcDbEntity
  8
0
 62
5
100
AcDbSpline
 70
8
 71
3
 72
8
 73
4
 74
0
 40
0
 40
0
 40
0
 40
0
 40
1
 40
1
 40
1
 40
1
 10
38.849876
 20
76.722165
 30
0.0
 10
39.457710
 20
76.722165
 30
0.0
 10
39.950187
 20
77.214290
 30
0.0
 10
39.950187
 20
77.822125
 30
0.0
  0
LINE
  5
132
100
AcDbEntity
  8
0
 62
5
100
AcDbLine
 10
39.950187
 20
77.822125
 30
0.0
 11
39.950187
 21
77.822125
 31
0.0
  0
SPLINE
  5
133
100
AcDbEntity
  8
0
 62
5
100
AcDbSpline
 70
8
 71
3
 72
8
 73
4
 74
0
 40
0
 40
0
 40
0
 40
0
 40
1
 40
1
 40
1
 40
1
 10
115.971877
 20
74.199594
 30
0.0
 10
115.971877
 20
74.807430
 30
0.0
 10
115.479401
 20
75.299907
 30
0.0
 10
114.871918
 20
75.299907
 30
0.0
  0
SPLINE
  5
134
100
AcDbEntity
  8
0
 62
5
100
AcDbSpline
 70
8
 71
3
 72
8
 73
4
 74
0
 40
0
 40
0
 40
0
 40
0
 40
1
 40
1
 40
1
 40
1
 10
114.871918
 20
75.299907
 30
0.0
 10
114.264435
 20
75.299907
 30
0.0
 10
113.771958
 20
74.807430
 30
0.0
 10
113.771958
 20
74.199594
 30
0.0
  0
SPLINE
  5
135
100
AcDbEntity
  8
0
 62
5
100
AcDbSpline
 70
8
 71
3
 72
8
 73
4
 74
0
 40
0
 40
0
 40
0
 40
0
 40
1
 40
1
 40
1
 40
1
 10
113.771958
 20
74.199594
 30
0.0
 10
113.771958
 20
73.592111
 30
0.0
 10
114.264435
 20
73.099633
 30
0.0
 10
114.871918
 20
73.099633
 30
0.0
  0
SPLINE
  5
136
100
AcDbEntity
  8
0
 62
5
100
AcDbSpline
 70
8
 71
3
 72
8
 73
4
 74
0
 40
0
 40
0
 40
0
 40
0
 40
1
 40
1
 40
1
 40
1
 10
114.871918
 20
73.099633
 30
0.0
 10
115.479401
 20
73.099633
 30
0.0
 10
115.971877
 20
73.592111
 30
0.0
 10
115.971877
 20
74.199594
 30
0.0
  0
LINE
  5
137
100
AcDbEntity
  8
0
 62
5
100
AcDbLine
 10
115.971877
 20
74.199594
 30
0.0
 11
115.971877
 21
74.199594
 31
0.0
  0
SPLINE
  5
138
100
AcDbEntity
  8
0
 62
5
100
AcDbSpline
 70
8
 71
3
 72
8
 73
4
 74
0
 40
0
 40
0
 40
0
 40
0
 40
1
 40
1
 40
1
 40
1
 10
115.980662
 20
55.184744
 30
0.0
 10
115.980662
 20
55.792227
 30
0.0
 10
115.488185
 20
56.284704
 30
0.0
 10
114.880702
 20
56.284704
 30
0.0
  0
SPLINE
  5
139
100
AcDbEntity
  8
0
 62
5
100
AcDbSpline
 70
8
 71
3
 72
8
 73
4
 74
0
 40
0
 40
0
 40
0
 40
0
 40
1
 40
1
 40
1
 40
1
 10
114.880702
 20
56.284704
 30
0.0
 10
114.273219
 20
56.284704
 30
0.0
 10
113.780743
 20
55.792227
 30
0.0
 10
113.780743
 20
55.184744
 30
0.0
  0
SPLINE
  5
13a
100
AcDbEntity
  8
0
 62
5
100
AcDbSpline
 70
8
 71
3
 72
8
 73
4
 74
0
 40
0
 40
0
 40
0
 40
0
 40
1
 40
1
 40
1
 40
1
 10
113.780743
 20
55.184744
 30
0.0
 10
113.780743
 20
54.576907
 30
0.0
 10
114.273219
 20
54.084430
 30
0.0
 10
114.880702
 20
54.084430
 30
0.0
  0
SPLINE
  5
13b
100
AcDbEntity
  8
0
 62
5
100
AcDbSpline
 70
8
 71
3
 72
8
 73
4
 74
0
 40
0
 40
0
 40
0
 40
0
 40
1
 40
1
 40
1
 40
1
 10
114.880702
 20
54.084430
 30
0.0
 10
115.488185
 20
54.084430
 30
0.0
 10
115.980662
 20
54.576907
 30
0.0
 10
115.980662
 20
55.184744
 30
0.0
  0
LINE
  5
13c
100
AcDbEntity
  8
0
 62
5
100
AcDbLine
 10
115.980662
 20
55.184744
 30
0.0
 11
115.980662
 21
55.184744
 31
0.0
  0
SPLINE
  5
13d
100
AcDbEntity
  8
0
 62
5
100
AcDbSpline
 70
8
 71
3
 72
8
 73
4
 74
0
 40
0
 40
0
 40
0
 40
0
 40
1
 40
1
 40
1
 40
1
 10
26.208410
 20
30.320489
 30
0.0
 10
26.208410
 20
30.927971
 30
0.0
 10
25.715933
 20
31.420448
 30
0.0
 10
25.108450
 20
31.420448
 30
0.0
  0
SPLINE
  5
13e
100
AcDbEntity
  8
0
 62
5
100
AcDbSpline
 70
8
 71
3
 72
8
 73
4
 74
0
 40
0
 40
0
 40
0
 40
0
 40
1
 40
1
 40
1
 40
1
 10
25.108450
 20
31.420448
 30
0.0
 10
24.500967
 20
31.420448
 30
0.0
 10
24.008490
 20
30.927971
 30
0.0
 10
24.008490
 20
30.320489
 30
0.0
  0
SPLINE
  5
13f
100
AcDbEntity
  8
0
 62
5
100
AcDbSpline
 70
8
 71
3
 72
8
 73
4
 74
0
 40
0
 40
0
 40
0
 40
0
 40
1
 40
1
 40
1
 40
1
 10
24.008490
 20
30.320489
 30
0.0
 10
24.008490
 20
29.712648
 30
0.0
 10
24.500967
 20
29.220529
 30
0.0
 10
25.108450
 20
29.220529
 30
0.0
  0
SPLINE
  5
140
100
AcDbEntity
  8
0
 62
5
100
AcDbSpline
 70
8
 71
3
 72
8
 73
4
 74
0
 40
0
 40
0
 40
0
 40
0
 40
1
 40
1
 40
1
 40
1
 10
25.108450
 20
29.220529
 30
0.0
 10
25.715933
 20
29.220529
 30
0.0
 10
26.208410
 20
29.712648
 30
0.0
 10
26.208410
 20
30.320489
 30
0.0
  0
LINE
  5
141
100
AcDbEntity
  8
0
 62
5
100
AcDbLine
 10
26.208410
 20
30.320489
 30
0.0
 11
26.208410
 21
30.320489
 31
0.0
  0
SPLINE
  5
142
100
AcDbEntity
  8
0
 62
5
100
AcDbSpline
 70
8
 71
3
 72
8
 73
4
 74
0
 40
0
 40
0
 40
0
 40
0
 40
1
 40
1
 40
1
 40
1
 10
72.728371
 20
38.075032
 30
0.0
 10
72.728371
 20
38.682515
 30
0.0
 10
72.235894
 20
39.174994
 30
0.0
 10
71.628411
 20
39.174994
 30
0.0
  0
SPLINE
  5
143
100
AcDbEntity
  8
0
 62
5
100
AcDbSpline
 70
8
 71
3
 72
8
 73
4
 74
0
 40
0
 40
0
 40
0
 40
0
 40
1
 40
1
 40
1
 40
1
 10
71.628411
 20
39.174994
 30
0.0
 10
71.020929
 20
39.174994
 30
0.0
 10
70.528452
 20
38.682515
 30
0.0
 10
70.528452
 20
38.075032
 30
0.0
  0
SPLINE
  5
144
100
AcDbEntity
  8
0
 62
5
100
AcDbSpline
 70
8
 71
3
 72
8
 73
4
 74
0
 40
0
 40
0
 40
0
 40
0
 40
1
 40
1
 40
1
 40
1
 10
70.528452
 20
38.075032
 30
0.0
 10
70.528452
 20
37.467197
 30
0.0
 10
71.020929
 20
36.974721
 30
0.0
 10
71.628411
 20
36.974721
 30
0.0
  0
SPLINE
  5
145
100
AcDbEntity
  8
0
 62
5
100
AcDbSpline
 70
8
 71
3
 72
8
 73
4
 74
0
 40
0
 40
0
 40
0
 40
0
 40
1
 40
1
 40
1
 40
1
 10
71.628411
 20
36.974721
 30
0.0
 10
72.235894
 20
36.974721
 30
0.0
 10
72.728371
 20
37.467197
 30
0.0
 10
72.728371
 20
38.075032
 30
0.0
  0
LINE
  5
146
100
AcDbEntity
  8
0
 62
5
100
AcDbLine
 10
72.728371
 20
38.075032
 30
0.0
 11
72.728371
 21
38.075032
 31
0.0
  0
LINE
  5
147
100
AcDbEntity
  8
0
 62
5
100
AcDbLine
 10
131.306342
 20
76.781749
 30
0.0
 11
117.455236
 21
76.781749
 31
0.0
  0
LINE
  5
148
100
AcDbEntity
  8
0
 62
5
100
AcDbLine
 10
117.455236
 20
76.781749
 30
0.0
 11
117.455236
 21
90.632854
 31
0.0
  0
LINE
  5
149
100
AcDbEntity
  8
0
 62
5
100
AcDbLine
 10
117.455236
 20
90.632854
 30
0.0
 11
131.306342
 21
90.632854
 31
0.0
  0
LINE
  5
14a
100
AcDbEntity
  8
0
 62
5
100
AcDbLine
 10
131.306342
 20
90.632854
 30
0.0
 11
131.306342
 21
76.781749
 31
0.0
  0
LINE
  5
14b
100
AcDbEntity
  8
0
 62
5
100
AcDbLine
 10
131.306342
 20
57.780445
 30
0.0
 11
117.455236
 21
57.780445
 31
0.0
  0
LINE
  5
14c
100
AcDbEntity
  8
0
 62
5
100
AcDbLine
 10
117.455236
 20
57.780445
 30
0.0
 11
117.455236
 21
71.631551
 31
0.0
  0
LINE
  5
14d
100
AcDbEntity
  8
0
 62
5
100
AcDbLine
 10
117.455236
 20
71.631551
 30
0.0
 11
131.306342
 21
71.631551
 31
0.0
  0
LINE
  5
14e
100
AcDbEntity
  8
0
 62
5
100
AcDbLine
 10
131.306342
 20
71.631551
 30
0.0
 11
131.306342
 21
57.780445
 31
0.0
  0
LINE
  5
14f
100
AcDbEntity
  8
0
 62
5
100
AcDbLine
 10
131.306342
 20
38.779141
 30
0.0
 11
117.455236
 21
38.779141
 31
0.0
  0
LINE
  5
150
100
AcDbEntity
  8
0
 62
5
100
AcDbLine
 10
117.455236
 20
38.779141
 30
0.0
 11
117.455236
 21
52.630247
 31
0.0
  0
LINE
  5
151
100
AcDbEntity
  8
0
 62
5
100
AcDbLine
 10
117.455236
 20
52.630247
 30
0.0
 11
131.306342
 21
52.630247
 31
0.0
  0
LINE
  5
152
100
AcDbEntity
  8
0
 62
5
100
AcDbLine
 10
131.306342
 20
52.630247
 30
0.0
 11
131.306342
 21
38.779141
 31
0.0
  0
LINE
  5
153
100
AcDbEntity
  8
0
 62
5
100
AcDbLine
 10
112.304686
 20
76.781749
 30
0.0
 11
98.453580
 21
76.781749
 31
0.0
  0
LINE
  5
154
100
AcDbEntity
  8
0
 62
5
100
AcDbLine
 10
98.453580
 20
76.781749
 30
0.0
 11
98.453580
 21
90.632854
 31
0.0
  0
LINE
  5
155
100
AcDbEntity
  8
0
 62
5
100
AcDbLine
 10
98.453580
 20
90.632854
 30
0.0
 11
112.304686
 21
90.632854
 31
0.0
  0
LINE
  5
156
100
AcDbEntity
  8
0
 62
5
100
AcDbLine
 10
112.304686
 20
90.632854
 30
0.0
 11
112.304686
 21
76.781749
 31
0.0
  0
LINE
  5
157
100
AcDbEntity
  8
0
 62
5
100
AcDbLine
 10
112.304686
 20
57.780445
 30
0.0
 11
98.453580
 21
57.780445
 31
0.0
  0
LINE
  5
158
100
AcDbEntity
  8
0
 62
5
100
AcDbLine
 10
98.453580
 20
57.780445
 30
0.0
 11
98.453580
 21
71.631551
 31
0.0
  0
LINE
  5
159
100
AcDbEntity
  8
0
 62
5
100
AcDbLine
 10
98.453580
 20
71.631551
 30
0.0
 11
112.304686
 21
71.631551
 31
0.0
  0
LINE
  5
15a
100
AcDbEntity
  8
0
 62
5
100
AcDbLine
 10
112.304686
 20
71.631551
 30
0.0
 11
112.304686
 21
57.780445
 31
0.0
  0
LINE
  5
15b
100
AcDbEntity
  8
0
 62
5
100
AcDbLine
 10
112.304686
 20
38.779141
 30
0.0
 11
98.453580
 21
38.779141
 31
0.0
  0
LINE
  5
15c
100
AcDbEntity
  8
0
 62
5
100
AcDbLine
 10
98.453580
 20
38.779141
 30
0.0
 11
98.453580
 21
52.630247
 31
0.0
  0
LINE
  5
15d
100
AcDbEntity
  8
0
 62
5
100
AcDbLine
 10
98.453580
 20
52.630247
 30
0.0
 11
112.304686
 21
52.630247
 31
0.0
  0
LINE
  5
15e
100
AcDbEntity
  8
0
 62
5
100
AcDbLine
 10
112.304686
 20
52.630247
 30
0.0
 11
112.304686
 21
38.779141
 31
0.0
  0
LINE
  5
15f
100
AcDbEntity
  8
0
 62
5
100
AcDbLine
 10
93.303027
 20
81.532252
 30
0.0
 11
79.452276
 21
81.532252
 31
0.0
  0
LINE
  5
160
100
AcDbEntity
  8
0
 62
5
100
AcDbLine
 10
79.452276
 20
81.532252
 30
0.0
 11
79.452276
 21
95.383356
 31
0.0
  0
LINE
  5
161
100
AcDbEntity
  8
0
 62
5
100
AcDbLine
 10
79.452276
 20
95.383356
 30
0.0
 11
93.303027
 21
95.383356
 31
0.0
  0
LINE
  5
162
100
AcDbEntity
  8
0
 62
5
100
AcDbLine
 10
93.303027
 20
95.383356
 30
0.0
 11
93.303027
 21
81.532252
 31
0.0
  0
LINE
  5
163
100
AcDbEntity
  8
0
 62
5
100
AcDbLine
 10
93.303027
 20
62.530594
 30
0.0
 11
79.452276
 21
62.530594
 31
0.0
  0
LINE
  5
164
100
AcDbEntity
  8
0
 62
5
100
AcDbLine
 10
79.452276
 20
62.530594
 30
0.0
 11
79.452276
 21
76.381700
 31
0.0
  0
LINE
  5
165
100
AcDbEntity
  8
0
 62
5
100
AcDbLine
 10
79.452276
 20
76.381700
 30
0.0
 11
93.303027
 21
76.381700
 31
0.0
  0
LINE
  5
166
100
AcDbEntity
  8
0
 62
5
100
AcDbLine
 10
93.303027
 20
76.381700
 30
0.0
 11
93.303027
 21
62.530594
 31
0.0
  0
LINE
  5
167
100
AcDbEntity
  8
0
 62
5
100
AcDbLine
 10
93.303027
 20
43.529292
 30
0.0
 11
79.452276
 21
43.529292
 31
0.0
  0
LINE
  5
168
100
AcDbEntity
  8
0
 62
5
100
AcDbLine
 10
79.452276
 20
43.529292
 30
0.0
 11
79.452276
 21
57.380395
 31
0.0
  0
LINE
  5
169
100
AcDbEntity
  8
0
 62
5
100
AcDbLine
 10
79.452276
 20
57.380395
 30
0.0
 11
93.303027
 21
57.380395
 31
0.0
  0
LINE
  5
16a
100
AcDbEntity
  8
0
 62
5
100
AcDbLine
 10
93.303027
 20
57.380395
 30
0.0
 11
93.303027
 21
43.529292
 31
0.0
  0
LINE
  5
16b
100
AcDbEntity
  8
0
 62
5
100
AcDbLine
 10
74.302077
 20
83.907150
 30
0.0
 11
60.450971
 21
83.907150
 31
0.0
  0
LINE
  5
16c
100
AcDbEntity
  8
0
 62
5
100
AcDbLine
 10
60.450971
 20
83.907150
 30
0.0
 11
60.450971
 21
97.758255
 31
0.0
  0
LINE
  5
16d
100
AcDbEntity
  8
0
 62
5
100
AcDbLine
 10
60.450971
 20
97.758255
 30
0.0
 11
74.302077
 21
97.758255
 31
0.0
  0
LINE
  5
16e
100
AcDbEntity
  8
0
 62
5
100
AcDbLine
 10
74.302077
 20
97.758255
 30
0.0
 11
74.302077
 21
83.907150
 31
0.0
  0
LINE
  5
16f
100
AcDbEntity
  8
0
 62
5
100
AcDbLine
 10
74.302077
 20
64.905847
 30
0.0
 11
60.450971
 21
64.905847
 31
0.0
  0
LINE
  5
170
100
AcDbEntity
  8
0
 62
5
100
AcDbLine
 10
60.450971
 20
64.905847
 30
0.0
 11
60.450971
 21
78.756951
 31
0.0
  0
LINE
  5
171
100
AcDbEntity
  8
0
 62
5
100
AcDbLine
 10
60.450971
 20
78.756951
 30
0.0
 11
74.302077
 21
78.756951
 31
0.0
  0
LINE
  5
172
100
AcDbEntity
  8
0
 62
5
100
AcDbLine
 10
74.302077
 20
78.756951
 30
0.0
 11
74.302077
 21
64.905847
 31
0.0
  0
LINE
  5
173
100
AcDbEntity
  8
0
 62
5
100
AcDbLine
 10
74.302077
 20
45.904543
 30
0.0
 11
60.450971
 21
45.904543
 31
0.0
  0
LINE
  5
174
100
AcDbEntity
  8
0
 62
5
100
AcDbLine
 10
60.450971
 20
45.904543
 30
0.0
 11
60.450971
 21
59.755646
 31
0.0
  0
LINE
  5
175
100
AcDbEntity
  8
0
 62
5
100
AcDbLine
 10
60.450971
 20
59.755646
 30
0.0
 11
74.302077
 21
59.755646
 31
0.0
  0
LINE
  5
176
100
AcDbEntity
  8
0
 62
5
100
AcDbLine
 10
74.302077
 20
59.755646
 30
0.0
 11
74.302077
 21
45.904543
 31
0.0
  0
LINE
  5
177
100
AcDbEntity
  8
0
 62
5
100
AcDbLine
 10
55.300421
 20
81.532252
 30
0.0
 11
41.449670
 21
81.532252
 31
0.0
  0
LINE
  5
178
100
AcDbEntity
  8
0
 62
5
100
AcDbLine
 10
41.449670
 20
81.532252
 30
0.0
 11
41.449670
 21
95.383356
 31
0.0
  0
LINE
  5
179
100
AcDbEntity
  8
0
 62
5
100
AcDbLine
 10
41.449670
 20
95.383356
 30
0.0
 11
55.300421
 21
95.383356
 31
0.0
  0
LINE
  5
17a
100
AcDbEntity
  8
0
 62
5
100
AcDbLine
 10
55.300421
 20
95.383356
 30
0.0
 11
55.300421
 21
81.532252
 31
0.0
  0
LINE
  5
17b
100
AcDbEntity
  8
0
 62
5
100
AcDbLine
 10
55.300421
 20
62.530594
 30
0.0
 11
41.449670
 21
62.530594
 31
0.0
  0
LINE
  5
17c
100
AcDbEntity
  8
0
 62
5
100
AcDbLine
 10
41.449670
 20
62.530594
 30
0.0
 11
41.449670
 21
76.381700
 31
0.0
  0
LINE
  5
17d
100
AcDbEntity
  8
0
 62
5
100
AcDbLine
 10
41.449670
 20
76.381700
 30
0.0
 11
55.300421
 21
76.381700
 31
0.0
  0
LINE
  5
17e
100
AcDbEntity
  8
0
 62
5
100
AcDbLine
 10
55.300421
 20
76.381700
 30
0.0
 11
55.300421
 21
62.530594
 31
0.0
  0
LINE
  5
17f
100
AcDbEntity
  8
0
 62
5
100
AcDbLine
 10
55.300421
 20
43.529292
 30
0.0
 11
41.449670
 21
43.529292
 31
0.0
  0
LINE
  5
180
100
AcDbEntity
  8
0
 62
5
100
AcDbLine
 10
41.449670
 20
43.529292
 30
0.0
 11
41.449670
 21
57.380395
 31
0.0
  0
LINE
  5
181
100
AcDbEntity
  8
0
 62
5
100
AcDbLine
 10
41.449670
 20
57.380395
 30
0.0
 11
55.300421
 21
57.380395
 31
0.0
  0
LINE
  5
182
100
AcDbEntity
  8
0
 62
5
100
AcDbLine
 10
55.300421
 20
57.380395
 30
0.0
 11
55.300421
 21
43.529292
 31
0.0
  0
LINE
  5
183
100
AcDbEntity
  8
0
 62
5
100
AcDbLine
 10
36.299117
 20
79.157000
 30
0.0
 11
22.448013
 21
79.157000
 31
0.0
  0
LINE
  5
184
100
AcDbEntity
  8
0
 62
5
100
AcDbLine
 10
22.448013
 20
79.157000
 30
0.0
 11
22.448013
 21
93.007752
 31
0.0
  0
LINE
  5
185
100
AcDbEntity
  8
0
 62
5
100
AcDbLine
 10
22.448013
 20
93.007752
 30
0.0
 11
36.299117
 21
93.007752
 31
0.0
  0
LINE
  5
186
100
AcDbEntity
  8
0
 62
5
100
AcDbLine
 10
36.299117
 20
93.007752
 30
0.0
 11
36.299117
 21
79.157000
 31
0.0
  0
LINE
  5
187
100
AcDbEntity
  8
0
 62
5
100
AcDbLine
 10
36.299117
 20
60.155696
 30
0.0
 11
22.448013
 21
60.155696
 31
0.0
  0
LINE
  5
188
100
AcDbEntity
  8
0
 62
5
100
AcDbLine
 10
22.448013
 20
60.155696
 30
0.0
 11
22.448013
 21
74.006801
 31
0.0
  0
LINE
  5
189
100
AcDbEntity
  8
0
 62
5
100
AcDbLine
 10
22.448013
 20
74.006801
 30
0.0
 11
36.299117
 21
74.006801
 31
0.0
  0
LINE
  5
18a
100
AcDbEntity
  8
0
 62
5
100
AcDbLine
 10
36.299117
 20
74.006801
 30
0.0
 11
36.299117
 21
60.155696
 31
0.0
  0
LINE
  5
18b
100
AcDbEntity
  8
0
 62
5
100
AcDbLine
 10
36.299117
 20
41.154394
 30
0.0
 11
22.448013
 21
41.154394
 31
0.0
  0
LINE
  5
18c
100
AcDbEntity
  8
0
 62
5
100
AcDbLine
 10
22.448013
 20
41.154394
 30
0.0
 11
22.448013
 21
55.005497
 31
0.0
  0
LINE
  5
18d
100
AcDbEntity
  8
0
 62
5
100
AcDbLine
 10
22.448013
 20
55.005497
 30
0.0
 11
36.299117
 21
55.005497
 31
0.0
  0
LINE
  5
18e
100
AcDbEntity
  8
0
 62
5
100
AcDbLine
 10
36.299117
 20
55.005497
 30
0.0
 11
36.299117
 21
41.154394
 31
0.0
  0
LINE
  5
18f
100
AcDbEntity
  8
0
 62
5
100
AcDbLine
 10
64.801073
 20
23.902863
 30
0.0
 11
50.949967
 21
23.902863
 31
0.0
  0
LINE
  5
190
100
AcDbEntity
  8
0
 62
5
100
AcDbLine
 10
50.949967
 20
23.902863
 30
0.0
 11
50.949967
 21
37.753971
 31
0.0
  0
LINE
  5
191
100
AcDbEntity
  8
0
 62
5
100
AcDbLine
 10
50.949967
 20
37.753971
 30
0.0
 11
64.801073
 21
37.753971
 31
0.0
  0
LINE
  5
192
100
AcDbEntity
  8
0
 62
5
100
AcDbLine
 10
64.801073
 20
37.753971
 30
0.0
 11
64.801073
 21
23.902863
 31
0.0
  0
LINE
  5
193
100
AcDbEntity
  8
0
 62
5
100
AcDbLine
 10
41.772144
 20
36.554385
 30
0.0
 11
45.343662
 21
23.171769
 31
0.0
  0
LINE
  5
194
100
AcDbEntity
  8
0
 62
5
100
AcDbLine
 10
45.343662
 20
23.171769
 30
0.0
 11
31.960694
 21
19.600248
 31
0.0
  0
LINE
  5
195
100
AcDbEntity
  8
0
 62
5
100
AcDbLine
 10
31.960694
 20
19.600248
 30
0.0
 11
28.389527
 21
32.983219
 31
0.0
  0
LINE
  5
196
100
AcDbEntity
  8
0
 62
5
100
AcDbLine
 10
28.389527
 20
32.983219
 30
0.0
 11
41.772144
 21
36.554385
 31
0.0
  0
ENDSEC
  0
SECTION
  2
OBJECTS
  0
DICTIONARY
  5
C
330
0
100
AcDbDictionary
  3
ACAD_GROUP
350
D
  3
ACAD_MLINESTYLE
350
17
  0
DICTIONARY
  5
D
330
C
100
AcDbDictionary
  0
DICTIONARY
  5
1A
330
C
100
AcDbDictionary
  0
DICTIONARY
  5
17
330
C
100
AcDbDictionary
  3
STANDARD
350
18
  0
DICTIONARY
  5
19
330
C
100
AcDbDictionary
  0
ENDSEC
  0
EOF
