  0
SECTION
  2
HEADER
  9
$ACADVER
  1
AC1014
  9
$HANDSEED
  5
FFFF
  9
$MEASUREMENT
 70
     1
  0
ENDSEC
  0
SECTION
  2
TABLES
  0
TABLE
  2
VPORT
  5
8
330
0
100
AcDbSymbolTable
 70
     4
  0
VPORT
  5
2E
330
8
100
AcDbSymbolTableRecord
100
AcDbViewportTableRecord
  2
*ACTIVE
 70
     0
 10
0.0
 20
0.0
 11
1.0
 21
1.0
 12
210.0
 22
148.5
 13
0.0
 23
0.0
 14
10.0
 24
10.0
 15
10.0
 25
10.0
 16
0.0
 26
0.0
 36
1.0
 17
0.0
 27
0.0
 37
0.0
 40
341.0
 41
1.24
 42
50.0
 43
0.0
 44
0.0
 50
0.0
 51
0.0
 71
     0
 72
   100
 73
     1
 74
     3
 75
     0
 76
     0
 77
     0
 78
     0
  0
ENDTAB
  0
TABLE
  2
LTYPE
  5
5
330
0
100
AcDbSymbolTable
 70
     1
  0
LTYPE
  5
14
330
5
100
AcDbSymbolTableRecord
100
AcDbLinetypeTableRecord
  2
BYBLOCK
 70
     0
  3

 72
    65
 73
     0
 40
0.0
  0
LTYPE
  5
15
330
5
100
AcDbSymbolTableRecord
100
AcDbLinetypeTableRecord
  2
BYLAYER
 70
     0
  3

 72
    65
 73
     0
 40
0.0
  0
LTYPE
  5
16
330
5
100
AcDbSymbolTableRecord
100
AcDbLinetypeTableRecord
  2
CONTINUOUS
 70
     0
  3
Solid line
 72
    65
 73
     0
 40
0.0
  0
ENDTAB
  0
TABLE
  2
LAYER
  5
2
100
AcDbSymbolTable
 70
1
  0
LAYER
  5
50
100
AcDbSymbolTableRecord
100
AcDbLayerTableRecord
  2
0
 70
0
  6
CONTINUOUS
  0
ENDTAB
  0
TABLE
  2
STYLE
  5
3
330
0
100
AcDbSymbolTable
 70
     1
  0
STYLE
  5
11
330
3
100
AcDbSymbolTableRecord
100
AcDbTextStyleTableRecord
  2
STANDARD
 70
     0
 40
0.0
 41
1.0
 50
0.0
 71
     0
 42
2.5
  3
txt
  4

  0
ENDTAB
  0
TABLE
  2
VIEW
  5
6
330
0
100
AcDbSymbolTable
 70
     0
  0
ENDTAB
  0
TABLE
  2
UCS
  5
7
330
0
100
AcDbSymbolTable
 70
     0
  0
ENDTAB
  0
TABLE
  2
APPID
  5
9
330
0
100
AcDbSymbolTable
 70
     2
  0
APPID
  5
12
330
9
100
AcDbSymbolTableRecord
100
AcDbRegAppTableRecord
  2
ACAD
 70
     0
  0
ENDTAB
  0
TABLE
  2
DIMSTYLE
  5
A
330
0
100
AcDbSymbolTable
 70
     1
  0
DIMSTYLE
105
27
330
A
100
AcDbSymbolTableRecord
100
AcDbDimStyleTableRecord
  2
ISO-25
 70
     0
  3

  4

  5

  6

  7

 40
1.0
 41
2.5
 42
0.625
 43
3.75
 44
1.25
 45
0.0
 46
0.0
 47
0.0
 48
0.0
140
2.5
141
2.5
142
0.0
143
0.03937007874016
144
1.0
145
0.0
146
1.0
147
0.625
 71
     0
 72
     0
 73
     0
 74
     0
 75
     0
 76
     0
 77
     1
 78
     8
170
     0
171
     3
172
     1
173
     0
174
     0
175
     0
176
     0
177
     0
178
     0
270
     2
271
     2
272
     2
273
     2
274
     3
340
11
275
     0
280
     0
281
     0
282
     0
283
     0
284
     8
285
     0
286
     0
287
     3
288
     0
  0
ENDTAB
  0
TABLE
  2
BLOCK_RECORD
  5
1
330
0
100
AcDbSymbolTable
 70
     1
  0
BLOCK_RECORD
  5
1F
330
1
100
AcDbSymbolTableRecord
100
AcDbBlockTableRecord
  2
*MODEL_SPACE
  0
BLOCK_RECORD
  5
1B
330
1
100
AcDbSymbolTableRecord
100
AcDbBlockTableRecord
  2
*PAPER_SPACE
  0
ENDTAB
  0
ENDSEC
  0
SECTION
  2
BLOCKS
  0
BLOCK
  5
20
330
1F
100
AcDbEntity
  8
0
100
AcDbBlockBegin
  2
*MODEL_SPACE
 70
     0
 10
0.0
 20
0.0
 30
0.0
  3
*MODEL_SPACE
  1

  0
ENDBLK
  5
21
330
1F
100
AcDbEntity
  8
0
100
AcDbBlockEnd
  0
BLOCK
  5
1C
330
1B
100
AcDbEntity
 67
     1
  8
0
100
AcDbBlockBegin
  2
*PAPER_SPACE
  1

  0
ENDBLK
  5
1D
330
1B
100
AcDbEntity
 67
     1
  8
0
100
AcDbBlockEnd
  0
ENDSEC
  0
SECTION
  2
ENTITIES
  0
SPLINE
  5
100
100
AcDbEntity
  8
0
 62
5
100
AcDbSpline
 70
8
 71
3
 72
8
 73
4
 74
0
 40
0
 40
0
 40
0
 40
0
 40
1
 40
1
 40
1
 40
1
 10
55.469706
 20
37.503933
 30
0.0
 10
55.469706
 20
36.068125
 30
0.0
 10
54.305538
 20
34.903958
 30
0.0
 10
52.869731
 20
34.903958
 30
0.0
  0
SPLINE
  5
101
100
AcDbEntity
  8
0
 62
5
100
AcDbSpline
 70
8
 71
3
 72
8
 73
4
 74
0
 40
0
 40
0
 40
0
 40
0
 40
1
 40
1
 40
1
 40
1
 10
52.869731
 20
34.903958
 30
0.0
 10
51.433926
 20
34.903958
 30
0.0
 10
50.269759
 20
36.068125
 30
0.0
 10
50.269759
 20
37.503933
 30
0.0
  0
SPLINE
  5
102
100
AcDbEntity
  8
0
 62
5
100
AcDbSpline
 70
8
 71
3
 72
8
 73
4
 74
0
 40
0
 40
0
 40
0
 40
0
 40
1
 40
1
 40
1
 40
1
 10
50.269759
 20
37.503933
 30
0.0
 10
50.269759
 20
38.939738
 30
0.0
 10
51.433926
 20
40.103905
 30
0.0
 10
52.869731
 20
40.103905
 30
0.0
  0
SPLINE
  5
103
100
AcDbEntity
  8
0
 62
5
100
AcDbSpline
 70
8
 71
3
 72
8
 73
4
 74
0
 40
0
 40
0
 40
0
 40
0
 40
1
 40
1
 40
1
 40
1
 10
52.869731
 20
40.103905
 30
0.0
 10
54.305538
 20
40.103905
 30
0.0
 10
55.469706
 20
38.939738
 30
0.0
 10
55.469706
 20
37.503933
 30
0.0
  0
LINE
  5
104
100
AcDbEntity
  8
0
 62
5
100
AcDbLine
 10
55.469706
 20
37.503933
 30
0.0
 11
55.469706
 21
37.503933
 31
0.0
  0
SPLINE
  5
105
100
AcDbEntity
  8
0
 62
5
100
AcDbSpline
 70
8
 71
3
 72
8
 73
4
 74
0
 40
0
 40
0
 40
0
 40
0
 40
1
 40
1
 40
1
 40
1
 10
161.756850
 20
56.154636
 30
0.0
 10
163.192658
 20
56.154636
 30
0.0
 10
164.356825
 20
54.990821
 30
0.0
 10
164.356825
 20
53.554661
 30
0.0
  0
SPLINE
  5
106
100
AcDbEntity
  8
0
 62
5
100
AcDbSpline
 70
8
 71
3
 72
8
 73
4
 74
0
 40
0
 40
0
 40
0
 40
0
 40
1
 40
1
 40
1
 40
1
 10
164.356825
 20
53.554661
 30
0.0
 10
164.356825
 20
52.118854
 30
0.0
 10
163.192658
 20
50.954687
 30
0.0
 10
161.756850
 20
50.954687
 30
0.0
  0
SPLINE
  5
107
100
AcDbEntity
  8
0
 62
5
100
AcDbSpline
 70
8
 71
3
 72
8
 73
4
 74
0
 40
0
 40
0
 40
0
 40
0
 40
1
 40
1
 40
1
 40
1
 10
161.756850
 20
50.954687
 30
0.0
 10
160.321046
 20
50.954687
 30
0.0
 10
159.156878
 20
52.118854
 30
0.0
 10
159.156878
 20
53.554661
 30
0.0
  0
SPLINE
  5
108
100
AcDbEntity
  8
0
 62
5
100
AcDbSpline
 70
8
 71
3
 72
8
 73
4
 74
0
 40
0
 40
0
 40
0
 40
0
 40
1
 40
1
 40
1
 40
1
 10
159.156878
 20
53.554661
 30
0.0
 10
159.156878
 20
54.990821
 30
0.0
 10
160.321046
 20
56.154636
 30
0.0
 10
161.756850
 20
56.154636
 30
0.0
  0
LINE
  5
109
100
AcDbEntity
  8
0
 62
5
100
AcDbLine
 10
161.756850
 20
56.154636
 30
0.0
 11
161.756850
 21
56.154636
 31
0.0
  0
SPLINE
  5
10a
100
AcDbEntity
  8
0
 62
5
100
AcDbSpline
 70
8
 71
3
 72
8
 73
4
 74
0
 40
0
 40
0
 40
0
 40
0
 40
1
 40
1
 40
1
 40
1
 10
25.016782
 20
118.300784
 30
0.0
 10
23.773239
 20
119.018689
 30
0.0
 10
23.347445
 20
120.609011
 30
0.0
 10
24.065339
 20
121.852553
 30
0.0
  0
SPLINE
  5
10b
100
AcDbEntity
  8
0
 62
5
100
AcDbSpline
 70
8
 71
3
 72
8
 73
4
 74
0
 40
0
 40
0
 40
0
 40
0
 40
1
 40
1
 40
1
 40
1
 10
24.065339
 20
121.852553
 30
0.0
 10
24.783234
 20
123.096096
 30
0.0
 10
26.373222
 20
123.522253
 30
0.0
 10
27.616764
 20
122.804350
 30
0.0
  0
SPLINE
  5
10c
100
AcDbEntity
  8
0
 62
5
100
AcDbSpline
 70
8
 71
3
 72
8
 73
4
 74
0
 40
0
 40
0
 40
0
 40
0
 40
1
 40
1
 40
1
 40
1
 10
27.616764
 20
122.804350
 30
0.0
 10
28.860650
 20
122.086093
 30
0.0
 10
29.286445
 20
120.496124
 30
0.0
 10
28.568206
 20
119.252581
 30
0.0
  0
SPLINE
  5
10d
100
AcDbEntity
  8
0
 62
5
100
AcDbSpline
 70
8
 71
3
 72
8
 73
4
 74
0
 40
0
 40
0
 40
0
 40
0
 40
1
 40
1
 40
1
 40
1
 10
28.568206
 20
119.252581
 30
0.0
 10
27.850285
 20
118.009039
 30
0.0
 10
26.260324
 20
117.582882
 30
0.0
 10
25.016782
 20
118.300784
 30
0.0
  0
LINE
  5
10e
100
AcDbEntity
  8
0
 62
5
100
AcDbLine
 10
25.016782
 20
118.300784
 30
0.0
 11
25.016782
 21
118.300784
 31
0.0
  0
SPLINE
  5
10f
100
AcDbEntity
  8
0
 62
5
100
AcDbSpline
 70
8
 71
3
 72
8
 73
4
 74
0
 40
0
 40
0
 40
0
 40
0
 40
1
 40
1
 40
1
 40
1
 10
96.227984
 20
99.386169
 30
0.0
 10
96.227984
 20
98.778686
 30
0.0
 10
95.735506
 20
98.286208
 30
0.0
 10
95.128023
 20
98.286208
 30
0.0
  0
SPLINE
  5
110
100
AcDbEntity
  8
0
 62
5
100
AcDbSpline
 70
8
 71
3
 72
8
 73
4
 74
0
 40
0
 40
0
 40
0
 40
0
 40
1
 40
1
 40
1
 40
1
 10
95.128023
 20
98.286208
 30
0.0
 10
94.520539
 20
98.286208
 30
0.0
 10
94.028059
 20
98.778686
 30
0.0
 10
94.028059
 20
99.386169
 30
0.0
  0
SPLINE
  5
111
100
AcDbEntity
  8
0
 62
5
100
AcDbSpline
 70
8
 71
3
 72
8
 73
4
 74
0
 40
0
 40
0
 40
0
 40
0
 40
1
 40
1
 40
1
 40
1
 10
94.028059
 20
99.386169
 30
0.0
 10
94.028059
 20
99.994005
 30
0.0
 10
94.520539
 20
100.486130
 30
0.0
 10
95.128023
 20
100.486130
 30
0.0
  0
SPLINE
  5
112
100
AcDbEntity
  8
0
 62
5
100
AcDbSpline
 70
8
 71
3
 72
8
 73
4
 74
0
 40
0
 40
0
 40
0
 40
0
 40
1
 40
1
 40
1
 40
1
 10
95.128023
 20
100.486130
 30
0.0
 10
95.735506
 20
100.486130
 30
0.0
 10
96.227984
 20
99.994005
 30
0.0
 10
96.227984
 20
99.386169
 30
0.0
  0
LINE
  5
113
100
AcDbEntity
  8
0
 62
5
100
AcDbLine
 10
96.227984
 20
99.386169
 30
0.0
 11
96.227984
 21
99.386169
 31
0.0
  0
SPLINE
  5
114
100
AcDbEntity
  8
0
 62
5
100
AcDbSpline
 70
8
 71
3
 72
8
 73
4
 74
0
 40
0
 40
0
 40
0
 40
0
 40
1
 40
1
 40
1
 40
1
 10
63.449934
 20
59.639024
 30
0.0
 10
63.449934
 20
59.031188
 30
0.0
 10
62.957454
 20
58.539063
 30
0.0
 10
62.349618
 20
58.539063
 30
0.0
  0
SPLINE
  5
115
100
AcDbEntity
  8
0
 62
5
100
AcDbSpline
 70
8
 71
3
 72
8
 73
4
 74
0
 40
0
 40
0
 40
0
 40
0
 40
1
 40
1
 40
1
 40
1
 10
62.349618
 20
58.539063
 30
0.0
 10
61.742134
 20
58.539063
 30
0.0
 10
61.249657
 20
59.031188
 30
0.0
 10
61.249657
 20
59.639024
 30
0.0
  0
SPLINE
  5
116
100
AcDbEntity
  8
0
 62
5
100
AcDbSpline
 70
8
 71
3
 72
8
 73
4
 74
0
 40
0
 40
0
 40
0
 40
0
 40
1
 40
1
 40
1
 40
1
 10
61.249657
 20
59.639024
 30
0.0
 10
61.249657
 20
60.246508
 30
0.0
 10
61.742134
 20
60.738985
 30
0.0
 10
62.349618
 20
60.738985
 30
0.0
  0
SPLINE
  5
117
100
AcDbEntity
  8
0
 62
5
100
AcDbSpline
 70
8
 71
3
 72
8
 73
4
 74
0
 40
0
 40
0
 40
0
 40
0
 40
1
 40
1
 40
1
 40
1
 10
62.349618
 20
60.738985
 30
0.0
 10
62.957454
 20
60.738985
 30
0.0
 10
63.449934
 20
60.246508
 30
0.0
 10
63.449934
 20
59.639024
 30
0.0
  0
LINE
  5
118
100
AcDbEntity
  8
0
 62
5
100
AcDbLine
 10
63.449934
 20
59.639024
 30
0.0
 11
63.449934
 21
59.639024
 31
0.0
  0
SPLINE
  5
119
100
AcDbEntity
  8
0
 62
5
100
AcDbSpline
 70
8
 71
3
 72
8
 73
4
 74
0
 40
0
 40
0
 40
0
 40
0
 40
1
 40
1
 40
1
 40
1
 10
139.471725
 20
63.261207
 30
0.0
 10
139.471725
 20
62.653723
 30
0.0
 10
138.979245
 20
62.161246
 30
0.0
 10
138.371409
 20
62.161246
 30
0.0
  0
SPLINE
  5
11a
100
AcDbEntity
  8
0
 62
5
100
AcDbSpline
 70
8
 71
3
 72
8
 73
4
 74
0
 40
0
 40
0
 40
0
 40
0
 40
1
 40
1
 40
1
 40
1
 10
138.371409
 20
62.161246
 30
0.0
 10
137.763925
 20
62.161246
 30
0.0
 10
137.271448
 20
62.653723
 30
0.0
 10
137.271448
 20
63.261207
 30
0.0
  0
SPLINE
  5
11b
100
AcDbEntity
  8
0
 62
5
100
AcDbSpline
 70
8
 71
3
 72
8
 73
4
 74
0
 40
0
 40
0
 40
0
 40
0
 40
1
 40
1
 40
1
 40
1
 10
137.271448
 20
63.261207
 30
0.0
 10
137.271448
 20
63.869045
 30
0.0
 10
137.763925
 20
64.361522
 30
0.0
 10
138.371409
 20
64.361522
 30
0.0
  0
SPLINE
  5
11c
100
AcDbEntity
  8
0
 62
5
100
AcDbSpline
 70
8
 71
3
 72
8
 73
4
 74
0
 40
0
 40
0
 40
0
 40
0
 40
1
 40
1
 40
1
 40
1
 10
138.371409
 20
64.361522
 30
0.0
 10
138.979245
 20
64.361522
 30
0.0
 10
139.471725
 20
63.869045
 30
0.0
 10
139.471725
 20
63.261207
 30
0.0
  0
LINE
  5
11d
100
AcDbEntity
  8
0
 62
5
100
AcDbLine
 10
139.471725
 20
63.261207
 30
0.0
 11
139.471725
 21
63.261207
 31
0.0
  0
SPLINE
  5
11e
100
AcDbEntity
  8
0
 62
5
100
AcDbSpline
 70
8
 71
3
 72
8
 73
4
 74
0
 40
0
 40
0
 40
0
 40
0
 40
1
 40
1
 40
1
 40
1
 10
139.480509
 20
82.276435
 30
0.0
 10
139.480509
 20
81.668951
 30
0.0
 10
138.988029
 20
81.176474
 30
0.0
 10
138.380193
 20
81.176474
 30
0.0
  0
SPLINE
  5
11f
100
AcDbEntity
  8
0
 62
5
100
AcDbSpline
 70
8
 71
3
 72
8
 73
4
 74
0
 40
0
 40
0
 40
0
 40
0
 40
1
 40
1
 40
1
 40
1
 10
138.380193
 20
81.176474
 30
0.0
 10
137.772710
 20
81.176474
 30
0.0
 10
137.280232
 20
81.668951
 30
0.0
 10
137.280232
 20
82.276435
 30
0.0
  0
SPLINE
  5
120
100
AcDbEntity
  8
0
 62
5
100
AcDbSpline
 70
8
 71
3
 72
8
 73
4
 74
0
 40
0
 40
0
 40
0
 40
0
 40
1
 40
1
 40
1
 40
1
 10
137.280232
 20
82.276435
 30
0.0
 10
137.280232
 20
82.884273
 30
0.0
 10
137.772710
 20
83.376398
 30
0.0
 10
138.380193
 20
83.376398
 30
0.0
  0
SPLINE
  5
121
100
AcDbEntity
  8
0
 62
5
100
AcDbSpline
 70
8
 71
3
 72
8
 73
4
 74
0
 40
0
 40
0
 40
0
 40
0
 40
1
 40
1
 40
1
 40
1
 10
138.380193
 20
83.376398
 30
0.0
 10
138.988029
 20
83.376398
 30
0.0
 10
139.480509
 20
82.884273
 30
0.0
 10
139.480509
 20
82.276435
 30
0.0
  0
LINE
  5
122
100
AcDbEntity
  8
0
 62
5
100
AcDbLine
 10
139.480509
 20
82.276435
 30
0.0
 11
139.480509
 21
82.276435
 31
0.0
  0
SPLINE
  5
123
100
AcDbEntity
  8
0
 62
5
100
AcDbSpline
 70
8
 71
3
 72
8
 73
4
 74
0
 40
0
 40
0
 40
0
 40
0
 40
1
 40
1
 40
1
 40
1
 10
49.708135
 20
107.140723
 30
0.0
 10
49.708135
 20
106.533239
 30
0.0
 10
49.215658
 20
106.040762
 30
0.0
 10
48.608174
 20
106.040762
 30
0.0
  0
SPLINE
  5
124
100
AcDbEntity
  8
0
 62
5
100
AcDbSpline
 70
8
 71
3
 72
8
 73
4
 74
0
 40
0
 40
0
 40
0
 40
0
 40
1
 40
1
 40
1
 40
1
 10
48.608174
 20
106.040762
 30
0.0
 10
48.000331
 20
106.040762
 30
0.0
 10
47.507861
 20
106.533239
 30
0.0
 10
47.507861
 20
107.140723
 30
0.0
  0
SPLINE
  5
125
100
AcDbEntity
  8
0
 62
5
100
AcDbSpline
 70
8
 71
3
 72
8
 73
4
 74
0
 40
0
 40
0
 40
0
 40
0
 40
1
 40
1
 40
1
 40
1
 10
47.507861
 20
107.140723
 30
0.0
 10
47.507861
 20
107.748559
 30
0.0
 10
48.000331
 20
108.240684
 30
0.0
 10
48.608174
 20
108.240684
 30
0.0
  0
SPLINE
  5
126
100
AcDbEntity
  8
0
 62
5
100
AcDbSpline
 70
8
 71
3
 72
8
 73
4
 74
0
 40
0
 40
0
 40
0
 40
0
 40
1
 40
1
 40
1
 40
1
 10
48.608174
 20
108.240684
 30
0.0
 10
49.215658
 20
108.240684
 30
0.0
 10
49.708135
 20
107.748559
 30
0.0
 10
49.708135
 20
107.140723
 30
0.0
  0
LINE
  5
127
100
AcDbEntity
  8
0
 62
5
100
AcDbLine
 10
49.708135
 20
107.140723
 30
0.0
 11
49.708135
 21
107.140723
 31
0.0
  0
SPLINE
  5
128
100
AcDbEntity
  8
0
 62
5
100
AcDbSpline
 70
8
 71
3
 72
8
 73
4
 74
0
 40
0
 40
0
 40
0
 40
0
 40
1
 40
1
 40
1
 40
1
 10
139.476873
 20
82.277459
 30
0.0
 10
139.476873
 20
81.669975
 30
0.0
 10
138.984396
 20
81.177498
 30
0.0
 10
138.376561
 20
81.177498
 30
0.0
  0
SPLINE
  5
129
100
AcDbEntity
  8
0
 62
5
100
AcDbSpline
 70
8
 71
3
 72
8
 73
4
 74
0
 40
0
 40
0
 40
0
 40
0
 40
1
 40
1
 40
1
 40
1
 10
138.376561
 20
81.177498
 30
0.0
 10
137.769077
 20
81.177498
 30
0.0
 10
137.276597
 20
81.669975
 30
0.0
 10
137.276597
 20
82.277459
 30
0.0
  0
SPLINE
  5
12a
100
AcDbEntity
  8
0
 62
5
100
AcDbSpline
 70
8
 71
3
 72
8
 73
4
 74
0
 40
0
 40
0
 40
0
 40
0
 40
1
 40
1
 40
1
 40
1
 10
137.276597
 20
82.277459
 30
0.0
 10
137.276597
 20
82.885294
 30
0.0
 10
137.769077
 20
83.377420
 30
0.0
 10
138.376561
 20
83.377420
 30
0.0
  0
SPLINE
  5
12b
100
AcDbEntity
  8
0
 62
5
100
AcDbSpline
 70
8
 71
3
 72
8
 73
4
 74
0
 40
0
 40
0
 40
0
 40
0
 40
1
 40
1
 40
1
 40
1
 10
138.376561
 20
83.377420
 30
0.0
 10
138.984396
 20
83.377420
 30
0.0
 10
139.476873
 20
82.885294
 30
0.0
 10
139.476873
 20
82.277459
 30
0.0
  0
LINE
  5
12c
100
AcDbEntity
  8
0
 62
5
100
AcDbLine
 10
139.476873
 20
82.277459
 30
0.0
 11
139.476873
 21
82.277459
 31
0.0
  0
SPLINE
  5
12d
100
AcDbEntity
  8
0
 62
5
100
AcDbSpline
 70
8
 71
3
 72
8
 73
4
 74
0
 40
0
 40
0
 40
0
 40
0
 40
1
 40
1
 40
1
 40
1
 10
161.766307
 20
94.179237
 30
0.0
 10
163.202466
 20
94.179237
 30
0.0
 10
164.366279
 20
93.015070
 30
0.0
 10
164.366279
 20
91.579262
 30
0.0
  0
SPLINE
  5
12e
100
AcDbEntity
  8
0
 62
5
100
AcDbSpline
 70
8
 71
3
 72
8
 73
4
 74
0
 40
0
 40
0
 40
0
 40
0
 40
1
 40
1
 40
1
 40
1
 10
164.366279
 20
91.579262
 30
0.0
 10
164.366279
 20
90.143455
 30
0.0
 10
163.202466
 20
88.979288
 30
0.0
 10
161.766307
 20
88.979288
 30
0.0
  0
SPLINE
  5
12f
100
AcDbEntity
  8
0
 62
5
100
AcDbSpline
 70
8
 71
3
 72
8
 73
4
 74
0
 40
0
 40
0
 40
0
 40
0
 40
1
 40
1
 40
1
 40
1
 10
161.766307
 20
88.979288
 30
0.0
 10
160.330499
 20
88.979288
 30
0.0
 10
159.166332
 20
90.143455
 30
0.0
 10
159.166332
 20
91.579262
 30
0.0
  0
SPLINE
  5
130
100
AcDbEntity
  8
0
 62
5
100
AcDbSpline
 70
8
 71
3
 72
8
 73
4
 74
0
 40
0
 40
0
 40
0
 40
0
 40
1
 40
1
 40
1
 40
1
 10
159.166332
 20
91.579262
 30
0.0
 10
159.166332
 20
93.015070
 30
0.0
 10
160.330499
 20
94.179237
 30
0.0
 10
161.766307
 20
94.179237
 30
0.0
  0
LINE
  5
131
100
AcDbEntity
  8
0
 62
5
100
AcDbLine
 10
161.766307
 20
94.179237
 30
0.0
 11
161.766307
 21
94.179237
 31
0.0
  0
LINE
  5
132
100
AcDbEntity
  8
0
 62
5
100
AcDbLine
 10
23.826156
 20
106.405181
 30
0.0
 11
26.555255
 21
111.175799
 31
0.0
  0
SPLINE
  5
133
100
AcDbEntity
  8
0
 62
5
100
AcDbSpline
 70
8
 71
3
 72
8
 73
4
 74
0
 40
0
 40
0
 40
0
 40
0
 40
1
 40
1
 40
1
 40
1
 10
26.555255
 20
111.175799
 30
0.0
 10
27.371918
 20
112.603137
 30
0.0
 10
26.887572
 20
114.421710
 30
0.0
 10
25.469034
 20
115.253560
 30
0.0
  0
LINE
  5
134
100
AcDbEntity
  8
0
 62
5
100
AcDbLine
 10
25.469034
 20
115.253560
 30
0.0
 11
23.816975
 21
116.222288
 31
0.0
  0
SPLINE
  5
135
100
AcDbEntity
  8
0
 62
5
100
AcDbSpline
 70
8
 71
3
 72
8
 73
4
 74
0
 40
0
 40
0
 40
0
 40
0
 40
1
 40
1
 40
1
 40
1
 10
23.816975
 20
116.222288
 30
0.0
 10
21.425140
 20
117.603062
 30
0.0
 10
20.605989
 20
120.660941
 30
0.0
 10
21.986771
 20
123.052424
 30
0.0
  0
SPLINE
  5
136
100
AcDbEntity
  8
0
 62
5
100
AcDbSpline
 70
8
 71
3
 72
8
 73
4
 74
0
 40
0
 40
0
 40
0
 40
0
 40
1
 40
1
 40
1
 40
1
 10
21.986771
 20
123.052424
 30
0.0
 10
23.367183
 20
125.443904
 30
0.0
 10
26.425424
 20
126.263409
 30
0.0
 10
28.816544
 20
124.882635
 30
0.0
  0
LINE
  5
137
100
AcDbEntity
  8
0
 62
5
100
AcDbLine
 10
28.816544
 20
124.882635
 30
0.0
 11
30.424868
 21
123.944245
 31
0.0
  0
SPLINE
  5
138
100
AcDbEntity
  8
0
 62
5
100
AcDbSpline
 70
8
 71
3
 72
8
 73
4
 74
0
 40
0
 40
0
 40
0
 40
0
 40
1
 40
1
 40
1
 40
1
 10
30.424868
 20
123.944245
 30
0.0
 10
31.863144
 20
123.104986
 30
0.0
 10
33.709937
 20
123.597466
 30
0.0
 10
34.538613
 20
125.041737
 30
0.0
  0
LINE
  5
139
100
AcDbEntity
  8
0
 62
5
100
AcDbLine
 10
34.538613
 20
125.041737
 30
0.0
 11
37.077900
 21
129.466280
 31
0.0
  0
SPLINE
  5
13a
100
AcDbEntity
  8
0
 62
5
100
AcDbSpline
 70
8
 71
3
 72
8
 73
4
 74
0
 40
0
 40
0
 40
0
 40
0
 40
1
 40
1
 40
1
 40
1
 10
37.077900
 20
129.466280
 30
0.0
 10
37.356242
 20
129.859274
 30
0.0
 10
37.900596
 20
129.953114
 30
0.0
 10
38.293582
 20
129.675124
 30
0.0
  0
LINE
  5
13b
100
AcDbEntity
  8
0
 62
5
100
AcDbLine
 10
38.293582
 20
129.675124
 30
0.0
 11
53.043229
 21
121.185168
 31
0.0
  0
SPLINE
  5
13c
100
AcDbEntity
  8
0
 62
5
100
AcDbSpline
 70
8
 71
3
 72
8
 73
4
 74
0
 40
0
 40
0
 40
0
 40
0
 40
1
 40
1
 40
1
 40
1
 10
53.043229
 20
121.185168
 30
0.0
 10
53.134598
 20
121.153772
 30
0.0
 10
53.228437
 20
121.129431
 30
0.0
 10
53.323333
 20
121.113201
 30
0.0
  0
LINE
  5
13d
100
AcDbEntity
  8
0
 62
5
100
AcDbLine
 10
53.323333
 20
121.113201
 30
0.0
 11
90.117375
 21
115.643731
 31
0.0
  0
SPLINE
  5
13e
100
AcDbEntity
  8
0
 62
5
100
AcDbSpline
 70
8
 71
3
 72
8
 73
4
 74
0
 40
0
 40
0
 40
0
 40
0
 40
1
 40
1
 40
1
 40
1
 10
90.117375
 20
115.643731
 30
0.0
 10
90.246491
 20
115.630687
 30
0.0
 10
90.368552
 20
115.578469
 30
0.0
 10
90.467331
 20
115.494154
 30
0.0
  0
SPLINE
  5
13f
100
AcDbEntity
  8
0
 62
5
100
AcDbSpline
 70
8
 71
3
 72
8
 73
4
 74
0
 40
0
 40
0
 40
0
 40
0
 40
1
 40
1
 40
1
 40
1
 10
90.467331
 20
115.494154
 30
0.0
 10
90.467331
 20
115.494154
 30
0.0
 10
101.018215
 20
101.034488
 30
0.0
 10
101.014688
 20
101.039427
 30
0.0
  0
SPLINE
  5
140
100
AcDbEntity
  8
0
 62
5
100
AcDbSpline
 70
8
 71
3
 72
8
 73
4
 74
0
 40
0
 40
0
 40
0
 40
0
 40
1
 40
1
 40
1
 40
1
 10
101.014688
 20
101.039427
 30
0.0
 10
101.108174
 20
100.945588
 30
0.0
 10
101.235526
 20
100.893025
 30
0.0
 10
101.368172
 20
100.893025
 30
0.0
  0
LINE
  5
141
100
AcDbEntity
  8
0
 62
5
100
AcDbLine
 10
101.368172
 20
100.893025
 30
0.0
 11
137.370577
 21
100.893025
 31
0.0
  0
LINE
  5
142
100
AcDbEntity
  8
0
 62
5
100
AcDbLine
 10
137.370577
 20
100.893025
 30
0.0
 11
139.370828
 21
100.893025
 31
0.0
  0
LINE
  5
143
100
AcDbEntity
  8
0
 62
5
100
AcDbLine
 10
139.370828
 20
100.893025
 30
0.0
 11
157.345759
 21
100.893025
 31
0.0
  0
SPLINE
  5
144
100
AcDbEntity
  8
0
 62
5
100
AcDbSpline
 70
8
 71
3
 72
8
 73
4
 74
0
 40
0
 40
0
 40
0
 40
0
 40
1
 40
1
 40
1
 40
1
 10
157.345759
 20
100.893025
 30
0.0
 10
157.621984
 20
100.893025
 30
0.0
 10
157.845999
 20
100.669010
 30
0.0
 10
157.845999
 20
100.392785
 30
0.0
  0
LINE
  5
145
100
AcDbEntity
  8
0
 62
5
100
AcDbLine
 10
157.845999
 20
100.392785
 30
0.0
 11
157.857985
 21
99.578575
 31
0.0
  0
SPLINE
  5
146
100
AcDbEntity
  8
0
 62
5
100
AcDbSpline
 70
8
 71
3
 72
8
 73
4
 74
0
 40
0
 40
0
 40
0
 40
0
 40
1
 40
1
 40
1
 40
1
 10
157.857985
 20
99.578575
 30
0.0
 10
157.857985
 20
97.921930
 30
0.0
 10
158.227158
 20
96.578904
 30
0.0
 10
159.884157
 20
96.578904
 30
0.0
  0
LINE
  5
147
100
AcDbEntity
  8
0
 62
5
100
AcDbLine
 10
159.884157
 20
96.578904
 30
0.0
 11
161.766227
 21
96.578904
 31
0.0
  0
SPLINE
  5
148
100
AcDbEntity
  8
0
 62
5
100
AcDbSpline
 70
8
 71
3
 72
8
 73
4
 74
0
 40
0
 40
0
 40
0
 40
0
 40
1
 40
1
 40
1
 40
1
 10
161.766227
 20
96.578904
 30
0.0
 10
164.607854
 20
96.578904
 30
0.0
 10
166.895972
 20
94.208588
 30
0.0
 10
166.760506
 20
91.337327
 30
0.0
  0
SPLINE
  5
149
100
AcDbEntity
  8
0
 62
5
100
AcDbSpline
 70
8
 71
3
 72
8
 73
4
 74
0
 40
0
 40
0
 40
0
 40
0
 40
1
 40
1
 40
1
 40
1
 10
166.760506
 20
91.337327
 30
0.0
 10
166.634212
 20
88.648100
 30
0.0
 10
164.317519
 20
86.579057
 30
0.0
 10
161.625117
 20
86.579057
 30
0.0
  0
LINE
  5
14a
100
AcDbEntity
  8
0
 62
5
100
AcDbLine
 10
161.625117
 20
86.579057
 30
0.0
 11
160.146338
 21
86.579057
 31
0.0
  0
SPLINE
  5
14b
100
AcDbEntity
  8
0
 62
5
100
AcDbSpline
 70
8
 71
3
 72
8
 73
4
 74
0
 40
0
 40
0
 40
0
 40
0
 40
1
 40
1
 40
1
 40
1
 10
160.146338
 20
86.579057
 30
0.0
 10
158.489339
 20
86.579057
 30
0.0
 10
157.861427
 20
85.235680
 30
0.0
 10
157.861427
 20
83.579032
 30
0.0
  0
LINE
  5
14c
100
AcDbEntity
  8
0
 62
5
100
AcDbLine
 10
157.861427
 20
83.579032
 30
0.0
 11
157.854363
 21
61.554397
 31
0.0
  0
SPLINE
  5
14d
100
AcDbEntity
  8
0
 62
5
100
AcDbSpline
 70
8
 71
3
 72
8
 73
4
 74
0
 40
0
 40
0
 40
0
 40
0
 40
1
 40
1
 40
1
 40
1
 10
157.854363
 20
61.554397
 30
0.0
 10
157.853833
 20
59.897752
 30
0.0
 10
158.482275
 20
58.554726
 30
0.0
 10
160.138922
 20
58.554726
 30
0.0
  0
LINE
  5
14e
100
AcDbEntity
  8
0
 62
5
100
AcDbLine
 10
160.138922
 20
58.554726
 30
0.0
 11
161.756694
 21
58.554726
 31
0.0
  0
SPLINE
  5
14f
100
AcDbEntity
  8
0
 62
5
100
AcDbSpline
 70
8
 71
3
 72
8
 73
4
 74
0
 40
0
 40
0
 40
0
 40
0
 40
1
 40
1
 40
1
 40
1
 10
161.756694
 20
58.554726
 30
0.0
 10
164.598321
 20
58.554726
 30
0.0
 10
166.886439
 20
56.184410
 30
0.0
 10
166.751325
 20
53.313150
 30
0.0
  0
SPLINE
  5
150
100
AcDbEntity
  8
0
 62
5
100
AcDbSpline
 70
8
 71
3
 72
8
 73
4
 74
0
 40
0
 40
0
 40
0
 40
0
 40
1
 40
1
 40
1
 40
1
 10
166.751325
 20
53.313150
 30
0.0
 10
166.624679
 20
50.623923
 30
0.0
 10
164.307986
 20
48.554880
 30
0.0
 10
161.615584
 20
48.554880
 30
0.0
  0
LINE
  5
151
100
AcDbEntity
  8
0
 62
5
100
AcDbLine
 10
161.615584
 20
48.554880
 30
0.0
 11
159.872153
 21
48.554880
 31
0.0
  0
SPLINE
  5
152
100
AcDbEntity
  8
0
 62
5
100
AcDbSpline
 70
8
 71
3
 72
8
 73
4
 74
0
 40
0
 40
0
 40
0
 40
0
 40
1
 40
1
 40
1
 40
1
 10
159.872153
 20
48.554880
 30
0.0
 10
158.215157
 20
48.554880
 30
0.0
 10
157.883435
 20
47.211502
 30
0.0
 10
157.883435
 20
45.554855
 30
0.0
  0
LINE
  5
153
100
AcDbEntity
  8
0
 62
5
100
AcDbLine
 10
157.883435
 20
45.554855
 30
0.0
 11
157.883435
 21
45.138929
 31
0.0
  0
SPLINE
  5
154
100
AcDbEntity
  8
0
 62
5
100
AcDbSpline
 70
8
 71
3
 72
8
 73
4
 74
0
 40
0
 40
0
 40
0
 40
0
 40
1
 40
1
 40
1
 40
1
 10
157.883435
 20
45.138929
 30
0.0
 10
157.883171
 20
44.862704
 30
0.0
 10
157.658714
 20
44.639044
 30
0.0
 10
157.382489
 20
44.639044
 30
0.0
  0
LINE
  5
155
100
AcDbEntity
  8
0
 62
5
100
AcDbLine
 10
157.382489
 20
44.639044
 30
0.0
 11
139.370812
 21
44.639044
 31
0.0
  0
LINE
  5
156
100
AcDbEntity
  8
0
 62
5
100
AcDbLine
 10
139.370812
 20
44.639044
 30
0.0
 11
137.370561
 21
44.639044
 31
0.0
  0
LINE
  5
157
100
AcDbEntity
  8
0
 62
5
100
AcDbLine
 10
137.370561
 20
44.639044
 30
0.0
 11
121.084284
 21
44.639044
 31
0.0
  0
SPLINE
  5
158
100
AcDbEntity
  8
0
 62
5
100
AcDbSpline
 70
8
 71
3
 72
8
 73
4
 74
0
 40
0
 40
0
 40
0
 40
0
 40
1
 40
1
 40
1
 40
1
 10
121.084284
 20
44.639044
 30
0.0
 10
120.808059
 20
44.639044
 30
0.0
 10
120.848874
 20
44.415029
 30
0.0
 10
120.848874
 20
44.138804
 30
0.0
  0
LINE
  5
159
100
AcDbEntity
  8
0
 62
5
100
AcDbLine
 10
120.848874
 20
44.138804
 30
0.0
 11
120.848874
 21
40.388422
 31
0.0
  0
SPLINE
  5
15a
100
AcDbEntity
  8
0
 62
5
100
AcDbSpline
 70
8
 71
3
 72
8
 73
4
 74
0
 40
0
 40
0
 40
0
 40
0
 40
1
 40
1
 40
1
 40
1
 10
120.848874
 20
40.388422
 30
0.0
 10
120.848874
 20
40.112549
 30
0.0
 10
120.624859
 20
39.888534
 30
0.0
 10
120.348634
 20
39.888534
 30
0.0
  0
LINE
  5
15b
100
AcDbEntity
  8
0
 62
5
100
AcDbLine
 10
120.348634
 20
39.888534
 30
0.0
 11
102.571117
 21
39.888534
 31
0.0
  0
SPLINE
  5
15c
100
AcDbEntity
  8
0
 62
5
100
AcDbSpline
 70
8
 71
3
 72
8
 73
4
 74
0
 40
0
 40
0
 40
0
 40
0
 40
1
 40
1
 40
1
 40
1
 10
102.571117
 20
39.888534
 30
0.0
 10
102.295246
 20
39.888534
 30
0.0
 10
101.806756
 20
39.664522
 30
0.0
 10
101.806756
 20
39.388297
 30
0.0
  0
LINE
  5
15d
100
AcDbEntity
  8
0
 62
5
100
AcDbLine
 10
101.806756
 20
39.388297
 30
0.0
 11
101.806756
 21
38.138404
 31
0.0
  0
SPLINE
  5
15e
100
AcDbEntity
  8
0
 62
5
100
AcDbSpline
 70
8
 71
3
 72
8
 73
4
 74
0
 40
0
 40
0
 40
0
 40
0
 40
1
 40
1
 40
1
 40
1
 10
101.806756
 20
38.138404
 30
0.0
 10
101.806756
 20
37.862179
 30
0.0
 10
101.582744
 20
37.638164
 30
0.0
 10
101.306519
 20
37.638164
 30
0.0
  0
LINE
  5
15f
100
AcDbEntity
  8
0
 62
5
100
AcDbLine
 10
101.306519
 20
37.638164
 30
0.0
 11
80.390581
 21
37.638164
 31
0.0
  0
SPLINE
  5
160
100
AcDbEntity
  8
0
 62
5
100
AcDbSpline
 70
8
 71
3
 72
8
 73
4
 74
0
 40
0
 40
0
 40
0
 40
0
 40
1
 40
1
 40
1
 40
1
 10
80.390581
 20
37.638164
 30
0.0
 10
80.114708
 20
37.638164
 30
0.0
 10
79.890693
 20
37.862179
 30
0.0
 10
79.890693
 20
38.138404
 30
0.0
  0
LINE
  5
161
100
AcDbEntity
  8
0
 62
5
100
AcDbLine
 10
79.890693
 20
38.138404
 30
0.0
 11
79.890693
 21
39.388297
 31
0.0
  0
SPLINE
  5
162
100
AcDbEntity
  8
0
 62
5
100
AcDbSpline
 70
8
 71
3
 72
8
 73
4
 74
0
 40
0
 40
0
 40
0
 40
0
 40
1
 40
1
 40
1
 40
1
 10
79.890693
 20
39.388297
 30
0.0
 10
79.890693
 20
39.664522
 30
0.0
 10
79.667032
 20
39.888534
 30
0.0
 10
79.390807
 20
39.888534
 30
0.0
  0
LINE
  5
163
100
AcDbEntity
  8
0
 62
5
100
AcDbLine
 10
79.390807
 20
39.888534
 30
0.0
 11
61.389603
 21
39.888534
 31
0.0
  0
SPLINE
  5
164
100
AcDbEntity
  8
0
 62
5
100
AcDbSpline
 70
8
 71
3
 72
8
 73
4
 74
0
 40
0
 40
0
 40
0
 40
0
 40
1
 40
1
 40
1
 40
1
 10
61.389603
 20
39.888534
 30
0.0
 10
61.113378
 20
39.888534
 30
0.0
 10
60.889363
 20
40.112549
 30
0.0
 10
60.889363
 20
40.388422
 30
0.0
  0
LINE
  5
165
100
AcDbEntity
  8
0
 62
5
100
AcDbLine
 10
60.889363
 20
40.388422
 30
0.0
 11
60.889363
 21
41.888434
 31
0.0
  0
SPLINE
  5
166
100
AcDbEntity
  8
0
 62
5
100
AcDbSpline
 70
8
 71
3
 72
8
 73
4
 74
0
 40
0
 40
0
 40
0
 40
0
 40
1
 40
1
 40
1
 40
1
 10
60.889363
 20
41.888434
 30
0.0
 10
60.889363
 20
42.164659
 30
0.0
 10
60.665351
 20
42.389026
 30
0.0
 10
60.388771
 20
42.388674
 30
0.0
  0
LINE
  5
167
100
AcDbEntity
  8
0
 62
5
100
AcDbLine
 10
60.388771
 20
42.388674
 30
0.0
 11
60.388771
 21
42.388674
 31
0.0
  0
SPLINE
  5
168
100
AcDbEntity
  8
0
 62
5
100
AcDbSpline
 70
8
 71
3
 72
8
 73
4
 74
0
 40
0
 40
0
 40
0
 40
0
 40
1
 40
1
 40
1
 40
1
 10
60.388771
 20
42.388674
 30
0.0
 10
58.732830
 20
42.387615
 30
0.0
 10
57.869568
 20
41.044227
 30
0.0
 10
57.869568
 20
39.387582
 30
0.0
  0
LINE
  5
169
100
AcDbEntity
  8
0
 62
5
100
AcDbLine
 10
57.869568
 20
39.387582
 30
0.0
 11
57.869568
 21
37.645210
 31
0.0
  0
SPLINE
  5
16a
100
AcDbEntity
  8
0
 62
5
100
AcDbSpline
 70
8
 71
3
 72
8
 73
4
 74
0
 40
0
 40
0
 40
0
 40
0
 40
1
 40
1
 40
1
 40
1
 10
57.869568
 20
37.645210
 30
0.0
 10
57.869568
 20
34.952808
 30
0.0
 10
55.800877
 20
32.636469
 30
0.0
 10
53.111650
 20
32.509821
 30
0.0
  0
SPLINE
  5
16b
100
AcDbEntity
  8
0
 62
5
100
AcDbSpline
 70
8
 71
3
 72
8
 73
4
 74
0
 40
0
 40
0
 40
0
 40
0
 40
1
 40
1
 40
1
 40
1
 10
53.111650
 20
32.509821
 30
0.0
 10
50.240038
 20
32.374354
 30
0.0
 10
47.869706
 20
34.662473
 30
0.0
 10
47.869706
 20
37.503748
 30
0.0
  0
LINE
  5
16c
100
AcDbEntity
  8
0
 62
5
100
AcDbLine
 10
47.869706
 20
37.503748
 30
0.0
 11
47.869706
 21
39.388286
 31
0.0
  0
SPLINE
  5
16d
100
AcDbEntity
  8
0
 62
5
100
AcDbSpline
 70
8
 71
3
 72
8
 73
4
 74
0
 40
0
 40
0
 40
0
 40
0
 40
1
 40
1
 40
1
 40
1
 10
47.869706
 20
39.388286
 30
0.0
 10
47.869706
 20
41.044579
 30
0.0
 10
46.528109
 20
42.386901
 30
0.0
 10
44.871816
 20
42.388311
 30
0.0
  0
LINE
  5
16e
100
AcDbEntity
  8
0
 62
5
100
AcDbLine
 10
44.871816
 20
42.388311
 30
0.0
 11
43.644413
 21
42.388576
 31
0.0
  0
SPLINE
  5
16f
100
AcDbEntity
  8
0
 62
5
100
AcDbSpline
 70
8
 71
3
 72
8
 73
4
 74
0
 40
0
 40
0
 40
0
 40
0
 40
1
 40
1
 40
1
 40
1
 10
43.644413
 20
42.388576
 30
0.0
 10
43.368532
 20
42.388840
 30
0.0
 10
43.144535
 20
42.612591
 30
0.0
 10
43.144535
 20
42.888816
 30
0.0
  0
LINE
  5
170
100
AcDbEntity
  8
0
 62
5
100
AcDbLine
 10
43.144535
 20
42.888816
 30
0.0
 11
43.148504
 21
44.120717
 31
0.0
  0
SPLINE
  5
171
100
AcDbEntity
  8
0
 62
5
100
AcDbSpline
 70
8
 71
3
 72
8
 73
4
 74
0
 40
0
 40
0
 40
0
 40
0
 40
1
 40
1
 40
1
 40
1
 10
43.148504
 20
44.120717
 30
0.0
 10
43.119929
 20
44.389179
 30
0.0
 10
42.913924
 20
44.604021
 30
0.0
 10
42.647568
 20
44.644592
 30
0.0
  0
LINE
  5
172
100
AcDbEntity
  8
0
 62
5
100
AcDbLine
 10
42.647568
 20
44.644592
 30
0.0
 11
23.615283
 21
44.644592
 31
0.0
  0
SPLINE
  5
173
100
AcDbEntity
  8
0
 62
5
100
AcDbSpline
 70
8
 71
3
 72
8
 73
4
 74
0
 40
0
 40
0
 40
0
 40
0
 40
1
 40
1
 40
1
 40
1
 10
23.615283
 20
44.644592
 30
0.0
 10
23.339402
 20
44.644592
 30
0.0
 10
23.115379
 20
44.868252
 30
0.0
 10
23.115379
 20
45.144478
 30
0.0
  0
LINE
  5
174
100
AcDbEntity
  8
0
 62
5
100
AcDbLine
 10
23.115379
 20
45.144478
 30
0.0
 11
23.115379
 21
104.105342
 31
0.0
  0
SPLINE
  5
175
100
AcDbEntity
  8
0
 62
5
100
AcDbSpline
 70
8
 71
3
 72
8
 73
4
 74
0
 40
0
 40
0
 40
0
 40
0
 40
1
 40
1
 40
1
 40
1
 10
23.115379
 20
104.105342
 30
0.0
 10
23.158427
 20
104.918494
 30
0.0
 10
23.404304
 20
105.708011
 30
0.0
 10
23.830125
 20
106.402633
 30
0.0
  0
LINE
  5
176
100
AcDbEntity
  8
0
 62
5
100
AcDbLine
 10
147.214761
 20
199.349543
 30
0.0
 11
147.214761
 21
151.992976
 31
0.0
  0
SPLINE
  5
177
100
AcDbEntity
  8
0
 62
5
100
AcDbSpline
 70
8
 71
3
 72
8
 73
4
 74
0
 40
0
 40
0
 40
0
 40
0
 40
1
 40
1
 40
1
 40
1
 10
147.214761
 20
151.992976
 30
0.0
 10
147.274734
 20
151.470159
 30
0.0
 10
147.508978
 20
151.211925
 30
0.0
 10
147.853995
 20
150.911006
 30
0.0
  0
LINE
  5
178
100
AcDbEntity
  8
0
 62
5
100
AcDbLine
 10
147.853995
 20
150.911006
 30
0.0
 11
166.693399
 21
140.054616
 31
0.0
  0
SPLINE
  5
179
100
AcDbEntity
  8
0
 62
5
100
AcDbSpline
 70
8
 71
3
 72
8
 73
4
 74
0
 40
0
 40
0
 40
0
 40
0
 40
1
 40
1
 40
1
 40
1
 10
166.693399
 20
140.054616
 30
0.0
 10
167.098035
 20
139.884576
 30
0.0
 10
167.564408
 20
140.075068
 30
0.0
 10
167.734448
 20
140.479360
 30
0.0
  0
SPLINE
  5
17a
100
AcDbEntity
  8
0
 62
5
100
AcDbSpline
 70
8
 71
3
 72
8
 73
4
 74
0
 40
0
 40
0
 40
0
 40
0
 40
1
 40
1
 40
1
 40
1
 10
167.734448
 20
140.479360
 30
0.0
 10
167.759134
 20
140.538981
 30
0.0
 10
167.777133
 20
140.601775
 30
0.0
 10
167.786658
 20
140.665275
 30
0.0
  0
LINE
  5
17b
100
AcDbEntity
  8
0
 62
5
100
AcDbLine
 10
167.786658
 20
140.665275
 30
0.0
 11
167.785865
 21
199.339312
 31
0.0
  0
SPLINE
  5
17c
100
AcDbEntity
  8
0
 62
5
100
AcDbSpline
 70
8
 71
3
 72
8
 73
4
 74
0
 40
0
 40
0
 40
0
 40
0
 40
1
 40
1
 40
1
 40
1
 10
167.785865
 20
199.339312
 30
0.0
 10
167.785865
 20
199.615537
 30
0.0
 10
167.561852
 20
199.839552
 30
0.0
 10
167.285979
 20
199.839552
 30
0.0
  0
LINE
  5
17d
100
AcDbEntity
  8
0
 62
5
100
AcDbLine
 10
167.285979
 20
199.839552
 30
0.0
 11
147.714914
 21
199.850135
 31
0.0
  0
SPLINE
  5
17e
100
AcDbEntity
  8
0
 62
5
100
AcDbSpline
 70
8
 71
3
 72
8
 73
4
 74
0
 40
0
 40
0
 40
0
 40
0
 40
1
 40
1
 40
1
 40
1
 10
147.714914
 20
199.850135
 30
0.0
 10
147.438689
 20
199.849871
 30
0.0
 10
147.215026
 20
199.625768
 30
0.0
 10
147.214674
 20
199.349543
 30
0.0
  0
SPLINE
  5
17f
100
AcDbEntity
  8
0
 62
5
100
AcDbSpline
 70
8
 71
3
 72
8
 73
4
 74
0
 40
0
 40
0
 40
0
 40
0
 40
1
 40
1
 40
1
 40
1
 10
149.692144
 20
152.375952
 30
0.0
 10
149.692144
 20
152.983788
 30
0.0
 10
150.184624
 20
153.476265
 30
0.0
 10
150.792107
 20
153.476265
 30
0.0
  0
SPLINE
  5
180
100
AcDbEntity
  8
0
 62
5
100
AcDbSpline
 70
8
 71
3
 72
8
 73
4
 74
0
 40
0
 40
0
 40
0
 40
0
 40
1
 40
1
 40
1
 40
1
 10
150.792107
 20
153.476265
 30
0.0
 10
151.399591
 20
153.476265
 30
0.0
 10
151.892068
 20
152.983788
 30
0.0
 10
151.892068
 20
152.375952
 30
0.0
  0
SPLINE
  5
181
100
AcDbEntity
  8
0
 62
5
100
AcDbSpline
 70
8
 71
3
 72
8
 73
4
 74
0
 40
0
 40
0
 40
0
 40
0
 40
1
 40
1
 40
1
 40
1
 10
151.892068
 20
152.375952
 30
0.0
 10
151.892068
 20
151.768469
 30
0.0
 10
151.399591
 20
151.275989
 30
0.0
 10
150.792107
 20
151.275989
 30
0.0
  0
SPLINE
  5
182
100
AcDbEntity
  8
0
 62
5
100
AcDbSpline
 70
8
 71
3
 72
8
 73
4
 74
0
 40
0
 40
0
 40
0
 40
0
 40
1
 40
1
 40
1
 40
1
 10
150.792107
 20
151.275989
 30
0.0
 10
150.184624
 20
151.275989
 30
0.0
 10
149.692144
 20
151.768469
 30
0.0
 10
149.692144
 20
152.375952
 30
0.0
  0
LINE
  5
183
100
AcDbEntity
  8
0
 62
5
100
AcDbLine
 10
149.692144
 20
152.375952
 30
0.0
 11
149.692144
 21
152.375952
 31
0.0
  0
SPLINE
  5
184
100
AcDbEntity
  8
0
 62
5
100
AcDbSpline
 70
8
 71
3
 72
8
 73
4
 74
0
 40
0
 40
0
 40
0
 40
0
 40
1
 40
1
 40
1
 40
1
 10
164.192908
 20
143.875519
 30
0.0
 10
164.192908
 20
144.483003
 30
0.0
 10
164.685388
 20
144.975480
 30
0.0
 10
165.293223
 20
144.975480
 30
0.0
  0
SPLINE
  5
185
100
AcDbEntity
  8
0
 62
5
100
AcDbSpline
 70
8
 71
3
 72
8
 73
4
 74
0
 40
0
 40
0
 40
0
 40
0
 40
1
 40
1
 40
1
 40
1
 10
165.293223
 20
144.975480
 30
0.0
 10
165.900707
 20
144.975480
 30
0.0
 10
166.393184
 20
144.483003
 30
0.0
 10
166.393184
 20
143.875519
 30
0.0
  0
SPLINE
  5
186
100
AcDbEntity
  8
0
 62
5
100
AcDbSpline
 70
8
 71
3
 72
8
 73
4
 74
0
 40
0
 40
0
 40
0
 40
0
 40
1
 40
1
 40
1
 40
1
 10
166.393184
 20
143.875519
 30
0.0
 10
166.393184
 20
143.267684
 30
0.0
 10
165.900707
 20
142.775558
 30
0.0
 10
165.293223
 20
142.775558
 30
0.0
  0
SPLINE
  5
187
100
AcDbEntity
  8
0
 62
5
100
AcDbSpline
 70
8
 71
3
 72
8
 73
4
 74
0
 40
0
 40
0
 40
0
 40
0
 40
1
 40
1
 40
1
 40
1
 10
165.293223
 20
142.775558
 30
0.0
 10
164.685388
 20
142.775558
 30
0.0
 10
164.192908
 20
143.267684
 30
0.0
 10
164.192908
 20
143.875519
 30
0.0
  0
LINE
  5
188
100
AcDbEntity
  8
0
 62
5
100
AcDbLine
 10
164.192908
 20
143.875519
 30
0.0
 11
164.192908
 21
143.875519
 31
0.0
  0
SPLINE
  5
189
100
AcDbEntity
  8
0
 62
5
100
AcDbSpline
 70
8
 71
3
 72
8
 73
4
 74
0
 40
0
 40
0
 40
0
 40
0
 40
1
 40
1
 40
1
 40
1
 10
138.378402
 20
125.212481
 30
0.0
 10
138.378402
 20
125.819965
 30
0.0
 10
138.870879
 20
126.312445
 30
0.0
 10
139.478718
 20
126.312445
 30
0.0
  0
SPLINE
  5
18a
100
AcDbEntity
  8
0
 62
5
100
AcDbSpline
 70
8
 71
3
 72
8
 73
4
 74
0
 40
0
 40
0
 40
0
 40
0
 40
1
 40
1
 40
1
 40
1
 10
139.478718
 20
126.312445
 30
0.0
 10
140.086201
 20
126.312445
 30
0.0
 10
140.578679
 20
125.819965
 30
0.0
 10
140.578679
 20
125.212481
 30
0.0
  0
SPLINE
  5
18b
100
AcDbEntity
  8
0
 62
5
100
AcDbSpline
 70
8
 71
3
 72
8
 73
4
 74
0
 40
0
 40
0
 40
0
 40
0
 40
1
 40
1
 40
1
 40
1
 10
140.578679
 20
125.212481
 30
0.0
 10
140.578679
 20
124.604645
 30
0.0
 10
140.086201
 20
124.112520
 30
0.0
 10
139.478718
 20
124.112520
 30
0.0
  0
SPLINE
  5
18c
100
AcDbEntity
  8
0
 62
5
100
AcDbSpline
 70
8
 71
3
 72
8
 73
4
 74
0
 40
0
 40
0
 40
0
 40
0
 40
1
 40
1
 40
1
 40
1
 10
139.478718
 20
124.112520
 30
0.0
 10
138.870879
 20
124.112520
 30
0.0
 10
138.378402
 20
124.604645
 30
0.0
 10
138.378402
 20
125.212481
 30
0.0
  0
LINE
  5
18d
100
AcDbEntity
  8
0
 62
5
100
AcDbLine
 10
138.378402
 20
125.212481
 30
0.0
 11
138.378402
 21
125.212481
 31
0.0
  0
SPLINE
  5
18e
100
AcDbEntity
  8
0
 62
5
100
AcDbSpline
 70
8
 71
3
 72
8
 73
4
 74
0
 40
0
 40
0
 40
0
 40
0
 40
1
 40
1
 40
1
 40
1
 10
132.613199
 20
194.850331
 30
0.0
 10
132.613199
 20
196.286138
 30
0.0
 10
133.777012
 20
197.450305
 30
0.0
 10
135.213171
 20
197.450305
 30
0.0
  0
SPLINE
  5
18f
100
AcDbEntity
  8
0
 62
5
100
AcDbSpline
 70
8
 71
3
 72
8
 73
4
 74
0
 40
0
 40
0
 40
0
 40
0
 40
1
 40
1
 40
1
 40
1
 10
135.213171
 20
197.450305
 30
0.0
 10
136.648978
 20
197.450305
 30
0.0
 10
137.813146
 20
196.286138
 30
0.0
 10
137.813146
 20
194.850331
 30
0.0
  0
SPLINE
  5
190
100
AcDbEntity
  8
0
 62
5
100
AcDbSpline
 70
8
 71
3
 72
8
 73
4
 74
0
 40
0
 40
0
 40
0
 40
0
 40
1
 40
1
 40
1
 40
1
 10
137.813146
 20
194.850331
 30
0.0
 10
137.813146
 20
193.414172
 30
0.0
 10
136.648978
 20
192.250358
 30
0.0
 10
135.213171
 20
192.250358
 30
0.0
  0
SPLINE
  5
191
100
AcDbEntity
  8
0
 62
5
100
AcDbSpline
 70
8
 71
3
 72
8
 73
4
 74
0
 40
0
 40
0
 40
0
 40
0
 40
1
 40
1
 40
1
 40
1
 10
135.213171
 20
192.250358
 30
0.0
 10
133.777012
 20
192.250358
 30
0.0
 10
132.613199
 20
193.414172
 30
0.0
 10
132.613199
 20
194.850331
 30
0.0
  0
LINE
  5
192
100
AcDbEntity
  8
0
 62
5
100
AcDbLine
 10
132.613199
 20
194.850331
 30
0.0
 11
132.613199
 21
194.850331
 31
0.0
  0
SPLINE
  5
193
100
AcDbEntity
  8
0
 62
5
100
AcDbSpline
 70
8
 71
3
 72
8
 73
4
 74
0
 40
0
 40
0
 40
0
 40
0
 40
1
 40
1
 40
1
 40
1
 10
26.326089
 20
176.199276
 30
0.0
 10
24.889930
 20
176.199276
 30
0.0
 10
23.726115
 20
177.363443
 30
0.0
 10
23.726115
 20
178.799250
 30
0.0
  0
SPLINE
  5
194
100
AcDbEntity
  8
0
 62
5
100
AcDbSpline
 70
8
 71
3
 72
8
 73
4
 74
0
 40
0
 40
0
 40
0
 40
0
 40
1
 40
1
 40
1
 40
1
 10
23.726115
 20
178.799250
 30
0.0
 10
23.726115
 20
180.235409
 30
0.0
 10
24.889930
 20
181.399224
 30
0.0
 10
26.326089
 20
181.399224
 30
0.0
  0
SPLINE
  5
195
100
AcDbEntity
  8
0
 62
5
100
AcDbSpline
 70
8
 71
3
 72
8
 73
4
 74
0
 40
0
 40
0
 40
0
 40
0
 40
1
 40
1
 40
1
 40
1
 10
26.326089
 20
181.399224
 30
0.0
 10
27.761896
 20
181.399224
 30
0.0
 10
28.926063
 20
180.235409
 30
0.0
 10
28.926063
 20
178.799250
 30
0.0
  0
SPLINE
  5
196
100
AcDbEntity
  8
0
 62
5
100
AcDbSpline
 70
8
 71
3
 72
8
 73
4
 74
0
 40
0
 40
0
 40
0
 40
0
 40
1
 40
1
 40
1
 40
1
 10
28.926063
 20
178.799250
 30
0.0
 10
28.926063
 20
177.363443
 30
0.0
 10
27.761896
 20
176.199276
 30
0.0
 10
26.326089
 20
176.199276
 30
0.0
  0
LINE
  5
197
100
AcDbEntity
  8
0
 62
5
100
AcDbLine
 10
26.326089
 20
176.199276
 30
0.0
 11
26.326089
 21
176.199276
 31
0.0
  0
SPLINE
  5
198
100
AcDbEntity
  8
0
 62
5
100
AcDbSpline
 70
8
 71
3
 72
8
 73
4
 74
0
 40
0
 40
0
 40
0
 40
0
 40
1
 40
1
 40
1
 40
1
 10
163.066160
 20
114.053478
 30
0.0
 10
164.309703
 20
113.335576
 30
0.0
 10
164.735505
 20
111.745252
 30
0.0
 10
164.017603
 20
110.501709
 30
0.0
  0
SPLINE
  5
199
100
AcDbEntity
  8
0
 62
5
100
AcDbSpline
 70
8
 71
3
 72
8
 73
4
 74
0
 40
0
 40
0
 40
0
 40
0
 40
1
 40
1
 40
1
 40
1
 10
164.017603
 20
110.501709
 30
0.0
 10
163.299698
 20
109.258167
 30
0.0
 10
161.709728
 20
108.832010
 30
0.0
 10
160.466186
 20
109.549915
 30
0.0
  0
SPLINE
  5
19a
100
AcDbEntity
  8
0
 62
5
100
AcDbSpline
 70
8
 71
3
 72
8
 73
4
 74
0
 40
0
 40
0
 40
0
 40
0
 40
1
 40
1
 40
1
 40
1
 10
160.466186
 20
109.549915
 30
0.0
 10
159.222291
 20
110.268169
 30
0.0
 10
158.796486
 20
111.858141
 30
0.0
 10
159.514391
 20
113.101684
 30
0.0
  0
SPLINE
  5
19b
100
AcDbEntity
  8
0
 62
5
100
AcDbSpline
 70
8
 71
3
 72
8
 73
4
 74
0
 40
0
 40
0
 40
0
 40
0
 40
1
 40
1
 40
1
 40
1
 10
159.514391
 20
113.101684
 30
0.0
 10
160.232294
 20
114.345226
 30
0.0
 10
161.822618
 20
114.771380
 30
0.0
 10
163.066160
 20
114.053478
 30
0.0
  0
LINE
  5
19c
100
AcDbEntity
  8
0
 62
5
100
AcDbLine
 10
163.066160
 20
114.053478
 30
0.0
 11
163.066160
 21
114.053478
 31
0.0
  0
SPLINE
  5
19d
100
AcDbEntity
  8
0
 62
5
100
AcDbSpline
 70
8
 71
3
 72
8
 73
4
 74
0
 40
0
 40
0
 40
0
 40
0
 40
1
 40
1
 40
1
 40
1
 10
26.316423
 20
138.175028
 30
0.0
 10
24.880616
 20
138.175028
 30
0.0
 10
23.716449
 20
139.339195
 30
0.0
 10
23.716449
 20
140.775000
 30
0.0
  0
SPLINE
  5
19e
100
AcDbEntity
  8
0
 62
5
100
AcDbSpline
 70
8
 71
3
 72
8
 73
4
 74
0
 40
0
 40
0
 40
0
 40
0
 40
1
 40
1
 40
1
 40
1
 10
23.716449
 20
140.775000
 30
0.0
 10
23.716449
 20
142.210807
 30
0.0
 10
24.880616
 20
143.374975
 30
0.0
 10
26.316423
 20
143.374975
 30
0.0
  0
SPLINE
  5
19f
100
AcDbEntity
  8
0
 62
5
100
AcDbSpline
 70
8
 71
3
 72
8
 73
4
 74
0
 40
0
 40
0
 40
0
 40
0
 40
1
 40
1
 40
1
 40
1
 10
26.316423
 20
143.374975
 30
0.0
 10
27.752228
 20
143.374975
 30
0.0
 10
28.916398
 20
142.210807
 30
0.0
 10
28.916398
 20
140.775000
 30
0.0
  0
SPLINE
  5
1a0
100
AcDbEntity
  8
0
 62
5
100
AcDbSpline
 70
8
 71
3
 72
8
 73
4
 74
0
 40
0
 40
0
 40
0
 40
0
 40
1
 40
1
 40
1
 40
1
 10
28.916398
 20
140.775000
 30
0.0
 10
28.916398
 20
139.339195
 30
0.0
 10
27.752228
 20
138.175028
 30
0.0
 10
26.316423
 20
138.175028
 30
0.0
  0
LINE
  5
1a1
100
AcDbEntity
  8
0
 62
5
100
AcDbLine
 10
26.316423
 20
138.175028
 30
0.0
 11
26.316423
 21
138.175028
 31
0.0
  0
SPLINE
  5
1a2
100
AcDbEntity
  8
0
 62
5
100
AcDbSpline
 70
8
 71
3
 72
8
 73
4
 74
0
 40
0
 40
0
 40
0
 40
0
 40
1
 40
1
 40
1
 40
1
 10
30.230127
 20
148.775230
 30
0.0
 10
30.230127
 20
147.118231
 30
0.0
 10
29.593166
 20
145.775205
 30
0.0
 10
27.936521
 20
145.775205
 30
0.0
  0
LINE
  5
1a3
100
AcDbEntity
  8
0
 62
5
100
AcDbLine
 10
27.936521
 20
145.775205
 30
0.0
 11
26.457781
 21
145.775205
 31
0.0
  0
SPLINE
  5
1a4
100
AcDbEntity
  8
0
 62
5
100
AcDbSpline
 70
8
 71
3
 72
8
 73
4
 74
0
 40
0
 40
0
 40
0
 40
0
 40
1
 40
1
 40
1
 40
1
 10
26.457781
 20
145.775205
 30
0.0
 10
23.765379
 20
145.775205
 30
0.0
 10
21.448686
 20
143.706162
 30
0.0
 10
21.322392
 20
141.016935
 30
0.0
  0
SPLINE
  5
1a5
100
AcDbEntity
  8
0
 62
5
100
AcDbSpline
 70
8
 71
3
 72
8
 73
4
 74
0
 40
0
 40
0
 40
0
 40
0
 40
1
 40
1
 40
1
 40
1
 10
21.322392
 20
141.016935
 30
0.0
 10
21.186925
 20
138.145323
 30
0.0
 10
23.475043
 20
135.775007
 30
0.0
 10
26.316317
 20
135.775007
 30
0.0
  0
LINE
  5
1a6
100
AcDbEntity
  8
0
 62
5
100
AcDbLine
 10
26.316317
 20
135.775007
 30
0.0
 11
28.198739
 21
135.775007
 31
0.0
  0
SPLINE
  5
1a7
100
AcDbEntity
  8
0
 62
5
100
AcDbSpline
 70
8
 71
3
 72
8
 73
4
 74
0
 40
0
 40
0
 40
0
 40
0
 40
1
 40
1
 40
1
 40
1
 10
28.198739
 20
135.775007
 30
0.0
 10
29.855738
 20
135.775007
 30
0.0
 10
30.223748
 20
134.432335
 30
0.0
 10
30.223748
 20
132.775336
 30
0.0
  0
LINE
  5
1a8
100
AcDbEntity
  8
0
 62
5
100
AcDbLine
 10
30.223748
 20
132.775336
 30
0.0
 11
30.235733
 21
131.961477
 31
0.0
  0
SPLINE
  5
1a9
100
AcDbEntity
  8
0
 62
5
100
AcDbSpline
 70
8
 71
3
 72
8
 73
4
 74
0
 40
0
 40
0
 40
0
 40
0
 40
1
 40
1
 40
1
 40
1
 10
30.235733
 20
131.961477
 30
0.0
 10
30.235733
 20
131.685252
 30
0.0
 10
30.459746
 20
131.461237
 30
0.0
 10
30.735619
 20
131.461237
 30
0.0
  0
LINE
  5
1aa
100
AcDbEntity
  8
0
 62
5
100
AcDbLine
 10
30.735619
 20
131.461237
 30
0.0
 11
48.712068
 21
131.461237
 31
0.0
  0
LINE
  5
1ab
100
AcDbEntity
  8
0
 62
5
100
AcDbLine
 10
48.712068
 20
131.461237
 30
0.0
 11
50.712320
 21
131.461237
 31
0.0
  0
LINE
  5
1ac
100
AcDbEntity
  8
0
 62
5
100
AcDbLine
 10
50.712320
 20
131.461237
 30
0.0
 11
86.714725
 21
131.461237
 31
0.0
  0
SPLINE
  5
1ad
100
AcDbEntity
  8
0
 62
5
100
AcDbSpline
 70
8
 71
3
 72
8
 73
4
 74
0
 40
0
 40
0
 40
0
 40
0
 40
1
 40
1
 40
1
 40
1
 10
86.714725
 20
131.461237
 30
0.0
 10
86.847368
 20
131.461237
 30
0.0
 10
86.974723
 20
131.408320
 30
0.0
 10
87.068208
 20
131.314835
 30
0.0
  0
SPLINE
  5
1ae
100
AcDbEntity
  8
0
 62
5
100
AcDbSpline
 70
8
 71
3
 72
8
 73
4
 74
0
 40
0
 40
0
 40
0
 40
0
 40
1
 40
1
 40
1
 40
1
 10
87.068208
 20
131.314835
 30
0.0
 10
87.064689
 20
131.319783
 30
0.0
 10
97.615565
 20
116.860109
 30
0.0
 10
97.615565
 20
116.860109
 30
0.0
  0
SPLINE
  5
1af
100
AcDbEntity
  8
0
 62
5
100
AcDbSpline
 70
8
 71
3
 72
8
 73
4
 74
0
 40
0
 40
0
 40
0
 40
0
 40
1
 40
1
 40
1
 40
1
 10
97.615565
 20
116.860109
 30
0.0
 10
97.714342
 20
116.775796
 30
0.0
 10
97.836405
 20
116.723583
 30
0.0
 10
97.965522
 20
116.710180
 30
0.0
  0
LINE
  5
1b0
100
AcDbEntity
  8
0
 62
5
100
AcDbLine
 10
97.965522
 20
116.710180
 30
0.0
 11
134.759561
 21
111.241061
 31
0.0
  0
SPLINE
  5
1b1
100
AcDbEntity
  8
0
 62
5
100
AcDbSpline
 70
8
 71
3
 72
8
 73
4
 74
0
 40
0
 40
0
 40
0
 40
0
 40
1
 40
1
 40
1
 40
1
 10
134.759561
 20
111.241061
 30
0.0
 10
134.854459
 20
111.224842
 30
0.0
 10
134.948299
 20
111.200493
 30
0.0
 10
135.039668
 20
111.168388
 30
0.0
  0
LINE
  5
1b2
100
AcDbEntity
  8
0
 62
5
100
AcDbLine
 10
135.039668
 20
111.168388
 30
0.0
 11
149.789315
 21
102.679139
 31
0.0
  0
SPLINE
  5
1b3
100
AcDbEntity
  8
0
 62
5
100
AcDbSpline
 70
8
 71
3
 72
8
 73
4
 74
0
 40
0
 40
0
 40
0
 40
0
 40
1
 40
1
 40
1
 40
1
 10
149.789315
 20
102.679139
 30
0.0
 10
150.182663
 20
102.401149
 30
0.0
 10
150.726647
 20
102.494637
 30
0.0
 10
151.004989
 20
102.887982
 30
0.0
  0
LINE
  5
1b4
100
AcDbEntity
  8
0
 62
5
100
AcDbLine
 10
151.004989
 20
102.887982
 30
0.0
 11
153.543932
 21
107.312173
 31
0.0
  0
SPLINE
  5
1b5
100
AcDbEntity
  8
0
 62
5
100
AcDbSpline
 70
8
 71
3
 72
8
 73
4
 74
0
 40
0
 40
0
 40
0
 40
0
 40
1
 40
1
 40
1
 40
1
 10
153.543932
 20
107.312173
 30
0.0
 10
154.372960
 20
108.756799
 30
0.0
 10
156.219752
 20
109.249277
 30
0.0
 10
157.658028
 20
108.410018
 30
0.0
  0
LINE
  5
1b6
100
AcDbEntity
  8
0
 62
5
100
AcDbLine
 10
157.658028
 20
108.410018
 30
0.0
 11
159.265992
 21
107.471627
 31
0.0
  0
SPLINE
  5
1b7
100
AcDbEntity
  8
0
 62
5
100
AcDbSpline
 70
8
 71
3
 72
8
 73
4
 74
0
 40
0
 40
0
 40
0
 40
0
 40
1
 40
1
 40
1
 40
1
 10
159.265992
 20
107.471627
 30
0.0
 10
161.657473
 20
106.090856
 30
0.0
 10
164.715354
 20
106.910006
 30
0.0
 10
166.096126
 20
109.301487
 30
0.0
  0
SPLINE
  5
1b8
100
AcDbEntity
  8
0
 62
5
100
AcDbSpline
 70
8
 71
3
 72
8
 73
4
 74
0
 40
0
 40
0
 40
0
 40
0
 40
1
 40
1
 40
1
 40
1
 10
166.096126
 20
109.301487
 30
0.0
 10
167.476900
 20
111.693322
 30
0.0
 10
166.657397
 20
114.751203
 30
0.0
 10
164.265914
 20
116.131975
 30
0.0
  0
LINE
  5
1b9
100
AcDbEntity
  8
0
 62
5
100
AcDbLine
 10
164.265914
 20
116.131975
 30
0.0
 11
162.613855
 21
117.100705
 31
0.0
  0
SPLINE
  5
1ba
100
AcDbEntity
  8
0
 62
5
100
AcDbSpline
 70
8
 71
3
 72
8
 73
4
 74
0
 40
0
 40
0
 40
0
 40
0
 40
1
 40
1
 40
1
 40
1
 10
162.613855
 20
117.100705
 30
0.0
 10
161.195335
 20
117.932201
 30
0.0
 10
160.710970
 20
119.751125
 30
0.0
 10
161.527298
 20
121.178111
 30
0.0
  0
LINE
  5
1bb
100
AcDbEntity
  8
0
 62
5
100
AcDbLine
 10
161.527298
 20
121.178111
 30
0.0
 11
164.256741
 21
125.949081
 31
0.0
  0
SPLINE
  5
1bc
100
AcDbEntity
  8
0
 62
5
100
AcDbSpline
 70
8
 71
3
 72
8
 73
4
 74
0
 40
0
 40
0
 40
0
 40
0
 40
1
 40
1
 40
1
 40
1
 10
164.256741
 20
125.949081
 30
0.0
 10
164.563306
 20
126.532930
 30
0.0
 10
164.401381
 20
127.253303
 30
0.0
 10
163.873979
 20
127.649824
 30
0.0
  0
LINE
  5
1bd
100
AcDbEntity
  8
0
 62
5
100
AcDbLine
 10
163.873979
 20
127.649824
 30
0.0
 11
145.510833
 21
138.687190
 31
0.0
  0
SPLINE
  5
1be
100
AcDbEntity
  8
0
 62
5
100
AcDbSpline
 70
8
 71
3
 72
8
 73
4
 74
0
 40
0
 40
0
 40
0
 40
0
 40
1
 40
1
 40
1
 40
1
 10
145.510833
 20
138.687190
 30
0.0
 10
145.217320
 20
138.946834
 30
0.0
 10
145.014474
 20
139.293967
 30
0.0
 10
144.932276
 20
139.677084
 30
0.0
  0
LINE
  5
1bf
100
AcDbEntity
  8
0
 62
5
100
AcDbLine
 10
144.932276
 20
139.677084
 30
0.0
 11
144.932276
 21
171.970031
 31
0.0
  0
LINE
  5
1c0
100
AcDbEntity
  8
0
 62
5
100
AcDbLine
 10
144.932276
 20
171.970031
 30
0.0
 11
144.933070
 21
188.230981
 31
0.0
  0
LINE
  5
1c1
100
AcDbEntity
  8
0
 62
5
100
AcDbLine
 10
144.933070
 20
188.230981
 30
0.0
 11
144.933070
 21
189.465352
 31
0.0
  0
SPLINE
  5
1c2
100
AcDbEntity
  8
0
 62
5
100
AcDbSpline
 70
8
 71
3
 72
8
 73
4
 74
0
 40
0
 40
0
 40
0
 40
0
 40
1
 40
1
 40
1
 40
1
 10
144.933070
 20
189.465352
 30
0.0
 10
144.933070
 20
189.741224
 30
0.0
 10
144.709409
 20
189.965238
 30
0.0
 10
144.433184
 20
189.965591
 30
0.0
  0
LINE
  5
1c3
100
AcDbEntity
  8
0
 62
5
100
AcDbLine
 10
144.433184
 20
189.965591
 30
0.0
 11
143.210800
 21
189.965935
 31
0.0
  0
SPLINE
  5
1c4
100
AcDbEntity
  8
0
 62
5
100
AcDbSpline
 70
8
 71
3
 72
8
 73
4
 74
0
 40
0
 40
0
 40
0
 40
0
 40
1
 40
1
 40
1
 40
1
 10
143.210800
 20
189.965935
 30
0.0
 10
141.554859
 20
189.967337
 30
0.0
 10
140.213244
 20
191.309666
 30
0.0
 10
140.213244
 20
192.965959
 30
0.0
  0
LINE
  5
1c5
100
AcDbEntity
  8
0
 62
5
100
AcDbLine
 10
140.213244
 20
192.965959
 30
0.0
 11
140.213244
 21
194.850146
 31
0.0
  0
SPLINE
  5
1c6
100
AcDbEntity
  8
0
 62
5
100
AcDbSpline
 70
8
 71
3
 72
8
 73
4
 74
0
 40
0
 40
0
 40
0
 40
0
 40
1
 40
1
 40
1
 40
1
 10
140.213244
 20
194.850146
 30
0.0
 10
140.213244
 20
197.691773
 30
0.0
 10
137.842930
 20
199.979891
 30
0.0
 10
134.971315
 20
199.844425
 30
0.0
  0
SPLINE
  5
1c7
100
AcDbEntity
  8
0
 62
5
100
AcDbSpline
 70
8
 71
3
 72
8
 73
4
 74
0
 40
0
 40
0
 40
0
 40
0
 40
1
 40
1
 40
1
 40
1
 10
134.971315
 20
199.844425
 30
0.0
 10
132.282009
 20
199.717786
 30
0.0
 10
130.213320
 20
197.401093
 30
0.0
 10
130.213320
 20
194.709044
 30
0.0
  0
LINE
  5
1c8
100
AcDbEntity
  8
0
 62
5
100
AcDbLine
 10
130.213320
 20
194.709044
 30
0.0
 11
130.213320
 21
192.966321
 31
0.0
  0
SPLINE
  5
1c9
100
AcDbEntity
  8
0
 62
5
100
AcDbSpline
 70
8
 71
3
 72
8
 73
4
 74
0
 40
0
 40
0
 40
0
 40
0
 40
1
 40
1
 40
1
 40
1
 10
130.213320
 20
192.966321
 30
0.0
 10
130.213320
 20
191.310028
 30
0.0
 10
129.431773
 20
189.967355
 30
0.0
 10
127.775834
 20
189.966296
 30
0.0
  0
LINE
  5
1ca
100
AcDbEntity
  8
0
 62
5
100
AcDbLine
 10
127.775834
 20
189.966296
 30
0.0
 11
127.717155
 21
189.965582
 31
0.0
  0
SPLINE
  5
1cb
100
AcDbEntity
  8
0
 62
5
100
AcDbSpline
 70
8
 71
3
 72
8
 73
4
 74
0
 40
0
 40
0
 40
0
 40
0
 40
1
 40
1
 40
1
 40
1
 10
127.717155
 20
189.965582
 30
0.0
 10
127.440930
 20
189.965238
 30
0.0
 10
127.216563
 20
190.189243
 30
0.0
 10
127.216563
 20
190.465821
 30
0.0
  0
LINE
  5
1cc
100
AcDbEntity
  8
0
 62
5
100
AcDbLine
 10
127.216563
 20
190.465821
 30
0.0
 11
127.216563
 21
191.965833
 31
0.0
  0
SPLINE
  5
1cd
100
AcDbEntity
  8
0
 62
5
100
AcDbSpline
 70
8
 71
3
 72
8
 73
4
 74
0
 40
0
 40
0
 40
0
 40
0
 40
1
 40
1
 40
1
 40
1
 10
127.216563
 20
191.965833
 30
0.0
 10
127.216563
 20
192.241705
 30
0.0
 10
126.992903
 20
192.465720
 30
0.0
 10
126.716677
 20
192.465720
 30
0.0
  0
LINE
  5
1ce
100
AcDbEntity
  8
0
 62
5
100
AcDbLine
 10
126.716677
 20
192.465720
 30
0.0
 11
108.715474
 21
192.465720
 31
0.0
  0
SPLINE
  5
1cf
100
AcDbEntity
  8
0
 62
5
100
AcDbSpline
 70
8
 71
3
 72
8
 73
4
 74
0
 40
0
 40
0
 40
0
 40
0
 40
1
 40
1
 40
1
 40
1
 10
108.715474
 20
192.465720
 30
0.0
 10
108.439248
 20
192.465720
 30
0.0
 10
108.215588
 20
192.689381
 30
0.0
 10
108.215588
 20
192.965606
 30
0.0
  0
LINE
  5
1d0
100
AcDbEntity
  8
0
 62
5
100
AcDbLine
 10
108.215588
 20
192.965606
 30
0.0
 11
108.215588
 21
194.215851
 31
0.0
  0
SPLINE
  5
1d1
100
AcDbEntity
  8
0
 62
5
100
AcDbSpline
 70
8
 71
3
 72
8
 73
4
 74
0
 40
0
 40
0
 40
0
 40
0
 40
1
 40
1
 40
1
 40
1
 10
108.215588
 20
194.215851
 30
0.0
 10
108.215588
 20
194.492076
 30
0.0
 10
107.991573
 20
194.715738
 30
0.0
 10
107.715348
 20
194.715738
 30
0.0
  0
LINE
  5
1d2
100
AcDbEntity
  8
0
 62
5
100
AcDbLine
 10
107.715348
 20
194.715738
 30
0.0
 11
86.764461
 21
194.715738
 31
0.0
  0
SPLINE
  5
1d3
100
AcDbEntity
  8
0
 62
5
100
AcDbSpline
 70
8
 71
3
 72
8
 73
4
 74
0
 40
0
 40
0
 40
0
 40
0
 40
1
 40
1
 40
1
 40
1
 10
86.764461
 20
194.715738
 30
0.0
 10
86.488236
 20
194.715738
 30
0.0
 10
86.264221
 20
194.492076
 30
0.0
 10
86.264221
 20
194.215851
 30
0.0
  0
LINE
  5
1d4
100
AcDbEntity
  8
0
 62
5
100
AcDbLine
 10
86.264221
 20
194.215851
 30
0.0
 11
86.264221
 21
192.965606
 31
0.0
  0
SPLINE
  5
1d5
100
AcDbEntity
  8
0
 62
5
100
AcDbSpline
 70
8
 71
3
 72
8
 73
4
 74
0
 40
0
 40
0
 40
0
 40
0
 40
1
 40
1
 40
1
 40
1
 10
86.264221
 20
192.965606
 30
0.0
 10
86.264221
 20
192.689381
 30
0.0
 10
86.040561
 20
192.465720
 30
0.0
 10
85.764335
 20
192.465720
 30
0.0
  0
LINE
  5
1d6
100
AcDbEntity
  8
0
 62
5
100
AcDbLine
 10
85.764335
 20
192.465720
 30
0.0
 11
67.717703
 21
192.465720
 31
0.0
  0
SPLINE
  5
1d7
100
AcDbEntity
  8
0
 62
5
100
AcDbSpline
 70
8
 71
3
 72
8
 73
4
 74
0
 40
0
 40
0
 40
0
 40
0
 40
1
 40
1
 40
1
 40
1
 10
67.717703
 20
192.465720
 30
0.0
 10
67.441829
 20
192.465720
 30
0.0
 10
67.217814
 20
192.241705
 30
0.0
 10
67.217814
 20
191.965833
 30
0.0
  0
LINE
  5
1d8
100
AcDbEntity
  8
0
 62
5
100
AcDbLine
 10
67.217814
 20
191.965833
 30
0.0
 11
67.217814
 21
188.215450
 31
0.0
  0
SPLINE
  5
1d9
100
AcDbEntity
  8
0
 62
5
100
AcDbSpline
 70
8
 71
3
 72
8
 73
4
 74
0
 40
0
 40
0
 40
0
 40
0
 40
1
 40
1
 40
1
 40
1
 10
67.217814
 20
188.215450
 30
0.0
 10
67.217814
 20
187.939225
 30
0.0
 10
66.994154
 20
187.715211
 30
0.0
 10
66.717577
 20
187.715211
 30
0.0
  0
LINE
  5
1da
100
AcDbEntity
  8
0
 62
5
100
AcDbLine
 10
66.717577
 20
187.715211
 30
0.0
 11
50.712328
 21
187.715211
 31
0.0
  0
LINE
  5
1db
100
AcDbEntity
  8
0
 62
5
100
AcDbLine
 10
50.712328
 20
187.715211
 30
0.0
 11
48.712076
 21
187.715211
 31
0.0
  0
LINE
  5
1dc
100
AcDbEntity
  8
0
 62
5
100
AcDbLine
 10
48.712076
 20
187.715211
 30
0.0
 11
30.686089
 21
187.715211
 31
0.0
  0
SPLINE
  5
1dd
100
AcDbEntity
  8
0
 62
5
100
AcDbSpline
 70
8
 71
3
 72
8
 73
4
 74
0
 40
0
 40
0
 40
0
 40
0
 40
1
 40
1
 40
1
 40
1
 10
30.686089
 20
187.715211
 30
0.0
 10
30.409864
 20
187.715211
 30
0.0
 10
30.185851
 20
187.491550
 30
0.0
 10
30.185497
 20
187.215324
 30
0.0
  0
LINE
  5
1de
100
AcDbEntity
  8
0
 62
5
100
AcDbLine
 10
30.185497
 20
187.215324
 30
0.0
 11
30.185497
 21
186.799399
 31
0.0
  0
SPLINE
  5
1df
100
AcDbEntity
  8
0
 62
5
100
AcDbSpline
 70
8
 71
3
 72
8
 73
4
 74
0
 40
0
 40
0
 40
0
 40
0
 40
1
 40
1
 40
1
 40
1
 10
30.185497
 20
186.799399
 30
0.0
 10
30.185497
 20
185.142754
 30
0.0
 10
29.867735
 20
183.799375
 30
0.0
 10
28.210735
 20
183.799375
 30
0.0
  0
LINE
  5
1e0
100
AcDbEntity
  8
0
 62
5
100
AcDbLine
 10
28.210735
 20
183.799375
 30
0.0
 11
26.467307
 21
183.799375
 31
0.0
  0
SPLINE
  5
1e1
100
AcDbEntity
  8
0
 62
5
100
AcDbSpline
 70
8
 71
3
 72
8
 73
4
 74
0
 40
0
 40
0
 40
0
 40
0
 40
1
 40
1
 40
1
 40
1
 10
26.467307
 20
183.799375
 30
0.0
 10
23.774904
 20
183.799375
 30
0.0
 10
21.458211
 20
181.730332
 30
0.0
 10
21.331564
 20
179.041105
 30
0.0
  0
SPLINE
  5
1e2
100
AcDbEntity
  8
0
 62
5
100
AcDbSpline
 70
8
 71
3
 72
8
 73
4
 74
0
 40
0
 40
0
 40
0
 40
0
 40
1
 40
1
 40
1
 40
1
 10
21.331564
 20
179.041105
 30
0.0
 10
21.196450
 20
176.169854
 30
0.0
 10
23.484215
 20
173.799539
 30
0.0
 10
26.326195
 20
173.799539
 30
0.0
  0
LINE
  5
1e3
100
AcDbEntity
  8
0
 62
5
100
AcDbLine
 10
26.326195
 20
173.799539
 30
0.0
 11
27.943578
 21
173.799539
 31
0.0
  0
SPLINE
  5
1e4
100
AcDbEntity
  8
0
 62
5
100
AcDbSpline
 70
8
 71
3
 72
8
 73
4
 74
0
 40
0
 40
0
 40
0
 40
0
 40
1
 40
1
 40
1
 40
1
 10
27.943578
 20
173.799539
 30
0.0
 10
29.600574
 20
173.799539
 30
0.0
 10
30.237181
 20
172.456513
 30
0.0
 10
30.237181
 20
170.799866
 30
0.0
  0
LINE
  5
1e5
100
AcDbEntity
  8
0
 62
5
100
AcDbLine
 10
30.237181
 20
170.799866
 30
0.0
 11
30.230127
 21
148.775230
 31
0.0
  0
SPLINE
  5
1e6
100
AcDbEntity
  8
0
 62
5
100
AcDbSpline
 70
8
 71
3
 72
8
 73
4
 74
0
 40
0
 40
0
 40
0
 40
0
 40
1
 40
1
 40
1
 40
1
 10
124.637702
 20
172.709809
 30
0.0
 10
124.638496
 20
172.102331
 30
0.0
 10
125.130184
 20
171.609848
 30
0.0
 10
125.737663
 20
171.609848
 30
0.0
  0
SPLINE
  5
1e7
100
AcDbEntity
  8
0
 62
5
100
AcDbSpline
 70
8
 71
3
 72
8
 73
4
 74
0
 40
0
 40
0
 40
0
 40
0
 40
1
 40
1
 40
1
 40
1
 10
125.737663
 20
171.609848
 30
0.0
 10
126.345144
 20
171.609848
 30
0.0
 10
126.838336
 20
172.102331
 30
0.0
 10
126.838336
 20
172.709809
 30
0.0
  0
SPLINE
  5
1e8
100
AcDbEntity
  8
0
 62
5
100
AcDbSpline
 70
8
 71
3
 72
8
 73
4
 74
0
 40
0
 40
0
 40
0
 40
0
 40
1
 40
1
 40
1
 40
1
 10
126.838336
 20
172.709809
 30
0.0
 10
126.838336
 20
173.317301
 30
0.0
 10
126.345144
 20
173.809780
 30
0.0
 10
125.737663
 20
173.809780
 30
0.0
  0
SPLINE
  5
1e9
100
AcDbEntity
  8
0
 62
5
100
AcDbSpline
 70
8
 71
3
 72
8
 73
4
 74
0
 40
0
 40
0
 40
0
 40
0
 40
1
 40
1
 40
1
 40
1
 10
125.737663
 20
173.809780
 30
0.0
 10
125.130184
 20
173.809780
 30
0.0
 10
124.638400
 20
173.317301
 30
0.0
 10
124.638400
 20
172.709809
 30
0.0
  0
SPLINE
  5
1ea
100
AcDbEntity
  8
0
 62
5
100
AcDbSpline
 70
8
 71
3
 72
8
 73
4
 74
0
 40
0
 40
0
 40
0
 40
0
 40
1
 40
1
 40
1
 40
1
 10
48.624298
 20
169.087486
 30
0.0
 10
48.624298
 20
168.480005
 30
0.0
 10
49.116810
 20
167.987528
 30
0.0
 10
49.724259
 20
167.987528
 30
0.0
  0
SPLINE
  5
1eb
100
AcDbEntity
  8
0
 62
5
100
AcDbSpline
 70
8
 71
3
 72
8
 73
4
 74
0
 40
0
 40
0
 40
0
 40
0
 40
1
 40
1
 40
1
 40
1
 10
49.724259
 20
167.987528
 30
0.0
 10
50.331671
 20
167.987528
 30
0.0
 10
50.824180
 20
168.480005
 30
0.0
 10
50.824180
 20
169.087486
 30
0.0
  0
SPLINE
  5
1ec
100
AcDbEntity
  8
0
 62
5
100
AcDbSpline
 70
8
 71
3
 72
8
 73
4
 74
0
 40
0
 40
0
 40
0
 40
0
 40
1
 40
1
 40
1
 40
1
 10
50.824180
 20
169.087486
 30
0.0
 10
50.824180
 20
169.694975
 30
0.0
 10
50.331671
 20
170.187447
 30
0.0
 10
49.724259
 20
170.187447
 30
0.0
  0
SPLINE
  5
1ed
100
AcDbEntity
  8
0
 62
5
100
AcDbSpline
 70
8
 71
3
 72
8
 73
4
 74
0
 40
0
 40
0
 40
0
 40
0
 40
1
 40
1
 40
1
 40
1
 10
49.724259
 20
170.187447
 30
0.0
 10
49.116810
 20
170.187447
 30
0.0
 10
48.624298
 20
169.694975
 30
0.0
 10
48.624298
 20
169.087486
 30
0.0
  0
SPLINE
  5
1ee
100
AcDbEntity
  8
0
 62
5
100
AcDbSpline
 70
8
 71
3
 72
8
 73
4
 74
0
 40
0
 40
0
 40
0
 40
0
 40
1
 40
1
 40
1
 40
1
 10
48.615479
 20
150.073814
 30
0.0
 10
48.615479
 20
149.467031
 30
0.0
 10
49.107988
 20
148.974554
 30
0.0
 10
49.715440
 20
148.974554
 30
0.0
  0
SPLINE
  5
1ef
100
AcDbEntity
  8
0
 62
5
100
AcDbSpline
 70
8
 71
3
 72
8
 73
4
 74
0
 40
0
 40
0
 40
0
 40
0
 40
1
 40
1
 40
1
 40
1
 10
49.715440
 20
148.974554
 30
0.0
 10
50.322850
 20
148.974554
 30
0.0
 10
50.815370
 20
149.467031
 30
0.0
 10
50.815370
 20
150.073814
 30
0.0
  0
SPLINE
  5
1f0
100
AcDbEntity
  8
0
 62
5
100
AcDbSpline
 70
8
 71
3
 72
8
 73
4
 74
0
 40
0
 40
0
 40
0
 40
0
 40
1
 40
1
 40
1
 40
1
 10
50.815370
 20
150.073814
 30
0.0
 10
50.815370
 20
150.682002
 30
0.0
 10
50.322850
 20
151.174473
 30
0.0
 10
49.715440
 20
151.174473
 30
0.0
  0
SPLINE
  5
1f1
100
AcDbEntity
  8
0
 62
5
100
AcDbSpline
 70
8
 71
3
 72
8
 73
4
 74
0
 40
0
 40
0
 40
0
 40
0
 40
1
 40
1
 40
1
 40
1
 10
49.715440
 20
151.174473
 30
0.0
 10
49.107988
 20
151.174473
 30
0.0
 10
48.615479
 20
150.682002
 30
0.0
 10
48.615479
 20
150.073814
 30
0.0
  0
SPLINE
  5
1f2
100
AcDbEntity
  8
0
 62
5
100
AcDbSpline
 70
8
 71
3
 72
8
 73
4
 74
0
 40
0
 40
0
 40
0
 40
0
 40
1
 40
1
 40
1
 40
1
 10
138.378402
 20
125.212486
 30
0.0
 10
138.378402
 20
124.604994
 30
0.0
 10
138.870885
 20
124.112872
 30
0.0
 10
139.478363
 20
124.112872
 30
0.0
  0
SPLINE
  5
1f3
100
AcDbEntity
  8
0
 62
5
100
AcDbSpline
 70
8
 71
3
 72
8
 73
4
 74
0
 40
0
 40
0
 40
0
 40
0
 40
1
 40
1
 40
1
 40
1
 10
139.478363
 20
124.112872
 30
0.0
 10
140.085855
 20
124.112872
 30
0.0
 10
140.578332
 20
124.604994
 30
0.0
 10
140.578332
 20
125.212835
 30
0.0
  0
SPLINE
  5
1f4
100
AcDbEntity
  8
0
 62
5
100
AcDbSpline
 70
8
 71
3
 72
8
 73
4
 74
0
 40
0
 40
0
 40
0
 40
0
 40
1
 40
1
 40
1
 40
1
 10
140.578332
 20
125.212835
 30
0.0
 10
140.578332
 20
125.820314
 30
0.0
 10
140.085855
 20
126.312445
 30
0.0
 10
139.478363
 20
126.312445
 30
0.0
  0
SPLINE
  5
1f5
100
AcDbEntity
  8
0
 62
5
100
AcDbSpline
 70
8
 71
3
 72
8
 73
4
 74
0
 40
0
 40
0
 40
0
 40
0
 40
1
 40
1
 40
1
 40
1
 10
139.478363
 20
126.312445
 30
0.0
 10
138.870885
 20
126.312445
 30
0.0
 10
138.378402
 20
125.820314
 30
0.0
 10
138.378402
 20
125.212835
 30
0.0
  0
SPLINE
  5
1f6
100
AcDbEntity
  8
0
 62
5
100
AcDbSpline
 70
8
 71
3
 72
8
 73
4
 74
0
 40
0
 40
0
 40
0
 40
0
 40
1
 40
1
 40
1
 40
1
 10
91.862858
 20
132.966897
 30
0.0
 10
91.862858
 20
132.358710
 30
0.0
 10
92.355328
 20
131.866928
 30
0.0
 10
92.962819
 20
131.866928
 30
0.0
  0
SPLINE
  5
1f7
100
AcDbEntity
  8
0
 62
5
100
AcDbSpline
 70
8
 71
3
 72
8
 73
4
 74
0
 40
0
 40
0
 40
0
 40
0
 40
1
 40
1
 40
1
 40
1
 10
92.962819
 20
131.866928
 30
0.0
 10
93.570301
 20
131.866928
 30
0.0
 10
94.062780
 20
132.358710
 30
0.0
 10
94.062780
 20
132.966188
 30
0.0
  0
SPLINE
  5
1f8
100
AcDbEntity
  8
0
 62
5
100
AcDbSpline
 70
8
 71
3
 72
8
 73
4
 74
0
 40
0
 40
0
 40
0
 40
0
 40
1
 40
1
 40
1
 40
1
 10
94.062780
 20
132.966188
 30
0.0
 10
94.062780
 20
133.573669
 30
0.0
 10
93.570301
 20
134.066152
 30
0.0
 10
92.962819
 20
134.066152
 30
0.0
  0
SPLINE
  5
1f9
100
AcDbEntity
  8
0
 62
5
100
AcDbSpline
 70
8
 71
3
 72
8
 73
4
 74
0
 40
0
 40
0
 40
0
 40
0
 40
1
 40
1
 40
1
 40
1
 10
92.962819
 20
134.066152
 30
0.0
 10
92.355328
 20
134.066152
 30
0.0
 10
91.862858
 20
133.573669
 30
0.0
 10
91.862858
 20
132.966188
 30
0.0
  0
LINE
  5
1fa
100
AcDbEntity
  8
0
 62
5
100
AcDbLine
 10
47.965588
 20
184.993545
 30
0.0
 11
32.465267
 21
184.993545
 31
0.0
  0
LINE
  5
1fb
100
AcDbEntity
  8
0
 62
5
100
AcDbLine
 10
32.465267
 20
184.993545
 30
0.0
 11
32.465267
 21
172.193350
 31
0.0
  0
LINE
  5
1fc
100
AcDbEntity
  8
0
 62
5
100
AcDbLine
 10
32.465267
 20
172.193350
 30
0.0
 11
47.965588
 21
172.193350
 31
0.0
  0
LINE
  5
1fd
100
AcDbEntity
  8
0
 62
5
100
AcDbLine
 10
47.965588
 20
172.193350
 30
0.0
 11
47.965588
 21
184.993545
 31
0.0
  0
LINE
  5
1fe
100
AcDbEntity
  8
0
 62
5
100
AcDbLine
 10
85.965464
 20
189.743351
 30
0.0
 11
70.465453
 21
189.743351
 31
0.0
  0
LINE
  5
1ff
100
AcDbEntity
  8
0
 62
5
100
AcDbLine
 10
70.465453
 20
189.743351
 30
0.0
 11
70.465453
 21
176.943503
 31
0.0
  0
LINE
  5
200
100
AcDbEntity
  8
0
 62
5
100
AcDbLine
 10
70.465453
 20
176.943503
 30
0.0
 11
85.965464
 21
176.943503
 31
0.0
  0
LINE
  5
201
100
AcDbEntity
  8
0
 62
5
100
AcDbLine
 10
85.965464
 20
176.943503
 30
0.0
 11
85.965464
 21
189.743351
 31
0.0
  0
LINE
  5
202
100
AcDbEntity
  8
0
 62
5
100
AcDbLine
 10
85.965464
 20
170.744488
 30
0.0
 11
70.465453
 21
170.744488
 31
0.0
  0
LINE
  5
203
100
AcDbEntity
  8
0
 62
5
100
AcDbLine
 10
70.465453
 20
170.744488
 30
0.0
 11
70.465453
 21
157.944290
 31
0.0
  0
LINE
  5
204
100
AcDbEntity
  8
0
 62
5
100
AcDbLine
 10
70.465453
 20
157.944290
 30
0.0
 11
85.965464
 21
157.944290
 31
0.0
  0
LINE
  5
205
100
AcDbEntity
  8
0
 62
5
100
AcDbLine
 10
85.965464
 20
157.944290
 30
0.0
 11
85.965464
 21
170.744488
 31
0.0
  0
LINE
  5
206
100
AcDbEntity
  8
0
 62
5
100
AcDbLine
 10
85.965464
 20
151.744566
 30
0.0
 11
70.465453
 21
151.744566
 31
0.0
  0
LINE
  5
207
100
AcDbEntity
  8
0
 62
5
100
AcDbLine
 10
70.465453
 20
151.744566
 30
0.0
 11
70.465453
 21
138.944363
 31
0.0
  0
LINE
  5
208
100
AcDbEntity
  8
0
 62
5
100
AcDbLine
 10
70.465453
 20
138.944363
 30
0.0
 11
85.965464
 21
138.944363
 31
0.0
  0
LINE
  5
209
100
AcDbEntity
  8
0
 62
5
100
AcDbLine
 10
85.965464
 20
138.944363
 30
0.0
 11
85.965464
 21
151.744566
 31
0.0
  0
LINE
  5
20a
100
AcDbEntity
  8
0
 62
5
100
AcDbLine
 10
104.964328
 20
192.118606
 30
0.0
 11
89.464316
 21
192.118606
 31
0.0
  0
LINE
  5
20b
100
AcDbEntity
  8
0
 62
5
100
AcDbLine
 10
89.464316
 20
192.118606
 30
0.0
 11
89.464316
 21
179.318405
 31
0.0
  0
LINE
  5
20c
100
AcDbEntity
  8
0
 62
5
100
AcDbLine
 10
89.464316
 20
179.318405
 30
0.0
 11
104.964328
 21
179.318405
 31
0.0
  0
LINE
  5
20d
100
AcDbEntity
  8
0
 62
5
100
AcDbLine
 10
104.964328
 20
179.318405
 30
0.0
 11
104.964328
 21
192.118606
 31
0.0
  0
LINE
  5
20e
100
AcDbEntity
  8
0
 62
5
100
AcDbLine
 10
104.964328
 20
173.118331
 30
0.0
 11
89.464316
 21
173.118331
 31
0.0
  0
LINE
  5
20f
100
AcDbEntity
  8
0
 62
5
100
AcDbLine
 10
89.464316
 20
173.118331
 30
0.0
 11
89.464316
 21
160.318480
 31
0.0
  0
LINE
  5
210
100
AcDbEntity
  8
0
 62
5
100
AcDbLine
 10
89.464316
 20
160.318480
 30
0.0
 11
104.964328
 21
160.318480
 31
0.0
  0
LINE
  5
211
100
AcDbEntity
  8
0
 62
5
100
AcDbLine
 10
104.964328
 20
160.318480
 30
0.0
 11
104.964328
 21
173.118331
 31
0.0
  0
LINE
  5
212
100
AcDbEntity
  8
0
 62
5
100
AcDbLine
 10
104.964328
 20
154.119468
 30
0.0
 11
89.464316
 21
154.119468
 31
0.0
  0
LINE
  5
213
100
AcDbEntity
  8
0
 62
5
100
AcDbLine
 10
89.464316
 20
154.119468
 30
0.0
 11
89.464316
 21
141.319267
 31
0.0
  0
LINE
  5
214
100
AcDbEntity
  8
0
 62
5
100
AcDbLine
 10
89.464316
 20
141.319267
 30
0.0
 11
104.964328
 21
141.319267
 31
0.0
  0
LINE
  5
215
100
AcDbEntity
  8
0
 62
5
100
AcDbLine
 10
104.964328
 20
141.319267
 30
0.0
 11
104.964328
 21
154.119468
 31
0.0
  0
LINE
  5
216
100
AcDbEntity
  8
0
 62
5
100
AcDbLine
 10
123.964601
 20
151.744566
 30
0.0
 11
108.464590
 21
151.744566
 31
0.0
  0
LINE
  5
217
100
AcDbEntity
  8
0
 62
5
100
AcDbLine
 10
108.464590
 20
151.744566
 30
0.0
 11
108.464590
 21
138.944363
 31
0.0
  0
LINE
  5
218
100
AcDbEntity
  8
0
 62
5
100
AcDbLine
 10
108.464590
 20
138.944363
 30
0.0
 11
123.964601
 21
138.944363
 31
0.0
  0
LINE
  5
219
100
AcDbEntity
  8
0
 62
5
100
AcDbLine
 10
123.964601
 20
138.944363
 30
0.0
 11
123.964601
 21
151.744566
 31
0.0
  0
LINE
  5
21a
100
AcDbEntity
  8
0
 62
5
100
AcDbLine
 10
114.464635
 20
132.120227
 30
0.0
 11
98.964634
 21
132.120227
 31
0.0
  0
LINE
  5
21b
100
AcDbEntity
  8
0
 62
5
100
AcDbLine
 10
98.964634
 20
132.120227
 30
0.0
 11
98.964634
 21
119.320381
 31
0.0
  0
LINE
  5
21c
100
AcDbEntity
  8
0
 62
5
100
AcDbLine
 10
98.964634
 20
119.320381
 30
0.0
 11
114.464635
 21
119.320381
 31
0.0
  0
LINE
  5
21d
100
AcDbEntity
  8
0
 62
5
100
AcDbLine
 10
114.464635
 20
119.320381
 30
0.0
 11
114.464635
 21
132.120227
 31
0.0
  0
LINE
  5
21e
100
AcDbEntity
  8
0
 62
5
100
AcDbLine
 10
142.963465
 20
187.369505
 30
0.0
 11
127.463454
 21
187.369505
 31
0.0
  0
LINE
  5
21f
100
AcDbEntity
  8
0
 62
5
100
AcDbLine
 10
127.463454
 20
187.369505
 30
0.0
 11
127.463454
 21
174.569311
 31
0.0
  0
LINE
  5
220
100
AcDbEntity
  8
0
 62
5
100
AcDbLine
 10
127.463454
 20
174.569311
 30
0.0
 11
142.963465
 21
174.569311
 31
0.0
  0
LINE
  5
221
100
AcDbEntity
  8
0
 62
5
100
AcDbLine
 10
142.963465
 20
174.569311
 30
0.0
 11
142.963465
 21
187.369505
 31
0.0
  0
LINE
  5
222
100
AcDbEntity
  8
0
 62
5
100
AcDbLine
 10
142.963465
 20
168.369587
 30
0.0
 11
127.463454
 21
168.369587
 31
0.0
  0
LINE
  5
223
100
AcDbEntity
  8
0
 62
5
100
AcDbLine
 10
127.463454
 20
168.369587
 30
0.0
 11
127.463454
 21
155.569388
 31
0.0
  0
LINE
  5
224
100
AcDbEntity
  8
0
 62
5
100
AcDbLine
 10
127.463454
 20
155.569388
 30
0.0
 11
142.963465
 21
155.569388
 31
0.0
  0
LINE
  5
225
100
AcDbEntity
  8
0
 62
5
100
AcDbLine
 10
142.963465
 20
155.569388
 30
0.0
 11
142.963465
 21
168.369587
 31
0.0
  0
LINE
  5
226
100
AcDbEntity
  8
0
 62
5
100
AcDbLine
 10
142.963465
 20
149.369313
 30
0.0
 11
127.463454
 21
149.369313
 31
0.0
  0
LINE
  5
227
100
AcDbEntity
  8
0
 62
5
100
AcDbLine
 10
127.463454
 20
149.369313
 30
0.0
 11
127.463454
 21
136.569461
 31
0.0
  0
LINE
  5
228
100
AcDbEntity
  8
0
 62
5
100
AcDbLine
 10
127.463454
 20
136.569461
 30
0.0
 11
142.963465
 21
136.569461
 31
0.0
  0
LINE
  5
229
100
AcDbEntity
  8
0
 62
5
100
AcDbLine
 10
142.963465
 20
136.569461
 30
0.0
 11
142.963465
 21
149.369313
 31
0.0
  0
LINE
  5
22a
100
AcDbEntity
  8
0
 62
5
100
AcDbLine
 10
123.964601
 20
170.744488
 30
0.0
 11
108.464590
 21
170.744488
 31
0.0
  0
LINE
  5
22b
100
AcDbEntity
  8
0
 62
5
100
AcDbLine
 10
108.464590
 20
170.744488
 30
0.0
 11
108.464590
 21
157.944290
 31
0.0
  0
LINE
  5
22c
100
AcDbEntity
  8
0
 62
5
100
AcDbLine
 10
108.464590
 20
157.944290
 30
0.0
 11
123.964601
 21
157.944290
 31
0.0
  0
LINE
  5
22d
100
AcDbEntity
  8
0
 62
5
100
AcDbLine
 10
123.964601
 20
157.944290
 30
0.0
 11
123.964601
 21
170.744488
 31
0.0
  0
LINE
  5
22e
100
AcDbEntity
  8
0
 62
5
100
AcDbLine
 10
123.964601
 20
189.743351
 30
0.0
 11
108.464590
 21
189.743351
 31
0.0
  0
LINE
  5
22f
100
AcDbEntity
  8
0
 62
5
100
AcDbLine
 10
108.464590
 20
189.743351
 30
0.0
 11
108.464590
 21
176.943503
 31
0.0
  0
LINE
  5
230
100
AcDbEntity
  8
0
 62
5
100
AcDbLine
 10
108.464590
 20
176.943503
 30
0.0
 11
123.964601
 21
176.943503
 31
0.0
  0
LINE
  5
231
100
AcDbEntity
  8
0
 62
5
100
AcDbLine
 10
123.964601
 20
176.943503
 30
0.0
 11
123.964601
 21
189.743351
 31
0.0
  0
LINE
  5
232
100
AcDbEntity
  8
0
 62
5
100
AcDbLine
 10
66.965542
 20
165.993272
 30
0.0
 11
51.465531
 21
165.993272
 31
0.0
  0
LINE
  5
233
100
AcDbEntity
  8
0
 62
5
100
AcDbLine
 10
51.465531
 20
165.993272
 30
0.0
 11
51.465531
 21
153.193426
 31
0.0
  0
LINE
  5
234
100
AcDbEntity
  8
0
 62
5
100
AcDbLine
 10
51.465531
 20
153.193426
 30
0.0
 11
66.965542
 21
153.193426
 31
0.0
  0
LINE
  5
235
100
AcDbEntity
  8
0
 62
5
100
AcDbLine
 10
66.965542
 20
153.193426
 30
0.0
 11
66.965542
 21
165.993272
 31
0.0
  0
LINE
  5
236
100
AcDbEntity
  8
0
 62
5
100
AcDbLine
 10
47.965588
 20
165.993272
 30
0.0
 11
32.465267
 21
165.993272
 31
0.0
  0
LINE
  5
237
100
AcDbEntity
  8
0
 62
5
100
AcDbLine
 10
32.465267
 20
165.993272
 30
0.0
 11
32.465267
 21
153.193426
 31
0.0
  0
LINE
  5
238
100
AcDbEntity
  8
0
 62
5
100
AcDbLine
 10
32.465267
 20
153.193426
 30
0.0
 11
47.965588
 21
153.193426
 31
0.0
  0
LINE
  5
239
100
AcDbEntity
  8
0
 62
5
100
AcDbLine
 10
47.965588
 20
153.193426
 30
0.0
 11
47.965588
 21
165.993272
 31
0.0
  0
LINE
  5
23a
100
AcDbEntity
  8
0
 62
5
100
AcDbLine
 10
47.965588
 20
146.995472
 30
0.0
 11
32.465267
 21
146.995472
 31
0.0
  0
LINE
  5
23b
100
AcDbEntity
  8
0
 62
5
100
AcDbLine
 10
32.465267
 20
146.995472
 30
0.0
 11
32.465267
 21
134.195271
 31
0.0
  0
LINE
  5
23c
100
AcDbEntity
  8
0
 62
5
100
AcDbLine
 10
32.465267
 20
134.195271
 30
0.0
 11
47.965588
 21
134.195271
 31
0.0
  0
LINE
  5
23d
100
AcDbEntity
  8
0
 62
5
100
AcDbLine
 10
47.965588
 20
134.195271
 30
0.0
 11
47.965588
 21
146.995472
 31
0.0
  0
LINE
  5
23e
100
AcDbEntity
  8
0
 62
5
100
AcDbLine
 10
66.965542
 20
146.995472
 30
0.0
 11
51.465531
 21
146.995472
 31
0.0
  0
LINE
  5
23f
100
AcDbEntity
  8
0
 62
5
100
AcDbLine
 10
51.465531
 20
146.995472
 30
0.0
 11
51.465531
 21
134.195271
 31
0.0
  0
LINE
  5
240
100
AcDbEntity
  8
0
 62
5
100
AcDbLine
 10
51.465531
 20
134.195271
 30
0.0
 11
66.965542
 21
134.195271
 31
0.0
  0
LINE
  5
241
100
AcDbEntity
  8
0
 62
5
100
AcDbLine
 10
66.965542
 20
134.195271
 30
0.0
 11
66.965542
 21
146.995472
 31
0.0
  0
LINE
  5
242
100
AcDbEntity
  8
0
 62
5
100
AcDbLine
 10
66.965542
 20
184.993545
 30
0.0
 11
51.465531
 21
184.993545
 31
0.0
  0
LINE
  5
243
100
AcDbEntity
  8
0
 62
5
100
AcDbLine
 10
51.465531
 20
184.993545
 30
0.0
 11
51.465531
 21
172.193350
 31
0.0
  0
LINE
  5
244
100
AcDbEntity
  8
0
 62
5
100
AcDbLine
 10
51.465531
 20
172.193350
 30
0.0
 11
66.965542
 21
172.193350
 31
0.0
  0
LINE
  5
245
100
AcDbEntity
  8
0
 62
5
100
AcDbLine
 10
66.965542
 20
172.193350
 30
0.0
 11
66.965542
 21
184.993545
 31
0.0
  0
LINE
  5
246
100
AcDbEntity
  8
0
 62
5
100
AcDbLine
 10
140.557864
 20
115.693470
 30
0.0
 11
148.298519
 21
129.122316
 31
0.0
  0
LINE
  5
247
100
AcDbEntity
  8
0
 62
5
100
AcDbLine
 10
148.298519
 20
129.122316
 30
0.0
 11
159.388106
 21
122.729984
 31
0.0
  0
LINE
  5
248
100
AcDbEntity
  8
0
 62
5
100
AcDbLine
 10
159.388106
 20
122.729984
 30
0.0
 11
151.647440
 21
109.301484
 31
0.0
  0
LINE
  5
249
100
AcDbEntity
  8
0
 62
5
100
AcDbLine
 10
151.647440
 20
109.301484
 30
0.0
 11
140.557864
 21
115.693470
 31
0.0
  0
LINE
  5
24a
100
AcDbEntity
  8
0
 62
5
100
AcDbLine
 10
118.570270
 20
118.788750
 30
0.0
 11
121.883210
 21
131.152558
 31
0.0
  0
LINE
  5
24b
100
AcDbEntity
  8
0
 62
5
100
AcDbLine
 10
121.883210
 20
131.152558
 30
0.0
 11
136.855110
 21
127.140766
 31
0.0
  0
LINE
  5
24c
100
AcDbEntity
  8
0
 62
5
100
AcDbLine
 10
136.855110
 20
127.140766
 30
0.0
 11
133.542167
 21
114.776955
 31
0.0
  0
LINE
  5
24d
100
AcDbEntity
  8
0
 62
5
100
AcDbLine
 10
133.542167
 20
114.776955
 30
0.0
 11
118.570270
 21
118.788750
 31
0.0
  0
SPLINE
  5
24e
100
AcDbEntity
  8
0
 62
5
100
AcDbSpline
 70
8
 71
3
 72
8
 73
4
 74
0
 40
0
 40
0
 40
0
 40
0
 40
1
 40
1
 40
1
 40
1
 10
116.259818
 20
30.482238
 30
0.0
 10
116.259818
 20
31.930391
 30
0.0
 10
117.444094
 20
33.102319
 30
0.0
 10
118.896835
 20
33.081859
 30
0.0
  0
SPLINE
  5
24f
100
AcDbEntity
  8
0
 62
5
100
AcDbSpline
 70
8
 71
3
 72
8
 73
4
 74
0
 40
0
 40
0
 40
0
 40
0
 40
1
 40
1
 40
1
 40
1
 10
118.896835
 20
33.081859
 30
0.0
 10
120.277596
 20
33.062809
 30
0.0
 10
121.440361
 20
31.900406
 30
0.0
 10
121.459755
 20
30.519280
 30
0.0
  0
SPLINE
  5
250
100
AcDbEntity
  8
0
 62
5
100
AcDbSpline
 70
8
 71
3
 72
8
 73
4
 74
0
 40
0
 40
0
 40
0
 40
0
 40
1
 40
1
 40
1
 40
1
 10
121.459755
 20
30.519280
 30
0.0
 10
121.479863
 20
29.066187
 30
0.0
 10
120.308287
 20
27.882263
 30
0.0
 10
118.859793
 20
27.882263
 30
0.0
  0
SPLINE
  5
251
100
AcDbEntity
  8
0
 62
5
100
AcDbSpline
 70
8
 71
3
 72
8
 73
4
 74
0
 40
0
 40
0
 40
0
 40
0
 40
1
 40
1
 40
1
 40
1
 10
118.859793
 20
27.882263
 30
0.0
 10
117.423986
 20
27.882263
 30
0.0
 10
116.259818
 20
29.046431
 30
0.0
 10
116.259818
 20
30.482238
 30
0.0
  0
LINE
  5
252
100
AcDbEntity
  8
0
 62
5
100
AcDbLine
 10
116.259818
 20
30.482238
 30
0.0
 11
116.259818
 21
30.482238
 31
0.0
  0
SPLINE
  5
253
100
AcDbEntity
  8
0
 62
5
100
AcDbSpline
 70
8
 71
3
 72
8
 73
4
 74
0
 40
0
 40
0
 40
0
 40
0
 40
1
 40
1
 40
1
 40
1
 10
123.968059
 20
26.150017
 30
0.0
 10
124.366681
 20
26.150017
 30
0.0
 10
124.614702
 20
26.599809
 30
0.0
 10
124.384673
 20
26.925424
 30
0.0
  0
SPLINE
  5
254
100
AcDbEntity
  8
0
 62
5
100
AcDbSpline
 70
8
 71
3
 72
8
 73
4
 74
0
 40
0
 40
0
 40
0
 40
0
 40
1
 40
1
 40
1
 40
1
 10
124.384673
 20
26.925424
 30
0.0
 10
124.228410
 20
27.147322
 30
0.0
 10
124.090456
 20
27.406259
 30
0.0
 10
123.994862
 20
27.705064
 30
0.0
  0
SPLINE
  5
255
100
AcDbEntity
  8
0
 62
5
100
AcDbSpline
 70
8
 71
3
 72
8
 73
4
 74
0
 40
0
 40
0
 40
0
 40
0
 40
1
 40
1
 40
1
 40
1
 10
123.994862
 20
27.705064
 30
0.0
 10
123.888684
 20
28.038085
 30
0.0
 10
123.858681
 20
28.345356
 30
0.0
 10
123.859739
 20
28.597240
 30
0.0
  0
LINE
  5
256
100
AcDbEntity
  8
0
 62
5
100
AcDbLine
 10
123.859739
 20
28.597240
 30
0.0
 11
123.859739
 21
30.350899
 31
0.0
  0
SPLINE
  5
257
100
AcDbEntity
  8
0
 62
5
100
AcDbSpline
 70
8
 71
3
 72
8
 73
4
 74
0
 40
0
 40
0
 40
0
 40
0
 40
1
 40
1
 40
1
 40
1
 10
123.859739
 20
30.350899
 30
0.0
 10
123.859739
 20
32.917711
 30
0.0
 10
121.979794
 20
35.169139
 30
0.0
 10
119.428508
 20
35.450656
 30
0.0
  0
SPLINE
  5
258
100
AcDbEntity
  8
0
 62
5
100
AcDbSpline
 70
8
 71
3
 72
8
 73
4
 74
0
 40
0
 40
0
 40
0
 40
0
 40
1
 40
1
 40
1
 40
1
 10
119.428508
 20
35.450656
 30
0.0
 10
116.412607
 20
35.783680
 30
0.0
 10
113.859906
 20
33.431355
 30
0.0
 10
113.859906
 20
30.482132
 30
0.0
  0
LINE
  5
259
100
AcDbEntity
  8
0
 62
5
100
AcDbLine
 10
113.859906
 20
30.482132
 30
0.0
 11
113.859906
 21
28.599708
 31
0.0
  0
SPLINE
  5
25a
100
AcDbEntity
  8
0
 62
5
100
AcDbSpline
 70
8
 71
3
 72
8
 73
4
 74
0
 40
0
 40
0
 40
0
 40
0
 40
1
 40
1
 40
1
 40
1
 10
113.859906
 20
28.599708
 30
0.0
 10
113.859906
 20
28.343591
 30
0.0
 10
113.826391
 20
27.559014
 30
0.0
 10
113.264064
 20
26.804774
 30
0.0
  0
SPLINE
  5
25b
100
AcDbEntity
  8
0
 62
5
100
AcDbSpline
 70
8
 71
3
 72
8
 73
4
 74
0
 40
0
 40
0
 40
0
 40
0
 40
1
 40
1
 40
1
 40
1
 10
113.264064
 20
26.804774
 30
0.0
 10
113.062628
 20
26.536663
 30
0.0
 10
113.254195
 20
26.153546
 30
0.0
 10
113.590030
 20
26.153546
 30
0.0
  0
LINE
  5
25c
100
AcDbEntity
  8
0
 62
5
100
AcDbLine
 10
113.590030
 20
26.153546
 30
0.0
 11
123.968059
 21
26.150017
 31
0.0
  0
SPLINE
  5
25d
100
AcDbEntity
  8
0
 62
5
100
AcDbSpline
 70
8
 71
3
 72
8
 73
4
 74
0
 40
0
 40
0
 40
0
 40
0
 40
1
 40
1
 40
1
 40
1
 10
130.441950
 20
30.482236
 30
0.0
 10
130.441950
 20
31.930391
 30
0.0
 10
131.626226
 20
33.102319
 30
0.0
 10
133.078974
 20
33.081859
 30
0.0
  0
SPLINE
  5
25e
100
AcDbEntity
  8
0
 62
5
100
AcDbSpline
 70
8
 71
3
 72
8
 73
4
 74
0
 40
0
 40
0
 40
0
 40
0
 40
1
 40
1
 40
1
 40
1
 10
133.078974
 20
33.081859
 30
0.0
 10
134.459730
 20
33.062809
 30
0.0
 10
135.622495
 20
31.900403
 30
0.0
 10
135.641889
 20
30.519277
 30
0.0
  0
SPLINE
  5
25f
100
AcDbEntity
  8
0
 62
5
100
AcDbSpline
 70
8
 71
3
 72
8
 73
4
 74
0
 40
0
 40
0
 40
0
 40
0
 40
1
 40
1
 40
1
 40
1
 10
135.641889
 20
30.519277
 30
0.0
 10
135.661997
 20
29.066185
 30
0.0
 10
134.490421
 20
27.882263
 30
0.0
 10
133.041933
 20
27.882263
 30
0.0
  0
SPLINE
  5
260
100
AcDbEntity
  8
0
 62
5
100
AcDbSpline
 70
8
 71
3
 72
8
 73
4
 74
0
 40
0
 40
0
 40
0
 40
0
 40
1
 40
1
 40
1
 40
1
 10
133.041933
 20
27.882263
 30
0.0
 10
131.606117
 20
27.882263
 30
0.0
 10
130.441950
 20
29.046431
 30
0.0
 10
130.441950
 20
30.482236
 30
0.0
  0
LINE
  5
261
100
AcDbEntity
  8
0
 62
5
100
AcDbLine
 10
130.441950
 20
30.482236
 30
0.0
 11
130.441950
 21
30.482236
 31
0.0
  0
SPLINE
  5
262
100
AcDbEntity
  8
0
 62
5
100
AcDbSpline
 70
8
 71
3
 72
8
 73
4
 74
0
 40
0
 40
0
 40
0
 40
0
 40
1
 40
1
 40
1
 40
1
 10
138.150193
 20
26.150017
 30
0.0
 10
138.548815
 20
26.150017
 30
0.0
 10
138.796836
 20
26.599809
 30
0.0
 10
138.566807
 20
26.925424
 30
0.0
  0
SPLINE
  5
263
100
AcDbEntity
  8
0
 62
5
100
AcDbSpline
 70
8
 71
3
 72
8
 73
4
 74
0
 40
0
 40
0
 40
0
 40
0
 40
1
 40
1
 40
1
 40
1
 10
138.566807
 20
26.925424
 30
0.0
 10
138.410544
 20
27.147319
 30
0.0
 10
138.272590
 20
27.406259
 30
0.0
 10
138.176996
 20
27.705061
 30
0.0
  0
SPLINE
  5
264
100
AcDbEntity
  8
0
 62
5
100
AcDbSpline
 70
8
 71
3
 72
8
 73
4
 74
0
 40
0
 40
0
 40
0
 40
0
 40
1
 40
1
 40
1
 40
1
 10
138.176996
 20
27.705061
 30
0.0
 10
138.070818
 20
28.038085
 30
0.0
 10
138.040815
 20
28.345353
 30
0.0
 10
138.041873
 20
28.597237
 30
0.0
  0
LINE
  5
265
100
AcDbEntity
  8
0
 62
5
100
AcDbLine
 10
138.041873
 20
28.597237
 30
0.0
 11
138.041873
 21
30.350896
 31
0.0
  0
SPLINE
  5
266
100
AcDbEntity
  8
0
 62
5
100
AcDbSpline
 70
8
 71
3
 72
8
 73
4
 74
0
 40
0
 40
0
 40
0
 40
0
 40
1
 40
1
 40
1
 40
1
 10
138.041873
 20
30.350896
 30
0.0
 10
138.041873
 20
32.917711
 30
0.0
 10
136.161928
 20
35.169139
 30
0.0
 10
133.610628
 20
35.450656
 30
0.0
  0
SPLINE
  5
267
100
AcDbEntity
  8
0
 62
5
100
AcDbSpline
 70
8
 71
3
 72
8
 73
4
 74
0
 40
0
 40
0
 40
0
 40
0
 40
1
 40
1
 40
1
 40
1
 10
133.610628
 20
35.450656
 30
0.0
 10
130.594747
 20
35.783680
 30
0.0
 10
128.042045
 20
33.431003
 30
0.0
 10
128.042045
 20
30.482130
 30
0.0
  0
LINE
  5
268
100
AcDbEntity
  8
0
 62
5
100
AcDbLine
 10
128.042045
 20
30.482130
 30
0.0
 11
128.042045
 21
28.599708
 31
0.0
  0
SPLINE
  5
269
100
AcDbEntity
  8
0
 62
5
100
AcDbSpline
 70
8
 71
3
 72
8
 73
4
 74
0
 40
0
 40
0
 40
0
 40
0
 40
1
 40
1
 40
1
 40
1
 10
128.042045
 20
28.599708
 30
0.0
 10
128.042045
 20
28.343591
 30
0.0
 10
128.008522
 20
27.559011
 30
0.0
 10
127.446203
 20
26.804774
 30
0.0
  0
SPLINE
  5
26a
100
AcDbEntity
  8
0
 62
5
100
AcDbSpline
 70
8
 71
3
 72
8
 73
4
 74
0
 40
0
 40
0
 40
0
 40
0
 40
1
 40
1
 40
1
 40
1
 10
127.446203
 20
26.804774
 30
0.0
 10
127.244749
 20
26.536661
 30
0.0
 10
127.436413
 20
26.153544
 30
0.0
 10
127.772170
 20
26.153544
 30
0.0
  0
LINE
  5
26b
100
AcDbEntity
  8
0
 62
5
100
AcDbLine
 10
127.772170
 20
26.153544
 30
0.0
 11
138.150193
 21
26.150017
 31
0.0
  0
SPLINE
  5
26c
100
AcDbEntity
  8
0
 62
5
100
AcDbSpline
 70
8
 71
3
 72
8
 73
4
 74
0
 40
0
 40
0
 40
0
 40
0
 40
1
 40
1
 40
1
 40
1
 10
144.624063
 20
30.482556
 30
0.0
 10
144.624063
 20
31.930709
 30
0.0
 10
145.807994
 20
33.102636
 30
0.0
 10
147.261087
 20
33.082176
 30
0.0
  0
SPLINE
  5
26d
100
AcDbEntity
  8
0
 62
5
100
AcDbSpline
 70
8
 71
3
 72
8
 73
4
 74
0
 40
0
 40
0
 40
0
 40
0
 40
1
 40
1
 40
1
 40
1
 10
147.261087
 20
33.082176
 30
0.0
 10
148.641869
 20
33.062782
 30
0.0
 10
149.804608
 20
31.900369
 30
0.0
 10
149.823658
 20
30.519243
 30
0.0
  0
SPLINE
  5
26e
100
AcDbEntity
  8
0
 62
5
100
AcDbSpline
 70
8
 71
3
 72
8
 73
4
 74
0
 40
0
 40
0
 40
0
 40
0
 40
1
 40
1
 40
1
 40
1
 10
149.823658
 20
30.519243
 30
0.0
 10
149.844031
 20
29.066505
 30
0.0
 10
148.672561
 20
27.882581
 30
0.0
 10
147.224045
 20
27.882581
 30
0.0
  0
SPLINE
  5
26f
100
AcDbEntity
  8
0
 62
5
100
AcDbSpline
 70
8
 71
3
 72
8
 73
4
 74
0
 40
0
 40
0
 40
0
 40
0
 40
1
 40
1
 40
1
 40
1
 10
147.224045
 20
27.882581
 30
0.0
 10
145.788230
 20
27.882581
 30
0.0
 10
144.624063
 20
29.046748
 30
0.0
 10
144.624063
 20
30.482556
 30
0.0
  0
LINE
  5
270
100
AcDbEntity
  8
0
 62
5
100
AcDbLine
 10
144.624063
 20
30.482556
 30
0.0
 11
144.624063
 21
30.482556
 31
0.0
  0
SPLINE
  5
271
100
AcDbEntity
  8
0
 62
5
100
AcDbSpline
 70
8
 71
3
 72
8
 73
4
 74
0
 40
0
 40
0
 40
0
 40
0
 40
1
 40
1
 40
1
 40
1
 10
152.332306
 20
26.150017
 30
0.0
 10
152.730954
 20
26.150017
 30
0.0
 10
152.978948
 20
26.599809
 30
0.0
 10
152.748946
 20
26.925776
 30
0.0
  0
SPLINE
  5
272
100
AcDbEntity
  8
0
 62
5
100
AcDbSpline
 70
8
 71
3
 72
8
 73
4
 74
0
 40
0
 40
0
 40
0
 40
0
 40
1
 40
1
 40
1
 40
1
 10
152.748946
 20
26.925776
 30
0.0
 10
152.592656
 20
27.147322
 30
0.0
 10
152.454729
 20
27.406259
 30
0.0
 10
152.359109
 20
27.705416
 30
0.0
  0
SPLINE
  5
273
100
AcDbEntity
  8
0
 62
5
100
AcDbSpline
 70
8
 71
3
 72
8
 73
4
 74
0
 40
0
 40
0
 40
0
 40
0
 40
1
 40
1
 40
1
 40
1
 10
152.359109
 20
27.705416
 30
0.0
 10
152.252931
 20
28.038085
 30
0.0
 10
152.222954
 20
28.345708
 30
0.0
 10
152.224012
 20
28.597591
 30
0.0
  0
LINE
  5
274
100
AcDbEntity
  8
0
 62
5
100
AcDbLine
 10
152.224012
 20
28.597591
 30
0.0
 11
152.224012
 21
30.350899
 31
0.0
  0
SPLINE
  5
275
100
AcDbEntity
  8
0
 62
5
100
AcDbSpline
 70
8
 71
3
 72
8
 73
4
 74
0
 40
0
 40
0
 40
0
 40
0
 40
1
 40
1
 40
1
 40
1
 10
152.224012
 20
30.350899
 30
0.0
 10
152.224012
 20
32.917711
 30
0.0
 10
150.343697
 20
35.169494
 30
0.0
 10
147.792768
 20
35.451011
 30
0.0
  0
SPLINE
  5
276
100
AcDbEntity
  8
0
 62
5
100
AcDbSpline
 70
8
 71
3
 72
8
 73
4
 74
0
 40
0
 40
0
 40
0
 40
0
 40
1
 40
1
 40
1
 40
1
 10
147.792768
 20
35.451011
 30
0.0
 10
144.776860
 20
35.784032
 30
0.0
 10
142.224158
 20
33.431355
 30
0.0
 10
142.224158
 20
30.482484
 30
0.0
  0
LINE
  5
277
100
AcDbEntity
  8
0
 62
5
100
AcDbLine
 10
142.224158
 20
30.482484
 30
0.0
 11
142.224158
 21
28.600060
 31
0.0
  0
SPLINE
  5
278
100
AcDbEntity
  8
0
 62
5
100
AcDbSpline
 70
8
 71
3
 72
8
 73
4
 74
0
 40
0
 40
0
 40
0
 40
0
 40
1
 40
1
 40
1
 40
1
 10
142.224158
 20
28.600060
 30
0.0
 10
142.223893
 20
28.343943
 30
0.0
 10
142.190635
 20
27.559014
 30
0.0
 10
141.628316
 20
26.805125
 30
0.0
  0
SPLINE
  5
279
100
AcDbEntity
  8
0
 62
5
100
AcDbSpline
 70
8
 71
3
 72
8
 73
4
 74
0
 40
0
 40
0
 40
0
 40
0
 40
1
 40
1
 40
1
 40
1
 10
141.628316
 20
26.805125
 30
0.0
 10
141.426888
 20
26.536663
 30
0.0
 10
141.618526
 20
26.153898
 30
0.0
 10
141.954283
 20
26.153546
 30
0.0
  0
LINE
  5
27a
100
AcDbEntity
  8
0
 62
5
100
AcDbLine
 10
141.954283
 20
26.153546
 30
0.0
 11
152.332306
 21
26.150017
 31
0.0
  0
SPLINE
  5
27b
100
AcDbEntity
  8
0
 62
5
100
AcDbSpline
 70
8
 71
3
 72
8
 73
4
 74
0
 40
0
 40
0
 40
0
 40
0
 40
1
 40
1
 40
1
 40
1
 10
158.806202
 20
30.482590
 30
0.0
 10
158.806202
 20
31.930743
 30
0.0
 10
159.990134
 20
33.102671
 30
0.0
 10
161.443226
 20
33.082211
 30
0.0
  0
SPLINE
  5
27c
100
AcDbEntity
  8
0
 62
5
100
AcDbSpline
 70
8
 71
3
 72
8
 73
4
 74
0
 40
0
 40
0
 40
0
 40
0
 40
1
 40
1
 40
1
 40
1
 10
161.443226
 20
33.082211
 30
0.0
 10
162.824008
 20
33.062817
 30
0.0
 10
163.986747
 20
31.900403
 30
0.0
 10
164.005797
 20
30.519277
 30
0.0
  0
SPLINE
  5
27d
100
AcDbEntity
  8
0
 62
5
100
AcDbSpline
 70
8
 71
3
 72
8
 73
4
 74
0
 40
0
 40
0
 40
0
 40
0
 40
1
 40
1
 40
1
 40
1
 10
164.005797
 20
30.519277
 30
0.0
 10
164.026170
 20
29.066539
 30
0.0
 10
162.854700
 20
27.882615
 30
0.0
 10
161.406185
 20
27.882615
 30
0.0
  0
SPLINE
  5
27e
100
AcDbEntity
  8
0
 62
5
100
AcDbSpline
 70
8
 71
3
 72
8
 73
4
 74
0
 40
0
 40
0
 40
0
 40
0
 40
1
 40
1
 40
1
 40
1
 10
161.406185
 20
27.882615
 30
0.0
 10
159.970369
 20
27.882615
 30
0.0
 10
158.806202
 20
29.046783
 30
0.0
 10
158.806202
 20
30.482590
 30
0.0
  0
LINE
  5
27f
100
AcDbEntity
  8
0
 62
5
100
AcDbLine
 10
158.806202
 20
30.482590
 30
0.0
 11
158.806202
 21
30.482590
 31
0.0
  0
SPLINE
  5
280
100
AcDbEntity
  8
0
 62
5
100
AcDbSpline
 70
8
 71
3
 72
8
 73
4
 74
0
 40
0
 40
0
 40
0
 40
0
 40
1
 40
1
 40
1
 40
1
 10
166.514446
 20
26.150017
 30
0.0
 10
166.913094
 20
26.150017
 30
0.0
 10
167.161088
 20
26.599809
 30
0.0
 10
166.931085
 20
26.925776
 30
0.0
  0
SPLINE
  5
281
100
AcDbEntity
  8
0
 62
5
100
AcDbSpline
 70
8
 71
3
 72
8
 73
4
 74
0
 40
0
 40
0
 40
0
 40
0
 40
1
 40
1
 40
1
 40
1
 10
166.931085
 20
26.925776
 30
0.0
 10
166.774796
 20
27.147319
 30
0.0
 10
166.636868
 20
27.406259
 30
0.0
 10
166.541248
 20
27.705416
 30
0.0
  0
SPLINE
  5
282
100
AcDbEntity
  8
0
 62
5
100
AcDbSpline
 70
8
 71
3
 72
8
 73
4
 74
0
 40
0
 40
0
 40
0
 40
0
 40
1
 40
1
 40
1
 40
1
 10
166.541248
 20
27.705416
 30
0.0
 10
166.435071
 20
28.038085
 30
0.0
 10
166.405093
 20
28.345708
 30
0.0
 10
166.406152
 20
28.597591
 30
0.0
  0
LINE
  5
283
100
AcDbEntity
  8
0
 62
5
100
AcDbLine
 10
166.406152
 20
28.597591
 30
0.0
 11
166.406152
 21
30.350896
 31
0.0
  0
SPLINE
  5
284
100
AcDbEntity
  8
0
 62
5
100
AcDbSpline
 70
8
 71
3
 72
8
 73
4
 74
0
 40
0
 40
0
 40
0
 40
0
 40
1
 40
1
 40
1
 40
1
 10
166.406152
 20
30.350896
 30
0.0
 10
166.406152
 20
32.917711
 30
0.0
 10
164.525836
 20
35.169491
 30
0.0
 10
161.974907
 20
35.451008
 30
0.0
  0
SPLINE
  5
285
100
AcDbEntity
  8
0
 62
5
100
AcDbSpline
 70
8
 71
3
 72
8
 73
4
 74
0
 40
0
 40
0
 40
0
 40
0
 40
1
 40
1
 40
1
 40
1
 10
161.974907
 20
35.451008
 30
0.0
 10
158.958999
 20
35.784032
 30
0.0
 10
156.406297
 20
33.431355
 30
0.0
 10
156.406297
 20
30.482484
 30
0.0
  0
LINE
  5
286
100
AcDbEntity
  8
0
 62
5
100
AcDbLine
 10
156.406297
 20
30.482484
 30
0.0
 11
156.406297
 21
28.600060
 31
0.0
  0
SPLINE
  5
287
100
AcDbEntity
  8
0
 62
5
100
AcDbSpline
 70
8
 71
3
 72
8
 73
4
 74
0
 40
0
 40
0
 40
0
 40
0
 40
1
 40
1
 40
1
 40
1
 10
156.406297
 20
28.600060
 30
0.0
 10
156.406033
 20
28.343943
 30
0.0
 10
156.372774
 20
27.559011
 30
0.0
 10
155.810455
 20
26.805125
 30
0.0
  0
SPLINE
  5
288
100
AcDbEntity
  8
0
 62
5
100
AcDbSpline
 70
8
 71
3
 72
8
 73
4
 74
0
 40
0
 40
0
 40
0
 40
0
 40
1
 40
1
 40
1
 40
1
 10
155.810455
 20
26.805125
 30
0.0
 10
155.609028
 20
26.536661
 30
0.0
 10
155.800665
 20
26.153898
 30
0.0
 10
156.136422
 20
26.153544
 30
0.0
  0
LINE
  5
289
100
AcDbEntity
  8
0
 62
5
100
AcDbLine
 10
156.136422
 20
26.153544
 30
0.0
 11
166.514446
 21
26.150017
 31
0.0
  0
SPLINE
  5
28a
100
AcDbEntity
  8
0
 62
5
100
AcDbSpline
 70
8
 71
3
 72
8
 73
4
 74
0
 40
0
 40
0
 40
0
 40
0
 40
1
 40
1
 40
1
 40
1
 10
59.531290
 20
30.482238
 30
0.0
 10
59.531290
 20
31.930391
 30
0.0
 10
60.715566
 20
33.102319
 30
0.0
 10
62.168307
 20
33.081859
 30
0.0
  0
SPLINE
  5
28b
100
AcDbEntity
  8
0
 62
5
100
AcDbSpline
 70
8
 71
3
 72
8
 73
4
 74
0
 40
0
 40
0
 40
0
 40
0
 40
1
 40
1
 40
1
 40
1
 10
62.168307
 20
33.081859
 30
0.0
 10
63.549068
 20
33.062809
 30
0.0
 10
64.711833
 20
31.900406
 30
0.0
 10
64.731227
 20
30.519280
 30
0.0
  0
SPLINE
  5
28c
100
AcDbEntity
  8
0
 62
5
100
AcDbSpline
 70
8
 71
3
 72
8
 73
4
 74
0
 40
0
 40
0
 40
0
 40
0
 40
1
 40
1
 40
1
 40
1
 10
64.731227
 20
30.519280
 30
0.0
 10
64.751335
 20
29.066187
 30
0.0
 10
63.579759
 20
27.882263
 30
0.0
 10
62.131265
 20
27.882263
 30
0.0
  0
SPLINE
  5
28d
100
AcDbEntity
  8
0
 62
5
100
AcDbSpline
 70
8
 71
3
 72
8
 73
4
 74
0
 40
0
 40
0
 40
0
 40
0
 40
1
 40
1
 40
1
 40
1
 10
62.131265
 20
27.882263
 30
0.0
 10
60.695458
 20
27.882263
 30
0.0
 10
59.531290
 20
29.046431
 30
0.0
 10
59.531290
 20
30.482238
 30
0.0
  0
LINE
  5
28e
100
AcDbEntity
  8
0
 62
5
100
AcDbLine
 10
59.531290
 20
30.482238
 30
0.0
 11
59.531290
 21
30.482238
 31
0.0
  0
SPLINE
  5
28f
100
AcDbEntity
  8
0
 62
5
100
AcDbSpline
 70
8
 71
3
 72
8
 73
4
 74
0
 40
0
 40
0
 40
0
 40
0
 40
1
 40
1
 40
1
 40
1
 10
67.239531
 20
26.150017
 30
0.0
 10
67.638153
 20
26.150017
 30
0.0
 10
67.886174
 20
26.599809
 30
0.0
 10
67.656145
 20
26.925424
 30
0.0
  0
SPLINE
  5
290
100
AcDbEntity
  8
0
 62
5
100
AcDbSpline
 70
8
 71
3
 72
8
 73
4
 74
0
 40
0
 40
0
 40
0
 40
0
 40
1
 40
1
 40
1
 40
1
 10
67.656145
 20
26.925424
 30
0.0
 10
67.499882
 20
27.147322
 30
0.0
 10
67.361928
 20
27.406259
 30
0.0
 10
67.266334
 20
27.705064
 30
0.0
  0
SPLINE
  5
291
100
AcDbEntity
  8
0
 62
5
100
AcDbSpline
 70
8
 71
3
 72
8
 73
4
 74
0
 40
0
 40
0
 40
0
 40
0
 40
1
 40
1
 40
1
 40
1
 10
67.266334
 20
27.705064
 30
0.0
 10
67.160156
 20
28.038085
 30
0.0
 10
67.130153
 20
28.345356
 30
0.0
 10
67.131211
 20
28.597240
 30
0.0
  0
LINE
  5
292
100
AcDbEntity
  8
0
 62
5
100
AcDbLine
 10
67.131211
 20
28.597240
 30
0.0
 11
67.131211
 21
30.350899
 31
0.0
  0
SPLINE
  5
293
100
AcDbEntity
  8
0
 62
5
100
AcDbSpline
 70
8
 71
3
 72
8
 73
4
 74
0
 40
0
 40
0
 40
0
 40
0
 40
1
 40
1
 40
1
 40
1
 10
67.131211
 20
30.350899
 30
0.0
 10
67.131211
 20
32.917711
 30
0.0
 10
65.251266
 20
35.169139
 30
0.0
 10
62.699979
 20
35.450656
 30
0.0
  0
SPLINE
  5
294
100
AcDbEntity
  8
0
 62
5
100
AcDbSpline
 70
8
 71
3
 72
8
 73
4
 74
0
 40
0
 40
0
 40
0
 40
0
 40
1
 40
1
 40
1
 40
1
 10
62.699979
 20
35.450656
 30
0.0
 10
59.684079
 20
35.783680
 30
0.0
 10
57.131378
 20
33.431355
 30
0.0
 10
57.131378
 20
30.482132
 30
0.0
  0
LINE
  5
295
100
AcDbEntity
  8
0
 62
5
100
AcDbLine
 10
57.131378
 20
30.482132
 30
0.0
 11
57.131378
 21
28.599708
 31
0.0
  0
SPLINE
  5
296
100
AcDbEntity
  8
0
 62
5
100
AcDbSpline
 70
8
 71
3
 72
8
 73
4
 74
0
 40
0
 40
0
 40
0
 40
0
 40
1
 40
1
 40
1
 40
1
 10
57.131378
 20
28.599708
 30
0.0
 10
57.131378
 20
28.343591
 30
0.0
 10
57.097863
 20
27.559014
 30
0.0
 10
56.535536
 20
26.804774
 30
0.0
  0
SPLINE
  5
297
100
AcDbEntity
  8
0
 62
5
100
AcDbSpline
 70
8
 71
3
 72
8
 73
4
 74
0
 40
0
 40
0
 40
0
 40
0
 40
1
 40
1
 40
1
 40
1
 10
56.535536
 20
26.804774
 30
0.0
 10
56.334100
 20
26.536663
 30
0.0
 10
56.525667
 20
26.153546
 30
0.0
 10
56.861502
 20
26.153546
 30
0.0
  0
LINE
  5
298
100
AcDbEntity
  8
0
 62
5
100
AcDbLine
 10
56.861502
 20
26.153546
 30
0.0
 11
67.239531
 21
26.150017
 31
0.0
  0
SPLINE
  5
299
100
AcDbEntity
  8
0
 62
5
100
AcDbSpline
 70
8
 71
3
 72
8
 73
4
 74
0
 40
0
 40
0
 40
0
 40
0
 40
1
 40
1
 40
1
 40
1
 10
73.713424
 20
30.482238
 30
0.0
 10
73.713424
 20
31.930391
 30
0.0
 10
74.897700
 20
33.102319
 30
0.0
 10
76.350441
 20
33.081859
 30
0.0
  0
SPLINE
  5
29a
100
AcDbEntity
  8
0
 62
5
100
AcDbSpline
 70
8
 71
3
 72
8
 73
4
 74
0
 40
0
 40
0
 40
0
 40
0
 40
1
 40
1
 40
1
 40
1
 10
76.350441
 20
33.081859
 30
0.0
 10
77.731202
 20
33.062809
 30
0.0
 10
78.893967
 20
31.900406
 30
0.0
 10
78.913361
 20
30.519280
 30
0.0
  0
SPLINE
  5
29b
100
AcDbEntity
  8
0
 62
5
100
AcDbSpline
 70
8
 71
3
 72
8
 73
4
 74
0
 40
0
 40
0
 40
0
 40
0
 40
1
 40
1
 40
1
 40
1
 10
78.913361
 20
30.519280
 30
0.0
 10
78.933469
 20
29.066187
 30
0.0
 10
77.761893
 20
27.882263
 30
0.0
 10
76.313399
 20
27.882263
 30
0.0
  0
SPLINE
  5
29c
100
AcDbEntity
  8
0
 62
5
100
AcDbSpline
 70
8
 71
3
 72
8
 73
4
 74
0
 40
0
 40
0
 40
0
 40
0
 40
1
 40
1
 40
1
 40
1
 10
76.313399
 20
27.882263
 30
0.0
 10
74.877592
 20
27.882263
 30
0.0
 10
73.713424
 20
29.046431
 30
0.0
 10
73.713424
 20
30.482238
 30
0.0
  0
LINE
  5
29d
100
AcDbEntity
  8
0
 62
5
100
AcDbLine
 10
73.713424
 20
30.482238
 30
0.0
 11
73.713424
 21
30.482238
 31
0.0
  0
SPLINE
  5
29e
100
AcDbEntity
  8
0
 62
5
100
AcDbSpline
 70
8
 71
3
 72
8
 73
4
 74
0
 40
0
 40
0
 40
0
 40
0
 40
1
 40
1
 40
1
 40
1
 10
81.421665
 20
26.150017
 30
0.0
 10
81.820287
 20
26.150017
 30
0.0
 10
82.068308
 20
26.599809
 30
0.0
 10
81.838279
 20
26.925424
 30
0.0
  0
SPLINE
  5
29f
100
AcDbEntity
  8
0
 62
5
100
AcDbSpline
 70
8
 71
3
 72
8
 73
4
 74
0
 40
0
 40
0
 40
0
 40
0
 40
1
 40
1
 40
1
 40
1
 10
81.838279
 20
26.925424
 30
0.0
 10
81.682016
 20
27.147322
 30
0.0
 10
81.544062
 20
27.406259
 30
0.0
 10
81.448468
 20
27.705064
 30
0.0
  0
SPLINE
  5
2a0
100
AcDbEntity
  8
0
 62
5
100
AcDbSpline
 70
8
 71
3
 72
8
 73
4
 74
0
 40
0
 40
0
 40
0
 40
0
 40
1
 40
1
 40
1
 40
1
 10
81.448468
 20
27.705064
 30
0.0
 10
81.342290
 20
28.038085
 30
0.0
 10
81.312287
 20
28.345356
 30
0.0
 10
81.313345
 20
28.597240
 30
0.0
  0
LINE
  5
2a1
100
AcDbEntity
  8
0
 62
5
100
AcDbLine
 10
81.313345
 20
28.597240
 30
0.0
 11
81.313345
 21
30.350899
 31
0.0
  0
SPLINE
  5
2a2
100
AcDbEntity
  8
0
 62
5
100
AcDbSpline
 70
8
 71
3
 72
8
 73
4
 74
0
 40
0
 40
0
 40
0
 40
0
 40
1
 40
1
 40
1
 40
1
 10
81.313345
 20
30.350899
 30
0.0
 10
81.313345
 20
32.917711
 30
0.0
 10
79.433400
 20
35.169139
 30
0.0
 10
76.882113
 20
35.450656
 30
0.0
  0
SPLINE
  5
2a3
100
AcDbEntity
  8
0
 62
5
100
AcDbSpline
 70
8
 71
3
 72
8
 73
4
 74
0
 40
0
 40
0
 40
0
 40
0
 40
1
 40
1
 40
1
 40
1
 10
76.882113
 20
35.450656
 30
0.0
 10
73.866213
 20
35.783680
 30
0.0
 10
71.313512
 20
33.431355
 30
0.0
 10
71.313512
 20
30.482132
 30
0.0
  0
LINE
  5
2a4
100
AcDbEntity
  8
0
 62
5
100
AcDbLine
 10
71.313512
 20
30.482132
 30
0.0
 11
71.313512
 21
28.599708
 31
0.0
  0
SPLINE
  5
2a5
100
AcDbEntity
  8
0
 62
5
100
AcDbSpline
 70
8
 71
3
 72
8
 73
4
 74
0
 40
0
 40
0
 40
0
 40
0
 40
1
 40
1
 40
1
 40
1
 10
71.313512
 20
28.599708
 30
0.0
 10
71.313512
 20
28.343591
 30
0.0
 10
71.279997
 20
27.559014
 30
0.0
 10
70.717670
 20
26.804774
 30
0.0
  0
SPLINE
  5
2a6
100
AcDbEntity
  8
0
 62
5
100
AcDbSpline
 70
8
 71
3
 72
8
 73
4
 74
0
 40
0
 40
0
 40
0
 40
0
 40
1
 40
1
 40
1
 40
1
 10
70.717670
 20
26.804774
 30
0.0
 10
70.516234
 20
26.536663
 30
0.0
 10
70.707801
 20
26.153546
 30
0.0
 10
71.043636
 20
26.153546
 30
0.0
  0
LINE
  5
2a7
100
AcDbEntity
  8
0
 62
5
100
AcDbLine
 10
71.043636
 20
26.153546
 30
0.0
 11
81.421665
 21
26.150017
 31
0.0
  0
SPLINE
  5
2a8
100
AcDbEntity
  8
0
 62
5
100
AcDbSpline
 70
8
 71
3
 72
8
 73
4
 74
0
 40
0
 40
0
 40
0
 40
0
 40
1
 40
1
 40
1
 40
1
 10
87.895550
 20
30.482238
 30
0.0
 10
87.895550
 20
31.930391
 30
0.0
 10
89.079826
 20
33.102319
 30
0.0
 10
90.532567
 20
33.081859
 30
0.0
  0
SPLINE
  5
2a9
100
AcDbEntity
  8
0
 62
5
100
AcDbSpline
 70
8
 71
3
 72
8
 73
4
 74
0
 40
0
 40
0
 40
0
 40
0
 40
1
 40
1
 40
1
 40
1
 10
90.532567
 20
33.081859
 30
0.0
 10
91.913328
 20
33.062809
 30
0.0
 10
93.076093
 20
31.900406
 30
0.0
 10
93.095487
 20
30.519280
 30
0.0
  0
SPLINE
  5
2aa
100
AcDbEntity
  8
0
 62
5
100
AcDbSpline
 70
8
 71
3
 72
8
 73
4
 74
0
 40
0
 40
0
 40
0
 40
0
 40
1
 40
1
 40
1
 40
1
 10
93.095487
 20
30.519280
 30
0.0
 10
93.115595
 20
29.066187
 30
0.0
 10
91.944019
 20
27.882263
 30
0.0
 10
90.495525
 20
27.882263
 30
0.0
  0
SPLINE
  5
2ab
100
AcDbEntity
  8
0
 62
5
100
AcDbSpline
 70
8
 71
3
 72
8
 73
4
 74
0
 40
0
 40
0
 40
0
 40
0
 40
1
 40
1
 40
1
 40
1
 10
90.495525
 20
27.882263
 30
0.0
 10
89.059718
 20
27.882263
 30
0.0
 10
87.895550
 20
29.046431
 30
0.0
 10
87.895550
 20
30.482238
 30
0.0
  0
LINE
  5
2ac
100
AcDbEntity
  8
0
 62
5
100
AcDbLine
 10
87.895550
 20
30.482238
 30
0.0
 11
87.895550
 21
30.482238
 31
0.0
  0
SPLINE
  5
2ad
100
AcDbEntity
  8
0
 62
5
100
AcDbSpline
 70
8
 71
3
 72
8
 73
4
 74
0
 40
0
 40
0
 40
0
 40
0
 40
1
 40
1
 40
1
 40
1
 10
95.603791
 20
26.150017
 30
0.0
 10
96.002413
 20
26.150017
 30
0.0
 10
96.250434
 20
26.599809
 30
0.0
 10
96.020405
 20
26.925424
 30
0.0
  0
SPLINE
  5
2ae
100
AcDbEntity
  8
0
 62
5
100
AcDbSpline
 70
8
 71
3
 72
8
 73
4
 74
0
 40
0
 40
0
 40
0
 40
0
 40
1
 40
1
 40
1
 40
1
 10
96.020405
 20
26.925424
 30
0.0
 10
95.864142
 20
27.147322
 30
0.0
 10
95.726188
 20
27.406259
 30
0.0
 10
95.630594
 20
27.705064
 30
0.0
  0
SPLINE
  5
2af
100
AcDbEntity
  8
0
 62
5
100
AcDbSpline
 70
8
 71
3
 72
8
 73
4
 74
0
 40
0
 40
0
 40
0
 40
0
 40
1
 40
1
 40
1
 40
1
 10
95.630594
 20
27.705064
 30
0.0
 10
95.524416
 20
28.038085
 30
0.0
 10
95.494413
 20
28.345356
 30
0.0
 10
95.495471
 20
28.597240
 30
0.0
  0
LINE
  5
2b0
100
AcDbEntity
  8
0
 62
5
100
AcDbLine
 10
95.495471
 20
28.597240
 30
0.0
 11
95.495471
 21
30.350899
 31
0.0
  0
SPLINE
  5
2b1
100
AcDbEntity
  8
0
 62
5
100
AcDbSpline
 70
8
 71
3
 72
8
 73
4
 74
0
 40
0
 40
0
 40
0
 40
0
 40
1
 40
1
 40
1
 40
1
 10
95.495471
 20
30.350899
 30
0.0
 10
95.495471
 20
32.917711
 30
0.0
 10
93.615526
 20
35.169139
 30
0.0
 10
91.064240
 20
35.450656
 30
0.0
  0
SPLINE
  5
2b2
100
AcDbEntity
  8
0
 62
5
100
AcDbSpline
 70
8
 71
3
 72
8
 73
4
 74
0
 40
0
 40
0
 40
0
 40
0
 40
1
 40
1
 40
1
 40
1
 10
91.064240
 20
35.450656
 30
0.0
 10
88.048339
 20
35.783680
 30
0.0
 10
85.495638
 20
33.431355
 30
0.0
 10
85.495638
 20
30.482132
 30
0.0
  0
LINE
  5
2b3
100
AcDbEntity
  8
0
 62
5
100
AcDbLine
 10
85.495638
 20
30.482132
 30
0.0
 11
85.495638
 21
28.599708
 31
0.0
  0
SPLINE
  5
2b4
100
AcDbEntity
  8
0
 62
5
100
AcDbSpline
 70
8
 71
3
 72
8
 73
4
 74
0
 40
0
 40
0
 40
0
 40
0
 40
1
 40
1
 40
1
 40
1
 10
85.495638
 20
28.599708
 30
0.0
 10
85.495638
 20
28.343591
 30
0.0
 10
85.462123
 20
27.559014
 30
0.0
 10
84.899796
 20
26.804774
 30
0.0
  0
SPLINE
  5
2b5
100
AcDbEntity
  8
0
 62
5
100
AcDbSpline
 70
8
 71
3
 72
8
 73
4
 74
0
 40
0
 40
0
 40
0
 40
0
 40
1
 40
1
 40
1
 40
1
 10
84.899796
 20
26.804774
 30
0.0
 10
84.698360
 20
26.536663
 30
0.0
 10
84.889927
 20
26.153546
 30
0.0
 10
85.225762
 20
26.153546
 30
0.0
  0
LINE
  5
2b6
100
AcDbEntity
  8
0
 62
5
100
AcDbLine
 10
85.225762
 20
26.153546
 30
0.0
 11
95.603791
 21
26.150017
 31
0.0
  0
SPLINE
  5
2b7
100
AcDbEntity
  8
0
 62
5
100
AcDbSpline
 70
8
 71
3
 72
8
 73
4
 74
0
 40
0
 40
0
 40
0
 40
0
 40
1
 40
1
 40
1
 40
1
 10
102.077690
 20
30.482238
 30
0.0
 10
102.077690
 20
31.930391
 30
0.0
 10
103.261965
 20
33.102319
 30
0.0
 10
104.714706
 20
33.081859
 30
0.0
  0
SPLINE
  5
2b8
100
AcDbEntity
  8
0
 62
5
100
AcDbSpline
 70
8
 71
3
 72
8
 73
4
 74
0
 40
0
 40
0
 40
0
 40
0
 40
1
 40
1
 40
1
 40
1
 10
104.714706
 20
33.081859
 30
0.0
 10
106.095467
 20
33.062809
 30
0.0
 10
107.258232
 20
31.900406
 30
0.0
 10
107.277626
 20
30.519280
 30
0.0
  0
SPLINE
  5
2b9
100
AcDbEntity
  8
0
 62
5
100
AcDbSpline
 70
8
 71
3
 72
8
 73
4
 74
0
 40
0
 40
0
 40
0
 40
0
 40
1
 40
1
 40
1
 40
1
 10
107.277626
 20
30.519280
 30
0.0
 10
107.297735
 20
29.066187
 30
0.0
 10
106.126159
 20
27.882263
 30
0.0
 10
104.677665
 20
27.882263
 30
0.0
  0
SPLINE
  5
2ba
100
AcDbEntity
  8
0
 62
5
100
AcDbSpline
 70
8
 71
3
 72
8
 73
4
 74
0
 40
0
 40
0
 40
0
 40
0
 40
1
 40
1
 40
1
 40
1
 10
104.677665
 20
27.882263
 30
0.0
 10
103.241857
 20
27.882263
 30
0.0
 10
102.077690
 20
29.046431
 30
0.0
 10
102.077690
 20
30.482238
 30
0.0
  0
LINE
  5
2bb
100
AcDbEntity
  8
0
 62
5
100
AcDbLine
 10
102.077690
 20
30.482238
 30
0.0
 11
102.077690
 21
30.482238
 31
0.0
  0
SPLINE
  5
2bc
100
AcDbEntity
  8
0
 62
5
100
AcDbSpline
 70
8
 71
3
 72
8
 73
4
 74
0
 40
0
 40
0
 40
0
 40
0
 40
1
 40
1
 40
1
 40
1
 10
109.785931
 20
26.150017
 30
0.0
 10
110.184552
 20
26.150017
 30
0.0
 10
110.432573
 20
26.599809
 30
0.0
 10
110.202544
 20
26.925424
 30
0.0
  0
SPLINE
  5
2bd
100
AcDbEntity
  8
0
 62
5
100
AcDbSpline
 70
8
 71
3
 72
8
 73
4
 74
0
 40
0
 40
0
 40
0
 40
0
 40
1
 40
1
 40
1
 40
1
 10
110.202544
 20
26.925424
 30
0.0
 10
110.046281
 20
27.147322
 30
0.0
 10
109.908327
 20
27.406259
 30
0.0
 10
109.812733
 20
27.705064
 30
0.0
  0
SPLINE
  5
2be
100
AcDbEntity
  8
0
 62
5
100
AcDbSpline
 70
8
 71
3
 72
8
 73
4
 74
0
 40
0
 40
0
 40
0
 40
0
 40
1
 40
1
 40
1
 40
1
 10
109.812733
 20
27.705064
 30
0.0
 10
109.706556
 20
28.038085
 30
0.0
 10
109.676552
 20
28.345356
 30
0.0
 10
109.677610
 20
28.597240
 30
0.0
  0
LINE
  5
2bf
100
AcDbEntity
  8
0
 62
5
100
AcDbLine
 10
109.677610
 20
28.597240
 30
0.0
 11
109.677610
 21
30.350899
 31
0.0
  0
SPLINE
  5
2c0
100
AcDbEntity
  8
0
 62
5
100
AcDbSpline
 70
8
 71
3
 72
8
 73
4
 74
0
 40
0
 40
0
 40
0
 40
0
 40
1
 40
1
 40
1
 40
1
 10
109.677610
 20
30.350899
 30
0.0
 10
109.677610
 20
32.917711
 30
0.0
 10
107.797665
 20
35.169139
 30
0.0
 10
105.246379
 20
35.450656
 30
0.0
  0
SPLINE
  5
2c1
100
AcDbEntity
  8
0
 62
5
100
AcDbSpline
 70
8
 71
3
 72
8
 73
4
 74
0
 40
0
 40
0
 40
0
 40
0
 40
1
 40
1
 40
1
 40
1
 10
105.246379
 20
35.450656
 30
0.0
 10
102.230479
 20
35.783680
 30
0.0
 10
99.677777
 20
33.431355
 30
0.0
 10
99.677777
 20
30.482132
 30
0.0
  0
LINE
  5
2c2
100
AcDbEntity
  8
0
 62
5
100
AcDbLine
 10
99.677777
 20
30.482132
 30
0.0
 11
99.677777
 21
28.599708
 31
0.0
  0
SPLINE
  5
2c3
100
AcDbEntity
  8
0
 62
5
100
AcDbSpline
 70
8
 71
3
 72
8
 73
4
 74
0
 40
0
 40
0
 40
0
 40
0
 40
1
 40
1
 40
1
 40
1
 10
99.677777
 20
28.599708
 30
0.0
 10
99.677777
 20
28.343591
 30
0.0
 10
99.644262
 20
27.559014
 30
0.0
 10
99.081935
 20
26.804774
 30
0.0
  0
SPLINE
  5
2c4
100
AcDbEntity
  8
0
 62
5
100
AcDbSpline
 70
8
 71
3
 72
8
 73
4
 74
0
 40
0
 40
0
 40
0
 40
0
 40
1
 40
1
 40
1
 40
1
 10
99.081935
 20
26.804774
 30
0.0
 10
98.880500
 20
26.536663
 30
0.0
 10
99.072066
 20
26.153546
 30
0.0
 10
99.407902
 20
26.153546
 30
0.0
  0
LINE
  5
2c5
100
AcDbEntity
  8
0
 62
5
100
AcDbLine
 10
99.407902
 20
26.153546
 30
0.0
 11
109.785931
 21
26.150017
 31
0.0
  0
SPLINE
  5
2c6
100
AcDbEntity
  8
0
 62
5
100
AcDbSpline
 70
8
 71
3
 72
8
 73
4
 74
0
 40
0
 40
0
 40
0
 40
0
 40
1
 40
1
 40
1
 40
1
 10
24.390877
 20
30.482238
 30
0.0
 10
24.390877
 20
31.930391
 30
0.0
 10
25.575153
 20
33.102319
 30
0.0
 10
27.027894
 20
33.081859
 30
0.0
  0
SPLINE
  5
2c7
100
AcDbEntity
  8
0
 62
5
100
AcDbSpline
 70
8
 71
3
 72
8
 73
4
 74
0
 40
0
 40
0
 40
0
 40
0
 40
1
 40
1
 40
1
 40
1
 10
27.027894
 20
33.081859
 30
0.0
 10
28.408655
 20
33.062809
 30
0.0
 10
29.571420
 20
31.900406
 30
0.0
 10
29.590814
 20
30.519280
 30
0.0
  0
SPLINE
  5
2c8
100
AcDbEntity
  8
0
 62
5
100
AcDbSpline
 70
8
 71
3
 72
8
 73
4
 74
0
 40
0
 40
0
 40
0
 40
0
 40
1
 40
1
 40
1
 40
1
 10
29.590814
 20
30.519280
 30
0.0
 10
29.610922
 20
29.066187
 30
0.0
 10
28.439346
 20
27.882263
 30
0.0
 10
26.990852
 20
27.882263
 30
0.0
  0
SPLINE
  5
2c9
100
AcDbEntity
  8
0
 62
5
100
AcDbSpline
 70
8
 71
3
 72
8
 73
4
 74
0
 40
0
 40
0
 40
0
 40
0
 40
1
 40
1
 40
1
 40
1
 10
26.990852
 20
27.882263
 30
0.0
 10
25.555044
 20
27.882263
 30
0.0
 10
24.390877
 20
29.046431
 30
0.0
 10
24.390877
 20
30.482238
 30
0.0
  0
LINE
  5
2ca
100
AcDbEntity
  8
0
 62
5
100
AcDbLine
 10
24.390877
 20
30.482238
 30
0.0
 11
24.390877
 21
30.482238
 31
0.0
  0
SPLINE
  5
2cb
100
AcDbEntity
  8
0
 62
5
100
AcDbSpline
 70
8
 71
3
 72
8
 73
4
 74
0
 40
0
 40
0
 40
0
 40
0
 40
1
 40
1
 40
1
 40
1
 10
32.099118
 20
26.150017
 30
0.0
 10
32.497740
 20
26.150017
 30
0.0
 10
32.745760
 20
26.599809
 30
0.0
 10
32.515731
 20
26.925424
 30
0.0
  0
SPLINE
  5
2cc
100
AcDbEntity
  8
0
 62
5
100
AcDbSpline
 70
8
 71
3
 72
8
 73
4
 74
0
 40
0
 40
0
 40
0
 40
0
 40
1
 40
1
 40
1
 40
1
 10
32.515731
 20
26.925424
 30
0.0
 10
32.359468
 20
27.147322
 30
0.0
 10
32.221515
 20
27.406259
 30
0.0
 10
32.125921
 20
27.705064
 30
0.0
  0
SPLINE
  5
2cd
100
AcDbEntity
  8
0
 62
5
100
AcDbSpline
 70
8
 71
3
 72
8
 73
4
 74
0
 40
0
 40
0
 40
0
 40
0
 40
1
 40
1
 40
1
 40
1
 10
32.125921
 20
27.705064
 30
0.0
 10
32.019743
 20
28.038085
 30
0.0
 10
31.989739
 20
28.345356
 30
0.0
 10
31.990798
 20
28.597240
 30
0.0
  0
LINE
  5
2ce
100
AcDbEntity
  8
0
 62
5
100
AcDbLine
 10
31.990798
 20
28.597240
 30
0.0
 11
31.990798
 21
30.350899
 31
0.0
  0
SPLINE
  5
2cf
100
AcDbEntity
  8
0
 62
5
100
AcDbSpline
 70
8
 71
3
 72
8
 73
4
 74
0
 40
0
 40
0
 40
0
 40
0
 40
1
 40
1
 40
1
 40
1
 10
31.990798
 20
30.350899
 30
0.0
 10
31.990798
 20
32.917711
 30
0.0
 10
30.110853
 20
35.169139
 30
0.0
 10
27.559566
 20
35.450656
 30
0.0
  0
SPLINE
  5
2d0
100
AcDbEntity
  8
0
 62
5
100
AcDbSpline
 70
8
 71
3
 72
8
 73
4
 74
0
 40
0
 40
0
 40
0
 40
0
 40
1
 40
1
 40
1
 40
1
 10
27.559566
 20
35.450656
 30
0.0
 10
24.543666
 20
35.783680
 30
0.0
 10
21.990964
 20
33.431355
 30
0.0
 10
21.990964
 20
30.482132
 30
0.0
  0
LINE
  5
2d1
100
AcDbEntity
  8
0
 62
5
100
AcDbLine
 10
21.990964
 20
30.482132
 30
0.0
 11
21.990964
 21
28.599708
 31
0.0
  0
SPLINE
  5
2d2
100
AcDbEntity
  8
0
 62
5
100
AcDbSpline
 70
8
 71
3
 72
8
 73
4
 74
0
 40
0
 40
0
 40
0
 40
0
 40
1
 40
1
 40
1
 40
1
 10
21.990964
 20
28.599708
 30
0.0
 10
21.990964
 20
28.343591
 30
0.0
 10
21.957449
 20
27.559014
 30
0.0
 10
21.395122
 20
26.804774
 30
0.0
  0
SPLINE
  5
2d3
100
AcDbEntity
  8
0
 62
5
100
AcDbSpline
 70
8
 71
3
 72
8
 73
4
 74
0
 40
0
 40
0
 40
0
 40
0
 40
1
 40
1
 40
1
 40
1
 10
21.395122
 20
26.804774
 30
0.0
 10
21.193687
 20
26.536663
 30
0.0
 10
21.385253
 20
26.153546
 30
0.0
 10
21.721089
 20
26.153546
 30
0.0
  0
LINE
  5
2d4
100
AcDbEntity
  8
0
 62
5
100
AcDbLine
 10
21.721089
 20
26.153546
 30
0.0
 11
32.099118
 21
26.150017
 31
0.0
  0
SPLINE
  5
2d5
100
AcDbEntity
  8
0
 62
5
100
AcDbSpline
 70
8
 71
3
 72
8
 73
4
 74
0
 40
0
 40
0
 40
0
 40
0
 40
1
 40
1
 40
1
 40
1
 10
39.687527
 20
30.482238
 30
0.0
 10
39.687527
 20
31.930391
 30
0.0
 10
40.871803
 20
33.102319
 30
0.0
 10
42.324543
 20
33.081859
 30
0.0
  0
SPLINE
  5
2d6
100
AcDbEntity
  8
0
 62
5
100
AcDbSpline
 70
8
 71
3
 72
8
 73
4
 74
0
 40
0
 40
0
 40
0
 40
0
 40
1
 40
1
 40
1
 40
1
 10
42.324543
 20
33.081859
 30
0.0
 10
43.705304
 20
33.062809
 30
0.0
 10
44.868069
 20
31.900406
 30
0.0
 10
44.887463
 20
30.519280
 30
0.0
  0
SPLINE
  5
2d7
100
AcDbEntity
  8
0
 62
5
100
AcDbSpline
 70
8
 71
3
 72
8
 73
4
 74
0
 40
0
 40
0
 40
0
 40
0
 40
1
 40
1
 40
1
 40
1
 10
44.887463
 20
30.519280
 30
0.0
 10
44.907572
 20
29.066187
 30
0.0
 10
43.735996
 20
27.882263
 30
0.0
 10
42.287502
 20
27.882263
 30
0.0
  0
SPLINE
  5
2d8
100
AcDbEntity
  8
0
 62
5
100
AcDbSpline
 70
8
 71
3
 72
8
 73
4
 74
0
 40
0
 40
0
 40
0
 40
0
 40
1
 40
1
 40
1
 40
1
 10
42.287502
 20
27.882263
 30
0.0
 10
40.851694
 20
27.882263
 30
0.0
 10
39.687527
 20
29.046431
 30
0.0
 10
39.687527
 20
30.482238
 30
0.0
  0
LINE
  5
2d9
100
AcDbEntity
  8
0
 62
5
100
AcDbLine
 10
39.687527
 20
30.482238
 30
0.0
 11
39.687527
 21
30.482238
 31
0.0
  0
SPLINE
  5
2da
100
AcDbEntity
  8
0
 62
5
100
AcDbSpline
 70
8
 71
3
 72
8
 73
4
 74
0
 40
0
 40
0
 40
0
 40
0
 40
1
 40
1
 40
1
 40
1
 10
47.395768
 20
26.150017
 30
0.0
 10
47.794390
 20
26.150017
 30
0.0
 10
48.042410
 20
26.599809
 30
0.0
 10
47.812381
 20
26.925424
 30
0.0
  0
SPLINE
  5
2db
100
AcDbEntity
  8
0
 62
5
100
AcDbSpline
 70
8
 71
3
 72
8
 73
4
 74
0
 40
0
 40
0
 40
0
 40
0
 40
1
 40
1
 40
1
 40
1
 10
47.812381
 20
26.925424
 30
0.0
 10
47.656118
 20
27.147322
 30
0.0
 10
47.518164
 20
27.406259
 30
0.0
 10
47.422570
 20
27.705064
 30
0.0
  0
SPLINE
  5
2dc
100
AcDbEntity
  8
0
 62
5
100
AcDbSpline
 70
8
 71
3
 72
8
 73
4
 74
0
 40
0
 40
0
 40
0
 40
0
 40
1
 40
1
 40
1
 40
1
 10
47.422570
 20
27.705064
 30
0.0
 10
47.316393
 20
28.038085
 30
0.0
 10
47.286389
 20
28.345356
 30
0.0
 10
47.287447
 20
28.597240
 30
0.0
  0
LINE
  5
2dd
100
AcDbEntity
  8
0
 62
5
100
AcDbLine
 10
47.287447
 20
28.597240
 30
0.0
 11
47.287447
 21
30.350899
 31
0.0
  0
SPLINE
  5
2de
100
AcDbEntity
  8
0
 62
5
100
AcDbSpline
 70
8
 71
3
 72
8
 73
4
 74
0
 40
0
 40
0
 40
0
 40
0
 40
1
 40
1
 40
1
 40
1
 10
47.287447
 20
30.350899
 30
0.0
 10
47.287447
 20
32.917711
 30
0.0
 10
45.407502
 20
35.169139
 30
0.0
 10
42.856216
 20
35.450656
 30
0.0
  0
SPLINE
  5
2df
100
AcDbEntity
  8
0
 62
5
100
AcDbSpline
 70
8
 71
3
 72
8
 73
4
 74
0
 40
0
 40
0
 40
0
 40
0
 40
1
 40
1
 40
1
 40
1
 10
42.856216
 20
35.450656
 30
0.0
 10
39.840316
 20
35.783680
 30
0.0
 10
37.287614
 20
33.431355
 30
0.0
 10
37.287614
 20
30.482132
 30
0.0
  0
LINE
  5
2e0
100
AcDbEntity
  8
0
 62
5
100
AcDbLine
 10
37.287614
 20
30.482132
 30
0.0
 11
37.287614
 21
28.599708
 31
0.0
  0
SPLINE
  5
2e1
100
AcDbEntity
  8
0
 62
5
100
AcDbSpline
 70
8
 71
3
 72
8
 73
4
 74
0
 40
0
 40
0
 40
0
 40
0
 40
1
 40
1
 40
1
 40
1
 10
37.287614
 20
28.599708
 30
0.0
 10
37.287614
 20
28.343591
 30
0.0
 10
37.254099
 20
27.559014
 30
0.0
 10
36.691772
 20
26.804774
 30
0.0
  0
SPLINE
  5
2e2
100
AcDbEntity
  8
0
 62
5
100
AcDbSpline
 70
8
 71
3
 72
8
 73
4
 74
0
 40
0
 40
0
 40
0
 40
0
 40
1
 40
1
 40
1
 40
1
 10
36.691772
 20
26.804774
 30
0.0
 10
36.490337
 20
26.536663
 30
0.0
 10
36.681903
 20
26.153546
 30
0.0
 10
37.017739
 20
26.153546
 30
0.0
  0
LINE
  5
2e3
100
AcDbEntity
  8
0
 62
5
100
AcDbLine
 10
37.017739
 20
26.153546
 30
0.0
 11
47.395768
 21
26.150017
 31
0.0
  0
SPLINE
  5
2e4
100
AcDbEntity
  8
0
 62
5
100
AcDbSpline
 70
8
 71
3
 72
8
 73
4
 74
0
 40
0
 40
0
 40
0
 40
0
 40
1
 40
1
 40
1
 40
1
 10
179.182990
 20
65.626911
 30
0.0
 10
178.906410
 20
65.626911
 30
0.0
 10
178.683102
 20
65.850291
 30
0.0
 10
178.683102
 20
66.126162
 30
0.0
  0
SPLINE
  5
2e5
100
AcDbEntity
  8
0
 62
5
100
AcDbSpline
 70
8
 71
3
 72
8
 73
4
 74
0
 40
0
 40
0
 40
0
 40
0
 40
1
 40
1
 40
1
 40
1
 10
178.682750
 20
102.125757
 30
0.0
 10
178.682750
 20
102.401628
 30
0.0
 10
178.459089
 20
102.625637
 30
0.0
 10
178.183216
 20
102.625637
 30
0.0
  0
LINE
  5
2e6
100
AcDbEntity
  8
0
 62
5
100
AcDbLine
 10
178.683456
 20
66.126162
 30
0.0
 11
178.683456
 21
102.123987
 31
0.0
  0
SPLINE
  5
2e7
100
AcDbEntity
  8
0
 62
5
100
AcDbSpline
 70
8
 71
3
 72
8
 73
4
 74
0
 40
0
 40
0
 40
0
 40
0
 40
1
 40
1
 40
1
 40
1
 10
174.433187
 20
102.624936
 30
0.0
 10
174.156962
 20
102.624936
 30
0.0
 10
173.932947
 20
102.849308
 30
0.0
 10
173.932947
 20
103.125176
 30
0.0
  0
LINE
  5
2e8
100
AcDbEntity
  8
0
 62
5
100
AcDbLine
 10
178.183216
 20
102.625288
 30
0.0
 11
174.433187
 21
102.625288
 31
0.0
  0
SPLINE
  5
2e9
100
AcDbEntity
  8
0
 62
5
100
AcDbSpline
 70
8
 71
3
 72
8
 73
4
 74
0
 40
0
 40
0
 40
0
 40
0
 40
1
 40
1
 40
1
 40
1
 10
173.932947
 20
121.125319
 30
0.0
 10
173.932947
 20
121.401190
 30
0.0
 10
173.708932
 20
121.624149
 30
0.0
 10
173.433061
 20
121.624149
 30
0.0
  0
LINE
  5
2ea
100
AcDbEntity
  8
0
 62
5
100
AcDbLine
 10
173.933653
 20
103.125176
 30
0.0
 11
173.933653
 21
121.124261
 31
0.0
  0
SPLINE
  5
2eb
100
AcDbEntity
  8
0
 62
5
100
AcDbSpline
 70
8
 71
3
 72
8
 73
4
 74
0
 40
0
 40
0
 40
0
 40
0
 40
1
 40
1
 40
1
 40
1
 10
172.183169
 20
121.624149
 30
0.0
 10
171.907295
 20
121.624149
 30
0.0
 10
171.683280
 20
121.849220
 30
0.0
 10
171.683280
 20
122.125090
 30
0.0
  0
LINE
  5
2ec
100
AcDbEntity
  8
0
 62
5
100
AcDbLine
 10
173.433413
 20
121.624149
 30
0.0
 11
172.183872
 21
121.624149
 31
0.0
  0
SPLINE
  5
2ed
100
AcDbEntity
  8
0
 62
5
100
AcDbSpline
 70
8
 71
3
 72
8
 73
4
 74
0
 40
0
 40
0
 40
0
 40
0
 40
1
 40
1
 40
1
 40
1
 10
171.682928
 20
143.124205
 30
0.0
 10
171.682928
 20
143.400084
 30
0.0
 10
171.907295
 20
143.624096
 30
0.0
 10
172.183169
 20
143.624096
 30
0.0
  0
LINE
  5
2ee
100
AcDbEntity
  8
0
 62
5
100
AcDbLine
 10
171.683632
 20
122.124040
 30
0.0
 11
171.683632
 21
143.124205
 31
0.0
  0
SPLINE
  5
2ef
100
AcDbEntity
  8
0
 62
5
100
AcDbSpline
 70
8
 71
3
 72
8
 73
4
 74
0
 40
0
 40
0
 40
0
 40
0
 40
1
 40
1
 40
1
 40
1
 10
173.433413
 20
143.624096
 30
0.0
 10
173.709286
 20
143.624096
 30
0.0
 10
173.932947
 20
143.847756
 30
0.0
 10
173.932947
 20
144.124336
 30
0.0
  0
LINE
  5
2f0
100
AcDbEntity
  8
0
 62
5
100
AcDbLine
 10
172.183872
 20
143.624096
 30
0.0
 11
173.433413
 21
143.624096
 31
0.0
  0
SPLINE
  5
2f1
100
AcDbEntity
  8
0
 62
5
100
AcDbSpline
 70
8
 71
3
 72
8
 73
4
 74
0
 40
0
 40
0
 40
0
 40
0
 40
1
 40
1
 40
1
 40
1
 10
173.932947
 20
162.123069
 30
0.0
 10
173.932947
 20
162.399649
 30
0.0
 10
174.157313
 20
162.623309
 30
0.0
 10
174.433187
 20
162.623309
 30
0.0
  0
LINE
  5
2f2
100
AcDbEntity
  8
0
 62
5
100
AcDbLine
 10
173.933653
 20
144.124336
 30
0.0
 11
173.933653
 21
162.123069
 31
0.0
  0
SPLINE
  5
2f3
100
AcDbEntity
  8
0
 62
5
100
AcDbSpline
 70
8
 71
3
 72
8
 73
4
 74
0
 40
0
 40
0
 40
0
 40
0
 40
1
 40
1
 40
1
 40
1
 10
175.933198
 20
162.623309
 30
0.0
 10
176.209071
 20
162.623309
 30
0.0
 10
176.433084
 20
162.846617
 30
0.0
 10
176.433084
 20
163.123200
 30
0.0
  0
LINE
  5
2f4
100
AcDbEntity
  8
0
 62
5
100
AcDbLine
 10
174.433187
 20
162.623309
 30
0.0
 11
175.933198
 21
162.623309
 31
0.0
  0
LINE
  5
2f5
100
AcDbEntity
  8
0
 62
5
100
AcDbLine
 10
176.433438
 20
163.123200
 30
0.0
 11
176.433438
 21
170.603494
 31
0.0
  0
LINE
  5
2f6
100
AcDbEntity
  8
0
 62
5
100
AcDbLine
 10
176.433438
 20
170.603494
 30
0.0
 11
176.433438
 21
190.130397
 31
0.0
  0
LINE
  5
2f7
100
AcDbEntity
  8
0
 62
5
100
AcDbLine
 10
176.433438
 20
190.130397
 30
0.0
 11
176.433438
 21
199.349203
 31
0.0
  0
SPLINE
  5
2f8
100
AcDbEntity
  8
0
 62
5
100
AcDbSpline
 70
8
 71
3
 72
8
 73
4
 74
0
 40
0
 40
0
 40
0
 40
0
 40
1
 40
1
 40
1
 40
1
 10
176.432732
 20
199.349198
 30
0.0
 10
176.432732
 20
199.625768
 30
0.0
 10
176.657450
 20
199.850139
 30
0.0
 10
176.933324
 20
199.850139
 30
0.0
  0
LINE
  5
2f9
100
AcDbEntity
  8
0
 62
5
100
AcDbLine
 10
176.934030
 20
199.850139
 30
0.0
 11
199.850135
 21
199.850139
 31
0.0
  0
LINE
  5
2fa
100
AcDbEntity
  8
0
 62
5
100
AcDbLine
 10
199.850135
 20
199.850139
 30
0.0
 11
199.850135
 21
189.582532
 31
0.0
  0
LINE
  5
2fb
100
AcDbEntity
  8
0
 62
5
100
AcDbLine
 10
199.850135
 20
189.582532
 30
0.0
 11
199.850135
 21
170.055629
 31
0.0
  0
LINE
  5
2fc
100
AcDbEntity
  8
0
 62
5
100
AcDbLine
 10
199.850135
 20
170.055629
 30
0.0
 11
199.850135
 21
65.626237
 31
0.0
  0
LINE
  5
2fd
100
AcDbEntity
  8
0
 62
5
100
AcDbLine
 10
199.850135
 20
65.626237
 30
0.0
 11
179.182635
 21
65.626237
 31
0.0
  0
SPLINE
  5
2fe
100
AcDbEntity
  8
0
 62
5
100
AcDbSpline
 70
8
 71
3
 72
8
 73
4
 74
0
 40
0
 40
0
 40
0
 40
0
 40
1
 40
1
 40
1
 40
1
 10
193.682172
 20
160.042387
 30
0.0
 10
194.289653
 20
160.043181
 30
0.0
 10
194.782133
 20
160.534867
 30
0.0
 10
194.782133
 20
161.142348
 30
0.0
  0
SPLINE
  5
2ff
100
AcDbEntity
  8
0
 62
5
100
AcDbSpline
 70
8
 71
3
 72
8
 73
4
 74
0
 40
0
 40
0
 40
0
 40
0
 40
1
 40
1
 40
1
 40
1
 10
194.782133
 20
161.142348
 30
0.0
 10
194.782133
 20
161.749829
 30
0.0
 10
194.289653
 20
162.243018
 30
0.0
 10
193.682172
 20
162.243018
 30
0.0
  0
SPLINE
  5
300
100
AcDbEntity
  8
0
 62
5
100
AcDbSpline
 70
8
 71
3
 72
8
 73
4
 74
0
 40
0
 40
0
 40
0
 40
0
 40
1
 40
1
 40
1
 40
1
 10
193.682172
 20
162.243018
 30
0.0
 10
193.074680
 20
162.243018
 30
0.0
 10
192.582200
 20
161.749829
 30
0.0
 10
192.582200
 20
161.142348
 30
0.0
  0
SPLINE
  5
301
100
AcDbEntity
  8
0
 62
5
100
AcDbSpline
 70
8
 71
3
 72
8
 73
4
 74
0
 40
0
 40
0
 40
0
 40
0
 40
1
 40
1
 40
1
 40
1
 10
192.582200
 20
161.142348
 30
0.0
 10
192.582200
 20
160.534867
 30
0.0
 10
193.074680
 20
160.043085
 30
0.0
 10
193.682172
 20
160.043085
 30
0.0
  0
SPLINE
  5
302
100
AcDbEntity
  8
0
 62
5
100
AcDbSpline
 70
8
 71
3
 72
8
 73
4
 74
0
 40
0
 40
0
 40
0
 40
0
 40
1
 40
1
 40
1
 40
1
 10
197.304495
 20
84.028983
 30
0.0
 10
197.911973
 20
84.028983
 30
0.0
 10
198.404456
 20
84.521495
 30
0.0
 10
198.404456
 20
85.128944
 30
0.0
  0
SPLINE
  5
303
100
AcDbEntity
  8
0
 62
5
100
AcDbSpline
 70
8
 71
3
 72
8
 73
4
 74
0
 40
0
 40
0
 40
0
 40
0
 40
1
 40
1
 40
1
 40
1
 10
198.404456
 20
85.128944
 30
0.0
 10
198.404456
 20
85.736356
 30
0.0
 10
197.911973
 20
86.228865
 30
0.0
 10
197.304495
 20
86.228865
 30
0.0
  0
SPLINE
  5
304
100
AcDbEntity
  8
0
 62
5
100
AcDbSpline
 70
8
 71
3
 72
8
 73
4
 74
0
 40
0
 40
0
 40
0
 40
0
 40
1
 40
1
 40
1
 40
1
 10
197.304495
 20
86.228865
 30
0.0
 10
196.697003
 20
86.228865
 30
0.0
 10
196.204534
 20
85.736356
 30
0.0
 10
196.204534
 20
85.128944
 30
0.0
  0
SPLINE
  5
305
100
AcDbEntity
  8
0
 62
5
100
AcDbSpline
 70
8
 71
3
 72
8
 73
4
 74
0
 40
0
 40
0
 40
0
 40
0
 40
1
 40
1
 40
1
 40
1
 10
196.204534
 20
85.128944
 30
0.0
 10
196.204534
 20
84.521495
 30
0.0
 10
196.697003
 20
84.028983
 30
0.0
 10
197.304495
 20
84.028983
 30
0.0
  0
ENDSEC
  0
SECTION
  2
OBJECTS
  0
DICTIONARY
  5
C
330
0
100
AcDbDictionary
  3
ACAD_GROUP
350
D
  3
ACAD_MLINESTYLE
350
17
  0
DICTIONARY
  5
D
330
C
100
AcDbDictionary
  0
DICTIONARY
  5
1A
330
C
100
AcDbDictionary
  0
DICTIONARY
  5
17
330
C
100
AcDbDictionary
  3
STANDARD
350
18
  0
DICTIONARY
  5
19
330
C
100
AcDbDictionary
  0
ENDSEC
  0
EOF
