  0
SECTION
  2
HEADER
  9
$ACADVER
  1
AC1014
  9
$HANDSEED
  5
FFFF
  9
$MEASUREMENT
 70
     1
  0
ENDSEC
  0
SECTION
  2
TABLES
  0
TABLE
  2
VPORT
  5
8
330
0
100
AcDbSymbolTable
 70
     4
  0
VPORT
  5
2E
330
8
100
AcDbSymbolTableRecord
100
AcDbViewportTableRecord
  2
*ACTIVE
 70
     0
 10
0.0
 20
0.0
 11
1.0
 21
1.0
 12
210.0
 22
148.5
 13
0.0
 23
0.0
 14
10.0
 24
10.0
 15
10.0
 25
10.0
 16
0.0
 26
0.0
 36
1.0
 17
0.0
 27
0.0
 37
0.0
 40
341.0
 41
1.24
 42
50.0
 43
0.0
 44
0.0
 50
0.0
 51
0.0
 71
     0
 72
   100
 73
     1
 74
     3
 75
     0
 76
     0
 77
     0
 78
     0
  0
ENDTAB
  0
TABLE
  2
LTYPE
  5
5
330
0
100
AcDbSymbolTable
 70
     1
  0
LTYPE
  5
14
330
5
100
AcDbSymbolTableRecord
100
AcDbLinetypeTableRecord
  2
BYBLOCK
 70
     0
  3

 72
    65
 73
     0
 40
0.0
  0
LTYPE
  5
15
330
5
100
AcDbSymbolTableRecord
100
AcDbLinetypeTableRecord
  2
BYLAYER
 70
     0
  3

 72
    65
 73
     0
 40
0.0
  0
LTYPE
  5
16
330
5
100
AcDbSymbolTableRecord
100
AcDbLinetypeTableRecord
  2
CONTINUOUS
 70
     0
  3
Solid line
 72
    65
 73
     0
 40
0.0
  0
ENDTAB
  0
TABLE
  2
LAYER
  5
2
100
AcDbSymbolTable
 70
1
  0
LAYER
  5
50
100
AcDbSymbolTableRecord
100
AcDbLayerTableRecord
  2
0
 70
0
  6
CONTINUOUS
  0
ENDTAB
  0
TABLE
  2
STYLE
  5
3
330
0
100
AcDbSymbolTable
 70
     1
  0
STYLE
  5
11
330
3
100
AcDbSymbolTableRecord
100
AcDbTextStyleTableRecord
  2
STANDARD
 70
     0
 40
0.0
 41
1.0
 50
0.0
 71
     0
 42
2.5
  3
txt
  4

  0
ENDTAB
  0
TABLE
  2
VIEW
  5
6
330
0
100
AcDbSymbolTable
 70
     0
  0
ENDTAB
  0
TABLE
  2
UCS
  5
7
330
0
100
AcDbSymbolTable
 70
     0
  0
ENDTAB
  0
TABLE
  2
APPID
  5
9
330
0
100
AcDbSymbolTable
 70
     2
  0
APPID
  5
12
330
9
100
AcDbSymbolTableRecord
100
AcDbRegAppTableRecord
  2
ACAD
 70
     0
  0
ENDTAB
  0
TABLE
  2
DIMSTYLE
  5
A
330
0
100
AcDbSymbolTable
 70
     1
  0
DIMSTYLE
105
27
330
A
100
AcDbSymbolTableRecord
100
AcDbDimStyleTableRecord
  2
ISO-25
 70
     0
  3

  4

  5

  6

  7

 40
1.0
 41
2.5
 42
0.625
 43
3.75
 44
1.25
 45
0.0
 46
0.0
 47
0.0
 48
0.0
140
2.5
141
2.5
142
0.0
143
0.03937007874016
144
1.0
145
0.0
146
1.0
147
0.625
 71
     0
 72
     0
 73
     0
 74
     0
 75
     0
 76
     0
 77
     1
 78
     8
170
     0
171
     3
172
     1
173
     0
174
     0
175
     0
176
     0
177
     0
178
     0
270
     2
271
     2
272
     2
273
     2
274
     3
340
11
275
     0
280
     0
281
     0
282
     0
283
     0
284
     8
285
     0
286
     0
287
     3
288
     0
  0
ENDTAB
  0
TABLE
  2
BLOCK_RECORD
  5
1
330
0
100
AcDbSymbolTable
 70
     1
  0
BLOCK_RECORD
  5
1F
330
1
100
AcDbSymbolTableRecord
100
AcDbBlockTableRecord
  2
*MODEL_SPACE
  0
BLOCK_RECORD
  5
1B
330
1
100
AcDbSymbolTableRecord
100
AcDbBlockTableRecord
  2
*PAPER_SPACE
  0
ENDTAB
  0
ENDSEC
  0
SECTION
  2
BLOCKS
  0
BLOCK
  5
20
330
1F
100
AcDbEntity
  8
0
100
AcDbBlockBegin
  2
*MODEL_SPACE
 70
     0
 10
0.0
 20
0.0
 30
0.0
  3
*MODEL_SPACE
  1

  0
ENDBLK
  5
21
330
1F
100
AcDbEntity
  8
0
100
AcDbBlockEnd
  0
BLOCK
  5
1C
330
1B
100
AcDbEntity
 67
     1
  8
0
100
AcDbBlockBegin
  2
*PAPER_SPACE
  1

  0
ENDBLK
  5
1D
330
1B
100
AcDbEntity
 67
     1
  8
0
100
AcDbBlockEnd
  0
ENDSEC
  0
SECTION
  2
ENTITIES
  0
SPLINE
  5
100
100
AcDbEntity
  8
0
 62
5
100
AcDbSpline
 70
8
 71
3
 72
8
 73
4
 74
0
 40
0
 40
0
 40
0
 40
0
 40
1
 40
1
 40
1
 40
1
 10
179.182880
 20
65.626860
 30
0.0
 10
178.906300
 20
65.626860
 30
0.0
 10
178.682990
 20
65.850240
 30
0.0
 10
178.682990
 20
66.126110
 30
0.0
  0
SPLINE
  5
101
100
AcDbEntity
  8
0
 62
5
100
AcDbSpline
 70
8
 71
3
 72
8
 73
4
 74
0
 40
0
 40
0
 40
0
 40
0
 40
1
 40
1
 40
1
 40
1
 10
178.682640
 20
102.125680
 30
0.0
 10
178.682640
 20
102.401550
 30
0.0
 10
178.458980
 20
102.625560
 30
0.0
 10
178.183100
 20
102.625560
 30
0.0
  0
LINE
  5
102
100
AcDbEntity
  8
0
 62
5
100
AcDbLine
 10
178.683340
 20
66.126110
 30
0.0
 11
178.683340
 21
102.123910
 31
0.0
  0
SPLINE
  5
103
100
AcDbEntity
  8
0
 62
5
100
AcDbSpline
 70
8
 71
3
 72
8
 73
4
 74
0
 40
0
 40
0
 40
0
 40
0
 40
1
 40
1
 40
1
 40
1
 10
174.433080
 20
102.624860
 30
0.0
 10
174.156850
 20
102.624860
 30
0.0
 10
173.932840
 20
102.849230
 30
0.0
 10
173.932840
 20
103.125100
 30
0.0
  0
LINE
  5
104
100
AcDbEntity
  8
0
 62
5
100
AcDbLine
 10
178.183100
 20
102.625210
 30
0.0
 11
174.433080
 21
102.625210
 31
0.0
  0
SPLINE
  5
105
100
AcDbEntity
  8
0
 62
5
100
AcDbSpline
 70
8
 71
3
 72
8
 73
4
 74
0
 40
0
 40
0
 40
0
 40
0
 40
1
 40
1
 40
1
 40
1
 10
173.932840
 20
121.125230
 30
0.0
 10
173.932840
 20
121.401100
 30
0.0
 10
173.708820
 20
121.624060
 30
0.0
 10
173.432950
 20
121.624060
 30
0.0
  0
LINE
  5
106
100
AcDbEntity
  8
0
 62
5
100
AcDbLine
 10
173.933540
 20
103.125100
 30
0.0
 11
173.933540
 21
121.124170
 31
0.0
  0
SPLINE
  5
107
100
AcDbEntity
  8
0
 62
5
100
AcDbSpline
 70
8
 71
3
 72
8
 73
4
 74
0
 40
0
 40
0
 40
0
 40
0
 40
1
 40
1
 40
1
 40
1
 10
172.183060
 20
121.624060
 30
0.0
 10
171.907190
 20
121.624060
 30
0.0
 10
171.683170
 20
121.849130
 30
0.0
 10
171.683170
 20
122.125000
 30
0.0
  0
LINE
  5
108
100
AcDbEntity
  8
0
 62
5
100
AcDbLine
 10
173.433300
 20
121.624060
 30
0.0
 11
172.183760
 21
121.624060
 31
0.0
  0
SPLINE
  5
109
100
AcDbEntity
  8
0
 62
5
100
AcDbSpline
 70
8
 71
3
 72
8
 73
4
 74
0
 40
0
 40
0
 40
0
 40
0
 40
1
 40
1
 40
1
 40
1
 10
171.682820
 20
143.124100
 30
0.0
 10
171.682820
 20
143.399980
 30
0.0
 10
171.907190
 20
143.623990
 30
0.0
 10
172.183060
 20
143.623990
 30
0.0
  0
LINE
  5
10a
100
AcDbEntity
  8
0
 62
5
100
AcDbLine
 10
171.683520
 20
122.123950
 30
0.0
 11
171.683520
 21
143.124100
 31
0.0
  0
SPLINE
  5
10b
100
AcDbEntity
  8
0
 62
5
100
AcDbSpline
 70
8
 71
3
 72
8
 73
4
 74
0
 40
0
 40
0
 40
0
 40
0
 40
1
 40
1
 40
1
 40
1
 10
173.433300
 20
143.623990
 30
0.0
 10
173.709180
 20
143.623990
 30
0.0
 10
173.932840
 20
143.847650
 30
0.0
 10
173.932840
 20
144.124230
 30
0.0
  0
LINE
  5
10c
100
AcDbEntity
  8
0
 62
5
100
AcDbLine
 10
172.183760
 20
143.623990
 30
0.0
 11
173.433300
 21
143.623990
 31
0.0
  0
SPLINE
  5
10d
100
AcDbEntity
  8
0
 62
5
100
AcDbSpline
 70
8
 71
3
 72
8
 73
4
 74
0
 40
0
 40
0
 40
0
 40
0
 40
1
 40
1
 40
1
 40
1
 10
173.932840
 20
162.122950
 30
0.0
 10
173.932840
 20
162.399530
 30
0.0
 10
174.157200
 20
162.623190
 30
0.0
 10
174.433080
 20
162.623190
 30
0.0
  0
LINE
  5
10e
100
AcDbEntity
  8
0
 62
5
100
AcDbLine
 10
173.933540
 20
144.124230
 30
0.0
 11
173.933540
 21
162.122950
 31
0.0
  0
SPLINE
  5
10f
100
AcDbEntity
  8
0
 62
5
100
AcDbSpline
 70
8
 71
3
 72
8
 73
4
 74
0
 40
0
 40
0
 40
0
 40
0
 40
1
 40
1
 40
1
 40
1
 10
175.933090
 20
162.623190
 30
0.0
 10
176.208960
 20
162.623190
 30
0.0
 10
176.432970
 20
162.846500
 30
0.0
 10
176.432970
 20
163.123080
 30
0.0
  0
LINE
  5
110
100
AcDbEntity
  8
0
 62
5
100
AcDbLine
 10
174.433080
 20
162.623190
 30
0.0
 11
175.933090
 21
162.623190
 31
0.0
  0
LINE
  5
111
100
AcDbEntity
  8
0
 62
5
100
AcDbLine
 10
176.433330
 20
163.123080
 30
0.0
 11
176.433330
 21
170.603370
 31
0.0
  0
LINE
  5
112
100
AcDbEntity
  8
0
 62
5
100
AcDbLine
 10
176.433330
 20
170.603370
 30
0.0
 11
176.433330
 21
190.130260
 31
0.0
  0
LINE
  5
113
100
AcDbEntity
  8
0
 62
5
100
AcDbLine
 10
176.433330
 20
190.130260
 30
0.0
 11
176.433330
 21
199.349060
 31
0.0
  0
SPLINE
  5
114
100
AcDbEntity
  8
0
 62
5
100
AcDbSpline
 70
8
 71
3
 72
8
 73
4
 74
0
 40
0
 40
0
 40
0
 40
0
 40
1
 40
1
 40
1
 40
1
 10
176.432800
 20
199.349170
 30
0.0
 10
176.432800
 20
199.625740
 30
0.0
 10
176.657520
 20
199.850110
 30
0.0
 10
176.933392
 20
199.850110
 30
0.0
  0
LINE
  5
115
100
AcDbEntity
  8
0
 62
5
100
AcDbLine
 10
176.934097
 20
199.850110
 30
0.0
 11
199.850188
 21
199.850110
 31
0.0
  0
LINE
  5
116
100
AcDbEntity
  8
0
 62
5
100
AcDbLine
 10
199.850188
 20
199.850110
 30
0.0
 11
199.850188
 21
189.582510
 31
0.0
  0
LINE
  5
117
100
AcDbEntity
  8
0
 62
5
100
AcDbLine
 10
199.850188
 20
189.582510
 30
0.0
 11
199.850188
 21
170.055620
 31
0.0
  0
LINE
  5
118
100
AcDbEntity
  8
0
 62
5
100
AcDbLine
 10
199.850188
 20
170.055620
 30
0.0
 11
199.850188
 21
65.626300
 31
0.0
  0
LINE
  5
119
100
AcDbEntity
  8
0
 62
5
100
AcDbLine
 10
199.850188
 20
65.626300
 30
0.0
 11
179.182703
 21
65.626300
 31
0.0
  0
SPLINE
  5
11a
100
AcDbEntity
  8
0
 62
5
100
AcDbSpline
 70
8
 71
3
 72
8
 73
4
 74
0
 40
0
 40
0
 40
0
 40
0
 40
1
 40
1
 40
1
 40
1
 10
193.682050
 20
160.042270
 30
0.0
 10
194.289530
 20
160.042970
 30
0.0
 10
194.782010
 20
160.534750
 30
0.0
 10
194.782010
 20
161.142230
 30
0.0
  0
SPLINE
  5
11b
100
AcDbEntity
  8
0
 62
5
100
AcDbSpline
 70
8
 71
3
 72
8
 73
4
 74
0
 40
0
 40
0
 40
0
 40
0
 40
1
 40
1
 40
1
 40
1
 10
194.782010
 20
161.142230
 30
0.0
 10
194.782010
 20
161.749710
 30
0.0
 10
194.289530
 20
162.242900
 30
0.0
 10
193.682050
 20
162.242900
 30
0.0
  0
SPLINE
  5
11c
100
AcDbEntity
  8
0
 62
5
100
AcDbSpline
 70
8
 71
3
 72
8
 73
4
 74
0
 40
0
 40
0
 40
0
 40
0
 40
1
 40
1
 40
1
 40
1
 10
193.682050
 20
162.242900
 30
0.0
 10
193.074560
 20
162.242900
 30
0.0
 10
192.582080
 20
161.749710
 30
0.0
 10
192.582080
 20
161.142230
 30
0.0
  0
SPLINE
  5
11d
100
AcDbEntity
  8
0
 62
5
100
AcDbSpline
 70
8
 71
3
 72
8
 73
4
 74
0
 40
0
 40
0
 40
0
 40
0
 40
1
 40
1
 40
1
 40
1
 10
192.582080
 20
161.142230
 30
0.0
 10
192.582080
 20
160.534750
 30
0.0
 10
193.074560
 20
160.042970
 30
0.0
 10
193.682050
 20
160.042970
 30
0.0
  0
SPLINE
  5
11e
100
AcDbEntity
  8
0
 62
5
100
AcDbSpline
 70
8
 71
3
 72
8
 73
4
 74
0
 40
0
 40
0
 40
0
 40
0
 40
1
 40
1
 40
1
 40
1
 10
197.304370
 20
84.028920
 30
0.0
 10
197.911850
 20
84.028920
 30
0.0
 10
198.404330
 20
84.521430
 30
0.0
 10
198.404330
 20
85.128880
 30
0.0
  0
SPLINE
  5
11f
100
AcDbEntity
  8
0
 62
5
100
AcDbSpline
 70
8
 71
3
 72
8
 73
4
 74
0
 40
0
 40
0
 40
0
 40
0
 40
1
 40
1
 40
1
 40
1
 10
198.404330
 20
85.128880
 30
0.0
 10
198.404330
 20
85.736290
 30
0.0
 10
197.911850
 20
86.228800
 30
0.0
 10
197.304370
 20
86.228800
 30
0.0
  0
SPLINE
  5
120
100
AcDbEntity
  8
0
 62
5
100
AcDbSpline
 70
8
 71
3
 72
8
 73
4
 74
0
 40
0
 40
0
 40
0
 40
0
 40
1
 40
1
 40
1
 40
1
 10
197.304370
 20
86.228800
 30
0.0
 10
196.696880
 20
86.228800
 30
0.0
 10
196.204410
 20
85.736290
 30
0.0
 10
196.204410
 20
85.128880
 30
0.0
  0
SPLINE
  5
121
100
AcDbEntity
  8
0
 62
5
100
AcDbSpline
 70
8
 71
3
 72
8
 73
4
 74
0
 40
0
 40
0
 40
0
 40
0
 40
1
 40
1
 40
1
 40
1
 10
196.204410
 20
85.128880
 30
0.0
 10
196.204410
 20
84.521430
 30
0.0
 10
196.696880
 20
84.028920
 30
0.0
 10
197.304370
 20
84.028920
 30
0.0
  0
SPLINE
  5
122
100
AcDbEntity
  8
0
 62
5
100
AcDbSpline
 70
8
 71
3
 72
8
 73
4
 74
0
 40
0
 40
0
 40
0
 40
0
 40
1
 40
1
 40
1
 40
1
 10
57.002300
 20
136.455124
 30
0.0
 10
56.908100
 20
136.548924
 30
0.0
 10
56.781110
 20
136.601524
 30
0.0
 10
56.648460
 20
136.601524
 30
0.0
  0
SPLINE
  5
123
100
AcDbEntity
  8
0
 62
5
100
AcDbSpline
 70
8
 71
3
 72
8
 73
4
 74
0
 40
0
 40
0
 40
0
 40
0
 40
1
 40
1
 40
1
 40
1
 10
0.649920
 20
136.601884
 30
0.0
 10
0.374050
 20
136.601884
 30
0.0
 10
0.150000
 20
136.825544
 30
0.0
 10
0.150000
 20
137.101414
 30
0.0
  0
LINE
  5
124
100
AcDbEntity
  8
0
 62
5
100
AcDbLine
 10
56.668920
 20
136.601174
 30
0.0
 11
0.649920
 21
136.601174
 31
0.0
  0
SPLINE
  5
125
100
AcDbEntity
  8
0
 62
5
100
AcDbSpline
 70
8
 71
3
 72
8
 73
4
 74
0
 40
0
 40
0
 40
0
 40
0
 40
1
 40
1
 40
1
 40
1
 10
0.150670
 20
192.349944
 30
0.0
 10
0.150670
 20
192.626522
 30
0.0
 10
0.374050
 20
192.849830
 30
0.0
 10
0.649920
 20
192.849830
 30
0.0
  0
LINE
  5
126
100
AcDbEntity
  8
0
 62
5
100
AcDbLine
 10
0.150000
 20
137.101764
 30
0.0
 11
0.150000
 21
192.350297
 31
0.0
  0
SPLINE
  5
127
100
AcDbEntity
  8
0
 62
5
100
AcDbSpline
 70
8
 71
3
 72
8
 73
4
 74
0
 40
0
 40
0
 40
0
 40
0
 40
1
 40
1
 40
1
 40
1
 10
36.649490
 20
192.850183
 30
0.0
 10
36.925360
 20
192.850183
 30
0.0
 10
37.149370
 20
193.073844
 30
0.0
 10
37.149370
 20
193.349716
 30
0.0
  0
LINE
  5
128
100
AcDbEntity
  8
0
 62
5
100
AcDbLine
 10
0.649920
 20
192.849477
 30
0.0
 11
36.647720
 21
192.849477
 31
0.0
  0
SPLINE
  5
129
100
AcDbEntity
  8
0
 62
5
100
AcDbSpline
 70
8
 71
3
 72
8
 73
4
 74
0
 40
0
 40
0
 40
0
 40
0
 40
1
 40
1
 40
1
 40
1
 10
37.148670
 20
197.099744
 30
0.0
 10
37.148670
 20
197.375969
 30
0.0
 10
37.373040
 20
197.599983
 30
0.0
 10
37.648910
 20
197.599983
 30
0.0
  0
LINE
  5
12a
100
AcDbEntity
  8
0
 62
5
100
AcDbLine
 10
37.149020
 20
193.349716
 30
0.0
 11
37.149020
 21
197.099744
 31
0.0
  0
SPLINE
  5
12b
100
AcDbEntity
  8
0
 62
5
100
AcDbSpline
 70
8
 71
3
 72
8
 73
4
 74
0
 40
0
 40
0
 40
0
 40
0
 40
1
 40
1
 40
1
 40
1
 10
55.649040
 20
197.599983
 30
0.0
 10
55.924910
 20
197.599983
 30
0.0
 10
56.147870
 20
197.823997
 30
0.0
 10
56.147870
 20
198.099869
 30
0.0
  0
LINE
  5
12c
100
AcDbEntity
  8
0
 62
5
100
AcDbLine
 10
37.648910
 20
197.599278
 30
0.0
 11
55.647980
 21
197.599278
 31
0.0
  0
SPLINE
  5
12d
100
AcDbEntity
  8
0
 62
5
100
AcDbSpline
 70
8
 71
3
 72
8
 73
4
 74
0
 40
0
 40
0
 40
0
 40
0
 40
1
 40
1
 40
1
 40
1
 10
56.147870
 20
199.349761
 30
0.0
 10
56.147870
 20
199.625633
 30
0.0
 10
56.372940
 20
199.849647
 30
0.0
 10
56.648810
 20
199.849647
 30
0.0
  0
LINE
  5
12e
100
AcDbEntity
  8
0
 62
5
100
AcDbLine
 10
56.147870
 20
198.099517
 30
0.0
 11
56.147870
 21
199.349056
 31
0.0
  0
SPLINE
  5
12f
100
AcDbEntity
  8
0
 62
5
100
AcDbSpline
 70
8
 71
3
 72
8
 73
4
 74
0
 40
0
 40
0
 40
0
 40
0
 40
1
 40
1
 40
1
 40
1
 10
77.647910
 20
199.850000
 30
0.0
 10
77.923790
 20
199.850000
 30
0.0
 10
78.147800
 20
199.625633
 30
0.0
 10
78.147800
 20
199.349761
 30
0.0
  0
LINE
  5
130
100
AcDbEntity
  8
0
 62
5
100
AcDbLine
 10
56.647760
 20
199.849295
 30
0.0
 11
77.647910
 21
199.849295
 31
0.0
  0
SPLINE
  5
131
100
AcDbEntity
  8
0
 62
5
100
AcDbSpline
 70
8
 71
3
 72
8
 73
4
 74
0
 40
0
 40
0
 40
0
 40
0
 40
1
 40
1
 40
1
 40
1
 10
78.147800
 20
198.099517
 30
0.0
 10
78.147800
 20
197.823644
 30
0.0
 10
78.371460
 20
197.599983
 30
0.0
 10
78.648040
 20
197.599983
 30
0.0
  0
LINE
  5
132
100
AcDbEntity
  8
0
 62
5
100
AcDbLine
 10
78.147800
 20
199.349056
 30
0.0
 11
78.147800
 21
198.099517
 31
0.0
  0
SPLINE
  5
133
100
AcDbEntity
  8
0
 62
5
100
AcDbSpline
 70
8
 71
3
 72
8
 73
4
 74
0
 40
0
 40
0
 40
0
 40
0
 40
1
 40
1
 40
1
 40
1
 10
96.646760
 20
197.599983
 30
0.0
 10
96.923340
 20
197.599983
 30
0.0
 10
97.147000
 20
197.375617
 30
0.0
 10
97.147000
 20
197.099744
 30
0.0
  0
LINE
  5
134
100
AcDbEntity
  8
0
 62
5
100
AcDbLine
 10
78.648040
 20
197.599278
 30
0.0
 11
96.646760
 21
197.599278
 31
0.0
  0
SPLINE
  5
135
100
AcDbEntity
  8
0
 62
5
100
AcDbSpline
 70
8
 71
3
 72
8
 73
4
 74
0
 40
0
 40
0
 40
0
 40
0
 40
1
 40
1
 40
1
 40
1
 10
97.147000
 20
195.599733
 30
0.0
 10
97.147000
 20
195.323861
 30
0.0
 10
97.370310
 20
195.099847
 30
0.0
 10
97.646890
 20
195.099847
 30
0.0
  0
LINE
  5
136
100
AcDbEntity
  8
0
 62
5
100
AcDbLine
 10
97.147000
 20
197.099744
 30
0.0
 11
97.147000
 21
195.599733
 31
0.0
  0
SPLINE
  5
137
100
AcDbEntity
  8
0
 62
5
100
AcDbSpline
 70
8
 71
3
 72
8
 73
4
 74
0
 40
0
 40
0
 40
0
 40
0
 40
1
 40
1
 40
1
 40
1
 10
97.646890
 20
195.099494
 30
0.0
 10
110.075890
 20
195.099494
 30
0.0
 10
122.283070
 20
195.099494
 30
0.0
 10
133.835990
 20
195.099494
 30
0.0
  0
SPLINE
  5
138
100
AcDbEntity
  8
0
 62
5
100
AcDbSpline
 70
8
 71
3
 72
8
 73
4
 74
0
 40
0
 40
0
 40
0
 40
0
 40
1
 40
1
 40
1
 40
1
 10
134.182670
 20
131.089724
 30
0.0
 10
134.489280
 20
131.673574
 30
0.0
 10
134.399080
 20
131.864084
 30
0.0
 10
134.399080
 20
132.393244
 30
0.0
  0
LINE
  5
139
100
AcDbEntity
  8
0
 62
5
100
AcDbLine
 10
134.399080
 20
132.393244
 30
0.0
 11
134.336580
 21
135.644794
 31
0.0
  0
LINE
  5
13a
100
AcDbEntity
  8
0
 62
5
100
AcDbLine
 10
134.336580
 20
135.644794
 30
0.0
 11
134.336580
 21
194.599954
 31
0.0
  0
SPLINE
  5
13b
100
AcDbEntity
  8
0
 62
5
100
AcDbSpline
 70
8
 71
3
 72
8
 73
4
 74
0
 40
0
 40
0
 40
0
 40
0
 40
1
 40
1
 40
1
 40
1
 10
120.945740
 20
108.052984
 30
0.0
 10
120.680450
 20
107.651874
 30
0.0
 10
120.138940
 20
107.541454
 30
0.0
 10
119.737480
 20
107.808514
 30
0.0
  0
LINE
  5
13c
100
AcDbEntity
  8
0
 62
5
100
AcDbLine
 10
119.737480
 20
107.808514
 30
0.0
 11
119.716280
 21
107.822214
 31
0.0
  0
LINE
  5
13d
100
AcDbEntity
  8
0
 62
5
100
AcDbLine
 10
134.181970
 20
131.089724
 30
0.0
 11
120.945740
 21
108.052984
 31
0.0
  0
SPLINE
  5
13e
100
AcDbEntity
  8
0
 62
5
100
AcDbSpline
 70
8
 71
3
 72
8
 73
4
 74
0
 40
0
 40
0
 40
0
 40
0
 40
1
 40
1
 40
1
 40
1
 10
104.968440
 20
116.311514
 30
0.0
 10
104.877440
 20
116.343614
 30
0.0
 10
104.783230
 20
116.367214
 30
0.0
 10
104.688330
 20
116.383514
 30
0.0
  0
LINE
  5
13f
100
AcDbEntity
  8
0
 62
5
100
AcDbLine
 10
119.716310
 20
107.822264
 30
0.0
 11
104.967730
 21
116.310454
 31
0.0
  0
SPLINE
  5
140
100
AcDbEntity
  8
0
 62
5
100
AcDbSpline
 70
8
 71
3
 72
8
 73
4
 74
0
 40
0
 40
0
 40
0
 40
0
 40
1
 40
1
 40
1
 40
1
 10
67.898190
 20
121.851884
 30
0.0
 10
67.768720
 20
121.865284
 30
0.0
 10
67.646660
 20
121.917184
 30
0.0
 10
67.547880
 20
122.002174
 30
0.0
  0
LINE
  5
141
100
AcDbEntity
  8
0
 62
5
100
AcDbLine
 10
104.687630
 20
116.383484
 30
0.0
 11
67.897840
 21
121.851884
 31
0.0
  0
LINE
  5
142
100
AcDbEntity
  8
0
 62
5
100
AcDbLine
 10
67.547530
 20
122.001464
 30
0.0
 11
56.998060
 21
136.459714
 31
0.0
  0
LINE
  5
143
100
AcDbEntity
  8
0
 62
5
100
AcDbLine
 10
56.998060
 20
136.459714
 30
0.0
 11
57.002060
 21
136.455714
 31
0.0
  0
SPLINE
  5
144
100
AcDbEntity
  8
0
 62
5
100
AcDbSpline
 70
8
 71
3
 72
8
 73
4
 74
0
 40
0
 40
0
 40
0
 40
0
 40
1
 40
1
 40
1
 40
1
 10
94.566080
 20
177.850772
 30
0.0
 10
94.566870
 20
177.243292
 30
0.0
 10
95.058560
 20
176.750812
 30
0.0
 10
95.666040
 20
176.750812
 30
0.0
  0
SPLINE
  5
145
100
AcDbEntity
  8
0
 62
5
100
AcDbSpline
 70
8
 71
3
 72
8
 73
4
 74
0
 40
0
 40
0
 40
0
 40
0
 40
1
 40
1
 40
1
 40
1
 10
95.666040
 20
176.750812
 30
0.0
 10
96.273520
 20
176.750812
 30
0.0
 10
96.766710
 20
177.243292
 30
0.0
 10
96.766710
 20
177.850772
 30
0.0
  0
SPLINE
  5
146
100
AcDbEntity
  8
0
 62
5
100
AcDbSpline
 70
8
 71
3
 72
8
 73
4
 74
0
 40
0
 40
0
 40
0
 40
0
 40
1
 40
1
 40
1
 40
1
 10
96.766710
 20
177.850772
 30
0.0
 10
96.766710
 20
178.458262
 30
0.0
 10
96.273520
 20
178.950742
 30
0.0
 10
95.666040
 20
178.950742
 30
0.0
  0
SPLINE
  5
147
100
AcDbEntity
  8
0
 62
5
100
AcDbSpline
 70
8
 71
3
 72
8
 73
4
 74
0
 40
0
 40
0
 40
0
 40
0
 40
1
 40
1
 40
1
 40
1
 10
95.666040
 20
178.950742
 30
0.0
 10
95.058560
 20
178.950742
 30
0.0
 10
94.566780
 20
178.458262
 30
0.0
 10
94.566780
 20
177.850772
 30
0.0
  0
SPLINE
  5
148
100
AcDbEntity
  8
0
 62
5
100
AcDbSpline
 70
8
 71
3
 72
8
 73
4
 74
0
 40
0
 40
0
 40
0
 40
0
 40
1
 40
1
 40
1
 40
1
 10
18.552730
 20
174.228452
 30
0.0
 10
18.552730
 20
173.620972
 30
0.0
 10
19.045240
 20
173.128491
 30
0.0
 10
19.652690
 20
173.128491
 30
0.0
  0
SPLINE
  5
149
100
AcDbEntity
  8
0
 62
5
100
AcDbSpline
 70
8
 71
3
 72
8
 73
4
 74
0
 40
0
 40
0
 40
0
 40
0
 40
1
 40
1
 40
1
 40
1
 10
19.652690
 20
173.128491
 30
0.0
 10
20.260100
 20
173.128491
 30
0.0
 10
20.752610
 20
173.620972
 30
0.0
 10
20.752610
 20
174.228452
 30
0.0
  0
SPLINE
  5
14a
100
AcDbEntity
  8
0
 62
5
100
AcDbSpline
 70
8
 71
3
 72
8
 73
4
 74
0
 40
0
 40
0
 40
0
 40
0
 40
1
 40
1
 40
1
 40
1
 10
20.752610
 20
174.228452
 30
0.0
 10
20.752610
 20
174.835942
 30
0.0
 10
20.260100
 20
175.328412
 30
0.0
 10
19.652690
 20
175.328412
 30
0.0
  0
SPLINE
  5
14b
100
AcDbEntity
  8
0
 62
5
100
AcDbSpline
 70
8
 71
3
 72
8
 73
4
 74
0
 40
0
 40
0
 40
0
 40
0
 40
1
 40
1
 40
1
 40
1
 10
19.652690
 20
175.328412
 30
0.0
 10
19.045240
 20
175.328412
 30
0.0
 10
18.552730
 20
174.835942
 30
0.0
 10
18.552730
 20
174.228452
 30
0.0
  0
SPLINE
  5
14c
100
AcDbEntity
  8
0
 62
5
100
AcDbSpline
 70
8
 71
3
 72
8
 73
4
 74
0
 40
0
 40
0
 40
0
 40
0
 40
1
 40
1
 40
1
 40
1
 10
18.543910
 20
155.214791
 30
0.0
 10
18.543910
 20
154.608012
 30
0.0
 10
19.036420
 20
154.115532
 30
0.0
 10
19.643870
 20
154.115532
 30
0.0
  0
SPLINE
  5
14d
100
AcDbEntity
  8
0
 62
5
100
AcDbSpline
 70
8
 71
3
 72
8
 73
4
 74
0
 40
0
 40
0
 40
0
 40
0
 40
1
 40
1
 40
1
 40
1
 10
19.643870
 20
154.115532
 30
0.0
 10
20.251280
 20
154.115532
 30
0.0
 10
20.743800
 20
154.608012
 30
0.0
 10
20.743800
 20
155.214791
 30
0.0
  0
SPLINE
  5
14e
100
AcDbEntity
  8
0
 62
5
100
AcDbSpline
 70
8
 71
3
 72
8
 73
4
 74
0
 40
0
 40
0
 40
0
 40
0
 40
1
 40
1
 40
1
 40
1
 10
20.743800
 20
155.214791
 30
0.0
 10
20.743800
 20
155.822981
 30
0.0
 10
20.251280
 20
156.315453
 30
0.0
 10
19.643870
 20
156.315453
 30
0.0
  0
SPLINE
  5
14f
100
AcDbEntity
  8
0
 62
5
100
AcDbSpline
 70
8
 71
3
 72
8
 73
4
 74
0
 40
0
 40
0
 40
0
 40
0
 40
1
 40
1
 40
1
 40
1
 10
19.643870
 20
156.315453
 30
0.0
 10
19.036420
 20
156.315453
 30
0.0
 10
18.543910
 20
155.822981
 30
0.0
 10
18.543910
 20
155.214791
 30
0.0
  0
SPLINE
  5
150
100
AcDbEntity
  8
0
 62
5
100
AcDbSpline
 70
8
 71
3
 72
8
 73
4
 74
0
 40
0
 40
0
 40
0
 40
0
 40
1
 40
1
 40
1
 40
1
 10
108.306770
 20
130.353484
 30
0.0
 10
108.306770
 20
129.745994
 30
0.0
 10
108.799250
 20
129.253874
 30
0.0
 10
109.406730
 20
129.253874
 30
0.0
  0
SPLINE
  5
151
100
AcDbEntity
  8
0
 62
5
100
AcDbSpline
 70
8
 71
3
 72
8
 73
4
 74
0
 40
0
 40
0
 40
0
 40
0
 40
1
 40
1
 40
1
 40
1
 10
109.406730
 20
129.253874
 30
0.0
 10
110.014220
 20
129.253874
 30
0.0
 10
110.506700
 20
129.745994
 30
0.0
 10
110.506700
 20
130.353834
 30
0.0
  0
SPLINE
  5
152
100
AcDbEntity
  8
0
 62
5
100
AcDbSpline
 70
8
 71
3
 72
8
 73
4
 74
0
 40
0
 40
0
 40
0
 40
0
 40
1
 40
1
 40
1
 40
1
 10
110.506700
 20
130.353834
 30
0.0
 10
110.506700
 20
130.961314
 30
0.0
 10
110.014220
 20
131.453444
 30
0.0
 10
109.406730
 20
131.453444
 30
0.0
  0
SPLINE
  5
153
100
AcDbEntity
  8
0
 62
5
100
AcDbSpline
 70
8
 71
3
 72
8
 73
4
 74
0
 40
0
 40
0
 40
0
 40
0
 40
1
 40
1
 40
1
 40
1
 10
109.406730
 20
131.453444
 30
0.0
 10
108.799250
 20
131.453444
 30
0.0
 10
108.306770
 20
130.961314
 30
0.0
 10
108.306770
 20
130.353834
 30
0.0
  0
SPLINE
  5
154
100
AcDbEntity
  8
0
 62
5
100
AcDbSpline
 70
8
 71
3
 72
8
 73
4
 74
0
 40
0
 40
0
 40
0
 40
0
 40
1
 40
1
 40
1
 40
1
 10
61.791260
 20
138.107894
 30
0.0
 10
61.791260
 20
137.499704
 30
0.0
 10
62.283730
 20
137.007924
 30
0.0
 10
62.891220
 20
137.007924
 30
0.0
  0
SPLINE
  5
155
100
AcDbEntity
  8
0
 62
5
100
AcDbSpline
 70
8
 71
3
 72
8
 73
4
 74
0
 40
0
 40
0
 40
0
 40
0
 40
1
 40
1
 40
1
 40
1
 10
62.891220
 20
137.007924
 30
0.0
 10
63.498700
 20
137.007924
 30
0.0
 10
63.991180
 20
137.499704
 30
0.0
 10
63.991180
 20
138.107184
 30
0.0
  0
SPLINE
  5
156
100
AcDbEntity
  8
0
 62
5
100
AcDbSpline
 70
8
 71
3
 72
8
 73
4
 74
0
 40
0
 40
0
 40
0
 40
0
 40
1
 40
1
 40
1
 40
1
 10
63.991180
 20
138.107184
 30
0.0
 10
63.991180
 20
138.714664
 30
0.0
 10
63.498700
 20
139.207144
 30
0.0
 10
62.891220
 20
139.207144
 30
0.0
  0
SPLINE
  5
157
100
AcDbEntity
  8
0
 62
5
100
AcDbSpline
 70
8
 71
3
 72
8
 73
4
 74
0
 40
0
 40
0
 40
0
 40
0
 40
1
 40
1
 40
1
 40
1
 10
62.891220
 20
139.207144
 30
0.0
 10
62.283730
 20
139.207144
 30
0.0
 10
61.791260
 20
138.714664
 30
0.0
 10
61.791260
 20
138.107184
 30
0.0
  0
SPLINE
  5
158
100
AcDbEntity
  8
0
 62
5
100
AcDbSpline
 70
8
 71
3
 72
8
 73
4
 74
0
 40
0
 40
0
 40
0
 40
0
 40
1
 40
1
 40
1
 40
1
 10
134.336580
 20
194.599955
 30
0.0
 10
134.336580
 20
194.876185
 30
0.0
 10
134.113270
 20
195.100195
 30
0.0
 10
133.836690
 20
195.100195
 30
0.0
  0
SPLINE
  5
159
100
AcDbEntity
  8
0
 62
5
100
AcDbSpline
 70
8
 71
3
 72
8
 73
4
 74
0
 40
0
 40
0
 40
0
 40
0
 40
1
 40
1
 40
1
 40
1
 10
142.997690
 20
63.544090
 30
0.0
 10
143.091890
 20
63.450290
 30
0.0
 10
143.218880
 20
63.397690
 30
0.0
 10
143.351530
 20
63.397690
 30
0.0
  0
SPLINE
  5
15a
100
AcDbEntity
  8
0
 62
5
100
AcDbSpline
 70
8
 71
3
 72
8
 73
4
 74
0
 40
0
 40
0
 40
0
 40
0
 40
1
 40
1
 40
1
 40
1
 10
199.350070
 20
63.397330
 30
0.0
 10
199.625940
 20
63.397330
 30
0.0
 10
199.849990
 20
63.173670
 30
0.0
 10
199.849990
 20
62.897800
 30
0.0
  0
LINE
  5
15b
100
AcDbEntity
  8
0
 62
5
100
AcDbLine
 10
143.331070
 20
63.398040
 30
0.0
 11
199.350070
 21
63.398040
 31
0.0
  0
SPLINE
  5
15c
100
AcDbEntity
  8
0
 62
5
100
AcDbSpline
 70
8
 71
3
 72
8
 73
4
 74
0
 40
0
 40
0
 40
0
 40
0
 40
1
 40
1
 40
1
 40
1
 10
199.849320
 20
7.649270
 30
0.0
 10
199.849320
 20
7.372690
 30
0.0
 10
199.625940
 20
7.149380
 30
0.0
 10
199.350070
 20
7.149380
 30
0.0
  0
LINE
  5
15d
100
AcDbEntity
  8
0
 62
5
100
AcDbLine
 10
199.849990
 20
62.897450
 30
0.0
 11
199.849990
 21
7.648920
 31
0.0
  0
SPLINE
  5
15e
100
AcDbEntity
  8
0
 62
5
100
AcDbSpline
 70
8
 71
3
 72
8
 73
4
 74
0
 40
0
 40
0
 40
0
 40
0
 40
1
 40
1
 40
1
 40
1
 10
163.350500
 20
7.149030
 30
0.0
 10
163.074630
 20
7.149030
 30
0.0
 10
162.850620
 20
6.925370
 30
0.0
 10
162.850620
 20
6.649500
 30
0.0
  0
LINE
  5
15f
100
AcDbEntity
  8
0
 62
5
100
AcDbLine
 10
199.350070
 20
7.149740
 30
0.0
 11
163.352270
 21
7.149740
 31
0.0
  0
SPLINE
  5
160
100
AcDbEntity
  8
0
 62
5
100
AcDbSpline
 70
8
 71
3
 72
8
 73
4
 74
0
 40
0
 40
0
 40
0
 40
0
 40
1
 40
1
 40
1
 40
1
 10
162.851320
 20
2.899470
 30
0.0
 10
162.851320
 20
2.623250
 30
0.0
 10
162.626950
 20
2.399230
 30
0.0
 10
162.351080
 20
2.399230
 30
0.0
  0
LINE
  5
161
100
AcDbEntity
  8
0
 62
5
100
AcDbLine
 10
162.850970
 20
6.649500
 30
0.0
 11
162.850970
 21
2.899470
 31
0.0
  0
SPLINE
  5
162
100
AcDbEntity
  8
0
 62
5
100
AcDbSpline
 70
8
 71
3
 72
8
 73
4
 74
0
 40
0
 40
0
 40
0
 40
0
 40
1
 40
1
 40
1
 40
1
 10
144.350950
 20
2.399230
 30
0.0
 10
144.075080
 20
2.399230
 30
0.0
 10
143.852120
 20
2.175220
 30
0.0
 10
143.852120
 20
1.899350
 30
0.0
  0
LINE
  5
163
100
AcDbEntity
  8
0
 62
5
100
AcDbLine
 10
162.351080
 20
2.399940
 30
0.0
 11
144.352010
 21
2.399940
 31
0.0
  0
SPLINE
  5
164
100
AcDbEntity
  8
0
 62
5
100
AcDbSpline
 70
8
 71
3
 72
8
 73
4
 74
0
 40
0
 40
0
 40
0
 40
0
 40
1
 40
1
 40
1
 40
1
 10
143.852120
 20
0.649450
 30
0.0
 10
143.852120
 20
0.373580
 30
0.0
 10
143.627050
 20
0.149570
 30
0.0
 10
143.351180
 20
0.149570
 30
0.0
  0
LINE
  5
165
100
AcDbEntity
  8
0
 62
5
100
AcDbLine
 10
143.852120
 20
1.899700
 30
0.0
 11
143.852120
 21
0.650160
 31
0.0
  0
SPLINE
  5
166
100
AcDbEntity
  8
0
 62
5
100
AcDbSpline
 70
8
 71
3
 72
8
 73
4
 74
0
 40
0
 40
0
 40
0
 40
0
 40
1
 40
1
 40
1
 40
1
 10
122.352080
 20
0.149210
 30
0.0
 10
122.076200
 20
0.149210
 30
0.0
 10
121.852190
 20
0.373580
 30
0.0
 10
121.852190
 20
0.649450
 30
0.0
  0
LINE
  5
167
100
AcDbEntity
  8
0
 62
5
100
AcDbLine
 10
143.352230
 20
0.149920
 30
0.0
 11
122.352080
 21
0.149920
 31
0.0
  0
SPLINE
  5
168
100
AcDbEntity
  8
0
 62
5
100
AcDbSpline
 70
8
 71
3
 72
8
 73
4
 74
0
 40
0
 40
0
 40
0
 40
0
 40
1
 40
1
 40
1
 40
1
 10
121.852190
 20
1.899700
 30
0.0
 10
121.852190
 20
2.175570
 30
0.0
 10
121.628530
 20
2.399230
 30
0.0
 10
121.351950
 20
2.399230
 30
0.0
  0
LINE
  5
169
100
AcDbEntity
  8
0
 62
5
100
AcDbLine
 10
121.852190
 20
0.650160
 30
0.0
 11
121.852190
 21
1.899700
 31
0.0
  0
SPLINE
  5
16a
100
AcDbEntity
  8
0
 62
5
100
AcDbSpline
 70
8
 71
3
 72
8
 73
4
 74
0
 40
0
 40
0
 40
0
 40
0
 40
1
 40
1
 40
1
 40
1
 10
103.353230
 20
2.399230
 30
0.0
 10
103.076650
 20
2.399230
 30
0.0
 10
102.852990
 20
2.623600
 30
0.0
 10
102.852990
 20
2.899470
 30
0.0
  0
LINE
  5
16b
100
AcDbEntity
  8
0
 62
5
100
AcDbLine
 10
121.351950
 20
2.399940
 30
0.0
 11
103.353230
 21
2.399940
 31
0.0
  0
SPLINE
  5
16c
100
AcDbEntity
  8
0
 62
5
100
AcDbSpline
 70
8
 71
3
 72
8
 73
4
 74
0
 40
0
 40
0
 40
0
 40
0
 40
1
 40
1
 40
1
 40
1
 10
102.852990
 20
4.399480
 30
0.0
 10
102.852990
 20
4.675350
 30
0.0
 10
102.629680
 20
4.899370
 30
0.0
 10
102.353100
 20
4.899370
 30
0.0
  0
LINE
  5
16d
100
AcDbEntity
  8
0
 62
5
100
AcDbLine
 10
102.852990
 20
2.899470
 30
0.0
 11
102.852990
 21
4.399480
 31
0.0
  0
SPLINE
  5
16e
100
AcDbEntity
  8
0
 62
5
100
AcDbSpline
 70
8
 71
3
 72
8
 73
4
 74
0
 40
0
 40
0
 40
0
 40
0
 40
1
 40
1
 40
1
 40
1
 10
102.353100
 20
4.899720
 30
0.0
 10
89.924100
 20
4.899720
 30
0.0
 10
77.716920
 20
4.899720
 30
0.0
 10
66.164000
 20
4.899720
 30
0.0
  0
SPLINE
  5
16f
100
AcDbEntity
  8
0
 62
5
100
AcDbSpline
 70
8
 71
3
 72
8
 73
4
 74
0
 40
0
 40
0
 40
0
 40
0
 40
1
 40
1
 40
1
 40
1
 10
65.817320
 20
68.909490
 30
0.0
 10
65.510710
 20
68.325640
 30
0.0
 10
65.600910
 20
68.135130
 30
0.0
 10
65.600910
 20
67.605970
 30
0.0
  0
LINE
  5
170
100
AcDbEntity
  8
0
 62
5
100
AcDbLine
 10
65.600910
 20
67.605970
 30
0.0
 11
65.663410
 21
64.354420
 31
0.0
  0
LINE
  5
171
100
AcDbEntity
  8
0
 62
5
100
AcDbLine
 10
65.663410
 20
64.354420
 30
0.0
 11
65.663410
 21
5.399260
 31
0.0
  0
SPLINE
  5
172
100
AcDbEntity
  8
0
 62
5
100
AcDbSpline
 70
8
 71
3
 72
8
 73
4
 74
0
 40
0
 40
0
 40
0
 40
0
 40
1
 40
1
 40
1
 40
1
 10
79.054250
 20
91.946230
 30
0.0
 10
79.319540
 20
92.347340
 30
0.0
 10
79.861050
 20
92.457760
 30
0.0
 10
80.262510
 20
92.190700
 30
0.0
  0
LINE
  5
173
100
AcDbEntity
  8
0
 62
5
100
AcDbLine
 10
80.262510
 20
92.190700
 30
0.0
 11
80.283710
 21
92.177000
 31
0.0
  0
LINE
  5
174
100
AcDbEntity
  8
0
 62
5
100
AcDbLine
 10
65.818020
 20
68.909490
 30
0.0
 11
79.054250
 21
91.946230
 31
0.0
  0
SPLINE
  5
175
100
AcDbEntity
  8
0
 62
5
100
AcDbSpline
 70
8
 71
3
 72
8
 73
4
 74
0
 40
0
 40
0
 40
0
 40
0
 40
1
 40
1
 40
1
 40
1
 10
95.031550
 20
83.687700
 30
0.0
 10
95.122550
 20
83.655600
 30
0.0
 10
95.216760
 20
83.632000
 30
0.0
 10
95.311660
 20
83.615700
 30
0.0
  0
LINE
  5
176
100
AcDbEntity
  8
0
 62
5
100
AcDbLine
 10
80.283680
 20
92.176950
 30
0.0
 11
95.032260
 21
83.688760
 31
0.0
  0
SPLINE
  5
177
100
AcDbEntity
  8
0
 62
5
100
AcDbSpline
 70
8
 71
3
 72
8
 73
4
 74
0
 40
0
 40
0
 40
0
 40
0
 40
1
 40
1
 40
1
 40
1
 10
132.101800
 20
78.147330
 30
0.0
 10
132.231270
 20
78.133930
 30
0.0
 10
132.353330
 20
78.082030
 30
0.0
 10
132.452110
 20
77.997040
 30
0.0
  0
LINE
  5
178
100
AcDbEntity
  8
0
 62
5
100
AcDbLine
 10
95.312360
 20
83.615730
 30
0.0
 11
132.102150
 21
78.147330
 31
0.0
  0
LINE
  5
179
100
AcDbEntity
  8
0
 62
5
100
AcDbLine
 10
132.452460
 20
77.997750
 30
0.0
 11
143.001930
 21
63.539500
 31
0.0
  0
LINE
  5
17a
100
AcDbEntity
  8
0
 62
5
100
AcDbLine
 10
143.001930
 20
63.539500
 30
0.0
 11
142.997930
 21
63.543500
 31
0.0
  0
SPLINE
  5
17b
100
AcDbEntity
  8
0
 62
5
100
AcDbSpline
 70
8
 71
3
 72
8
 73
4
 74
0
 40
0
 40
0
 40
0
 40
0
 40
1
 40
1
 40
1
 40
1
 10
105.433910
 20
22.148440
 30
0.0
 10
105.433120
 20
22.755920
 30
0.0
 10
104.941430
 20
23.248400
 30
0.0
 10
104.333950
 20
23.248400
 30
0.0
  0
SPLINE
  5
17c
100
AcDbEntity
  8
0
 62
5
100
AcDbSpline
 70
8
 71
3
 72
8
 73
4
 74
0
 40
0
 40
0
 40
0
 40
0
 40
1
 40
1
 40
1
 40
1
 10
104.333950
 20
23.248400
 30
0.0
 10
103.726470
 20
23.248400
 30
0.0
 10
103.233280
 20
22.755920
 30
0.0
 10
103.233280
 20
22.148440
 30
0.0
  0
SPLINE
  5
17d
100
AcDbEntity
  8
0
 62
5
100
AcDbSpline
 70
8
 71
3
 72
8
 73
4
 74
0
 40
0
 40
0
 40
0
 40
0
 40
1
 40
1
 40
1
 40
1
 10
103.233280
 20
22.148440
 30
0.0
 10
103.233280
 20
21.540950
 30
0.0
 10
103.726470
 20
21.048470
 30
0.0
 10
104.333950
 20
21.048470
 30
0.0
  0
SPLINE
  5
17e
100
AcDbEntity
  8
0
 62
5
100
AcDbSpline
 70
8
 71
3
 72
8
 73
4
 74
0
 40
0
 40
0
 40
0
 40
0
 40
1
 40
1
 40
1
 40
1
 10
104.333950
 20
21.048470
 30
0.0
 10
104.941430
 20
21.048470
 30
0.0
 10
105.433210
 20
21.540950
 30
0.0
 10
105.433210
 20
22.148440
 30
0.0
  0
SPLINE
  5
17f
100
AcDbEntity
  8
0
 62
5
100
AcDbSpline
 70
8
 71
3
 72
8
 73
4
 74
0
 40
0
 40
0
 40
0
 40
0
 40
1
 40
1
 40
1
 40
1
 10
181.447260
 20
25.770760
 30
0.0
 10
181.447260
 20
26.378240
 30
0.0
 10
180.954750
 20
26.870720
 30
0.0
 10
180.347300
 20
26.870720
 30
0.0
  0
SPLINE
  5
180
100
AcDbEntity
  8
0
 62
5
100
AcDbSpline
 70
8
 71
3
 72
8
 73
4
 74
0
 40
0
 40
0
 40
0
 40
0
 40
1
 40
1
 40
1
 40
1
 10
180.347300
 20
26.870720
 30
0.0
 10
179.739890
 20
26.870720
 30
0.0
 10
179.247380
 20
26.378240
 30
0.0
 10
179.247380
 20
25.770760
 30
0.0
  0
SPLINE
  5
181
100
AcDbEntity
  8
0
 62
5
100
AcDbSpline
 70
8
 71
3
 72
8
 73
4
 74
0
 40
0
 40
0
 40
0
 40
0
 40
1
 40
1
 40
1
 40
1
 10
179.247380
 20
25.770760
 30
0.0
 10
179.247380
 20
25.163270
 30
0.0
 10
179.739890
 20
24.670800
 30
0.0
 10
180.347300
 20
24.670800
 30
0.0
  0
SPLINE
  5
182
100
AcDbEntity
  8
0
 62
5
100
AcDbSpline
 70
8
 71
3
 72
8
 73
4
 74
0
 40
0
 40
0
 40
0
 40
0
 40
1
 40
1
 40
1
 40
1
 10
180.347300
 20
24.670800
 30
0.0
 10
180.954750
 20
24.670800
 30
0.0
 10
181.447260
 20
25.163270
 30
0.0
 10
181.447260
 20
25.770760
 30
0.0
  0
SPLINE
  5
183
100
AcDbEntity
  8
0
 62
5
100
AcDbSpline
 70
8
 71
3
 72
8
 73
4
 74
0
 40
0
 40
0
 40
0
 40
0
 40
1
 40
1
 40
1
 40
1
 10
181.456080
 20
44.784420
 30
0.0
 10
181.456080
 20
45.391200
 30
0.0
 10
180.963570
 20
45.883680
 30
0.0
 10
180.356120
 20
45.883680
 30
0.0
  0
SPLINE
  5
184
100
AcDbEntity
  8
0
 62
5
100
AcDbSpline
 70
8
 71
3
 72
8
 73
4
 74
0
 40
0
 40
0
 40
0
 40
0
 40
1
 40
1
 40
1
 40
1
 10
180.356120
 20
45.883680
 30
0.0
 10
179.748710
 20
45.883680
 30
0.0
 10
179.256190
 20
45.391200
 30
0.0
 10
179.256190
 20
44.784420
 30
0.0
  0
SPLINE
  5
185
100
AcDbEntity
  8
0
 62
5
100
AcDbSpline
 70
8
 71
3
 72
8
 73
4
 74
0
 40
0
 40
0
 40
0
 40
0
 40
1
 40
1
 40
1
 40
1
 10
179.256190
 20
44.784420
 30
0.0
 10
179.256190
 20
44.176230
 30
0.0
 10
179.748710
 20
43.683760
 30
0.0
 10
180.356120
 20
43.683760
 30
0.0
  0
SPLINE
  5
186
100
AcDbEntity
  8
0
 62
5
100
AcDbSpline
 70
8
 71
3
 72
8
 73
4
 74
0
 40
0
 40
0
 40
0
 40
0
 40
1
 40
1
 40
1
 40
1
 10
180.356120
 20
43.683760
 30
0.0
 10
180.963570
 20
43.683760
 30
0.0
 10
181.456080
 20
44.176230
 30
0.0
 10
181.456080
 20
44.784420
 30
0.0
  0
SPLINE
  5
187
100
AcDbEntity
  8
0
 62
5
100
AcDbSpline
 70
8
 71
3
 72
8
 73
4
 74
0
 40
0
 40
0
 40
0
 40
0
 40
1
 40
1
 40
1
 40
1
 10
91.693220
 20
69.645730
 30
0.0
 10
91.693220
 20
70.253220
 30
0.0
 10
91.200740
 20
70.745340
 30
0.0
 10
90.593260
 20
70.745340
 30
0.0
  0
SPLINE
  5
188
100
AcDbEntity
  8
0
 62
5
100
AcDbSpline
 70
8
 71
3
 72
8
 73
4
 74
0
 40
0
 40
0
 40
0
 40
0
 40
1
 40
1
 40
1
 40
1
 10
90.593260
 20
70.745340
 30
0.0
 10
89.985770
 20
70.745340
 30
0.0
 10
89.493290
 20
70.253220
 30
0.0
 10
89.493290
 20
69.645380
 30
0.0
  0
SPLINE
  5
189
100
AcDbEntity
  8
0
 62
5
100
AcDbSpline
 70
8
 71
3
 72
8
 73
4
 74
0
 40
0
 40
0
 40
0
 40
0
 40
1
 40
1
 40
1
 40
1
 10
89.493290
 20
69.645380
 30
0.0
 10
89.493290
 20
69.037900
 30
0.0
 10
89.985770
 20
68.545770
 30
0.0
 10
90.593260
 20
68.545770
 30
0.0
  0
SPLINE
  5
18a
100
AcDbEntity
  8
0
 62
5
100
AcDbSpline
 70
8
 71
3
 72
8
 73
4
 74
0
 40
0
 40
0
 40
0
 40
0
 40
1
 40
1
 40
1
 40
1
 10
90.593260
 20
68.545770
 30
0.0
 10
91.200740
 20
68.545770
 30
0.0
 10
91.693220
 20
69.037900
 30
0.0
 10
91.693220
 20
69.645380
 30
0.0
  0
SPLINE
  5
18b
100
AcDbEntity
  8
0
 62
5
100
AcDbSpline
 70
8
 71
3
 72
8
 73
4
 74
0
 40
0
 40
0
 40
0
 40
0
 40
1
 40
1
 40
1
 40
1
 10
138.208730
 20
61.891320
 30
0.0
 10
138.208730
 20
62.499510
 30
0.0
 10
137.716260
 20
62.991290
 30
0.0
 10
137.108770
 20
62.991290
 30
0.0
  0
SPLINE
  5
18c
100
AcDbEntity
  8
0
 62
5
100
AcDbSpline
 70
8
 71
3
 72
8
 73
4
 74
0
 40
0
 40
0
 40
0
 40
0
 40
1
 40
1
 40
1
 40
1
 10
137.108770
 20
62.991290
 30
0.0
 10
136.501290
 20
62.991290
 30
0.0
 10
136.008810
 20
62.499510
 30
0.0
 10
136.008810
 20
61.892030
 30
0.0
  0
SPLINE
  5
18d
100
AcDbEntity
  8
0
 62
5
100
AcDbSpline
 70
8
 71
3
 72
8
 73
4
 74
0
 40
0
 40
0
 40
0
 40
0
 40
1
 40
1
 40
1
 40
1
 10
136.008810
 20
61.892030
 30
0.0
 10
136.008810
 20
61.284550
 30
0.0
 10
136.501290
 20
60.792070
 30
0.0
 10
137.108770
 20
60.792070
 30
0.0
  0
SPLINE
  5
18e
100
AcDbEntity
  8
0
 62
5
100
AcDbSpline
 70
8
 71
3
 72
8
 73
4
 74
0
 40
0
 40
0
 40
0
 40
0
 40
1
 40
1
 40
1
 40
1
 10
137.108770
 20
60.792070
 30
0.0
 10
137.716260
 20
60.792070
 30
0.0
 10
138.208730
 20
61.284550
 30
0.0
 10
138.208730
 20
61.892030
 30
0.0
  0
SPLINE
  5
18f
100
AcDbEntity
  8
0
 62
5
100
AcDbSpline
 70
8
 71
3
 72
8
 73
4
 74
0
 40
0
 40
0
 40
0
 40
0
 40
1
 40
1
 40
1
 40
1
 10
65.663410
 20
5.399260
 30
0.0
 10
65.663410
 20
5.123030
 30
0.0
 10
65.886720
 20
4.899020
 30
0.0
 10
66.163300
 20
4.899020
 30
0.0
  0
SPLINE
  5
190
100
AcDbEntity
  8
0
 62
5
100
AcDbSpline
 70
8
 71
3
 72
8
 73
4
 74
0
 40
0
 40
0
 40
0
 40
0
 40
1
 40
1
 40
1
 40
1
 10
20.817124
 20
134.373140
 30
0.0
 10
21.093702
 20
134.373140
 30
0.0
 10
21.317010
 20
134.149760
 30
0.0
 10
21.317010
 20
133.873890
 30
0.0
  0
SPLINE
  5
191
100
AcDbEntity
  8
0
 62
5
100
AcDbSpline
 70
8
 71
3
 72
8
 73
4
 74
0
 40
0
 40
0
 40
0
 40
0
 40
1
 40
1
 40
1
 40
1
 10
21.317363
 20
97.874320
 30
0.0
 10
21.317363
 20
97.598450
 30
0.0
 10
21.541024
 20
97.374440
 30
0.0
 10
21.816896
 20
97.374440
 30
0.0
  0
LINE
  5
192
100
AcDbEntity
  8
0
 62
5
100
AcDbLine
 10
21.316657
 20
133.873890
 30
0.0
 11
21.316657
 21
97.876090
 31
0.0
  0
SPLINE
  5
193
100
AcDbEntity
  8
0
 62
5
100
AcDbSpline
 70
8
 71
3
 72
8
 73
4
 74
0
 40
0
 40
0
 40
0
 40
0
 40
1
 40
1
 40
1
 40
1
 10
25.566924
 20
97.375140
 30
0.0
 10
25.843149
 20
97.375140
 30
0.0
 10
26.067163
 20
97.150770
 30
0.0
 10
26.067163
 20
96.874900
 30
0.0
  0
LINE
  5
194
100
AcDbEntity
  8
0
 62
5
100
AcDbLine
 10
21.816896
 20
97.374790
 30
0.0
 11
25.566924
 21
97.374790
 31
0.0
  0
SPLINE
  5
195
100
AcDbEntity
  8
0
 62
5
100
AcDbSpline
 70
8
 71
3
 72
8
 73
4
 74
0
 40
0
 40
0
 40
0
 40
0
 40
1
 40
1
 40
1
 40
1
 10
26.067163
 20
78.874770
 30
0.0
 10
26.067163
 20
78.598900
 30
0.0
 10
26.291177
 20
78.375940
 30
0.0
 10
26.567049
 20
78.375940
 30
0.0
  0
LINE
  5
196
100
AcDbEntity
  8
0
 62
5
100
AcDbLine
 10
26.066458
 20
96.874900
 30
0.0
 11
26.066458
 21
78.875830
 31
0.0
  0
SPLINE
  5
197
100
AcDbEntity
  8
0
 62
5
100
AcDbSpline
 70
8
 71
3
 72
8
 73
4
 74
0
 40
0
 40
0
 40
0
 40
0
 40
1
 40
1
 40
1
 40
1
 10
27.816941
 20
78.375940
 30
0.0
 10
28.092813
 20
78.375940
 30
0.0
 10
28.316827
 20
78.150870
 30
0.0
 10
28.316827
 20
77.875000
 30
0.0
  0
LINE
  5
198
100
AcDbEntity
  8
0
 62
5
100
AcDbLine
 10
26.566697
 20
78.375940
 30
0.0
 11
27.816236
 21
78.375940
 31
0.0
  0
SPLINE
  5
199
100
AcDbEntity
  8
0
 62
5
100
AcDbSpline
 70
8
 71
3
 72
8
 73
4
 74
0
 40
0
 40
0
 40
0
 40
0
 40
1
 40
1
 40
1
 40
1
 10
28.317180
 20
56.875900
 30
0.0
 10
28.317180
 20
56.600020
 30
0.0
 10
28.092813
 20
56.376010
 30
0.0
 10
27.816941
 20
56.376010
 30
0.0
  0
LINE
  5
19a
100
AcDbEntity
  8
0
 62
5
100
AcDbLine
 10
28.316475
 20
77.876050
 30
0.0
 11
28.316475
 21
56.875900
 31
0.0
  0
SPLINE
  5
19b
100
AcDbEntity
  8
0
 62
5
100
AcDbSpline
 70
8
 71
3
 72
8
 73
4
 74
0
 40
0
 40
0
 40
0
 40
0
 40
1
 40
1
 40
1
 40
1
 10
26.566697
 20
56.376010
 30
0.0
 10
26.290824
 20
56.376010
 30
0.0
 10
26.067163
 20
56.152350
 30
0.0
 10
26.067163
 20
55.875770
 30
0.0
  0
LINE
  5
19c
100
AcDbEntity
  8
0
 62
5
100
AcDbLine
 10
27.816236
 20
56.376010
 30
0.0
 11
26.566697
 21
56.376010
 31
0.0
  0
SPLINE
  5
19d
100
AcDbEntity
  8
0
 62
5
100
AcDbSpline
 70
8
 71
3
 72
8
 73
4
 74
0
 40
0
 40
0
 40
0
 40
0
 40
1
 40
1
 40
1
 40
1
 10
26.067163
 20
37.877050
 30
0.0
 10
26.067163
 20
37.600470
 30
0.0
 10
25.842797
 20
37.376810
 30
0.0
 10
25.566924
 20
37.376810
 30
0.0
  0
LINE
  5
19e
100
AcDbEntity
  8
0
 62
5
100
AcDbLine
 10
26.066458
 20
55.875770
 30
0.0
 11
26.066458
 21
37.877050
 31
0.0
  0
SPLINE
  5
19f
100
AcDbEntity
  8
0
 62
5
100
AcDbSpline
 70
8
 71
3
 72
8
 73
4
 74
0
 40
0
 40
0
 40
0
 40
0
 40
1
 40
1
 40
1
 40
1
 10
24.066913
 20
37.376810
 30
0.0
 10
23.791041
 20
37.376810
 30
0.0
 10
23.567027
 20
37.153500
 30
0.0
 10
23.567027
 20
36.876920
 30
0.0
  0
LINE
  5
1a0
100
AcDbEntity
  8
0
 62
5
100
AcDbLine
 10
25.566924
 20
37.376810
 30
0.0
 11
24.066913
 21
37.376810
 31
0.0
  0
LINE
  5
1a1
100
AcDbEntity
  8
0
 62
5
100
AcDbLine
 10
23.566674
 20
36.876920
 30
0.0
 11
23.566674
 21
29.396630
 31
0.0
  0
LINE
  5
1a2
100
AcDbEntity
  8
0
 62
5
100
AcDbLine
 10
23.566674
 20
29.396630
 30
0.0
 11
23.566674
 21
9.869740
 31
0.0
  0
LINE
  5
1a3
100
AcDbEntity
  8
0
 62
5
100
AcDbLine
 10
23.566674
 20
9.869740
 30
0.0
 11
23.566674
 21
0.650940
 31
0.0
  0
SPLINE
  5
1a4
100
AcDbEntity
  8
0
 62
5
100
AcDbSpline
 70
8
 71
3
 72
8
 73
4
 74
0
 40
0
 40
0
 40
0
 40
0
 40
1
 40
1
 40
1
 40
1
 10
23.567400
 20
0.650830
 30
0.0
 10
23.567400
 20
0.374260
 30
0.0
 10
23.342680
 20
0.149890
 30
0.0
 10
23.066808
 20
0.149890
 30
0.0
  0
LINE
  5
1a5
100
AcDbEntity
  8
0
 62
5
100
AcDbLine
 10
23.066103
 20
0.149890
 30
0.0
 11
0.150012
 21
0.149890
 31
0.0
  0
LINE
  5
1a6
100
AcDbEntity
  8
0
 62
5
100
AcDbLine
 10
0.150012
 20
0.149890
 30
0.0
 11
0.150012
 21
10.417490
 31
0.0
  0
LINE
  5
1a7
100
AcDbEntity
  8
0
 62
5
100
AcDbLine
 10
0.150012
 20
10.417490
 30
0.0
 11
0.150012
 21
29.944380
 31
0.0
  0
LINE
  5
1a8
100
AcDbEntity
  8
0
 62
5
100
AcDbLine
 10
0.150012
 20
29.944380
 30
0.0
 11
0.150012
 21
134.373700
 31
0.0
  0
LINE
  5
1a9
100
AcDbEntity
  8
0
 62
5
100
AcDbLine
 10
0.150012
 20
134.373700
 30
0.0
 11
20.817497
 21
134.373700
 31
0.0
  0
SPLINE
  5
1aa
100
AcDbEntity
  8
0
 62
5
100
AcDbSpline
 70
8
 71
3
 72
8
 73
4
 74
0
 40
0
 40
0
 40
0
 40
0
 40
1
 40
1
 40
1
 40
1
 10
6.317952
 20
39.957730
 30
0.0
 10
5.710472
 20
39.957030
 30
0.0
 10
5.217992
 20
39.465250
 30
0.0
 10
5.217992
 20
38.857770
 30
0.0
  0
SPLINE
  5
1ab
100
AcDbEntity
  8
0
 62
5
100
AcDbSpline
 70
8
 71
3
 72
8
 73
4
 74
0
 40
0
 40
0
 40
0
 40
0
 40
1
 40
1
 40
1
 40
1
 10
5.217992
 20
38.857770
 30
0.0
 10
5.217992
 20
38.250290
 30
0.0
 10
5.710472
 20
37.757100
 30
0.0
 10
6.317952
 20
37.757100
 30
0.0
  0
SPLINE
  5
1ac
100
AcDbEntity
  8
0
 62
5
100
AcDbSpline
 70
8
 71
3
 72
8
 73
4
 74
0
 40
0
 40
0
 40
0
 40
0
 40
1
 40
1
 40
1
 40
1
 10
6.317952
 20
37.757100
 30
0.0
 10
6.925442
 20
37.757100
 30
0.0
 10
7.417922
 20
38.250290
 30
0.0
 10
7.417922
 20
38.857770
 30
0.0
  0
SPLINE
  5
1ad
100
AcDbEntity
  8
0
 62
5
100
AcDbSpline
 70
8
 71
3
 72
8
 73
4
 74
0
 40
0
 40
0
 40
0
 40
0
 40
1
 40
1
 40
1
 40
1
 10
7.417922
 20
38.857770
 30
0.0
 10
7.417922
 20
39.465250
 30
0.0
 10
6.925442
 20
39.957030
 30
0.0
 10
6.317952
 20
39.957030
 30
0.0
  0
SPLINE
  5
1ae
100
AcDbEntity
  8
0
 62
5
100
AcDbSpline
 70
8
 71
3
 72
8
 73
4
 74
0
 40
0
 40
0
 40
0
 40
0
 40
1
 40
1
 40
1
 40
1
 10
2.695632
 20
115.971080
 30
0.0
 10
2.088152
 20
115.971080
 30
0.0
 10
1.595672
 20
115.478570
 30
0.0
 10
1.595672
 20
114.871120
 30
0.0
  0
SPLINE
  5
1af
100
AcDbEntity
  8
0
 62
5
100
AcDbSpline
 70
8
 71
3
 72
8
 73
4
 74
0
 40
0
 40
0
 40
0
 40
0
 40
1
 40
1
 40
1
 40
1
 10
1.595672
 20
114.871120
 30
0.0
 10
1.595672
 20
114.263710
 30
0.0
 10
2.088152
 20
113.771200
 30
0.0
 10
2.695632
 20
113.771200
 30
0.0
  0
SPLINE
  5
1b0
100
AcDbEntity
  8
0
 62
5
100
AcDbSpline
 70
8
 71
3
 72
8
 73
4
 74
0
 40
0
 40
0
 40
0
 40
0
 40
1
 40
1
 40
1
 40
1
 10
2.695632
 20
113.771200
 30
0.0
 10
3.303122
 20
113.771200
 30
0.0
 10
3.795592
 20
114.263710
 30
0.0
 10
3.795592
 20
114.871120
 30
0.0
  0
SPLINE
  5
1b1
100
AcDbEntity
  8
0
 62
5
100
AcDbSpline
 70
8
 71
3
 72
8
 73
4
 74
0
 40
0
 40
0
 40
0
 40
0
 40
1
 40
1
 40
1
 40
1
 10
3.795592
 20
114.871120
 30
0.0
 10
3.795592
 20
115.478570
 30
0.0
 10
3.303122
 20
115.971080
 30
0.0
 10
2.695632
 20
115.971080
 30
0.0
  0
ENDSEC
  0
SECTION
  2
OBJECTS
  0
DICTIONARY
  5
C
330
0
100
AcDbDictionary
  3
ACAD_GROUP
350
D
  3
ACAD_MLINESTYLE
350
17
  0
DICTIONARY
  5
D
330
C
100
AcDbDictionary
  0
DICTIONARY
  5
1A
330
C
100
AcDbDictionary
  0
DICTIONARY
  5
17
330
C
100
AcDbDictionary
  3
STANDARD
350
18
  0
DICTIONARY
  5
19
330
C
100
AcDbDictionary
  0
ENDSEC
  0
EOF
